%TF.GenerationSoftware,KiCad,Pcbnew,(6.0.5)*%
%TF.CreationDate,2022-07-19T14:03:45+07:00*%
%TF.ProjectId,atm128,61746d31-3238-42e6-9b69-6361645f7063,1.0*%
%TF.SameCoordinates,Original*%
%TF.FileFunction,Soldermask,Top*%
%TF.FilePolarity,Negative*%
%FSLAX46Y46*%
G04 Gerber Fmt 4.6, Leading zero omitted, Abs format (unit mm)*
G04 Created by KiCad (PCBNEW (6.0.5)) date 2022-07-19 14:03:45*
%MOMM*%
%LPD*%
G01*
G04 APERTURE LIST*
G04 Aperture macros list*
%AMRoundRect*
0 Rectangle with rounded corners*
0 $1 Rounding radius*
0 $2 $3 $4 $5 $6 $7 $8 $9 X,Y pos of 4 corners*
0 Add a 4 corners polygon primitive as box body*
4,1,4,$2,$3,$4,$5,$6,$7,$8,$9,$2,$3,0*
0 Add four circle primitives for the rounded corners*
1,1,$1+$1,$2,$3*
1,1,$1+$1,$4,$5*
1,1,$1+$1,$6,$7*
1,1,$1+$1,$8,$9*
0 Add four rect primitives between the rounded corners*
20,1,$1+$1,$2,$3,$4,$5,0*
20,1,$1+$1,$4,$5,$6,$7,0*
20,1,$1+$1,$6,$7,$8,$9,0*
20,1,$1+$1,$8,$9,$2,$3,0*%
%AMRotRect*
0 Rectangle, with rotation*
0 The origin of the aperture is its center*
0 $1 length*
0 $2 width*
0 $3 Rotation angle, in degrees counterclockwise*
0 Add horizontal line*
21,1,$1,$2,0,0,$3*%
G04 Aperture macros list end*
%TA.AperFunction,Profile*%
%ADD10C,0.127000*%
%TD*%
%ADD11RoundRect,0.250000X-0.262500X-0.450000X0.262500X-0.450000X0.262500X0.450000X-0.262500X0.450000X0*%
%ADD12RoundRect,0.243750X-0.243750X-0.456250X0.243750X-0.456250X0.243750X0.456250X-0.243750X0.456250X0*%
%ADD13C,1.000000*%
%ADD14RoundRect,0.250000X0.600000X0.600000X-0.600000X0.600000X-0.600000X-0.600000X0.600000X-0.600000X0*%
%ADD15C,1.700000*%
%ADD16RoundRect,0.200000X0.200000X0.275000X-0.200000X0.275000X-0.200000X-0.275000X0.200000X-0.275000X0*%
%ADD17RoundRect,0.250000X-0.512652X-0.159099X-0.159099X-0.512652X0.512652X0.159099X0.159099X0.512652X0*%
%ADD18RoundRect,0.250000X-0.250000X-0.475000X0.250000X-0.475000X0.250000X0.475000X-0.250000X0.475000X0*%
%ADD19RoundRect,0.250000X0.262500X0.450000X-0.262500X0.450000X-0.262500X-0.450000X0.262500X-0.450000X0*%
%ADD20R,2.000000X3.000000*%
%ADD21R,2.000000X4.600000*%
%ADD22O,2.000000X4.200000*%
%ADD23O,4.200000X2.000000*%
%ADD24RotRect,1.500000X0.550000X225.000000*%
%ADD25RotRect,1.500000X0.550000X315.000000*%
%ADD26R,1.700000X1.700000*%
%ADD27O,1.700000X1.700000*%
%ADD28RoundRect,0.243750X0.243750X0.456250X-0.243750X0.456250X-0.243750X-0.456250X0.243750X-0.456250X0*%
%ADD29R,2.000000X4.500000*%
%ADD30R,4.600000X1.100000*%
%ADD31R,9.400000X10.800000*%
%ADD32RoundRect,0.250000X-0.475000X0.250000X-0.475000X-0.250000X0.475000X-0.250000X0.475000X0.250000X0*%
%ADD33RoundRect,0.250000X0.512652X0.159099X0.159099X0.512652X-0.512652X-0.159099X-0.159099X-0.512652X0*%
%ADD34RoundRect,0.250000X0.159099X-0.512652X0.512652X-0.159099X-0.159099X0.512652X-0.512652X0.159099X0*%
%ADD35RoundRect,0.250000X1.950000X1.000000X-1.950000X1.000000X-1.950000X-1.000000X1.950000X-1.000000X0*%
%ADD36RoundRect,0.250000X0.450000X-0.262500X0.450000X0.262500X-0.450000X0.262500X-0.450000X-0.262500X0*%
%ADD37R,1.500000X2.120000*%
%ADD38R,1.000000X1.000000*%
%ADD39O,1.000000X1.000000*%
%ADD40RoundRect,0.250000X0.475000X-0.250000X0.475000X0.250000X-0.475000X0.250000X-0.475000X-0.250000X0*%
%ADD41RoundRect,0.250000X1.500000X0.550000X-1.500000X0.550000X-1.500000X-0.550000X1.500000X-0.550000X0*%
%ADD42R,1.400000X0.300000*%
%ADD43R,0.950000X1.400000*%
%ADD44RoundRect,0.250000X0.250000X0.475000X-0.250000X0.475000X-0.250000X-0.475000X0.250000X-0.475000X0*%
%ADD45R,1.400000X2.100000*%
%ADD46R,2.120000X1.500000*%
%ADD47C,0.650000*%
%ADD48R,0.600000X1.450000*%
%ADD49R,0.300000X1.450000*%
%ADD50O,1.000000X1.600000*%
%ADD51O,1.000000X2.100000*%
%ADD52RoundRect,0.250000X0.503814X0.132583X0.132583X0.503814X-0.503814X-0.132583X-0.132583X-0.503814X0*%
G04 APERTURE END LIST*
D10*
X53336261Y-78235739D02*
G75*
G03*
X56384261Y-81283739I3048039J39D01*
G01*
X126495739Y-81283739D02*
G75*
G03*
X129543739Y-78235739I-39J3048039D01*
G01*
X129543702Y-28444261D02*
G75*
G03*
X126495739Y-25400000I-3044302J-39D01*
G01*
X53336261Y-78235739D02*
X53336261Y-28444261D01*
X129543739Y-28444261D02*
X129543739Y-78235739D01*
X56384261Y-25400003D02*
G75*
G03*
X53336261Y-28444261I-3751J-3044247D01*
G01*
X56384261Y-25400000D02*
X126495739Y-25400000D01*
X126495739Y-81283739D02*
X56384261Y-81283739D01*
D11*
%TO.C,R11*%
X82466099Y-63327991D03*
X84291099Y-63327991D03*
%TD*%
D12*
%TO.C,D8*%
X82450700Y-61315600D03*
X84325700Y-61315600D03*
%TD*%
D11*
%TO.C,R4*%
X113489100Y-36677600D03*
X115314100Y-36677600D03*
%TD*%
D13*
%TO.C,TP1*%
X69088000Y-36322000D03*
%TD*%
D14*
%TO.C,J4*%
X125872900Y-60045600D03*
D15*
X123332900Y-60045600D03*
X125872900Y-57505600D03*
X123332900Y-57505600D03*
X125872900Y-54965600D03*
X123332900Y-54965600D03*
X125872900Y-52425600D03*
X123332900Y-52425600D03*
X125872900Y-49885600D03*
X123332900Y-49885600D03*
%TD*%
D11*
%TO.C,R10*%
X114632100Y-46837600D03*
X116457100Y-46837600D03*
%TD*%
D16*
%TO.C,R9*%
X115429800Y-52324000D03*
X113779800Y-52324000D03*
%TD*%
D17*
%TO.C,C6*%
X113628249Y-55843249D03*
X114971751Y-57186751D03*
%TD*%
D11*
%TO.C,R2*%
X77954500Y-39751000D03*
X79779500Y-39751000D03*
%TD*%
D18*
%TO.C,C17*%
X75783400Y-62865000D03*
X77683400Y-62865000D03*
%TD*%
D19*
%TO.C,R5*%
X115720500Y-50546000D03*
X113895500Y-50546000D03*
%TD*%
%TO.C,R13*%
X97432500Y-38608000D03*
X95607500Y-38608000D03*
%TD*%
D20*
%TO.C,L1*%
X59538000Y-41402000D03*
X65938000Y-41402000D03*
%TD*%
D12*
%TO.C,D7*%
X114581700Y-44805600D03*
X116456700Y-44805600D03*
%TD*%
D19*
%TO.C,R1*%
X68832100Y-28244800D03*
X67007100Y-28244800D03*
%TD*%
D21*
%TO.C,J1*%
X67157600Y-73746600D03*
D22*
X60857600Y-73746600D03*
D23*
X64257600Y-78546600D03*
%TD*%
D11*
%TO.C,R3*%
X113489100Y-38658800D03*
X115314100Y-38658800D03*
%TD*%
%TO.C,R7*%
X113489100Y-42621200D03*
X115314100Y-42621200D03*
%TD*%
D24*
%TO.C,U2*%
X111287363Y-52137918D03*
X110721677Y-51572233D03*
X110155992Y-51006548D03*
X109590307Y-50440862D03*
X109024621Y-49875177D03*
X108458936Y-49309491D03*
X107893250Y-48743806D03*
X107327565Y-48178120D03*
X106761880Y-47612435D03*
X106196194Y-47046750D03*
X105630509Y-46481064D03*
X105064823Y-45915379D03*
X104499138Y-45349693D03*
X103933452Y-44784008D03*
X103367767Y-44218323D03*
X102802082Y-43652637D03*
D25*
X100397918Y-43652637D03*
X99832233Y-44218323D03*
X99266548Y-44784008D03*
X98700862Y-45349693D03*
X98135177Y-45915379D03*
X97569491Y-46481064D03*
X97003806Y-47046750D03*
X96438120Y-47612435D03*
X95872435Y-48178120D03*
X95306750Y-48743806D03*
X94741064Y-49309491D03*
X94175379Y-49875177D03*
X93609693Y-50440862D03*
X93044008Y-51006548D03*
X92478323Y-51572233D03*
X91912637Y-52137918D03*
D24*
X91912637Y-54542082D03*
X92478323Y-55107767D03*
X93044008Y-55673452D03*
X93609693Y-56239138D03*
X94175379Y-56804823D03*
X94741064Y-57370509D03*
X95306750Y-57936194D03*
X95872435Y-58501880D03*
X96438120Y-59067565D03*
X97003806Y-59633250D03*
X97569491Y-60198936D03*
X98135177Y-60764621D03*
X98700862Y-61330307D03*
X99266548Y-61895992D03*
X99832233Y-62461677D03*
X100397918Y-63027363D03*
D25*
X102802082Y-63027363D03*
X103367767Y-62461677D03*
X103933452Y-61895992D03*
X104499138Y-61330307D03*
X105064823Y-60764621D03*
X105630509Y-60198936D03*
X106196194Y-59633250D03*
X106761880Y-59067565D03*
X107327565Y-58501880D03*
X107893250Y-57936194D03*
X108458936Y-57370509D03*
X109024621Y-56804823D03*
X109590307Y-56239138D03*
X110155992Y-55673452D03*
X110721677Y-55107767D03*
X111287363Y-54542082D03*
%TD*%
D26*
%TO.C,J3*%
X86360000Y-78486000D03*
D27*
X86360000Y-75946000D03*
X88900000Y-78486000D03*
X88900000Y-75946000D03*
X91440000Y-78486000D03*
X91440000Y-75946000D03*
X93980000Y-78486000D03*
X93980000Y-75946000D03*
X96520000Y-78486000D03*
X96520000Y-75946000D03*
X99060000Y-78486000D03*
X99060000Y-75946000D03*
X101600000Y-78486000D03*
X101600000Y-75946000D03*
X104140000Y-78486000D03*
X104140000Y-75946000D03*
X106680000Y-78486000D03*
X106680000Y-75946000D03*
X109220000Y-78486000D03*
X109220000Y-75946000D03*
X111760000Y-78486000D03*
X111760000Y-75946000D03*
X114300000Y-78486000D03*
X114300000Y-75946000D03*
X116840000Y-78486000D03*
X116840000Y-75946000D03*
X119380000Y-78486000D03*
X119380000Y-75946000D03*
X121920000Y-78486000D03*
X121920000Y-75946000D03*
X124460000Y-78486000D03*
X124460000Y-75946000D03*
%TD*%
D28*
%TO.C,D4*%
X68857100Y-30784800D03*
X66982100Y-30784800D03*
%TD*%
D29*
%TO.C,XTAL1*%
X84963000Y-57590000D03*
X84963000Y-49090000D03*
%TD*%
D26*
%TO.C,J2*%
X86360000Y-30226000D03*
D27*
X86360000Y-27686000D03*
X88900000Y-30226000D03*
X88900000Y-27686000D03*
X91440000Y-30226000D03*
X91440000Y-27686000D03*
X93980000Y-30226000D03*
X93980000Y-27686000D03*
X96520000Y-30226000D03*
X96520000Y-27686000D03*
X99060000Y-30226000D03*
X99060000Y-27686000D03*
X101600000Y-30226000D03*
X101600000Y-27686000D03*
X104140000Y-30226000D03*
X104140000Y-27686000D03*
X106680000Y-30226000D03*
X106680000Y-27686000D03*
X109220000Y-30226000D03*
X109220000Y-27686000D03*
X111760000Y-30226000D03*
X111760000Y-27686000D03*
X114300000Y-30226000D03*
X114300000Y-27686000D03*
X116840000Y-30226000D03*
X116840000Y-27686000D03*
X119380000Y-30226000D03*
X119380000Y-27686000D03*
X121920000Y-30226000D03*
X121920000Y-27686000D03*
X124460000Y-30226000D03*
X124460000Y-27686000D03*
%TD*%
D30*
%TO.C,U1*%
X68193011Y-55508011D03*
X68193011Y-53808011D03*
D31*
X59043011Y-52108011D03*
D30*
X68193011Y-52108011D03*
X68193011Y-50408011D03*
X68193011Y-48708011D03*
%TD*%
D28*
%TO.C,D6*%
X119936500Y-40665400D03*
X118061500Y-40665400D03*
%TD*%
D19*
%TO.C,R19*%
X84273395Y-66598800D03*
X82448395Y-66598800D03*
%TD*%
D32*
%TO.C,C8*%
X81280000Y-55692000D03*
X81280000Y-57592000D03*
%TD*%
D17*
%TO.C,C4*%
X104267000Y-64225249D03*
X105610502Y-65568751D03*
%TD*%
D33*
%TO.C,C9*%
X113549351Y-58609151D03*
X112205849Y-57265649D03*
%TD*%
D28*
%TO.C,D5*%
X119936500Y-42773600D03*
X118061500Y-42773600D03*
%TD*%
D19*
%TO.C,R12*%
X97432500Y-40640000D03*
X95607500Y-40640000D03*
%TD*%
D34*
%TO.C,C5*%
X96737249Y-44486751D03*
X98080751Y-43143249D03*
%TD*%
D35*
%TO.C,C1*%
X64152011Y-63284011D03*
X56752011Y-63284011D03*
%TD*%
D36*
%TO.C,R16*%
X70408800Y-77188700D03*
X70408800Y-75363700D03*
%TD*%
D37*
%TO.C,D1*%
X68834011Y-66244011D03*
X68834011Y-62014011D03*
%TD*%
D17*
%TO.C,C3*%
X105754249Y-62701249D03*
X107097751Y-64044751D03*
%TD*%
D13*
%TO.C,TP2*%
X103251000Y-67183000D03*
%TD*%
D38*
%TO.C,J5*%
X126746000Y-67056000D03*
D39*
X128016000Y-67056000D03*
X126746000Y-68326000D03*
X128016000Y-68326000D03*
X126746000Y-69596000D03*
X128016000Y-69596000D03*
X126746000Y-70866000D03*
X128016000Y-70866000D03*
X126746000Y-72136000D03*
X128016000Y-72136000D03*
%TD*%
D13*
%TO.C,TP4*%
X122428000Y-66802000D03*
%TD*%
D19*
%TO.C,R18*%
X84273395Y-68580000D03*
X82448395Y-68580000D03*
%TD*%
D13*
%TO.C,TP5*%
X66421000Y-60071000D03*
%TD*%
D11*
%TO.C,R8*%
X113489100Y-40640000D03*
X115314100Y-40640000D03*
%TD*%
D40*
%TO.C,C7*%
X81280000Y-50988000D03*
X81280000Y-49088000D03*
%TD*%
D41*
%TO.C,C2*%
X62136011Y-30772011D03*
X56736011Y-30772011D03*
%TD*%
D42*
%TO.C,U4*%
X74533400Y-66868800D03*
X74533400Y-67368800D03*
X74533400Y-67868800D03*
X74533400Y-68368800D03*
X74533400Y-68868800D03*
X78933400Y-68868800D03*
X78933400Y-68368800D03*
X78933400Y-67868800D03*
X78933400Y-67368800D03*
X78933400Y-66868800D03*
%TD*%
D43*
%TO.C,S3*%
X121226400Y-34340800D03*
X117076400Y-34340800D03*
%TD*%
D44*
%TO.C,C16*%
X81112400Y-72161400D03*
X79212400Y-72161400D03*
%TD*%
D37*
%TO.C,D3*%
X55626000Y-37255000D03*
X55626000Y-41485000D03*
%TD*%
D18*
%TO.C,C15*%
X75783400Y-64922400D03*
X77683400Y-64922400D03*
%TD*%
D36*
%TO.C,R17*%
X83108800Y-77188700D03*
X83108800Y-75363700D03*
%TD*%
D43*
%TO.C,S2*%
X121201000Y-37820600D03*
X117051000Y-37820600D03*
%TD*%
D45*
%TO.C,S1*%
X75347000Y-36808000D03*
X75347000Y-27708000D03*
X79847000Y-36808000D03*
X79847000Y-27708000D03*
%TD*%
D46*
%TO.C,D2*%
X69005000Y-41402000D03*
X73235000Y-41402000D03*
%TD*%
D47*
%TO.C,J6*%
X79648800Y-75887194D03*
X73868800Y-75887194D03*
D48*
X73508800Y-74442194D03*
X74308800Y-74442194D03*
D49*
X75508800Y-74442194D03*
X76508800Y-74442194D03*
X77008800Y-74442194D03*
X78008800Y-74442194D03*
D48*
X79208800Y-74442194D03*
X80008800Y-74442194D03*
X80008800Y-74442194D03*
X79208800Y-74442194D03*
D49*
X78508800Y-74442194D03*
X77508800Y-74442194D03*
X76008800Y-74442194D03*
X75008800Y-74442194D03*
D48*
X74308800Y-74442194D03*
X73508800Y-74442194D03*
D50*
X72438800Y-79537194D03*
D51*
X81078800Y-75357194D03*
X72438800Y-75357194D03*
D50*
X81078800Y-79537194D03*
%TD*%
D52*
%TO.C,R6*%
X116316835Y-55737835D03*
X115026365Y-54447365D03*
%TD*%
M02*
