M48
; DRILL file {KiCad (6.0.5)} date Tue Jun 14 16:16:38 2022
; FORMAT={-:-/ absolute / inch / decimal}
; #@! TF.CreationDate,2022-06-14T16:16:38+07:00
; #@! TF.GenerationSoftware,Kicad,Pcbnew,(6.0.5)
; #@! TF.FileFunction,MixedPlating,1,2
FMAT,2
INCH
; #@! TA.AperFunction,Plated,PTH,ViaDrill
T1C0.0100
; #@! TA.AperFunction,Plated,PTH,ViaDrill
T2C0.0157
; #@! TA.AperFunction,Plated,PTH,ViaDrill
T3C0.0160
; #@! TA.AperFunction,Plated,PTH,ComponentDrill
T4C0.0236
; #@! TA.AperFunction,Plated,PTH,ComponentDrill
T5C0.0256
; #@! TA.AperFunction,Plated,PTH,ComponentDrill
T6C0.0335
; #@! TA.AperFunction,Plated,PTH,ComponentDrill
T7C0.0394
%
G90
G05
T1
X2.825Y-2.1
X2.855Y-2.03
X2.855Y-2.07
X3.025Y-2.665
X3.055Y-2.64
X3.055Y-2.735
X3.055Y-2.77
X3.055Y-2.805
X3.055Y-2.84
X3.125Y-1.85
X3.125Y-1.925
X3.125Y-2.065
X3.125Y-2.13
X3.125Y-2.25
X3.125Y-2.325
X3.14Y-2.435
X3.14Y-2.48
X3.155Y-2.385
X3.2Y-1.65
X3.2Y-1.75
X3.245Y-1.8
X3.25Y-1.3
X3.25Y-1.4
X3.25Y-1.6
X3.25Y-1.7
X3.3Y-1.35
X3.3Y-1.45
X3.3Y-1.75
X3.305Y-1.65
X3.35Y-1.3
X3.35Y-1.4
X3.35Y-1.5
X3.35Y-1.7
X3.4Y-1.55
X3.4Y-1.75
X3.5Y-2.0
X3.5Y-2.2
X3.5Y-2.25
X3.5Y-2.3
T2
X3.92Y-1.82
X4.19Y-1.96
X4.38Y-1.9
X4.69Y-1.96
T3
X2.175Y-1.915
X2.175Y-2.0
X2.175Y-2.085
X2.175Y-2.18
X2.19Y-1.4
X2.2Y-1.87
X2.2Y-1.96
X2.2Y-2.04
X2.2Y-2.135
X2.2Y-2.225
X2.225Y-1.915
X2.225Y-2.0
X2.225Y-2.085
X2.225Y-2.18
X2.235Y-1.265
X2.235Y-2.415
X2.235Y-2.565
X2.25Y-1.465
X2.25Y-1.87
X2.25Y-1.96
X2.25Y-2.04
X2.25Y-2.135
X2.25Y-2.225
X2.275Y-1.915
X2.275Y-2.0
X2.275Y-2.085
X2.275Y-2.18
X2.3Y-1.87
X2.3Y-1.96
X2.3Y-2.04
X2.3Y-2.135
X2.3Y-2.225
X2.35Y-1.87
X2.35Y-1.96
X2.35Y-2.04
X2.35Y-2.135
X2.35Y-2.225
X2.375Y-1.915
X2.375Y-2.0
X2.375Y-2.085
X2.375Y-2.18
X2.4Y-1.87
X2.4Y-1.96
X2.4Y-2.04
X2.4Y-2.135
X2.4Y-2.225
X2.425Y-1.915
X2.425Y-2.0
X2.425Y-2.085
X2.425Y-2.18
X2.45Y-1.87
X2.45Y-1.96
X2.45Y-2.04
X2.45Y-2.135
X2.45Y-2.225
X2.59Y-1.11
X2.62Y-1.87
X2.68Y-1.87
X2.73Y-1.87
X2.8Y-2.05
X2.835Y-2.9
X2.905Y-1.45
X2.92Y-1.09
X2.965Y-1.15
X3.015Y-1.09
X3.143Y-2.008
X3.15Y-2.193
X3.2Y-1.09
X3.2Y-1.45
X3.315Y-2.79
X3.315Y-2.865
X3.4Y-2.04
X3.4Y-2.17
X3.415Y-2.42
X3.415Y-2.635
X3.78Y-2.165
X3.82Y-2.21
X3.83Y-1.93
X3.84Y-1.985
X3.88Y-1.868
X3.89Y-1.67
X3.9Y-2.05
X3.9Y-2.15
X3.905Y-2.25
X3.95Y-2.0
X3.95Y-2.1
X3.95Y-2.2
X3.95Y-2.3
X4.0Y-2.05
X4.005Y-2.15
X4.005Y-2.25
X4.02Y-2.365
X4.03Y-2.42
X4.065Y-2.58
X4.1Y-1.955
X4.1Y-2.05
X4.1Y-2.15
X4.1Y-2.25
X4.105Y-2.34
X4.15Y-2.1
X4.15Y-2.63
X4.155Y-2.2
X4.2Y-2.05
X4.2Y-2.15
X4.25Y-2.1
X4.265Y-2.52
X4.3Y-2.69
X4.305Y-2.65
X4.314Y-2.126
X4.501Y-2.34
X4.55Y-1.808
X4.55Y-2.745
X4.556Y-2.28
X4.584Y-2.06
X4.595Y-2.105
X4.6Y-2.84
X4.615Y-2.23
X4.64Y-2.06
X4.645Y-2.105
X4.65Y-2.79
X4.75Y-2.25
X4.79Y-1.35
X4.79Y-1.489
X4.8Y-2.2
X4.8Y-2.3
X4.826Y-1.849
X4.827Y-1.767
X4.835Y-1.605
X4.836Y-1.689
X4.85Y-2.25
T5
X4.99Y-2.64
X4.99Y-2.69
X4.99Y-2.74
X4.99Y-2.79
X4.99Y-2.84
X5.04Y-2.64
X5.04Y-2.69
X5.04Y-2.74
X5.04Y-2.79
X5.04Y-2.84
T6
X2.9339Y-2.9991
X3.1307Y-2.9991
T7
X3.4Y-3.0
X3.4Y-3.1
X3.4Y-1.09
X3.4Y-1.19
X3.5Y-3.0
X3.5Y-3.1
X3.5Y-1.09
X3.5Y-1.19
X3.6Y-3.0
X3.6Y-3.1
X3.6Y-1.09
X3.6Y-1.19
X3.7Y-3.0
X3.7Y-3.1
X3.7Y-1.09
X3.7Y-1.19
X3.8Y-3.0
X3.8Y-3.1
X3.8Y-1.09
X3.8Y-1.19
X3.9Y-3.0
X3.9Y-3.1
X3.9Y-1.09
X3.9Y-1.19
X4.0Y-3.0
X4.0Y-3.1
X4.0Y-1.09
X4.0Y-1.19
X4.1Y-3.0
X4.1Y-3.1
X4.1Y-1.09
X4.1Y-1.19
X4.2Y-3.0
X4.2Y-3.1
X4.2Y-1.09
X4.2Y-1.19
X4.3Y-3.0
X4.3Y-3.1
X4.3Y-1.09
X4.3Y-1.19
X4.4Y-3.0
X4.4Y-3.1
X4.4Y-1.09
X4.4Y-1.19
X4.5Y-3.0
X4.5Y-3.1
X4.5Y-1.09
X4.5Y-1.19
X4.6Y-3.0
X4.6Y-3.1
X4.6Y-1.09
X4.6Y-1.19
X4.7Y-3.0
X4.7Y-3.1
X4.7Y-1.09
X4.7Y-1.19
X4.8Y-3.0
X4.8Y-3.1
X4.8Y-1.09
X4.8Y-1.19
X4.9Y-3.0
X4.9Y-3.1
X4.9Y-1.09
X4.9Y-1.19
X5.028Y-1.904
X5.028Y-2.004
X5.028Y-2.104
X5.028Y-2.204
X5.028Y-2.304
X5.028Y-2.404
T4
G00X2.8945Y-3.1192
M15
G01X2.8945Y-3.0916
M16
G05
G00X3.1701Y-3.0916
M15
G01X3.1701Y-3.1192
M16
G05
T7
G00X2.422Y-2.8611
M15
G01X2.422Y-2.9477
M16
G05
G00X2.5991Y-3.0934
M15
G01X2.5125Y-3.0934
M16
G05
G00X2.67Y-2.8532
M15
G01X2.67Y-2.9556
M16
G05
T0
M30
