%TF.GenerationSoftware,KiCad,Pcbnew,(6.0.5)*%
%TF.CreationDate,2022-06-14T16:15:44+07:00*%
%TF.ProjectId,atm128,61746d31-3238-42e6-9b69-6361645f7063,0.0*%
%TF.SameCoordinates,Original*%
%TF.FileFunction,Soldermask,Top*%
%TF.FilePolarity,Negative*%
%FSLAX46Y46*%
G04 Gerber Fmt 4.6, Leading zero omitted, Abs format (unit mm)*
G04 Created by KiCad (PCBNEW (6.0.5)) date 2022-06-14 16:15:44*
%MOMM*%
%LPD*%
G01*
G04 APERTURE LIST*
G04 Aperture macros list*
%AMRoundRect*
0 Rectangle with rounded corners*
0 $1 Rounding radius*
0 $2 $3 $4 $5 $6 $7 $8 $9 X,Y pos of 4 corners*
0 Add a 4 corners polygon primitive as box body*
4,1,4,$2,$3,$4,$5,$6,$7,$8,$9,$2,$3,0*
0 Add four circle primitives for the rounded corners*
1,1,$1+$1,$2,$3*
1,1,$1+$1,$4,$5*
1,1,$1+$1,$6,$7*
1,1,$1+$1,$8,$9*
0 Add four rect primitives between the rounded corners*
20,1,$1+$1,$2,$3,$4,$5,0*
20,1,$1+$1,$4,$5,$6,$7,0*
20,1,$1+$1,$6,$7,$8,$9,0*
20,1,$1+$1,$8,$9,$2,$3,0*%
%AMRotRect*
0 Rectangle, with rotation*
0 The origin of the aperture is its center*
0 $1 length*
0 $2 width*
0 $3 Rotation angle, in degrees counterclockwise*
0 Add horizontal line*
21,1,$1,$2,0,0,$3*%
G04 Aperture macros list end*
%ADD10C,1.000000*%
%ADD11R,0.400000X1.350000*%
%ADD12R,1.500000X1.900000*%
%ADD13O,1.200000X1.900000*%
%ADD14R,1.200000X1.900000*%
%ADD15C,1.450000*%
%ADD16RoundRect,0.250000X-0.262500X-0.450000X0.262500X-0.450000X0.262500X0.450000X-0.262500X0.450000X0*%
%ADD17RoundRect,0.250000X0.262500X0.450000X-0.262500X0.450000X-0.262500X-0.450000X0.262500X-0.450000X0*%
%ADD18RoundRect,0.200000X0.200000X0.275000X-0.200000X0.275000X-0.200000X-0.275000X0.200000X-0.275000X0*%
%ADD19RoundRect,0.250000X-0.512652X-0.159099X-0.159099X-0.512652X0.512652X0.159099X0.159099X0.512652X0*%
%ADD20R,2.000000X3.000000*%
%ADD21RoundRect,0.243750X-0.243750X-0.456250X0.243750X-0.456250X0.243750X0.456250X-0.243750X0.456250X0*%
%ADD22R,2.000000X4.600000*%
%ADD23O,2.000000X4.200000*%
%ADD24O,4.200000X2.000000*%
%ADD25RoundRect,0.250000X0.250000X0.475000X-0.250000X0.475000X-0.250000X-0.475000X0.250000X-0.475000X0*%
%ADD26RotRect,1.500000X0.550000X225.000000*%
%ADD27RotRect,1.500000X0.550000X315.000000*%
%ADD28R,1.700000X1.700000*%
%ADD29O,1.700000X1.700000*%
%ADD30RoundRect,0.243750X0.243750X0.456250X-0.243750X0.456250X-0.243750X-0.456250X0.243750X-0.456250X0*%
%ADD31R,2.000000X4.500000*%
%ADD32RoundRect,0.250000X-0.250000X-0.475000X0.250000X-0.475000X0.250000X0.475000X-0.250000X0.475000X0*%
%ADD33R,4.600000X1.100000*%
%ADD34R,9.400000X10.800000*%
%ADD35RoundRect,0.250000X-0.475000X0.250000X-0.475000X-0.250000X0.475000X-0.250000X0.475000X0.250000X0*%
%ADD36RoundRect,0.250000X0.512652X0.159099X0.159099X0.512652X-0.512652X-0.159099X-0.159099X-0.512652X0*%
%ADD37RoundRect,0.250000X0.159099X-0.512652X0.512652X-0.159099X-0.159099X0.512652X-0.512652X0.159099X0*%
%ADD38R,2.400000X2.000000*%
%ADD39RoundRect,0.250000X1.950000X1.000000X-1.950000X1.000000X-1.950000X-1.000000X1.950000X-1.000000X0*%
%ADD40R,1.500000X2.120000*%
%ADD41R,1.000000X1.000000*%
%ADD42O,1.000000X1.000000*%
%ADD43RoundRect,0.250000X0.475000X-0.250000X0.475000X0.250000X-0.475000X0.250000X-0.475000X-0.250000X0*%
%ADD44RoundRect,0.250000X1.500000X0.550000X-1.500000X0.550000X-1.500000X-0.550000X1.500000X-0.550000X0*%
%ADD45R,0.950000X1.400000*%
%ADD46R,1.400000X2.100000*%
%ADD47R,2.120000X1.500000*%
%ADD48RoundRect,0.150000X0.825000X0.150000X-0.825000X0.150000X-0.825000X-0.150000X0.825000X-0.150000X0*%
%ADD49RoundRect,0.250000X0.503814X0.132583X0.132583X0.503814X-0.503814X-0.132583X-0.132583X-0.503814X0*%
G04 APERTURE END LIST*
D10*
%TO.C,TP5*%
X66421000Y-60071000D03*
%TD*%
D11*
%TO.C,J6*%
X75720000Y-76177500D03*
X76370000Y-76177500D03*
X77020000Y-76177500D03*
X77670000Y-76177500D03*
X78320000Y-76177500D03*
D12*
X78020000Y-78877500D03*
X76020000Y-78877500D03*
D13*
X73520000Y-78877500D03*
D14*
X74120000Y-78877500D03*
D15*
X79520000Y-76177500D03*
D14*
X79920000Y-78877500D03*
D15*
X74520000Y-76177500D03*
D13*
X80520000Y-78877500D03*
%TD*%
D16*
%TO.C,R4*%
X115038500Y-34417000D03*
X116863500Y-34417000D03*
%TD*%
D10*
%TO.C,TP1*%
X69088000Y-36322000D03*
%TD*%
D17*
%TO.C,R10*%
X121664100Y-44881800D03*
X119839100Y-44881800D03*
%TD*%
D18*
%TO.C,R9*%
X115429800Y-52324000D03*
X113779800Y-52324000D03*
%TD*%
D19*
%TO.C,C6*%
X114971751Y-57186751D03*
X113628249Y-55843249D03*
%TD*%
D16*
%TO.C,R2*%
X77954500Y-39751000D03*
X79779500Y-39751000D03*
%TD*%
D17*
%TO.C,R5*%
X115720500Y-50546000D03*
X113895500Y-50546000D03*
%TD*%
%TO.C,R14*%
X83335500Y-72771000D03*
X81510500Y-72771000D03*
%TD*%
%TO.C,R13*%
X97432500Y-38608000D03*
X95607500Y-38608000D03*
%TD*%
D20*
%TO.C,L1*%
X59538000Y-41402000D03*
X65938000Y-41402000D03*
%TD*%
D21*
%TO.C,D7*%
X114988100Y-44881800D03*
X116863100Y-44881800D03*
%TD*%
D17*
%TO.C,R1*%
X68832100Y-28244800D03*
X67007100Y-28244800D03*
%TD*%
D22*
%TO.C,J1*%
X67818000Y-73771989D03*
D23*
X61518000Y-73771989D03*
D24*
X64918000Y-78571989D03*
%TD*%
D16*
%TO.C,R3*%
X115038500Y-37820600D03*
X116863500Y-37820600D03*
%TD*%
D25*
%TO.C,C12*%
X83373000Y-68707000D03*
X81473000Y-68707000D03*
%TD*%
D16*
%TO.C,R7*%
X115013100Y-42875200D03*
X116838100Y-42875200D03*
%TD*%
D26*
%TO.C,U2*%
X111287363Y-52137918D03*
X110721677Y-51572233D03*
X110155992Y-51006548D03*
X109590307Y-50440862D03*
X109024621Y-49875177D03*
X108458936Y-49309491D03*
X107893250Y-48743806D03*
X107327565Y-48178120D03*
X106761880Y-47612435D03*
X106196194Y-47046750D03*
X105630509Y-46481064D03*
X105064823Y-45915379D03*
X104499138Y-45349693D03*
X103933452Y-44784008D03*
X103367767Y-44218323D03*
X102802082Y-43652637D03*
D27*
X100397918Y-43652637D03*
X99832233Y-44218323D03*
X99266548Y-44784008D03*
X98700862Y-45349693D03*
X98135177Y-45915379D03*
X97569491Y-46481064D03*
X97003806Y-47046750D03*
X96438120Y-47612435D03*
X95872435Y-48178120D03*
X95306750Y-48743806D03*
X94741064Y-49309491D03*
X94175379Y-49875177D03*
X93609693Y-50440862D03*
X93044008Y-51006548D03*
X92478323Y-51572233D03*
X91912637Y-52137918D03*
D26*
X91912637Y-54542082D03*
X92478323Y-55107767D03*
X93044008Y-55673452D03*
X93609693Y-56239138D03*
X94175379Y-56804823D03*
X94741064Y-57370509D03*
X95306750Y-57936194D03*
X95872435Y-58501880D03*
X96438120Y-59067565D03*
X97003806Y-59633250D03*
X97569491Y-60198936D03*
X98135177Y-60764621D03*
X98700862Y-61330307D03*
X99266548Y-61895992D03*
X99832233Y-62461677D03*
X100397918Y-63027363D03*
D27*
X102802082Y-63027363D03*
X103367767Y-62461677D03*
X103933452Y-61895992D03*
X104499138Y-61330307D03*
X105064823Y-60764621D03*
X105630509Y-60198936D03*
X106196194Y-59633250D03*
X106761880Y-59067565D03*
X107327565Y-58501880D03*
X107893250Y-57936194D03*
X108458936Y-57370509D03*
X109024621Y-56804823D03*
X109590307Y-56239138D03*
X110155992Y-55673452D03*
X110721677Y-55107767D03*
X111287363Y-54542082D03*
%TD*%
D28*
%TO.C,J3*%
X86359989Y-78740000D03*
D29*
X86359989Y-76200000D03*
X88899989Y-78740000D03*
X88899989Y-76200000D03*
X91439989Y-78740000D03*
X91439989Y-76200000D03*
X93979989Y-78740000D03*
X93979989Y-76200000D03*
X96519989Y-78740000D03*
X96519989Y-76200000D03*
X99059989Y-78740000D03*
X99059989Y-76200000D03*
X101599989Y-78740000D03*
X101599989Y-76200000D03*
X104139989Y-78740000D03*
X104139989Y-76200000D03*
X106679989Y-78740000D03*
X106679989Y-76200000D03*
X109219989Y-78740000D03*
X109219989Y-76200000D03*
X111759989Y-78740000D03*
X111759989Y-76200000D03*
X114299989Y-78740000D03*
X114299989Y-76200000D03*
X116839989Y-78740000D03*
X116839989Y-76200000D03*
X119379989Y-78740000D03*
X119379989Y-76200000D03*
X121919989Y-78740000D03*
X121919989Y-76200000D03*
X124459989Y-78740000D03*
X124459989Y-76200000D03*
%TD*%
D30*
%TO.C,D4*%
X68857100Y-30784800D03*
X66982100Y-30784800D03*
%TD*%
D31*
%TO.C,XTAL1*%
X84963000Y-57590000D03*
X84963000Y-49090000D03*
%TD*%
D17*
%TO.C,R15*%
X83335500Y-70866000D03*
X81510500Y-70866000D03*
%TD*%
D32*
%TO.C,C13*%
X75758000Y-62738000D03*
X77658000Y-62738000D03*
%TD*%
D28*
%TO.C,J2*%
X86360000Y-30226000D03*
D29*
X86360000Y-27686000D03*
X88900000Y-30226000D03*
X88900000Y-27686000D03*
X91440000Y-30226000D03*
X91440000Y-27686000D03*
X93980000Y-30226000D03*
X93980000Y-27686000D03*
X96520000Y-30226000D03*
X96520000Y-27686000D03*
X99060000Y-30226000D03*
X99060000Y-27686000D03*
X101600000Y-30226000D03*
X101600000Y-27686000D03*
X104140000Y-30226000D03*
X104140000Y-27686000D03*
X106680000Y-30226000D03*
X106680000Y-27686000D03*
X109220000Y-30226000D03*
X109220000Y-27686000D03*
X111760000Y-30226000D03*
X111760000Y-27686000D03*
X114300000Y-30226000D03*
X114300000Y-27686000D03*
X116840000Y-30226000D03*
X116840000Y-27686000D03*
X119380000Y-30226000D03*
X119380000Y-27686000D03*
X121920000Y-30226000D03*
X121920000Y-27686000D03*
X124460000Y-30226000D03*
X124460000Y-27686000D03*
%TD*%
D33*
%TO.C,U1*%
X68193011Y-48708011D03*
X68193011Y-50408011D03*
X68193011Y-52108011D03*
D34*
X59043011Y-52108011D03*
D33*
X68193011Y-53808011D03*
X68193011Y-55508011D03*
%TD*%
D30*
%TO.C,D6*%
X121689100Y-40767000D03*
X119814100Y-40767000D03*
%TD*%
D17*
%TO.C,R11*%
X121664100Y-46964600D03*
X119839100Y-46964600D03*
%TD*%
D35*
%TO.C,C8*%
X81280000Y-55692000D03*
X81280000Y-57592000D03*
%TD*%
D19*
%TO.C,C4*%
X105610502Y-65568751D03*
X104267000Y-64225249D03*
%TD*%
D36*
%TO.C,C9*%
X113549351Y-58609151D03*
X112205849Y-57265649D03*
%TD*%
D30*
%TO.C,D5*%
X121689100Y-42875200D03*
X119814100Y-42875200D03*
%TD*%
D17*
%TO.C,R12*%
X97432500Y-40640000D03*
X95607500Y-40640000D03*
%TD*%
D37*
%TO.C,C5*%
X98080751Y-43143249D03*
X96737249Y-44486751D03*
%TD*%
D38*
%TO.C,Y1*%
X82550000Y-62412000D03*
X82550000Y-66112000D03*
%TD*%
D39*
%TO.C,C1*%
X64152011Y-63284011D03*
X56752011Y-63284011D03*
%TD*%
D40*
%TO.C,D1*%
X68834011Y-66244011D03*
X68834011Y-62014011D03*
%TD*%
D19*
%TO.C,C3*%
X107097751Y-64044751D03*
X105754249Y-62701249D03*
%TD*%
D10*
%TO.C,TP2*%
X103251000Y-67183000D03*
%TD*%
D41*
%TO.C,J5*%
X126746000Y-67056000D03*
D42*
X128016000Y-67056000D03*
X126746000Y-68326000D03*
X128016000Y-68326000D03*
X126746000Y-69596000D03*
X128016000Y-69596000D03*
X126746000Y-70866000D03*
X128016000Y-70866000D03*
X126746000Y-72136000D03*
X128016000Y-72136000D03*
%TD*%
D43*
%TO.C,C10*%
X85598000Y-66990000D03*
X85598000Y-65090000D03*
%TD*%
D10*
%TO.C,TP4*%
X120015000Y-62738000D03*
%TD*%
D43*
%TO.C,C14*%
X71501000Y-77023000D03*
X71501000Y-75123000D03*
%TD*%
D28*
%TO.C,J4*%
X127711200Y-61061600D03*
D29*
X127711200Y-58521600D03*
X127711200Y-55981600D03*
X127711200Y-53441600D03*
X127711200Y-50901600D03*
X127711200Y-48361600D03*
%TD*%
D16*
%TO.C,R8*%
X115013100Y-40767000D03*
X116838100Y-40767000D03*
%TD*%
D43*
%TO.C,C7*%
X81280000Y-50988000D03*
X81280000Y-49088000D03*
%TD*%
D44*
%TO.C,C2*%
X62136011Y-30772011D03*
X56736011Y-30772011D03*
%TD*%
D35*
%TO.C,C11*%
X85598000Y-61534000D03*
X85598000Y-63434000D03*
%TD*%
D45*
%TO.C,S3*%
X122725000Y-34290000D03*
X118575000Y-34290000D03*
%TD*%
D40*
%TO.C,D3*%
X55626000Y-37255000D03*
X55626000Y-41485000D03*
%TD*%
D21*
%TO.C,D8*%
X114988100Y-46964600D03*
X116863100Y-46964600D03*
%TD*%
D45*
%TO.C,S2*%
X122725000Y-37820600D03*
X118575000Y-37820600D03*
%TD*%
D46*
%TO.C,S1*%
X75347000Y-36808000D03*
X75347000Y-27708000D03*
X79847000Y-36808000D03*
X79847000Y-27708000D03*
%TD*%
D47*
%TO.C,D2*%
X69005000Y-41402000D03*
X73235000Y-41402000D03*
%TD*%
D48*
%TO.C,U3*%
X79310000Y-73660000D03*
X79310000Y-72390000D03*
X79310000Y-71120000D03*
X79310000Y-69850000D03*
X79310000Y-68580000D03*
X79310000Y-67310000D03*
X79310000Y-66040000D03*
X79310000Y-64770000D03*
X74360000Y-64770000D03*
X74360000Y-66040000D03*
X74360000Y-67310000D03*
X74360000Y-68580000D03*
X74360000Y-69850000D03*
X74360000Y-71120000D03*
X74360000Y-72390000D03*
X74360000Y-73660000D03*
%TD*%
D10*
%TO.C,TP3*%
X124460000Y-65151000D03*
%TD*%
D49*
%TO.C,R6*%
X116316835Y-55737835D03*
X115026365Y-54447365D03*
%TD*%
M02*
