%TF.GenerationSoftware,KiCad,Pcbnew,(6.0.5)*%
%TF.CreationDate,2022-06-14T16:15:44+07:00*%
%TF.ProjectId,atm128,61746d31-3238-42e6-9b69-6361645f7063,0.0*%
%TF.SameCoordinates,Original*%
%TF.FileFunction,Legend,Top*%
%TF.FilePolarity,Positive*%
%FSLAX46Y46*%
G04 Gerber Fmt 4.6, Leading zero omitted, Abs format (unit mm)*
G04 Created by KiCad (PCBNEW (6.0.5)) date 2022-06-14 16:15:44*
%MOMM*%
%LPD*%
G01*
G04 APERTURE LIST*
%ADD10C,0.150000*%
%ADD11C,0.152400*%
%ADD12C,0.254000*%
%ADD13C,0.120000*%
%ADD14C,0.127000*%
%ADD15C,0.200000*%
G04 APERTURE END LIST*
D10*
X110490000Y-32512000D02*
X128651000Y-32512000D01*
X120523000Y-42926000D02*
X120904000Y-42926000D01*
X116078000Y-46990000D02*
X115697000Y-46990000D01*
X67754500Y-30734000D02*
X68135500Y-30734000D01*
X116078000Y-44831000D02*
X115697000Y-44831000D01*
X120523000Y-40767000D02*
X120904000Y-40767000D01*
X120523000Y-40513000D02*
X120523000Y-41021000D01*
X116078000Y-45085000D02*
X116078000Y-44577000D01*
X110490000Y-31750000D02*
X110490000Y-32512000D01*
X116078000Y-47244000D02*
X116078000Y-46736000D01*
X120523000Y-42672000D02*
X120523000Y-43180000D01*
X67754500Y-30480000D02*
X67754500Y-30988000D01*
D11*
X96882857Y-72922190D02*
X96931238Y-72970571D01*
X96979619Y-73115714D01*
X96979619Y-73212476D01*
X96931238Y-73357619D01*
X96834476Y-73454380D01*
X96737714Y-73502761D01*
X96544190Y-73551142D01*
X96399047Y-73551142D01*
X96205523Y-73502761D01*
X96108761Y-73454380D01*
X96012000Y-73357619D01*
X95963619Y-73212476D01*
X95963619Y-73115714D01*
X96012000Y-72970571D01*
X96060380Y-72922190D01*
X95963619Y-72051333D02*
X95963619Y-72244857D01*
X96012000Y-72341619D01*
X96060380Y-72390000D01*
X96205523Y-72486761D01*
X96399047Y-72535142D01*
X96786095Y-72535142D01*
X96882857Y-72486761D01*
X96931238Y-72438380D01*
X96979619Y-72341619D01*
X96979619Y-72148095D01*
X96931238Y-72051333D01*
X96882857Y-72002952D01*
X96786095Y-71954571D01*
X96544190Y-71954571D01*
X96447428Y-72002952D01*
X96399047Y-72051333D01*
X96350666Y-72148095D01*
X96350666Y-72341619D01*
X96399047Y-72438380D01*
X96447428Y-72486761D01*
X96544190Y-72535142D01*
X96882857Y-70164476D02*
X96931238Y-70212857D01*
X96979619Y-70358000D01*
X96979619Y-70454761D01*
X96931238Y-70599904D01*
X96834476Y-70696666D01*
X96737714Y-70745047D01*
X96544190Y-70793428D01*
X96399047Y-70793428D01*
X96205523Y-70745047D01*
X96108761Y-70696666D01*
X96012000Y-70599904D01*
X95963619Y-70454761D01*
X95963619Y-70358000D01*
X96012000Y-70212857D01*
X96060380Y-70164476D01*
X95963619Y-69825809D02*
X95963619Y-69148476D01*
X96979619Y-69583904D01*
X94439619Y-37053761D02*
X93423619Y-37053761D01*
X93423619Y-36811857D01*
X93472000Y-36666714D01*
X93568761Y-36569952D01*
X93665523Y-36521571D01*
X93859047Y-36473190D01*
X94004190Y-36473190D01*
X94197714Y-36521571D01*
X94294476Y-36569952D01*
X94391238Y-36666714D01*
X94439619Y-36811857D01*
X94439619Y-37053761D01*
X93520380Y-36086142D02*
X93472000Y-36037761D01*
X93423619Y-35941000D01*
X93423619Y-35699095D01*
X93472000Y-35602333D01*
X93520380Y-35553952D01*
X93617142Y-35505571D01*
X93713904Y-35505571D01*
X93859047Y-35553952D01*
X94439619Y-36134523D01*
X94439619Y-35505571D01*
X94439619Y-34296047D02*
X93423619Y-34296047D01*
X93423619Y-34054142D01*
X93472000Y-33909000D01*
X93568761Y-33812238D01*
X93665523Y-33763857D01*
X93859047Y-33715476D01*
X94004190Y-33715476D01*
X94197714Y-33763857D01*
X94294476Y-33812238D01*
X94391238Y-33909000D01*
X94439619Y-34054142D01*
X94439619Y-34296047D01*
X93423619Y-33376809D02*
X93423619Y-32747857D01*
X93810666Y-33086523D01*
X93810666Y-32941380D01*
X93859047Y-32844619D01*
X93907428Y-32796238D01*
X94004190Y-32747857D01*
X94246095Y-32747857D01*
X94342857Y-32796238D01*
X94391238Y-32844619D01*
X94439619Y-32941380D01*
X94439619Y-33231666D01*
X94391238Y-33328428D01*
X94342857Y-33376809D01*
X101527428Y-36715095D02*
X101575809Y-36569952D01*
X101624190Y-36521571D01*
X101720952Y-36473190D01*
X101866095Y-36473190D01*
X101962857Y-36521571D01*
X102011238Y-36569952D01*
X102059619Y-36666714D01*
X102059619Y-37053761D01*
X101043619Y-37053761D01*
X101043619Y-36715095D01*
X101092000Y-36618333D01*
X101140380Y-36569952D01*
X101237142Y-36521571D01*
X101333904Y-36521571D01*
X101430666Y-36569952D01*
X101479047Y-36618333D01*
X101527428Y-36715095D01*
X101527428Y-37053761D01*
X101043619Y-35602333D02*
X101043619Y-35795857D01*
X101092000Y-35892619D01*
X101140380Y-35941000D01*
X101285523Y-36037761D01*
X101479047Y-36086142D01*
X101866095Y-36086142D01*
X101962857Y-36037761D01*
X102011238Y-35989380D01*
X102059619Y-35892619D01*
X102059619Y-35699095D01*
X102011238Y-35602333D01*
X101962857Y-35553952D01*
X101866095Y-35505571D01*
X101624190Y-35505571D01*
X101527428Y-35553952D01*
X101479047Y-35602333D01*
X101430666Y-35699095D01*
X101430666Y-35892619D01*
X101479047Y-35989380D01*
X101527428Y-36037761D01*
X101624190Y-36086142D01*
X101527428Y-33957380D02*
X101575809Y-33812238D01*
X101624190Y-33763857D01*
X101720952Y-33715476D01*
X101866095Y-33715476D01*
X101962857Y-33763857D01*
X102011238Y-33812238D01*
X102059619Y-33909000D01*
X102059619Y-34296047D01*
X101043619Y-34296047D01*
X101043619Y-33957380D01*
X101092000Y-33860619D01*
X101140380Y-33812238D01*
X101237142Y-33763857D01*
X101333904Y-33763857D01*
X101430666Y-33812238D01*
X101479047Y-33860619D01*
X101527428Y-33957380D01*
X101527428Y-34296047D01*
X101043619Y-33376809D02*
X101043619Y-32699476D01*
X102059619Y-33134904D01*
X85803619Y-37053761D02*
X85803619Y-37537571D01*
X86287428Y-37585952D01*
X86239047Y-37537571D01*
X86190666Y-37440809D01*
X86190666Y-37198904D01*
X86239047Y-37102142D01*
X86287428Y-37053761D01*
X86384190Y-37005380D01*
X86626095Y-37005380D01*
X86722857Y-37053761D01*
X86771238Y-37102142D01*
X86819619Y-37198904D01*
X86819619Y-37440809D01*
X86771238Y-37537571D01*
X86722857Y-37585952D01*
X85803619Y-36715095D02*
X86819619Y-36376428D01*
X85803619Y-36037761D01*
X85852000Y-34392809D02*
X85803619Y-34489571D01*
X85803619Y-34634714D01*
X85852000Y-34779857D01*
X85948761Y-34876619D01*
X86045523Y-34925000D01*
X86239047Y-34973380D01*
X86384190Y-34973380D01*
X86577714Y-34925000D01*
X86674476Y-34876619D01*
X86771238Y-34779857D01*
X86819619Y-34634714D01*
X86819619Y-34537952D01*
X86771238Y-34392809D01*
X86722857Y-34344428D01*
X86384190Y-34344428D01*
X86384190Y-34537952D01*
X86819619Y-33909000D02*
X85803619Y-33909000D01*
X86819619Y-33328428D01*
X85803619Y-33328428D01*
X86819619Y-32844619D02*
X85803619Y-32844619D01*
X85803619Y-32602714D01*
X85852000Y-32457571D01*
X85948761Y-32360809D01*
X86045523Y-32312428D01*
X86239047Y-32264047D01*
X86384190Y-32264047D01*
X86577714Y-32312428D01*
X86674476Y-32360809D01*
X86771238Y-32457571D01*
X86819619Y-32602714D01*
X86819619Y-32844619D01*
X126546428Y-27178000D02*
X126473857Y-27129619D01*
X126365000Y-27129619D01*
X126256142Y-27178000D01*
X126183571Y-27274761D01*
X126147285Y-27371523D01*
X126111000Y-27565047D01*
X126111000Y-27710190D01*
X126147285Y-27903714D01*
X126183571Y-28000476D01*
X126256142Y-28097238D01*
X126365000Y-28145619D01*
X126437571Y-28145619D01*
X126546428Y-28097238D01*
X126582714Y-28048857D01*
X126582714Y-27710190D01*
X126437571Y-27710190D01*
X126909285Y-28145619D02*
X126909285Y-27129619D01*
X127344714Y-28145619D01*
X127344714Y-27129619D01*
X127707571Y-28145619D02*
X127707571Y-27129619D01*
X127889000Y-27129619D01*
X127997857Y-27178000D01*
X128070428Y-27274761D01*
X128106714Y-27371523D01*
X128143000Y-27565047D01*
X128143000Y-27710190D01*
X128106714Y-27903714D01*
X128070428Y-28000476D01*
X127997857Y-28097238D01*
X127889000Y-28145619D01*
X127707571Y-28145619D01*
X119307428Y-73145952D02*
X119307428Y-73484619D01*
X119839619Y-73484619D02*
X118823619Y-73484619D01*
X118823619Y-73000809D01*
X118920380Y-72662142D02*
X118872000Y-72613761D01*
X118823619Y-72517000D01*
X118823619Y-72275095D01*
X118872000Y-72178333D01*
X118920380Y-72129952D01*
X119017142Y-72081571D01*
X119113904Y-72081571D01*
X119259047Y-72129952D01*
X119839619Y-72710523D01*
X119839619Y-72081571D01*
X119307428Y-70533380D02*
X119307428Y-70872047D01*
X119839619Y-70872047D02*
X118823619Y-70872047D01*
X118823619Y-70388238D01*
X118823619Y-70097952D02*
X118823619Y-69469000D01*
X119210666Y-69807666D01*
X119210666Y-69662523D01*
X119259047Y-69565761D01*
X119307428Y-69517380D01*
X119404190Y-69469000D01*
X119646095Y-69469000D01*
X119742857Y-69517380D01*
X119791238Y-69565761D01*
X119839619Y-69662523D01*
X119839619Y-69952809D01*
X119791238Y-70049571D01*
X119742857Y-70097952D01*
X116767428Y-73780952D02*
X116767428Y-74119619D01*
X117299619Y-74119619D02*
X116283619Y-74119619D01*
X116283619Y-73635809D01*
X116622285Y-72813333D02*
X117299619Y-72813333D01*
X116235238Y-73055238D02*
X116960952Y-73297142D01*
X116960952Y-72668190D01*
X116767428Y-71168380D02*
X116767428Y-71507047D01*
X117299619Y-71507047D02*
X116283619Y-71507047D01*
X116283619Y-71023238D01*
X116283619Y-70152380D02*
X116283619Y-70636190D01*
X116767428Y-70684571D01*
X116719047Y-70636190D01*
X116670666Y-70539428D01*
X116670666Y-70297523D01*
X116719047Y-70200761D01*
X116767428Y-70152380D01*
X116864190Y-70104000D01*
X117106095Y-70104000D01*
X117202857Y-70152380D01*
X117251238Y-70200761D01*
X117299619Y-70297523D01*
X117299619Y-70539428D01*
X117251238Y-70636190D01*
X117202857Y-70684571D01*
D12*
X74506666Y-60579000D02*
X74506666Y-59853285D01*
X75087238Y-60724142D02*
X73055238Y-60216142D01*
X75087238Y-59708142D01*
X73055238Y-59417857D02*
X73055238Y-58547000D01*
X75087238Y-58982428D02*
X73055238Y-58982428D01*
X75087238Y-58039000D02*
X73055238Y-58039000D01*
X74506666Y-57531000D01*
X73055238Y-57023000D01*
X75087238Y-57023000D01*
X74022857Y-56297285D02*
X74022857Y-55789285D01*
X75087238Y-55571571D02*
X75087238Y-56297285D01*
X73055238Y-56297285D01*
X73055238Y-55571571D01*
X73152000Y-54120142D02*
X73055238Y-54265285D01*
X73055238Y-54483000D01*
X73152000Y-54700714D01*
X73345523Y-54845857D01*
X73539047Y-54918428D01*
X73926095Y-54991000D01*
X74216380Y-54991000D01*
X74603428Y-54918428D01*
X74796952Y-54845857D01*
X74990476Y-54700714D01*
X75087238Y-54483000D01*
X75087238Y-54337857D01*
X74990476Y-54120142D01*
X74893714Y-54047571D01*
X74216380Y-54047571D01*
X74216380Y-54337857D01*
X74506666Y-53467000D02*
X74506666Y-52741285D01*
X75087238Y-53612142D02*
X73055238Y-53104142D01*
X75087238Y-52596142D01*
X75087238Y-51289857D02*
X75087238Y-52160714D01*
X75087238Y-51725285D02*
X73055238Y-51725285D01*
X73345523Y-51870428D01*
X73539047Y-52015571D01*
X73635809Y-52160714D01*
X73248761Y-50709285D02*
X73152000Y-50636714D01*
X73055238Y-50491571D01*
X73055238Y-50128714D01*
X73152000Y-49983571D01*
X73248761Y-49911000D01*
X73442285Y-49838428D01*
X73635809Y-49838428D01*
X73926095Y-49911000D01*
X75087238Y-50781857D01*
X75087238Y-49838428D01*
X73926095Y-48967571D02*
X73829333Y-49112714D01*
X73732571Y-49185285D01*
X73539047Y-49257857D01*
X73442285Y-49257857D01*
X73248761Y-49185285D01*
X73152000Y-49112714D01*
X73055238Y-48967571D01*
X73055238Y-48677285D01*
X73152000Y-48532142D01*
X73248761Y-48459571D01*
X73442285Y-48387000D01*
X73539047Y-48387000D01*
X73732571Y-48459571D01*
X73829333Y-48532142D01*
X73926095Y-48677285D01*
X73926095Y-48967571D01*
X74022857Y-49112714D01*
X74119619Y-49185285D01*
X74313142Y-49257857D01*
X74700190Y-49257857D01*
X74893714Y-49185285D01*
X74990476Y-49112714D01*
X75087238Y-48967571D01*
X75087238Y-48677285D01*
X74990476Y-48532142D01*
X74893714Y-48459571D01*
X74700190Y-48387000D01*
X74313142Y-48387000D01*
X74119619Y-48459571D01*
X74022857Y-48532142D01*
X73926095Y-48677285D01*
X75087238Y-46572714D02*
X73055238Y-46572714D01*
X75087238Y-45701857D02*
X73926095Y-46355000D01*
X73055238Y-45701857D02*
X74216380Y-46572714D01*
X75087238Y-45048714D02*
X73055238Y-45048714D01*
X73055238Y-44540714D02*
X73055238Y-43669857D01*
X75087238Y-44105285D02*
X73055238Y-44105285D01*
D11*
X123407714Y-53878238D02*
X123552857Y-53926619D01*
X123794761Y-53926619D01*
X123891523Y-53878238D01*
X123939904Y-53829857D01*
X123988285Y-53733095D01*
X123988285Y-53636333D01*
X123939904Y-53539571D01*
X123891523Y-53491190D01*
X123794761Y-53442809D01*
X123601238Y-53394428D01*
X123504476Y-53346047D01*
X123456095Y-53297666D01*
X123407714Y-53200904D01*
X123407714Y-53104142D01*
X123456095Y-53007380D01*
X123504476Y-52959000D01*
X123601238Y-52910619D01*
X123843142Y-52910619D01*
X123988285Y-52959000D01*
X125004285Y-53829857D02*
X124955904Y-53878238D01*
X124810761Y-53926619D01*
X124714000Y-53926619D01*
X124568857Y-53878238D01*
X124472095Y-53781476D01*
X124423714Y-53684714D01*
X124375333Y-53491190D01*
X124375333Y-53346047D01*
X124423714Y-53152523D01*
X124472095Y-53055761D01*
X124568857Y-52959000D01*
X124714000Y-52910619D01*
X124810761Y-52910619D01*
X124955904Y-52959000D01*
X125004285Y-53007380D01*
X125439714Y-53926619D02*
X125439714Y-52910619D01*
X126020285Y-53926619D02*
X125584857Y-53346047D01*
X126020285Y-52910619D02*
X125439714Y-53491190D01*
X104067428Y-36715095D02*
X104115809Y-36569952D01*
X104164190Y-36521571D01*
X104260952Y-36473190D01*
X104406095Y-36473190D01*
X104502857Y-36521571D01*
X104551238Y-36569952D01*
X104599619Y-36666714D01*
X104599619Y-37053761D01*
X103583619Y-37053761D01*
X103583619Y-36715095D01*
X103632000Y-36618333D01*
X103680380Y-36569952D01*
X103777142Y-36521571D01*
X103873904Y-36521571D01*
X103970666Y-36569952D01*
X104019047Y-36618333D01*
X104067428Y-36715095D01*
X104067428Y-37053761D01*
X103922285Y-35602333D02*
X104599619Y-35602333D01*
X103535238Y-35844238D02*
X104260952Y-36086142D01*
X104260952Y-35457190D01*
X104067428Y-33957380D02*
X104115809Y-33812238D01*
X104164190Y-33763857D01*
X104260952Y-33715476D01*
X104406095Y-33715476D01*
X104502857Y-33763857D01*
X104551238Y-33812238D01*
X104599619Y-33909000D01*
X104599619Y-34296047D01*
X103583619Y-34296047D01*
X103583619Y-33957380D01*
X103632000Y-33860619D01*
X103680380Y-33812238D01*
X103777142Y-33763857D01*
X103873904Y-33763857D01*
X103970666Y-33812238D01*
X104019047Y-33860619D01*
X104067428Y-33957380D01*
X104067428Y-34296047D01*
X103583619Y-32796238D02*
X103583619Y-33280047D01*
X104067428Y-33328428D01*
X104019047Y-33280047D01*
X103970666Y-33183285D01*
X103970666Y-32941380D01*
X104019047Y-32844619D01*
X104067428Y-32796238D01*
X104164190Y-32747857D01*
X104406095Y-32747857D01*
X104502857Y-32796238D01*
X104551238Y-32844619D01*
X104599619Y-32941380D01*
X104599619Y-33183285D01*
X104551238Y-33280047D01*
X104502857Y-33328428D01*
X96979619Y-37053761D02*
X95963619Y-37053761D01*
X95963619Y-36811857D01*
X96012000Y-36666714D01*
X96108761Y-36569952D01*
X96205523Y-36521571D01*
X96399047Y-36473190D01*
X96544190Y-36473190D01*
X96737714Y-36521571D01*
X96834476Y-36569952D01*
X96931238Y-36666714D01*
X96979619Y-36811857D01*
X96979619Y-37053761D01*
X95963619Y-35844238D02*
X95963619Y-35747476D01*
X96012000Y-35650714D01*
X96060380Y-35602333D01*
X96157142Y-35553952D01*
X96350666Y-35505571D01*
X96592571Y-35505571D01*
X96786095Y-35553952D01*
X96882857Y-35602333D01*
X96931238Y-35650714D01*
X96979619Y-35747476D01*
X96979619Y-35844238D01*
X96931238Y-35941000D01*
X96882857Y-35989380D01*
X96786095Y-36037761D01*
X96592571Y-36086142D01*
X96350666Y-36086142D01*
X96157142Y-36037761D01*
X96060380Y-35989380D01*
X96012000Y-35941000D01*
X95963619Y-35844238D01*
X96979619Y-34296047D02*
X95963619Y-34296047D01*
X95963619Y-34054142D01*
X96012000Y-33909000D01*
X96108761Y-33812238D01*
X96205523Y-33763857D01*
X96399047Y-33715476D01*
X96544190Y-33715476D01*
X96737714Y-33763857D01*
X96834476Y-33812238D01*
X96931238Y-33909000D01*
X96979619Y-34054142D01*
X96979619Y-34296047D01*
X96979619Y-32747857D02*
X96979619Y-33328428D01*
X96979619Y-33038142D02*
X95963619Y-33038142D01*
X96108761Y-33134904D01*
X96205523Y-33231666D01*
X96253904Y-33328428D01*
X89359619Y-37053761D02*
X88343619Y-37053761D01*
X88343619Y-36811857D01*
X88392000Y-36666714D01*
X88488761Y-36569952D01*
X88585523Y-36521571D01*
X88779047Y-36473190D01*
X88924190Y-36473190D01*
X89117714Y-36521571D01*
X89214476Y-36569952D01*
X89311238Y-36666714D01*
X89359619Y-36811857D01*
X89359619Y-37053761D01*
X88343619Y-35602333D02*
X88343619Y-35795857D01*
X88392000Y-35892619D01*
X88440380Y-35941000D01*
X88585523Y-36037761D01*
X88779047Y-36086142D01*
X89166095Y-36086142D01*
X89262857Y-36037761D01*
X89311238Y-35989380D01*
X89359619Y-35892619D01*
X89359619Y-35699095D01*
X89311238Y-35602333D01*
X89262857Y-35553952D01*
X89166095Y-35505571D01*
X88924190Y-35505571D01*
X88827428Y-35553952D01*
X88779047Y-35602333D01*
X88730666Y-35699095D01*
X88730666Y-35892619D01*
X88779047Y-35989380D01*
X88827428Y-36037761D01*
X88924190Y-36086142D01*
X89359619Y-34296047D02*
X88343619Y-34296047D01*
X88343619Y-34054142D01*
X88392000Y-33909000D01*
X88488761Y-33812238D01*
X88585523Y-33763857D01*
X88779047Y-33715476D01*
X88924190Y-33715476D01*
X89117714Y-33763857D01*
X89214476Y-33812238D01*
X89311238Y-33909000D01*
X89359619Y-34054142D01*
X89359619Y-34296047D01*
X88343619Y-33376809D02*
X88343619Y-32699476D01*
X89359619Y-33134904D01*
X126806476Y-78183619D02*
X126322666Y-78183619D01*
X126274285Y-78667428D01*
X126322666Y-78619047D01*
X126419428Y-78570666D01*
X126661333Y-78570666D01*
X126758095Y-78619047D01*
X126806476Y-78667428D01*
X126854857Y-78764190D01*
X126854857Y-79006095D01*
X126806476Y-79102857D01*
X126758095Y-79151238D01*
X126661333Y-79199619D01*
X126419428Y-79199619D01*
X126322666Y-79151238D01*
X126274285Y-79102857D01*
X127145142Y-78183619D02*
X127483809Y-79199619D01*
X127822476Y-78183619D01*
X114227428Y-73145952D02*
X114227428Y-73484619D01*
X114759619Y-73484619D02*
X113743619Y-73484619D01*
X113743619Y-73000809D01*
X113743619Y-72178333D02*
X113743619Y-72371857D01*
X113792000Y-72468619D01*
X113840380Y-72517000D01*
X113985523Y-72613761D01*
X114179047Y-72662142D01*
X114566095Y-72662142D01*
X114662857Y-72613761D01*
X114711238Y-72565380D01*
X114759619Y-72468619D01*
X114759619Y-72275095D01*
X114711238Y-72178333D01*
X114662857Y-72129952D01*
X114566095Y-72081571D01*
X114324190Y-72081571D01*
X114227428Y-72129952D01*
X114179047Y-72178333D01*
X114130666Y-72275095D01*
X114130666Y-72468619D01*
X114179047Y-72565380D01*
X114227428Y-72613761D01*
X114324190Y-72662142D01*
X114227428Y-70533380D02*
X114227428Y-70872047D01*
X114759619Y-70872047D02*
X113743619Y-70872047D01*
X113743619Y-70388238D01*
X113743619Y-70097952D02*
X113743619Y-69420619D01*
X114759619Y-69856047D01*
X123825000Y-51386619D02*
X123825000Y-50370619D01*
X124212047Y-50370619D01*
X124308809Y-50419000D01*
X124357190Y-50467380D01*
X124405571Y-50564142D01*
X124405571Y-50709285D01*
X124357190Y-50806047D01*
X124308809Y-50854428D01*
X124212047Y-50902809D01*
X123825000Y-50902809D01*
X124841000Y-51386619D02*
X124841000Y-50370619D01*
X125082904Y-50370619D01*
X125228047Y-50419000D01*
X125324809Y-50515761D01*
X125373190Y-50612523D01*
X125421571Y-50806047D01*
X125421571Y-50951190D01*
X125373190Y-51144714D01*
X125324809Y-51241476D01*
X125228047Y-51338238D01*
X125082904Y-51386619D01*
X124841000Y-51386619D01*
X125857000Y-51386619D02*
X125857000Y-50370619D01*
X124520476Y-60530619D02*
X124036666Y-60530619D01*
X123988285Y-61014428D01*
X124036666Y-60966047D01*
X124133428Y-60917666D01*
X124375333Y-60917666D01*
X124472095Y-60966047D01*
X124520476Y-61014428D01*
X124568857Y-61111190D01*
X124568857Y-61353095D01*
X124520476Y-61449857D01*
X124472095Y-61498238D01*
X124375333Y-61546619D01*
X124133428Y-61546619D01*
X124036666Y-61498238D01*
X123988285Y-61449857D01*
X124859142Y-60530619D02*
X125197809Y-61546619D01*
X125536476Y-60530619D01*
X91802857Y-72922190D02*
X91851238Y-72970571D01*
X91899619Y-73115714D01*
X91899619Y-73212476D01*
X91851238Y-73357619D01*
X91754476Y-73454380D01*
X91657714Y-73502761D01*
X91464190Y-73551142D01*
X91319047Y-73551142D01*
X91125523Y-73502761D01*
X91028761Y-73454380D01*
X90932000Y-73357619D01*
X90883619Y-73212476D01*
X90883619Y-73115714D01*
X90932000Y-72970571D01*
X90980380Y-72922190D01*
X90980380Y-72535142D02*
X90932000Y-72486761D01*
X90883619Y-72390000D01*
X90883619Y-72148095D01*
X90932000Y-72051333D01*
X90980380Y-72002952D01*
X91077142Y-71954571D01*
X91173904Y-71954571D01*
X91319047Y-72002952D01*
X91899619Y-72583523D01*
X91899619Y-71954571D01*
X91802857Y-70164476D02*
X91851238Y-70212857D01*
X91899619Y-70358000D01*
X91899619Y-70454761D01*
X91851238Y-70599904D01*
X91754476Y-70696666D01*
X91657714Y-70745047D01*
X91464190Y-70793428D01*
X91319047Y-70793428D01*
X91125523Y-70745047D01*
X91028761Y-70696666D01*
X90932000Y-70599904D01*
X90883619Y-70454761D01*
X90883619Y-70358000D01*
X90932000Y-70212857D01*
X90980380Y-70164476D01*
X90883619Y-69825809D02*
X90883619Y-69196857D01*
X91270666Y-69535523D01*
X91270666Y-69390380D01*
X91319047Y-69293619D01*
X91367428Y-69245238D01*
X91464190Y-69196857D01*
X91706095Y-69196857D01*
X91802857Y-69245238D01*
X91851238Y-69293619D01*
X91899619Y-69390380D01*
X91899619Y-69680666D01*
X91851238Y-69777428D01*
X91802857Y-69825809D01*
X94342857Y-72922190D02*
X94391238Y-72970571D01*
X94439619Y-73115714D01*
X94439619Y-73212476D01*
X94391238Y-73357619D01*
X94294476Y-73454380D01*
X94197714Y-73502761D01*
X94004190Y-73551142D01*
X93859047Y-73551142D01*
X93665523Y-73502761D01*
X93568761Y-73454380D01*
X93472000Y-73357619D01*
X93423619Y-73212476D01*
X93423619Y-73115714D01*
X93472000Y-72970571D01*
X93520380Y-72922190D01*
X93762285Y-72051333D02*
X94439619Y-72051333D01*
X93375238Y-72293238D02*
X94100952Y-72535142D01*
X94100952Y-71906190D01*
X94342857Y-70164476D02*
X94391238Y-70212857D01*
X94439619Y-70358000D01*
X94439619Y-70454761D01*
X94391238Y-70599904D01*
X94294476Y-70696666D01*
X94197714Y-70745047D01*
X94004190Y-70793428D01*
X93859047Y-70793428D01*
X93665523Y-70745047D01*
X93568761Y-70696666D01*
X93472000Y-70599904D01*
X93423619Y-70454761D01*
X93423619Y-70358000D01*
X93472000Y-70212857D01*
X93520380Y-70164476D01*
X93423619Y-69245238D02*
X93423619Y-69729047D01*
X93907428Y-69777428D01*
X93859047Y-69729047D01*
X93810666Y-69632285D01*
X93810666Y-69390380D01*
X93859047Y-69293619D01*
X93907428Y-69245238D01*
X94004190Y-69196857D01*
X94246095Y-69196857D01*
X94342857Y-69245238D01*
X94391238Y-69293619D01*
X94439619Y-69390380D01*
X94439619Y-69632285D01*
X94391238Y-69729047D01*
X94342857Y-69777428D01*
X121847428Y-73145952D02*
X121847428Y-73484619D01*
X122379619Y-73484619D02*
X121363619Y-73484619D01*
X121363619Y-73000809D01*
X121363619Y-72420238D02*
X121363619Y-72323476D01*
X121412000Y-72226714D01*
X121460380Y-72178333D01*
X121557142Y-72129952D01*
X121750666Y-72081571D01*
X121992571Y-72081571D01*
X122186095Y-72129952D01*
X122282857Y-72178333D01*
X122331238Y-72226714D01*
X122379619Y-72323476D01*
X122379619Y-72420238D01*
X122331238Y-72517000D01*
X122282857Y-72565380D01*
X122186095Y-72613761D01*
X121992571Y-72662142D01*
X121750666Y-72662142D01*
X121557142Y-72613761D01*
X121460380Y-72565380D01*
X121412000Y-72517000D01*
X121363619Y-72420238D01*
X121847428Y-70533380D02*
X121847428Y-70872047D01*
X122379619Y-70872047D02*
X121363619Y-70872047D01*
X121363619Y-70388238D01*
X122379619Y-69469000D02*
X122379619Y-70049571D01*
X122379619Y-69759285D02*
X121363619Y-69759285D01*
X121508761Y-69856047D01*
X121605523Y-69952809D01*
X121653904Y-70049571D01*
X127187476Y-31193619D02*
X126703666Y-31193619D01*
X126655285Y-31677428D01*
X126703666Y-31629047D01*
X126800428Y-31580666D01*
X127042333Y-31580666D01*
X127139095Y-31629047D01*
X127187476Y-31677428D01*
X127235857Y-31774190D01*
X127235857Y-32016095D01*
X127187476Y-32112857D01*
X127139095Y-32161238D01*
X127042333Y-32209619D01*
X126800428Y-32209619D01*
X126703666Y-32161238D01*
X126655285Y-32112857D01*
X127526142Y-31193619D02*
X127864809Y-32209619D01*
X128203476Y-31193619D01*
X91899619Y-37053761D02*
X90883619Y-37053761D01*
X90883619Y-36811857D01*
X90932000Y-36666714D01*
X91028761Y-36569952D01*
X91125523Y-36521571D01*
X91319047Y-36473190D01*
X91464190Y-36473190D01*
X91657714Y-36521571D01*
X91754476Y-36569952D01*
X91851238Y-36666714D01*
X91899619Y-36811857D01*
X91899619Y-37053761D01*
X91222285Y-35602333D02*
X91899619Y-35602333D01*
X90835238Y-35844238D02*
X91560952Y-36086142D01*
X91560952Y-35457190D01*
X91899619Y-34296047D02*
X90883619Y-34296047D01*
X90883619Y-34054142D01*
X90932000Y-33909000D01*
X91028761Y-33812238D01*
X91125523Y-33763857D01*
X91319047Y-33715476D01*
X91464190Y-33715476D01*
X91657714Y-33763857D01*
X91754476Y-33812238D01*
X91851238Y-33909000D01*
X91899619Y-34054142D01*
X91899619Y-34296047D01*
X90883619Y-32796238D02*
X90883619Y-33280047D01*
X91367428Y-33328428D01*
X91319047Y-33280047D01*
X91270666Y-33183285D01*
X91270666Y-32941380D01*
X91319047Y-32844619D01*
X91367428Y-32796238D01*
X91464190Y-32747857D01*
X91706095Y-32747857D01*
X91802857Y-32796238D01*
X91851238Y-32844619D01*
X91899619Y-32941380D01*
X91899619Y-33183285D01*
X91851238Y-33280047D01*
X91802857Y-33328428D01*
X104309333Y-73406000D02*
X104309333Y-72922190D01*
X104599619Y-73502761D02*
X103583619Y-73164095D01*
X104599619Y-72825428D01*
X103922285Y-72051333D02*
X104599619Y-72051333D01*
X103535238Y-72293238D02*
X104260952Y-72535142D01*
X104260952Y-71906190D01*
X104309333Y-70793428D02*
X104309333Y-70309619D01*
X104599619Y-70890190D02*
X103583619Y-70551523D01*
X104599619Y-70212857D01*
X103583619Y-69390380D02*
X103583619Y-69874190D01*
X104067428Y-69922571D01*
X104019047Y-69874190D01*
X103970666Y-69777428D01*
X103970666Y-69535523D01*
X104019047Y-69438761D01*
X104067428Y-69390380D01*
X104164190Y-69342000D01*
X104406095Y-69342000D01*
X104502857Y-69390380D01*
X104551238Y-69438761D01*
X104599619Y-69535523D01*
X104599619Y-69777428D01*
X104551238Y-69874190D01*
X104502857Y-69922571D01*
X98503619Y-73502761D02*
X98503619Y-73986571D01*
X98987428Y-74034952D01*
X98939047Y-73986571D01*
X98890666Y-73889809D01*
X98890666Y-73647904D01*
X98939047Y-73551142D01*
X98987428Y-73502761D01*
X99084190Y-73454380D01*
X99326095Y-73454380D01*
X99422857Y-73502761D01*
X99471238Y-73551142D01*
X99519619Y-73647904D01*
X99519619Y-73889809D01*
X99471238Y-73986571D01*
X99422857Y-74034952D01*
X98503619Y-73164095D02*
X99519619Y-72825428D01*
X98503619Y-72486761D01*
X98552000Y-70841809D02*
X98503619Y-70938571D01*
X98503619Y-71083714D01*
X98552000Y-71228857D01*
X98648761Y-71325619D01*
X98745523Y-71374000D01*
X98939047Y-71422380D01*
X99084190Y-71422380D01*
X99277714Y-71374000D01*
X99374476Y-71325619D01*
X99471238Y-71228857D01*
X99519619Y-71083714D01*
X99519619Y-70986952D01*
X99471238Y-70841809D01*
X99422857Y-70793428D01*
X99084190Y-70793428D01*
X99084190Y-70986952D01*
X99519619Y-70358000D02*
X98503619Y-70358000D01*
X99519619Y-69777428D01*
X98503619Y-69777428D01*
X99519619Y-69293619D02*
X98503619Y-69293619D01*
X98503619Y-69051714D01*
X98552000Y-68906571D01*
X98648761Y-68809809D01*
X98745523Y-68761428D01*
X98939047Y-68713047D01*
X99084190Y-68713047D01*
X99277714Y-68761428D01*
X99374476Y-68809809D01*
X99471238Y-68906571D01*
X99519619Y-69051714D01*
X99519619Y-69293619D01*
X101769333Y-73406000D02*
X101769333Y-72922190D01*
X102059619Y-73502761D02*
X101043619Y-73164095D01*
X102059619Y-72825428D01*
X101043619Y-72051333D02*
X101043619Y-72244857D01*
X101092000Y-72341619D01*
X101140380Y-72390000D01*
X101285523Y-72486761D01*
X101479047Y-72535142D01*
X101866095Y-72535142D01*
X101962857Y-72486761D01*
X102011238Y-72438380D01*
X102059619Y-72341619D01*
X102059619Y-72148095D01*
X102011238Y-72051333D01*
X101962857Y-72002952D01*
X101866095Y-71954571D01*
X101624190Y-71954571D01*
X101527428Y-72002952D01*
X101479047Y-72051333D01*
X101430666Y-72148095D01*
X101430666Y-72341619D01*
X101479047Y-72438380D01*
X101527428Y-72486761D01*
X101624190Y-72535142D01*
X101769333Y-70793428D02*
X101769333Y-70309619D01*
X102059619Y-70890190D02*
X101043619Y-70551523D01*
X102059619Y-70212857D01*
X101043619Y-69970952D02*
X101043619Y-69293619D01*
X102059619Y-69729047D01*
X89262857Y-72922190D02*
X89311238Y-72970571D01*
X89359619Y-73115714D01*
X89359619Y-73212476D01*
X89311238Y-73357619D01*
X89214476Y-73454380D01*
X89117714Y-73502761D01*
X88924190Y-73551142D01*
X88779047Y-73551142D01*
X88585523Y-73502761D01*
X88488761Y-73454380D01*
X88392000Y-73357619D01*
X88343619Y-73212476D01*
X88343619Y-73115714D01*
X88392000Y-72970571D01*
X88440380Y-72922190D01*
X88343619Y-72293238D02*
X88343619Y-72196476D01*
X88392000Y-72099714D01*
X88440380Y-72051333D01*
X88537142Y-72002952D01*
X88730666Y-71954571D01*
X88972571Y-71954571D01*
X89166095Y-72002952D01*
X89262857Y-72051333D01*
X89311238Y-72099714D01*
X89359619Y-72196476D01*
X89359619Y-72293238D01*
X89311238Y-72390000D01*
X89262857Y-72438380D01*
X89166095Y-72486761D01*
X88972571Y-72535142D01*
X88730666Y-72535142D01*
X88537142Y-72486761D01*
X88440380Y-72438380D01*
X88392000Y-72390000D01*
X88343619Y-72293238D01*
X89262857Y-70164476D02*
X89311238Y-70212857D01*
X89359619Y-70358000D01*
X89359619Y-70454761D01*
X89311238Y-70599904D01*
X89214476Y-70696666D01*
X89117714Y-70745047D01*
X88924190Y-70793428D01*
X88779047Y-70793428D01*
X88585523Y-70745047D01*
X88488761Y-70696666D01*
X88392000Y-70599904D01*
X88343619Y-70454761D01*
X88343619Y-70358000D01*
X88392000Y-70212857D01*
X88440380Y-70164476D01*
X89359619Y-69196857D02*
X89359619Y-69777428D01*
X89359619Y-69487142D02*
X88343619Y-69487142D01*
X88488761Y-69583904D01*
X88585523Y-69680666D01*
X88633904Y-69777428D01*
X77790523Y-60512476D02*
X76520523Y-60512476D01*
X76520523Y-60270571D01*
X76581000Y-60125428D01*
X76701952Y-60028666D01*
X76822904Y-59980285D01*
X77064809Y-59931904D01*
X77246238Y-59931904D01*
X77488142Y-59980285D01*
X77609095Y-60028666D01*
X77730047Y-60125428D01*
X77790523Y-60270571D01*
X77790523Y-60512476D01*
X77730047Y-59109428D02*
X77790523Y-59206190D01*
X77790523Y-59399714D01*
X77730047Y-59496476D01*
X77609095Y-59544857D01*
X77125285Y-59544857D01*
X77004333Y-59496476D01*
X76943857Y-59399714D01*
X76943857Y-59206190D01*
X77004333Y-59109428D01*
X77125285Y-59061047D01*
X77246238Y-59061047D01*
X77367190Y-59544857D01*
X77730047Y-58674000D02*
X77790523Y-58577238D01*
X77790523Y-58383714D01*
X77730047Y-58286952D01*
X77609095Y-58238571D01*
X77548619Y-58238571D01*
X77427666Y-58286952D01*
X77367190Y-58383714D01*
X77367190Y-58528857D01*
X77306714Y-58625619D01*
X77185761Y-58674000D01*
X77125285Y-58674000D01*
X77004333Y-58625619D01*
X76943857Y-58528857D01*
X76943857Y-58383714D01*
X77004333Y-58286952D01*
X77790523Y-57803142D02*
X76943857Y-57803142D01*
X76520523Y-57803142D02*
X76581000Y-57851523D01*
X76641476Y-57803142D01*
X76581000Y-57754761D01*
X76520523Y-57803142D01*
X76641476Y-57803142D01*
X76943857Y-56883904D02*
X77971952Y-56883904D01*
X78092904Y-56932285D01*
X78153380Y-56980666D01*
X78213857Y-57077428D01*
X78213857Y-57222571D01*
X78153380Y-57319333D01*
X77730047Y-56883904D02*
X77790523Y-56980666D01*
X77790523Y-57174190D01*
X77730047Y-57270952D01*
X77669571Y-57319333D01*
X77548619Y-57367714D01*
X77185761Y-57367714D01*
X77064809Y-57319333D01*
X77004333Y-57270952D01*
X76943857Y-57174190D01*
X76943857Y-56980666D01*
X77004333Y-56883904D01*
X76943857Y-56400095D02*
X77790523Y-56400095D01*
X77064809Y-56400095D02*
X77004333Y-56351714D01*
X76943857Y-56254952D01*
X76943857Y-56109809D01*
X77004333Y-56013047D01*
X77125285Y-55964666D01*
X77790523Y-55964666D01*
X77730047Y-55093809D02*
X77790523Y-55190571D01*
X77790523Y-55384095D01*
X77730047Y-55480857D01*
X77609095Y-55529238D01*
X77125285Y-55529238D01*
X77004333Y-55480857D01*
X76943857Y-55384095D01*
X76943857Y-55190571D01*
X77004333Y-55093809D01*
X77125285Y-55045428D01*
X77246238Y-55045428D01*
X77367190Y-55529238D01*
X77790523Y-54174571D02*
X76520523Y-54174571D01*
X77730047Y-54174571D02*
X77790523Y-54271333D01*
X77790523Y-54464857D01*
X77730047Y-54561619D01*
X77669571Y-54610000D01*
X77548619Y-54658380D01*
X77185761Y-54658380D01*
X77064809Y-54610000D01*
X77004333Y-54561619D01*
X76943857Y-54464857D01*
X76943857Y-54271333D01*
X77004333Y-54174571D01*
X77790523Y-52916666D02*
X76520523Y-52916666D01*
X77004333Y-52916666D02*
X76943857Y-52819904D01*
X76943857Y-52626380D01*
X77004333Y-52529619D01*
X77064809Y-52481238D01*
X77185761Y-52432857D01*
X77548619Y-52432857D01*
X77669571Y-52481238D01*
X77730047Y-52529619D01*
X77790523Y-52626380D01*
X77790523Y-52819904D01*
X77730047Y-52916666D01*
X76943857Y-52094190D02*
X77790523Y-51852285D01*
X76943857Y-51610380D02*
X77790523Y-51852285D01*
X78092904Y-51949047D01*
X78153380Y-51997428D01*
X78213857Y-52094190D01*
X77790523Y-50449238D02*
X76520523Y-50449238D01*
X76520523Y-50207333D01*
X76581000Y-50062190D01*
X76701952Y-49965428D01*
X76822904Y-49917047D01*
X77064809Y-49868666D01*
X77246238Y-49868666D01*
X77488142Y-49917047D01*
X77609095Y-49965428D01*
X77730047Y-50062190D01*
X77790523Y-50207333D01*
X77790523Y-50449238D01*
X77790523Y-49433238D02*
X76520523Y-49433238D01*
X76520523Y-49046190D01*
X76581000Y-48949428D01*
X76641476Y-48901047D01*
X76762428Y-48852666D01*
X76943857Y-48852666D01*
X77064809Y-48901047D01*
X77125285Y-48949428D01*
X77185761Y-49046190D01*
X77185761Y-49433238D01*
X77125285Y-48417238D02*
X77125285Y-48078571D01*
X77790523Y-47933428D02*
X77790523Y-48417238D01*
X76520523Y-48417238D01*
X76520523Y-47933428D01*
X77125285Y-47498000D02*
X77125285Y-47159333D01*
X77790523Y-47014190D02*
X77790523Y-47498000D01*
X76520523Y-47498000D01*
X76520523Y-47014190D01*
X77790523Y-45320857D02*
X77790523Y-45804666D01*
X76520523Y-45804666D01*
X77790523Y-44546761D02*
X77125285Y-44546761D01*
X77004333Y-44595142D01*
X76943857Y-44691904D01*
X76943857Y-44885428D01*
X77004333Y-44982190D01*
X77730047Y-44546761D02*
X77790523Y-44643523D01*
X77790523Y-44885428D01*
X77730047Y-44982190D01*
X77609095Y-45030571D01*
X77488142Y-45030571D01*
X77367190Y-44982190D01*
X77306714Y-44885428D01*
X77306714Y-44643523D01*
X77246238Y-44546761D01*
X77790523Y-44062952D02*
X76520523Y-44062952D01*
X77004333Y-44062952D02*
X76943857Y-43966190D01*
X76943857Y-43772666D01*
X77004333Y-43675904D01*
X77064809Y-43627523D01*
X77185761Y-43579142D01*
X77548619Y-43579142D01*
X77669571Y-43627523D01*
X77730047Y-43675904D01*
X77790523Y-43772666D01*
X77790523Y-43966190D01*
X77730047Y-44062952D01*
X111203619Y-73629761D02*
X111203619Y-74113571D01*
X111687428Y-74161952D01*
X111639047Y-74113571D01*
X111590666Y-74016809D01*
X111590666Y-73774904D01*
X111639047Y-73678142D01*
X111687428Y-73629761D01*
X111784190Y-73581380D01*
X112026095Y-73581380D01*
X112122857Y-73629761D01*
X112171238Y-73678142D01*
X112219619Y-73774904D01*
X112219619Y-74016809D01*
X112171238Y-74113571D01*
X112122857Y-74161952D01*
X111203619Y-73291095D02*
X112219619Y-72952428D01*
X111203619Y-72613761D01*
X111252000Y-70968809D02*
X111203619Y-71065571D01*
X111203619Y-71210714D01*
X111252000Y-71355857D01*
X111348761Y-71452619D01*
X111445523Y-71501000D01*
X111639047Y-71549380D01*
X111784190Y-71549380D01*
X111977714Y-71501000D01*
X112074476Y-71452619D01*
X112171238Y-71355857D01*
X112219619Y-71210714D01*
X112219619Y-71113952D01*
X112171238Y-70968809D01*
X112122857Y-70920428D01*
X111784190Y-70920428D01*
X111784190Y-71113952D01*
X112219619Y-70485000D02*
X111203619Y-70485000D01*
X112219619Y-69904428D01*
X111203619Y-69904428D01*
X112219619Y-69420619D02*
X111203619Y-69420619D01*
X111203619Y-69178714D01*
X111252000Y-69033571D01*
X111348761Y-68936809D01*
X111445523Y-68888428D01*
X111639047Y-68840047D01*
X111784190Y-68840047D01*
X111977714Y-68888428D01*
X112074476Y-68936809D01*
X112171238Y-69033571D01*
X112219619Y-69178714D01*
X112219619Y-69420619D01*
X123939904Y-58039000D02*
X123843142Y-57990619D01*
X123698000Y-57990619D01*
X123552857Y-58039000D01*
X123456095Y-58135761D01*
X123407714Y-58232523D01*
X123359333Y-58426047D01*
X123359333Y-58571190D01*
X123407714Y-58764714D01*
X123456095Y-58861476D01*
X123552857Y-58958238D01*
X123698000Y-59006619D01*
X123794761Y-59006619D01*
X123939904Y-58958238D01*
X123988285Y-58909857D01*
X123988285Y-58571190D01*
X123794761Y-58571190D01*
X124423714Y-59006619D02*
X124423714Y-57990619D01*
X125004285Y-59006619D01*
X125004285Y-57990619D01*
X125488095Y-59006619D02*
X125488095Y-57990619D01*
X125730000Y-57990619D01*
X125875142Y-58039000D01*
X125971904Y-58135761D01*
X126020285Y-58232523D01*
X126068666Y-58426047D01*
X126068666Y-58571190D01*
X126020285Y-58764714D01*
X125971904Y-58861476D01*
X125875142Y-58958238D01*
X125730000Y-59006619D01*
X125488095Y-59006619D01*
X109389333Y-73406000D02*
X109389333Y-72922190D01*
X109679619Y-73502761D02*
X108663619Y-73164095D01*
X109679619Y-72825428D01*
X108663619Y-72293238D02*
X108663619Y-72196476D01*
X108712000Y-72099714D01*
X108760380Y-72051333D01*
X108857142Y-72002952D01*
X109050666Y-71954571D01*
X109292571Y-71954571D01*
X109486095Y-72002952D01*
X109582857Y-72051333D01*
X109631238Y-72099714D01*
X109679619Y-72196476D01*
X109679619Y-72293238D01*
X109631238Y-72390000D01*
X109582857Y-72438380D01*
X109486095Y-72486761D01*
X109292571Y-72535142D01*
X109050666Y-72535142D01*
X108857142Y-72486761D01*
X108760380Y-72438380D01*
X108712000Y-72390000D01*
X108663619Y-72293238D01*
X109389333Y-70793428D02*
X109389333Y-70309619D01*
X109679619Y-70890190D02*
X108663619Y-70551523D01*
X109679619Y-70212857D01*
X109679619Y-69342000D02*
X109679619Y-69922571D01*
X109679619Y-69632285D02*
X108663619Y-69632285D01*
X108808761Y-69729047D01*
X108905523Y-69825809D01*
X108953904Y-69922571D01*
X126673428Y-75692000D02*
X126600857Y-75643619D01*
X126492000Y-75643619D01*
X126383142Y-75692000D01*
X126310571Y-75788761D01*
X126274285Y-75885523D01*
X126238000Y-76079047D01*
X126238000Y-76224190D01*
X126274285Y-76417714D01*
X126310571Y-76514476D01*
X126383142Y-76611238D01*
X126492000Y-76659619D01*
X126564571Y-76659619D01*
X126673428Y-76611238D01*
X126709714Y-76562857D01*
X126709714Y-76224190D01*
X126564571Y-76224190D01*
X127036285Y-76659619D02*
X127036285Y-75643619D01*
X127471714Y-76659619D01*
X127471714Y-75643619D01*
X127834571Y-76659619D02*
X127834571Y-75643619D01*
X128016000Y-75643619D01*
X128124857Y-75692000D01*
X128197428Y-75788761D01*
X128233714Y-75885523D01*
X128270000Y-76079047D01*
X128270000Y-76224190D01*
X128233714Y-76417714D01*
X128197428Y-76514476D01*
X128124857Y-76611238D01*
X128016000Y-76659619D01*
X127834571Y-76659619D01*
X106849333Y-73406000D02*
X106849333Y-72922190D01*
X107139619Y-73502761D02*
X106123619Y-73164095D01*
X107139619Y-72825428D01*
X106220380Y-72535142D02*
X106172000Y-72486761D01*
X106123619Y-72390000D01*
X106123619Y-72148095D01*
X106172000Y-72051333D01*
X106220380Y-72002952D01*
X106317142Y-71954571D01*
X106413904Y-71954571D01*
X106559047Y-72002952D01*
X107139619Y-72583523D01*
X107139619Y-71954571D01*
X106849333Y-70793428D02*
X106849333Y-70309619D01*
X107139619Y-70890190D02*
X106123619Y-70551523D01*
X107139619Y-70212857D01*
X106123619Y-69970952D02*
X106123619Y-69342000D01*
X106510666Y-69680666D01*
X106510666Y-69535523D01*
X106559047Y-69438761D01*
X106607428Y-69390380D01*
X106704190Y-69342000D01*
X106946095Y-69342000D01*
X107042857Y-69390380D01*
X107091238Y-69438761D01*
X107139619Y-69535523D01*
X107139619Y-69825809D01*
X107091238Y-69922571D01*
X107042857Y-69970952D01*
X109147428Y-36715095D02*
X109195809Y-36569952D01*
X109244190Y-36521571D01*
X109340952Y-36473190D01*
X109486095Y-36473190D01*
X109582857Y-36521571D01*
X109631238Y-36569952D01*
X109679619Y-36666714D01*
X109679619Y-37053761D01*
X108663619Y-37053761D01*
X108663619Y-36715095D01*
X108712000Y-36618333D01*
X108760380Y-36569952D01*
X108857142Y-36521571D01*
X108953904Y-36521571D01*
X109050666Y-36569952D01*
X109099047Y-36618333D01*
X109147428Y-36715095D01*
X109147428Y-37053761D01*
X108663619Y-35844238D02*
X108663619Y-35747476D01*
X108712000Y-35650714D01*
X108760380Y-35602333D01*
X108857142Y-35553952D01*
X109050666Y-35505571D01*
X109292571Y-35505571D01*
X109486095Y-35553952D01*
X109582857Y-35602333D01*
X109631238Y-35650714D01*
X109679619Y-35747476D01*
X109679619Y-35844238D01*
X109631238Y-35941000D01*
X109582857Y-35989380D01*
X109486095Y-36037761D01*
X109292571Y-36086142D01*
X109050666Y-36086142D01*
X108857142Y-36037761D01*
X108760380Y-35989380D01*
X108712000Y-35941000D01*
X108663619Y-35844238D01*
X109147428Y-33957380D02*
X109195809Y-33812238D01*
X109244190Y-33763857D01*
X109340952Y-33715476D01*
X109486095Y-33715476D01*
X109582857Y-33763857D01*
X109631238Y-33812238D01*
X109679619Y-33909000D01*
X109679619Y-34296047D01*
X108663619Y-34296047D01*
X108663619Y-33957380D01*
X108712000Y-33860619D01*
X108760380Y-33812238D01*
X108857142Y-33763857D01*
X108953904Y-33763857D01*
X109050666Y-33812238D01*
X109099047Y-33860619D01*
X109147428Y-33957380D01*
X109147428Y-34296047D01*
X109679619Y-32747857D02*
X109679619Y-33328428D01*
X109679619Y-33038142D02*
X108663619Y-33038142D01*
X108808761Y-33134904D01*
X108905523Y-33231666D01*
X108953904Y-33328428D01*
X124284619Y-48973619D02*
X123945952Y-48489809D01*
X123704047Y-48973619D02*
X123704047Y-47957619D01*
X124091095Y-47957619D01*
X124187857Y-48006000D01*
X124236238Y-48054380D01*
X124284619Y-48151142D01*
X124284619Y-48296285D01*
X124236238Y-48393047D01*
X124187857Y-48441428D01*
X124091095Y-48489809D01*
X123704047Y-48489809D01*
X124671666Y-48925238D02*
X124816809Y-48973619D01*
X125058714Y-48973619D01*
X125155476Y-48925238D01*
X125203857Y-48876857D01*
X125252238Y-48780095D01*
X125252238Y-48683333D01*
X125203857Y-48586571D01*
X125155476Y-48538190D01*
X125058714Y-48489809D01*
X124865190Y-48441428D01*
X124768428Y-48393047D01*
X124720047Y-48344666D01*
X124671666Y-48247904D01*
X124671666Y-48151142D01*
X124720047Y-48054380D01*
X124768428Y-48006000D01*
X124865190Y-47957619D01*
X125107095Y-47957619D01*
X125252238Y-48006000D01*
X125542523Y-47957619D02*
X126123095Y-47957619D01*
X125832809Y-48973619D02*
X125832809Y-47957619D01*
X98503619Y-37053761D02*
X98503619Y-37537571D01*
X98987428Y-37585952D01*
X98939047Y-37537571D01*
X98890666Y-37440809D01*
X98890666Y-37198904D01*
X98939047Y-37102142D01*
X98987428Y-37053761D01*
X99084190Y-37005380D01*
X99326095Y-37005380D01*
X99422857Y-37053761D01*
X99471238Y-37102142D01*
X99519619Y-37198904D01*
X99519619Y-37440809D01*
X99471238Y-37537571D01*
X99422857Y-37585952D01*
X98503619Y-36715095D02*
X99519619Y-36376428D01*
X98503619Y-36037761D01*
X98552000Y-34392809D02*
X98503619Y-34489571D01*
X98503619Y-34634714D01*
X98552000Y-34779857D01*
X98648761Y-34876619D01*
X98745523Y-34925000D01*
X98939047Y-34973380D01*
X99084190Y-34973380D01*
X99277714Y-34925000D01*
X99374476Y-34876619D01*
X99471238Y-34779857D01*
X99519619Y-34634714D01*
X99519619Y-34537952D01*
X99471238Y-34392809D01*
X99422857Y-34344428D01*
X99084190Y-34344428D01*
X99084190Y-34537952D01*
X99519619Y-33909000D02*
X98503619Y-33909000D01*
X99519619Y-33328428D01*
X98503619Y-33328428D01*
X99519619Y-32844619D02*
X98503619Y-32844619D01*
X98503619Y-32602714D01*
X98552000Y-32457571D01*
X98648761Y-32360809D01*
X98745523Y-32312428D01*
X98939047Y-32264047D01*
X99084190Y-32264047D01*
X99277714Y-32312428D01*
X99374476Y-32360809D01*
X99471238Y-32457571D01*
X99519619Y-32602714D01*
X99519619Y-32844619D01*
X123407714Y-56466619D02*
X123407714Y-55450619D01*
X123794761Y-55450619D01*
X123891523Y-55499000D01*
X123939904Y-55547380D01*
X123988285Y-55644142D01*
X123988285Y-55789285D01*
X123939904Y-55886047D01*
X123891523Y-55934428D01*
X123794761Y-55982809D01*
X123407714Y-55982809D01*
X124423714Y-56466619D02*
X124423714Y-55450619D01*
X124665619Y-55450619D01*
X124810761Y-55499000D01*
X124907523Y-55595761D01*
X124955904Y-55692523D01*
X125004285Y-55886047D01*
X125004285Y-56031190D01*
X124955904Y-56224714D01*
X124907523Y-56321476D01*
X124810761Y-56418238D01*
X124665619Y-56466619D01*
X124423714Y-56466619D01*
X125633238Y-55450619D02*
X125826761Y-55450619D01*
X125923523Y-55499000D01*
X126020285Y-55595761D01*
X126068666Y-55789285D01*
X126068666Y-56127952D01*
X126020285Y-56321476D01*
X125923523Y-56418238D01*
X125826761Y-56466619D01*
X125633238Y-56466619D01*
X125536476Y-56418238D01*
X125439714Y-56321476D01*
X125391333Y-56127952D01*
X125391333Y-55789285D01*
X125439714Y-55595761D01*
X125536476Y-55499000D01*
X125633238Y-55450619D01*
X106607428Y-36715095D02*
X106655809Y-36569952D01*
X106704190Y-36521571D01*
X106800952Y-36473190D01*
X106946095Y-36473190D01*
X107042857Y-36521571D01*
X107091238Y-36569952D01*
X107139619Y-36666714D01*
X107139619Y-37053761D01*
X106123619Y-37053761D01*
X106123619Y-36715095D01*
X106172000Y-36618333D01*
X106220380Y-36569952D01*
X106317142Y-36521571D01*
X106413904Y-36521571D01*
X106510666Y-36569952D01*
X106559047Y-36618333D01*
X106607428Y-36715095D01*
X106607428Y-37053761D01*
X106220380Y-36086142D02*
X106172000Y-36037761D01*
X106123619Y-35941000D01*
X106123619Y-35699095D01*
X106172000Y-35602333D01*
X106220380Y-35553952D01*
X106317142Y-35505571D01*
X106413904Y-35505571D01*
X106559047Y-35553952D01*
X107139619Y-36134523D01*
X107139619Y-35505571D01*
X106607428Y-33957380D02*
X106655809Y-33812238D01*
X106704190Y-33763857D01*
X106800952Y-33715476D01*
X106946095Y-33715476D01*
X107042857Y-33763857D01*
X107091238Y-33812238D01*
X107139619Y-33909000D01*
X107139619Y-34296047D01*
X106123619Y-34296047D01*
X106123619Y-33957380D01*
X106172000Y-33860619D01*
X106220380Y-33812238D01*
X106317142Y-33763857D01*
X106413904Y-33763857D01*
X106510666Y-33812238D01*
X106559047Y-33860619D01*
X106607428Y-33957380D01*
X106607428Y-34296047D01*
X106123619Y-33376809D02*
X106123619Y-32747857D01*
X106510666Y-33086523D01*
X106510666Y-32941380D01*
X106559047Y-32844619D01*
X106607428Y-32796238D01*
X106704190Y-32747857D01*
X106946095Y-32747857D01*
X107042857Y-32796238D01*
X107091238Y-32844619D01*
X107139619Y-32941380D01*
X107139619Y-33231666D01*
X107091238Y-33328428D01*
X107042857Y-33376809D01*
D10*
%TO.C,TP5*%
X65459428Y-58205711D02*
X65894857Y-58205711D01*
X65677142Y-58967711D02*
X65677142Y-58205711D01*
X66148857Y-58967711D02*
X66148857Y-58205711D01*
X66439142Y-58205711D01*
X66511714Y-58241997D01*
X66548000Y-58278282D01*
X66584285Y-58350854D01*
X66584285Y-58459711D01*
X66548000Y-58532282D01*
X66511714Y-58568568D01*
X66439142Y-58604854D01*
X66148857Y-58604854D01*
X67273714Y-58205711D02*
X66910857Y-58205711D01*
X66874571Y-58568568D01*
X66910857Y-58532282D01*
X66983428Y-58495997D01*
X67164857Y-58495997D01*
X67237428Y-58532282D01*
X67273714Y-58568568D01*
X67310000Y-58641139D01*
X67310000Y-58822568D01*
X67273714Y-58895139D01*
X67237428Y-58931425D01*
X67164857Y-58967711D01*
X66983428Y-58967711D01*
X66910857Y-58931425D01*
X66874571Y-58895139D01*
%TO.C,J6*%
X71167666Y-79208380D02*
X71167666Y-79922666D01*
X71120047Y-80065523D01*
X71024809Y-80160761D01*
X70881952Y-80208380D01*
X70786714Y-80208380D01*
X72072428Y-79208380D02*
X71881952Y-79208380D01*
X71786714Y-79256000D01*
X71739095Y-79303619D01*
X71643857Y-79446476D01*
X71596238Y-79636952D01*
X71596238Y-80017904D01*
X71643857Y-80113142D01*
X71691476Y-80160761D01*
X71786714Y-80208380D01*
X71977190Y-80208380D01*
X72072428Y-80160761D01*
X72120047Y-80113142D01*
X72167666Y-80017904D01*
X72167666Y-79779809D01*
X72120047Y-79684571D01*
X72072428Y-79636952D01*
X71977190Y-79589333D01*
X71786714Y-79589333D01*
X71691476Y-79636952D01*
X71643857Y-79684571D01*
X71596238Y-79779809D01*
%TO.C,R4*%
X112736333Y-34869380D02*
X112403000Y-34393190D01*
X112164904Y-34869380D02*
X112164904Y-33869380D01*
X112545857Y-33869380D01*
X112641095Y-33917000D01*
X112688714Y-33964619D01*
X112736333Y-34059857D01*
X112736333Y-34202714D01*
X112688714Y-34297952D01*
X112641095Y-34345571D01*
X112545857Y-34393190D01*
X112164904Y-34393190D01*
X113593476Y-34202714D02*
X113593476Y-34869380D01*
X113355380Y-33821761D02*
X113117285Y-34536047D01*
X113736333Y-34536047D01*
%TO.C,TP1*%
X67164857Y-35142714D02*
X66802000Y-35142714D01*
X66765714Y-35505571D01*
X66802000Y-35469285D01*
X66874571Y-35433000D01*
X67056000Y-35433000D01*
X67128571Y-35469285D01*
X67164857Y-35505571D01*
X67201142Y-35578142D01*
X67201142Y-35759571D01*
X67164857Y-35832142D01*
X67128571Y-35868428D01*
X67056000Y-35904714D01*
X66874571Y-35904714D01*
X66802000Y-35868428D01*
X66765714Y-35832142D01*
X67418857Y-35142714D02*
X67672857Y-35904714D01*
X67926857Y-35142714D01*
%TO.C,R10*%
X123817142Y-45283380D02*
X123483809Y-44807190D01*
X123245714Y-45283380D02*
X123245714Y-44283380D01*
X123626666Y-44283380D01*
X123721904Y-44331000D01*
X123769523Y-44378619D01*
X123817142Y-44473857D01*
X123817142Y-44616714D01*
X123769523Y-44711952D01*
X123721904Y-44759571D01*
X123626666Y-44807190D01*
X123245714Y-44807190D01*
X124769523Y-45283380D02*
X124198095Y-45283380D01*
X124483809Y-45283380D02*
X124483809Y-44283380D01*
X124388571Y-44426238D01*
X124293333Y-44521476D01*
X124198095Y-44569095D01*
X125388571Y-44283380D02*
X125483809Y-44283380D01*
X125579047Y-44331000D01*
X125626666Y-44378619D01*
X125674285Y-44473857D01*
X125721904Y-44664333D01*
X125721904Y-44902428D01*
X125674285Y-45092904D01*
X125626666Y-45188142D01*
X125579047Y-45235761D01*
X125483809Y-45283380D01*
X125388571Y-45283380D01*
X125293333Y-45235761D01*
X125245714Y-45188142D01*
X125198095Y-45092904D01*
X125150476Y-44902428D01*
X125150476Y-44664333D01*
X125198095Y-44473857D01*
X125245714Y-44378619D01*
X125293333Y-44331000D01*
X125388571Y-44283380D01*
%TO.C,C6*%
X116825733Y-58904142D02*
X116778114Y-58951761D01*
X116635257Y-58999380D01*
X116540019Y-58999380D01*
X116397161Y-58951761D01*
X116301923Y-58856523D01*
X116254304Y-58761285D01*
X116206685Y-58570809D01*
X116206685Y-58427952D01*
X116254304Y-58237476D01*
X116301923Y-58142238D01*
X116397161Y-58047000D01*
X116540019Y-57999380D01*
X116635257Y-57999380D01*
X116778114Y-58047000D01*
X116825733Y-58094619D01*
X117682876Y-57999380D02*
X117492400Y-57999380D01*
X117397161Y-58047000D01*
X117349542Y-58094619D01*
X117254304Y-58237476D01*
X117206685Y-58427952D01*
X117206685Y-58808904D01*
X117254304Y-58904142D01*
X117301923Y-58951761D01*
X117397161Y-58999380D01*
X117587638Y-58999380D01*
X117682876Y-58951761D01*
X117730495Y-58904142D01*
X117778114Y-58808904D01*
X117778114Y-58570809D01*
X117730495Y-58475571D01*
X117682876Y-58427952D01*
X117587638Y-58380333D01*
X117397161Y-58380333D01*
X117301923Y-58427952D01*
X117254304Y-58475571D01*
X117206685Y-58570809D01*
%TO.C,R2*%
X81367333Y-39949380D02*
X81034000Y-39473190D01*
X80795904Y-39949380D02*
X80795904Y-38949380D01*
X81176857Y-38949380D01*
X81272095Y-38997000D01*
X81319714Y-39044619D01*
X81367333Y-39139857D01*
X81367333Y-39282714D01*
X81319714Y-39377952D01*
X81272095Y-39425571D01*
X81176857Y-39473190D01*
X80795904Y-39473190D01*
X81748285Y-39044619D02*
X81795904Y-38997000D01*
X81891142Y-38949380D01*
X82129238Y-38949380D01*
X82224476Y-38997000D01*
X82272095Y-39044619D01*
X82319714Y-39139857D01*
X82319714Y-39235095D01*
X82272095Y-39377952D01*
X81700666Y-39949380D01*
X82319714Y-39949380D01*
%TO.C,R5*%
X117435333Y-50998380D02*
X117102000Y-50522190D01*
X116863904Y-50998380D02*
X116863904Y-49998380D01*
X117244857Y-49998380D01*
X117340095Y-50046000D01*
X117387714Y-50093619D01*
X117435333Y-50188857D01*
X117435333Y-50331714D01*
X117387714Y-50426952D01*
X117340095Y-50474571D01*
X117244857Y-50522190D01*
X116863904Y-50522190D01*
X118340095Y-49998380D02*
X117863904Y-49998380D01*
X117816285Y-50474571D01*
X117863904Y-50426952D01*
X117959142Y-50379333D01*
X118197238Y-50379333D01*
X118292476Y-50426952D01*
X118340095Y-50474571D01*
X118387714Y-50569809D01*
X118387714Y-50807904D01*
X118340095Y-50903142D01*
X118292476Y-50950761D01*
X118197238Y-50998380D01*
X117959142Y-50998380D01*
X117863904Y-50950761D01*
X117816285Y-50903142D01*
%TO.C,R14*%
X85590142Y-73223380D02*
X85256809Y-72747190D01*
X85018714Y-73223380D02*
X85018714Y-72223380D01*
X85399666Y-72223380D01*
X85494904Y-72271000D01*
X85542523Y-72318619D01*
X85590142Y-72413857D01*
X85590142Y-72556714D01*
X85542523Y-72651952D01*
X85494904Y-72699571D01*
X85399666Y-72747190D01*
X85018714Y-72747190D01*
X86542523Y-73223380D02*
X85971095Y-73223380D01*
X86256809Y-73223380D02*
X86256809Y-72223380D01*
X86161571Y-72366238D01*
X86066333Y-72461476D01*
X85971095Y-72509095D01*
X87399666Y-72556714D02*
X87399666Y-73223380D01*
X87161571Y-72175761D02*
X86923476Y-72890047D01*
X87542523Y-72890047D01*
%TO.C,R13*%
X92702142Y-39441380D02*
X92368809Y-38965190D01*
X92130714Y-39441380D02*
X92130714Y-38441380D01*
X92511666Y-38441380D01*
X92606904Y-38489000D01*
X92654523Y-38536619D01*
X92702142Y-38631857D01*
X92702142Y-38774714D01*
X92654523Y-38869952D01*
X92606904Y-38917571D01*
X92511666Y-38965190D01*
X92130714Y-38965190D01*
X93654523Y-39441380D02*
X93083095Y-39441380D01*
X93368809Y-39441380D02*
X93368809Y-38441380D01*
X93273571Y-38584238D01*
X93178333Y-38679476D01*
X93083095Y-38727095D01*
X93987857Y-38441380D02*
X94606904Y-38441380D01*
X94273571Y-38822333D01*
X94416428Y-38822333D01*
X94511666Y-38869952D01*
X94559285Y-38917571D01*
X94606904Y-39012809D01*
X94606904Y-39250904D01*
X94559285Y-39346142D01*
X94511666Y-39393761D01*
X94416428Y-39441380D01*
X94130714Y-39441380D01*
X94035476Y-39393761D01*
X93987857Y-39346142D01*
%TO.C,L1*%
X62571333Y-37028380D02*
X62095142Y-37028380D01*
X62095142Y-36028380D01*
X63428476Y-37028380D02*
X62857047Y-37028380D01*
X63142761Y-37028380D02*
X63142761Y-36028380D01*
X63047523Y-36171238D01*
X62952285Y-36266476D01*
X62857047Y-36314095D01*
%TO.C,D7*%
X112268095Y-44334180D02*
X112839523Y-44334180D01*
X112553809Y-45334180D02*
X112553809Y-44334180D01*
X113077619Y-44334180D02*
X113744285Y-45334180D01*
X113744285Y-44334180D02*
X113077619Y-45334180D01*
%TO.C,R1*%
X70445333Y-28697180D02*
X70112000Y-28220990D01*
X69873904Y-28697180D02*
X69873904Y-27697180D01*
X70254857Y-27697180D01*
X70350095Y-27744800D01*
X70397714Y-27792419D01*
X70445333Y-27887657D01*
X70445333Y-28030514D01*
X70397714Y-28125752D01*
X70350095Y-28173371D01*
X70254857Y-28220990D01*
X69873904Y-28220990D01*
X71397714Y-28697180D02*
X70826285Y-28697180D01*
X71112000Y-28697180D02*
X71112000Y-27697180D01*
X71016761Y-27840038D01*
X70921523Y-27935276D01*
X70826285Y-27982895D01*
%TO.C,J1*%
X57959666Y-79208380D02*
X57959666Y-79922666D01*
X57912047Y-80065523D01*
X57816809Y-80160761D01*
X57673952Y-80208380D01*
X57578714Y-80208380D01*
X58959666Y-80208380D02*
X58388238Y-80208380D01*
X58673952Y-80208380D02*
X58673952Y-79208380D01*
X58578714Y-79351238D01*
X58483476Y-79446476D01*
X58388238Y-79494095D01*
%TO.C,R3*%
X112863333Y-38399980D02*
X112530000Y-37923790D01*
X112291904Y-38399980D02*
X112291904Y-37399980D01*
X112672857Y-37399980D01*
X112768095Y-37447600D01*
X112815714Y-37495219D01*
X112863333Y-37590457D01*
X112863333Y-37733314D01*
X112815714Y-37828552D01*
X112768095Y-37876171D01*
X112672857Y-37923790D01*
X112291904Y-37923790D01*
X113196666Y-37399980D02*
X113815714Y-37399980D01*
X113482380Y-37780933D01*
X113625238Y-37780933D01*
X113720476Y-37828552D01*
X113768095Y-37876171D01*
X113815714Y-37971409D01*
X113815714Y-38209504D01*
X113768095Y-38304742D01*
X113720476Y-38352361D01*
X113625238Y-38399980D01*
X113339523Y-38399980D01*
X113244285Y-38352361D01*
X113196666Y-38304742D01*
%TO.C,C12*%
X84955142Y-69064142D02*
X84907523Y-69111761D01*
X84764666Y-69159380D01*
X84669428Y-69159380D01*
X84526571Y-69111761D01*
X84431333Y-69016523D01*
X84383714Y-68921285D01*
X84336095Y-68730809D01*
X84336095Y-68587952D01*
X84383714Y-68397476D01*
X84431333Y-68302238D01*
X84526571Y-68207000D01*
X84669428Y-68159380D01*
X84764666Y-68159380D01*
X84907523Y-68207000D01*
X84955142Y-68254619D01*
X85907523Y-69159380D02*
X85336095Y-69159380D01*
X85621809Y-69159380D02*
X85621809Y-68159380D01*
X85526571Y-68302238D01*
X85431333Y-68397476D01*
X85336095Y-68445095D01*
X86288476Y-68254619D02*
X86336095Y-68207000D01*
X86431333Y-68159380D01*
X86669428Y-68159380D01*
X86764666Y-68207000D01*
X86812285Y-68254619D01*
X86859904Y-68349857D01*
X86859904Y-68445095D01*
X86812285Y-68587952D01*
X86240857Y-69159380D01*
X86859904Y-69159380D01*
%TO.C,R7*%
X112837933Y-43327580D02*
X112504600Y-42851390D01*
X112266504Y-43327580D02*
X112266504Y-42327580D01*
X112647457Y-42327580D01*
X112742695Y-42375200D01*
X112790314Y-42422819D01*
X112837933Y-42518057D01*
X112837933Y-42660914D01*
X112790314Y-42756152D01*
X112742695Y-42803771D01*
X112647457Y-42851390D01*
X112266504Y-42851390D01*
X113171266Y-42327580D02*
X113837933Y-42327580D01*
X113409361Y-43327580D01*
%TO.C,U2*%
X93599095Y-59777380D02*
X93599095Y-60586904D01*
X93646714Y-60682142D01*
X93694333Y-60729761D01*
X93789571Y-60777380D01*
X93980047Y-60777380D01*
X94075285Y-60729761D01*
X94122904Y-60682142D01*
X94170523Y-60586904D01*
X94170523Y-59777380D01*
X94599095Y-59872619D02*
X94646714Y-59825000D01*
X94741952Y-59777380D01*
X94980047Y-59777380D01*
X95075285Y-59825000D01*
X95122904Y-59872619D01*
X95170523Y-59967857D01*
X95170523Y-60063095D01*
X95122904Y-60205952D01*
X94551476Y-60777380D01*
X95170523Y-60777380D01*
%TO.C,J3*%
X83482369Y-77803333D02*
X84196655Y-77803333D01*
X84339512Y-77850952D01*
X84434750Y-77946190D01*
X84482369Y-78089047D01*
X84482369Y-78184285D01*
X83482369Y-77422380D02*
X83482369Y-76803333D01*
X83863322Y-77136666D01*
X83863322Y-76993809D01*
X83910941Y-76898571D01*
X83958560Y-76850952D01*
X84053798Y-76803333D01*
X84291893Y-76803333D01*
X84387131Y-76850952D01*
X84434750Y-76898571D01*
X84482369Y-76993809D01*
X84482369Y-77279523D01*
X84434750Y-77374761D01*
X84387131Y-77422380D01*
%TO.C,D4*%
X70548523Y-30237180D02*
X70072333Y-30237180D01*
X70024714Y-30713371D01*
X70072333Y-30665752D01*
X70167571Y-30618133D01*
X70405666Y-30618133D01*
X70500904Y-30665752D01*
X70548523Y-30713371D01*
X70596142Y-30808609D01*
X70596142Y-31046704D01*
X70548523Y-31141942D01*
X70500904Y-31189561D01*
X70405666Y-31237180D01*
X70167571Y-31237180D01*
X70072333Y-31189561D01*
X70024714Y-31141942D01*
X70881857Y-30237180D02*
X71215190Y-31237180D01*
X71548523Y-30237180D01*
%TO.C,XTAL1*%
X83193190Y-45172380D02*
X83859857Y-46172380D01*
X83859857Y-45172380D02*
X83193190Y-46172380D01*
X84097952Y-45172380D02*
X84669380Y-45172380D01*
X84383666Y-46172380D02*
X84383666Y-45172380D01*
X84955095Y-45886666D02*
X85431285Y-45886666D01*
X84859857Y-46172380D02*
X85193190Y-45172380D01*
X85526523Y-46172380D01*
X86336047Y-46172380D02*
X85859857Y-46172380D01*
X85859857Y-45172380D01*
X87193190Y-46172380D02*
X86621761Y-46172380D01*
X86907476Y-46172380D02*
X86907476Y-45172380D01*
X86812238Y-45315238D01*
X86717000Y-45410476D01*
X86621761Y-45458095D01*
%TO.C,R15*%
X85590142Y-71318380D02*
X85256809Y-70842190D01*
X85018714Y-71318380D02*
X85018714Y-70318380D01*
X85399666Y-70318380D01*
X85494904Y-70366000D01*
X85542523Y-70413619D01*
X85590142Y-70508857D01*
X85590142Y-70651714D01*
X85542523Y-70746952D01*
X85494904Y-70794571D01*
X85399666Y-70842190D01*
X85018714Y-70842190D01*
X86542523Y-71318380D02*
X85971095Y-71318380D01*
X86256809Y-71318380D02*
X86256809Y-70318380D01*
X86161571Y-70461238D01*
X86066333Y-70556476D01*
X85971095Y-70604095D01*
X87447285Y-70318380D02*
X86971095Y-70318380D01*
X86923476Y-70794571D01*
X86971095Y-70746952D01*
X87066333Y-70699333D01*
X87304428Y-70699333D01*
X87399666Y-70746952D01*
X87447285Y-70794571D01*
X87494904Y-70889809D01*
X87494904Y-71127904D01*
X87447285Y-71223142D01*
X87399666Y-71270761D01*
X87304428Y-71318380D01*
X87066333Y-71318380D01*
X86971095Y-71270761D01*
X86923476Y-71223142D01*
%TO.C,C13*%
X72763142Y-63095142D02*
X72715523Y-63142761D01*
X72572666Y-63190380D01*
X72477428Y-63190380D01*
X72334571Y-63142761D01*
X72239333Y-63047523D01*
X72191714Y-62952285D01*
X72144095Y-62761809D01*
X72144095Y-62618952D01*
X72191714Y-62428476D01*
X72239333Y-62333238D01*
X72334571Y-62238000D01*
X72477428Y-62190380D01*
X72572666Y-62190380D01*
X72715523Y-62238000D01*
X72763142Y-62285619D01*
X73715523Y-63190380D02*
X73144095Y-63190380D01*
X73429809Y-63190380D02*
X73429809Y-62190380D01*
X73334571Y-62333238D01*
X73239333Y-62428476D01*
X73144095Y-62476095D01*
X74048857Y-62190380D02*
X74667904Y-62190380D01*
X74334571Y-62571333D01*
X74477428Y-62571333D01*
X74572666Y-62618952D01*
X74620285Y-62666571D01*
X74667904Y-62761809D01*
X74667904Y-62999904D01*
X74620285Y-63095142D01*
X74572666Y-63142761D01*
X74477428Y-63190380D01*
X74191714Y-63190380D01*
X74096476Y-63142761D01*
X74048857Y-63095142D01*
%TO.C,J2*%
X83482380Y-29289333D02*
X84196666Y-29289333D01*
X84339523Y-29336952D01*
X84434761Y-29432190D01*
X84482380Y-29575047D01*
X84482380Y-29670285D01*
X83577619Y-28860761D02*
X83530000Y-28813142D01*
X83482380Y-28717904D01*
X83482380Y-28479809D01*
X83530000Y-28384571D01*
X83577619Y-28336952D01*
X83672857Y-28289333D01*
X83768095Y-28289333D01*
X83910952Y-28336952D01*
X84482380Y-28908380D01*
X84482380Y-28289333D01*
%TO.C,U1*%
X55118095Y-44791380D02*
X55118095Y-45600904D01*
X55165714Y-45696142D01*
X55213333Y-45743761D01*
X55308571Y-45791380D01*
X55499047Y-45791380D01*
X55594285Y-45743761D01*
X55641904Y-45696142D01*
X55689523Y-45600904D01*
X55689523Y-44791380D01*
X56689523Y-45791380D02*
X56118095Y-45791380D01*
X56403809Y-45791380D02*
X56403809Y-44791380D01*
X56308571Y-44934238D01*
X56213333Y-45029476D01*
X56118095Y-45077095D01*
%TO.C,D6*%
X124307790Y-41219380D02*
X123831600Y-41219380D01*
X123831600Y-40219380D01*
X124641123Y-40695571D02*
X124974457Y-40695571D01*
X125117314Y-41219380D02*
X124641123Y-41219380D01*
X124641123Y-40219380D01*
X125117314Y-40219380D01*
X125545885Y-41219380D02*
X125545885Y-40219380D01*
X125783980Y-40219380D01*
X125926838Y-40267000D01*
X126022076Y-40362238D01*
X126069695Y-40457476D01*
X126117314Y-40647952D01*
X126117314Y-40790809D01*
X126069695Y-40981285D01*
X126022076Y-41076523D01*
X125926838Y-41171761D01*
X125783980Y-41219380D01*
X125545885Y-41219380D01*
X126307790Y-41314619D02*
X127069695Y-41314619D01*
X127641123Y-40695571D02*
X127783980Y-40743190D01*
X127831600Y-40790809D01*
X127879219Y-40886047D01*
X127879219Y-41028904D01*
X127831600Y-41124142D01*
X127783980Y-41171761D01*
X127688742Y-41219380D01*
X127307790Y-41219380D01*
X127307790Y-40219380D01*
X127641123Y-40219380D01*
X127736361Y-40267000D01*
X127783980Y-40314619D01*
X127831600Y-40409857D01*
X127831600Y-40505095D01*
X127783980Y-40600333D01*
X127736361Y-40647952D01*
X127641123Y-40695571D01*
X127307790Y-40695571D01*
%TO.C,R11*%
X119880142Y-48966380D02*
X119546809Y-48490190D01*
X119308714Y-48966380D02*
X119308714Y-47966380D01*
X119689666Y-47966380D01*
X119784904Y-48014000D01*
X119832523Y-48061619D01*
X119880142Y-48156857D01*
X119880142Y-48299714D01*
X119832523Y-48394952D01*
X119784904Y-48442571D01*
X119689666Y-48490190D01*
X119308714Y-48490190D01*
X120832523Y-48966380D02*
X120261095Y-48966380D01*
X120546809Y-48966380D02*
X120546809Y-47966380D01*
X120451571Y-48109238D01*
X120356333Y-48204476D01*
X120261095Y-48252095D01*
X121784904Y-48966380D02*
X121213476Y-48966380D01*
X121499190Y-48966380D02*
X121499190Y-47966380D01*
X121403952Y-48109238D01*
X121308714Y-48204476D01*
X121213476Y-48252095D01*
%TO.C,C8*%
X81637142Y-54141666D02*
X81684761Y-54189285D01*
X81732380Y-54332142D01*
X81732380Y-54427380D01*
X81684761Y-54570238D01*
X81589523Y-54665476D01*
X81494285Y-54713095D01*
X81303809Y-54760714D01*
X81160952Y-54760714D01*
X80970476Y-54713095D01*
X80875238Y-54665476D01*
X80780000Y-54570238D01*
X80732380Y-54427380D01*
X80732380Y-54332142D01*
X80780000Y-54189285D01*
X80827619Y-54141666D01*
X81160952Y-53570238D02*
X81113333Y-53665476D01*
X81065714Y-53713095D01*
X80970476Y-53760714D01*
X80922857Y-53760714D01*
X80827619Y-53713095D01*
X80780000Y-53665476D01*
X80732380Y-53570238D01*
X80732380Y-53379761D01*
X80780000Y-53284523D01*
X80827619Y-53236904D01*
X80922857Y-53189285D01*
X80970476Y-53189285D01*
X81065714Y-53236904D01*
X81113333Y-53284523D01*
X81160952Y-53379761D01*
X81160952Y-53570238D01*
X81208571Y-53665476D01*
X81256190Y-53713095D01*
X81351428Y-53760714D01*
X81541904Y-53760714D01*
X81637142Y-53713095D01*
X81684761Y-53665476D01*
X81732380Y-53570238D01*
X81732380Y-53379761D01*
X81684761Y-53284523D01*
X81637142Y-53236904D01*
X81541904Y-53189285D01*
X81351428Y-53189285D01*
X81256190Y-53236904D01*
X81208571Y-53284523D01*
X81160952Y-53379761D01*
%TO.C,C4*%
X106854884Y-67133742D02*
X106807265Y-67181361D01*
X106664408Y-67228980D01*
X106569170Y-67228980D01*
X106426312Y-67181361D01*
X106331074Y-67086123D01*
X106283455Y-66990885D01*
X106235836Y-66800409D01*
X106235836Y-66657552D01*
X106283455Y-66467076D01*
X106331074Y-66371838D01*
X106426312Y-66276600D01*
X106569170Y-66228980D01*
X106664408Y-66228980D01*
X106807265Y-66276600D01*
X106854884Y-66324219D01*
X107712027Y-66562314D02*
X107712027Y-67228980D01*
X107473931Y-66181361D02*
X107235836Y-66895647D01*
X107854884Y-66895647D01*
%TO.C,C9*%
X115301733Y-60428142D02*
X115254114Y-60475761D01*
X115111257Y-60523380D01*
X115016019Y-60523380D01*
X114873161Y-60475761D01*
X114777923Y-60380523D01*
X114730304Y-60285285D01*
X114682685Y-60094809D01*
X114682685Y-59951952D01*
X114730304Y-59761476D01*
X114777923Y-59666238D01*
X114873161Y-59571000D01*
X115016019Y-59523380D01*
X115111257Y-59523380D01*
X115254114Y-59571000D01*
X115301733Y-59618619D01*
X115777923Y-60523380D02*
X115968400Y-60523380D01*
X116063638Y-60475761D01*
X116111257Y-60428142D01*
X116206495Y-60285285D01*
X116254114Y-60094809D01*
X116254114Y-59713857D01*
X116206495Y-59618619D01*
X116158876Y-59571000D01*
X116063638Y-59523380D01*
X115873161Y-59523380D01*
X115777923Y-59571000D01*
X115730304Y-59618619D01*
X115682685Y-59713857D01*
X115682685Y-59951952D01*
X115730304Y-60047190D01*
X115777923Y-60094809D01*
X115873161Y-60142428D01*
X116063638Y-60142428D01*
X116158876Y-60094809D01*
X116206495Y-60047190D01*
X116254114Y-59951952D01*
%TO.C,D5*%
X124277619Y-43327580D02*
X123801428Y-43327580D01*
X123801428Y-42327580D01*
X124610952Y-42803771D02*
X124944285Y-42803771D01*
X125087142Y-43327580D02*
X124610952Y-43327580D01*
X124610952Y-42327580D01*
X125087142Y-42327580D01*
X125515714Y-43327580D02*
X125515714Y-42327580D01*
X125753809Y-42327580D01*
X125896666Y-42375200D01*
X125991904Y-42470438D01*
X126039523Y-42565676D01*
X126087142Y-42756152D01*
X126087142Y-42899009D01*
X126039523Y-43089485D01*
X125991904Y-43184723D01*
X125896666Y-43279961D01*
X125753809Y-43327580D01*
X125515714Y-43327580D01*
X126277619Y-43422819D02*
X127039523Y-43422819D01*
X127230000Y-43041866D02*
X127706190Y-43041866D01*
X127134761Y-43327580D02*
X127468095Y-42327580D01*
X127801428Y-43327580D01*
%TO.C,R12*%
X92702142Y-41473380D02*
X92368809Y-40997190D01*
X92130714Y-41473380D02*
X92130714Y-40473380D01*
X92511666Y-40473380D01*
X92606904Y-40521000D01*
X92654523Y-40568619D01*
X92702142Y-40663857D01*
X92702142Y-40806714D01*
X92654523Y-40901952D01*
X92606904Y-40949571D01*
X92511666Y-40997190D01*
X92130714Y-40997190D01*
X93654523Y-41473380D02*
X93083095Y-41473380D01*
X93368809Y-41473380D02*
X93368809Y-40473380D01*
X93273571Y-40616238D01*
X93178333Y-40711476D01*
X93083095Y-40759095D01*
X94035476Y-40568619D02*
X94083095Y-40521000D01*
X94178333Y-40473380D01*
X94416428Y-40473380D01*
X94511666Y-40521000D01*
X94559285Y-40568619D01*
X94606904Y-40663857D01*
X94606904Y-40759095D01*
X94559285Y-40901952D01*
X93987857Y-41473380D01*
X94606904Y-41473380D01*
%TO.C,C5*%
X94397533Y-44756342D02*
X94349914Y-44803961D01*
X94207057Y-44851580D01*
X94111819Y-44851580D01*
X93968961Y-44803961D01*
X93873723Y-44708723D01*
X93826104Y-44613485D01*
X93778485Y-44423009D01*
X93778485Y-44280152D01*
X93826104Y-44089676D01*
X93873723Y-43994438D01*
X93968961Y-43899200D01*
X94111819Y-43851580D01*
X94207057Y-43851580D01*
X94349914Y-43899200D01*
X94397533Y-43946819D01*
X95302295Y-43851580D02*
X94826104Y-43851580D01*
X94778485Y-44327771D01*
X94826104Y-44280152D01*
X94921342Y-44232533D01*
X95159438Y-44232533D01*
X95254676Y-44280152D01*
X95302295Y-44327771D01*
X95349914Y-44423009D01*
X95349914Y-44661104D01*
X95302295Y-44756342D01*
X95254676Y-44803961D01*
X95159438Y-44851580D01*
X94921342Y-44851580D01*
X94826104Y-44803961D01*
X94778485Y-44756342D01*
%TO.C,Y1*%
X81057809Y-60428190D02*
X81057809Y-60904380D01*
X80724476Y-59904380D02*
X81057809Y-60428190D01*
X81391142Y-59904380D01*
X82248285Y-60904380D02*
X81676857Y-60904380D01*
X81962571Y-60904380D02*
X81962571Y-59904380D01*
X81867333Y-60047238D01*
X81772095Y-60142476D01*
X81676857Y-60190095D01*
%TO.C,C1*%
X54824333Y-60047142D02*
X54776714Y-60094761D01*
X54633857Y-60142380D01*
X54538619Y-60142380D01*
X54395761Y-60094761D01*
X54300523Y-59999523D01*
X54252904Y-59904285D01*
X54205285Y-59713809D01*
X54205285Y-59570952D01*
X54252904Y-59380476D01*
X54300523Y-59285238D01*
X54395761Y-59190000D01*
X54538619Y-59142380D01*
X54633857Y-59142380D01*
X54776714Y-59190000D01*
X54824333Y-59237619D01*
X55776714Y-60142380D02*
X55205285Y-60142380D01*
X55491000Y-60142380D02*
X55491000Y-59142380D01*
X55395761Y-59285238D01*
X55300523Y-59380476D01*
X55205285Y-59428095D01*
%TO.C,D1*%
X71445380Y-64492095D02*
X70445380Y-64492095D01*
X70445380Y-64254000D01*
X70493000Y-64111142D01*
X70588238Y-64015904D01*
X70683476Y-63968285D01*
X70873952Y-63920666D01*
X71016809Y-63920666D01*
X71207285Y-63968285D01*
X71302523Y-64015904D01*
X71397761Y-64111142D01*
X71445380Y-64254000D01*
X71445380Y-64492095D01*
X71445380Y-62968285D02*
X71445380Y-63539714D01*
X71445380Y-63254000D02*
X70445380Y-63254000D01*
X70588238Y-63349238D01*
X70683476Y-63444476D01*
X70731095Y-63539714D01*
%TO.C,C3*%
X108392933Y-65508142D02*
X108345314Y-65555761D01*
X108202457Y-65603380D01*
X108107219Y-65603380D01*
X107964361Y-65555761D01*
X107869123Y-65460523D01*
X107821504Y-65365285D01*
X107773885Y-65174809D01*
X107773885Y-65031952D01*
X107821504Y-64841476D01*
X107869123Y-64746238D01*
X107964361Y-64651000D01*
X108107219Y-64603380D01*
X108202457Y-64603380D01*
X108345314Y-64651000D01*
X108392933Y-64698619D01*
X108726266Y-64603380D02*
X109345314Y-64603380D01*
X109011980Y-64984333D01*
X109154838Y-64984333D01*
X109250076Y-65031952D01*
X109297695Y-65079571D01*
X109345314Y-65174809D01*
X109345314Y-65412904D01*
X109297695Y-65508142D01*
X109250076Y-65555761D01*
X109154838Y-65603380D01*
X108869123Y-65603380D01*
X108773885Y-65555761D01*
X108726266Y-65508142D01*
%TO.C,TP2*%
X101327857Y-66765714D02*
X100965000Y-66765714D01*
X100928714Y-67128571D01*
X100965000Y-67092285D01*
X101037571Y-67056000D01*
X101219000Y-67056000D01*
X101291571Y-67092285D01*
X101327857Y-67128571D01*
X101364142Y-67201142D01*
X101364142Y-67382571D01*
X101327857Y-67455142D01*
X101291571Y-67491428D01*
X101219000Y-67527714D01*
X101037571Y-67527714D01*
X100965000Y-67491428D01*
X100928714Y-67455142D01*
X101581857Y-66765714D02*
X101835857Y-67527714D01*
X102089857Y-66765714D01*
%TO.C,J5*%
X127936666Y-73493380D02*
X127936666Y-74207666D01*
X127889047Y-74350523D01*
X127793809Y-74445761D01*
X127650952Y-74493380D01*
X127555714Y-74493380D01*
X128889047Y-73493380D02*
X128412857Y-73493380D01*
X128365238Y-73969571D01*
X128412857Y-73921952D01*
X128508095Y-73874333D01*
X128746190Y-73874333D01*
X128841428Y-73921952D01*
X128889047Y-73969571D01*
X128936666Y-74064809D01*
X128936666Y-74302904D01*
X128889047Y-74398142D01*
X128841428Y-74445761D01*
X128746190Y-74493380D01*
X128508095Y-74493380D01*
X128412857Y-74445761D01*
X128365238Y-74398142D01*
X124013980Y-70762666D02*
X124728266Y-70762666D01*
X124871123Y-70810285D01*
X124966361Y-70905523D01*
X125013980Y-71048380D01*
X125013980Y-71143619D01*
X124013980Y-70429333D02*
X124013980Y-69857904D01*
X125013980Y-70143619D02*
X124013980Y-70143619D01*
X124728266Y-69572190D02*
X124728266Y-69096000D01*
X125013980Y-69667428D02*
X124013980Y-69334095D01*
X125013980Y-69000761D01*
X124061600Y-68143619D02*
X124013980Y-68238857D01*
X124013980Y-68381714D01*
X124061600Y-68524571D01*
X124156838Y-68619809D01*
X124252076Y-68667428D01*
X124442552Y-68715047D01*
X124585409Y-68715047D01*
X124775885Y-68667428D01*
X124871123Y-68619809D01*
X124966361Y-68524571D01*
X125013980Y-68381714D01*
X125013980Y-68286476D01*
X124966361Y-68143619D01*
X124918742Y-68096000D01*
X124585409Y-68096000D01*
X124585409Y-68286476D01*
%TO.C,C10*%
X87241142Y-65508142D02*
X87193523Y-65555761D01*
X87050666Y-65603380D01*
X86955428Y-65603380D01*
X86812571Y-65555761D01*
X86717333Y-65460523D01*
X86669714Y-65365285D01*
X86622095Y-65174809D01*
X86622095Y-65031952D01*
X86669714Y-64841476D01*
X86717333Y-64746238D01*
X86812571Y-64651000D01*
X86955428Y-64603380D01*
X87050666Y-64603380D01*
X87193523Y-64651000D01*
X87241142Y-64698619D01*
X88193523Y-65603380D02*
X87622095Y-65603380D01*
X87907809Y-65603380D02*
X87907809Y-64603380D01*
X87812571Y-64746238D01*
X87717333Y-64841476D01*
X87622095Y-64889095D01*
X88812571Y-64603380D02*
X88907809Y-64603380D01*
X89003047Y-64651000D01*
X89050666Y-64698619D01*
X89098285Y-64793857D01*
X89145904Y-64984333D01*
X89145904Y-65222428D01*
X89098285Y-65412904D01*
X89050666Y-65508142D01*
X89003047Y-65555761D01*
X88907809Y-65603380D01*
X88812571Y-65603380D01*
X88717333Y-65555761D01*
X88669714Y-65508142D01*
X88622095Y-65412904D01*
X88574476Y-65222428D01*
X88574476Y-64984333D01*
X88622095Y-64793857D01*
X88669714Y-64698619D01*
X88717333Y-64651000D01*
X88812571Y-64603380D01*
%TO.C,TP4*%
X119434428Y-64262000D02*
X119361857Y-64225714D01*
X119253000Y-64225714D01*
X119144142Y-64262000D01*
X119071571Y-64334571D01*
X119035285Y-64407142D01*
X118999000Y-64552285D01*
X118999000Y-64661142D01*
X119035285Y-64806285D01*
X119071571Y-64878857D01*
X119144142Y-64951428D01*
X119253000Y-64987714D01*
X119325571Y-64987714D01*
X119434428Y-64951428D01*
X119470714Y-64915142D01*
X119470714Y-64661142D01*
X119325571Y-64661142D01*
X119797285Y-64987714D02*
X119797285Y-64225714D01*
X120232714Y-64987714D01*
X120232714Y-64225714D01*
X120595571Y-64987714D02*
X120595571Y-64225714D01*
X120777000Y-64225714D01*
X120885857Y-64262000D01*
X120958428Y-64334571D01*
X120994714Y-64407142D01*
X121031000Y-64552285D01*
X121031000Y-64661142D01*
X120994714Y-64806285D01*
X120958428Y-64878857D01*
X120885857Y-64951428D01*
X120777000Y-64987714D01*
X120595571Y-64987714D01*
%TO.C,C14*%
X70334142Y-76715857D02*
X70381761Y-76763476D01*
X70429380Y-76906333D01*
X70429380Y-77001571D01*
X70381761Y-77144428D01*
X70286523Y-77239666D01*
X70191285Y-77287285D01*
X70000809Y-77334904D01*
X69857952Y-77334904D01*
X69667476Y-77287285D01*
X69572238Y-77239666D01*
X69477000Y-77144428D01*
X69429380Y-77001571D01*
X69429380Y-76906333D01*
X69477000Y-76763476D01*
X69524619Y-76715857D01*
X70429380Y-75763476D02*
X70429380Y-76334904D01*
X70429380Y-76049190D02*
X69429380Y-76049190D01*
X69572238Y-76144428D01*
X69667476Y-76239666D01*
X69715095Y-76334904D01*
X69762714Y-74906333D02*
X70429380Y-74906333D01*
X69381761Y-75144428D02*
X70096047Y-75382523D01*
X70096047Y-74763476D01*
%TO.C,J4*%
X127936666Y-45426380D02*
X127936666Y-46140666D01*
X127889047Y-46283523D01*
X127793809Y-46378761D01*
X127650952Y-46426380D01*
X127555714Y-46426380D01*
X128841428Y-45759714D02*
X128841428Y-46426380D01*
X128603333Y-45378761D02*
X128365238Y-46093047D01*
X128984285Y-46093047D01*
X126785809Y-64206380D02*
X126785809Y-63206380D01*
X127214380Y-64158761D02*
X127357238Y-64206380D01*
X127595333Y-64206380D01*
X127690571Y-64158761D01*
X127738190Y-64111142D01*
X127785809Y-64015904D01*
X127785809Y-63920666D01*
X127738190Y-63825428D01*
X127690571Y-63777809D01*
X127595333Y-63730190D01*
X127404857Y-63682571D01*
X127309619Y-63634952D01*
X127262000Y-63587333D01*
X127214380Y-63492095D01*
X127214380Y-63396857D01*
X127262000Y-63301619D01*
X127309619Y-63254000D01*
X127404857Y-63206380D01*
X127642952Y-63206380D01*
X127785809Y-63254000D01*
X128214380Y-64206380D02*
X128214380Y-63206380D01*
X128595333Y-63206380D01*
X128690571Y-63254000D01*
X128738190Y-63301619D01*
X128785809Y-63396857D01*
X128785809Y-63539714D01*
X128738190Y-63634952D01*
X128690571Y-63682571D01*
X128595333Y-63730190D01*
X128214380Y-63730190D01*
%TO.C,R8*%
X112837933Y-41219380D02*
X112504600Y-40743190D01*
X112266504Y-41219380D02*
X112266504Y-40219380D01*
X112647457Y-40219380D01*
X112742695Y-40267000D01*
X112790314Y-40314619D01*
X112837933Y-40409857D01*
X112837933Y-40552714D01*
X112790314Y-40647952D01*
X112742695Y-40695571D01*
X112647457Y-40743190D01*
X112266504Y-40743190D01*
X113409361Y-40647952D02*
X113314123Y-40600333D01*
X113266504Y-40552714D01*
X113218885Y-40457476D01*
X113218885Y-40409857D01*
X113266504Y-40314619D01*
X113314123Y-40267000D01*
X113409361Y-40219380D01*
X113599838Y-40219380D01*
X113695076Y-40267000D01*
X113742695Y-40314619D01*
X113790314Y-40409857D01*
X113790314Y-40457476D01*
X113742695Y-40552714D01*
X113695076Y-40600333D01*
X113599838Y-40647952D01*
X113409361Y-40647952D01*
X113314123Y-40695571D01*
X113266504Y-40743190D01*
X113218885Y-40838428D01*
X113218885Y-41028904D01*
X113266504Y-41124142D01*
X113314123Y-41171761D01*
X113409361Y-41219380D01*
X113599838Y-41219380D01*
X113695076Y-41171761D01*
X113742695Y-41124142D01*
X113790314Y-41028904D01*
X113790314Y-40838428D01*
X113742695Y-40743190D01*
X113695076Y-40695571D01*
X113599838Y-40647952D01*
%TO.C,C7*%
X81510142Y-47410666D02*
X81557761Y-47458285D01*
X81605380Y-47601142D01*
X81605380Y-47696380D01*
X81557761Y-47839238D01*
X81462523Y-47934476D01*
X81367285Y-47982095D01*
X81176809Y-48029714D01*
X81033952Y-48029714D01*
X80843476Y-47982095D01*
X80748238Y-47934476D01*
X80653000Y-47839238D01*
X80605380Y-47696380D01*
X80605380Y-47601142D01*
X80653000Y-47458285D01*
X80700619Y-47410666D01*
X80605380Y-47077333D02*
X80605380Y-46410666D01*
X81605380Y-46839238D01*
%TO.C,C2*%
X63206333Y-27662142D02*
X63158714Y-27709761D01*
X63015857Y-27757380D01*
X62920619Y-27757380D01*
X62777761Y-27709761D01*
X62682523Y-27614523D01*
X62634904Y-27519285D01*
X62587285Y-27328809D01*
X62587285Y-27185952D01*
X62634904Y-26995476D01*
X62682523Y-26900238D01*
X62777761Y-26805000D01*
X62920619Y-26757380D01*
X63015857Y-26757380D01*
X63158714Y-26805000D01*
X63206333Y-26852619D01*
X63587285Y-26852619D02*
X63634904Y-26805000D01*
X63730142Y-26757380D01*
X63968238Y-26757380D01*
X64063476Y-26805000D01*
X64111095Y-26852619D01*
X64158714Y-26947857D01*
X64158714Y-27043095D01*
X64111095Y-27185952D01*
X63539666Y-27757380D01*
X64158714Y-27757380D01*
%TO.C,C11*%
X87114142Y-63476142D02*
X87066523Y-63523761D01*
X86923666Y-63571380D01*
X86828428Y-63571380D01*
X86685571Y-63523761D01*
X86590333Y-63428523D01*
X86542714Y-63333285D01*
X86495095Y-63142809D01*
X86495095Y-62999952D01*
X86542714Y-62809476D01*
X86590333Y-62714238D01*
X86685571Y-62619000D01*
X86828428Y-62571380D01*
X86923666Y-62571380D01*
X87066523Y-62619000D01*
X87114142Y-62666619D01*
X88066523Y-63571380D02*
X87495095Y-63571380D01*
X87780809Y-63571380D02*
X87780809Y-62571380D01*
X87685571Y-62714238D01*
X87590333Y-62809476D01*
X87495095Y-62857095D01*
X89018904Y-63571380D02*
X88447476Y-63571380D01*
X88733190Y-63571380D02*
X88733190Y-62571380D01*
X88637952Y-62714238D01*
X88542714Y-62809476D01*
X88447476Y-62857095D01*
%TO.C,S3*%
X124296704Y-34669361D02*
X124439561Y-34716980D01*
X124677657Y-34716980D01*
X124772895Y-34669361D01*
X124820514Y-34621742D01*
X124868133Y-34526504D01*
X124868133Y-34431266D01*
X124820514Y-34336028D01*
X124772895Y-34288409D01*
X124677657Y-34240790D01*
X124487180Y-34193171D01*
X124391942Y-34145552D01*
X124344323Y-34097933D01*
X124296704Y-34002695D01*
X124296704Y-33907457D01*
X124344323Y-33812219D01*
X124391942Y-33764600D01*
X124487180Y-33716980D01*
X124725276Y-33716980D01*
X124868133Y-33764600D01*
X125201466Y-33716980D02*
X125439561Y-34716980D01*
X125630038Y-34002695D01*
X125820514Y-34716980D01*
X126058609Y-33716980D01*
X126201466Y-34812219D02*
X126963371Y-34812219D01*
X127534800Y-34193171D02*
X127677657Y-34240790D01*
X127725276Y-34288409D01*
X127772895Y-34383647D01*
X127772895Y-34526504D01*
X127725276Y-34621742D01*
X127677657Y-34669361D01*
X127582419Y-34716980D01*
X127201466Y-34716980D01*
X127201466Y-33716980D01*
X127534800Y-33716980D01*
X127630038Y-33764600D01*
X127677657Y-33812219D01*
X127725276Y-33907457D01*
X127725276Y-34002695D01*
X127677657Y-34097933D01*
X127630038Y-34145552D01*
X127534800Y-34193171D01*
X127201466Y-34193171D01*
%TO.C,D3*%
X56411904Y-35631380D02*
X56411904Y-34631380D01*
X56650000Y-34631380D01*
X56792857Y-34679000D01*
X56888095Y-34774238D01*
X56935714Y-34869476D01*
X56983333Y-35059952D01*
X56983333Y-35202809D01*
X56935714Y-35393285D01*
X56888095Y-35488523D01*
X56792857Y-35583761D01*
X56650000Y-35631380D01*
X56411904Y-35631380D01*
X57316666Y-34631380D02*
X57935714Y-34631380D01*
X57602380Y-35012333D01*
X57745238Y-35012333D01*
X57840476Y-35059952D01*
X57888095Y-35107571D01*
X57935714Y-35202809D01*
X57935714Y-35440904D01*
X57888095Y-35536142D01*
X57840476Y-35583761D01*
X57745238Y-35631380D01*
X57459523Y-35631380D01*
X57364285Y-35583761D01*
X57316666Y-35536142D01*
%TO.C,D8*%
X112964933Y-47416980D02*
X112631600Y-46940790D01*
X112393504Y-47416980D02*
X112393504Y-46416980D01*
X112774457Y-46416980D01*
X112869695Y-46464600D01*
X112917314Y-46512219D01*
X112964933Y-46607457D01*
X112964933Y-46750314D01*
X112917314Y-46845552D01*
X112869695Y-46893171D01*
X112774457Y-46940790D01*
X112393504Y-46940790D01*
X113298266Y-46416980D02*
X113964933Y-47416980D01*
X113964933Y-46416980D02*
X113298266Y-47416980D01*
%TO.C,S2*%
X124368133Y-38199961D02*
X124510990Y-38247580D01*
X124749085Y-38247580D01*
X124844323Y-38199961D01*
X124891942Y-38152342D01*
X124939561Y-38057104D01*
X124939561Y-37961866D01*
X124891942Y-37866628D01*
X124844323Y-37819009D01*
X124749085Y-37771390D01*
X124558609Y-37723771D01*
X124463371Y-37676152D01*
X124415752Y-37628533D01*
X124368133Y-37533295D01*
X124368133Y-37438057D01*
X124415752Y-37342819D01*
X124463371Y-37295200D01*
X124558609Y-37247580D01*
X124796704Y-37247580D01*
X124939561Y-37295200D01*
X125272895Y-37247580D02*
X125510990Y-38247580D01*
X125701466Y-37533295D01*
X125891942Y-38247580D01*
X126130038Y-37247580D01*
X126272895Y-38342819D02*
X127034800Y-38342819D01*
X127225276Y-37961866D02*
X127701466Y-37961866D01*
X127130038Y-38247580D02*
X127463371Y-37247580D01*
X127796704Y-38247580D01*
%TO.C,S1*%
X76835095Y-37107761D02*
X76977952Y-37155380D01*
X77216047Y-37155380D01*
X77311285Y-37107761D01*
X77358904Y-37060142D01*
X77406523Y-36964904D01*
X77406523Y-36869666D01*
X77358904Y-36774428D01*
X77311285Y-36726809D01*
X77216047Y-36679190D01*
X77025571Y-36631571D01*
X76930333Y-36583952D01*
X76882714Y-36536333D01*
X76835095Y-36441095D01*
X76835095Y-36345857D01*
X76882714Y-36250619D01*
X76930333Y-36203000D01*
X77025571Y-36155380D01*
X77263666Y-36155380D01*
X77406523Y-36203000D01*
X78358904Y-37155380D02*
X77787476Y-37155380D01*
X78073190Y-37155380D02*
X78073190Y-36155380D01*
X77977952Y-36298238D01*
X77882714Y-36393476D01*
X77787476Y-36441095D01*
X73731380Y-33750095D02*
X73255190Y-34083428D01*
X73731380Y-34321523D02*
X72731380Y-34321523D01*
X72731380Y-33940571D01*
X72779000Y-33845333D01*
X72826619Y-33797714D01*
X72921857Y-33750095D01*
X73064714Y-33750095D01*
X73159952Y-33797714D01*
X73207571Y-33845333D01*
X73255190Y-33940571D01*
X73255190Y-34321523D01*
X73683761Y-32940571D02*
X73731380Y-33035809D01*
X73731380Y-33226285D01*
X73683761Y-33321523D01*
X73588523Y-33369142D01*
X73207571Y-33369142D01*
X73112333Y-33321523D01*
X73064714Y-33226285D01*
X73064714Y-33035809D01*
X73112333Y-32940571D01*
X73207571Y-32892952D01*
X73302809Y-32892952D01*
X73398047Y-33369142D01*
X73683761Y-32512000D02*
X73731380Y-32416761D01*
X73731380Y-32226285D01*
X73683761Y-32131047D01*
X73588523Y-32083428D01*
X73540904Y-32083428D01*
X73445666Y-32131047D01*
X73398047Y-32226285D01*
X73398047Y-32369142D01*
X73350428Y-32464380D01*
X73255190Y-32512000D01*
X73207571Y-32512000D01*
X73112333Y-32464380D01*
X73064714Y-32369142D01*
X73064714Y-32226285D01*
X73112333Y-32131047D01*
X73683761Y-31273904D02*
X73731380Y-31369142D01*
X73731380Y-31559619D01*
X73683761Y-31654857D01*
X73588523Y-31702476D01*
X73207571Y-31702476D01*
X73112333Y-31654857D01*
X73064714Y-31559619D01*
X73064714Y-31369142D01*
X73112333Y-31273904D01*
X73207571Y-31226285D01*
X73302809Y-31226285D01*
X73398047Y-31702476D01*
X73064714Y-30940571D02*
X73064714Y-30559619D01*
X72731380Y-30797714D02*
X73588523Y-30797714D01*
X73683761Y-30750095D01*
X73731380Y-30654857D01*
X73731380Y-30559619D01*
%TO.C,D2*%
X69111904Y-39568380D02*
X69111904Y-38568380D01*
X69350000Y-38568380D01*
X69492857Y-38616000D01*
X69588095Y-38711238D01*
X69635714Y-38806476D01*
X69683333Y-38996952D01*
X69683333Y-39139809D01*
X69635714Y-39330285D01*
X69588095Y-39425523D01*
X69492857Y-39520761D01*
X69350000Y-39568380D01*
X69111904Y-39568380D01*
X70064285Y-38663619D02*
X70111904Y-38616000D01*
X70207142Y-38568380D01*
X70445238Y-38568380D01*
X70540476Y-38616000D01*
X70588095Y-38663619D01*
X70635714Y-38758857D01*
X70635714Y-38854095D01*
X70588095Y-38996952D01*
X70016666Y-39568380D01*
X70635714Y-39568380D01*
%TO.C,U3*%
X71715380Y-67436904D02*
X72524904Y-67436904D01*
X72620142Y-67389285D01*
X72667761Y-67341666D01*
X72715380Y-67246428D01*
X72715380Y-67055952D01*
X72667761Y-66960714D01*
X72620142Y-66913095D01*
X72524904Y-66865476D01*
X71715380Y-66865476D01*
X71715380Y-66484523D02*
X71715380Y-65865476D01*
X72096333Y-66198809D01*
X72096333Y-66055952D01*
X72143952Y-65960714D01*
X72191571Y-65913095D01*
X72286809Y-65865476D01*
X72524904Y-65865476D01*
X72620142Y-65913095D01*
X72667761Y-65960714D01*
X72715380Y-66055952D01*
X72715380Y-66341666D01*
X72667761Y-66436904D01*
X72620142Y-66484523D01*
%TO.C,TP3*%
X122618523Y-66000380D02*
X122142333Y-66000380D01*
X122094714Y-66476571D01*
X122142333Y-66428952D01*
X122237571Y-66381333D01*
X122475666Y-66381333D01*
X122570904Y-66428952D01*
X122618523Y-66476571D01*
X122666142Y-66571809D01*
X122666142Y-66809904D01*
X122618523Y-66905142D01*
X122570904Y-66952761D01*
X122475666Y-67000380D01*
X122237571Y-67000380D01*
X122142333Y-66952761D01*
X122094714Y-66905142D01*
X122951857Y-66000380D02*
X123285190Y-67000380D01*
X123618523Y-66000380D01*
%TO.C,R6*%
X118324333Y-55951380D02*
X117991000Y-55475190D01*
X117752904Y-55951380D02*
X117752904Y-54951380D01*
X118133857Y-54951380D01*
X118229095Y-54999000D01*
X118276714Y-55046619D01*
X118324333Y-55141857D01*
X118324333Y-55284714D01*
X118276714Y-55379952D01*
X118229095Y-55427571D01*
X118133857Y-55475190D01*
X117752904Y-55475190D01*
X119181476Y-54951380D02*
X118991000Y-54951380D01*
X118895761Y-54999000D01*
X118848142Y-55046619D01*
X118752904Y-55189476D01*
X118705285Y-55379952D01*
X118705285Y-55760904D01*
X118752904Y-55856142D01*
X118800523Y-55903761D01*
X118895761Y-55951380D01*
X119086238Y-55951380D01*
X119181476Y-55903761D01*
X119229095Y-55856142D01*
X119276714Y-55760904D01*
X119276714Y-55522809D01*
X119229095Y-55427571D01*
X119181476Y-55379952D01*
X119086238Y-55332333D01*
X118895761Y-55332333D01*
X118800523Y-55379952D01*
X118752904Y-55427571D01*
X118705285Y-55522809D01*
D13*
%TO.C,TP5*%
X67121000Y-60071000D02*
G75*
G03*
X67121000Y-60071000I-700000J0D01*
G01*
%TO.C,J6*%
X73120000Y-77727500D02*
X73120000Y-75877500D01*
X75320000Y-75327500D02*
X75320000Y-75777500D01*
X73120000Y-75877500D02*
X73570000Y-75877500D01*
X73120000Y-80277500D02*
X73120000Y-80027500D01*
X80920000Y-77727500D02*
X80920000Y-75877500D01*
X80920000Y-75877500D02*
X80470000Y-75877500D01*
X80920000Y-80277500D02*
X80920000Y-80027500D01*
X75320000Y-75327500D02*
X75770000Y-75327500D01*
%TO.C,R4*%
X115723936Y-33682000D02*
X116178064Y-33682000D01*
X115723936Y-35152000D02*
X116178064Y-35152000D01*
%TO.C,TP1*%
X69788000Y-36322000D02*
G75*
G03*
X69788000Y-36322000I-700000J0D01*
G01*
%TO.C,R10*%
X120978664Y-45616800D02*
X120524536Y-45616800D01*
X120978664Y-44146800D02*
X120524536Y-44146800D01*
%TO.C,R9*%
X114842058Y-52846500D02*
X114367542Y-52846500D01*
X114842058Y-51801500D02*
X114367542Y-51801500D01*
%TO.C,C6*%
X114634990Y-55810543D02*
X115004457Y-56180010D01*
X113595543Y-56849990D02*
X113965010Y-57219457D01*
%TO.C,R2*%
X78639936Y-40486000D02*
X79094064Y-40486000D01*
X78639936Y-39016000D02*
X79094064Y-39016000D01*
%TO.C,R5*%
X115035064Y-51281000D02*
X114580936Y-51281000D01*
X115035064Y-49811000D02*
X114580936Y-49811000D01*
%TO.C,R14*%
X82650064Y-73506000D02*
X82195936Y-73506000D01*
X82650064Y-72036000D02*
X82195936Y-72036000D01*
%TO.C,R13*%
X96747064Y-37873000D02*
X96292936Y-37873000D01*
X96747064Y-39343000D02*
X96292936Y-39343000D01*
D14*
%TO.C,L1*%
X58938000Y-43222000D02*
X58938000Y-45202000D01*
X66538000Y-45202000D02*
X66538000Y-43222000D01*
X58938000Y-45202000D02*
X66538000Y-45202000D01*
X66538000Y-37602000D02*
X66538000Y-39582000D01*
X58938000Y-39582000D02*
X58938000Y-37602000D01*
X58938000Y-37602000D02*
X66538000Y-37602000D01*
D15*
X57938000Y-41402000D02*
G75*
G03*
X57938000Y-41402000I-100000J0D01*
G01*
D13*
%TO.C,D7*%
X114240600Y-43921800D02*
X114240600Y-45841800D01*
X116925600Y-43921800D02*
X114240600Y-43921800D01*
X114240600Y-45841800D02*
X116925600Y-45841800D01*
%TO.C,R1*%
X68146664Y-27509800D02*
X67692536Y-27509800D01*
X68146664Y-28979800D02*
X67692536Y-28979800D01*
%TO.C,J1*%
X68818000Y-68871989D02*
X67518000Y-68871989D01*
X68518000Y-76371989D02*
X68518000Y-78371989D01*
X68518000Y-78371989D02*
X67218000Y-78371989D01*
X54018000Y-78371989D02*
X54018000Y-69171989D01*
X54018000Y-69171989D02*
X68518000Y-69171989D01*
X68818000Y-70571989D02*
X68818000Y-68871989D01*
X62618000Y-78371989D02*
X54018000Y-78371989D01*
X68518000Y-69171989D02*
X68518000Y-71171989D01*
%TO.C,R3*%
X115723936Y-37085600D02*
X116178064Y-37085600D01*
X115723936Y-38555600D02*
X116178064Y-38555600D01*
%TO.C,C12*%
X82684252Y-69442000D02*
X82161748Y-69442000D01*
X82684252Y-67972000D02*
X82161748Y-67972000D01*
%TO.C,R7*%
X115698536Y-43610200D02*
X116152664Y-43610200D01*
X115698536Y-42140200D02*
X116152664Y-42140200D01*
D10*
%TO.C,U2*%
X101600000Y-43193018D02*
X101122703Y-43670315D01*
X111746982Y-53340000D02*
X111340396Y-52933414D01*
X111746982Y-53340000D02*
X111269685Y-53817297D01*
X101600000Y-63486982D02*
X102077297Y-63009685D01*
X91453018Y-53340000D02*
X91930315Y-53817297D01*
X101600000Y-63486982D02*
X101122703Y-63009685D01*
X101600000Y-43193018D02*
X102077297Y-43670315D01*
X91453018Y-53340000D02*
X91930315Y-52862703D01*
X111340396Y-52933414D02*
X112241957Y-52031852D01*
D13*
%TO.C,J3*%
X85029989Y-77470000D02*
X85029989Y-74870000D01*
X125789989Y-80070000D02*
X125789989Y-74870000D01*
X87629989Y-77470000D02*
X85029989Y-77470000D01*
X85029989Y-74870000D02*
X125789989Y-74870000D01*
X87629989Y-80070000D02*
X125789989Y-80070000D01*
X86359989Y-80070000D02*
X85029989Y-80070000D01*
X85029989Y-80070000D02*
X85029989Y-78740000D01*
X87629989Y-80070000D02*
X87629989Y-77470000D01*
%TO.C,D4*%
X66919600Y-31744800D02*
X69604600Y-31744800D01*
X69604600Y-29824800D02*
X66919600Y-29824800D01*
X69604600Y-31744800D02*
X69604600Y-29824800D01*
%TO.C,XTAL1*%
X87513000Y-60040000D02*
X87513000Y-47440000D01*
X82413000Y-47440000D02*
X82413000Y-60040000D01*
X82413000Y-60040000D02*
X87513000Y-60040000D01*
%TO.C,R15*%
X82650064Y-71601000D02*
X82195936Y-71601000D01*
X82650064Y-70131000D02*
X82195936Y-70131000D01*
%TO.C,C13*%
X76446748Y-63473000D02*
X76969252Y-63473000D01*
X76446748Y-62003000D02*
X76969252Y-62003000D01*
%TO.C,J2*%
X85030000Y-31556000D02*
X85030000Y-30226000D01*
X87630000Y-28956000D02*
X85030000Y-28956000D01*
X85030000Y-28956000D02*
X85030000Y-26356000D01*
X87630000Y-31556000D02*
X87630000Y-28956000D01*
X125790000Y-31556000D02*
X125790000Y-26356000D01*
X86360000Y-31556000D02*
X85030000Y-31556000D01*
X85030000Y-26356000D02*
X125790000Y-26356000D01*
X87630000Y-31556000D02*
X125790000Y-31556000D01*
%TO.C,U1*%
X63868011Y-46908011D02*
X65368011Y-46908011D01*
X65368011Y-56358011D02*
X70493011Y-56358011D01*
X63868011Y-57308011D02*
X65368011Y-57308011D01*
X65368011Y-46908011D02*
X65368011Y-47858011D01*
X65368011Y-57308011D02*
X65368011Y-56358011D01*
X65368011Y-47858011D02*
X66468011Y-47858011D01*
%TO.C,D6*%
X119751600Y-41727000D02*
X122436600Y-41727000D01*
X122436600Y-41727000D02*
X122436600Y-39807000D01*
X122436600Y-39807000D02*
X119751600Y-39807000D01*
%TO.C,R11*%
X120978664Y-47699600D02*
X120524536Y-47699600D01*
X120978664Y-46229600D02*
X120524536Y-46229600D01*
%TO.C,C8*%
X80545000Y-56380748D02*
X80545000Y-56903252D01*
X82015000Y-56380748D02*
X82015000Y-56903252D01*
%TO.C,C4*%
X105273741Y-64192543D02*
X105643208Y-64562010D01*
X104234294Y-65231990D02*
X104603761Y-65601457D01*
%TO.C,C9*%
X113582057Y-57602410D02*
X113212590Y-57232943D01*
X112542610Y-58641857D02*
X112173143Y-58272390D01*
%TO.C,D5*%
X122436600Y-41915200D02*
X119751600Y-41915200D01*
X122436600Y-43835200D02*
X122436600Y-41915200D01*
X119751600Y-43835200D02*
X122436600Y-43835200D01*
%TO.C,R12*%
X96747064Y-41375000D02*
X96292936Y-41375000D01*
X96747064Y-39905000D02*
X96292936Y-39905000D01*
%TO.C,C5*%
X96704543Y-43480010D02*
X97074010Y-43110543D01*
X97743990Y-44519457D02*
X98113457Y-44149990D01*
%TO.C,Y1*%
X80750000Y-61212000D02*
X80750000Y-66962000D01*
X84350000Y-61212000D02*
X80750000Y-61212000D01*
X84350000Y-66962000D02*
X84350000Y-61212000D01*
%TO.C,C1*%
X63747574Y-67644011D02*
X56092011Y-67644011D01*
X64812011Y-59988448D02*
X64812011Y-61774011D01*
X56092011Y-58924011D02*
X56092011Y-61774011D01*
X63747574Y-58924011D02*
X56092011Y-58924011D01*
X66052011Y-65794011D02*
X65052011Y-65794011D01*
X56092011Y-67644011D02*
X56092011Y-64794011D01*
X65552011Y-66294011D02*
X65552011Y-65294011D01*
X64812011Y-66579574D02*
X64812011Y-64794011D01*
X64812011Y-66579574D02*
X63747574Y-67644011D01*
X64812011Y-59988448D02*
X63747574Y-58924011D01*
D14*
%TO.C,D1*%
X67554011Y-61964011D02*
X67764011Y-61964011D01*
X69904011Y-66294011D02*
X70114011Y-66294011D01*
X70114011Y-66294011D02*
X70114011Y-61964011D01*
X70114011Y-61964011D02*
X69904011Y-61964011D01*
X67554011Y-66294011D02*
X67764011Y-66294011D01*
X67554011Y-61964011D02*
X67554011Y-66294011D01*
D15*
X68834011Y-60229011D02*
G75*
G03*
X68834011Y-60229011I-100000J0D01*
G01*
D13*
%TO.C,C3*%
X105721543Y-63707990D02*
X106091010Y-64077457D01*
X106760990Y-62668543D02*
X107130457Y-63038010D01*
%TO.C,TP2*%
X103951000Y-67183000D02*
G75*
G03*
X103951000Y-67183000I-700000J0D01*
G01*
%TO.C,J5*%
X129146000Y-66361000D02*
X129146000Y-72831000D01*
X125616000Y-67816000D02*
X125616000Y-72831000D01*
X128323530Y-72831000D02*
X129146000Y-72831000D01*
X125616000Y-67816000D02*
X126182529Y-67816000D01*
X127053530Y-72831000D02*
X127708470Y-72831000D01*
X125616000Y-72831000D02*
X126438470Y-72831000D01*
X127309471Y-67816000D02*
X127452529Y-67816000D01*
X127506000Y-66361000D02*
X127708470Y-66361000D01*
X128323530Y-66361000D02*
X129146000Y-66361000D01*
X127506000Y-66492529D02*
X127506000Y-66361000D01*
X125616000Y-66296000D02*
X126746000Y-66296000D01*
X125616000Y-67056000D02*
X125616000Y-66296000D01*
X127506000Y-67762529D02*
X127506000Y-67619471D01*
%TO.C,C10*%
X84863000Y-66301252D02*
X84863000Y-65778748D01*
X86333000Y-66301252D02*
X86333000Y-65778748D01*
%TO.C,TP4*%
X120715000Y-62738000D02*
G75*
G03*
X120715000Y-62738000I-700000J0D01*
G01*
%TO.C,C14*%
X70766000Y-76334252D02*
X70766000Y-75811748D01*
X72236000Y-76334252D02*
X72236000Y-75811748D01*
%TO.C,J4*%
X129041200Y-61061600D02*
X129041200Y-62391600D01*
X129041200Y-47031600D02*
X126381200Y-47031600D01*
X129041200Y-62391600D02*
X127711200Y-62391600D01*
X129041200Y-59791600D02*
X129041200Y-47031600D01*
X129041200Y-59791600D02*
X126381200Y-59791600D01*
X126381200Y-59791600D02*
X126381200Y-47031600D01*
%TO.C,R8*%
X115698536Y-41502000D02*
X116152664Y-41502000D01*
X115698536Y-40032000D02*
X116152664Y-40032000D01*
%TO.C,C7*%
X82015000Y-50299252D02*
X82015000Y-49776748D01*
X80545000Y-50299252D02*
X80545000Y-49776748D01*
%TO.C,C2*%
X61781574Y-27362011D02*
X56026011Y-27362011D01*
X61781574Y-34182011D02*
X56026011Y-34182011D01*
X62846011Y-28426448D02*
X62846011Y-29712011D01*
X62846011Y-33117574D02*
X62846011Y-31832011D01*
X63479761Y-33013261D02*
X63479761Y-32225761D01*
X56026011Y-34182011D02*
X56026011Y-31832011D01*
X62846011Y-33117574D02*
X61781574Y-34182011D01*
X62846011Y-28426448D02*
X61781574Y-27362011D01*
X56026011Y-27362011D02*
X56026011Y-29712011D01*
X63873511Y-32619511D02*
X63086011Y-32619511D01*
%TO.C,C11*%
X84863000Y-62222748D02*
X84863000Y-62745252D01*
X86333000Y-62222748D02*
X86333000Y-62745252D01*
D14*
%TO.C,S3*%
X118700000Y-33276500D02*
X118700000Y-32840000D01*
X118700000Y-35740000D02*
X118700000Y-35303500D01*
X122600000Y-35303500D02*
X122600000Y-35740000D01*
X118700000Y-32840000D02*
X122600000Y-32840000D01*
X122600000Y-32840000D02*
X122600000Y-33276500D01*
X122600000Y-35740000D02*
X118700000Y-35740000D01*
D15*
X124000000Y-34290000D02*
G75*
G03*
X124000000Y-34290000I-100000J0D01*
G01*
D14*
%TO.C,D3*%
X56906000Y-41535000D02*
X56696000Y-41535000D01*
X54346000Y-37205000D02*
X54346000Y-41535000D01*
X54346000Y-41535000D02*
X54556000Y-41535000D01*
X54556000Y-37205000D02*
X54346000Y-37205000D01*
X56906000Y-41535000D02*
X56906000Y-37205000D01*
X56906000Y-37205000D02*
X56696000Y-37205000D01*
D15*
X55826000Y-43270000D02*
G75*
G03*
X55826000Y-43270000I-100000J0D01*
G01*
D13*
%TO.C,D8*%
X114240600Y-47924600D02*
X116925600Y-47924600D01*
X116925600Y-46004600D02*
X114240600Y-46004600D01*
X114240600Y-46004600D02*
X114240600Y-47924600D01*
D14*
%TO.C,S2*%
X122600000Y-39270600D02*
X118700000Y-39270600D01*
X118700000Y-39270600D02*
X118700000Y-38834100D01*
X122600000Y-38834100D02*
X122600000Y-39270600D01*
X118700000Y-36807100D02*
X118700000Y-36370600D01*
X122600000Y-36370600D02*
X122600000Y-36807100D01*
X118700000Y-36370600D02*
X122600000Y-36370600D01*
D15*
X124000000Y-37820600D02*
G75*
G03*
X124000000Y-37820600I-100000J0D01*
G01*
D14*
%TO.C,S1*%
X80597000Y-29258000D02*
X80597000Y-35258000D01*
X74597000Y-29258000D02*
X74597000Y-35258000D01*
X74597000Y-29258000D02*
X80597000Y-29258000D01*
X80597000Y-35258000D02*
X74597000Y-35258000D01*
D15*
X75397000Y-38508000D02*
G75*
G03*
X75397000Y-38508000I-100000J0D01*
G01*
D14*
%TO.C,D2*%
X73285000Y-40122000D02*
X73285000Y-40332000D01*
X73285000Y-42682000D02*
X73285000Y-42472000D01*
X68955000Y-42472000D02*
X68955000Y-42682000D01*
X73285000Y-40122000D02*
X68955000Y-40122000D01*
X68955000Y-40122000D02*
X68955000Y-40332000D01*
X68955000Y-42682000D02*
X73285000Y-42682000D01*
D15*
X75120000Y-41302000D02*
G75*
G03*
X75120000Y-41302000I-100000J0D01*
G01*
D13*
%TO.C,U3*%
X76835000Y-64155000D02*
X74885000Y-64155000D01*
X76835000Y-74275000D02*
X74885000Y-74275000D01*
X76835000Y-74275000D02*
X80285000Y-74275000D01*
X76835000Y-64155000D02*
X78785000Y-64155000D01*
%TO.C,TP3*%
X125160000Y-65151000D02*
G75*
G03*
X125160000Y-65151000I-700000J0D01*
G01*
%TO.C,R6*%
X116351882Y-54733435D02*
X116030765Y-54412318D01*
X115312435Y-55772882D02*
X114991318Y-55451765D01*
%TD*%
M02*
