%TF.GenerationSoftware,KiCad,Pcbnew,(6.0.5)*%
%TF.CreationDate,2022-07-19T14:03:45+07:00*%
%TF.ProjectId,atm128,61746d31-3238-42e6-9b69-6361645f7063,1.0*%
%TF.SameCoordinates,Original*%
%TF.FileFunction,Legend,Top*%
%TF.FilePolarity,Positive*%
%FSLAX46Y46*%
G04 Gerber Fmt 4.6, Leading zero omitted, Abs format (unit mm)*
G04 Created by KiCad (PCBNEW (6.0.5)) date 2022-07-19 14:03:45*
%MOMM*%
%LPD*%
G01*
G04 APERTURE LIST*
%ADD10C,0.127000*%
%ADD11C,0.150000*%
%ADD12C,0.203200*%
%TA.AperFunction,Profile*%
%ADD13C,0.127000*%
%TD*%
%ADD14C,0.152400*%
%ADD15C,0.254000*%
%ADD16C,0.120000*%
%ADD17C,0.200000*%
G04 APERTURE END LIST*
D10*
X89331800Y-62280800D02*
X84353400Y-62280800D01*
X89331800Y-60350400D02*
X89331800Y-62280800D01*
X84213700Y-60350400D02*
X89331800Y-60350400D01*
X127127000Y-35788600D02*
X121132600Y-35788600D01*
X127127000Y-32893000D02*
X127127000Y-35788600D01*
X121107200Y-32893000D02*
X127127000Y-32893000D01*
X127101600Y-39268400D02*
X121107200Y-39268400D01*
X127127000Y-36372800D02*
X127127000Y-39268400D01*
X121107200Y-36372800D02*
X127127000Y-36372800D01*
X120684000Y-41813614D02*
X127126989Y-41813614D01*
X127126989Y-41813614D02*
X127126989Y-43733600D01*
X127126989Y-43733600D02*
X120684000Y-43733600D01*
X120684000Y-43733600D02*
X120684000Y-41813614D01*
X120684000Y-39705414D02*
X127126989Y-39705414D01*
X127126989Y-39705414D02*
X127126989Y-41625400D01*
X127126989Y-41625400D02*
X120684000Y-41625400D01*
X120684000Y-41625400D02*
X120684000Y-39705414D01*
D11*
X109474000Y-43845600D02*
X113834200Y-43845600D01*
X113834200Y-43845600D02*
X113834200Y-45765600D01*
X113834200Y-45765600D02*
X109474000Y-45765600D01*
X109474000Y-45765600D02*
X109474000Y-43845600D01*
X110490000Y-32512000D02*
X128651000Y-32512000D01*
X87884000Y-32385000D02*
X97536000Y-32385000D01*
X97536000Y-32385000D02*
X97536000Y-37465000D01*
X97536000Y-37465000D02*
X87884000Y-37465000D01*
X87884000Y-37465000D02*
X87884000Y-32385000D01*
X87884000Y-71374000D02*
X97536000Y-71374000D01*
X100584000Y-71374000D02*
X110236000Y-71374000D01*
X71932800Y-29260800D02*
X73964800Y-29260800D01*
X73964800Y-29260800D02*
X73964800Y-35356800D01*
X73964800Y-35356800D02*
X71932800Y-35356800D01*
X71932800Y-35356800D02*
X71932800Y-29260800D01*
X118821200Y-42824400D02*
X119202200Y-42824400D01*
X100457000Y-32385000D02*
X110109000Y-32385000D01*
X110109000Y-32385000D02*
X110109000Y-37465000D01*
X110109000Y-37465000D02*
X100457000Y-37465000D01*
X100457000Y-37465000D02*
X100457000Y-32385000D01*
X87884000Y-68834000D02*
X97536000Y-68834000D01*
X97536000Y-68834000D02*
X97536000Y-73914000D01*
X97536000Y-73914000D02*
X87884000Y-73914000D01*
X87884000Y-73914000D02*
X87884000Y-68834000D01*
X75438000Y-73152000D02*
X76962000Y-73152000D01*
D12*
X72644000Y-43180000D02*
X78994000Y-43180000D01*
X78994000Y-43180000D02*
X78994000Y-61214000D01*
X78994000Y-61214000D02*
X72644000Y-61214000D01*
X72644000Y-61214000D02*
X72644000Y-43180000D01*
D10*
X66230500Y-29819600D02*
X69608700Y-29819600D01*
X69608700Y-29819600D02*
X69608700Y-33655000D01*
X69608700Y-33655000D02*
X66230500Y-33655000D01*
X66230500Y-33655000D02*
X66230500Y-29819600D01*
D11*
X72898000Y-70866000D02*
X72898000Y-71374000D01*
X67754500Y-30734000D02*
X68135500Y-30734000D01*
X115328700Y-44831000D02*
X115709700Y-44831000D01*
X100584000Y-68834000D02*
X110236000Y-68834000D01*
X110236000Y-68834000D02*
X110236000Y-73914000D01*
X110236000Y-73914000D02*
X100584000Y-73914000D01*
X100584000Y-73914000D02*
X100584000Y-68834000D01*
X113284000Y-68834000D02*
X122936000Y-68834000D01*
X122936000Y-68834000D02*
X122936000Y-73914000D01*
X122936000Y-73914000D02*
X113284000Y-73914000D01*
X113284000Y-73914000D02*
X113284000Y-68834000D01*
X117297200Y-60960000D02*
X119583200Y-60960000D01*
X119583200Y-60960000D02*
X119583200Y-64770000D01*
X119583200Y-64770000D02*
X117297200Y-64770000D01*
X117297200Y-64770000D02*
X117297200Y-60960000D01*
X72898000Y-71374000D02*
X76200000Y-71374000D01*
X118808500Y-40665400D02*
X119189500Y-40665400D01*
X118808500Y-40411400D02*
X118808500Y-40919400D01*
X76200000Y-71374000D02*
X76200000Y-73152000D01*
X113284000Y-71374000D02*
X122936000Y-71374000D01*
X87884000Y-34925000D02*
X97536000Y-34925000D01*
X115328700Y-44577000D02*
X115328700Y-45085000D01*
X110490000Y-31750000D02*
X110490000Y-32512000D01*
X118821200Y-42570400D02*
X118821200Y-43078400D01*
X72898000Y-66548000D02*
X72898000Y-70866000D01*
X67754500Y-30480000D02*
X67754500Y-30988000D01*
X100457000Y-34925000D02*
X110109000Y-34925000D01*
D13*
X53336261Y-78235739D02*
G75*
G03*
X56384261Y-81283739I3048039J39D01*
G01*
X126495739Y-81283739D02*
G75*
G03*
X129543739Y-78235739I-39J3048039D01*
G01*
X129543702Y-28444261D02*
G75*
G03*
X126495739Y-25400000I-3044302J-39D01*
G01*
X53336261Y-78235739D02*
X53336261Y-28444261D01*
X129543739Y-28444261D02*
X129543739Y-78235739D01*
X56384261Y-25400003D02*
G75*
G03*
X53336261Y-28444261I-3751J-3044247D01*
G01*
X56384261Y-25400000D02*
X126495739Y-25400000D01*
X126495739Y-81283739D02*
X56384261Y-81283739D01*
D14*
X96882857Y-72922190D02*
X96931238Y-72970571D01*
X96979619Y-73115714D01*
X96979619Y-73212476D01*
X96931238Y-73357619D01*
X96834476Y-73454380D01*
X96737714Y-73502761D01*
X96544190Y-73551142D01*
X96399047Y-73551142D01*
X96205523Y-73502761D01*
X96108761Y-73454380D01*
X96012000Y-73357619D01*
X95963619Y-73212476D01*
X95963619Y-73115714D01*
X96012000Y-72970571D01*
X96060380Y-72922190D01*
X95963619Y-72051333D02*
X95963619Y-72244857D01*
X96012000Y-72341619D01*
X96060380Y-72390000D01*
X96205523Y-72486761D01*
X96399047Y-72535142D01*
X96786095Y-72535142D01*
X96882857Y-72486761D01*
X96931238Y-72438380D01*
X96979619Y-72341619D01*
X96979619Y-72148095D01*
X96931238Y-72051333D01*
X96882857Y-72002952D01*
X96786095Y-71954571D01*
X96544190Y-71954571D01*
X96447428Y-72002952D01*
X96399047Y-72051333D01*
X96350666Y-72148095D01*
X96350666Y-72341619D01*
X96399047Y-72438380D01*
X96447428Y-72486761D01*
X96544190Y-72535142D01*
X96882857Y-70164476D02*
X96931238Y-70212857D01*
X96979619Y-70358000D01*
X96979619Y-70454761D01*
X96931238Y-70599904D01*
X96834476Y-70696666D01*
X96737714Y-70745047D01*
X96544190Y-70793428D01*
X96399047Y-70793428D01*
X96205523Y-70745047D01*
X96108761Y-70696666D01*
X96012000Y-70599904D01*
X95963619Y-70454761D01*
X95963619Y-70358000D01*
X96012000Y-70212857D01*
X96060380Y-70164476D01*
X95963619Y-69825809D02*
X95963619Y-69148476D01*
X96979619Y-69583904D01*
X94439619Y-37053761D02*
X93423619Y-37053761D01*
X93423619Y-36811857D01*
X93472000Y-36666714D01*
X93568761Y-36569952D01*
X93665523Y-36521571D01*
X93859047Y-36473190D01*
X94004190Y-36473190D01*
X94197714Y-36521571D01*
X94294476Y-36569952D01*
X94391238Y-36666714D01*
X94439619Y-36811857D01*
X94439619Y-37053761D01*
X93520380Y-36086142D02*
X93472000Y-36037761D01*
X93423619Y-35941000D01*
X93423619Y-35699095D01*
X93472000Y-35602333D01*
X93520380Y-35553952D01*
X93617142Y-35505571D01*
X93713904Y-35505571D01*
X93859047Y-35553952D01*
X94439619Y-36134523D01*
X94439619Y-35505571D01*
X94439619Y-34296047D02*
X93423619Y-34296047D01*
X93423619Y-34054142D01*
X93472000Y-33909000D01*
X93568761Y-33812238D01*
X93665523Y-33763857D01*
X93859047Y-33715476D01*
X94004190Y-33715476D01*
X94197714Y-33763857D01*
X94294476Y-33812238D01*
X94391238Y-33909000D01*
X94439619Y-34054142D01*
X94439619Y-34296047D01*
X93423619Y-33376809D02*
X93423619Y-32747857D01*
X93810666Y-33086523D01*
X93810666Y-32941380D01*
X93859047Y-32844619D01*
X93907428Y-32796238D01*
X94004190Y-32747857D01*
X94246095Y-32747857D01*
X94342857Y-32796238D01*
X94391238Y-32844619D01*
X94439619Y-32941380D01*
X94439619Y-33231666D01*
X94391238Y-33328428D01*
X94342857Y-33376809D01*
X101527428Y-36715095D02*
X101575809Y-36569952D01*
X101624190Y-36521571D01*
X101720952Y-36473190D01*
X101866095Y-36473190D01*
X101962857Y-36521571D01*
X102011238Y-36569952D01*
X102059619Y-36666714D01*
X102059619Y-37053761D01*
X101043619Y-37053761D01*
X101043619Y-36715095D01*
X101092000Y-36618333D01*
X101140380Y-36569952D01*
X101237142Y-36521571D01*
X101333904Y-36521571D01*
X101430666Y-36569952D01*
X101479047Y-36618333D01*
X101527428Y-36715095D01*
X101527428Y-37053761D01*
X101043619Y-35602333D02*
X101043619Y-35795857D01*
X101092000Y-35892619D01*
X101140380Y-35941000D01*
X101285523Y-36037761D01*
X101479047Y-36086142D01*
X101866095Y-36086142D01*
X101962857Y-36037761D01*
X102011238Y-35989380D01*
X102059619Y-35892619D01*
X102059619Y-35699095D01*
X102011238Y-35602333D01*
X101962857Y-35553952D01*
X101866095Y-35505571D01*
X101624190Y-35505571D01*
X101527428Y-35553952D01*
X101479047Y-35602333D01*
X101430666Y-35699095D01*
X101430666Y-35892619D01*
X101479047Y-35989380D01*
X101527428Y-36037761D01*
X101624190Y-36086142D01*
X101527428Y-33957380D02*
X101575809Y-33812238D01*
X101624190Y-33763857D01*
X101720952Y-33715476D01*
X101866095Y-33715476D01*
X101962857Y-33763857D01*
X102011238Y-33812238D01*
X102059619Y-33909000D01*
X102059619Y-34296047D01*
X101043619Y-34296047D01*
X101043619Y-33957380D01*
X101092000Y-33860619D01*
X101140380Y-33812238D01*
X101237142Y-33763857D01*
X101333904Y-33763857D01*
X101430666Y-33812238D01*
X101479047Y-33860619D01*
X101527428Y-33957380D01*
X101527428Y-34296047D01*
X101043619Y-33376809D02*
X101043619Y-32699476D01*
X102059619Y-33134904D01*
X85803619Y-36926761D02*
X85803619Y-37410571D01*
X86287428Y-37458952D01*
X86239047Y-37410571D01*
X86190666Y-37313809D01*
X86190666Y-37071904D01*
X86239047Y-36975142D01*
X86287428Y-36926761D01*
X86384190Y-36878380D01*
X86626095Y-36878380D01*
X86722857Y-36926761D01*
X86771238Y-36975142D01*
X86819619Y-37071904D01*
X86819619Y-37313809D01*
X86771238Y-37410571D01*
X86722857Y-37458952D01*
X85803619Y-36588095D02*
X86819619Y-36249428D01*
X85803619Y-35910761D01*
X85852000Y-34265809D02*
X85803619Y-34362571D01*
X85803619Y-34507714D01*
X85852000Y-34652857D01*
X85948761Y-34749619D01*
X86045523Y-34798000D01*
X86239047Y-34846380D01*
X86384190Y-34846380D01*
X86577714Y-34798000D01*
X86674476Y-34749619D01*
X86771238Y-34652857D01*
X86819619Y-34507714D01*
X86819619Y-34410952D01*
X86771238Y-34265809D01*
X86722857Y-34217428D01*
X86384190Y-34217428D01*
X86384190Y-34410952D01*
X86819619Y-33782000D02*
X85803619Y-33782000D01*
X86819619Y-33201428D01*
X85803619Y-33201428D01*
X86819619Y-32717619D02*
X85803619Y-32717619D01*
X85803619Y-32475714D01*
X85852000Y-32330571D01*
X85948761Y-32233809D01*
X86045523Y-32185428D01*
X86239047Y-32137047D01*
X86384190Y-32137047D01*
X86577714Y-32185428D01*
X86674476Y-32233809D01*
X86771238Y-32330571D01*
X86819619Y-32475714D01*
X86819619Y-32717619D01*
X126800428Y-27178000D02*
X126727857Y-27129619D01*
X126619000Y-27129619D01*
X126510142Y-27178000D01*
X126437571Y-27274761D01*
X126401285Y-27371523D01*
X126365000Y-27565047D01*
X126365000Y-27710190D01*
X126401285Y-27903714D01*
X126437571Y-28000476D01*
X126510142Y-28097238D01*
X126619000Y-28145619D01*
X126691571Y-28145619D01*
X126800428Y-28097238D01*
X126836714Y-28048857D01*
X126836714Y-27710190D01*
X126691571Y-27710190D01*
X127163285Y-28145619D02*
X127163285Y-27129619D01*
X127598714Y-28145619D01*
X127598714Y-27129619D01*
X127961571Y-28145619D02*
X127961571Y-27129619D01*
X128143000Y-27129619D01*
X128251857Y-27178000D01*
X128324428Y-27274761D01*
X128360714Y-27371523D01*
X128397000Y-27565047D01*
X128397000Y-27710190D01*
X128360714Y-27903714D01*
X128324428Y-28000476D01*
X128251857Y-28097238D01*
X128143000Y-28145619D01*
X127961571Y-28145619D01*
X119307428Y-73145952D02*
X119307428Y-73484619D01*
X119839619Y-73484619D02*
X118823619Y-73484619D01*
X118823619Y-73000809D01*
X118920380Y-72662142D02*
X118872000Y-72613761D01*
X118823619Y-72517000D01*
X118823619Y-72275095D01*
X118872000Y-72178333D01*
X118920380Y-72129952D01*
X119017142Y-72081571D01*
X119113904Y-72081571D01*
X119259047Y-72129952D01*
X119839619Y-72710523D01*
X119839619Y-72081571D01*
X119307428Y-70533380D02*
X119307428Y-70872047D01*
X119839619Y-70872047D02*
X118823619Y-70872047D01*
X118823619Y-70388238D01*
X118823619Y-70097952D02*
X118823619Y-69469000D01*
X119210666Y-69807666D01*
X119210666Y-69662523D01*
X119259047Y-69565761D01*
X119307428Y-69517380D01*
X119404190Y-69469000D01*
X119646095Y-69469000D01*
X119742857Y-69517380D01*
X119791238Y-69565761D01*
X119839619Y-69662523D01*
X119839619Y-69952809D01*
X119791238Y-70049571D01*
X119742857Y-70097952D01*
X116767428Y-73145952D02*
X116767428Y-73484619D01*
X117299619Y-73484619D02*
X116283619Y-73484619D01*
X116283619Y-73000809D01*
X116622285Y-72178333D02*
X117299619Y-72178333D01*
X116235238Y-72420238D02*
X116960952Y-72662142D01*
X116960952Y-72033190D01*
X116767428Y-70533380D02*
X116767428Y-70872047D01*
X117299619Y-70872047D02*
X116283619Y-70872047D01*
X116283619Y-70388238D01*
X116283619Y-69517380D02*
X116283619Y-70001190D01*
X116767428Y-70049571D01*
X116719047Y-70001190D01*
X116670666Y-69904428D01*
X116670666Y-69662523D01*
X116719047Y-69565761D01*
X116767428Y-69517380D01*
X116864190Y-69469000D01*
X117106095Y-69469000D01*
X117202857Y-69517380D01*
X117251238Y-69565761D01*
X117299619Y-69662523D01*
X117299619Y-69904428D01*
X117251238Y-70001190D01*
X117202857Y-70049571D01*
D15*
X74913066Y-60528200D02*
X74913066Y-59802485D01*
X75493638Y-60673342D02*
X73461638Y-60165342D01*
X75493638Y-59657342D01*
X73461638Y-59367057D02*
X73461638Y-58496200D01*
X75493638Y-58931628D02*
X73461638Y-58931628D01*
X75493638Y-57988200D02*
X73461638Y-57988200D01*
X74913066Y-57480200D01*
X73461638Y-56972200D01*
X75493638Y-56972200D01*
X74429257Y-56246485D02*
X74429257Y-55738485D01*
X75493638Y-55520771D02*
X75493638Y-56246485D01*
X73461638Y-56246485D01*
X73461638Y-55520771D01*
X73558400Y-54069342D02*
X73461638Y-54214485D01*
X73461638Y-54432200D01*
X73558400Y-54649914D01*
X73751923Y-54795057D01*
X73945447Y-54867628D01*
X74332495Y-54940200D01*
X74622780Y-54940200D01*
X75009828Y-54867628D01*
X75203352Y-54795057D01*
X75396876Y-54649914D01*
X75493638Y-54432200D01*
X75493638Y-54287057D01*
X75396876Y-54069342D01*
X75300114Y-53996771D01*
X74622780Y-53996771D01*
X74622780Y-54287057D01*
X74913066Y-53416200D02*
X74913066Y-52690485D01*
X75493638Y-53561342D02*
X73461638Y-53053342D01*
X75493638Y-52545342D01*
X75493638Y-51239057D02*
X75493638Y-52109914D01*
X75493638Y-51674485D02*
X73461638Y-51674485D01*
X73751923Y-51819628D01*
X73945447Y-51964771D01*
X74042209Y-52109914D01*
X73655161Y-50658485D02*
X73558400Y-50585914D01*
X73461638Y-50440771D01*
X73461638Y-50077914D01*
X73558400Y-49932771D01*
X73655161Y-49860200D01*
X73848685Y-49787628D01*
X74042209Y-49787628D01*
X74332495Y-49860200D01*
X75493638Y-50731057D01*
X75493638Y-49787628D01*
X74332495Y-48916771D02*
X74235733Y-49061914D01*
X74138971Y-49134485D01*
X73945447Y-49207057D01*
X73848685Y-49207057D01*
X73655161Y-49134485D01*
X73558400Y-49061914D01*
X73461638Y-48916771D01*
X73461638Y-48626485D01*
X73558400Y-48481342D01*
X73655161Y-48408771D01*
X73848685Y-48336200D01*
X73945447Y-48336200D01*
X74138971Y-48408771D01*
X74235733Y-48481342D01*
X74332495Y-48626485D01*
X74332495Y-48916771D01*
X74429257Y-49061914D01*
X74526019Y-49134485D01*
X74719542Y-49207057D01*
X75106590Y-49207057D01*
X75300114Y-49134485D01*
X75396876Y-49061914D01*
X75493638Y-48916771D01*
X75493638Y-48626485D01*
X75396876Y-48481342D01*
X75300114Y-48408771D01*
X75106590Y-48336200D01*
X74719542Y-48336200D01*
X74526019Y-48408771D01*
X74429257Y-48481342D01*
X74332495Y-48626485D01*
X75493638Y-46521914D02*
X73461638Y-46521914D01*
X75493638Y-45651057D02*
X74332495Y-46304200D01*
X73461638Y-45651057D02*
X74622780Y-46521914D01*
X75493638Y-44997914D02*
X73461638Y-44997914D01*
X73461638Y-44489914D02*
X73461638Y-43619057D01*
X75493638Y-44054485D02*
X73461638Y-44054485D01*
D14*
X104067428Y-36715095D02*
X104115809Y-36569952D01*
X104164190Y-36521571D01*
X104260952Y-36473190D01*
X104406095Y-36473190D01*
X104502857Y-36521571D01*
X104551238Y-36569952D01*
X104599619Y-36666714D01*
X104599619Y-37053761D01*
X103583619Y-37053761D01*
X103583619Y-36715095D01*
X103632000Y-36618333D01*
X103680380Y-36569952D01*
X103777142Y-36521571D01*
X103873904Y-36521571D01*
X103970666Y-36569952D01*
X104019047Y-36618333D01*
X104067428Y-36715095D01*
X104067428Y-37053761D01*
X103922285Y-35602333D02*
X104599619Y-35602333D01*
X103535238Y-35844238D02*
X104260952Y-36086142D01*
X104260952Y-35457190D01*
X104067428Y-33957380D02*
X104115809Y-33812238D01*
X104164190Y-33763857D01*
X104260952Y-33715476D01*
X104406095Y-33715476D01*
X104502857Y-33763857D01*
X104551238Y-33812238D01*
X104599619Y-33909000D01*
X104599619Y-34296047D01*
X103583619Y-34296047D01*
X103583619Y-33957380D01*
X103632000Y-33860619D01*
X103680380Y-33812238D01*
X103777142Y-33763857D01*
X103873904Y-33763857D01*
X103970666Y-33812238D01*
X104019047Y-33860619D01*
X104067428Y-33957380D01*
X104067428Y-34296047D01*
X103583619Y-32796238D02*
X103583619Y-33280047D01*
X104067428Y-33328428D01*
X104019047Y-33280047D01*
X103970666Y-33183285D01*
X103970666Y-32941380D01*
X104019047Y-32844619D01*
X104067428Y-32796238D01*
X104164190Y-32747857D01*
X104406095Y-32747857D01*
X104502857Y-32796238D01*
X104551238Y-32844619D01*
X104599619Y-32941380D01*
X104599619Y-33183285D01*
X104551238Y-33280047D01*
X104502857Y-33328428D01*
X96979619Y-37053761D02*
X95963619Y-37053761D01*
X95963619Y-36811857D01*
X96012000Y-36666714D01*
X96108761Y-36569952D01*
X96205523Y-36521571D01*
X96399047Y-36473190D01*
X96544190Y-36473190D01*
X96737714Y-36521571D01*
X96834476Y-36569952D01*
X96931238Y-36666714D01*
X96979619Y-36811857D01*
X96979619Y-37053761D01*
X95963619Y-35844238D02*
X95963619Y-35747476D01*
X96012000Y-35650714D01*
X96060380Y-35602333D01*
X96157142Y-35553952D01*
X96350666Y-35505571D01*
X96592571Y-35505571D01*
X96786095Y-35553952D01*
X96882857Y-35602333D01*
X96931238Y-35650714D01*
X96979619Y-35747476D01*
X96979619Y-35844238D01*
X96931238Y-35941000D01*
X96882857Y-35989380D01*
X96786095Y-36037761D01*
X96592571Y-36086142D01*
X96350666Y-36086142D01*
X96157142Y-36037761D01*
X96060380Y-35989380D01*
X96012000Y-35941000D01*
X95963619Y-35844238D01*
X96979619Y-34296047D02*
X95963619Y-34296047D01*
X95963619Y-34054142D01*
X96012000Y-33909000D01*
X96108761Y-33812238D01*
X96205523Y-33763857D01*
X96399047Y-33715476D01*
X96544190Y-33715476D01*
X96737714Y-33763857D01*
X96834476Y-33812238D01*
X96931238Y-33909000D01*
X96979619Y-34054142D01*
X96979619Y-34296047D01*
X96979619Y-32747857D02*
X96979619Y-33328428D01*
X96979619Y-33038142D02*
X95963619Y-33038142D01*
X96108761Y-33134904D01*
X96205523Y-33231666D01*
X96253904Y-33328428D01*
X89359619Y-37053761D02*
X88343619Y-37053761D01*
X88343619Y-36811857D01*
X88392000Y-36666714D01*
X88488761Y-36569952D01*
X88585523Y-36521571D01*
X88779047Y-36473190D01*
X88924190Y-36473190D01*
X89117714Y-36521571D01*
X89214476Y-36569952D01*
X89311238Y-36666714D01*
X89359619Y-36811857D01*
X89359619Y-37053761D01*
X88343619Y-35602333D02*
X88343619Y-35795857D01*
X88392000Y-35892619D01*
X88440380Y-35941000D01*
X88585523Y-36037761D01*
X88779047Y-36086142D01*
X89166095Y-36086142D01*
X89262857Y-36037761D01*
X89311238Y-35989380D01*
X89359619Y-35892619D01*
X89359619Y-35699095D01*
X89311238Y-35602333D01*
X89262857Y-35553952D01*
X89166095Y-35505571D01*
X88924190Y-35505571D01*
X88827428Y-35553952D01*
X88779047Y-35602333D01*
X88730666Y-35699095D01*
X88730666Y-35892619D01*
X88779047Y-35989380D01*
X88827428Y-36037761D01*
X88924190Y-36086142D01*
X89359619Y-34296047D02*
X88343619Y-34296047D01*
X88343619Y-34054142D01*
X88392000Y-33909000D01*
X88488761Y-33812238D01*
X88585523Y-33763857D01*
X88779047Y-33715476D01*
X88924190Y-33715476D01*
X89117714Y-33763857D01*
X89214476Y-33812238D01*
X89311238Y-33909000D01*
X89359619Y-34054142D01*
X89359619Y-34296047D01*
X88343619Y-33376809D02*
X88343619Y-32699476D01*
X89359619Y-33134904D01*
X126806476Y-78183619D02*
X126322666Y-78183619D01*
X126274285Y-78667428D01*
X126322666Y-78619047D01*
X126419428Y-78570666D01*
X126661333Y-78570666D01*
X126758095Y-78619047D01*
X126806476Y-78667428D01*
X126854857Y-78764190D01*
X126854857Y-79006095D01*
X126806476Y-79102857D01*
X126758095Y-79151238D01*
X126661333Y-79199619D01*
X126419428Y-79199619D01*
X126322666Y-79151238D01*
X126274285Y-79102857D01*
X127145142Y-78183619D02*
X127483809Y-79199619D01*
X127822476Y-78183619D01*
X114227428Y-73145952D02*
X114227428Y-73484619D01*
X114759619Y-73484619D02*
X113743619Y-73484619D01*
X113743619Y-73000809D01*
X113743619Y-72178333D02*
X113743619Y-72371857D01*
X113792000Y-72468619D01*
X113840380Y-72517000D01*
X113985523Y-72613761D01*
X114179047Y-72662142D01*
X114566095Y-72662142D01*
X114662857Y-72613761D01*
X114711238Y-72565380D01*
X114759619Y-72468619D01*
X114759619Y-72275095D01*
X114711238Y-72178333D01*
X114662857Y-72129952D01*
X114566095Y-72081571D01*
X114324190Y-72081571D01*
X114227428Y-72129952D01*
X114179047Y-72178333D01*
X114130666Y-72275095D01*
X114130666Y-72468619D01*
X114179047Y-72565380D01*
X114227428Y-72613761D01*
X114324190Y-72662142D01*
X114227428Y-70533380D02*
X114227428Y-70872047D01*
X114759619Y-70872047D02*
X113743619Y-70872047D01*
X113743619Y-70388238D01*
X113743619Y-70097952D02*
X113743619Y-69420619D01*
X114759619Y-69856047D01*
X71579619Y-70938571D02*
X72402095Y-70938571D01*
X72498857Y-70890190D01*
X72547238Y-70841809D01*
X72595619Y-70745047D01*
X72595619Y-70551523D01*
X72547238Y-70454761D01*
X72498857Y-70406380D01*
X72402095Y-70358000D01*
X71579619Y-70358000D01*
X72305333Y-69922571D02*
X72305333Y-69438761D01*
X72595619Y-70019333D02*
X71579619Y-69680666D01*
X72595619Y-69342000D01*
X72595619Y-68422761D02*
X72111809Y-68761428D01*
X72595619Y-69003333D02*
X71579619Y-69003333D01*
X71579619Y-68616285D01*
X71628000Y-68519523D01*
X71676380Y-68471142D01*
X71773142Y-68422761D01*
X71918285Y-68422761D01*
X72015047Y-68471142D01*
X72063428Y-68519523D01*
X72111809Y-68616285D01*
X72111809Y-69003333D01*
X71579619Y-68132476D02*
X71579619Y-67551904D01*
X72595619Y-67842190D02*
X71579619Y-67842190D01*
X72595619Y-66681047D02*
X72595619Y-67261619D01*
X72595619Y-66971333D02*
X71579619Y-66971333D01*
X71724761Y-67068095D01*
X71821523Y-67164857D01*
X71869904Y-67261619D01*
X91802857Y-72922190D02*
X91851238Y-72970571D01*
X91899619Y-73115714D01*
X91899619Y-73212476D01*
X91851238Y-73357619D01*
X91754476Y-73454380D01*
X91657714Y-73502761D01*
X91464190Y-73551142D01*
X91319047Y-73551142D01*
X91125523Y-73502761D01*
X91028761Y-73454380D01*
X90932000Y-73357619D01*
X90883619Y-73212476D01*
X90883619Y-73115714D01*
X90932000Y-72970571D01*
X90980380Y-72922190D01*
X90980380Y-72535142D02*
X90932000Y-72486761D01*
X90883619Y-72390000D01*
X90883619Y-72148095D01*
X90932000Y-72051333D01*
X90980380Y-72002952D01*
X91077142Y-71954571D01*
X91173904Y-71954571D01*
X91319047Y-72002952D01*
X91899619Y-72583523D01*
X91899619Y-71954571D01*
X91802857Y-70164476D02*
X91851238Y-70212857D01*
X91899619Y-70358000D01*
X91899619Y-70454761D01*
X91851238Y-70599904D01*
X91754476Y-70696666D01*
X91657714Y-70745047D01*
X91464190Y-70793428D01*
X91319047Y-70793428D01*
X91125523Y-70745047D01*
X91028761Y-70696666D01*
X90932000Y-70599904D01*
X90883619Y-70454761D01*
X90883619Y-70358000D01*
X90932000Y-70212857D01*
X90980380Y-70164476D01*
X90883619Y-69825809D02*
X90883619Y-69196857D01*
X91270666Y-69535523D01*
X91270666Y-69390380D01*
X91319047Y-69293619D01*
X91367428Y-69245238D01*
X91464190Y-69196857D01*
X91706095Y-69196857D01*
X91802857Y-69245238D01*
X91851238Y-69293619D01*
X91899619Y-69390380D01*
X91899619Y-69680666D01*
X91851238Y-69777428D01*
X91802857Y-69825809D01*
X94342857Y-72922190D02*
X94391238Y-72970571D01*
X94439619Y-73115714D01*
X94439619Y-73212476D01*
X94391238Y-73357619D01*
X94294476Y-73454380D01*
X94197714Y-73502761D01*
X94004190Y-73551142D01*
X93859047Y-73551142D01*
X93665523Y-73502761D01*
X93568761Y-73454380D01*
X93472000Y-73357619D01*
X93423619Y-73212476D01*
X93423619Y-73115714D01*
X93472000Y-72970571D01*
X93520380Y-72922190D01*
X93762285Y-72051333D02*
X94439619Y-72051333D01*
X93375238Y-72293238D02*
X94100952Y-72535142D01*
X94100952Y-71906190D01*
X94342857Y-70164476D02*
X94391238Y-70212857D01*
X94439619Y-70358000D01*
X94439619Y-70454761D01*
X94391238Y-70599904D01*
X94294476Y-70696666D01*
X94197714Y-70745047D01*
X94004190Y-70793428D01*
X93859047Y-70793428D01*
X93665523Y-70745047D01*
X93568761Y-70696666D01*
X93472000Y-70599904D01*
X93423619Y-70454761D01*
X93423619Y-70358000D01*
X93472000Y-70212857D01*
X93520380Y-70164476D01*
X93423619Y-69245238D02*
X93423619Y-69729047D01*
X93907428Y-69777428D01*
X93859047Y-69729047D01*
X93810666Y-69632285D01*
X93810666Y-69390380D01*
X93859047Y-69293619D01*
X93907428Y-69245238D01*
X94004190Y-69196857D01*
X94246095Y-69196857D01*
X94342857Y-69245238D01*
X94391238Y-69293619D01*
X94439619Y-69390380D01*
X94439619Y-69632285D01*
X94391238Y-69729047D01*
X94342857Y-69777428D01*
X121847428Y-73145952D02*
X121847428Y-73484619D01*
X122379619Y-73484619D02*
X121363619Y-73484619D01*
X121363619Y-73000809D01*
X121363619Y-72420238D02*
X121363619Y-72323476D01*
X121412000Y-72226714D01*
X121460380Y-72178333D01*
X121557142Y-72129952D01*
X121750666Y-72081571D01*
X121992571Y-72081571D01*
X122186095Y-72129952D01*
X122282857Y-72178333D01*
X122331238Y-72226714D01*
X122379619Y-72323476D01*
X122379619Y-72420238D01*
X122331238Y-72517000D01*
X122282857Y-72565380D01*
X122186095Y-72613761D01*
X121992571Y-72662142D01*
X121750666Y-72662142D01*
X121557142Y-72613761D01*
X121460380Y-72565380D01*
X121412000Y-72517000D01*
X121363619Y-72420238D01*
X121847428Y-70533380D02*
X121847428Y-70872047D01*
X122379619Y-70872047D02*
X121363619Y-70872047D01*
X121363619Y-70388238D01*
X122379619Y-69469000D02*
X122379619Y-70049571D01*
X122379619Y-69759285D02*
X121363619Y-69759285D01*
X121508761Y-69856047D01*
X121605523Y-69952809D01*
X121653904Y-70049571D01*
X127136676Y-30914219D02*
X126652866Y-30914219D01*
X126604485Y-31398028D01*
X126652866Y-31349647D01*
X126749628Y-31301266D01*
X126991533Y-31301266D01*
X127088295Y-31349647D01*
X127136676Y-31398028D01*
X127185057Y-31494790D01*
X127185057Y-31736695D01*
X127136676Y-31833457D01*
X127088295Y-31881838D01*
X126991533Y-31930219D01*
X126749628Y-31930219D01*
X126652866Y-31881838D01*
X126604485Y-31833457D01*
X127475342Y-30914219D02*
X127814009Y-31930219D01*
X128152676Y-30914219D01*
X91899619Y-37053761D02*
X90883619Y-37053761D01*
X90883619Y-36811857D01*
X90932000Y-36666714D01*
X91028761Y-36569952D01*
X91125523Y-36521571D01*
X91319047Y-36473190D01*
X91464190Y-36473190D01*
X91657714Y-36521571D01*
X91754476Y-36569952D01*
X91851238Y-36666714D01*
X91899619Y-36811857D01*
X91899619Y-37053761D01*
X91222285Y-35602333D02*
X91899619Y-35602333D01*
X90835238Y-35844238D02*
X91560952Y-36086142D01*
X91560952Y-35457190D01*
X91899619Y-34296047D02*
X90883619Y-34296047D01*
X90883619Y-34054142D01*
X90932000Y-33909000D01*
X91028761Y-33812238D01*
X91125523Y-33763857D01*
X91319047Y-33715476D01*
X91464190Y-33715476D01*
X91657714Y-33763857D01*
X91754476Y-33812238D01*
X91851238Y-33909000D01*
X91899619Y-34054142D01*
X91899619Y-34296047D01*
X90883619Y-32796238D02*
X90883619Y-33280047D01*
X91367428Y-33328428D01*
X91319047Y-33280047D01*
X91270666Y-33183285D01*
X91270666Y-32941380D01*
X91319047Y-32844619D01*
X91367428Y-32796238D01*
X91464190Y-32747857D01*
X91706095Y-32747857D01*
X91802857Y-32796238D01*
X91851238Y-32844619D01*
X91899619Y-32941380D01*
X91899619Y-33183285D01*
X91851238Y-33280047D01*
X91802857Y-33328428D01*
X104309333Y-73406000D02*
X104309333Y-72922190D01*
X104599619Y-73502761D02*
X103583619Y-73164095D01*
X104599619Y-72825428D01*
X103922285Y-72051333D02*
X104599619Y-72051333D01*
X103535238Y-72293238D02*
X104260952Y-72535142D01*
X104260952Y-71906190D01*
X104309333Y-70793428D02*
X104309333Y-70309619D01*
X104599619Y-70890190D02*
X103583619Y-70551523D01*
X104599619Y-70212857D01*
X103583619Y-69390380D02*
X103583619Y-69874190D01*
X104067428Y-69922571D01*
X104019047Y-69874190D01*
X103970666Y-69777428D01*
X103970666Y-69535523D01*
X104019047Y-69438761D01*
X104067428Y-69390380D01*
X104164190Y-69342000D01*
X104406095Y-69342000D01*
X104502857Y-69390380D01*
X104551238Y-69438761D01*
X104599619Y-69535523D01*
X104599619Y-69777428D01*
X104551238Y-69874190D01*
X104502857Y-69922571D01*
X98503619Y-73248761D02*
X98503619Y-73732571D01*
X98987428Y-73780952D01*
X98939047Y-73732571D01*
X98890666Y-73635809D01*
X98890666Y-73393904D01*
X98939047Y-73297142D01*
X98987428Y-73248761D01*
X99084190Y-73200380D01*
X99326095Y-73200380D01*
X99422857Y-73248761D01*
X99471238Y-73297142D01*
X99519619Y-73393904D01*
X99519619Y-73635809D01*
X99471238Y-73732571D01*
X99422857Y-73780952D01*
X98503619Y-72910095D02*
X99519619Y-72571428D01*
X98503619Y-72232761D01*
X98552000Y-70587809D02*
X98503619Y-70684571D01*
X98503619Y-70829714D01*
X98552000Y-70974857D01*
X98648761Y-71071619D01*
X98745523Y-71120000D01*
X98939047Y-71168380D01*
X99084190Y-71168380D01*
X99277714Y-71120000D01*
X99374476Y-71071619D01*
X99471238Y-70974857D01*
X99519619Y-70829714D01*
X99519619Y-70732952D01*
X99471238Y-70587809D01*
X99422857Y-70539428D01*
X99084190Y-70539428D01*
X99084190Y-70732952D01*
X99519619Y-70104000D02*
X98503619Y-70104000D01*
X99519619Y-69523428D01*
X98503619Y-69523428D01*
X99519619Y-69039619D02*
X98503619Y-69039619D01*
X98503619Y-68797714D01*
X98552000Y-68652571D01*
X98648761Y-68555809D01*
X98745523Y-68507428D01*
X98939047Y-68459047D01*
X99084190Y-68459047D01*
X99277714Y-68507428D01*
X99374476Y-68555809D01*
X99471238Y-68652571D01*
X99519619Y-68797714D01*
X99519619Y-69039619D01*
X101769333Y-73406000D02*
X101769333Y-72922190D01*
X102059619Y-73502761D02*
X101043619Y-73164095D01*
X102059619Y-72825428D01*
X101043619Y-72051333D02*
X101043619Y-72244857D01*
X101092000Y-72341619D01*
X101140380Y-72390000D01*
X101285523Y-72486761D01*
X101479047Y-72535142D01*
X101866095Y-72535142D01*
X101962857Y-72486761D01*
X102011238Y-72438380D01*
X102059619Y-72341619D01*
X102059619Y-72148095D01*
X102011238Y-72051333D01*
X101962857Y-72002952D01*
X101866095Y-71954571D01*
X101624190Y-71954571D01*
X101527428Y-72002952D01*
X101479047Y-72051333D01*
X101430666Y-72148095D01*
X101430666Y-72341619D01*
X101479047Y-72438380D01*
X101527428Y-72486761D01*
X101624190Y-72535142D01*
X101769333Y-70793428D02*
X101769333Y-70309619D01*
X102059619Y-70890190D02*
X101043619Y-70551523D01*
X102059619Y-70212857D01*
X101043619Y-69970952D02*
X101043619Y-69293619D01*
X102059619Y-69729047D01*
X89262857Y-72922190D02*
X89311238Y-72970571D01*
X89359619Y-73115714D01*
X89359619Y-73212476D01*
X89311238Y-73357619D01*
X89214476Y-73454380D01*
X89117714Y-73502761D01*
X88924190Y-73551142D01*
X88779047Y-73551142D01*
X88585523Y-73502761D01*
X88488761Y-73454380D01*
X88392000Y-73357619D01*
X88343619Y-73212476D01*
X88343619Y-73115714D01*
X88392000Y-72970571D01*
X88440380Y-72922190D01*
X88343619Y-72293238D02*
X88343619Y-72196476D01*
X88392000Y-72099714D01*
X88440380Y-72051333D01*
X88537142Y-72002952D01*
X88730666Y-71954571D01*
X88972571Y-71954571D01*
X89166095Y-72002952D01*
X89262857Y-72051333D01*
X89311238Y-72099714D01*
X89359619Y-72196476D01*
X89359619Y-72293238D01*
X89311238Y-72390000D01*
X89262857Y-72438380D01*
X89166095Y-72486761D01*
X88972571Y-72535142D01*
X88730666Y-72535142D01*
X88537142Y-72486761D01*
X88440380Y-72438380D01*
X88392000Y-72390000D01*
X88343619Y-72293238D01*
X89262857Y-70164476D02*
X89311238Y-70212857D01*
X89359619Y-70358000D01*
X89359619Y-70454761D01*
X89311238Y-70599904D01*
X89214476Y-70696666D01*
X89117714Y-70745047D01*
X88924190Y-70793428D01*
X88779047Y-70793428D01*
X88585523Y-70745047D01*
X88488761Y-70696666D01*
X88392000Y-70599904D01*
X88343619Y-70454761D01*
X88343619Y-70358000D01*
X88392000Y-70212857D01*
X88440380Y-70164476D01*
X89359619Y-69196857D02*
X89359619Y-69777428D01*
X89359619Y-69487142D02*
X88343619Y-69487142D01*
X88488761Y-69583904D01*
X88585523Y-69680666D01*
X88633904Y-69777428D01*
X78196923Y-60487076D02*
X76926923Y-60487076D01*
X76926923Y-60245171D01*
X76987400Y-60100028D01*
X77108352Y-60003266D01*
X77229304Y-59954885D01*
X77471209Y-59906504D01*
X77652638Y-59906504D01*
X77894542Y-59954885D01*
X78015495Y-60003266D01*
X78136447Y-60100028D01*
X78196923Y-60245171D01*
X78196923Y-60487076D01*
X78136447Y-59084028D02*
X78196923Y-59180790D01*
X78196923Y-59374314D01*
X78136447Y-59471076D01*
X78015495Y-59519457D01*
X77531685Y-59519457D01*
X77410733Y-59471076D01*
X77350257Y-59374314D01*
X77350257Y-59180790D01*
X77410733Y-59084028D01*
X77531685Y-59035647D01*
X77652638Y-59035647D01*
X77773590Y-59519457D01*
X78136447Y-58648600D02*
X78196923Y-58551838D01*
X78196923Y-58358314D01*
X78136447Y-58261552D01*
X78015495Y-58213171D01*
X77955019Y-58213171D01*
X77834066Y-58261552D01*
X77773590Y-58358314D01*
X77773590Y-58503457D01*
X77713114Y-58600219D01*
X77592161Y-58648600D01*
X77531685Y-58648600D01*
X77410733Y-58600219D01*
X77350257Y-58503457D01*
X77350257Y-58358314D01*
X77410733Y-58261552D01*
X78196923Y-57777742D02*
X77350257Y-57777742D01*
X76926923Y-57777742D02*
X76987400Y-57826123D01*
X77047876Y-57777742D01*
X76987400Y-57729361D01*
X76926923Y-57777742D01*
X77047876Y-57777742D01*
X77350257Y-56858504D02*
X78378352Y-56858504D01*
X78499304Y-56906885D01*
X78559780Y-56955266D01*
X78620257Y-57052028D01*
X78620257Y-57197171D01*
X78559780Y-57293933D01*
X78136447Y-56858504D02*
X78196923Y-56955266D01*
X78196923Y-57148790D01*
X78136447Y-57245552D01*
X78075971Y-57293933D01*
X77955019Y-57342314D01*
X77592161Y-57342314D01*
X77471209Y-57293933D01*
X77410733Y-57245552D01*
X77350257Y-57148790D01*
X77350257Y-56955266D01*
X77410733Y-56858504D01*
X77350257Y-56374695D02*
X78196923Y-56374695D01*
X77471209Y-56374695D02*
X77410733Y-56326314D01*
X77350257Y-56229552D01*
X77350257Y-56084409D01*
X77410733Y-55987647D01*
X77531685Y-55939266D01*
X78196923Y-55939266D01*
X78136447Y-55068409D02*
X78196923Y-55165171D01*
X78196923Y-55358695D01*
X78136447Y-55455457D01*
X78015495Y-55503838D01*
X77531685Y-55503838D01*
X77410733Y-55455457D01*
X77350257Y-55358695D01*
X77350257Y-55165171D01*
X77410733Y-55068409D01*
X77531685Y-55020028D01*
X77652638Y-55020028D01*
X77773590Y-55503838D01*
X78196923Y-54149171D02*
X76926923Y-54149171D01*
X78136447Y-54149171D02*
X78196923Y-54245933D01*
X78196923Y-54439457D01*
X78136447Y-54536219D01*
X78075971Y-54584600D01*
X77955019Y-54632980D01*
X77592161Y-54632980D01*
X77471209Y-54584600D01*
X77410733Y-54536219D01*
X77350257Y-54439457D01*
X77350257Y-54245933D01*
X77410733Y-54149171D01*
X78196923Y-52891266D02*
X76926923Y-52891266D01*
X77410733Y-52891266D02*
X77350257Y-52794504D01*
X77350257Y-52600980D01*
X77410733Y-52504219D01*
X77471209Y-52455838D01*
X77592161Y-52407457D01*
X77955019Y-52407457D01*
X78075971Y-52455838D01*
X78136447Y-52504219D01*
X78196923Y-52600980D01*
X78196923Y-52794504D01*
X78136447Y-52891266D01*
X77350257Y-52068790D02*
X78196923Y-51826885D01*
X77350257Y-51584980D02*
X78196923Y-51826885D01*
X78499304Y-51923647D01*
X78559780Y-51972028D01*
X78620257Y-52068790D01*
X78196923Y-50423838D02*
X76926923Y-50423838D01*
X76926923Y-50181933D01*
X76987400Y-50036790D01*
X77108352Y-49940028D01*
X77229304Y-49891647D01*
X77471209Y-49843266D01*
X77652638Y-49843266D01*
X77894542Y-49891647D01*
X78015495Y-49940028D01*
X78136447Y-50036790D01*
X78196923Y-50181933D01*
X78196923Y-50423838D01*
X78196923Y-49407838D02*
X76926923Y-49407838D01*
X76926923Y-49020790D01*
X76987400Y-48924028D01*
X77047876Y-48875647D01*
X77168828Y-48827266D01*
X77350257Y-48827266D01*
X77471209Y-48875647D01*
X77531685Y-48924028D01*
X77592161Y-49020790D01*
X77592161Y-49407838D01*
X77531685Y-48391838D02*
X77531685Y-48053171D01*
X78196923Y-47908028D02*
X78196923Y-48391838D01*
X76926923Y-48391838D01*
X76926923Y-47908028D01*
X77531685Y-47472600D02*
X77531685Y-47133933D01*
X78196923Y-46988790D02*
X78196923Y-47472600D01*
X76926923Y-47472600D01*
X76926923Y-46988790D01*
X78196923Y-45295457D02*
X78196923Y-45779266D01*
X76926923Y-45779266D01*
X78196923Y-44521361D02*
X77531685Y-44521361D01*
X77410733Y-44569742D01*
X77350257Y-44666504D01*
X77350257Y-44860028D01*
X77410733Y-44956790D01*
X78136447Y-44521361D02*
X78196923Y-44618123D01*
X78196923Y-44860028D01*
X78136447Y-44956790D01*
X78015495Y-45005171D01*
X77894542Y-45005171D01*
X77773590Y-44956790D01*
X77713114Y-44860028D01*
X77713114Y-44618123D01*
X77652638Y-44521361D01*
X78196923Y-44037552D02*
X76926923Y-44037552D01*
X77410733Y-44037552D02*
X77350257Y-43940790D01*
X77350257Y-43747266D01*
X77410733Y-43650504D01*
X77471209Y-43602123D01*
X77592161Y-43553742D01*
X77955019Y-43553742D01*
X78075971Y-43602123D01*
X78136447Y-43650504D01*
X78196923Y-43747266D01*
X78196923Y-43940790D01*
X78136447Y-44037552D01*
X111203619Y-73248761D02*
X111203619Y-73732571D01*
X111687428Y-73780952D01*
X111639047Y-73732571D01*
X111590666Y-73635809D01*
X111590666Y-73393904D01*
X111639047Y-73297142D01*
X111687428Y-73248761D01*
X111784190Y-73200380D01*
X112026095Y-73200380D01*
X112122857Y-73248761D01*
X112171238Y-73297142D01*
X112219619Y-73393904D01*
X112219619Y-73635809D01*
X112171238Y-73732571D01*
X112122857Y-73780952D01*
X111203619Y-72910095D02*
X112219619Y-72571428D01*
X111203619Y-72232761D01*
X111252000Y-70587809D02*
X111203619Y-70684571D01*
X111203619Y-70829714D01*
X111252000Y-70974857D01*
X111348761Y-71071619D01*
X111445523Y-71120000D01*
X111639047Y-71168380D01*
X111784190Y-71168380D01*
X111977714Y-71120000D01*
X112074476Y-71071619D01*
X112171238Y-70974857D01*
X112219619Y-70829714D01*
X112219619Y-70732952D01*
X112171238Y-70587809D01*
X112122857Y-70539428D01*
X111784190Y-70539428D01*
X111784190Y-70732952D01*
X112219619Y-70104000D02*
X111203619Y-70104000D01*
X112219619Y-69523428D01*
X111203619Y-69523428D01*
X112219619Y-69039619D02*
X111203619Y-69039619D01*
X111203619Y-68797714D01*
X111252000Y-68652571D01*
X111348761Y-68555809D01*
X111445523Y-68507428D01*
X111639047Y-68459047D01*
X111784190Y-68459047D01*
X111977714Y-68507428D01*
X112074476Y-68555809D01*
X112171238Y-68652571D01*
X112219619Y-68797714D01*
X112219619Y-69039619D01*
X109389333Y-73406000D02*
X109389333Y-72922190D01*
X109679619Y-73502761D02*
X108663619Y-73164095D01*
X109679619Y-72825428D01*
X108663619Y-72293238D02*
X108663619Y-72196476D01*
X108712000Y-72099714D01*
X108760380Y-72051333D01*
X108857142Y-72002952D01*
X109050666Y-71954571D01*
X109292571Y-71954571D01*
X109486095Y-72002952D01*
X109582857Y-72051333D01*
X109631238Y-72099714D01*
X109679619Y-72196476D01*
X109679619Y-72293238D01*
X109631238Y-72390000D01*
X109582857Y-72438380D01*
X109486095Y-72486761D01*
X109292571Y-72535142D01*
X109050666Y-72535142D01*
X108857142Y-72486761D01*
X108760380Y-72438380D01*
X108712000Y-72390000D01*
X108663619Y-72293238D01*
X109389333Y-70793428D02*
X109389333Y-70309619D01*
X109679619Y-70890190D02*
X108663619Y-70551523D01*
X109679619Y-70212857D01*
X109679619Y-69342000D02*
X109679619Y-69922571D01*
X109679619Y-69632285D02*
X108663619Y-69632285D01*
X108808761Y-69729047D01*
X108905523Y-69825809D01*
X108953904Y-69922571D01*
X126673428Y-75692000D02*
X126600857Y-75643619D01*
X126492000Y-75643619D01*
X126383142Y-75692000D01*
X126310571Y-75788761D01*
X126274285Y-75885523D01*
X126238000Y-76079047D01*
X126238000Y-76224190D01*
X126274285Y-76417714D01*
X126310571Y-76514476D01*
X126383142Y-76611238D01*
X126492000Y-76659619D01*
X126564571Y-76659619D01*
X126673428Y-76611238D01*
X126709714Y-76562857D01*
X126709714Y-76224190D01*
X126564571Y-76224190D01*
X127036285Y-76659619D02*
X127036285Y-75643619D01*
X127471714Y-76659619D01*
X127471714Y-75643619D01*
X127834571Y-76659619D02*
X127834571Y-75643619D01*
X128016000Y-75643619D01*
X128124857Y-75692000D01*
X128197428Y-75788761D01*
X128233714Y-75885523D01*
X128270000Y-76079047D01*
X128270000Y-76224190D01*
X128233714Y-76417714D01*
X128197428Y-76514476D01*
X128124857Y-76611238D01*
X128016000Y-76659619D01*
X127834571Y-76659619D01*
X106849333Y-73406000D02*
X106849333Y-72922190D01*
X107139619Y-73502761D02*
X106123619Y-73164095D01*
X107139619Y-72825428D01*
X106220380Y-72535142D02*
X106172000Y-72486761D01*
X106123619Y-72390000D01*
X106123619Y-72148095D01*
X106172000Y-72051333D01*
X106220380Y-72002952D01*
X106317142Y-71954571D01*
X106413904Y-71954571D01*
X106559047Y-72002952D01*
X107139619Y-72583523D01*
X107139619Y-71954571D01*
X106849333Y-70793428D02*
X106849333Y-70309619D01*
X107139619Y-70890190D02*
X106123619Y-70551523D01*
X107139619Y-70212857D01*
X106123619Y-69970952D02*
X106123619Y-69342000D01*
X106510666Y-69680666D01*
X106510666Y-69535523D01*
X106559047Y-69438761D01*
X106607428Y-69390380D01*
X106704190Y-69342000D01*
X106946095Y-69342000D01*
X107042857Y-69390380D01*
X107091238Y-69438761D01*
X107139619Y-69535523D01*
X107139619Y-69825809D01*
X107091238Y-69922571D01*
X107042857Y-69970952D01*
X109147428Y-36715095D02*
X109195809Y-36569952D01*
X109244190Y-36521571D01*
X109340952Y-36473190D01*
X109486095Y-36473190D01*
X109582857Y-36521571D01*
X109631238Y-36569952D01*
X109679619Y-36666714D01*
X109679619Y-37053761D01*
X108663619Y-37053761D01*
X108663619Y-36715095D01*
X108712000Y-36618333D01*
X108760380Y-36569952D01*
X108857142Y-36521571D01*
X108953904Y-36521571D01*
X109050666Y-36569952D01*
X109099047Y-36618333D01*
X109147428Y-36715095D01*
X109147428Y-37053761D01*
X108663619Y-35844238D02*
X108663619Y-35747476D01*
X108712000Y-35650714D01*
X108760380Y-35602333D01*
X108857142Y-35553952D01*
X109050666Y-35505571D01*
X109292571Y-35505571D01*
X109486095Y-35553952D01*
X109582857Y-35602333D01*
X109631238Y-35650714D01*
X109679619Y-35747476D01*
X109679619Y-35844238D01*
X109631238Y-35941000D01*
X109582857Y-35989380D01*
X109486095Y-36037761D01*
X109292571Y-36086142D01*
X109050666Y-36086142D01*
X108857142Y-36037761D01*
X108760380Y-35989380D01*
X108712000Y-35941000D01*
X108663619Y-35844238D01*
X109147428Y-33957380D02*
X109195809Y-33812238D01*
X109244190Y-33763857D01*
X109340952Y-33715476D01*
X109486095Y-33715476D01*
X109582857Y-33763857D01*
X109631238Y-33812238D01*
X109679619Y-33909000D01*
X109679619Y-34296047D01*
X108663619Y-34296047D01*
X108663619Y-33957380D01*
X108712000Y-33860619D01*
X108760380Y-33812238D01*
X108857142Y-33763857D01*
X108953904Y-33763857D01*
X109050666Y-33812238D01*
X109099047Y-33860619D01*
X109147428Y-33957380D01*
X109147428Y-34296047D01*
X109679619Y-32747857D02*
X109679619Y-33328428D01*
X109679619Y-33038142D02*
X108663619Y-33038142D01*
X108808761Y-33134904D01*
X108905523Y-33231666D01*
X108953904Y-33328428D01*
X86133819Y-73248761D02*
X86133819Y-73732571D01*
X86617628Y-73780952D01*
X86569247Y-73732571D01*
X86520866Y-73635809D01*
X86520866Y-73393904D01*
X86569247Y-73297142D01*
X86617628Y-73248761D01*
X86714390Y-73200380D01*
X86956295Y-73200380D01*
X87053057Y-73248761D01*
X87101438Y-73297142D01*
X87149819Y-73393904D01*
X87149819Y-73635809D01*
X87101438Y-73732571D01*
X87053057Y-73780952D01*
X86133819Y-72910095D02*
X87149819Y-72571428D01*
X86133819Y-72232761D01*
X86182200Y-70587809D02*
X86133819Y-70684571D01*
X86133819Y-70829714D01*
X86182200Y-70974857D01*
X86278961Y-71071619D01*
X86375723Y-71120000D01*
X86569247Y-71168380D01*
X86714390Y-71168380D01*
X86907914Y-71120000D01*
X87004676Y-71071619D01*
X87101438Y-70974857D01*
X87149819Y-70829714D01*
X87149819Y-70732952D01*
X87101438Y-70587809D01*
X87053057Y-70539428D01*
X86714390Y-70539428D01*
X86714390Y-70732952D01*
X87149819Y-70104000D02*
X86133819Y-70104000D01*
X87149819Y-69523428D01*
X86133819Y-69523428D01*
X87149819Y-69039619D02*
X86133819Y-69039619D01*
X86133819Y-68797714D01*
X86182200Y-68652571D01*
X86278961Y-68555809D01*
X86375723Y-68507428D01*
X86569247Y-68459047D01*
X86714390Y-68459047D01*
X86907914Y-68507428D01*
X87004676Y-68555809D01*
X87101438Y-68652571D01*
X87149819Y-68797714D01*
X87149819Y-69039619D01*
X98503619Y-37053761D02*
X98503619Y-37537571D01*
X98987428Y-37585952D01*
X98939047Y-37537571D01*
X98890666Y-37440809D01*
X98890666Y-37198904D01*
X98939047Y-37102142D01*
X98987428Y-37053761D01*
X99084190Y-37005380D01*
X99326095Y-37005380D01*
X99422857Y-37053761D01*
X99471238Y-37102142D01*
X99519619Y-37198904D01*
X99519619Y-37440809D01*
X99471238Y-37537571D01*
X99422857Y-37585952D01*
X98503619Y-36715095D02*
X99519619Y-36376428D01*
X98503619Y-36037761D01*
X98552000Y-34392809D02*
X98503619Y-34489571D01*
X98503619Y-34634714D01*
X98552000Y-34779857D01*
X98648761Y-34876619D01*
X98745523Y-34925000D01*
X98939047Y-34973380D01*
X99084190Y-34973380D01*
X99277714Y-34925000D01*
X99374476Y-34876619D01*
X99471238Y-34779857D01*
X99519619Y-34634714D01*
X99519619Y-34537952D01*
X99471238Y-34392809D01*
X99422857Y-34344428D01*
X99084190Y-34344428D01*
X99084190Y-34537952D01*
X99519619Y-33909000D02*
X98503619Y-33909000D01*
X99519619Y-33328428D01*
X98503619Y-33328428D01*
X99519619Y-32844619D02*
X98503619Y-32844619D01*
X98503619Y-32602714D01*
X98552000Y-32457571D01*
X98648761Y-32360809D01*
X98745523Y-32312428D01*
X98939047Y-32264047D01*
X99084190Y-32264047D01*
X99277714Y-32312428D01*
X99374476Y-32360809D01*
X99471238Y-32457571D01*
X99519619Y-32602714D01*
X99519619Y-32844619D01*
X106607428Y-36715095D02*
X106655809Y-36569952D01*
X106704190Y-36521571D01*
X106800952Y-36473190D01*
X106946095Y-36473190D01*
X107042857Y-36521571D01*
X107091238Y-36569952D01*
X107139619Y-36666714D01*
X107139619Y-37053761D01*
X106123619Y-37053761D01*
X106123619Y-36715095D01*
X106172000Y-36618333D01*
X106220380Y-36569952D01*
X106317142Y-36521571D01*
X106413904Y-36521571D01*
X106510666Y-36569952D01*
X106559047Y-36618333D01*
X106607428Y-36715095D01*
X106607428Y-37053761D01*
X106220380Y-36086142D02*
X106172000Y-36037761D01*
X106123619Y-35941000D01*
X106123619Y-35699095D01*
X106172000Y-35602333D01*
X106220380Y-35553952D01*
X106317142Y-35505571D01*
X106413904Y-35505571D01*
X106559047Y-35553952D01*
X107139619Y-36134523D01*
X107139619Y-35505571D01*
X106607428Y-33957380D02*
X106655809Y-33812238D01*
X106704190Y-33763857D01*
X106800952Y-33715476D01*
X106946095Y-33715476D01*
X107042857Y-33763857D01*
X107091238Y-33812238D01*
X107139619Y-33909000D01*
X107139619Y-34296047D01*
X106123619Y-34296047D01*
X106123619Y-33957380D01*
X106172000Y-33860619D01*
X106220380Y-33812238D01*
X106317142Y-33763857D01*
X106413904Y-33763857D01*
X106510666Y-33812238D01*
X106559047Y-33860619D01*
X106607428Y-33957380D01*
X106607428Y-34296047D01*
X106123619Y-33376809D02*
X106123619Y-32747857D01*
X106510666Y-33086523D01*
X106510666Y-32941380D01*
X106559047Y-32844619D01*
X106607428Y-32796238D01*
X106704190Y-32747857D01*
X106946095Y-32747857D01*
X107042857Y-32796238D01*
X107091238Y-32844619D01*
X107139619Y-32941380D01*
X107139619Y-33231666D01*
X107091238Y-33328428D01*
X107042857Y-33376809D01*
D11*
%TO.C,R11*%
X85717142Y-63774580D02*
X85383809Y-63298390D01*
X85145714Y-63774580D02*
X85145714Y-62774580D01*
X85526666Y-62774580D01*
X85621904Y-62822200D01*
X85669523Y-62869819D01*
X85717142Y-62965057D01*
X85717142Y-63107914D01*
X85669523Y-63203152D01*
X85621904Y-63250771D01*
X85526666Y-63298390D01*
X85145714Y-63298390D01*
X86669523Y-63774580D02*
X86098095Y-63774580D01*
X86383809Y-63774580D02*
X86383809Y-62774580D01*
X86288571Y-62917438D01*
X86193333Y-63012676D01*
X86098095Y-63060295D01*
X87621904Y-63774580D02*
X87050476Y-63774580D01*
X87336190Y-63774580D02*
X87336190Y-62774580D01*
X87240952Y-62917438D01*
X87145714Y-63012676D01*
X87050476Y-63060295D01*
%TO.C,D8*%
X85166438Y-60767980D02*
X85737866Y-60767980D01*
X85452152Y-61767980D02*
X85452152Y-60767980D01*
X86071200Y-61767980D02*
X86071200Y-60767980D01*
X86642628Y-61767980D01*
X86642628Y-60767980D01*
X87309295Y-60767980D02*
X87499771Y-60767980D01*
X87595009Y-60815600D01*
X87690247Y-60910838D01*
X87737866Y-61101314D01*
X87737866Y-61434647D01*
X87690247Y-61625123D01*
X87595009Y-61720361D01*
X87499771Y-61767980D01*
X87309295Y-61767980D01*
X87214057Y-61720361D01*
X87118819Y-61625123D01*
X87071200Y-61434647D01*
X87071200Y-61101314D01*
X87118819Y-60910838D01*
X87214057Y-60815600D01*
X87309295Y-60767980D01*
X88071200Y-60767980D02*
X88309295Y-61767980D01*
X88499771Y-61053695D01*
X88690247Y-61767980D01*
X88928342Y-60767980D01*
%TO.C,R4*%
X111618733Y-37129980D02*
X111285400Y-36653790D01*
X111047304Y-37129980D02*
X111047304Y-36129980D01*
X111428257Y-36129980D01*
X111523495Y-36177600D01*
X111571114Y-36225219D01*
X111618733Y-36320457D01*
X111618733Y-36463314D01*
X111571114Y-36558552D01*
X111523495Y-36606171D01*
X111428257Y-36653790D01*
X111047304Y-36653790D01*
X112475876Y-36463314D02*
X112475876Y-37129980D01*
X112237780Y-36082361D02*
X111999685Y-36796647D01*
X112618733Y-36796647D01*
%TO.C,TP1*%
X70466857Y-36285714D02*
X70104000Y-36285714D01*
X70067714Y-36648571D01*
X70104000Y-36612285D01*
X70176571Y-36576000D01*
X70358000Y-36576000D01*
X70430571Y-36612285D01*
X70466857Y-36648571D01*
X70503142Y-36721142D01*
X70503142Y-36902571D01*
X70466857Y-36975142D01*
X70430571Y-37011428D01*
X70358000Y-37047714D01*
X70176571Y-37047714D01*
X70104000Y-37011428D01*
X70067714Y-36975142D01*
X70720857Y-36285714D02*
X70974857Y-37047714D01*
X71228857Y-36285714D01*
D12*
%TO.C,J4*%
X119141723Y-64104761D02*
X117871723Y-64104761D01*
X119081247Y-63560476D02*
X119141723Y-63379047D01*
X119141723Y-63076666D01*
X119081247Y-62955714D01*
X119020771Y-62895238D01*
X118899819Y-62834761D01*
X118778866Y-62834761D01*
X118657914Y-62895238D01*
X118597438Y-62955714D01*
X118536961Y-63076666D01*
X118476485Y-63318571D01*
X118416009Y-63439523D01*
X118355533Y-63500000D01*
X118234580Y-63560476D01*
X118113628Y-63560476D01*
X117992676Y-63500000D01*
X117932200Y-63439523D01*
X117871723Y-63318571D01*
X117871723Y-63016190D01*
X117932200Y-62834761D01*
X119141723Y-62290476D02*
X117871723Y-62290476D01*
X117871723Y-61806666D01*
X117932200Y-61685714D01*
X117992676Y-61625238D01*
X118113628Y-61564761D01*
X118295057Y-61564761D01*
X118416009Y-61625238D01*
X118476485Y-61685714D01*
X118536961Y-61806666D01*
X118536961Y-62290476D01*
D11*
%TO.C,C6*%
X116825733Y-58904142D02*
X116778114Y-58951761D01*
X116635257Y-58999380D01*
X116540019Y-58999380D01*
X116397161Y-58951761D01*
X116301923Y-58856523D01*
X116254304Y-58761285D01*
X116206685Y-58570809D01*
X116206685Y-58427952D01*
X116254304Y-58237476D01*
X116301923Y-58142238D01*
X116397161Y-58047000D01*
X116540019Y-57999380D01*
X116635257Y-57999380D01*
X116778114Y-58047000D01*
X116825733Y-58094619D01*
X117682876Y-57999380D02*
X117492400Y-57999380D01*
X117397161Y-58047000D01*
X117349542Y-58094619D01*
X117254304Y-58237476D01*
X117206685Y-58427952D01*
X117206685Y-58808904D01*
X117254304Y-58904142D01*
X117301923Y-58951761D01*
X117397161Y-58999380D01*
X117587638Y-58999380D01*
X117682876Y-58951761D01*
X117730495Y-58904142D01*
X117778114Y-58808904D01*
X117778114Y-58570809D01*
X117730495Y-58475571D01*
X117682876Y-58427952D01*
X117587638Y-58380333D01*
X117397161Y-58380333D01*
X117301923Y-58427952D01*
X117254304Y-58475571D01*
X117206685Y-58570809D01*
%TO.C,R2*%
X81367333Y-39949380D02*
X81034000Y-39473190D01*
X80795904Y-39949380D02*
X80795904Y-38949380D01*
X81176857Y-38949380D01*
X81272095Y-38997000D01*
X81319714Y-39044619D01*
X81367333Y-39139857D01*
X81367333Y-39282714D01*
X81319714Y-39377952D01*
X81272095Y-39425571D01*
X81176857Y-39473190D01*
X80795904Y-39473190D01*
X81748285Y-39044619D02*
X81795904Y-38997000D01*
X81891142Y-38949380D01*
X82129238Y-38949380D01*
X82224476Y-38997000D01*
X82272095Y-39044619D01*
X82319714Y-39139857D01*
X82319714Y-39235095D01*
X82272095Y-39377952D01*
X81700666Y-39949380D01*
X82319714Y-39949380D01*
%TO.C,C17*%
X79214742Y-63222142D02*
X79167123Y-63269761D01*
X79024266Y-63317380D01*
X78929028Y-63317380D01*
X78786171Y-63269761D01*
X78690933Y-63174523D01*
X78643314Y-63079285D01*
X78595695Y-62888809D01*
X78595695Y-62745952D01*
X78643314Y-62555476D01*
X78690933Y-62460238D01*
X78786171Y-62365000D01*
X78929028Y-62317380D01*
X79024266Y-62317380D01*
X79167123Y-62365000D01*
X79214742Y-62412619D01*
X80167123Y-63317380D02*
X79595695Y-63317380D01*
X79881409Y-63317380D02*
X79881409Y-62317380D01*
X79786171Y-62460238D01*
X79690933Y-62555476D01*
X79595695Y-62603095D01*
X80500457Y-62317380D02*
X81167123Y-62317380D01*
X80738552Y-63317380D01*
%TO.C,R5*%
X117232133Y-50998380D02*
X116898800Y-50522190D01*
X116660704Y-50998380D02*
X116660704Y-49998380D01*
X117041657Y-49998380D01*
X117136895Y-50046000D01*
X117184514Y-50093619D01*
X117232133Y-50188857D01*
X117232133Y-50331714D01*
X117184514Y-50426952D01*
X117136895Y-50474571D01*
X117041657Y-50522190D01*
X116660704Y-50522190D01*
X118136895Y-49998380D02*
X117660704Y-49998380D01*
X117613085Y-50474571D01*
X117660704Y-50426952D01*
X117755942Y-50379333D01*
X117994038Y-50379333D01*
X118089276Y-50426952D01*
X118136895Y-50474571D01*
X118184514Y-50569809D01*
X118184514Y-50807904D01*
X118136895Y-50903142D01*
X118089276Y-50950761D01*
X117994038Y-50998380D01*
X117755942Y-50998380D01*
X117660704Y-50950761D01*
X117613085Y-50903142D01*
%TO.C,R13*%
X92702142Y-39441380D02*
X92368809Y-38965190D01*
X92130714Y-39441380D02*
X92130714Y-38441380D01*
X92511666Y-38441380D01*
X92606904Y-38489000D01*
X92654523Y-38536619D01*
X92702142Y-38631857D01*
X92702142Y-38774714D01*
X92654523Y-38869952D01*
X92606904Y-38917571D01*
X92511666Y-38965190D01*
X92130714Y-38965190D01*
X93654523Y-39441380D02*
X93083095Y-39441380D01*
X93368809Y-39441380D02*
X93368809Y-38441380D01*
X93273571Y-38584238D01*
X93178333Y-38679476D01*
X93083095Y-38727095D01*
X93987857Y-38441380D02*
X94606904Y-38441380D01*
X94273571Y-38822333D01*
X94416428Y-38822333D01*
X94511666Y-38869952D01*
X94559285Y-38917571D01*
X94606904Y-39012809D01*
X94606904Y-39250904D01*
X94559285Y-39346142D01*
X94511666Y-39393761D01*
X94416428Y-39441380D01*
X94130714Y-39441380D01*
X94035476Y-39393761D01*
X93987857Y-39346142D01*
%TO.C,L1*%
X62571333Y-37028380D02*
X62095142Y-37028380D01*
X62095142Y-36028380D01*
X63428476Y-37028380D02*
X62857047Y-37028380D01*
X63142761Y-37028380D02*
X63142761Y-36028380D01*
X63047523Y-36171238D01*
X62952285Y-36266476D01*
X62857047Y-36314095D01*
%TO.C,D7*%
X109898085Y-45257980D02*
X109898085Y-44257980D01*
X110279038Y-44257980D01*
X110374276Y-44305600D01*
X110421895Y-44353219D01*
X110469514Y-44448457D01*
X110469514Y-44591314D01*
X110421895Y-44686552D01*
X110374276Y-44734171D01*
X110279038Y-44781790D01*
X109898085Y-44781790D01*
X111469514Y-45257980D02*
X111136180Y-44781790D01*
X110898085Y-45257980D02*
X110898085Y-44257980D01*
X111279038Y-44257980D01*
X111374276Y-44305600D01*
X111421895Y-44353219D01*
X111469514Y-44448457D01*
X111469514Y-44591314D01*
X111421895Y-44686552D01*
X111374276Y-44734171D01*
X111279038Y-44781790D01*
X110898085Y-44781790D01*
X112088561Y-44257980D02*
X112279038Y-44257980D01*
X112374276Y-44305600D01*
X112469514Y-44400838D01*
X112517133Y-44591314D01*
X112517133Y-44924647D01*
X112469514Y-45115123D01*
X112374276Y-45210361D01*
X112279038Y-45257980D01*
X112088561Y-45257980D01*
X111993323Y-45210361D01*
X111898085Y-45115123D01*
X111850466Y-44924647D01*
X111850466Y-44591314D01*
X111898085Y-44400838D01*
X111993323Y-44305600D01*
X112088561Y-44257980D01*
X113469514Y-44305600D02*
X113374276Y-44257980D01*
X113231419Y-44257980D01*
X113088561Y-44305600D01*
X112993323Y-44400838D01*
X112945704Y-44496076D01*
X112898085Y-44686552D01*
X112898085Y-44829409D01*
X112945704Y-45019885D01*
X112993323Y-45115123D01*
X113088561Y-45210361D01*
X113231419Y-45257980D01*
X113326657Y-45257980D01*
X113469514Y-45210361D01*
X113517133Y-45162742D01*
X113517133Y-44829409D01*
X113326657Y-44829409D01*
%TO.C,R1*%
X70445333Y-28697180D02*
X70112000Y-28220990D01*
X69873904Y-28697180D02*
X69873904Y-27697180D01*
X70254857Y-27697180D01*
X70350095Y-27744800D01*
X70397714Y-27792419D01*
X70445333Y-27887657D01*
X70445333Y-28030514D01*
X70397714Y-28125752D01*
X70350095Y-28173371D01*
X70254857Y-28220990D01*
X69873904Y-28220990D01*
X71397714Y-28697180D02*
X70826285Y-28697180D01*
X71112000Y-28697180D02*
X71112000Y-27697180D01*
X71016761Y-27840038D01*
X70921523Y-27935276D01*
X70826285Y-27982895D01*
%TO.C,J1*%
X57299266Y-79182991D02*
X57299266Y-79897277D01*
X57251647Y-80040134D01*
X57156409Y-80135372D01*
X57013552Y-80182991D01*
X56918314Y-80182991D01*
X58299266Y-80182991D02*
X57727838Y-80182991D01*
X58013552Y-80182991D02*
X58013552Y-79182991D01*
X57918314Y-79325849D01*
X57823076Y-79421087D01*
X57727838Y-79468706D01*
%TO.C,R3*%
X111618733Y-39111180D02*
X111285400Y-38634990D01*
X111047304Y-39111180D02*
X111047304Y-38111180D01*
X111428257Y-38111180D01*
X111523495Y-38158800D01*
X111571114Y-38206419D01*
X111618733Y-38301657D01*
X111618733Y-38444514D01*
X111571114Y-38539752D01*
X111523495Y-38587371D01*
X111428257Y-38634990D01*
X111047304Y-38634990D01*
X111952066Y-38111180D02*
X112571114Y-38111180D01*
X112237780Y-38492133D01*
X112380638Y-38492133D01*
X112475876Y-38539752D01*
X112523495Y-38587371D01*
X112571114Y-38682609D01*
X112571114Y-38920704D01*
X112523495Y-39015942D01*
X112475876Y-39063561D01*
X112380638Y-39111180D01*
X112094923Y-39111180D01*
X111999685Y-39063561D01*
X111952066Y-39015942D01*
%TO.C,U2*%
X93599095Y-59777380D02*
X93599095Y-60586904D01*
X93646714Y-60682142D01*
X93694333Y-60729761D01*
X93789571Y-60777380D01*
X93980047Y-60777380D01*
X94075285Y-60729761D01*
X94122904Y-60682142D01*
X94170523Y-60586904D01*
X94170523Y-59777380D01*
X94599095Y-59872619D02*
X94646714Y-59825000D01*
X94741952Y-59777380D01*
X94980047Y-59777380D01*
X95075285Y-59825000D01*
X95122904Y-59872619D01*
X95170523Y-59967857D01*
X95170523Y-60063095D01*
X95122904Y-60205952D01*
X94551476Y-60777380D01*
X95170523Y-60777380D01*
%TO.C,J3*%
X83424791Y-79428933D02*
X84139077Y-79428933D01*
X84281934Y-79476552D01*
X84377172Y-79571790D01*
X84424791Y-79714647D01*
X84424791Y-79809885D01*
X83424791Y-79047980D02*
X83424791Y-78428933D01*
X83805744Y-78762266D01*
X83805744Y-78619409D01*
X83853363Y-78524171D01*
X83900982Y-78476552D01*
X83996220Y-78428933D01*
X84234315Y-78428933D01*
X84329553Y-78476552D01*
X84377172Y-78524171D01*
X84424791Y-78619409D01*
X84424791Y-78905123D01*
X84377172Y-79000361D01*
X84329553Y-79047980D01*
%TO.C,D4*%
X67729123Y-32243780D02*
X67252933Y-32243780D01*
X67205314Y-32719971D01*
X67252933Y-32672352D01*
X67348171Y-32624733D01*
X67586266Y-32624733D01*
X67681504Y-32672352D01*
X67729123Y-32719971D01*
X67776742Y-32815209D01*
X67776742Y-33053304D01*
X67729123Y-33148542D01*
X67681504Y-33196161D01*
X67586266Y-33243780D01*
X67348171Y-33243780D01*
X67252933Y-33196161D01*
X67205314Y-33148542D01*
X68062457Y-32243780D02*
X68395790Y-33243780D01*
X68729123Y-32243780D01*
%TO.C,XTAL1*%
X83193190Y-45172380D02*
X83859857Y-46172380D01*
X83859857Y-45172380D02*
X83193190Y-46172380D01*
X84097952Y-45172380D02*
X84669380Y-45172380D01*
X84383666Y-46172380D02*
X84383666Y-45172380D01*
X84955095Y-45886666D02*
X85431285Y-45886666D01*
X84859857Y-46172380D02*
X85193190Y-45172380D01*
X85526523Y-46172380D01*
X86336047Y-46172380D02*
X85859857Y-46172380D01*
X85859857Y-45172380D01*
X87193190Y-46172380D02*
X86621761Y-46172380D01*
X86907476Y-46172380D02*
X86907476Y-45172380D01*
X86812238Y-45315238D01*
X86717000Y-45410476D01*
X86621761Y-45458095D01*
%TO.C,J2*%
X83482380Y-29289333D02*
X84196666Y-29289333D01*
X84339523Y-29336952D01*
X84434761Y-29432190D01*
X84482380Y-29575047D01*
X84482380Y-29670285D01*
X83577619Y-28860761D02*
X83530000Y-28813142D01*
X83482380Y-28717904D01*
X83482380Y-28479809D01*
X83530000Y-28384571D01*
X83577619Y-28336952D01*
X83672857Y-28289333D01*
X83768095Y-28289333D01*
X83910952Y-28336952D01*
X84482380Y-28908380D01*
X84482380Y-28289333D01*
%TO.C,U1*%
X55118095Y-44791380D02*
X55118095Y-45600904D01*
X55165714Y-45696142D01*
X55213333Y-45743761D01*
X55308571Y-45791380D01*
X55499047Y-45791380D01*
X55594285Y-45743761D01*
X55641904Y-45696142D01*
X55689523Y-45600904D01*
X55689523Y-44791380D01*
X56689523Y-45791380D02*
X56118095Y-45791380D01*
X56403809Y-45791380D02*
X56403809Y-44791380D01*
X56308571Y-44934238D01*
X56213333Y-45029476D01*
X56118095Y-45077095D01*
%TO.C,D6*%
X122936190Y-41092380D02*
X122460000Y-41092380D01*
X122460000Y-40092380D01*
X123269523Y-40568571D02*
X123602857Y-40568571D01*
X123745714Y-41092380D02*
X123269523Y-41092380D01*
X123269523Y-40092380D01*
X123745714Y-40092380D01*
X124174285Y-41092380D02*
X124174285Y-40092380D01*
X124412380Y-40092380D01*
X124555238Y-40140000D01*
X124650476Y-40235238D01*
X124698095Y-40330476D01*
X124745714Y-40520952D01*
X124745714Y-40663809D01*
X124698095Y-40854285D01*
X124650476Y-40949523D01*
X124555238Y-41044761D01*
X124412380Y-41092380D01*
X124174285Y-41092380D01*
X124936190Y-41187619D02*
X125698095Y-41187619D01*
X126269523Y-40568571D02*
X126412380Y-40616190D01*
X126460000Y-40663809D01*
X126507619Y-40759047D01*
X126507619Y-40901904D01*
X126460000Y-40997142D01*
X126412380Y-41044761D01*
X126317142Y-41092380D01*
X125936190Y-41092380D01*
X125936190Y-40092380D01*
X126269523Y-40092380D01*
X126364761Y-40140000D01*
X126412380Y-40187619D01*
X126460000Y-40282857D01*
X126460000Y-40378095D01*
X126412380Y-40473333D01*
X126364761Y-40520952D01*
X126269523Y-40568571D01*
X125936190Y-40568571D01*
%TO.C,R19*%
X82719937Y-65501780D02*
X82386604Y-65025590D01*
X82148509Y-65501780D02*
X82148509Y-64501780D01*
X82529461Y-64501780D01*
X82624699Y-64549400D01*
X82672318Y-64597019D01*
X82719937Y-64692257D01*
X82719937Y-64835114D01*
X82672318Y-64930352D01*
X82624699Y-64977971D01*
X82529461Y-65025590D01*
X82148509Y-65025590D01*
X83672318Y-65501780D02*
X83100890Y-65501780D01*
X83386604Y-65501780D02*
X83386604Y-64501780D01*
X83291366Y-64644638D01*
X83196128Y-64739876D01*
X83100890Y-64787495D01*
X84148509Y-65501780D02*
X84338985Y-65501780D01*
X84434223Y-65454161D01*
X84481842Y-65406542D01*
X84577080Y-65263685D01*
X84624699Y-65073209D01*
X84624699Y-64692257D01*
X84577080Y-64597019D01*
X84529461Y-64549400D01*
X84434223Y-64501780D01*
X84243747Y-64501780D01*
X84148509Y-64549400D01*
X84100890Y-64597019D01*
X84053271Y-64692257D01*
X84053271Y-64930352D01*
X84100890Y-65025590D01*
X84148509Y-65073209D01*
X84243747Y-65120828D01*
X84434223Y-65120828D01*
X84529461Y-65073209D01*
X84577080Y-65025590D01*
X84624699Y-64930352D01*
%TO.C,C8*%
X81637142Y-54268666D02*
X81684761Y-54316285D01*
X81732380Y-54459142D01*
X81732380Y-54554380D01*
X81684761Y-54697238D01*
X81589523Y-54792476D01*
X81494285Y-54840095D01*
X81303809Y-54887714D01*
X81160952Y-54887714D01*
X80970476Y-54840095D01*
X80875238Y-54792476D01*
X80780000Y-54697238D01*
X80732380Y-54554380D01*
X80732380Y-54459142D01*
X80780000Y-54316285D01*
X80827619Y-54268666D01*
X81160952Y-53697238D02*
X81113333Y-53792476D01*
X81065714Y-53840095D01*
X80970476Y-53887714D01*
X80922857Y-53887714D01*
X80827619Y-53840095D01*
X80780000Y-53792476D01*
X80732380Y-53697238D01*
X80732380Y-53506761D01*
X80780000Y-53411523D01*
X80827619Y-53363904D01*
X80922857Y-53316285D01*
X80970476Y-53316285D01*
X81065714Y-53363904D01*
X81113333Y-53411523D01*
X81160952Y-53506761D01*
X81160952Y-53697238D01*
X81208571Y-53792476D01*
X81256190Y-53840095D01*
X81351428Y-53887714D01*
X81541904Y-53887714D01*
X81637142Y-53840095D01*
X81684761Y-53792476D01*
X81732380Y-53697238D01*
X81732380Y-53506761D01*
X81684761Y-53411523D01*
X81637142Y-53363904D01*
X81541904Y-53316285D01*
X81351428Y-53316285D01*
X81256190Y-53363904D01*
X81208571Y-53411523D01*
X81160952Y-53506761D01*
%TO.C,C4*%
X106854884Y-67133742D02*
X106807265Y-67181361D01*
X106664408Y-67228980D01*
X106569170Y-67228980D01*
X106426312Y-67181361D01*
X106331074Y-67086123D01*
X106283455Y-66990885D01*
X106235836Y-66800409D01*
X106235836Y-66657552D01*
X106283455Y-66467076D01*
X106331074Y-66371838D01*
X106426312Y-66276600D01*
X106569170Y-66228980D01*
X106664408Y-66228980D01*
X106807265Y-66276600D01*
X106854884Y-66324219D01*
X107712027Y-66562314D02*
X107712027Y-67228980D01*
X107473931Y-66181361D02*
X107235836Y-66895647D01*
X107854884Y-66895647D01*
%TO.C,C9*%
X115301733Y-60428142D02*
X115254114Y-60475761D01*
X115111257Y-60523380D01*
X115016019Y-60523380D01*
X114873161Y-60475761D01*
X114777923Y-60380523D01*
X114730304Y-60285285D01*
X114682685Y-60094809D01*
X114682685Y-59951952D01*
X114730304Y-59761476D01*
X114777923Y-59666238D01*
X114873161Y-59571000D01*
X115016019Y-59523380D01*
X115111257Y-59523380D01*
X115254114Y-59571000D01*
X115301733Y-59618619D01*
X115777923Y-60523380D02*
X115968400Y-60523380D01*
X116063638Y-60475761D01*
X116111257Y-60428142D01*
X116206495Y-60285285D01*
X116254114Y-60094809D01*
X116254114Y-59713857D01*
X116206495Y-59618619D01*
X116158876Y-59571000D01*
X116063638Y-59523380D01*
X115873161Y-59523380D01*
X115777923Y-59571000D01*
X115730304Y-59618619D01*
X115682685Y-59713857D01*
X115682685Y-59951952D01*
X115730304Y-60047190D01*
X115777923Y-60094809D01*
X115873161Y-60142428D01*
X116063638Y-60142428D01*
X116158876Y-60094809D01*
X116206495Y-60047190D01*
X116254114Y-59951952D01*
%TO.C,D5*%
X123007619Y-43200580D02*
X122531428Y-43200580D01*
X122531428Y-42200580D01*
X123340952Y-42676771D02*
X123674285Y-42676771D01*
X123817142Y-43200580D02*
X123340952Y-43200580D01*
X123340952Y-42200580D01*
X123817142Y-42200580D01*
X124245714Y-43200580D02*
X124245714Y-42200580D01*
X124483809Y-42200580D01*
X124626666Y-42248200D01*
X124721904Y-42343438D01*
X124769523Y-42438676D01*
X124817142Y-42629152D01*
X124817142Y-42772009D01*
X124769523Y-42962485D01*
X124721904Y-43057723D01*
X124626666Y-43152961D01*
X124483809Y-43200580D01*
X124245714Y-43200580D01*
X125007619Y-43295819D02*
X125769523Y-43295819D01*
X125960000Y-42914866D02*
X126436190Y-42914866D01*
X125864761Y-43200580D02*
X126198095Y-42200580D01*
X126531428Y-43200580D01*
%TO.C,R12*%
X92702142Y-41473380D02*
X92368809Y-40997190D01*
X92130714Y-41473380D02*
X92130714Y-40473380D01*
X92511666Y-40473380D01*
X92606904Y-40521000D01*
X92654523Y-40568619D01*
X92702142Y-40663857D01*
X92702142Y-40806714D01*
X92654523Y-40901952D01*
X92606904Y-40949571D01*
X92511666Y-40997190D01*
X92130714Y-40997190D01*
X93654523Y-41473380D02*
X93083095Y-41473380D01*
X93368809Y-41473380D02*
X93368809Y-40473380D01*
X93273571Y-40616238D01*
X93178333Y-40711476D01*
X93083095Y-40759095D01*
X94035476Y-40568619D02*
X94083095Y-40521000D01*
X94178333Y-40473380D01*
X94416428Y-40473380D01*
X94511666Y-40521000D01*
X94559285Y-40568619D01*
X94606904Y-40663857D01*
X94606904Y-40759095D01*
X94559285Y-40901952D01*
X93987857Y-41473380D01*
X94606904Y-41473380D01*
%TO.C,C5*%
X94397533Y-44756342D02*
X94349914Y-44803961D01*
X94207057Y-44851580D01*
X94111819Y-44851580D01*
X93968961Y-44803961D01*
X93873723Y-44708723D01*
X93826104Y-44613485D01*
X93778485Y-44423009D01*
X93778485Y-44280152D01*
X93826104Y-44089676D01*
X93873723Y-43994438D01*
X93968961Y-43899200D01*
X94111819Y-43851580D01*
X94207057Y-43851580D01*
X94349914Y-43899200D01*
X94397533Y-43946819D01*
X95302295Y-43851580D02*
X94826104Y-43851580D01*
X94778485Y-44327771D01*
X94826104Y-44280152D01*
X94921342Y-44232533D01*
X95159438Y-44232533D01*
X95254676Y-44280152D01*
X95302295Y-44327771D01*
X95349914Y-44423009D01*
X95349914Y-44661104D01*
X95302295Y-44756342D01*
X95254676Y-44803961D01*
X95159438Y-44851580D01*
X94921342Y-44851580D01*
X94826104Y-44803961D01*
X94778485Y-44756342D01*
%TO.C,C1*%
X54824333Y-60047142D02*
X54776714Y-60094761D01*
X54633857Y-60142380D01*
X54538619Y-60142380D01*
X54395761Y-60094761D01*
X54300523Y-59999523D01*
X54252904Y-59904285D01*
X54205285Y-59713809D01*
X54205285Y-59570952D01*
X54252904Y-59380476D01*
X54300523Y-59285238D01*
X54395761Y-59190000D01*
X54538619Y-59142380D01*
X54633857Y-59142380D01*
X54776714Y-59190000D01*
X54824333Y-59237619D01*
X55776714Y-60142380D02*
X55205285Y-60142380D01*
X55491000Y-60142380D02*
X55491000Y-59142380D01*
X55395761Y-59285238D01*
X55300523Y-59380476D01*
X55205285Y-59428095D01*
%TO.C,R16*%
X70886580Y-73845657D02*
X70410390Y-74178990D01*
X70886580Y-74417085D02*
X69886580Y-74417085D01*
X69886580Y-74036133D01*
X69934200Y-73940895D01*
X69981819Y-73893276D01*
X70077057Y-73845657D01*
X70219914Y-73845657D01*
X70315152Y-73893276D01*
X70362771Y-73940895D01*
X70410390Y-74036133D01*
X70410390Y-74417085D01*
X70886580Y-72893276D02*
X70886580Y-73464704D01*
X70886580Y-73178990D02*
X69886580Y-73178990D01*
X70029438Y-73274228D01*
X70124676Y-73369466D01*
X70172295Y-73464704D01*
X69886580Y-72036133D02*
X69886580Y-72226609D01*
X69934200Y-72321847D01*
X69981819Y-72369466D01*
X70124676Y-72464704D01*
X70315152Y-72512323D01*
X70696104Y-72512323D01*
X70791342Y-72464704D01*
X70838961Y-72417085D01*
X70886580Y-72321847D01*
X70886580Y-72131371D01*
X70838961Y-72036133D01*
X70791342Y-71988514D01*
X70696104Y-71940895D01*
X70458009Y-71940895D01*
X70362771Y-71988514D01*
X70315152Y-72036133D01*
X70267533Y-72131371D01*
X70267533Y-72321847D01*
X70315152Y-72417085D01*
X70362771Y-72464704D01*
X70458009Y-72512323D01*
%TO.C,D1*%
X71445380Y-64492095D02*
X70445380Y-64492095D01*
X70445380Y-64254000D01*
X70493000Y-64111142D01*
X70588238Y-64015904D01*
X70683476Y-63968285D01*
X70873952Y-63920666D01*
X71016809Y-63920666D01*
X71207285Y-63968285D01*
X71302523Y-64015904D01*
X71397761Y-64111142D01*
X71445380Y-64254000D01*
X71445380Y-64492095D01*
X71445380Y-62968285D02*
X71445380Y-63539714D01*
X71445380Y-63254000D02*
X70445380Y-63254000D01*
X70588238Y-63349238D01*
X70683476Y-63444476D01*
X70731095Y-63539714D01*
%TO.C,C3*%
X108392933Y-65508142D02*
X108345314Y-65555761D01*
X108202457Y-65603380D01*
X108107219Y-65603380D01*
X107964361Y-65555761D01*
X107869123Y-65460523D01*
X107821504Y-65365285D01*
X107773885Y-65174809D01*
X107773885Y-65031952D01*
X107821504Y-64841476D01*
X107869123Y-64746238D01*
X107964361Y-64651000D01*
X108107219Y-64603380D01*
X108202457Y-64603380D01*
X108345314Y-64651000D01*
X108392933Y-64698619D01*
X108726266Y-64603380D02*
X109345314Y-64603380D01*
X109011980Y-64984333D01*
X109154838Y-64984333D01*
X109250076Y-65031952D01*
X109297695Y-65079571D01*
X109345314Y-65174809D01*
X109345314Y-65412904D01*
X109297695Y-65508142D01*
X109250076Y-65555761D01*
X109154838Y-65603380D01*
X108869123Y-65603380D01*
X108773885Y-65555761D01*
X108726266Y-65508142D01*
%TO.C,TP2*%
X101581857Y-66638714D02*
X101219000Y-66638714D01*
X101182714Y-67001571D01*
X101219000Y-66965285D01*
X101291571Y-66929000D01*
X101473000Y-66929000D01*
X101545571Y-66965285D01*
X101581857Y-67001571D01*
X101618142Y-67074142D01*
X101618142Y-67255571D01*
X101581857Y-67328142D01*
X101545571Y-67364428D01*
X101473000Y-67400714D01*
X101291571Y-67400714D01*
X101219000Y-67364428D01*
X101182714Y-67328142D01*
X101835857Y-66638714D02*
X102089857Y-67400714D01*
X102343857Y-66638714D01*
%TO.C,J5*%
X124013980Y-70762666D02*
X124728266Y-70762666D01*
X124871123Y-70810285D01*
X124966361Y-70905523D01*
X125013980Y-71048380D01*
X125013980Y-71143619D01*
X124013980Y-70429333D02*
X124013980Y-69857904D01*
X125013980Y-70143619D02*
X124013980Y-70143619D01*
X124728266Y-69572190D02*
X124728266Y-69096000D01*
X125013980Y-69667428D02*
X124013980Y-69334095D01*
X125013980Y-69000761D01*
X124061600Y-68143619D02*
X124013980Y-68238857D01*
X124013980Y-68381714D01*
X124061600Y-68524571D01*
X124156838Y-68619809D01*
X124252076Y-68667428D01*
X124442552Y-68715047D01*
X124585409Y-68715047D01*
X124775885Y-68667428D01*
X124871123Y-68619809D01*
X124966361Y-68524571D01*
X125013980Y-68381714D01*
X125013980Y-68286476D01*
X124966361Y-68143619D01*
X124918742Y-68096000D01*
X124585409Y-68096000D01*
X124585409Y-68286476D01*
%TO.C,TP4*%
X119815428Y-66548000D02*
X119742857Y-66511714D01*
X119634000Y-66511714D01*
X119525142Y-66548000D01*
X119452571Y-66620571D01*
X119416285Y-66693142D01*
X119380000Y-66838285D01*
X119380000Y-66947142D01*
X119416285Y-67092285D01*
X119452571Y-67164857D01*
X119525142Y-67237428D01*
X119634000Y-67273714D01*
X119706571Y-67273714D01*
X119815428Y-67237428D01*
X119851714Y-67201142D01*
X119851714Y-66947142D01*
X119706571Y-66947142D01*
X120178285Y-67273714D02*
X120178285Y-66511714D01*
X120613714Y-67273714D01*
X120613714Y-66511714D01*
X120976571Y-67273714D02*
X120976571Y-66511714D01*
X121158000Y-66511714D01*
X121266857Y-66548000D01*
X121339428Y-66620571D01*
X121375714Y-66693142D01*
X121412000Y-66838285D01*
X121412000Y-66947142D01*
X121375714Y-67092285D01*
X121339428Y-67164857D01*
X121266857Y-67237428D01*
X121158000Y-67273714D01*
X120976571Y-67273714D01*
%TO.C,R18*%
X82719937Y-70632580D02*
X82386604Y-70156390D01*
X82148509Y-70632580D02*
X82148509Y-69632580D01*
X82529461Y-69632580D01*
X82624699Y-69680200D01*
X82672318Y-69727819D01*
X82719937Y-69823057D01*
X82719937Y-69965914D01*
X82672318Y-70061152D01*
X82624699Y-70108771D01*
X82529461Y-70156390D01*
X82148509Y-70156390D01*
X83672318Y-70632580D02*
X83100890Y-70632580D01*
X83386604Y-70632580D02*
X83386604Y-69632580D01*
X83291366Y-69775438D01*
X83196128Y-69870676D01*
X83100890Y-69918295D01*
X84243747Y-70061152D02*
X84148509Y-70013533D01*
X84100890Y-69965914D01*
X84053271Y-69870676D01*
X84053271Y-69823057D01*
X84100890Y-69727819D01*
X84148509Y-69680200D01*
X84243747Y-69632580D01*
X84434223Y-69632580D01*
X84529461Y-69680200D01*
X84577080Y-69727819D01*
X84624699Y-69823057D01*
X84624699Y-69870676D01*
X84577080Y-69965914D01*
X84529461Y-70013533D01*
X84434223Y-70061152D01*
X84243747Y-70061152D01*
X84148509Y-70108771D01*
X84100890Y-70156390D01*
X84053271Y-70251628D01*
X84053271Y-70442104D01*
X84100890Y-70537342D01*
X84148509Y-70584961D01*
X84243747Y-70632580D01*
X84434223Y-70632580D01*
X84529461Y-70584961D01*
X84577080Y-70537342D01*
X84624699Y-70442104D01*
X84624699Y-70251628D01*
X84577080Y-70156390D01*
X84529461Y-70108771D01*
X84434223Y-70061152D01*
%TO.C,TP5*%
X65459428Y-58383714D02*
X65894857Y-58383714D01*
X65677142Y-59145714D02*
X65677142Y-58383714D01*
X66148857Y-59145714D02*
X66148857Y-58383714D01*
X66439142Y-58383714D01*
X66511714Y-58420000D01*
X66548000Y-58456285D01*
X66584285Y-58528857D01*
X66584285Y-58637714D01*
X66548000Y-58710285D01*
X66511714Y-58746571D01*
X66439142Y-58782857D01*
X66148857Y-58782857D01*
X67273714Y-58383714D02*
X66910857Y-58383714D01*
X66874571Y-58746571D01*
X66910857Y-58710285D01*
X66983428Y-58674000D01*
X67164857Y-58674000D01*
X67237428Y-58710285D01*
X67273714Y-58746571D01*
X67310000Y-58819142D01*
X67310000Y-59000571D01*
X67273714Y-59073142D01*
X67237428Y-59109428D01*
X67164857Y-59145714D01*
X66983428Y-59145714D01*
X66910857Y-59109428D01*
X66874571Y-59073142D01*
%TO.C,C7*%
X81637142Y-47664666D02*
X81684761Y-47712285D01*
X81732380Y-47855142D01*
X81732380Y-47950380D01*
X81684761Y-48093238D01*
X81589523Y-48188476D01*
X81494285Y-48236095D01*
X81303809Y-48283714D01*
X81160952Y-48283714D01*
X80970476Y-48236095D01*
X80875238Y-48188476D01*
X80780000Y-48093238D01*
X80732380Y-47950380D01*
X80732380Y-47855142D01*
X80780000Y-47712285D01*
X80827619Y-47664666D01*
X80732380Y-47331333D02*
X80732380Y-46664666D01*
X81732380Y-47093238D01*
%TO.C,C2*%
X63206333Y-27662142D02*
X63158714Y-27709761D01*
X63015857Y-27757380D01*
X62920619Y-27757380D01*
X62777761Y-27709761D01*
X62682523Y-27614523D01*
X62634904Y-27519285D01*
X62587285Y-27328809D01*
X62587285Y-27185952D01*
X62634904Y-26995476D01*
X62682523Y-26900238D01*
X62777761Y-26805000D01*
X62920619Y-26757380D01*
X63015857Y-26757380D01*
X63158714Y-26805000D01*
X63206333Y-26852619D01*
X63587285Y-26852619D02*
X63634904Y-26805000D01*
X63730142Y-26757380D01*
X63968238Y-26757380D01*
X64063476Y-26805000D01*
X64111095Y-26852619D01*
X64158714Y-26947857D01*
X64158714Y-27043095D01*
X64111095Y-27185952D01*
X63539666Y-27757380D01*
X64158714Y-27757380D01*
%TO.C,U4*%
X75946095Y-69861180D02*
X75946095Y-70670704D01*
X75993714Y-70765942D01*
X76041333Y-70813561D01*
X76136571Y-70861180D01*
X76327047Y-70861180D01*
X76422285Y-70813561D01*
X76469904Y-70765942D01*
X76517523Y-70670704D01*
X76517523Y-69861180D01*
X77422285Y-70194514D02*
X77422285Y-70861180D01*
X77184190Y-69813561D02*
X76946095Y-70527847D01*
X77565142Y-70527847D01*
%TO.C,S3*%
X122975904Y-34720161D02*
X123118761Y-34767780D01*
X123356857Y-34767780D01*
X123452095Y-34720161D01*
X123499714Y-34672542D01*
X123547333Y-34577304D01*
X123547333Y-34482066D01*
X123499714Y-34386828D01*
X123452095Y-34339209D01*
X123356857Y-34291590D01*
X123166380Y-34243971D01*
X123071142Y-34196352D01*
X123023523Y-34148733D01*
X122975904Y-34053495D01*
X122975904Y-33958257D01*
X123023523Y-33863019D01*
X123071142Y-33815400D01*
X123166380Y-33767780D01*
X123404476Y-33767780D01*
X123547333Y-33815400D01*
X123880666Y-33767780D02*
X124118761Y-34767780D01*
X124309238Y-34053495D01*
X124499714Y-34767780D01*
X124737809Y-33767780D01*
X124880666Y-34863019D02*
X125642571Y-34863019D01*
X126214000Y-34243971D02*
X126356857Y-34291590D01*
X126404476Y-34339209D01*
X126452095Y-34434447D01*
X126452095Y-34577304D01*
X126404476Y-34672542D01*
X126356857Y-34720161D01*
X126261619Y-34767780D01*
X125880666Y-34767780D01*
X125880666Y-33767780D01*
X126214000Y-33767780D01*
X126309238Y-33815400D01*
X126356857Y-33863019D01*
X126404476Y-33958257D01*
X126404476Y-34053495D01*
X126356857Y-34148733D01*
X126309238Y-34196352D01*
X126214000Y-34243971D01*
X125880666Y-34243971D01*
%TO.C,C16*%
X79367142Y-70892942D02*
X79319523Y-70940561D01*
X79176666Y-70988180D01*
X79081428Y-70988180D01*
X78938571Y-70940561D01*
X78843333Y-70845323D01*
X78795714Y-70750085D01*
X78748095Y-70559609D01*
X78748095Y-70416752D01*
X78795714Y-70226276D01*
X78843333Y-70131038D01*
X78938571Y-70035800D01*
X79081428Y-69988180D01*
X79176666Y-69988180D01*
X79319523Y-70035800D01*
X79367142Y-70083419D01*
X80319523Y-70988180D02*
X79748095Y-70988180D01*
X80033809Y-70988180D02*
X80033809Y-69988180D01*
X79938571Y-70131038D01*
X79843333Y-70226276D01*
X79748095Y-70273895D01*
X81176666Y-69988180D02*
X80986190Y-69988180D01*
X80890952Y-70035800D01*
X80843333Y-70083419D01*
X80748095Y-70226276D01*
X80700476Y-70416752D01*
X80700476Y-70797704D01*
X80748095Y-70892942D01*
X80795714Y-70940561D01*
X80890952Y-70988180D01*
X81081428Y-70988180D01*
X81176666Y-70940561D01*
X81224285Y-70892942D01*
X81271904Y-70797704D01*
X81271904Y-70559609D01*
X81224285Y-70464371D01*
X81176666Y-70416752D01*
X81081428Y-70369133D01*
X80890952Y-70369133D01*
X80795714Y-70416752D01*
X80748095Y-70464371D01*
X80700476Y-70559609D01*
%TO.C,D3*%
X58364380Y-39600095D02*
X57364380Y-39600095D01*
X57364380Y-39362000D01*
X57412000Y-39219142D01*
X57507238Y-39123904D01*
X57602476Y-39076285D01*
X57792952Y-39028666D01*
X57935809Y-39028666D01*
X58126285Y-39076285D01*
X58221523Y-39123904D01*
X58316761Y-39219142D01*
X58364380Y-39362000D01*
X58364380Y-39600095D01*
X57364380Y-38695333D02*
X57364380Y-38076285D01*
X57745333Y-38409619D01*
X57745333Y-38266761D01*
X57792952Y-38171523D01*
X57840571Y-38123904D01*
X57935809Y-38076285D01*
X58173904Y-38076285D01*
X58269142Y-38123904D01*
X58316761Y-38171523D01*
X58364380Y-38266761D01*
X58364380Y-38552476D01*
X58316761Y-38647714D01*
X58269142Y-38695333D01*
%TO.C,C15*%
X79214742Y-65279542D02*
X79167123Y-65327161D01*
X79024266Y-65374780D01*
X78929028Y-65374780D01*
X78786171Y-65327161D01*
X78690933Y-65231923D01*
X78643314Y-65136685D01*
X78595695Y-64946209D01*
X78595695Y-64803352D01*
X78643314Y-64612876D01*
X78690933Y-64517638D01*
X78786171Y-64422400D01*
X78929028Y-64374780D01*
X79024266Y-64374780D01*
X79167123Y-64422400D01*
X79214742Y-64470019D01*
X80167123Y-65374780D02*
X79595695Y-65374780D01*
X79881409Y-65374780D02*
X79881409Y-64374780D01*
X79786171Y-64517638D01*
X79690933Y-64612876D01*
X79595695Y-64660495D01*
X81071885Y-64374780D02*
X80595695Y-64374780D01*
X80548076Y-64850971D01*
X80595695Y-64803352D01*
X80690933Y-64755733D01*
X80929028Y-64755733D01*
X81024266Y-64803352D01*
X81071885Y-64850971D01*
X81119504Y-64946209D01*
X81119504Y-65184304D01*
X81071885Y-65279542D01*
X81024266Y-65327161D01*
X80929028Y-65374780D01*
X80690933Y-65374780D01*
X80595695Y-65327161D01*
X80548076Y-65279542D01*
%TO.C,R17*%
X83561180Y-73744057D02*
X83084990Y-74077390D01*
X83561180Y-74315485D02*
X82561180Y-74315485D01*
X82561180Y-73934533D01*
X82608800Y-73839295D01*
X82656419Y-73791676D01*
X82751657Y-73744057D01*
X82894514Y-73744057D01*
X82989752Y-73791676D01*
X83037371Y-73839295D01*
X83084990Y-73934533D01*
X83084990Y-74315485D01*
X83561180Y-72791676D02*
X83561180Y-73363104D01*
X83561180Y-73077390D02*
X82561180Y-73077390D01*
X82704038Y-73172628D01*
X82799276Y-73267866D01*
X82846895Y-73363104D01*
X82561180Y-72458342D02*
X82561180Y-71791676D01*
X83561180Y-72220247D01*
%TO.C,S2*%
X123047333Y-38199961D02*
X123190190Y-38247580D01*
X123428285Y-38247580D01*
X123523523Y-38199961D01*
X123571142Y-38152342D01*
X123618761Y-38057104D01*
X123618761Y-37961866D01*
X123571142Y-37866628D01*
X123523523Y-37819009D01*
X123428285Y-37771390D01*
X123237809Y-37723771D01*
X123142571Y-37676152D01*
X123094952Y-37628533D01*
X123047333Y-37533295D01*
X123047333Y-37438057D01*
X123094952Y-37342819D01*
X123142571Y-37295200D01*
X123237809Y-37247580D01*
X123475904Y-37247580D01*
X123618761Y-37295200D01*
X123952095Y-37247580D02*
X124190190Y-38247580D01*
X124380666Y-37533295D01*
X124571142Y-38247580D01*
X124809238Y-37247580D01*
X124952095Y-38342819D02*
X125714000Y-38342819D01*
X125904476Y-37961866D02*
X126380666Y-37961866D01*
X125809238Y-38247580D02*
X126142571Y-37247580D01*
X126475904Y-38247580D01*
%TO.C,S1*%
X76835095Y-37107761D02*
X76977952Y-37155380D01*
X77216047Y-37155380D01*
X77311285Y-37107761D01*
X77358904Y-37060142D01*
X77406523Y-36964904D01*
X77406523Y-36869666D01*
X77358904Y-36774428D01*
X77311285Y-36726809D01*
X77216047Y-36679190D01*
X77025571Y-36631571D01*
X76930333Y-36583952D01*
X76882714Y-36536333D01*
X76835095Y-36441095D01*
X76835095Y-36345857D01*
X76882714Y-36250619D01*
X76930333Y-36203000D01*
X77025571Y-36155380D01*
X77263666Y-36155380D01*
X77406523Y-36203000D01*
X78358904Y-37155380D02*
X77787476Y-37155380D01*
X78073190Y-37155380D02*
X78073190Y-36155380D01*
X77977952Y-36298238D01*
X77882714Y-36393476D01*
X77787476Y-36441095D01*
X73523323Y-33881180D02*
X72918561Y-34304514D01*
X73523323Y-34606895D02*
X72253323Y-34606895D01*
X72253323Y-34123085D01*
X72313800Y-34002133D01*
X72374276Y-33941657D01*
X72495228Y-33881180D01*
X72676657Y-33881180D01*
X72797609Y-33941657D01*
X72858085Y-34002133D01*
X72918561Y-34123085D01*
X72918561Y-34606895D01*
X73462847Y-32853085D02*
X73523323Y-32974038D01*
X73523323Y-33215942D01*
X73462847Y-33336895D01*
X73341895Y-33397371D01*
X72858085Y-33397371D01*
X72737133Y-33336895D01*
X72676657Y-33215942D01*
X72676657Y-32974038D01*
X72737133Y-32853085D01*
X72858085Y-32792609D01*
X72979038Y-32792609D01*
X73099990Y-33397371D01*
X73462847Y-32308800D02*
X73523323Y-32187847D01*
X73523323Y-31945942D01*
X73462847Y-31824990D01*
X73341895Y-31764514D01*
X73281419Y-31764514D01*
X73160466Y-31824990D01*
X73099990Y-31945942D01*
X73099990Y-32127371D01*
X73039514Y-32248323D01*
X72918561Y-32308800D01*
X72858085Y-32308800D01*
X72737133Y-32248323D01*
X72676657Y-32127371D01*
X72676657Y-31945942D01*
X72737133Y-31824990D01*
X73462847Y-30736419D02*
X73523323Y-30857371D01*
X73523323Y-31099276D01*
X73462847Y-31220228D01*
X73341895Y-31280704D01*
X72858085Y-31280704D01*
X72737133Y-31220228D01*
X72676657Y-31099276D01*
X72676657Y-30857371D01*
X72737133Y-30736419D01*
X72858085Y-30675942D01*
X72979038Y-30675942D01*
X73099990Y-31280704D01*
X72676657Y-30313085D02*
X72676657Y-29829276D01*
X72253323Y-30131657D02*
X73341895Y-30131657D01*
X73462847Y-30071180D01*
X73523323Y-29950228D01*
X73523323Y-29829276D01*
%TO.C,D2*%
X70000904Y-39822380D02*
X70000904Y-38822380D01*
X70239000Y-38822380D01*
X70381857Y-38870000D01*
X70477095Y-38965238D01*
X70524714Y-39060476D01*
X70572333Y-39250952D01*
X70572333Y-39393809D01*
X70524714Y-39584285D01*
X70477095Y-39679523D01*
X70381857Y-39774761D01*
X70239000Y-39822380D01*
X70000904Y-39822380D01*
X70953285Y-38917619D02*
X71000904Y-38870000D01*
X71096142Y-38822380D01*
X71334238Y-38822380D01*
X71429476Y-38870000D01*
X71477095Y-38917619D01*
X71524714Y-39012857D01*
X71524714Y-39108095D01*
X71477095Y-39250952D01*
X70905666Y-39822380D01*
X71524714Y-39822380D01*
%TO.C,J6*%
X70242180Y-79911527D02*
X70956466Y-79911527D01*
X71099323Y-79959146D01*
X71194561Y-80054384D01*
X71242180Y-80197241D01*
X71242180Y-80292479D01*
X70242180Y-79006765D02*
X70242180Y-79197241D01*
X70289800Y-79292479D01*
X70337419Y-79340098D01*
X70480276Y-79435336D01*
X70670752Y-79482955D01*
X71051704Y-79482955D01*
X71146942Y-79435336D01*
X71194561Y-79387717D01*
X71242180Y-79292479D01*
X71242180Y-79102003D01*
X71194561Y-79006765D01*
X71146942Y-78959146D01*
X71051704Y-78911527D01*
X70813609Y-78911527D01*
X70718371Y-78959146D01*
X70670752Y-79006765D01*
X70623133Y-79102003D01*
X70623133Y-79292479D01*
X70670752Y-79387717D01*
X70718371Y-79435336D01*
X70813609Y-79482955D01*
%TO.C,R6*%
X117943333Y-55671980D02*
X117610000Y-55195790D01*
X117371904Y-55671980D02*
X117371904Y-54671980D01*
X117752857Y-54671980D01*
X117848095Y-54719600D01*
X117895714Y-54767219D01*
X117943333Y-54862457D01*
X117943333Y-55005314D01*
X117895714Y-55100552D01*
X117848095Y-55148171D01*
X117752857Y-55195790D01*
X117371904Y-55195790D01*
X118800476Y-54671980D02*
X118610000Y-54671980D01*
X118514761Y-54719600D01*
X118467142Y-54767219D01*
X118371904Y-54910076D01*
X118324285Y-55100552D01*
X118324285Y-55481504D01*
X118371904Y-55576742D01*
X118419523Y-55624361D01*
X118514761Y-55671980D01*
X118705238Y-55671980D01*
X118800476Y-55624361D01*
X118848095Y-55576742D01*
X118895714Y-55481504D01*
X118895714Y-55243409D01*
X118848095Y-55148171D01*
X118800476Y-55100552D01*
X118705238Y-55052933D01*
X118514761Y-55052933D01*
X118419523Y-55100552D01*
X118371904Y-55148171D01*
X118324285Y-55243409D01*
D16*
%TO.C,R11*%
X83151535Y-62592991D02*
X83605663Y-62592991D01*
X83151535Y-64062991D02*
X83605663Y-64062991D01*
%TO.C,D8*%
X81703200Y-62275600D02*
X84388200Y-62275600D01*
X81703200Y-60355600D02*
X81703200Y-62275600D01*
X84388200Y-60355600D02*
X81703200Y-60355600D01*
%TO.C,R4*%
X114174536Y-35942600D02*
X114628664Y-35942600D01*
X114174536Y-37412600D02*
X114628664Y-37412600D01*
%TO.C,TP1*%
X69788000Y-36322000D02*
G75*
G03*
X69788000Y-36322000I-700000J0D01*
G01*
%TO.C,J4*%
X127852900Y-52915600D02*
X129162900Y-52915600D01*
X127852900Y-52915600D02*
X127852900Y-52915600D01*
X129162900Y-65255600D02*
X120042900Y-65255600D01*
X130552900Y-60545600D02*
X130552900Y-59545600D01*
X121352900Y-45975600D02*
X127852900Y-45975600D01*
X120042900Y-65255600D02*
X120042900Y-44675600D01*
X127852900Y-45975600D02*
X127852900Y-52915600D01*
X121352900Y-63955600D02*
X121352900Y-45975600D01*
X127852900Y-63955600D02*
X121352900Y-63955600D01*
X120042900Y-44675600D02*
X129162900Y-44675600D01*
X129162900Y-57015600D02*
X127852900Y-57015600D01*
X129162900Y-44675600D02*
X129162900Y-65255600D01*
X129552900Y-60045600D02*
X130552900Y-60545600D01*
X127852900Y-57015600D02*
X127852900Y-63955600D01*
X130552900Y-59545600D02*
X129552900Y-60045600D01*
%TO.C,R10*%
X115317536Y-46102600D02*
X115771664Y-46102600D01*
X115317536Y-47572600D02*
X115771664Y-47572600D01*
%TO.C,R9*%
X114842058Y-52846500D02*
X114367542Y-52846500D01*
X114842058Y-51801500D02*
X114367542Y-51801500D01*
%TO.C,C6*%
X113595543Y-56849990D02*
X113965010Y-57219457D01*
X114634990Y-55810543D02*
X115004457Y-56180010D01*
%TO.C,R2*%
X78639936Y-40486000D02*
X79094064Y-40486000D01*
X78639936Y-39016000D02*
X79094064Y-39016000D01*
%TO.C,C17*%
X76472148Y-62130000D02*
X76994652Y-62130000D01*
X76472148Y-63600000D02*
X76994652Y-63600000D01*
%TO.C,R5*%
X115035064Y-51281000D02*
X114580936Y-51281000D01*
X115035064Y-49811000D02*
X114580936Y-49811000D01*
%TO.C,R13*%
X96747064Y-37873000D02*
X96292936Y-37873000D01*
X96747064Y-39343000D02*
X96292936Y-39343000D01*
D10*
%TO.C,L1*%
X58938000Y-43222000D02*
X58938000Y-45202000D01*
X66538000Y-45202000D02*
X66538000Y-43222000D01*
X58938000Y-45202000D02*
X66538000Y-45202000D01*
X66538000Y-37602000D02*
X66538000Y-39582000D01*
X58938000Y-39582000D02*
X58938000Y-37602000D01*
X58938000Y-37602000D02*
X66538000Y-37602000D01*
D17*
X57938000Y-41402000D02*
G75*
G03*
X57938000Y-41402000I-100000J0D01*
G01*
D16*
%TO.C,D7*%
X113834200Y-43845600D02*
X113834200Y-45765600D01*
X116519200Y-43845600D02*
X113834200Y-43845600D01*
X113834200Y-45765600D02*
X116519200Y-45765600D01*
%TO.C,R1*%
X68146664Y-27509800D02*
X67692536Y-27509800D01*
X68146664Y-28979800D02*
X67692536Y-28979800D01*
%TO.C,J1*%
X68157600Y-68846600D02*
X66857600Y-68846600D01*
X67857600Y-76346600D02*
X67857600Y-78346600D01*
X67857600Y-78346600D02*
X66557600Y-78346600D01*
X53357600Y-78346600D02*
X53357600Y-69146600D01*
X53357600Y-69146600D02*
X67857600Y-69146600D01*
X68157600Y-70546600D02*
X68157600Y-68846600D01*
X61957600Y-78346600D02*
X53357600Y-78346600D01*
X67857600Y-69146600D02*
X67857600Y-71146600D01*
%TO.C,R3*%
X114174536Y-37923800D02*
X114628664Y-37923800D01*
X114174536Y-39393800D02*
X114628664Y-39393800D01*
%TO.C,R7*%
X114174536Y-43356200D02*
X114628664Y-43356200D01*
X114174536Y-41886200D02*
X114628664Y-41886200D01*
D11*
%TO.C,U2*%
X101600000Y-43193018D02*
X101122703Y-43670315D01*
X111746982Y-53340000D02*
X111340396Y-52933414D01*
X111746982Y-53340000D02*
X111269685Y-53817297D01*
X101600000Y-63486982D02*
X102077297Y-63009685D01*
X91453018Y-53340000D02*
X91930315Y-53817297D01*
X101600000Y-63486982D02*
X101122703Y-63009685D01*
X101600000Y-43193018D02*
X102077297Y-43670315D01*
X91453018Y-53340000D02*
X91930315Y-52862703D01*
X111340396Y-52933414D02*
X112241957Y-52031852D01*
D16*
%TO.C,J3*%
X85030000Y-77216000D02*
X85030000Y-74616000D01*
X125790000Y-79816000D02*
X125790000Y-74616000D01*
X87630000Y-77216000D02*
X85030000Y-77216000D01*
X85030000Y-74616000D02*
X125790000Y-74616000D01*
X87630000Y-79816000D02*
X125790000Y-79816000D01*
X86360000Y-79816000D02*
X85030000Y-79816000D01*
X85030000Y-79816000D02*
X85030000Y-78486000D01*
X87630000Y-79816000D02*
X87630000Y-77216000D01*
%TO.C,D4*%
X66919600Y-31744800D02*
X69604600Y-31744800D01*
X69604600Y-29824800D02*
X66919600Y-29824800D01*
X69604600Y-31744800D02*
X69604600Y-29824800D01*
%TO.C,XTAL1*%
X87513000Y-60040000D02*
X87513000Y-47440000D01*
X82413000Y-47440000D02*
X82413000Y-60040000D01*
X82413000Y-60040000D02*
X87513000Y-60040000D01*
%TO.C,J2*%
X85030000Y-31556000D02*
X85030000Y-30226000D01*
X87630000Y-28956000D02*
X85030000Y-28956000D01*
X85030000Y-28956000D02*
X85030000Y-26356000D01*
X87630000Y-31556000D02*
X87630000Y-28956000D01*
X125790000Y-31556000D02*
X125790000Y-26356000D01*
X86360000Y-31556000D02*
X85030000Y-31556000D01*
X85030000Y-26356000D02*
X125790000Y-26356000D01*
X87630000Y-31556000D02*
X125790000Y-31556000D01*
%TO.C,U1*%
X65368011Y-47858011D02*
X66468011Y-47858011D01*
X65368011Y-57308011D02*
X65368011Y-56358011D01*
X65368011Y-46908011D02*
X65368011Y-47858011D01*
X63868011Y-57308011D02*
X65368011Y-57308011D01*
X65368011Y-56358011D02*
X70493011Y-56358011D01*
X63868011Y-46908011D02*
X65368011Y-46908011D01*
%TO.C,D6*%
X117999000Y-41625400D02*
X120684000Y-41625400D01*
X120684000Y-41625400D02*
X120684000Y-39705400D01*
X120684000Y-39705400D02*
X117999000Y-39705400D01*
%TO.C,R19*%
X83587959Y-65863800D02*
X83133831Y-65863800D01*
X83587959Y-67333800D02*
X83133831Y-67333800D01*
%TO.C,C8*%
X80545000Y-56380748D02*
X80545000Y-56903252D01*
X82015000Y-56380748D02*
X82015000Y-56903252D01*
%TO.C,C4*%
X104234294Y-65231990D02*
X104603761Y-65601457D01*
X105273741Y-64192543D02*
X105643208Y-64562010D01*
%TO.C,C9*%
X113582057Y-57602410D02*
X113212590Y-57232943D01*
X112542610Y-58641857D02*
X112173143Y-58272390D01*
%TO.C,D5*%
X120684000Y-41813600D02*
X117999000Y-41813600D01*
X120684000Y-43733600D02*
X120684000Y-41813600D01*
X117999000Y-43733600D02*
X120684000Y-43733600D01*
%TO.C,R12*%
X96747064Y-41375000D02*
X96292936Y-41375000D01*
X96747064Y-39905000D02*
X96292936Y-39905000D01*
%TO.C,C5*%
X97743990Y-44519457D02*
X98113457Y-44149990D01*
X96704543Y-43480010D02*
X97074010Y-43110543D01*
%TO.C,C1*%
X63747574Y-67644011D02*
X56092011Y-67644011D01*
X64812011Y-59988448D02*
X64812011Y-61774011D01*
X56092011Y-58924011D02*
X56092011Y-61774011D01*
X63747574Y-58924011D02*
X56092011Y-58924011D01*
X66052011Y-65794011D02*
X65052011Y-65794011D01*
X56092011Y-67644011D02*
X56092011Y-64794011D01*
X65552011Y-66294011D02*
X65552011Y-65294011D01*
X64812011Y-66579574D02*
X64812011Y-64794011D01*
X64812011Y-66579574D02*
X63747574Y-67644011D01*
X64812011Y-59988448D02*
X63747574Y-58924011D01*
%TO.C,R16*%
X71143800Y-76503264D02*
X71143800Y-76049136D01*
X69673800Y-76503264D02*
X69673800Y-76049136D01*
D10*
%TO.C,D1*%
X67554011Y-61964011D02*
X67764011Y-61964011D01*
X69904011Y-66294011D02*
X70114011Y-66294011D01*
X70114011Y-66294011D02*
X70114011Y-61964011D01*
X70114011Y-61964011D02*
X69904011Y-61964011D01*
X67554011Y-66294011D02*
X67764011Y-66294011D01*
X67554011Y-61964011D02*
X67554011Y-66294011D01*
D17*
X68834011Y-60229011D02*
G75*
G03*
X68834011Y-60229011I-100000J0D01*
G01*
D16*
%TO.C,C3*%
X106760990Y-62668543D02*
X107130457Y-63038010D01*
X105721543Y-63707990D02*
X106091010Y-64077457D01*
%TO.C,TP2*%
X103951000Y-67183000D02*
G75*
G03*
X103951000Y-67183000I-700000J0D01*
G01*
%TO.C,J5*%
X129146000Y-66361000D02*
X129146000Y-72831000D01*
X125616000Y-67816000D02*
X125616000Y-72831000D01*
X128323530Y-72831000D02*
X129146000Y-72831000D01*
X125616000Y-67816000D02*
X126182529Y-67816000D01*
X127053530Y-72831000D02*
X127708470Y-72831000D01*
X125616000Y-72831000D02*
X126438470Y-72831000D01*
X127309471Y-67816000D02*
X127452529Y-67816000D01*
X127506000Y-66361000D02*
X127708470Y-66361000D01*
X128323530Y-66361000D02*
X129146000Y-66361000D01*
X127506000Y-66492529D02*
X127506000Y-66361000D01*
X125616000Y-66296000D02*
X126746000Y-66296000D01*
X125616000Y-67056000D02*
X125616000Y-66296000D01*
X127506000Y-67762529D02*
X127506000Y-67619471D01*
%TO.C,TP4*%
X123128000Y-66802000D02*
G75*
G03*
X123128000Y-66802000I-700000J0D01*
G01*
%TO.C,R18*%
X83587959Y-69315000D02*
X83133831Y-69315000D01*
X83587959Y-67845000D02*
X83133831Y-67845000D01*
%TO.C,TP5*%
X67121000Y-60071000D02*
G75*
G03*
X67121000Y-60071000I-700000J0D01*
G01*
%TO.C,R8*%
X114174536Y-41375000D02*
X114628664Y-41375000D01*
X114174536Y-39905000D02*
X114628664Y-39905000D01*
%TO.C,C7*%
X82015000Y-50299252D02*
X82015000Y-49776748D01*
X80545000Y-50299252D02*
X80545000Y-49776748D01*
%TO.C,C2*%
X61781574Y-27362011D02*
X56026011Y-27362011D01*
X61781574Y-34182011D02*
X56026011Y-34182011D01*
X62846011Y-28426448D02*
X62846011Y-29712011D01*
X62846011Y-33117574D02*
X62846011Y-31832011D01*
X63479761Y-33013261D02*
X63479761Y-32225761D01*
X56026011Y-34182011D02*
X56026011Y-31832011D01*
X62846011Y-33117574D02*
X61781574Y-34182011D01*
X62846011Y-28426448D02*
X61781574Y-27362011D01*
X56026011Y-27362011D02*
X56026011Y-29712011D01*
X63873511Y-32619511D02*
X63086011Y-32619511D01*
D11*
%TO.C,U4*%
X78408400Y-69543800D02*
X78408400Y-69243800D01*
X75058400Y-66193800D02*
X78408400Y-66193800D01*
X75058400Y-66418800D02*
X73833400Y-66418800D01*
X75058400Y-69543800D02*
X78408400Y-69543800D01*
X75058400Y-69543800D02*
X75058400Y-69243800D01*
X75058400Y-66193800D02*
X75058400Y-66418800D01*
X78408400Y-66193800D02*
X78408400Y-66493800D01*
D10*
%TO.C,S3*%
X121101400Y-35790800D02*
X117201400Y-35790800D01*
X121101400Y-32890800D02*
X121101400Y-33327300D01*
X121101400Y-35354300D02*
X121101400Y-35790800D01*
X117201400Y-33327300D02*
X117201400Y-32890800D01*
X117201400Y-35790800D02*
X117201400Y-35354300D01*
X117201400Y-32890800D02*
X121101400Y-32890800D01*
D17*
X121651400Y-35540800D02*
G75*
G03*
X121651400Y-35540800I-100000J0D01*
G01*
D16*
%TO.C,C16*%
X80423652Y-72896400D02*
X79901148Y-72896400D01*
X80423652Y-71426400D02*
X79901148Y-71426400D01*
D10*
%TO.C,D3*%
X56906000Y-41535000D02*
X56696000Y-41535000D01*
X54346000Y-37205000D02*
X54346000Y-41535000D01*
X54346000Y-41535000D02*
X54556000Y-41535000D01*
X54556000Y-37205000D02*
X54346000Y-37205000D01*
X56906000Y-41535000D02*
X56906000Y-37205000D01*
X56906000Y-37205000D02*
X56696000Y-37205000D01*
D17*
X55826000Y-43270000D02*
G75*
G03*
X55826000Y-43270000I-100000J0D01*
G01*
D16*
%TO.C,C15*%
X76472148Y-65657400D02*
X76994652Y-65657400D01*
X76472148Y-64187400D02*
X76994652Y-64187400D01*
%TO.C,R17*%
X82373800Y-76503264D02*
X82373800Y-76049136D01*
X83843800Y-76503264D02*
X83843800Y-76049136D01*
D10*
%TO.C,S2*%
X121076000Y-39270600D02*
X117176000Y-39270600D01*
X117176000Y-36807100D02*
X117176000Y-36370600D01*
X121076000Y-36370600D02*
X121076000Y-36807100D01*
X117176000Y-39270600D02*
X117176000Y-38834100D01*
X121076000Y-38834100D02*
X121076000Y-39270600D01*
X117176000Y-36370600D02*
X121076000Y-36370600D01*
D17*
X121626000Y-39020600D02*
G75*
G03*
X121626000Y-39020600I-100000J0D01*
G01*
D10*
%TO.C,S1*%
X80597000Y-29258000D02*
X80597000Y-35258000D01*
X74597000Y-29258000D02*
X74597000Y-35258000D01*
X74597000Y-29258000D02*
X80597000Y-29258000D01*
X80597000Y-35258000D02*
X74597000Y-35258000D01*
D17*
X75397000Y-38508000D02*
G75*
G03*
X75397000Y-38508000I-100000J0D01*
G01*
D10*
%TO.C,D2*%
X73285000Y-40122000D02*
X73285000Y-40332000D01*
X73285000Y-42682000D02*
X73285000Y-42472000D01*
X68955000Y-42472000D02*
X68955000Y-42682000D01*
X73285000Y-40122000D02*
X68955000Y-40122000D01*
X68955000Y-40122000D02*
X68955000Y-40332000D01*
X68955000Y-42682000D02*
X73285000Y-42682000D01*
D17*
X75120000Y-41302000D02*
G75*
G03*
X75120000Y-41302000I-100000J0D01*
G01*
D16*
%TO.C,J6*%
X72058800Y-82387194D02*
X81458800Y-82387194D01*
X81458800Y-80487194D02*
X81458800Y-82387194D01*
X81458800Y-76587194D02*
X81458800Y-78587194D01*
X72058800Y-80487194D02*
X72058800Y-82387194D01*
X72058800Y-76587194D02*
X72058800Y-78587194D01*
%TO.C,R6*%
X116351882Y-54733435D02*
X116030765Y-54412318D01*
X115312435Y-55772882D02*
X114991318Y-55451765D01*
%TD*%
M02*
