%TF.GenerationSoftware,KiCad,Pcbnew,(6.0.5)*%
%TF.CreationDate,2022-06-14T16:15:44+07:00*%
%TF.ProjectId,atm128,61746d31-3238-42e6-9b69-6361645f7063,0.0*%
%TF.SameCoordinates,Original*%
%TF.FileFunction,Soldermask,Bot*%
%TF.FilePolarity,Negative*%
%FSLAX46Y46*%
G04 Gerber Fmt 4.6, Leading zero omitted, Abs format (unit mm)*
G04 Created by KiCad (PCBNEW (6.0.5)) date 2022-06-14 16:15:44*
%MOMM*%
%LPD*%
G01*
G04 APERTURE LIST*
%ADD10O,1.200000X1.900000*%
%ADD11C,1.450000*%
%ADD12R,2.000000X4.600000*%
%ADD13O,2.000000X4.200000*%
%ADD14O,4.200000X2.000000*%
%ADD15R,1.700000X1.700000*%
%ADD16O,1.700000X1.700000*%
%ADD17R,1.000000X1.000000*%
%ADD18O,1.000000X1.000000*%
G04 APERTURE END LIST*
D10*
%TO.C,J6*%
X73520000Y-78877500D03*
D11*
X79520000Y-76177500D03*
X74520000Y-76177500D03*
D10*
X80520000Y-78877500D03*
%TD*%
D12*
%TO.C,J1*%
X67818000Y-73771989D03*
D13*
X61518000Y-73771989D03*
D14*
X64918000Y-78571989D03*
%TD*%
D15*
%TO.C,J3*%
X86359989Y-78740000D03*
D16*
X86359989Y-76200000D03*
X88899989Y-78740000D03*
X88899989Y-76200000D03*
X91439989Y-78740000D03*
X91439989Y-76200000D03*
X93979989Y-78740000D03*
X93979989Y-76200000D03*
X96519989Y-78740000D03*
X96519989Y-76200000D03*
X99059989Y-78740000D03*
X99059989Y-76200000D03*
X101599989Y-78740000D03*
X101599989Y-76200000D03*
X104139989Y-78740000D03*
X104139989Y-76200000D03*
X106679989Y-78740000D03*
X106679989Y-76200000D03*
X109219989Y-78740000D03*
X109219989Y-76200000D03*
X111759989Y-78740000D03*
X111759989Y-76200000D03*
X114299989Y-78740000D03*
X114299989Y-76200000D03*
X116839989Y-78740000D03*
X116839989Y-76200000D03*
X119379989Y-78740000D03*
X119379989Y-76200000D03*
X121919989Y-78740000D03*
X121919989Y-76200000D03*
X124459989Y-78740000D03*
X124459989Y-76200000D03*
%TD*%
D15*
%TO.C,J2*%
X86360000Y-30226000D03*
D16*
X86360000Y-27686000D03*
X88900000Y-30226000D03*
X88900000Y-27686000D03*
X91440000Y-30226000D03*
X91440000Y-27686000D03*
X93980000Y-30226000D03*
X93980000Y-27686000D03*
X96520000Y-30226000D03*
X96520000Y-27686000D03*
X99060000Y-30226000D03*
X99060000Y-27686000D03*
X101600000Y-30226000D03*
X101600000Y-27686000D03*
X104140000Y-30226000D03*
X104140000Y-27686000D03*
X106680000Y-30226000D03*
X106680000Y-27686000D03*
X109220000Y-30226000D03*
X109220000Y-27686000D03*
X111760000Y-30226000D03*
X111760000Y-27686000D03*
X114300000Y-30226000D03*
X114300000Y-27686000D03*
X116840000Y-30226000D03*
X116840000Y-27686000D03*
X119380000Y-30226000D03*
X119380000Y-27686000D03*
X121920000Y-30226000D03*
X121920000Y-27686000D03*
X124460000Y-30226000D03*
X124460000Y-27686000D03*
%TD*%
D17*
%TO.C,J5*%
X126746000Y-67056000D03*
D18*
X128016000Y-67056000D03*
X126746000Y-68326000D03*
X128016000Y-68326000D03*
X126746000Y-69596000D03*
X128016000Y-69596000D03*
X126746000Y-70866000D03*
X128016000Y-70866000D03*
X126746000Y-72136000D03*
X128016000Y-72136000D03*
%TD*%
D15*
%TO.C,J4*%
X127711200Y-61061600D03*
D16*
X127711200Y-58521600D03*
X127711200Y-55981600D03*
X127711200Y-53441600D03*
X127711200Y-50901600D03*
X127711200Y-48361600D03*
%TD*%
M02*
