%TF.GenerationSoftware,KiCad,Pcbnew,(6.0.5)*%
%TF.CreationDate,2022-06-14T16:15:44+07:00*%
%TF.ProjectId,atm128,61746d31-3238-42e6-9b69-6361645f7063,0.0*%
%TF.SameCoordinates,Original*%
%TF.FileFunction,Copper,L2,Bot*%
%TF.FilePolarity,Positive*%
%FSLAX46Y46*%
G04 Gerber Fmt 4.6, Leading zero omitted, Abs format (unit mm)*
G04 Created by KiCad (PCBNEW (6.0.5)) date 2022-06-14 16:15:44*
%MOMM*%
%LPD*%
G01*
G04 APERTURE LIST*
%TA.AperFunction,ComponentPad*%
%ADD10O,1.200000X1.900000*%
%TD*%
%TA.AperFunction,ComponentPad*%
%ADD11C,1.450000*%
%TD*%
%TA.AperFunction,ComponentPad*%
%ADD12R,2.000000X4.600000*%
%TD*%
%TA.AperFunction,ComponentPad*%
%ADD13O,2.000000X4.200000*%
%TD*%
%TA.AperFunction,ComponentPad*%
%ADD14O,4.200000X2.000000*%
%TD*%
%TA.AperFunction,ComponentPad*%
%ADD15R,1.700000X1.700000*%
%TD*%
%TA.AperFunction,ComponentPad*%
%ADD16O,1.700000X1.700000*%
%TD*%
%TA.AperFunction,ComponentPad*%
%ADD17R,1.000000X1.000000*%
%TD*%
%TA.AperFunction,ComponentPad*%
%ADD18O,1.000000X1.000000*%
%TD*%
%TA.AperFunction,ViaPad*%
%ADD19C,0.660400*%
%TD*%
%TA.AperFunction,ViaPad*%
%ADD20C,0.914400*%
%TD*%
%TA.AperFunction,ViaPad*%
%ADD21C,0.762000*%
%TD*%
%TA.AperFunction,ViaPad*%
%ADD22C,0.508000*%
%TD*%
%TA.AperFunction,ViaPad*%
%ADD23C,1.168400*%
%TD*%
%TA.AperFunction,ViaPad*%
%ADD24C,0.800000*%
%TD*%
%TA.AperFunction,Conductor*%
%ADD25C,0.250000*%
%TD*%
%TA.AperFunction,Conductor*%
%ADD26C,0.381000*%
%TD*%
%TA.AperFunction,Conductor*%
%ADD27C,1.524000*%
%TD*%
%TA.AperFunction,Conductor*%
%ADD28C,1.270000*%
%TD*%
%TA.AperFunction,Conductor*%
%ADD29C,1.016000*%
%TD*%
%TA.AperFunction,Conductor*%
%ADD30C,0.508000*%
%TD*%
%TA.AperFunction,Conductor*%
%ADD31C,0.254000*%
%TD*%
G04 APERTURE END LIST*
D10*
%TO.P,J6,6,Shield*%
%TO.N,GND*%
X73520000Y-78877500D03*
D11*
X79520000Y-76177500D03*
X74520000Y-76177500D03*
D10*
X80520000Y-78877500D03*
%TD*%
D12*
%TO.P,J1,1*%
%TO.N,/p*%
X67818000Y-73771989D03*
D13*
%TO.P,J1,2*%
%TO.N,GND*%
X61518000Y-73771989D03*
D14*
%TO.P,J1,3*%
X64918000Y-78571989D03*
%TD*%
D15*
%TO.P,J3,1,Pin_1*%
%TO.N,+5V*%
X86359989Y-78740000D03*
D16*
%TO.P,J3,2,Pin_2*%
%TO.N,GND*%
X86359989Y-76200000D03*
%TO.P,J3,3,Pin_3*%
%TO.N,/PC0*%
X88899989Y-78740000D03*
%TO.P,J3,4,Pin_4*%
%TO.N,/PC1*%
X88899989Y-76200000D03*
%TO.P,J3,5,Pin_5*%
%TO.N,/PC2*%
X91439989Y-78740000D03*
%TO.P,J3,6,Pin_6*%
%TO.N,/PC3*%
X91439989Y-76200000D03*
%TO.P,J3,7,Pin_7*%
%TO.N,/PC4*%
X93979989Y-78740000D03*
%TO.P,J3,8,Pin_8*%
%TO.N,/PC5*%
X93979989Y-76200000D03*
%TO.P,J3,9,Pin_9*%
%TO.N,/PC6*%
X96519989Y-78740000D03*
%TO.P,J3,10,Pin_10*%
%TO.N,/PC7*%
X96519989Y-76200000D03*
%TO.P,J3,11,Pin_11*%
%TO.N,+5V*%
X99059989Y-78740000D03*
%TO.P,J3,12,Pin_12*%
%TO.N,GND*%
X99059989Y-76200000D03*
%TO.P,J3,13,Pin_13*%
%TO.N,/PA6*%
X101599989Y-78740000D03*
%TO.P,J3,14,Pin_14*%
%TO.N,/PA7*%
X101599989Y-76200000D03*
%TO.P,J3,15,Pin_15*%
%TO.N,/PA4*%
X104139989Y-78740000D03*
%TO.P,J3,16,Pin_16*%
%TO.N,/PA5*%
X104139989Y-76200000D03*
%TO.P,J3,17,Pin_17*%
%TO.N,/PA2*%
X106679989Y-78740000D03*
%TO.P,J3,18,Pin_18*%
%TO.N,/PA3*%
X106679989Y-76200000D03*
%TO.P,J3,19,Pin_19*%
%TO.N,/PA0*%
X109219989Y-78740000D03*
%TO.P,J3,20,Pin_20*%
%TO.N,/PA1*%
X109219989Y-76200000D03*
%TO.P,J3,21,Pin_21*%
%TO.N,+5V*%
X111759989Y-78740000D03*
%TO.P,J3,22,Pin_22*%
%TO.N,GND*%
X111759989Y-76200000D03*
%TO.P,J3,23,Pin_23*%
%TO.N,/jtag_TDO*%
X114299989Y-78740000D03*
%TO.P,J3,24,Pin_24*%
%TO.N,/jtag_TDI*%
X114299989Y-76200000D03*
%TO.P,J3,25,Pin_25*%
%TO.N,/jtag_TCK*%
X116839989Y-78740000D03*
%TO.P,J3,26,Pin_26*%
%TO.N,/jtag_TMS*%
X116839989Y-76200000D03*
%TO.P,J3,27,Pin_27*%
%TO.N,/PF2*%
X119379989Y-78740000D03*
%TO.P,J3,28,Pin_28*%
%TO.N,/PF3*%
X119379989Y-76200000D03*
%TO.P,J3,29,Pin_29*%
%TO.N,/PF0*%
X121919989Y-78740000D03*
%TO.P,J3,30,Pin_30*%
%TO.N,/PF1*%
X121919989Y-76200000D03*
%TO.P,J3,31,Pin_31*%
%TO.N,+5V*%
X124459989Y-78740000D03*
%TO.P,J3,32,Pin_32*%
%TO.N,GND*%
X124459989Y-76200000D03*
%TD*%
D15*
%TO.P,J2,1,Pin_1*%
%TO.N,+5V*%
X86360000Y-30226000D03*
D16*
%TO.P,J2,2,Pin_2*%
%TO.N,GND*%
X86360000Y-27686000D03*
%TO.P,J2,3,Pin_3*%
%TO.N,/PD6*%
X88900000Y-30226000D03*
%TO.P,J2,4,Pin_4*%
%TO.N,/PD7*%
X88900000Y-27686000D03*
%TO.P,J2,5,Pin_5*%
%TO.N,/PD4*%
X91440000Y-30226000D03*
%TO.P,J2,6,Pin_6*%
%TO.N,/PD5*%
X91440000Y-27686000D03*
%TO.P,J2,7,Pin_7*%
%TO.N,/RXD1*%
X93980000Y-30226000D03*
%TO.P,J2,8,Pin_8*%
%TO.N,/TXD1*%
X93980000Y-27686000D03*
%TO.P,J2,9,Pin_9*%
%TO.N,/PD0*%
X96520000Y-30226000D03*
%TO.P,J2,10,Pin_10*%
%TO.N,/PD1*%
X96520000Y-27686000D03*
%TO.P,J2,11,Pin_11*%
%TO.N,+5V*%
X99060000Y-30226000D03*
%TO.P,J2,12,Pin_12*%
%TO.N,GND*%
X99060000Y-27686000D03*
%TO.P,J2,13,Pin_13*%
%TO.N,/PB6*%
X101600000Y-30226000D03*
%TO.P,J2,14,Pin_14*%
%TO.N,/PB7*%
X101600000Y-27686000D03*
%TO.P,J2,15,Pin_15*%
%TO.N,/PB4*%
X104140000Y-30226000D03*
%TO.P,J2,16,Pin_16*%
%TO.N,/PB5*%
X104140000Y-27686000D03*
%TO.P,J2,17,Pin_17*%
%TO.N,/SPI_MOSI*%
X106680000Y-30226000D03*
%TO.P,J2,18,Pin_18*%
%TO.N,/SPI_MISO*%
X106680000Y-27686000D03*
%TO.P,J2,19,Pin_19*%
%TO.N,/{slash}SPI_SS*%
X109220000Y-30226000D03*
%TO.P,J2,20,Pin_20*%
%TO.N,/SPI_SCK*%
X109220000Y-27686000D03*
%TO.P,J2,21,Pin_21*%
%TO.N,+5V*%
X111760000Y-30226000D03*
%TO.P,J2,22,Pin_22*%
%TO.N,GND*%
X111760000Y-27686000D03*
%TO.P,J2,23,Pin_23*%
%TO.N,+5V*%
X114300000Y-30226000D03*
%TO.P,J2,24,Pin_24*%
%TO.N,GND*%
X114300000Y-27686000D03*
%TO.P,J2,25,Pin_25*%
%TO.N,+5V*%
X116840000Y-30226000D03*
%TO.P,J2,26,Pin_26*%
%TO.N,GND*%
X116840000Y-27686000D03*
%TO.P,J2,27,Pin_27*%
%TO.N,+5V*%
X119380000Y-30226000D03*
%TO.P,J2,28,Pin_28*%
%TO.N,GND*%
X119380000Y-27686000D03*
%TO.P,J2,29,Pin_29*%
%TO.N,+5V*%
X121920000Y-30226000D03*
%TO.P,J2,30,Pin_30*%
%TO.N,GND*%
X121920000Y-27686000D03*
%TO.P,J2,31,Pin_31*%
%TO.N,+5V*%
X124460000Y-30226000D03*
%TO.P,J2,32,Pin_32*%
%TO.N,GND*%
X124460000Y-27686000D03*
%TD*%
D17*
%TO.P,J5,1,Pin_1*%
%TO.N,/jtag_TCK*%
X126746000Y-67056000D03*
D18*
%TO.P,J5,2,Pin_2*%
%TO.N,/jtag_TDO*%
X128016000Y-67056000D03*
%TO.P,J5,3,Pin_3*%
%TO.N,/jtag_TMS*%
X126746000Y-68326000D03*
%TO.P,J5,4,Pin_4*%
%TO.N,unconnected-(J5-Pad4)*%
X128016000Y-68326000D03*
%TO.P,J5,5,Pin_5*%
%TO.N,/jtag_TDI*%
X126746000Y-69596000D03*
%TO.P,J5,6,Pin_6*%
%TO.N,GND*%
X128016000Y-69596000D03*
%TO.P,J5,7,Pin_7*%
%TO.N,unconnected-(J5-Pad7)*%
X126746000Y-70866000D03*
%TO.P,J5,8,Pin_8*%
%TO.N,/{slash}reset*%
X128016000Y-70866000D03*
%TO.P,J5,9,Pin_9*%
%TO.N,+5V*%
X126746000Y-72136000D03*
%TO.P,J5,10,Pin_10*%
%TO.N,GND*%
X128016000Y-72136000D03*
%TD*%
D15*
%TO.P,J4,1,Pin_1*%
%TO.N,+5V*%
X127711200Y-61061600D03*
D16*
%TO.P,J4,2,Pin_2*%
%TO.N,GND*%
X127711200Y-58521600D03*
%TO.P,J4,3,Pin_3*%
%TO.N,/RXD0*%
X127711200Y-55981600D03*
%TO.P,J4,4,Pin_4*%
%TO.N,/SPI_SCK*%
X127711200Y-53441600D03*
%TO.P,J4,5,Pin_5*%
%TO.N,/TXD0*%
X127711200Y-50901600D03*
%TO.P,J4,6,Pin_6*%
%TO.N,/{slash}reset*%
X127711200Y-48361600D03*
%TD*%
D19*
%TO.N,GND*%
X105537000Y-55880000D03*
X99187000Y-57150000D03*
D20*
X56769000Y-61341000D03*
X121666000Y-34290000D03*
D19*
X99060000Y-54610000D03*
X56515000Y-48641000D03*
D21*
X68072000Y-47498000D03*
D19*
X59690000Y-54229000D03*
X100330000Y-50800000D03*
D20*
X105410000Y-66802000D03*
X104267000Y-59436000D03*
X56769000Y-65151000D03*
D21*
X98552000Y-47447200D03*
X69342000Y-47498000D03*
D20*
X121920000Y-58420000D03*
D22*
X77597000Y-71247000D03*
X79375000Y-46990000D03*
D19*
X59690000Y-47498000D03*
D22*
X88900000Y-55880000D03*
D20*
X79832200Y-51003200D03*
X57150000Y-37211000D03*
D22*
X79375000Y-57150000D03*
D19*
X101727000Y-57150000D03*
X58420000Y-49784000D03*
X57150000Y-54229000D03*
D22*
X85090000Y-33020000D03*
D21*
X86741000Y-61468000D03*
D19*
X58420000Y-54229000D03*
D20*
X109575600Y-54000400D03*
X123190000Y-57150000D03*
D19*
X57150000Y-49784000D03*
X55880000Y-47498000D03*
D20*
X75311000Y-29210000D03*
D21*
X86741000Y-66929000D03*
D19*
X107950000Y-53340000D03*
X55880000Y-56515000D03*
D22*
X86360000Y-44450000D03*
D19*
X55880000Y-51816000D03*
X101727000Y-54610000D03*
D22*
X85090000Y-35560000D03*
X85090000Y-38100000D03*
D19*
X60325000Y-48641000D03*
X58420000Y-47498000D03*
X60960000Y-47498000D03*
X57785000Y-55372000D03*
D20*
X71120000Y-52070000D03*
D19*
X59690000Y-49784000D03*
X60960000Y-51816000D03*
X62230000Y-47498000D03*
X60960000Y-54229000D03*
D22*
X71755000Y-53340000D03*
D19*
X60960000Y-49784000D03*
X60325000Y-50800000D03*
X117856000Y-52324000D03*
D21*
X66548000Y-47498000D03*
D22*
X83947000Y-41910000D03*
D19*
X60960000Y-56515000D03*
D21*
X115722400Y-57912000D03*
D19*
X61595000Y-55372000D03*
D22*
X85090000Y-43180000D03*
X77597000Y-70358000D03*
D19*
X117983000Y-53467000D03*
X62230000Y-51816000D03*
D22*
X82550000Y-40640000D03*
D19*
X57785000Y-52959000D03*
X104140000Y-52070000D03*
X55245000Y-48641000D03*
X104140000Y-54610000D03*
D20*
X74168000Y-27686000D03*
D19*
X57150000Y-47498000D03*
X104140000Y-57150000D03*
X100330000Y-53340000D03*
D22*
X82423000Y-45720000D03*
D19*
X56515000Y-52959000D03*
X57785000Y-50800000D03*
X61595000Y-50800000D03*
X55245000Y-52959000D03*
X57785000Y-48641000D03*
X55245000Y-50800000D03*
X59690000Y-56515000D03*
D22*
X72517000Y-51562000D03*
D21*
X115570000Y-45923200D03*
D19*
X56515000Y-55372000D03*
X62230000Y-54229000D03*
X62230000Y-49784000D03*
D22*
X76835000Y-67691000D03*
D19*
X59690000Y-51816000D03*
D20*
X76581000Y-27686000D03*
D22*
X81280000Y-41910000D03*
X83820000Y-34290000D03*
X82550000Y-35560000D03*
D19*
X58420000Y-51816000D03*
D22*
X88900000Y-57150000D03*
D20*
X121920000Y-55880000D03*
D22*
X79756000Y-62992000D03*
D19*
X100330000Y-58420000D03*
X61595000Y-52959000D03*
D22*
X86360000Y-39370000D03*
X79375000Y-48895000D03*
D20*
X56769000Y-32131000D03*
X122834800Y-42900600D03*
D19*
X55245000Y-55372000D03*
X60325000Y-52959000D03*
X61595000Y-48641000D03*
D22*
X79375000Y-52451000D03*
D20*
X116433600Y-52324000D03*
D22*
X81280000Y-44450000D03*
D19*
X104140000Y-49657000D03*
D22*
X79756000Y-61849000D03*
D20*
X98806000Y-42418000D03*
X65786000Y-28194000D03*
D19*
X100330000Y-55880000D03*
D22*
X72517000Y-52578000D03*
X77597000Y-69469000D03*
D20*
X108331000Y-64008000D03*
D19*
X57150000Y-56515000D03*
X58420000Y-56515000D03*
X106680000Y-52070000D03*
D20*
X80010000Y-55702200D03*
X120650000Y-57150000D03*
D22*
X88900000Y-58420000D03*
D19*
X99060000Y-52070000D03*
D22*
X83820000Y-36830000D03*
D20*
X55626000Y-35560000D03*
D19*
X62230000Y-56515000D03*
X101600000Y-52070000D03*
D22*
X82550000Y-43180000D03*
D19*
X57150000Y-51816000D03*
D20*
X73787000Y-36830000D03*
D22*
X79375000Y-59055000D03*
D20*
X121666000Y-37820600D03*
D22*
X77597000Y-67056000D03*
D19*
X55880000Y-49784000D03*
X55880000Y-54229000D03*
X56515000Y-50800000D03*
D22*
X83820000Y-44450000D03*
X77597000Y-72136000D03*
X88900000Y-50800000D03*
X80137000Y-60579000D03*
D20*
X122809000Y-40767000D03*
D21*
X114325400Y-59436000D03*
D19*
X105410000Y-53340000D03*
X60325000Y-55372000D03*
D22*
X79375000Y-54102000D03*
X82550000Y-33020000D03*
D19*
X106680000Y-54610000D03*
X116713000Y-53467000D03*
D20*
%TO.N,+5V*%
X117221000Y-56642000D03*
D23*
X103251000Y-65532000D03*
X72009000Y-73660000D03*
D20*
%TO.N,/XTAL1*%
X86360000Y-51816000D03*
D21*
X97282000Y-49022000D03*
%TO.N,/XTAL2*%
X97536000Y-50419000D03*
D20*
X86360000Y-55118000D03*
D21*
%TO.N,/RXD0*%
X122580400Y-46964600D03*
D24*
%TO.N,/SPI_SCK*%
X119126000Y-49784000D03*
X106426000Y-49784000D03*
D21*
%TO.N,/TXD0*%
X122605800Y-44881800D03*
D24*
%TO.N,/{slash}reset*%
X99568000Y-46228000D03*
D21*
X81280000Y-27686000D03*
D24*
X111252000Y-48260000D03*
D21*
X81280000Y-36830000D03*
D19*
%TO.N,/jtag_TCK*%
X118110000Y-70866000D03*
%TO.N,/jtag_TDO*%
X115570000Y-69723000D03*
%TO.N,/jtag_TMS*%
X116839989Y-72135989D03*
D21*
%TO.N,/PA1*%
X109220000Y-68326000D03*
X102362000Y-61468000D03*
%TO.N,/PA0*%
X109347000Y-67310000D03*
X102108000Y-60071000D03*
%TO.N,/RXD1*%
X97028000Y-56134000D03*
X84201000Y-72771000D03*
%TO.N,/TXD1*%
X84201000Y-70866000D03*
X96012000Y-54991000D03*
%TD*%
D25*
%TO.N,/SPI_SCK*%
X119126000Y-49784000D02*
X106426000Y-49784000D01*
D26*
%TO.N,/{slash}reset*%
X101600000Y-48260000D02*
X99568000Y-46228000D01*
X111252000Y-48260000D02*
X101600000Y-48260000D01*
%TO.N,GND*%
X128524000Y-72136000D02*
X128016000Y-72136000D01*
X128906011Y-69851011D02*
X128906011Y-71753989D01*
X128651000Y-69596000D02*
X128906011Y-69851011D01*
X128906011Y-71753989D02*
X128524000Y-72136000D01*
X128016000Y-69596000D02*
X128651000Y-69596000D01*
D27*
%TO.N,+5V*%
X86360000Y-31750000D02*
X88265000Y-33655000D01*
X120904000Y-48497620D02*
X120904000Y-52959000D01*
X120904000Y-52959000D02*
X117221000Y-56642000D01*
X119380000Y-30226000D02*
X119380000Y-46973620D01*
X86360000Y-30226000D02*
X86360000Y-31750000D01*
D28*
X103251000Y-67437000D02*
X105791000Y-69977000D01*
D27*
X111760000Y-31750000D02*
X111760000Y-30226000D01*
X119405400Y-58826400D02*
X119405400Y-61061600D01*
X117221000Y-56642000D02*
X119405400Y-58826400D01*
X99060000Y-30226000D02*
X99060000Y-33655000D01*
X88265000Y-33655000D02*
X99060000Y-33655000D01*
X109855000Y-33655000D02*
X111442500Y-32067500D01*
D28*
X105791000Y-69977000D02*
X110490000Y-69977000D01*
X103251000Y-65532000D02*
X103251000Y-67437000D01*
D27*
X119380000Y-46973620D02*
X120904000Y-48497620D01*
X79629000Y-73660000D02*
X84709000Y-78740000D01*
X72009000Y-73660000D02*
X79629000Y-73660000D01*
X84709000Y-78740000D02*
X86359989Y-78740000D01*
D29*
X119405400Y-61061600D02*
X127711200Y-61061600D01*
D28*
X110490000Y-69977000D02*
X119405400Y-61061600D01*
D27*
X99060000Y-33655000D02*
X109855000Y-33655000D01*
D26*
%TO.N,/XTAL1*%
X87376000Y-52832000D02*
X93472000Y-52832000D01*
X86360000Y-51816000D02*
X87376000Y-52832000D01*
X93472000Y-52832000D02*
X97282000Y-49022000D01*
%TO.N,/XTAL2*%
X97536000Y-50419000D02*
X93853000Y-54102000D01*
X93853000Y-54102000D02*
X87376000Y-54102000D01*
X87376000Y-54102000D02*
X86360000Y-55118000D01*
%TO.N,/RXD0*%
X125780800Y-55981600D02*
X127711200Y-55981600D01*
X122580400Y-52781200D02*
X125780800Y-55981600D01*
X122580400Y-46964600D02*
X122580400Y-52781200D01*
%TO.N,/TXD0*%
X124104400Y-46380400D02*
X124104400Y-49276000D01*
X125730000Y-50901600D02*
X127711200Y-50901600D01*
X122605800Y-44881800D02*
X124104400Y-46380400D01*
X124104400Y-49276000D02*
X125730000Y-50901600D01*
D30*
%TO.N,/{slash}reset*%
X90678000Y-46228000D02*
X99568000Y-46228000D01*
X81280000Y-27686000D02*
X81280000Y-36830000D01*
X81280000Y-36830000D02*
X90678000Y-46228000D01*
D31*
%TO.N,/jtag_TCK*%
X126746000Y-67056000D02*
X125349000Y-67056000D01*
X125349000Y-67056000D02*
X121539000Y-70866000D01*
X121539000Y-70866000D02*
X118110000Y-70866000D01*
%TO.N,/jtag_TDO*%
X125603000Y-65659000D02*
X121539000Y-69723000D01*
X127326106Y-65659000D02*
X125603000Y-65659000D01*
X128016000Y-66348894D02*
X127326106Y-65659000D01*
X128016000Y-67056000D02*
X128016000Y-66348894D01*
X121539000Y-69723000D02*
X115570000Y-69723000D01*
%TO.N,/jtag_TMS*%
X126746000Y-68326000D02*
X125349000Y-68326000D01*
X125349000Y-68326000D02*
X121539011Y-72135989D01*
X121539011Y-72135989D02*
X116839989Y-72135989D01*
%TO.N,/jtag_TDI*%
X115569989Y-73533011D02*
X114299989Y-74803011D01*
X125349000Y-69596000D02*
X121411989Y-73533011D01*
X126746000Y-69596000D02*
X125349000Y-69596000D01*
X121411989Y-73533011D02*
X115569989Y-73533011D01*
X114299989Y-74803011D02*
X114299989Y-76200000D01*
%TO.N,/PA1*%
X109220000Y-68326000D02*
X102362000Y-61468000D01*
%TO.N,/PA0*%
X102108000Y-60071000D02*
X109347000Y-67310000D01*
D30*
%TO.N,/RXD1*%
X84201000Y-72771000D02*
X97028000Y-59944000D01*
X97028000Y-59944000D02*
X97028000Y-56134000D01*
%TO.N,/TXD1*%
X96012000Y-59055000D02*
X96012000Y-54991000D01*
X84201000Y-70866000D02*
X96012000Y-59055000D01*
%TD*%
%TA.AperFunction,Conductor*%
%TO.N,GND*%
G36*
X126465993Y-25909977D02*
G01*
X126481211Y-25912328D01*
X126481212Y-25912328D01*
X126490081Y-25913698D01*
X126508067Y-25911324D01*
X126531468Y-25910431D01*
X126590874Y-25913698D01*
X126773444Y-25923739D01*
X126787483Y-25925305D01*
X127020834Y-25964694D01*
X127054131Y-25970315D01*
X127067918Y-25973446D01*
X127197885Y-26010750D01*
X127327849Y-26048053D01*
X127341200Y-26052711D01*
X127591126Y-26155969D01*
X127603871Y-26162093D01*
X127840658Y-26292707D01*
X127852637Y-26300221D01*
X128073294Y-26456541D01*
X128084356Y-26465350D01*
X128286111Y-26645414D01*
X128296115Y-26655406D01*
X128476418Y-26856936D01*
X128485241Y-26867987D01*
X128641836Y-27088462D01*
X128649364Y-27100432D01*
X128780261Y-27337053D01*
X128786401Y-27349789D01*
X128889958Y-27599577D01*
X128889964Y-27599592D01*
X128894638Y-27612938D01*
X128969562Y-27872786D01*
X128972706Y-27886547D01*
X129018040Y-28153137D01*
X129018044Y-28153158D01*
X129019627Y-28167204D01*
X129026131Y-28282892D01*
X129032828Y-28402034D01*
X129031527Y-28428489D01*
X129031430Y-28429115D01*
X129030048Y-28437992D01*
X129034175Y-28469549D01*
X129035239Y-28485888D01*
X129035239Y-47480346D01*
X129015237Y-47548467D01*
X128961581Y-47594960D01*
X128891307Y-47605064D01*
X128826727Y-47575570D01*
X128803447Y-47548787D01*
X128803240Y-47548467D01*
X128791214Y-47529877D01*
X128640870Y-47364651D01*
X128636819Y-47361452D01*
X128636815Y-47361448D01*
X128469614Y-47229400D01*
X128469610Y-47229398D01*
X128465559Y-47226198D01*
X128269989Y-47118238D01*
X128265120Y-47116514D01*
X128265116Y-47116512D01*
X128064287Y-47045395D01*
X128064283Y-47045394D01*
X128059412Y-47043669D01*
X128054319Y-47042762D01*
X128054316Y-47042761D01*
X127844573Y-47005400D01*
X127844567Y-47005399D01*
X127839484Y-47004494D01*
X127765652Y-47003592D01*
X127621281Y-47001828D01*
X127621279Y-47001828D01*
X127616111Y-47001765D01*
X127395291Y-47035555D01*
X127182956Y-47104957D01*
X127152643Y-47120737D01*
X127052983Y-47172617D01*
X126984807Y-47208107D01*
X126980674Y-47211210D01*
X126980671Y-47211212D01*
X126810300Y-47339130D01*
X126806165Y-47342235D01*
X126651829Y-47503738D01*
X126648915Y-47508010D01*
X126648914Y-47508011D01*
X126602247Y-47576422D01*
X126525943Y-47688280D01*
X126480118Y-47787003D01*
X126435274Y-47883611D01*
X126431888Y-47890905D01*
X126372189Y-48106170D01*
X126348451Y-48328295D01*
X126348748Y-48333448D01*
X126348748Y-48333451D01*
X126350125Y-48357331D01*
X126361310Y-48551315D01*
X126362447Y-48556361D01*
X126362448Y-48556367D01*
X126385401Y-48658215D01*
X126410422Y-48769239D01*
X126469693Y-48915206D01*
X126488819Y-48962308D01*
X126494466Y-48976216D01*
X126497165Y-48980620D01*
X126599497Y-49147611D01*
X126611187Y-49166688D01*
X126757450Y-49335538D01*
X126929326Y-49478232D01*
X126999795Y-49519411D01*
X127002645Y-49521076D01*
X127051369Y-49572714D01*
X127064440Y-49642497D01*
X127037709Y-49708269D01*
X126997255Y-49741627D01*
X126984807Y-49748107D01*
X126980674Y-49751210D01*
X126980671Y-49751212D01*
X126932343Y-49787498D01*
X126806165Y-49882235D01*
X126651829Y-50043738D01*
X126580975Y-50147607D01*
X126526066Y-50192607D01*
X126476889Y-50202600D01*
X126071725Y-50202600D01*
X126003604Y-50182598D01*
X125982630Y-50165695D01*
X124840305Y-49023370D01*
X124806279Y-48961058D01*
X124803400Y-48934275D01*
X124803400Y-46408989D01*
X124803692Y-46400419D01*
X124807053Y-46351124D01*
X124807053Y-46351120D01*
X124807569Y-46343548D01*
X124796737Y-46281485D01*
X124795775Y-46274964D01*
X124789122Y-46219982D01*
X124789121Y-46219979D01*
X124788209Y-46212440D01*
X124785523Y-46205331D01*
X124784677Y-46201888D01*
X124780814Y-46187763D01*
X124779786Y-46184358D01*
X124778481Y-46176882D01*
X124753165Y-46119210D01*
X124750677Y-46113115D01*
X124731090Y-46061280D01*
X124731089Y-46061278D01*
X124728406Y-46054178D01*
X124724109Y-46047926D01*
X124722466Y-46044783D01*
X124715371Y-46032035D01*
X124713530Y-46028923D01*
X124710477Y-46021967D01*
X124672132Y-45971993D01*
X124668261Y-45966666D01*
X124636881Y-45921007D01*
X124636880Y-45921005D01*
X124632579Y-45914748D01*
X124586720Y-45873889D01*
X124581445Y-45868909D01*
X123520695Y-44808160D01*
X123486670Y-44745848D01*
X123484480Y-44732236D01*
X123481345Y-44702408D01*
X123481345Y-44702407D01*
X123480655Y-44695844D01*
X123422875Y-44518015D01*
X123329385Y-44356085D01*
X123204270Y-44217131D01*
X123053000Y-44107227D01*
X123046972Y-44104543D01*
X123046970Y-44104542D01*
X122888216Y-44033860D01*
X122888214Y-44033860D01*
X122882185Y-44031175D01*
X122790737Y-44011737D01*
X122705747Y-43993672D01*
X122705743Y-43993672D01*
X122699290Y-43992300D01*
X122512310Y-43992300D01*
X122505857Y-43993672D01*
X122505853Y-43993672D01*
X122420862Y-44011738D01*
X122329415Y-44031175D01*
X122323386Y-44033860D01*
X122323384Y-44033860D01*
X122164630Y-44104542D01*
X122164628Y-44104543D01*
X122158600Y-44107227D01*
X122007330Y-44217131D01*
X121882215Y-44356085D01*
X121788725Y-44518015D01*
X121730945Y-44695844D01*
X121711400Y-44881800D01*
X121730945Y-45067756D01*
X121788725Y-45245585D01*
X121882215Y-45407515D01*
X121886633Y-45412422D01*
X121886634Y-45412423D01*
X121934240Y-45465294D01*
X122007330Y-45546469D01*
X122158600Y-45656373D01*
X122164628Y-45659057D01*
X122164630Y-45659058D01*
X122236499Y-45691056D01*
X122329415Y-45732425D01*
X122335864Y-45733796D01*
X122335868Y-45733797D01*
X122407117Y-45748941D01*
X122468762Y-45762044D01*
X122531660Y-45796195D01*
X122595470Y-45860005D01*
X122629496Y-45922317D01*
X122624431Y-45993132D01*
X122581884Y-46049968D01*
X122515364Y-46074779D01*
X122506375Y-46075100D01*
X122486910Y-46075100D01*
X122480457Y-46076472D01*
X122480453Y-46076472D01*
X122395462Y-46094538D01*
X122304015Y-46113975D01*
X122297986Y-46116660D01*
X122297984Y-46116660D01*
X122139230Y-46187342D01*
X122139228Y-46187343D01*
X122133200Y-46190027D01*
X122127859Y-46193907D01*
X122127858Y-46193908D01*
X122102351Y-46212440D01*
X121981930Y-46299931D01*
X121977517Y-46304833D01*
X121977515Y-46304834D01*
X121872060Y-46421954D01*
X121856815Y-46438885D01*
X121763325Y-46600815D01*
X121705545Y-46778644D01*
X121704855Y-46785207D01*
X121704855Y-46785208D01*
X121695648Y-46872807D01*
X121686000Y-46964600D01*
X121686690Y-46971165D01*
X121700039Y-47098166D01*
X121705545Y-47150556D01*
X121712363Y-47171540D01*
X121712713Y-47172617D01*
X121714739Y-47243585D01*
X121678076Y-47304382D01*
X121614363Y-47335706D01*
X121543829Y-47327612D01*
X121503787Y-47300649D01*
X120687403Y-46484264D01*
X120653379Y-46421954D01*
X120650500Y-46395171D01*
X120650500Y-31173328D01*
X120670502Y-31105207D01*
X120724158Y-31058714D01*
X120794432Y-31048610D01*
X120859012Y-31078104D01*
X120871737Y-31090830D01*
X120962865Y-31196031D01*
X120962869Y-31196035D01*
X120966250Y-31199938D01*
X121138126Y-31342632D01*
X121331000Y-31455338D01*
X121539692Y-31535030D01*
X121544760Y-31536061D01*
X121544763Y-31536062D01*
X121652017Y-31557883D01*
X121758597Y-31579567D01*
X121763772Y-31579757D01*
X121763774Y-31579757D01*
X121976673Y-31587564D01*
X121976677Y-31587564D01*
X121981837Y-31587753D01*
X121986957Y-31587097D01*
X121986959Y-31587097D01*
X122198288Y-31560025D01*
X122198289Y-31560025D01*
X122203416Y-31559368D01*
X122208366Y-31557883D01*
X122412429Y-31496661D01*
X122412434Y-31496659D01*
X122417384Y-31495174D01*
X122617994Y-31396896D01*
X122799860Y-31267173D01*
X122958096Y-31109489D01*
X122961116Y-31105287D01*
X123088453Y-30928077D01*
X123089776Y-30929028D01*
X123136645Y-30885857D01*
X123206580Y-30873625D01*
X123272026Y-30901144D01*
X123299875Y-30932994D01*
X123359987Y-31031088D01*
X123506250Y-31199938D01*
X123678126Y-31342632D01*
X123871000Y-31455338D01*
X124079692Y-31535030D01*
X124084760Y-31536061D01*
X124084763Y-31536062D01*
X124192017Y-31557883D01*
X124298597Y-31579567D01*
X124303772Y-31579757D01*
X124303774Y-31579757D01*
X124516673Y-31587564D01*
X124516677Y-31587564D01*
X124521837Y-31587753D01*
X124526957Y-31587097D01*
X124526959Y-31587097D01*
X124738288Y-31560025D01*
X124738289Y-31560025D01*
X124743416Y-31559368D01*
X124748366Y-31557883D01*
X124952429Y-31496661D01*
X124952434Y-31496659D01*
X124957384Y-31495174D01*
X125157994Y-31396896D01*
X125339860Y-31267173D01*
X125498096Y-31109489D01*
X125501116Y-31105287D01*
X125625435Y-30932277D01*
X125628453Y-30928077D01*
X125649320Y-30885857D01*
X125725136Y-30732453D01*
X125725137Y-30732451D01*
X125727430Y-30727811D01*
X125792370Y-30514069D01*
X125821529Y-30292590D01*
X125823156Y-30226000D01*
X125804852Y-30003361D01*
X125750431Y-29786702D01*
X125661354Y-29581840D01*
X125540014Y-29394277D01*
X125389670Y-29229051D01*
X125385619Y-29225852D01*
X125385615Y-29225848D01*
X125218414Y-29093800D01*
X125218410Y-29093798D01*
X125214359Y-29090598D01*
X125172569Y-29067529D01*
X125122598Y-29017097D01*
X125107826Y-28947654D01*
X125132942Y-28881248D01*
X125160294Y-28854641D01*
X125335328Y-28729792D01*
X125343200Y-28723139D01*
X125494052Y-28572812D01*
X125500730Y-28564965D01*
X125625003Y-28392020D01*
X125630313Y-28383183D01*
X125724670Y-28192267D01*
X125728469Y-28182672D01*
X125790377Y-27978910D01*
X125792555Y-27968837D01*
X125793986Y-27957962D01*
X125791775Y-27943778D01*
X125778617Y-27940000D01*
X111632000Y-27940000D01*
X111563879Y-27919998D01*
X111517386Y-27866342D01*
X111506000Y-27814000D01*
X111506000Y-27413885D01*
X112014000Y-27413885D01*
X112018475Y-27429124D01*
X112019865Y-27430329D01*
X112027548Y-27432000D01*
X114027885Y-27432000D01*
X114043124Y-27427525D01*
X114044329Y-27426135D01*
X114046000Y-27418452D01*
X114046000Y-27413885D01*
X114554000Y-27413885D01*
X114558475Y-27429124D01*
X114559865Y-27430329D01*
X114567548Y-27432000D01*
X116567885Y-27432000D01*
X116583124Y-27427525D01*
X116584329Y-27426135D01*
X116586000Y-27418452D01*
X116586000Y-27413885D01*
X117094000Y-27413885D01*
X117098475Y-27429124D01*
X117099865Y-27430329D01*
X117107548Y-27432000D01*
X119107885Y-27432000D01*
X119123124Y-27427525D01*
X119124329Y-27426135D01*
X119126000Y-27418452D01*
X119126000Y-27413885D01*
X119634000Y-27413885D01*
X119638475Y-27429124D01*
X119639865Y-27430329D01*
X119647548Y-27432000D01*
X121647885Y-27432000D01*
X121663124Y-27427525D01*
X121664329Y-27426135D01*
X121666000Y-27418452D01*
X121666000Y-27413885D01*
X122174000Y-27413885D01*
X122178475Y-27429124D01*
X122179865Y-27430329D01*
X122187548Y-27432000D01*
X124187885Y-27432000D01*
X124203124Y-27427525D01*
X124204329Y-27426135D01*
X124206000Y-27418452D01*
X124206000Y-27413885D01*
X124714000Y-27413885D01*
X124718475Y-27429124D01*
X124719865Y-27430329D01*
X124727548Y-27432000D01*
X125778344Y-27432000D01*
X125791875Y-27428027D01*
X125793180Y-27418947D01*
X125751214Y-27251875D01*
X125747894Y-27242124D01*
X125662972Y-27046814D01*
X125658105Y-27037739D01*
X125542426Y-26858926D01*
X125536136Y-26850757D01*
X125392806Y-26693240D01*
X125385273Y-26686215D01*
X125218139Y-26554222D01*
X125209552Y-26548517D01*
X125023117Y-26445599D01*
X125013705Y-26441369D01*
X124812959Y-26370280D01*
X124802988Y-26367646D01*
X124731837Y-26354972D01*
X124718540Y-26356432D01*
X124714000Y-26370989D01*
X124714000Y-27413885D01*
X124206000Y-27413885D01*
X124206000Y-26369102D01*
X124202082Y-26355758D01*
X124187806Y-26353771D01*
X124149324Y-26359660D01*
X124139288Y-26362051D01*
X123936868Y-26428212D01*
X123927359Y-26432209D01*
X123738463Y-26530542D01*
X123729738Y-26536036D01*
X123559433Y-26663905D01*
X123551726Y-26670748D01*
X123404590Y-26824717D01*
X123398104Y-26832727D01*
X123293193Y-26986521D01*
X123238282Y-27031524D01*
X123167757Y-27039695D01*
X123104010Y-27008441D01*
X123083313Y-26983957D01*
X123002427Y-26858926D01*
X122996136Y-26850757D01*
X122852806Y-26693240D01*
X122845273Y-26686215D01*
X122678139Y-26554222D01*
X122669552Y-26548517D01*
X122483117Y-26445599D01*
X122473705Y-26441369D01*
X122272959Y-26370280D01*
X122262988Y-26367646D01*
X122191837Y-26354972D01*
X122178540Y-26356432D01*
X122174000Y-26370989D01*
X122174000Y-27413885D01*
X121666000Y-27413885D01*
X121666000Y-26369102D01*
X121662082Y-26355758D01*
X121647806Y-26353771D01*
X121609324Y-26359660D01*
X121599288Y-26362051D01*
X121396868Y-26428212D01*
X121387359Y-26432209D01*
X121198463Y-26530542D01*
X121189738Y-26536036D01*
X121019433Y-26663905D01*
X121011726Y-26670748D01*
X120864590Y-26824717D01*
X120858104Y-26832727D01*
X120753193Y-26986521D01*
X120698282Y-27031524D01*
X120627757Y-27039695D01*
X120564010Y-27008441D01*
X120543313Y-26983957D01*
X120462427Y-26858926D01*
X120456136Y-26850757D01*
X120312806Y-26693240D01*
X120305273Y-26686215D01*
X120138139Y-26554222D01*
X120129552Y-26548517D01*
X119943117Y-26445599D01*
X119933705Y-26441369D01*
X119732959Y-26370280D01*
X119722988Y-26367646D01*
X119651837Y-26354972D01*
X119638540Y-26356432D01*
X119634000Y-26370989D01*
X119634000Y-27413885D01*
X119126000Y-27413885D01*
X119126000Y-26369102D01*
X119122082Y-26355758D01*
X119107806Y-26353771D01*
X119069324Y-26359660D01*
X119059288Y-26362051D01*
X118856868Y-26428212D01*
X118847359Y-26432209D01*
X118658463Y-26530542D01*
X118649738Y-26536036D01*
X118479433Y-26663905D01*
X118471726Y-26670748D01*
X118324590Y-26824717D01*
X118318104Y-26832727D01*
X118213193Y-26986521D01*
X118158282Y-27031524D01*
X118087757Y-27039695D01*
X118024010Y-27008441D01*
X118003313Y-26983957D01*
X117922427Y-26858926D01*
X117916136Y-26850757D01*
X117772806Y-26693240D01*
X117765273Y-26686215D01*
X117598139Y-26554222D01*
X117589552Y-26548517D01*
X117403117Y-26445599D01*
X117393705Y-26441369D01*
X117192959Y-26370280D01*
X117182988Y-26367646D01*
X117111837Y-26354972D01*
X117098540Y-26356432D01*
X117094000Y-26370989D01*
X117094000Y-27413885D01*
X116586000Y-27413885D01*
X116586000Y-26369102D01*
X116582082Y-26355758D01*
X116567806Y-26353771D01*
X116529324Y-26359660D01*
X116519288Y-26362051D01*
X116316868Y-26428212D01*
X116307359Y-26432209D01*
X116118463Y-26530542D01*
X116109738Y-26536036D01*
X115939433Y-26663905D01*
X115931726Y-26670748D01*
X115784590Y-26824717D01*
X115778104Y-26832727D01*
X115673193Y-26986521D01*
X115618282Y-27031524D01*
X115547757Y-27039695D01*
X115484010Y-27008441D01*
X115463313Y-26983957D01*
X115382427Y-26858926D01*
X115376136Y-26850757D01*
X115232806Y-26693240D01*
X115225273Y-26686215D01*
X115058139Y-26554222D01*
X115049552Y-26548517D01*
X114863117Y-26445599D01*
X114853705Y-26441369D01*
X114652959Y-26370280D01*
X114642988Y-26367646D01*
X114571837Y-26354972D01*
X114558540Y-26356432D01*
X114554000Y-26370989D01*
X114554000Y-27413885D01*
X114046000Y-27413885D01*
X114046000Y-26369102D01*
X114042082Y-26355758D01*
X114027806Y-26353771D01*
X113989324Y-26359660D01*
X113979288Y-26362051D01*
X113776868Y-26428212D01*
X113767359Y-26432209D01*
X113578463Y-26530542D01*
X113569738Y-26536036D01*
X113399433Y-26663905D01*
X113391726Y-26670748D01*
X113244590Y-26824717D01*
X113238104Y-26832727D01*
X113133193Y-26986521D01*
X113078282Y-27031524D01*
X113007757Y-27039695D01*
X112944010Y-27008441D01*
X112923313Y-26983957D01*
X112842427Y-26858926D01*
X112836136Y-26850757D01*
X112692806Y-26693240D01*
X112685273Y-26686215D01*
X112518139Y-26554222D01*
X112509552Y-26548517D01*
X112323117Y-26445599D01*
X112313705Y-26441369D01*
X112112959Y-26370280D01*
X112102988Y-26367646D01*
X112031837Y-26354972D01*
X112018540Y-26356432D01*
X112014000Y-26370989D01*
X112014000Y-27413885D01*
X111506000Y-27413885D01*
X111506000Y-26369102D01*
X111502082Y-26355758D01*
X111487806Y-26353771D01*
X111449324Y-26359660D01*
X111439288Y-26362051D01*
X111236868Y-26428212D01*
X111227359Y-26432209D01*
X111038463Y-26530542D01*
X111029738Y-26536036D01*
X110859433Y-26663905D01*
X110851726Y-26670748D01*
X110704590Y-26824717D01*
X110698109Y-26832722D01*
X110593498Y-26986074D01*
X110538587Y-27031076D01*
X110468062Y-27039247D01*
X110404315Y-27007993D01*
X110383618Y-26983509D01*
X110302822Y-26858617D01*
X110302820Y-26858614D01*
X110300014Y-26854277D01*
X110149670Y-26689051D01*
X110145619Y-26685852D01*
X110145615Y-26685848D01*
X109978414Y-26553800D01*
X109978410Y-26553798D01*
X109974359Y-26550598D01*
X109938028Y-26530542D01*
X109922136Y-26521769D01*
X109778789Y-26442638D01*
X109773920Y-26440914D01*
X109773916Y-26440912D01*
X109573087Y-26369795D01*
X109573083Y-26369794D01*
X109568212Y-26368069D01*
X109563119Y-26367162D01*
X109563116Y-26367161D01*
X109353373Y-26329800D01*
X109353367Y-26329799D01*
X109348284Y-26328894D01*
X109274452Y-26327992D01*
X109130081Y-26326228D01*
X109130079Y-26326228D01*
X109124911Y-26326165D01*
X108904091Y-26359955D01*
X108691756Y-26429357D01*
X108493607Y-26532507D01*
X108489474Y-26535610D01*
X108489471Y-26535612D01*
X108319100Y-26663530D01*
X108314965Y-26666635D01*
X108311393Y-26670373D01*
X108219729Y-26766294D01*
X108160629Y-26828138D01*
X108053201Y-26985621D01*
X107998293Y-27030621D01*
X107927768Y-27038792D01*
X107864021Y-27007538D01*
X107843324Y-26983054D01*
X107762822Y-26858617D01*
X107762820Y-26858614D01*
X107760014Y-26854277D01*
X107609670Y-26689051D01*
X107605619Y-26685852D01*
X107605615Y-26685848D01*
X107438414Y-26553800D01*
X107438410Y-26553798D01*
X107434359Y-26550598D01*
X107398028Y-26530542D01*
X107382136Y-26521769D01*
X107238789Y-26442638D01*
X107233920Y-26440914D01*
X107233916Y-26440912D01*
X107033087Y-26369795D01*
X107033083Y-26369794D01*
X107028212Y-26368069D01*
X107023119Y-26367162D01*
X107023116Y-26367161D01*
X106813373Y-26329800D01*
X106813367Y-26329799D01*
X106808284Y-26328894D01*
X106734452Y-26327992D01*
X106590081Y-26326228D01*
X106590079Y-26326228D01*
X106584911Y-26326165D01*
X106364091Y-26359955D01*
X106151756Y-26429357D01*
X105953607Y-26532507D01*
X105949474Y-26535610D01*
X105949471Y-26535612D01*
X105779100Y-26663530D01*
X105774965Y-26666635D01*
X105771393Y-26670373D01*
X105679729Y-26766294D01*
X105620629Y-26828138D01*
X105513201Y-26985621D01*
X105458293Y-27030621D01*
X105387768Y-27038792D01*
X105324021Y-27007538D01*
X105303324Y-26983054D01*
X105222822Y-26858617D01*
X105222820Y-26858614D01*
X105220014Y-26854277D01*
X105069670Y-26689051D01*
X105065619Y-26685852D01*
X105065615Y-26685848D01*
X104898414Y-26553800D01*
X104898410Y-26553798D01*
X104894359Y-26550598D01*
X104858028Y-26530542D01*
X104842136Y-26521769D01*
X104698789Y-26442638D01*
X104693920Y-26440914D01*
X104693916Y-26440912D01*
X104493087Y-26369795D01*
X104493083Y-26369794D01*
X104488212Y-26368069D01*
X104483119Y-26367162D01*
X104483116Y-26367161D01*
X104273373Y-26329800D01*
X104273367Y-26329799D01*
X104268284Y-26328894D01*
X104194452Y-26327992D01*
X104050081Y-26326228D01*
X104050079Y-26326228D01*
X104044911Y-26326165D01*
X103824091Y-26359955D01*
X103611756Y-26429357D01*
X103413607Y-26532507D01*
X103409474Y-26535610D01*
X103409471Y-26535612D01*
X103239100Y-26663530D01*
X103234965Y-26666635D01*
X103231393Y-26670373D01*
X103139729Y-26766294D01*
X103080629Y-26828138D01*
X102973201Y-26985621D01*
X102918293Y-27030621D01*
X102847768Y-27038792D01*
X102784021Y-27007538D01*
X102763324Y-26983054D01*
X102682822Y-26858617D01*
X102682820Y-26858614D01*
X102680014Y-26854277D01*
X102529670Y-26689051D01*
X102525619Y-26685852D01*
X102525615Y-26685848D01*
X102358414Y-26553800D01*
X102358410Y-26553798D01*
X102354359Y-26550598D01*
X102318028Y-26530542D01*
X102302136Y-26521769D01*
X102158789Y-26442638D01*
X102153920Y-26440914D01*
X102153916Y-26440912D01*
X101953087Y-26369795D01*
X101953083Y-26369794D01*
X101948212Y-26368069D01*
X101943119Y-26367162D01*
X101943116Y-26367161D01*
X101733373Y-26329800D01*
X101733367Y-26329799D01*
X101728284Y-26328894D01*
X101654452Y-26327992D01*
X101510081Y-26326228D01*
X101510079Y-26326228D01*
X101504911Y-26326165D01*
X101284091Y-26359955D01*
X101071756Y-26429357D01*
X100873607Y-26532507D01*
X100869474Y-26535610D01*
X100869471Y-26535612D01*
X100699100Y-26663530D01*
X100694965Y-26666635D01*
X100691393Y-26670373D01*
X100599729Y-26766294D01*
X100540629Y-26828138D01*
X100537720Y-26832403D01*
X100537714Y-26832411D01*
X100513446Y-26867987D01*
X100433204Y-26985618D01*
X100432898Y-26986066D01*
X100377987Y-27031069D01*
X100307462Y-27039240D01*
X100243715Y-27007986D01*
X100223018Y-26983502D01*
X100142426Y-26858926D01*
X100136136Y-26850757D01*
X99992806Y-26693240D01*
X99985273Y-26686215D01*
X99818139Y-26554222D01*
X99809552Y-26548517D01*
X99623117Y-26445599D01*
X99613705Y-26441369D01*
X99412959Y-26370280D01*
X99402988Y-26367646D01*
X99331837Y-26354972D01*
X99318540Y-26356432D01*
X99314000Y-26370989D01*
X99314000Y-27814000D01*
X99293998Y-27882121D01*
X99240342Y-27928614D01*
X99188000Y-27940000D01*
X98932000Y-27940000D01*
X98863879Y-27919998D01*
X98817386Y-27866342D01*
X98806000Y-27814000D01*
X98806000Y-26369102D01*
X98802082Y-26355758D01*
X98787806Y-26353771D01*
X98749324Y-26359660D01*
X98739288Y-26362051D01*
X98536868Y-26428212D01*
X98527359Y-26432209D01*
X98338463Y-26530542D01*
X98329738Y-26536036D01*
X98159433Y-26663905D01*
X98151726Y-26670748D01*
X98004590Y-26824717D01*
X97998109Y-26832722D01*
X97893498Y-26986074D01*
X97838587Y-27031076D01*
X97768062Y-27039247D01*
X97704315Y-27007993D01*
X97683618Y-26983509D01*
X97602822Y-26858617D01*
X97602820Y-26858614D01*
X97600014Y-26854277D01*
X97449670Y-26689051D01*
X97445619Y-26685852D01*
X97445615Y-26685848D01*
X97278414Y-26553800D01*
X97278410Y-26553798D01*
X97274359Y-26550598D01*
X97238028Y-26530542D01*
X97222136Y-26521769D01*
X97078789Y-26442638D01*
X97073920Y-26440914D01*
X97073916Y-26440912D01*
X96873087Y-26369795D01*
X96873083Y-26369794D01*
X96868212Y-26368069D01*
X96863119Y-26367162D01*
X96863116Y-26367161D01*
X96653373Y-26329800D01*
X96653367Y-26329799D01*
X96648284Y-26328894D01*
X96574452Y-26327992D01*
X96430081Y-26326228D01*
X96430079Y-26326228D01*
X96424911Y-26326165D01*
X96204091Y-26359955D01*
X95991756Y-26429357D01*
X95793607Y-26532507D01*
X95789474Y-26535610D01*
X95789471Y-26535612D01*
X95619100Y-26663530D01*
X95614965Y-26666635D01*
X95611393Y-26670373D01*
X95519729Y-26766294D01*
X95460629Y-26828138D01*
X95353201Y-26985621D01*
X95298293Y-27030621D01*
X95227768Y-27038792D01*
X95164021Y-27007538D01*
X95143324Y-26983054D01*
X95062822Y-26858617D01*
X95062820Y-26858614D01*
X95060014Y-26854277D01*
X94909670Y-26689051D01*
X94905619Y-26685852D01*
X94905615Y-26685848D01*
X94738414Y-26553800D01*
X94738410Y-26553798D01*
X94734359Y-26550598D01*
X94698028Y-26530542D01*
X94682136Y-26521769D01*
X94538789Y-26442638D01*
X94533920Y-26440914D01*
X94533916Y-26440912D01*
X94333087Y-26369795D01*
X94333083Y-26369794D01*
X94328212Y-26368069D01*
X94323119Y-26367162D01*
X94323116Y-26367161D01*
X94113373Y-26329800D01*
X94113367Y-26329799D01*
X94108284Y-26328894D01*
X94034452Y-26327992D01*
X93890081Y-26326228D01*
X93890079Y-26326228D01*
X93884911Y-26326165D01*
X93664091Y-26359955D01*
X93451756Y-26429357D01*
X93253607Y-26532507D01*
X93249474Y-26535610D01*
X93249471Y-26535612D01*
X93079100Y-26663530D01*
X93074965Y-26666635D01*
X93071393Y-26670373D01*
X92979729Y-26766294D01*
X92920629Y-26828138D01*
X92813201Y-26985621D01*
X92758293Y-27030621D01*
X92687768Y-27038792D01*
X92624021Y-27007538D01*
X92603324Y-26983054D01*
X92522822Y-26858617D01*
X92522820Y-26858614D01*
X92520014Y-26854277D01*
X92369670Y-26689051D01*
X92365619Y-26685852D01*
X92365615Y-26685848D01*
X92198414Y-26553800D01*
X92198410Y-26553798D01*
X92194359Y-26550598D01*
X92158028Y-26530542D01*
X92142136Y-26521769D01*
X91998789Y-26442638D01*
X91993920Y-26440914D01*
X91993916Y-26440912D01*
X91793087Y-26369795D01*
X91793083Y-26369794D01*
X91788212Y-26368069D01*
X91783119Y-26367162D01*
X91783116Y-26367161D01*
X91573373Y-26329800D01*
X91573367Y-26329799D01*
X91568284Y-26328894D01*
X91494452Y-26327992D01*
X91350081Y-26326228D01*
X91350079Y-26326228D01*
X91344911Y-26326165D01*
X91124091Y-26359955D01*
X90911756Y-26429357D01*
X90713607Y-26532507D01*
X90709474Y-26535610D01*
X90709471Y-26535612D01*
X90539100Y-26663530D01*
X90534965Y-26666635D01*
X90531393Y-26670373D01*
X90439729Y-26766294D01*
X90380629Y-26828138D01*
X90273201Y-26985621D01*
X90218293Y-27030621D01*
X90147768Y-27038792D01*
X90084021Y-27007538D01*
X90063324Y-26983054D01*
X89982822Y-26858617D01*
X89982820Y-26858614D01*
X89980014Y-26854277D01*
X89829670Y-26689051D01*
X89825619Y-26685852D01*
X89825615Y-26685848D01*
X89658414Y-26553800D01*
X89658410Y-26553798D01*
X89654359Y-26550598D01*
X89618028Y-26530542D01*
X89602136Y-26521769D01*
X89458789Y-26442638D01*
X89453920Y-26440914D01*
X89453916Y-26440912D01*
X89253087Y-26369795D01*
X89253083Y-26369794D01*
X89248212Y-26368069D01*
X89243119Y-26367162D01*
X89243116Y-26367161D01*
X89033373Y-26329800D01*
X89033367Y-26329799D01*
X89028284Y-26328894D01*
X88954452Y-26327992D01*
X88810081Y-26326228D01*
X88810079Y-26326228D01*
X88804911Y-26326165D01*
X88584091Y-26359955D01*
X88371756Y-26429357D01*
X88173607Y-26532507D01*
X88169474Y-26535610D01*
X88169471Y-26535612D01*
X87999100Y-26663530D01*
X87994965Y-26666635D01*
X87991393Y-26670373D01*
X87899729Y-26766294D01*
X87840629Y-26828138D01*
X87837720Y-26832403D01*
X87837714Y-26832411D01*
X87813446Y-26867987D01*
X87733204Y-26985618D01*
X87732898Y-26986066D01*
X87677987Y-27031069D01*
X87607462Y-27039240D01*
X87543715Y-27007986D01*
X87523018Y-26983502D01*
X87442426Y-26858926D01*
X87436136Y-26850757D01*
X87292806Y-26693240D01*
X87285273Y-26686215D01*
X87118139Y-26554222D01*
X87109552Y-26548517D01*
X86923117Y-26445599D01*
X86913705Y-26441369D01*
X86712959Y-26370280D01*
X86702988Y-26367646D01*
X86631837Y-26354972D01*
X86618540Y-26356432D01*
X86614000Y-26370989D01*
X86614000Y-27814000D01*
X86593998Y-27882121D01*
X86540342Y-27928614D01*
X86488000Y-27940000D01*
X85043225Y-27940000D01*
X85029694Y-27943973D01*
X85028257Y-27953966D01*
X85058565Y-28088446D01*
X85061645Y-28098275D01*
X85141770Y-28295603D01*
X85146413Y-28304794D01*
X85257694Y-28486388D01*
X85263777Y-28494699D01*
X85403213Y-28655667D01*
X85410577Y-28662879D01*
X85415522Y-28666985D01*
X85455156Y-28725889D01*
X85456653Y-28796870D01*
X85419537Y-28857392D01*
X85379264Y-28881910D01*
X85271705Y-28922232D01*
X85271704Y-28922233D01*
X85263295Y-28925385D01*
X85146739Y-29012739D01*
X85059385Y-29129295D01*
X85008255Y-29265684D01*
X85001500Y-29327866D01*
X85001500Y-31124134D01*
X85008255Y-31186316D01*
X85059385Y-31322705D01*
X85064771Y-31329891D01*
X85069079Y-31337760D01*
X85067759Y-31338483D01*
X85089174Y-31395807D01*
X85089500Y-31404863D01*
X85089500Y-31657819D01*
X85088422Y-31674266D01*
X85085484Y-31696582D01*
X85085749Y-31702194D01*
X85089360Y-31778767D01*
X85089500Y-31784703D01*
X85089500Y-31807535D01*
X85089749Y-31810321D01*
X85089749Y-31810329D01*
X85091845Y-31833813D01*
X85092203Y-31839056D01*
X85096168Y-31923123D01*
X85097418Y-31928582D01*
X85097419Y-31928587D01*
X85100229Y-31940855D01*
X85102910Y-31957786D01*
X85104526Y-31975895D01*
X85106008Y-31981311D01*
X85126728Y-32057052D01*
X85128014Y-32062171D01*
X85146799Y-32144193D01*
X85148999Y-32149350D01*
X85149001Y-32149357D01*
X85153932Y-32160917D01*
X85159569Y-32177104D01*
X85162887Y-32189231D01*
X85164370Y-32194651D01*
X85166785Y-32199714D01*
X85166789Y-32199725D01*
X85200603Y-32270616D01*
X85202772Y-32275418D01*
X85235779Y-32352802D01*
X85238858Y-32357490D01*
X85238859Y-32357491D01*
X85245761Y-32367998D01*
X85254173Y-32382926D01*
X85262007Y-32399351D01*
X85265281Y-32403907D01*
X85265282Y-32403909D01*
X85311113Y-32467689D01*
X85314102Y-32472038D01*
X85349151Y-32525395D01*
X85360293Y-32542358D01*
X85363364Y-32545804D01*
X85363365Y-32545806D01*
X85379027Y-32563383D01*
X85387279Y-32573683D01*
X85394351Y-32583526D01*
X85398380Y-32587430D01*
X85471822Y-32658601D01*
X85473232Y-32659990D01*
X87301437Y-34488195D01*
X87312306Y-34500589D01*
X87322586Y-34513987D01*
X87322591Y-34513993D01*
X87326009Y-34518447D01*
X87330162Y-34522226D01*
X87330163Y-34522227D01*
X87386871Y-34573827D01*
X87391167Y-34577926D01*
X87407304Y-34594063D01*
X87427586Y-34611021D01*
X87431507Y-34614442D01*
X87493752Y-34671081D01*
X87509163Y-34680748D01*
X87523027Y-34690821D01*
X87532680Y-34698893D01*
X87532685Y-34698896D01*
X87536978Y-34702486D01*
X87541841Y-34705260D01*
X87541850Y-34705266D01*
X87610073Y-34744180D01*
X87614601Y-34746890D01*
X87681117Y-34788616D01*
X87681126Y-34788621D01*
X87685874Y-34791599D01*
X87702749Y-34798382D01*
X87718174Y-34805839D01*
X87733978Y-34814854D01*
X87739266Y-34816726D01*
X87739269Y-34816728D01*
X87813327Y-34842953D01*
X87818235Y-34844808D01*
X87896301Y-34876190D01*
X87901796Y-34877328D01*
X87914104Y-34879877D01*
X87930615Y-34884487D01*
X87939333Y-34887574D01*
X87947762Y-34890559D01*
X88019216Y-34902260D01*
X88030803Y-34904157D01*
X88035994Y-34905119D01*
X88113861Y-34921245D01*
X88113865Y-34921245D01*
X88118382Y-34922181D01*
X88122989Y-34922447D01*
X88122992Y-34922447D01*
X88146494Y-34923802D01*
X88159599Y-34925249D01*
X88166027Y-34926301D01*
X88166034Y-34926301D01*
X88171575Y-34927209D01*
X88177188Y-34927121D01*
X88177190Y-34927121D01*
X88279355Y-34925516D01*
X88281334Y-34925500D01*
X99018296Y-34925500D01*
X99025550Y-34925709D01*
X99094463Y-34929683D01*
X99094466Y-34929683D01*
X99100069Y-34930006D01*
X99123908Y-34927121D01*
X99129759Y-34926413D01*
X99144897Y-34925500D01*
X109762819Y-34925500D01*
X109779266Y-34926578D01*
X109796012Y-34928783D01*
X109796016Y-34928783D01*
X109801582Y-34929516D01*
X109883768Y-34925640D01*
X109889703Y-34925500D01*
X109912535Y-34925500D01*
X109915321Y-34925251D01*
X109915329Y-34925251D01*
X109938813Y-34923155D01*
X109944077Y-34922796D01*
X110002108Y-34920059D01*
X110028123Y-34918832D01*
X110033582Y-34917582D01*
X110033587Y-34917581D01*
X110045855Y-34914771D01*
X110062786Y-34912090D01*
X110067363Y-34911682D01*
X110080895Y-34910474D01*
X110162052Y-34888272D01*
X110167171Y-34886986D01*
X110209341Y-34877328D01*
X110249193Y-34868201D01*
X110254350Y-34866001D01*
X110254357Y-34865999D01*
X110265917Y-34861068D01*
X110282104Y-34855431D01*
X110294231Y-34852113D01*
X110294234Y-34852112D01*
X110299651Y-34850630D01*
X110304714Y-34848215D01*
X110304725Y-34848211D01*
X110375616Y-34814397D01*
X110380418Y-34812228D01*
X110457802Y-34779221D01*
X110472998Y-34769239D01*
X110487926Y-34760827D01*
X110504351Y-34752993D01*
X110508909Y-34749718D01*
X110572689Y-34703887D01*
X110577038Y-34700898D01*
X110643502Y-34657240D01*
X110643503Y-34657239D01*
X110647358Y-34654707D01*
X110668386Y-34635970D01*
X110678686Y-34627719D01*
X110683971Y-34623922D01*
X110683972Y-34623921D01*
X110688526Y-34620649D01*
X110763601Y-34543178D01*
X110764990Y-34541768D01*
X112379568Y-32927191D01*
X112381563Y-32925196D01*
X112489986Y-32795522D01*
X112490837Y-32796234D01*
X112510391Y-32775741D01*
X112618990Y-32692411D01*
X112623447Y-32688991D01*
X112651100Y-32658601D01*
X112772308Y-32525395D01*
X112772310Y-32525392D01*
X112776081Y-32521248D01*
X112779062Y-32516496D01*
X112893616Y-32333882D01*
X112893618Y-32333878D01*
X112896599Y-32329126D01*
X112981190Y-32118699D01*
X113027181Y-31896618D01*
X113030500Y-31839056D01*
X113030500Y-31173328D01*
X113050502Y-31105207D01*
X113104158Y-31058714D01*
X113174432Y-31048610D01*
X113239012Y-31078104D01*
X113251737Y-31090830D01*
X113342865Y-31196031D01*
X113342869Y-31196035D01*
X113346250Y-31199938D01*
X113518126Y-31342632D01*
X113711000Y-31455338D01*
X113919692Y-31535030D01*
X113924760Y-31536061D01*
X113924763Y-31536062D01*
X114032017Y-31557883D01*
X114138597Y-31579567D01*
X114143772Y-31579757D01*
X114143774Y-31579757D01*
X114356673Y-31587564D01*
X114356677Y-31587564D01*
X114361837Y-31587753D01*
X114366957Y-31587097D01*
X114366959Y-31587097D01*
X114578288Y-31560025D01*
X114578289Y-31560025D01*
X114583416Y-31559368D01*
X114588366Y-31557883D01*
X114792429Y-31496661D01*
X114792434Y-31496659D01*
X114797384Y-31495174D01*
X114997994Y-31396896D01*
X115179860Y-31267173D01*
X115338096Y-31109489D01*
X115341116Y-31105287D01*
X115468453Y-30928077D01*
X115469776Y-30929028D01*
X115516645Y-30885857D01*
X115586580Y-30873625D01*
X115652026Y-30901144D01*
X115679875Y-30932994D01*
X115739987Y-31031088D01*
X115886250Y-31199938D01*
X116058126Y-31342632D01*
X116251000Y-31455338D01*
X116459692Y-31535030D01*
X116464760Y-31536061D01*
X116464763Y-31536062D01*
X116572017Y-31557883D01*
X116678597Y-31579567D01*
X116683772Y-31579757D01*
X116683774Y-31579757D01*
X116896673Y-31587564D01*
X116896677Y-31587564D01*
X116901837Y-31587753D01*
X116906957Y-31587097D01*
X116906959Y-31587097D01*
X117118288Y-31560025D01*
X117118289Y-31560025D01*
X117123416Y-31559368D01*
X117128366Y-31557883D01*
X117332429Y-31496661D01*
X117332434Y-31496659D01*
X117337384Y-31495174D01*
X117537994Y-31396896D01*
X117719860Y-31267173D01*
X117878096Y-31109489D01*
X117881112Y-31105291D01*
X117881116Y-31105287D01*
X117881175Y-31105205D01*
X117881207Y-31105180D01*
X117884465Y-31101352D01*
X117885255Y-31102024D01*
X117937168Y-31061555D01*
X118007871Y-31055106D01*
X118070836Y-31087907D01*
X118106073Y-31149542D01*
X118109500Y-31178727D01*
X118109500Y-46881439D01*
X118108422Y-46897886D01*
X118105484Y-46920202D01*
X118107898Y-46971392D01*
X118109360Y-47002387D01*
X118109500Y-47008323D01*
X118109500Y-47031155D01*
X118109749Y-47033941D01*
X118109749Y-47033949D01*
X118111845Y-47057433D01*
X118112204Y-47062697D01*
X118116168Y-47146743D01*
X118117418Y-47152202D01*
X118117419Y-47152207D01*
X118120229Y-47164475D01*
X118122910Y-47181406D01*
X118124526Y-47199515D01*
X118126008Y-47204931D01*
X118146728Y-47280672D01*
X118148014Y-47285791D01*
X118166799Y-47367813D01*
X118168999Y-47372970D01*
X118169001Y-47372977D01*
X118173932Y-47384537D01*
X118179569Y-47400724D01*
X118182887Y-47412851D01*
X118184370Y-47418271D01*
X118186785Y-47423334D01*
X118186789Y-47423345D01*
X118220603Y-47494236D01*
X118222772Y-47499038D01*
X118255779Y-47576422D01*
X118258858Y-47581110D01*
X118258859Y-47581111D01*
X118265761Y-47591618D01*
X118274173Y-47606546D01*
X118282007Y-47622971D01*
X118285281Y-47627527D01*
X118285282Y-47627529D01*
X118331113Y-47691309D01*
X118334102Y-47695658D01*
X118380293Y-47765978D01*
X118383364Y-47769424D01*
X118383365Y-47769426D01*
X118399027Y-47787003D01*
X118407279Y-47797303D01*
X118414351Y-47807146D01*
X118418380Y-47811050D01*
X118491823Y-47882222D01*
X118493233Y-47883611D01*
X119270027Y-48660405D01*
X119304053Y-48722717D01*
X119298988Y-48793532D01*
X119256441Y-48850368D01*
X119189921Y-48875179D01*
X119180932Y-48875500D01*
X119030513Y-48875500D01*
X119024061Y-48876872D01*
X119024056Y-48876872D01*
X118937112Y-48895353D01*
X118843712Y-48915206D01*
X118837682Y-48917891D01*
X118837681Y-48917891D01*
X118675278Y-48990197D01*
X118675276Y-48990198D01*
X118669248Y-48992882D01*
X118663907Y-48996762D01*
X118663906Y-48996763D01*
X118614501Y-49032658D01*
X118514747Y-49105134D01*
X118510332Y-49110037D01*
X118505420Y-49114460D01*
X118504295Y-49113211D01*
X118450986Y-49146051D01*
X118417800Y-49150500D01*
X111955419Y-49150500D01*
X111887298Y-49130498D01*
X111840805Y-49076842D01*
X111830701Y-49006568D01*
X111860195Y-48941988D01*
X111863255Y-48938868D01*
X111863253Y-48938866D01*
X111986621Y-48801852D01*
X111986622Y-48801851D01*
X111991040Y-48796944D01*
X112049314Y-48696010D01*
X112083223Y-48637279D01*
X112083224Y-48637278D01*
X112086527Y-48631556D01*
X112145542Y-48449928D01*
X112158866Y-48323162D01*
X112164814Y-48266565D01*
X112165504Y-48260000D01*
X112163900Y-48244742D01*
X112146232Y-48076635D01*
X112146232Y-48076633D01*
X112145542Y-48070072D01*
X112086527Y-47888444D01*
X111991040Y-47723056D01*
X111985984Y-47717440D01*
X111867675Y-47586045D01*
X111867674Y-47586044D01*
X111863253Y-47581134D01*
X111756727Y-47503738D01*
X111714094Y-47472763D01*
X111714093Y-47472762D01*
X111708752Y-47468882D01*
X111702724Y-47466198D01*
X111702722Y-47466197D01*
X111540319Y-47393891D01*
X111540318Y-47393891D01*
X111534288Y-47391206D01*
X111427324Y-47368470D01*
X111353944Y-47352872D01*
X111353939Y-47352872D01*
X111347487Y-47351500D01*
X111156513Y-47351500D01*
X111150061Y-47352872D01*
X111150056Y-47352872D01*
X111076676Y-47368470D01*
X110969712Y-47391206D01*
X110963682Y-47393891D01*
X110963681Y-47393891D01*
X110801278Y-47466197D01*
X110801276Y-47466198D01*
X110795248Y-47468882D01*
X110789907Y-47472762D01*
X110789906Y-47472763D01*
X110701580Y-47536936D01*
X110634712Y-47560794D01*
X110627519Y-47561000D01*
X101941725Y-47561000D01*
X101873604Y-47540998D01*
X101852630Y-47524095D01*
X100504243Y-46175708D01*
X100470217Y-46113396D01*
X100468028Y-46099783D01*
X100461542Y-46038072D01*
X100402527Y-45856444D01*
X100307040Y-45691056D01*
X100179253Y-45549134D01*
X100034637Y-45444064D01*
X100030094Y-45440763D01*
X100030093Y-45440762D01*
X100024752Y-45436882D01*
X100018724Y-45434198D01*
X100018722Y-45434197D01*
X99856319Y-45361891D01*
X99856318Y-45361891D01*
X99850288Y-45359206D01*
X99756887Y-45339353D01*
X99669944Y-45320872D01*
X99669939Y-45320872D01*
X99663487Y-45319500D01*
X99472513Y-45319500D01*
X99466061Y-45320872D01*
X99466056Y-45320872D01*
X99379113Y-45339353D01*
X99285712Y-45359206D01*
X99279682Y-45361891D01*
X99279681Y-45361891D01*
X99117278Y-45434197D01*
X99117276Y-45434198D01*
X99111248Y-45436882D01*
X99105907Y-45440762D01*
X99105906Y-45440763D01*
X99104980Y-45441436D01*
X99104354Y-45441660D01*
X99100189Y-45444064D01*
X99099749Y-45443302D01*
X99038113Y-45465294D01*
X99030919Y-45465500D01*
X91046028Y-45465500D01*
X90977907Y-45445498D01*
X90956933Y-45428595D01*
X82167810Y-36639472D01*
X82137072Y-36589313D01*
X82099117Y-36472500D01*
X82097075Y-36466215D01*
X82059381Y-36400927D01*
X82042500Y-36337927D01*
X82042500Y-28178073D01*
X82059381Y-28115073D01*
X82093771Y-28055508D01*
X82093772Y-28055507D01*
X82097075Y-28049785D01*
X82154855Y-27871956D01*
X82160947Y-27814000D01*
X82173710Y-27692565D01*
X82174400Y-27686000D01*
X82165318Y-27599592D01*
X82155545Y-27506608D01*
X82155545Y-27506607D01*
X82154855Y-27500044D01*
X82128907Y-27420183D01*
X85024389Y-27420183D01*
X85025912Y-27428607D01*
X85038292Y-27432000D01*
X86087885Y-27432000D01*
X86103124Y-27427525D01*
X86104329Y-27426135D01*
X86106000Y-27418452D01*
X86106000Y-26369102D01*
X86102082Y-26355758D01*
X86087806Y-26353771D01*
X86049324Y-26359660D01*
X86039288Y-26362051D01*
X85836868Y-26428212D01*
X85827359Y-26432209D01*
X85638463Y-26530542D01*
X85629738Y-26536036D01*
X85459433Y-26663905D01*
X85451726Y-26670748D01*
X85304590Y-26824717D01*
X85298104Y-26832727D01*
X85178098Y-27008649D01*
X85173000Y-27017623D01*
X85083338Y-27210783D01*
X85079775Y-27220470D01*
X85024389Y-27420183D01*
X82128907Y-27420183D01*
X82097075Y-27322215D01*
X82003585Y-27160285D01*
X81949673Y-27100410D01*
X81882885Y-27026234D01*
X81882883Y-27026233D01*
X81878470Y-27021331D01*
X81827029Y-26983957D01*
X81732542Y-26915308D01*
X81732541Y-26915307D01*
X81727200Y-26911427D01*
X81721172Y-26908743D01*
X81721170Y-26908742D01*
X81562416Y-26838060D01*
X81562414Y-26838060D01*
X81556385Y-26835375D01*
X81464937Y-26815937D01*
X81379947Y-26797872D01*
X81379943Y-26797872D01*
X81373490Y-26796500D01*
X81186510Y-26796500D01*
X81180057Y-26797872D01*
X81180053Y-26797872D01*
X81095063Y-26815937D01*
X81003615Y-26835375D01*
X80997586Y-26838060D01*
X80997584Y-26838060D01*
X80838830Y-26908742D01*
X80838828Y-26908743D01*
X80832800Y-26911427D01*
X80827459Y-26915307D01*
X80827458Y-26915308D01*
X80732971Y-26983957D01*
X80681530Y-27021331D01*
X80677117Y-27026233D01*
X80677115Y-27026234D01*
X80610327Y-27100410D01*
X80556415Y-27160285D01*
X80462925Y-27322215D01*
X80405145Y-27500044D01*
X80404455Y-27506607D01*
X80404455Y-27506608D01*
X80394682Y-27599592D01*
X80385600Y-27686000D01*
X80386290Y-27692565D01*
X80399054Y-27814000D01*
X80405145Y-27871956D01*
X80462925Y-28049785D01*
X80466228Y-28055507D01*
X80466229Y-28055508D01*
X80500619Y-28115073D01*
X80517500Y-28178073D01*
X80517500Y-36337927D01*
X80500619Y-36400927D01*
X80462925Y-36466215D01*
X80405145Y-36644044D01*
X80385600Y-36830000D01*
X80405145Y-37015956D01*
X80462925Y-37193785D01*
X80556415Y-37355715D01*
X80681530Y-37494669D01*
X80832800Y-37604573D01*
X80838828Y-37607257D01*
X80838830Y-37607258D01*
X80997584Y-37677940D01*
X81003615Y-37680625D01*
X81010070Y-37681997D01*
X81010079Y-37682000D01*
X81028921Y-37686005D01*
X81091818Y-37720156D01*
X90091190Y-46719528D01*
X90103577Y-46733941D01*
X90116546Y-46751564D01*
X90122129Y-46756307D01*
X90157055Y-46785979D01*
X90164571Y-46792909D01*
X90170315Y-46798653D01*
X90173189Y-46800927D01*
X90173196Y-46800933D01*
X90192711Y-46816372D01*
X90196115Y-46819163D01*
X90246472Y-46861945D01*
X90246476Y-46861948D01*
X90252051Y-46866684D01*
X90258568Y-46870012D01*
X90263632Y-46873389D01*
X90268856Y-46876616D01*
X90274600Y-46881160D01*
X90281231Y-46884259D01*
X90341082Y-46912232D01*
X90345033Y-46914163D01*
X90378298Y-46931149D01*
X90410404Y-46947543D01*
X90417519Y-46949284D01*
X90423265Y-46951421D01*
X90429048Y-46953345D01*
X90435679Y-46956444D01*
X90507557Y-46971394D01*
X90511829Y-46972361D01*
X90583112Y-46989804D01*
X90588711Y-46990151D01*
X90588715Y-46990152D01*
X90594330Y-46990500D01*
X90594328Y-46990539D01*
X90598229Y-46990772D01*
X90602588Y-46991161D01*
X90609756Y-46992652D01*
X90617073Y-46992454D01*
X90687577Y-46990546D01*
X90690986Y-46990500D01*
X99030919Y-46990500D01*
X99099040Y-47010502D01*
X99104980Y-47014564D01*
X99111248Y-47019118D01*
X99117276Y-47021802D01*
X99117278Y-47021803D01*
X99279681Y-47094109D01*
X99285712Y-47096794D01*
X99455631Y-47132912D01*
X99518528Y-47167063D01*
X101085503Y-48734038D01*
X101091356Y-48740303D01*
X101128842Y-48783274D01*
X101155276Y-48801852D01*
X101180378Y-48819494D01*
X101185674Y-48823427D01*
X101229263Y-48857606D01*
X101229266Y-48857608D01*
X101235240Y-48862292D01*
X101242164Y-48865418D01*
X101245199Y-48867256D01*
X101257898Y-48874500D01*
X101261046Y-48876188D01*
X101267261Y-48880556D01*
X101325950Y-48903438D01*
X101331995Y-48905978D01*
X101389435Y-48931913D01*
X101396908Y-48933298D01*
X101400326Y-48934369D01*
X101414315Y-48938354D01*
X101417807Y-48939251D01*
X101424889Y-48942012D01*
X101432422Y-48943004D01*
X101432423Y-48943004D01*
X101487330Y-48950233D01*
X101493843Y-48951265D01*
X101548318Y-48961361D01*
X101548320Y-48961361D01*
X101555787Y-48962745D01*
X101563367Y-48962308D01*
X101563368Y-48962308D01*
X101617112Y-48959209D01*
X101624365Y-48959000D01*
X105663327Y-48959000D01*
X105731448Y-48979002D01*
X105777941Y-49032658D01*
X105788045Y-49102932D01*
X105756964Y-49169308D01*
X105686960Y-49247056D01*
X105683659Y-49252774D01*
X105595326Y-49405771D01*
X105591473Y-49412444D01*
X105532458Y-49594072D01*
X105531768Y-49600633D01*
X105531768Y-49600635D01*
X105513186Y-49777435D01*
X105512496Y-49784000D01*
X105532458Y-49973928D01*
X105591473Y-50155556D01*
X105686960Y-50320944D01*
X105814747Y-50462866D01*
X105969248Y-50575118D01*
X105975276Y-50577802D01*
X105975278Y-50577803D01*
X106137679Y-50650108D01*
X106143712Y-50652794D01*
X106237113Y-50672647D01*
X106324056Y-50691128D01*
X106324061Y-50691128D01*
X106330513Y-50692500D01*
X106521487Y-50692500D01*
X106527939Y-50691128D01*
X106527944Y-50691128D01*
X106614888Y-50672647D01*
X106708288Y-50652794D01*
X106714321Y-50650108D01*
X106876722Y-50577803D01*
X106876724Y-50577802D01*
X106882752Y-50575118D01*
X106933501Y-50538247D01*
X107015671Y-50478546D01*
X107037253Y-50462866D01*
X107041668Y-50457963D01*
X107046580Y-50453540D01*
X107047705Y-50454789D01*
X107101014Y-50421949D01*
X107134200Y-50417500D01*
X118417800Y-50417500D01*
X118485921Y-50437502D01*
X118505147Y-50453843D01*
X118505420Y-50453540D01*
X118510332Y-50457963D01*
X118514747Y-50462866D01*
X118536329Y-50478546D01*
X118618500Y-50538247D01*
X118669248Y-50575118D01*
X118675276Y-50577802D01*
X118675278Y-50577803D01*
X118837679Y-50650108D01*
X118843712Y-50652794D01*
X118937113Y-50672647D01*
X119024056Y-50691128D01*
X119024061Y-50691128D01*
X119030513Y-50692500D01*
X119221487Y-50692500D01*
X119227939Y-50691128D01*
X119227944Y-50691128D01*
X119314888Y-50672647D01*
X119408288Y-50652794D01*
X119414315Y-50650111D01*
X119414323Y-50650108D01*
X119456252Y-50631440D01*
X119526619Y-50622006D01*
X119590916Y-50652113D01*
X119628729Y-50712202D01*
X119633500Y-50746547D01*
X119633500Y-52380551D01*
X119613498Y-52448672D01*
X119596595Y-52469646D01*
X116352113Y-55714128D01*
X116346837Y-55719109D01*
X116295291Y-55765035D01*
X116295287Y-55765040D01*
X116291102Y-55768768D01*
X116287645Y-55773177D01*
X116287643Y-55773179D01*
X116234668Y-55840741D01*
X116232177Y-55843817D01*
X116177112Y-55909674D01*
X116177109Y-55909679D01*
X116173514Y-55913978D01*
X116170736Y-55918849D01*
X116168143Y-55923394D01*
X116157854Y-55938706D01*
X116151163Y-55947239D01*
X116148541Y-55952191D01*
X116148532Y-55952205D01*
X116108364Y-56028070D01*
X116106457Y-56031539D01*
X116063927Y-56106102D01*
X116061146Y-56110978D01*
X116057527Y-56121198D01*
X116050112Y-56138090D01*
X116045039Y-56147672D01*
X116043331Y-56153025D01*
X116017247Y-56234757D01*
X116015985Y-56238509D01*
X115995241Y-56297089D01*
X115985441Y-56324762D01*
X115984534Y-56330299D01*
X115984533Y-56330304D01*
X115983687Y-56335470D01*
X115979381Y-56353405D01*
X115977793Y-56358382D01*
X115976087Y-56363729D01*
X115975355Y-56369289D01*
X115964152Y-56454383D01*
X115963574Y-56458298D01*
X115962984Y-56461904D01*
X115948791Y-56548575D01*
X115948879Y-56554188D01*
X115948879Y-56554192D01*
X115948961Y-56559406D01*
X115947899Y-56577829D01*
X115947217Y-56583007D01*
X115947216Y-56583019D01*
X115946484Y-56588582D01*
X115949003Y-56642000D01*
X115950792Y-56679940D01*
X115950916Y-56683895D01*
X115952353Y-56775341D01*
X115954229Y-56784902D01*
X115954441Y-56785983D01*
X115956658Y-56804307D01*
X115957168Y-56815123D01*
X115967651Y-56860892D01*
X115977583Y-56904258D01*
X115978406Y-56908131D01*
X115994935Y-56992383D01*
X115994937Y-56992389D01*
X115996016Y-56997890D01*
X115998053Y-57003115D01*
X115999954Y-57007991D01*
X116005375Y-57025615D01*
X116006543Y-57030712D01*
X116006545Y-57030719D01*
X116007799Y-57036193D01*
X116010003Y-57041360D01*
X116043677Y-57120307D01*
X116045167Y-57123958D01*
X116078398Y-57209192D01*
X116083910Y-57218187D01*
X116084067Y-57218443D01*
X116092529Y-57234838D01*
X116096779Y-57244802D01*
X116099865Y-57249499D01*
X116099866Y-57249502D01*
X116146983Y-57321231D01*
X116149105Y-57324574D01*
X116193963Y-57397777D01*
X116193968Y-57397784D01*
X116196898Y-57402565D01*
X116200632Y-57406756D01*
X116204103Y-57410652D01*
X116215337Y-57425292D01*
X116218756Y-57430496D01*
X116221293Y-57434358D01*
X116259649Y-57477407D01*
X116293129Y-57510887D01*
X116298109Y-57516162D01*
X116347768Y-57571898D01*
X116352181Y-57575358D01*
X116371312Y-57590359D01*
X116382660Y-57600418D01*
X118097995Y-59315753D01*
X118132021Y-59378065D01*
X118134900Y-59404848D01*
X118134900Y-60662757D01*
X118114898Y-60730878D01*
X118097995Y-60751852D01*
X110317908Y-68531939D01*
X110255596Y-68565965D01*
X110184781Y-68560900D01*
X110127945Y-68518353D01*
X110103134Y-68451833D01*
X110103503Y-68429673D01*
X110113710Y-68332565D01*
X110114400Y-68326000D01*
X110107956Y-68264692D01*
X110095545Y-68146608D01*
X110095545Y-68146607D01*
X110094855Y-68140044D01*
X110092640Y-68133225D01*
X110069647Y-68062463D01*
X110038237Y-67965791D01*
X110036209Y-67894825D01*
X110062504Y-67846121D01*
X110062286Y-67845963D01*
X110063468Y-67844337D01*
X110064434Y-67842546D01*
X110070585Y-67835715D01*
X110164075Y-67673785D01*
X110201626Y-67558214D01*
X110219815Y-67502235D01*
X110219815Y-67502234D01*
X110221855Y-67495956D01*
X110224290Y-67472794D01*
X110240710Y-67316565D01*
X110241400Y-67310000D01*
X110221855Y-67124044D01*
X110164075Y-66946215D01*
X110159298Y-66937940D01*
X110073888Y-66790006D01*
X110070585Y-66784285D01*
X109962595Y-66664350D01*
X109949885Y-66650234D01*
X109949883Y-66650233D01*
X109945470Y-66645331D01*
X109794200Y-66535427D01*
X109788172Y-66532743D01*
X109788170Y-66532742D01*
X109629416Y-66462060D01*
X109629414Y-66462060D01*
X109623385Y-66459375D01*
X109512350Y-66435774D01*
X109446947Y-66421872D01*
X109446943Y-66421872D01*
X109440490Y-66420500D01*
X109408422Y-66420500D01*
X109340301Y-66400498D01*
X109319327Y-66383595D01*
X103033442Y-60097709D01*
X102999416Y-60035397D01*
X102997227Y-60021785D01*
X102983545Y-59891608D01*
X102983545Y-59891607D01*
X102982855Y-59885044D01*
X102969181Y-59842958D01*
X102927117Y-59713500D01*
X102925075Y-59707215D01*
X102919484Y-59697530D01*
X102834888Y-59551006D01*
X102831585Y-59545285D01*
X102824859Y-59537815D01*
X102710885Y-59411234D01*
X102710883Y-59411233D01*
X102706470Y-59406331D01*
X102654245Y-59368387D01*
X102560542Y-59300308D01*
X102560541Y-59300307D01*
X102555200Y-59296427D01*
X102549172Y-59293743D01*
X102549170Y-59293742D01*
X102390416Y-59223060D01*
X102390414Y-59223060D01*
X102384385Y-59220375D01*
X102292937Y-59200937D01*
X102207947Y-59182872D01*
X102207943Y-59182872D01*
X102201490Y-59181500D01*
X102014510Y-59181500D01*
X102008057Y-59182872D01*
X102008053Y-59182872D01*
X101923063Y-59200937D01*
X101831615Y-59220375D01*
X101825586Y-59223060D01*
X101825584Y-59223060D01*
X101666830Y-59293742D01*
X101666828Y-59293743D01*
X101660800Y-59296427D01*
X101655459Y-59300307D01*
X101655458Y-59300308D01*
X101561755Y-59368387D01*
X101509530Y-59406331D01*
X101505117Y-59411233D01*
X101505115Y-59411234D01*
X101391141Y-59537815D01*
X101384415Y-59545285D01*
X101381112Y-59551006D01*
X101296517Y-59697530D01*
X101290925Y-59707215D01*
X101288883Y-59713500D01*
X101246820Y-59842958D01*
X101233145Y-59885044D01*
X101232455Y-59891607D01*
X101232455Y-59891608D01*
X101228313Y-59931014D01*
X101213600Y-60071000D01*
X101214290Y-60077565D01*
X101227003Y-60198515D01*
X101233145Y-60256956D01*
X101290925Y-60434785D01*
X101294228Y-60440507D01*
X101294229Y-60440508D01*
X101299019Y-60448804D01*
X101384415Y-60596715D01*
X101388833Y-60601622D01*
X101388834Y-60601623D01*
X101490872Y-60714947D01*
X101509530Y-60735669D01*
X101592584Y-60796011D01*
X101635937Y-60852232D01*
X101642013Y-60922968D01*
X101627641Y-60960946D01*
X101544925Y-61104215D01*
X101487145Y-61282044D01*
X101467600Y-61468000D01*
X101487145Y-61653956D01*
X101544925Y-61831785D01*
X101638415Y-61993715D01*
X101642833Y-61998622D01*
X101642834Y-61998623D01*
X101737840Y-62104137D01*
X101763530Y-62132669D01*
X101914800Y-62242573D01*
X101920828Y-62245257D01*
X101920830Y-62245258D01*
X102010548Y-62285203D01*
X102085615Y-62318625D01*
X102177063Y-62338063D01*
X102262053Y-62356128D01*
X102262057Y-62356128D01*
X102268510Y-62357500D01*
X102300578Y-62357500D01*
X102368699Y-62377502D01*
X102389673Y-62394405D01*
X108294558Y-68299291D01*
X108328584Y-68361603D01*
X108330773Y-68375212D01*
X108345145Y-68511956D01*
X108347185Y-68518234D01*
X108347185Y-68518235D01*
X108396030Y-68668564D01*
X108398057Y-68739532D01*
X108361395Y-68800329D01*
X108297683Y-68831655D01*
X108276197Y-68833500D01*
X106316844Y-68833500D01*
X106248723Y-68813498D01*
X106227749Y-68796595D01*
X104431405Y-67000252D01*
X104397380Y-66937940D01*
X104394500Y-66911157D01*
X104394500Y-65478684D01*
X104380169Y-65322721D01*
X104323123Y-65120451D01*
X104230171Y-64931963D01*
X104104427Y-64763571D01*
X103950101Y-64620914D01*
X103772362Y-64508769D01*
X103577163Y-64430892D01*
X103571506Y-64429767D01*
X103571500Y-64429765D01*
X103376707Y-64391019D01*
X103376705Y-64391019D01*
X103371040Y-64389892D01*
X103365265Y-64389816D01*
X103365261Y-64389816D01*
X103260001Y-64388438D01*
X103160898Y-64387141D01*
X103155201Y-64388120D01*
X103155200Y-64388120D01*
X102959469Y-64421753D01*
X102953772Y-64422732D01*
X102756601Y-64495472D01*
X102575988Y-64602926D01*
X102417981Y-64741494D01*
X102287872Y-64906537D01*
X102285181Y-64911653D01*
X102285179Y-64911655D01*
X102211360Y-65051963D01*
X102190018Y-65092527D01*
X102127696Y-65293234D01*
X102107500Y-65463874D01*
X102107500Y-67394195D01*
X102107230Y-67402436D01*
X102102994Y-67467061D01*
X102113399Y-67554973D01*
X102113736Y-67558186D01*
X102121831Y-67646279D01*
X102123399Y-67651839D01*
X102124061Y-67655412D01*
X102126250Y-67666415D01*
X102127018Y-67670028D01*
X102127697Y-67675765D01*
X102153938Y-67760276D01*
X102154854Y-67763373D01*
X102178877Y-67848549D01*
X102181435Y-67853737D01*
X102182760Y-67857188D01*
X102186901Y-67867566D01*
X102188304Y-67870953D01*
X102190018Y-67876473D01*
X102192709Y-67881587D01*
X102192709Y-67881588D01*
X102231198Y-67954745D01*
X102232695Y-67957681D01*
X102271829Y-68037037D01*
X102275287Y-68041668D01*
X102277250Y-68044871D01*
X102283173Y-68054258D01*
X102285182Y-68057351D01*
X102287871Y-68062463D01*
X102342656Y-68131956D01*
X102344627Y-68134526D01*
X102394116Y-68200801D01*
X102394123Y-68200808D01*
X102397573Y-68205429D01*
X102401807Y-68209343D01*
X102401809Y-68209345D01*
X102457973Y-68261262D01*
X102461539Y-68264692D01*
X104952151Y-70755304D01*
X104957788Y-70761322D01*
X105000494Y-70810019D01*
X105069973Y-70864793D01*
X105072517Y-70866853D01*
X105136092Y-70919728D01*
X105136102Y-70919735D01*
X105140539Y-70923425D01*
X105145583Y-70926250D01*
X105148641Y-70928351D01*
X105157921Y-70934552D01*
X105161005Y-70936555D01*
X105165537Y-70940128D01*
X105170638Y-70942812D01*
X105170643Y-70942815D01*
X105243829Y-70981319D01*
X105246719Y-70982889D01*
X105323903Y-71026114D01*
X105329378Y-71027972D01*
X105332767Y-71029481D01*
X105343026Y-71033889D01*
X105346418Y-71035294D01*
X105351527Y-71037982D01*
X105396531Y-71051956D01*
X105435998Y-71064211D01*
X105439136Y-71065230D01*
X105517437Y-71091810D01*
X105517439Y-71091810D01*
X105522911Y-71093668D01*
X105528635Y-71094498D01*
X105532247Y-71095365D01*
X105543138Y-71097830D01*
X105546716Y-71098591D01*
X105552234Y-71100304D01*
X105557971Y-71100983D01*
X105640101Y-71110703D01*
X105643367Y-71111133D01*
X105658910Y-71113387D01*
X105725184Y-71122997D01*
X105725188Y-71122997D01*
X105730897Y-71123825D01*
X105813054Y-71120597D01*
X105818001Y-71120500D01*
X110447195Y-71120500D01*
X110455436Y-71120770D01*
X110520061Y-71125006D01*
X110607973Y-71114601D01*
X110611186Y-71114264D01*
X110699279Y-71106169D01*
X110704839Y-71104601D01*
X110708412Y-71103939D01*
X110719415Y-71101750D01*
X110723028Y-71100982D01*
X110728765Y-71100303D01*
X110813276Y-71074062D01*
X110816373Y-71073146D01*
X110901549Y-71049123D01*
X110906737Y-71046565D01*
X110910188Y-71045240D01*
X110920566Y-71041099D01*
X110923953Y-71039696D01*
X110929473Y-71037982D01*
X111007746Y-70996801D01*
X111010682Y-70995305D01*
X111090037Y-70956171D01*
X111094668Y-70952713D01*
X111097871Y-70950750D01*
X111107258Y-70944827D01*
X111110351Y-70942818D01*
X111115463Y-70940129D01*
X111184956Y-70885344D01*
X111187526Y-70883373D01*
X111253801Y-70833884D01*
X111253808Y-70833877D01*
X111258429Y-70830427D01*
X111314263Y-70770026D01*
X111317692Y-70766461D01*
X119798950Y-62285203D01*
X119850997Y-62253868D01*
X119878984Y-62245258D01*
X119887387Y-62242673D01*
X120088919Y-62138654D01*
X120093368Y-62135240D01*
X120093373Y-62135237D01*
X120133904Y-62104137D01*
X120200124Y-62078537D01*
X120210607Y-62078100D01*
X126293460Y-62078100D01*
X126361581Y-62098102D01*
X126403980Y-62143591D01*
X126407434Y-62149900D01*
X126410585Y-62158305D01*
X126497939Y-62274861D01*
X126614495Y-62362215D01*
X126750884Y-62413345D01*
X126813066Y-62420100D01*
X128609334Y-62420100D01*
X128671516Y-62413345D01*
X128807905Y-62362215D01*
X128833675Y-62342901D01*
X128900180Y-62318054D01*
X128969562Y-62333107D01*
X129019793Y-62383281D01*
X129035239Y-62443728D01*
X129035239Y-66356138D01*
X129015237Y-66424259D01*
X128961581Y-66470752D01*
X128891307Y-66480856D01*
X128826727Y-66451362D01*
X128811596Y-66435774D01*
X128738960Y-66346713D01*
X128738957Y-66346710D01*
X128735065Y-66341938D01*
X128686857Y-66302057D01*
X128646175Y-66240122D01*
X128642986Y-66229144D01*
X128638978Y-66209788D01*
X128638819Y-66208527D01*
X128636427Y-66189595D01*
X128633511Y-66182231D01*
X128633510Y-66182226D01*
X128620088Y-66148329D01*
X128616249Y-66137118D01*
X128603868Y-66094501D01*
X128593511Y-66076987D01*
X128584815Y-66059237D01*
X128580239Y-66047679D01*
X128580236Y-66047674D01*
X128577319Y-66040306D01*
X128551233Y-66004401D01*
X128544716Y-65994479D01*
X128526172Y-65963122D01*
X128526170Y-65963119D01*
X128522134Y-65956295D01*
X128507747Y-65941908D01*
X128494906Y-65926874D01*
X128487602Y-65916821D01*
X128482942Y-65910407D01*
X128448750Y-65882121D01*
X128439971Y-65874132D01*
X127831356Y-65265517D01*
X127823780Y-65257191D01*
X127819659Y-65250697D01*
X127769840Y-65203914D01*
X127766999Y-65201160D01*
X127747200Y-65181361D01*
X127744075Y-65178937D01*
X127744066Y-65178929D01*
X127743980Y-65178863D01*
X127734955Y-65171155D01*
X127708391Y-65146210D01*
X127702612Y-65140783D01*
X127684775Y-65130977D01*
X127668259Y-65120127D01*
X127652173Y-65107650D01*
X127611440Y-65090024D01*
X127600792Y-65084807D01*
X127575915Y-65071131D01*
X127561909Y-65063431D01*
X127554234Y-65061460D01*
X127554228Y-65061458D01*
X127542195Y-65058369D01*
X127523493Y-65051966D01*
X127504814Y-65043883D01*
X127465019Y-65037580D01*
X127460979Y-65036940D01*
X127449366Y-65034535D01*
X127406388Y-65023500D01*
X127386041Y-65023500D01*
X127366330Y-65021949D01*
X127354056Y-65020005D01*
X127346227Y-65018765D01*
X127338335Y-65019511D01*
X127302050Y-65022941D01*
X127290192Y-65023500D01*
X125682032Y-65023500D01*
X125670793Y-65022970D01*
X125663281Y-65021291D01*
X125655356Y-65021540D01*
X125655355Y-65021540D01*
X125594970Y-65023438D01*
X125591012Y-65023500D01*
X125563017Y-65023500D01*
X125559083Y-65023997D01*
X125559081Y-65023997D01*
X125558994Y-65024008D01*
X125547160Y-65024940D01*
X125502795Y-65026335D01*
X125495182Y-65028547D01*
X125495181Y-65028547D01*
X125483252Y-65032013D01*
X125463888Y-65036023D01*
X125451560Y-65037580D01*
X125451558Y-65037580D01*
X125443701Y-65038573D01*
X125436337Y-65041489D01*
X125436332Y-65041490D01*
X125402444Y-65054907D01*
X125391215Y-65058752D01*
X125375111Y-65063431D01*
X125348607Y-65071131D01*
X125341780Y-65075169D01*
X125341777Y-65075170D01*
X125331094Y-65081488D01*
X125313336Y-65090188D01*
X125301785Y-65094761D01*
X125301779Y-65094765D01*
X125294412Y-65097681D01*
X125288001Y-65102339D01*
X125287999Y-65102340D01*
X125270438Y-65115099D01*
X125270206Y-65115268D01*
X125258512Y-65123764D01*
X125248590Y-65130281D01*
X125217232Y-65148826D01*
X125217228Y-65148829D01*
X125210402Y-65152866D01*
X125196018Y-65167250D01*
X125180984Y-65180091D01*
X125164513Y-65192058D01*
X125159460Y-65198166D01*
X125136223Y-65226255D01*
X125128233Y-65235035D01*
X121312672Y-69050595D01*
X121250360Y-69084621D01*
X121223577Y-69087500D01*
X116163131Y-69087500D01*
X116095010Y-69067498D01*
X116089070Y-69063436D01*
X115997002Y-68996544D01*
X115997001Y-68996543D01*
X115991660Y-68992663D01*
X115985631Y-68989979D01*
X115985628Y-68989977D01*
X115836636Y-68923642D01*
X115836633Y-68923641D01*
X115830600Y-68920955D01*
X115779743Y-68910145D01*
X115664608Y-68885672D01*
X115664604Y-68885672D01*
X115658151Y-68884300D01*
X115481849Y-68884300D01*
X115475396Y-68885672D01*
X115475392Y-68885672D01*
X115360257Y-68910145D01*
X115309400Y-68920955D01*
X115303367Y-68923641D01*
X115303364Y-68923642D01*
X115154372Y-68989977D01*
X115154369Y-68989979D01*
X115148340Y-68992663D01*
X115005709Y-69096291D01*
X114887740Y-69227309D01*
X114799589Y-69379991D01*
X114745109Y-69547664D01*
X114744419Y-69554227D01*
X114744419Y-69554228D01*
X114737055Y-69624295D01*
X114726680Y-69723000D01*
X114745109Y-69898336D01*
X114799589Y-70066009D01*
X114887740Y-70218691D01*
X114892158Y-70223598D01*
X114892159Y-70223599D01*
X115001287Y-70344798D01*
X115005709Y-70349709D01*
X115148340Y-70453337D01*
X115154369Y-70456021D01*
X115154372Y-70456023D01*
X115303364Y-70522358D01*
X115303367Y-70522359D01*
X115309400Y-70525045D01*
X115345850Y-70532793D01*
X115475392Y-70560328D01*
X115475396Y-70560328D01*
X115481849Y-70561700D01*
X115658151Y-70561700D01*
X115664604Y-70560328D01*
X115664608Y-70560328D01*
X115794150Y-70532793D01*
X115830600Y-70525045D01*
X115836633Y-70522359D01*
X115836636Y-70522358D01*
X115985628Y-70456023D01*
X115985631Y-70456021D01*
X115991660Y-70453337D01*
X116089070Y-70382564D01*
X116155937Y-70358706D01*
X116163131Y-70358500D01*
X117219611Y-70358500D01*
X117287732Y-70378502D01*
X117334225Y-70432158D01*
X117344329Y-70502432D01*
X117339444Y-70523436D01*
X117287149Y-70684385D01*
X117285109Y-70690664D01*
X117284419Y-70697227D01*
X117284419Y-70697228D01*
X117270864Y-70826191D01*
X117266680Y-70866000D01*
X117267370Y-70872565D01*
X117284019Y-71030961D01*
X117285109Y-71041336D01*
X117287149Y-71047614D01*
X117287149Y-71047615D01*
X117339589Y-71209009D01*
X117337065Y-71209829D01*
X117344923Y-71268490D01*
X117314808Y-71332783D01*
X117254714Y-71370589D01*
X117183721Y-71369904D01*
X117169143Y-71364466D01*
X117100589Y-71333944D01*
X117064139Y-71326196D01*
X116934597Y-71298661D01*
X116934593Y-71298661D01*
X116928140Y-71297289D01*
X116751838Y-71297289D01*
X116745385Y-71298661D01*
X116745381Y-71298661D01*
X116615839Y-71326196D01*
X116579389Y-71333944D01*
X116573356Y-71336630D01*
X116573353Y-71336631D01*
X116424361Y-71402966D01*
X116424358Y-71402968D01*
X116418329Y-71405652D01*
X116275698Y-71509280D01*
X116271277Y-71514190D01*
X116271276Y-71514191D01*
X116194139Y-71599861D01*
X116157729Y-71640298D01*
X116144227Y-71663684D01*
X116094755Y-71749373D01*
X116069578Y-71792980D01*
X116015098Y-71960653D01*
X116014408Y-71967216D01*
X116014408Y-71967217D01*
X116000194Y-72102452D01*
X115996669Y-72135989D01*
X115997359Y-72142554D01*
X116012958Y-72290960D01*
X116015098Y-72311325D01*
X116069578Y-72478998D01*
X116072881Y-72484720D01*
X116072882Y-72484721D01*
X116086990Y-72509157D01*
X116157729Y-72631680D01*
X116207722Y-72687203D01*
X116238438Y-72751209D01*
X116229673Y-72821662D01*
X116184210Y-72876193D01*
X116114084Y-72897511D01*
X115649009Y-72897511D01*
X115637775Y-72896981D01*
X115630270Y-72895303D01*
X115562560Y-72897431D01*
X115561977Y-72897449D01*
X115558020Y-72897511D01*
X115530006Y-72897511D01*
X115526081Y-72898007D01*
X115526080Y-72898007D01*
X115525985Y-72898019D01*
X115514140Y-72898952D01*
X115484319Y-72899889D01*
X115477707Y-72900097D01*
X115477706Y-72900097D01*
X115469784Y-72900346D01*
X115450241Y-72906024D01*
X115430877Y-72910034D01*
X115418549Y-72911591D01*
X115418547Y-72911591D01*
X115410690Y-72912584D01*
X115403326Y-72915500D01*
X115403321Y-72915501D01*
X115369433Y-72928918D01*
X115358204Y-72932763D01*
X115344230Y-72936823D01*
X115315596Y-72945142D01*
X115308770Y-72949179D01*
X115298080Y-72955501D01*
X115280330Y-72964198D01*
X115261401Y-72971692D01*
X115254985Y-72976353D01*
X115254984Y-72976354D01*
X115225508Y-72997770D01*
X115215584Y-73004289D01*
X115184213Y-73022841D01*
X115184208Y-73022845D01*
X115177390Y-73026877D01*
X115163003Y-73041264D01*
X115147969Y-73054105D01*
X115131502Y-73066069D01*
X115126449Y-73072177D01*
X115103217Y-73100260D01*
X115095227Y-73109040D01*
X113906506Y-74297761D01*
X113898180Y-74305337D01*
X113891686Y-74309458D01*
X113886263Y-74315233D01*
X113844904Y-74359276D01*
X113842149Y-74362118D01*
X113822350Y-74381917D01*
X113819926Y-74385042D01*
X113819918Y-74385051D01*
X113819852Y-74385137D01*
X113812144Y-74394162D01*
X113781772Y-74426505D01*
X113777954Y-74433449D01*
X113777953Y-74433451D01*
X113771967Y-74444340D01*
X113761116Y-74460858D01*
X113748639Y-74476944D01*
X113731013Y-74517677D01*
X113725796Y-74528325D01*
X113704420Y-74567208D01*
X113702449Y-74574883D01*
X113702447Y-74574889D01*
X113699358Y-74586922D01*
X113692955Y-74605624D01*
X113684872Y-74624303D01*
X113683633Y-74632128D01*
X113677929Y-74668138D01*
X113675524Y-74679751D01*
X113664489Y-74722729D01*
X113664489Y-74743076D01*
X113662938Y-74762787D01*
X113659754Y-74782890D01*
X113660500Y-74790782D01*
X113663930Y-74827067D01*
X113664489Y-74838925D01*
X113664489Y-74922733D01*
X113644487Y-74990854D01*
X113596669Y-75034496D01*
X113573596Y-75046507D01*
X113569463Y-75049610D01*
X113569460Y-75049612D01*
X113425387Y-75157785D01*
X113394954Y-75180635D01*
X113240618Y-75342138D01*
X113237709Y-75346403D01*
X113237703Y-75346411D01*
X113232395Y-75354192D01*
X113133193Y-75499618D01*
X113132887Y-75500066D01*
X113077976Y-75545069D01*
X113007451Y-75553240D01*
X112943704Y-75521986D01*
X112923007Y-75497502D01*
X112842415Y-75372926D01*
X112836125Y-75364757D01*
X112692795Y-75207240D01*
X112685262Y-75200215D01*
X112518128Y-75068222D01*
X112509541Y-75062517D01*
X112323106Y-74959599D01*
X112313694Y-74955369D01*
X112112948Y-74884280D01*
X112102977Y-74881646D01*
X112031826Y-74868972D01*
X112018529Y-74870432D01*
X112013989Y-74884989D01*
X112013989Y-76328000D01*
X111993987Y-76396121D01*
X111940331Y-76442614D01*
X111887989Y-76454000D01*
X111631989Y-76454000D01*
X111563868Y-76433998D01*
X111517375Y-76380342D01*
X111505989Y-76328000D01*
X111505989Y-74883102D01*
X111502071Y-74869758D01*
X111487795Y-74867771D01*
X111449313Y-74873660D01*
X111439277Y-74876051D01*
X111236857Y-74942212D01*
X111227348Y-74946209D01*
X111038452Y-75044542D01*
X111029727Y-75050036D01*
X110859422Y-75177905D01*
X110851715Y-75184748D01*
X110704579Y-75338717D01*
X110698098Y-75346722D01*
X110593487Y-75500074D01*
X110538576Y-75545076D01*
X110468051Y-75553247D01*
X110404304Y-75521993D01*
X110383607Y-75497509D01*
X110302811Y-75372617D01*
X110302809Y-75372614D01*
X110300003Y-75368277D01*
X110149659Y-75203051D01*
X110145608Y-75199852D01*
X110145604Y-75199848D01*
X109978403Y-75067800D01*
X109978399Y-75067798D01*
X109974348Y-75064598D01*
X109938017Y-75044542D01*
X109919818Y-75034496D01*
X109778778Y-74956638D01*
X109773909Y-74954914D01*
X109773905Y-74954912D01*
X109573076Y-74883795D01*
X109573072Y-74883794D01*
X109568201Y-74882069D01*
X109563108Y-74881162D01*
X109563105Y-74881161D01*
X109353362Y-74843800D01*
X109353356Y-74843799D01*
X109348273Y-74842894D01*
X109274441Y-74841992D01*
X109130070Y-74840228D01*
X109130068Y-74840228D01*
X109124900Y-74840165D01*
X108904080Y-74873955D01*
X108691745Y-74943357D01*
X108637036Y-74971837D01*
X108574948Y-75004158D01*
X108493596Y-75046507D01*
X108489463Y-75049610D01*
X108489460Y-75049612D01*
X108345387Y-75157785D01*
X108314954Y-75180635D01*
X108160618Y-75342138D01*
X108053190Y-75499621D01*
X107998282Y-75544621D01*
X107927757Y-75552792D01*
X107864010Y-75521538D01*
X107843313Y-75497054D01*
X107762811Y-75372617D01*
X107762809Y-75372614D01*
X107760003Y-75368277D01*
X107609659Y-75203051D01*
X107605608Y-75199852D01*
X107605604Y-75199848D01*
X107438403Y-75067800D01*
X107438399Y-75067798D01*
X107434348Y-75064598D01*
X107398017Y-75044542D01*
X107379818Y-75034496D01*
X107238778Y-74956638D01*
X107233909Y-74954914D01*
X107233905Y-74954912D01*
X107033076Y-74883795D01*
X107033072Y-74883794D01*
X107028201Y-74882069D01*
X107023108Y-74881162D01*
X107023105Y-74881161D01*
X106813362Y-74843800D01*
X106813356Y-74843799D01*
X106808273Y-74842894D01*
X106734441Y-74841992D01*
X106590070Y-74840228D01*
X106590068Y-74840228D01*
X106584900Y-74840165D01*
X106364080Y-74873955D01*
X106151745Y-74943357D01*
X106097036Y-74971837D01*
X106034948Y-75004158D01*
X105953596Y-75046507D01*
X105949463Y-75049610D01*
X105949460Y-75049612D01*
X105805387Y-75157785D01*
X105774954Y-75180635D01*
X105620618Y-75342138D01*
X105513190Y-75499621D01*
X105458282Y-75544621D01*
X105387757Y-75552792D01*
X105324010Y-75521538D01*
X105303313Y-75497054D01*
X105222811Y-75372617D01*
X105222809Y-75372614D01*
X105220003Y-75368277D01*
X105069659Y-75203051D01*
X105065608Y-75199852D01*
X105065604Y-75199848D01*
X104898403Y-75067800D01*
X104898399Y-75067798D01*
X104894348Y-75064598D01*
X104858017Y-75044542D01*
X104839818Y-75034496D01*
X104698778Y-74956638D01*
X104693909Y-74954914D01*
X104693905Y-74954912D01*
X104493076Y-74883795D01*
X104493072Y-74883794D01*
X104488201Y-74882069D01*
X104483108Y-74881162D01*
X104483105Y-74881161D01*
X104273362Y-74843800D01*
X104273356Y-74843799D01*
X104268273Y-74842894D01*
X104194441Y-74841992D01*
X104050070Y-74840228D01*
X104050068Y-74840228D01*
X104044900Y-74840165D01*
X103824080Y-74873955D01*
X103611745Y-74943357D01*
X103557036Y-74971837D01*
X103494948Y-75004158D01*
X103413596Y-75046507D01*
X103409463Y-75049610D01*
X103409460Y-75049612D01*
X103265387Y-75157785D01*
X103234954Y-75180635D01*
X103080618Y-75342138D01*
X102973190Y-75499621D01*
X102918282Y-75544621D01*
X102847757Y-75552792D01*
X102784010Y-75521538D01*
X102763313Y-75497054D01*
X102682811Y-75372617D01*
X102682809Y-75372614D01*
X102680003Y-75368277D01*
X102529659Y-75203051D01*
X102525608Y-75199852D01*
X102525604Y-75199848D01*
X102358403Y-75067800D01*
X102358399Y-75067798D01*
X102354348Y-75064598D01*
X102318017Y-75044542D01*
X102299818Y-75034496D01*
X102158778Y-74956638D01*
X102153909Y-74954914D01*
X102153905Y-74954912D01*
X101953076Y-74883795D01*
X101953072Y-74883794D01*
X101948201Y-74882069D01*
X101943108Y-74881162D01*
X101943105Y-74881161D01*
X101733362Y-74843800D01*
X101733356Y-74843799D01*
X101728273Y-74842894D01*
X101654441Y-74841992D01*
X101510070Y-74840228D01*
X101510068Y-74840228D01*
X101504900Y-74840165D01*
X101284080Y-74873955D01*
X101071745Y-74943357D01*
X101017036Y-74971837D01*
X100954948Y-75004158D01*
X100873596Y-75046507D01*
X100869463Y-75049610D01*
X100869460Y-75049612D01*
X100725387Y-75157785D01*
X100694954Y-75180635D01*
X100540618Y-75342138D01*
X100537709Y-75346403D01*
X100537703Y-75346411D01*
X100532395Y-75354192D01*
X100433193Y-75499618D01*
X100432887Y-75500066D01*
X100377976Y-75545069D01*
X100307451Y-75553240D01*
X100243704Y-75521986D01*
X100223007Y-75497502D01*
X100142415Y-75372926D01*
X100136125Y-75364757D01*
X99992795Y-75207240D01*
X99985262Y-75200215D01*
X99818128Y-75068222D01*
X99809541Y-75062517D01*
X99623106Y-74959599D01*
X99613694Y-74955369D01*
X99412948Y-74884280D01*
X99402977Y-74881646D01*
X99331826Y-74868972D01*
X99318529Y-74870432D01*
X99313989Y-74884989D01*
X99313989Y-76328000D01*
X99293987Y-76396121D01*
X99240331Y-76442614D01*
X99187989Y-76454000D01*
X98931989Y-76454000D01*
X98863868Y-76433998D01*
X98817375Y-76380342D01*
X98805989Y-76328000D01*
X98805989Y-74883102D01*
X98802071Y-74869758D01*
X98787795Y-74867771D01*
X98749313Y-74873660D01*
X98739277Y-74876051D01*
X98536857Y-74942212D01*
X98527348Y-74946209D01*
X98338452Y-75044542D01*
X98329727Y-75050036D01*
X98159422Y-75177905D01*
X98151715Y-75184748D01*
X98004579Y-75338717D01*
X97998098Y-75346722D01*
X97893487Y-75500074D01*
X97838576Y-75545076D01*
X97768051Y-75553247D01*
X97704304Y-75521993D01*
X97683607Y-75497509D01*
X97602811Y-75372617D01*
X97602809Y-75372614D01*
X97600003Y-75368277D01*
X97449659Y-75203051D01*
X97445608Y-75199852D01*
X97445604Y-75199848D01*
X97278403Y-75067800D01*
X97278399Y-75067798D01*
X97274348Y-75064598D01*
X97238017Y-75044542D01*
X97219818Y-75034496D01*
X97078778Y-74956638D01*
X97073909Y-74954914D01*
X97073905Y-74954912D01*
X96873076Y-74883795D01*
X96873072Y-74883794D01*
X96868201Y-74882069D01*
X96863108Y-74881162D01*
X96863105Y-74881161D01*
X96653362Y-74843800D01*
X96653356Y-74843799D01*
X96648273Y-74842894D01*
X96574441Y-74841992D01*
X96430070Y-74840228D01*
X96430068Y-74840228D01*
X96424900Y-74840165D01*
X96204080Y-74873955D01*
X95991745Y-74943357D01*
X95937036Y-74971837D01*
X95874948Y-75004158D01*
X95793596Y-75046507D01*
X95789463Y-75049610D01*
X95789460Y-75049612D01*
X95645387Y-75157785D01*
X95614954Y-75180635D01*
X95460618Y-75342138D01*
X95353190Y-75499621D01*
X95298282Y-75544621D01*
X95227757Y-75552792D01*
X95164010Y-75521538D01*
X95143313Y-75497054D01*
X95062811Y-75372617D01*
X95062809Y-75372614D01*
X95060003Y-75368277D01*
X94909659Y-75203051D01*
X94905608Y-75199852D01*
X94905604Y-75199848D01*
X94738403Y-75067800D01*
X94738399Y-75067798D01*
X94734348Y-75064598D01*
X94698017Y-75044542D01*
X94679818Y-75034496D01*
X94538778Y-74956638D01*
X94533909Y-74954914D01*
X94533905Y-74954912D01*
X94333076Y-74883795D01*
X94333072Y-74883794D01*
X94328201Y-74882069D01*
X94323108Y-74881162D01*
X94323105Y-74881161D01*
X94113362Y-74843800D01*
X94113356Y-74843799D01*
X94108273Y-74842894D01*
X94034441Y-74841992D01*
X93890070Y-74840228D01*
X93890068Y-74840228D01*
X93884900Y-74840165D01*
X93664080Y-74873955D01*
X93451745Y-74943357D01*
X93397036Y-74971837D01*
X93334948Y-75004158D01*
X93253596Y-75046507D01*
X93249463Y-75049610D01*
X93249460Y-75049612D01*
X93105387Y-75157785D01*
X93074954Y-75180635D01*
X92920618Y-75342138D01*
X92813190Y-75499621D01*
X92758282Y-75544621D01*
X92687757Y-75552792D01*
X92624010Y-75521538D01*
X92603313Y-75497054D01*
X92522811Y-75372617D01*
X92522809Y-75372614D01*
X92520003Y-75368277D01*
X92369659Y-75203051D01*
X92365608Y-75199852D01*
X92365604Y-75199848D01*
X92198403Y-75067800D01*
X92198399Y-75067798D01*
X92194348Y-75064598D01*
X92158017Y-75044542D01*
X92139818Y-75034496D01*
X91998778Y-74956638D01*
X91993909Y-74954914D01*
X91993905Y-74954912D01*
X91793076Y-74883795D01*
X91793072Y-74883794D01*
X91788201Y-74882069D01*
X91783108Y-74881162D01*
X91783105Y-74881161D01*
X91573362Y-74843800D01*
X91573356Y-74843799D01*
X91568273Y-74842894D01*
X91494441Y-74841992D01*
X91350070Y-74840228D01*
X91350068Y-74840228D01*
X91344900Y-74840165D01*
X91124080Y-74873955D01*
X90911745Y-74943357D01*
X90857036Y-74971837D01*
X90794948Y-75004158D01*
X90713596Y-75046507D01*
X90709463Y-75049610D01*
X90709460Y-75049612D01*
X90565387Y-75157785D01*
X90534954Y-75180635D01*
X90380618Y-75342138D01*
X90273190Y-75499621D01*
X90218282Y-75544621D01*
X90147757Y-75552792D01*
X90084010Y-75521538D01*
X90063313Y-75497054D01*
X89982811Y-75372617D01*
X89982809Y-75372614D01*
X89980003Y-75368277D01*
X89829659Y-75203051D01*
X89825608Y-75199852D01*
X89825604Y-75199848D01*
X89658403Y-75067800D01*
X89658399Y-75067798D01*
X89654348Y-75064598D01*
X89618017Y-75044542D01*
X89599818Y-75034496D01*
X89458778Y-74956638D01*
X89453909Y-74954914D01*
X89453905Y-74954912D01*
X89253076Y-74883795D01*
X89253072Y-74883794D01*
X89248201Y-74882069D01*
X89243108Y-74881162D01*
X89243105Y-74881161D01*
X89033362Y-74843800D01*
X89033356Y-74843799D01*
X89028273Y-74842894D01*
X88954441Y-74841992D01*
X88810070Y-74840228D01*
X88810068Y-74840228D01*
X88804900Y-74840165D01*
X88584080Y-74873955D01*
X88371745Y-74943357D01*
X88317036Y-74971837D01*
X88254948Y-75004158D01*
X88173596Y-75046507D01*
X88169463Y-75049610D01*
X88169460Y-75049612D01*
X88025387Y-75157785D01*
X87994954Y-75180635D01*
X87840618Y-75342138D01*
X87837709Y-75346403D01*
X87837703Y-75346411D01*
X87832395Y-75354192D01*
X87733193Y-75499618D01*
X87732887Y-75500066D01*
X87677976Y-75545069D01*
X87607451Y-75553240D01*
X87543704Y-75521986D01*
X87523007Y-75497502D01*
X87442415Y-75372926D01*
X87436125Y-75364757D01*
X87292795Y-75207240D01*
X87285262Y-75200215D01*
X87118128Y-75068222D01*
X87109541Y-75062517D01*
X86923106Y-74959599D01*
X86913694Y-74955369D01*
X86712948Y-74884280D01*
X86702977Y-74881646D01*
X86631826Y-74868972D01*
X86618529Y-74870432D01*
X86613989Y-74884989D01*
X86613989Y-76328000D01*
X86593987Y-76396121D01*
X86540331Y-76442614D01*
X86487989Y-76454000D01*
X85043214Y-76454000D01*
X85029683Y-76457973D01*
X85028246Y-76467966D01*
X85058554Y-76602446D01*
X85061634Y-76612275D01*
X85141759Y-76809603D01*
X85146402Y-76818794D01*
X85257683Y-77000388D01*
X85263766Y-77008699D01*
X85403202Y-77169667D01*
X85410566Y-77176879D01*
X85415511Y-77180985D01*
X85455145Y-77239889D01*
X85456642Y-77310870D01*
X85419526Y-77371392D01*
X85379253Y-77395910D01*
X85296956Y-77426761D01*
X85226148Y-77431944D01*
X85163632Y-77397874D01*
X83699942Y-75934183D01*
X85024378Y-75934183D01*
X85025901Y-75942607D01*
X85038281Y-75946000D01*
X86087874Y-75946000D01*
X86103113Y-75941525D01*
X86104318Y-75940135D01*
X86105989Y-75932452D01*
X86105989Y-74883102D01*
X86102071Y-74869758D01*
X86087795Y-74867771D01*
X86049313Y-74873660D01*
X86039277Y-74876051D01*
X85836857Y-74942212D01*
X85827348Y-74946209D01*
X85638452Y-75044542D01*
X85629727Y-75050036D01*
X85459422Y-75177905D01*
X85451715Y-75184748D01*
X85304579Y-75338717D01*
X85298093Y-75346727D01*
X85178087Y-75522649D01*
X85172989Y-75531623D01*
X85083327Y-75724783D01*
X85079764Y-75734470D01*
X85024378Y-75934183D01*
X83699942Y-75934183D01*
X82900929Y-75135170D01*
X80592565Y-72826806D01*
X80581697Y-72814415D01*
X80580314Y-72812613D01*
X80567991Y-72796553D01*
X80539909Y-72771000D01*
X83306600Y-72771000D01*
X83307290Y-72777565D01*
X83320049Y-72898953D01*
X83326145Y-72956956D01*
X83328185Y-72963234D01*
X83328185Y-72963235D01*
X83338174Y-72993979D01*
X83383925Y-73134785D01*
X83477415Y-73296715D01*
X83602530Y-73435669D01*
X83607869Y-73439548D01*
X83709675Y-73513514D01*
X83753800Y-73545573D01*
X83759828Y-73548257D01*
X83759830Y-73548258D01*
X83918584Y-73618940D01*
X83924615Y-73621625D01*
X84016063Y-73641063D01*
X84101053Y-73659128D01*
X84101057Y-73659128D01*
X84107510Y-73660500D01*
X84294490Y-73660500D01*
X84300943Y-73659128D01*
X84300947Y-73659128D01*
X84385937Y-73641063D01*
X84477385Y-73621625D01*
X84483416Y-73618940D01*
X84642170Y-73548258D01*
X84642172Y-73548257D01*
X84648200Y-73545573D01*
X84692326Y-73513514D01*
X84794131Y-73439548D01*
X84799470Y-73435669D01*
X84924585Y-73296715D01*
X85018075Y-73134785D01*
X85036672Y-73077548D01*
X85058072Y-73011687D01*
X85088810Y-72961528D01*
X97519528Y-60530810D01*
X97533941Y-60518423D01*
X97545665Y-60509795D01*
X97551564Y-60505454D01*
X97585979Y-60464945D01*
X97592909Y-60457429D01*
X97598653Y-60451685D01*
X97600927Y-60448811D01*
X97600933Y-60448804D01*
X97616372Y-60429289D01*
X97619163Y-60425885D01*
X97661945Y-60375528D01*
X97661948Y-60375524D01*
X97666684Y-60369949D01*
X97670011Y-60363434D01*
X97673392Y-60358364D01*
X97676617Y-60353142D01*
X97681160Y-60347400D01*
X97712246Y-60280888D01*
X97714152Y-60276988D01*
X97744213Y-60218117D01*
X97747543Y-60211596D01*
X97749284Y-60204479D01*
X97751411Y-60198761D01*
X97753342Y-60192955D01*
X97756443Y-60186321D01*
X97771391Y-60114461D01*
X97772359Y-60110181D01*
X97781947Y-60071000D01*
X97789804Y-60038888D01*
X97790500Y-60027670D01*
X97790539Y-60027672D01*
X97790772Y-60023771D01*
X97791161Y-60019412D01*
X97792652Y-60012244D01*
X97790546Y-59934423D01*
X97790500Y-59931014D01*
X97790500Y-56626073D01*
X97807381Y-56563073D01*
X97812509Y-56554192D01*
X97845075Y-56497785D01*
X97902855Y-56319956D01*
X97905259Y-56297089D01*
X97921710Y-56140565D01*
X97922400Y-56134000D01*
X97902855Y-55948044D01*
X97845075Y-55770215D01*
X97790739Y-55676101D01*
X97754888Y-55614006D01*
X97751585Y-55608285D01*
X97692174Y-55542302D01*
X97630885Y-55474234D01*
X97630883Y-55474233D01*
X97626470Y-55469331D01*
X97475200Y-55359427D01*
X97469172Y-55356743D01*
X97469170Y-55356742D01*
X97310416Y-55286060D01*
X97310414Y-55286060D01*
X97304385Y-55283375D01*
X97196257Y-55260392D01*
X97127947Y-55245872D01*
X97127943Y-55245872D01*
X97121490Y-55244500D01*
X97019693Y-55244500D01*
X96951572Y-55224498D01*
X96905079Y-55170842D01*
X96894383Y-55105329D01*
X96905710Y-54997565D01*
X96906400Y-54991000D01*
X96886855Y-54805044D01*
X96881405Y-54788269D01*
X96843281Y-54670938D01*
X96829075Y-54627215D01*
X96735585Y-54465285D01*
X96610470Y-54326331D01*
X96559428Y-54289247D01*
X96464542Y-54220308D01*
X96464541Y-54220307D01*
X96459200Y-54216427D01*
X96453172Y-54213743D01*
X96453170Y-54213742D01*
X96294416Y-54143060D01*
X96294414Y-54143060D01*
X96288385Y-54140375D01*
X96196938Y-54120938D01*
X96111947Y-54102872D01*
X96111943Y-54102872D01*
X96105490Y-54101500D01*
X95918510Y-54101500D01*
X95912057Y-54102872D01*
X95912053Y-54102872D01*
X95827062Y-54120938D01*
X95735615Y-54140375D01*
X95729586Y-54143060D01*
X95729584Y-54143060D01*
X95570830Y-54213742D01*
X95570828Y-54213743D01*
X95564800Y-54216427D01*
X95559459Y-54220307D01*
X95559458Y-54220308D01*
X95464572Y-54289247D01*
X95413530Y-54326331D01*
X95288415Y-54465285D01*
X95194925Y-54627215D01*
X95180719Y-54670938D01*
X95142596Y-54788269D01*
X95137145Y-54805044D01*
X95117600Y-54991000D01*
X95137145Y-55176956D01*
X95194925Y-55354785D01*
X95198228Y-55360507D01*
X95198229Y-55360508D01*
X95232619Y-55420073D01*
X95249500Y-55483073D01*
X95249500Y-58686972D01*
X95229498Y-58755093D01*
X95212595Y-58776067D01*
X84012818Y-69975844D01*
X83949921Y-70009995D01*
X83931079Y-70014000D01*
X83931070Y-70014003D01*
X83924615Y-70015375D01*
X83918586Y-70018060D01*
X83918584Y-70018060D01*
X83759830Y-70088742D01*
X83759828Y-70088743D01*
X83753800Y-70091427D01*
X83602530Y-70201331D01*
X83598117Y-70206233D01*
X83598115Y-70206234D01*
X83509002Y-70305204D01*
X83477415Y-70340285D01*
X83383925Y-70502215D01*
X83326145Y-70680044D01*
X83306600Y-70866000D01*
X83326145Y-71051956D01*
X83328185Y-71058234D01*
X83328185Y-71058235D01*
X83349880Y-71125006D01*
X83383925Y-71229785D01*
X83387228Y-71235507D01*
X83387229Y-71235508D01*
X83455864Y-71354388D01*
X83477415Y-71391715D01*
X83481833Y-71396622D01*
X83481834Y-71396623D01*
X83575356Y-71500489D01*
X83602530Y-71530669D01*
X83753800Y-71640573D01*
X83759828Y-71643257D01*
X83759830Y-71643258D01*
X83894896Y-71703393D01*
X83948992Y-71749373D01*
X83969641Y-71817301D01*
X83950289Y-71885609D01*
X83894896Y-71933607D01*
X83848252Y-71954374D01*
X83759830Y-71993742D01*
X83759828Y-71993743D01*
X83753800Y-71996427D01*
X83602530Y-72106331D01*
X83598117Y-72111233D01*
X83598115Y-72111234D01*
X83518770Y-72199356D01*
X83477415Y-72245285D01*
X83474112Y-72251006D01*
X83392237Y-72392819D01*
X83383925Y-72407215D01*
X83365835Y-72462890D01*
X83330767Y-72570820D01*
X83326145Y-72585044D01*
X83325455Y-72591607D01*
X83325455Y-72591608D01*
X83321243Y-72631680D01*
X83306600Y-72771000D01*
X80539909Y-72771000D01*
X80507129Y-72741173D01*
X80502833Y-72737074D01*
X80486696Y-72720937D01*
X80466414Y-72703979D01*
X80462481Y-72700547D01*
X80452071Y-72691074D01*
X80400248Y-72643919D01*
X80384837Y-72634252D01*
X80370973Y-72624179D01*
X80361320Y-72616107D01*
X80361315Y-72616104D01*
X80357022Y-72612514D01*
X80352159Y-72609740D01*
X80352150Y-72609734D01*
X80283927Y-72570820D01*
X80279399Y-72568110D01*
X80212883Y-72526384D01*
X80212874Y-72526379D01*
X80208126Y-72523401D01*
X80191251Y-72516618D01*
X80175826Y-72509161D01*
X80160022Y-72500146D01*
X80154734Y-72498274D01*
X80154731Y-72498272D01*
X80080673Y-72472047D01*
X80075765Y-72470192D01*
X79997699Y-72438810D01*
X79979897Y-72435123D01*
X79963385Y-72430513D01*
X79951533Y-72426316D01*
X79946238Y-72424441D01*
X79863197Y-72410843D01*
X79858006Y-72409881D01*
X79780139Y-72393755D01*
X79780135Y-72393755D01*
X79775618Y-72392819D01*
X79771011Y-72392553D01*
X79771008Y-72392553D01*
X79747506Y-72391198D01*
X79734401Y-72389751D01*
X79727973Y-72388699D01*
X79727966Y-72388699D01*
X79722425Y-72387791D01*
X79716812Y-72387879D01*
X79716810Y-72387879D01*
X79614645Y-72389484D01*
X79612666Y-72389500D01*
X71951465Y-72389500D01*
X71948678Y-72389749D01*
X71948672Y-72389749D01*
X71878494Y-72396013D01*
X71783105Y-72404526D01*
X71564349Y-72464370D01*
X71559291Y-72466782D01*
X71559287Y-72466784D01*
X71434334Y-72526384D01*
X71359649Y-72562007D01*
X71355088Y-72565284D01*
X71355087Y-72565285D01*
X71240400Y-72647697D01*
X71175474Y-72694351D01*
X71117644Y-72754027D01*
X71030504Y-72843948D01*
X71017645Y-72857217D01*
X70989600Y-72898953D01*
X70894279Y-73040805D01*
X70894276Y-73040810D01*
X70891153Y-73045458D01*
X70888900Y-73050590D01*
X70888898Y-73050594D01*
X70845631Y-73149158D01*
X70799993Y-73253124D01*
X70798683Y-73258581D01*
X70748360Y-73468192D01*
X70748359Y-73468198D01*
X70747050Y-73473651D01*
X70744659Y-73515113D01*
X70736276Y-73660500D01*
X70733994Y-73700069D01*
X70761241Y-73925219D01*
X70762891Y-73930581D01*
X70762891Y-73930583D01*
X70773712Y-73965756D01*
X70827927Y-74141987D01*
X70931946Y-74343519D01*
X71070009Y-74523447D01*
X71075370Y-74528325D01*
X71233605Y-74672308D01*
X71233608Y-74672310D01*
X71237752Y-74676081D01*
X71242503Y-74679062D01*
X71242504Y-74679062D01*
X71425118Y-74793616D01*
X71425122Y-74793618D01*
X71429874Y-74796599D01*
X71640301Y-74881190D01*
X71862382Y-74927181D01*
X71866993Y-74927447D01*
X71866994Y-74927447D01*
X71918121Y-74930395D01*
X71918125Y-74930395D01*
X71919944Y-74930500D01*
X73761333Y-74930500D01*
X73829454Y-74950502D01*
X73875947Y-75004158D01*
X73886051Y-75074432D01*
X73859756Y-75135170D01*
X73852427Y-75144339D01*
X73859495Y-75157785D01*
X74507188Y-75805478D01*
X74521132Y-75813092D01*
X74522965Y-75812961D01*
X74529580Y-75808710D01*
X75181226Y-75157064D01*
X75187656Y-75145289D01*
X75178613Y-75133600D01*
X75152749Y-75067482D01*
X75166738Y-74997877D01*
X75216138Y-74946885D01*
X75278270Y-74930500D01*
X78761333Y-74930500D01*
X78829454Y-74950502D01*
X78875947Y-75004158D01*
X78886051Y-75074432D01*
X78859756Y-75135170D01*
X78852427Y-75144339D01*
X78859495Y-75157785D01*
X80540436Y-76838726D01*
X80552211Y-76845156D01*
X80564226Y-76835860D01*
X80588731Y-76800863D01*
X80594213Y-76791368D01*
X80635638Y-76702532D01*
X80682555Y-76649247D01*
X80750832Y-76629786D01*
X80818792Y-76650328D01*
X80838928Y-76666687D01*
X83745435Y-79573194D01*
X83756303Y-79585585D01*
X83770009Y-79603447D01*
X83792035Y-79623489D01*
X83830871Y-79658827D01*
X83835167Y-79662926D01*
X83851304Y-79679063D01*
X83871586Y-79696021D01*
X83875507Y-79699442D01*
X83937752Y-79756081D01*
X83953163Y-79765748D01*
X83967027Y-79775821D01*
X83976680Y-79783893D01*
X83976685Y-79783896D01*
X83980978Y-79787486D01*
X83985841Y-79790260D01*
X83985850Y-79790266D01*
X84054073Y-79829180D01*
X84058601Y-79831890D01*
X84125117Y-79873616D01*
X84125126Y-79873621D01*
X84129874Y-79876599D01*
X84146749Y-79883382D01*
X84162174Y-79890839D01*
X84177978Y-79899854D01*
X84183266Y-79901726D01*
X84183269Y-79901728D01*
X84257327Y-79927953D01*
X84262235Y-79929808D01*
X84340301Y-79961190D01*
X84345796Y-79962328D01*
X84358104Y-79964877D01*
X84374615Y-79969487D01*
X84391762Y-79975559D01*
X84463216Y-79987260D01*
X84474803Y-79989157D01*
X84479994Y-79990119D01*
X84557861Y-80006245D01*
X84557865Y-80006245D01*
X84562382Y-80007181D01*
X84566989Y-80007447D01*
X84566992Y-80007447D01*
X84590494Y-80008802D01*
X84603599Y-80010249D01*
X84610027Y-80011301D01*
X84610034Y-80011301D01*
X84615575Y-80012209D01*
X84621188Y-80012121D01*
X84621190Y-80012121D01*
X84723355Y-80010516D01*
X84725334Y-80010500D01*
X85181126Y-80010500D01*
X85249247Y-80030502D01*
X85255880Y-80035110D01*
X85256098Y-80035229D01*
X85263284Y-80040615D01*
X85399673Y-80091745D01*
X85461855Y-80098500D01*
X87258123Y-80098500D01*
X87320305Y-80091745D01*
X87456694Y-80040615D01*
X87573250Y-79953261D01*
X87660604Y-79836705D01*
X87678013Y-79790266D01*
X87704587Y-79719382D01*
X87747229Y-79662618D01*
X87813791Y-79637918D01*
X87883139Y-79653126D01*
X87917806Y-79681114D01*
X87946239Y-79713938D01*
X88118115Y-79856632D01*
X88310989Y-79969338D01*
X88519681Y-80049030D01*
X88524749Y-80050061D01*
X88524752Y-80050062D01*
X88602299Y-80065839D01*
X88738586Y-80093567D01*
X88743761Y-80093757D01*
X88743763Y-80093757D01*
X88956662Y-80101564D01*
X88956666Y-80101564D01*
X88961826Y-80101753D01*
X88966946Y-80101097D01*
X88966948Y-80101097D01*
X89178277Y-80074025D01*
X89178278Y-80074025D01*
X89183405Y-80073368D01*
X89206494Y-80066441D01*
X89392418Y-80010661D01*
X89392423Y-80010659D01*
X89397373Y-80009174D01*
X89597983Y-79910896D01*
X89779849Y-79781173D01*
X89802039Y-79759061D01*
X89908344Y-79653126D01*
X89938085Y-79623489D01*
X89974226Y-79573194D01*
X90068442Y-79442077D01*
X90069765Y-79443028D01*
X90116634Y-79399857D01*
X90186569Y-79387625D01*
X90252015Y-79415144D01*
X90279864Y-79446994D01*
X90339976Y-79545088D01*
X90486239Y-79713938D01*
X90658115Y-79856632D01*
X90850989Y-79969338D01*
X91059681Y-80049030D01*
X91064749Y-80050061D01*
X91064752Y-80050062D01*
X91142299Y-80065839D01*
X91278586Y-80093567D01*
X91283761Y-80093757D01*
X91283763Y-80093757D01*
X91496662Y-80101564D01*
X91496666Y-80101564D01*
X91501826Y-80101753D01*
X91506946Y-80101097D01*
X91506948Y-80101097D01*
X91718277Y-80074025D01*
X91718278Y-80074025D01*
X91723405Y-80073368D01*
X91746494Y-80066441D01*
X91932418Y-80010661D01*
X91932423Y-80010659D01*
X91937373Y-80009174D01*
X92137983Y-79910896D01*
X92319849Y-79781173D01*
X92342039Y-79759061D01*
X92448344Y-79653126D01*
X92478085Y-79623489D01*
X92514226Y-79573194D01*
X92608442Y-79442077D01*
X92609765Y-79443028D01*
X92656634Y-79399857D01*
X92726569Y-79387625D01*
X92792015Y-79415144D01*
X92819864Y-79446994D01*
X92879976Y-79545088D01*
X93026239Y-79713938D01*
X93198115Y-79856632D01*
X93390989Y-79969338D01*
X93599681Y-80049030D01*
X93604749Y-80050061D01*
X93604752Y-80050062D01*
X93682299Y-80065839D01*
X93818586Y-80093567D01*
X93823761Y-80093757D01*
X93823763Y-80093757D01*
X94036662Y-80101564D01*
X94036666Y-80101564D01*
X94041826Y-80101753D01*
X94046946Y-80101097D01*
X94046948Y-80101097D01*
X94258277Y-80074025D01*
X94258278Y-80074025D01*
X94263405Y-80073368D01*
X94286494Y-80066441D01*
X94472418Y-80010661D01*
X94472423Y-80010659D01*
X94477373Y-80009174D01*
X94677983Y-79910896D01*
X94859849Y-79781173D01*
X94882039Y-79759061D01*
X94988344Y-79653126D01*
X95018085Y-79623489D01*
X95054226Y-79573194D01*
X95148442Y-79442077D01*
X95149765Y-79443028D01*
X95196634Y-79399857D01*
X95266569Y-79387625D01*
X95332015Y-79415144D01*
X95359864Y-79446994D01*
X95419976Y-79545088D01*
X95566239Y-79713938D01*
X95738115Y-79856632D01*
X95930989Y-79969338D01*
X96139681Y-80049030D01*
X96144749Y-80050061D01*
X96144752Y-80050062D01*
X96222299Y-80065839D01*
X96358586Y-80093567D01*
X96363761Y-80093757D01*
X96363763Y-80093757D01*
X96576662Y-80101564D01*
X96576666Y-80101564D01*
X96581826Y-80101753D01*
X96586946Y-80101097D01*
X96586948Y-80101097D01*
X96798277Y-80074025D01*
X96798278Y-80074025D01*
X96803405Y-80073368D01*
X96826494Y-80066441D01*
X97012418Y-80010661D01*
X97012423Y-80010659D01*
X97017373Y-80009174D01*
X97217983Y-79910896D01*
X97399849Y-79781173D01*
X97422039Y-79759061D01*
X97528344Y-79653126D01*
X97558085Y-79623489D01*
X97594226Y-79573194D01*
X97688442Y-79442077D01*
X97689765Y-79443028D01*
X97736634Y-79399857D01*
X97806569Y-79387625D01*
X97872015Y-79415144D01*
X97899864Y-79446994D01*
X97959976Y-79545088D01*
X98106239Y-79713938D01*
X98278115Y-79856632D01*
X98470989Y-79969338D01*
X98679681Y-80049030D01*
X98684749Y-80050061D01*
X98684752Y-80050062D01*
X98762299Y-80065839D01*
X98898586Y-80093567D01*
X98903761Y-80093757D01*
X98903763Y-80093757D01*
X99116662Y-80101564D01*
X99116666Y-80101564D01*
X99121826Y-80101753D01*
X99126946Y-80101097D01*
X99126948Y-80101097D01*
X99338277Y-80074025D01*
X99338278Y-80074025D01*
X99343405Y-80073368D01*
X99366494Y-80066441D01*
X99552418Y-80010661D01*
X99552423Y-80010659D01*
X99557373Y-80009174D01*
X99757983Y-79910896D01*
X99939849Y-79781173D01*
X99962039Y-79759061D01*
X100068344Y-79653126D01*
X100098085Y-79623489D01*
X100134226Y-79573194D01*
X100228442Y-79442077D01*
X100229765Y-79443028D01*
X100276634Y-79399857D01*
X100346569Y-79387625D01*
X100412015Y-79415144D01*
X100439864Y-79446994D01*
X100499976Y-79545088D01*
X100646239Y-79713938D01*
X100818115Y-79856632D01*
X101010989Y-79969338D01*
X101219681Y-80049030D01*
X101224749Y-80050061D01*
X101224752Y-80050062D01*
X101302299Y-80065839D01*
X101438586Y-80093567D01*
X101443761Y-80093757D01*
X101443763Y-80093757D01*
X101656662Y-80101564D01*
X101656666Y-80101564D01*
X101661826Y-80101753D01*
X101666946Y-80101097D01*
X101666948Y-80101097D01*
X101878277Y-80074025D01*
X101878278Y-80074025D01*
X101883405Y-80073368D01*
X101906494Y-80066441D01*
X102092418Y-80010661D01*
X102092423Y-80010659D01*
X102097373Y-80009174D01*
X102297983Y-79910896D01*
X102479849Y-79781173D01*
X102502039Y-79759061D01*
X102608344Y-79653126D01*
X102638085Y-79623489D01*
X102674226Y-79573194D01*
X102768442Y-79442077D01*
X102769765Y-79443028D01*
X102816634Y-79399857D01*
X102886569Y-79387625D01*
X102952015Y-79415144D01*
X102979864Y-79446994D01*
X103039976Y-79545088D01*
X103186239Y-79713938D01*
X103358115Y-79856632D01*
X103550989Y-79969338D01*
X103759681Y-80049030D01*
X103764749Y-80050061D01*
X103764752Y-80050062D01*
X103842299Y-80065839D01*
X103978586Y-80093567D01*
X103983761Y-80093757D01*
X103983763Y-80093757D01*
X104196662Y-80101564D01*
X104196666Y-80101564D01*
X104201826Y-80101753D01*
X104206946Y-80101097D01*
X104206948Y-80101097D01*
X104418277Y-80074025D01*
X104418278Y-80074025D01*
X104423405Y-80073368D01*
X104446494Y-80066441D01*
X104632418Y-80010661D01*
X104632423Y-80010659D01*
X104637373Y-80009174D01*
X104837983Y-79910896D01*
X105019849Y-79781173D01*
X105042039Y-79759061D01*
X105148344Y-79653126D01*
X105178085Y-79623489D01*
X105214226Y-79573194D01*
X105308442Y-79442077D01*
X105309765Y-79443028D01*
X105356634Y-79399857D01*
X105426569Y-79387625D01*
X105492015Y-79415144D01*
X105519864Y-79446994D01*
X105579976Y-79545088D01*
X105726239Y-79713938D01*
X105898115Y-79856632D01*
X106090989Y-79969338D01*
X106299681Y-80049030D01*
X106304749Y-80050061D01*
X106304752Y-80050062D01*
X106382299Y-80065839D01*
X106518586Y-80093567D01*
X106523761Y-80093757D01*
X106523763Y-80093757D01*
X106736662Y-80101564D01*
X106736666Y-80101564D01*
X106741826Y-80101753D01*
X106746946Y-80101097D01*
X106746948Y-80101097D01*
X106958277Y-80074025D01*
X106958278Y-80074025D01*
X106963405Y-80073368D01*
X106986494Y-80066441D01*
X107172418Y-80010661D01*
X107172423Y-80010659D01*
X107177373Y-80009174D01*
X107377983Y-79910896D01*
X107559849Y-79781173D01*
X107582039Y-79759061D01*
X107688344Y-79653126D01*
X107718085Y-79623489D01*
X107754226Y-79573194D01*
X107848442Y-79442077D01*
X107849765Y-79443028D01*
X107896634Y-79399857D01*
X107966569Y-79387625D01*
X108032015Y-79415144D01*
X108059864Y-79446994D01*
X108119976Y-79545088D01*
X108266239Y-79713938D01*
X108438115Y-79856632D01*
X108630989Y-79969338D01*
X108839681Y-80049030D01*
X108844749Y-80050061D01*
X108844752Y-80050062D01*
X108922299Y-80065839D01*
X109058586Y-80093567D01*
X109063761Y-80093757D01*
X109063763Y-80093757D01*
X109276662Y-80101564D01*
X109276666Y-80101564D01*
X109281826Y-80101753D01*
X109286946Y-80101097D01*
X109286948Y-80101097D01*
X109498277Y-80074025D01*
X109498278Y-80074025D01*
X109503405Y-80073368D01*
X109526494Y-80066441D01*
X109712418Y-80010661D01*
X109712423Y-80010659D01*
X109717373Y-80009174D01*
X109917983Y-79910896D01*
X110099849Y-79781173D01*
X110122039Y-79759061D01*
X110228344Y-79653126D01*
X110258085Y-79623489D01*
X110294226Y-79573194D01*
X110388442Y-79442077D01*
X110389765Y-79443028D01*
X110436634Y-79399857D01*
X110506569Y-79387625D01*
X110572015Y-79415144D01*
X110599864Y-79446994D01*
X110659976Y-79545088D01*
X110806239Y-79713938D01*
X110978115Y-79856632D01*
X111170989Y-79969338D01*
X111379681Y-80049030D01*
X111384749Y-80050061D01*
X111384752Y-80050062D01*
X111462299Y-80065839D01*
X111598586Y-80093567D01*
X111603761Y-80093757D01*
X111603763Y-80093757D01*
X111816662Y-80101564D01*
X111816666Y-80101564D01*
X111821826Y-80101753D01*
X111826946Y-80101097D01*
X111826948Y-80101097D01*
X112038277Y-80074025D01*
X112038278Y-80074025D01*
X112043405Y-80073368D01*
X112066494Y-80066441D01*
X112252418Y-80010661D01*
X112252423Y-80010659D01*
X112257373Y-80009174D01*
X112457983Y-79910896D01*
X112639849Y-79781173D01*
X112662039Y-79759061D01*
X112768344Y-79653126D01*
X112798085Y-79623489D01*
X112834226Y-79573194D01*
X112928442Y-79442077D01*
X112929765Y-79443028D01*
X112976634Y-79399857D01*
X113046569Y-79387625D01*
X113112015Y-79415144D01*
X113139864Y-79446994D01*
X113199976Y-79545088D01*
X113346239Y-79713938D01*
X113518115Y-79856632D01*
X113710989Y-79969338D01*
X113919681Y-80049030D01*
X113924749Y-80050061D01*
X113924752Y-80050062D01*
X114002299Y-80065839D01*
X114138586Y-80093567D01*
X114143761Y-80093757D01*
X114143763Y-80093757D01*
X114356662Y-80101564D01*
X114356666Y-80101564D01*
X114361826Y-80101753D01*
X114366946Y-80101097D01*
X114366948Y-80101097D01*
X114578277Y-80074025D01*
X114578278Y-80074025D01*
X114583405Y-80073368D01*
X114606494Y-80066441D01*
X114792418Y-80010661D01*
X114792423Y-80010659D01*
X114797373Y-80009174D01*
X114997983Y-79910896D01*
X115179849Y-79781173D01*
X115202039Y-79759061D01*
X115308344Y-79653126D01*
X115338085Y-79623489D01*
X115374226Y-79573194D01*
X115468442Y-79442077D01*
X115469765Y-79443028D01*
X115516634Y-79399857D01*
X115586569Y-79387625D01*
X115652015Y-79415144D01*
X115679864Y-79446994D01*
X115739976Y-79545088D01*
X115886239Y-79713938D01*
X116058115Y-79856632D01*
X116250989Y-79969338D01*
X116459681Y-80049030D01*
X116464749Y-80050061D01*
X116464752Y-80050062D01*
X116542299Y-80065839D01*
X116678586Y-80093567D01*
X116683761Y-80093757D01*
X116683763Y-80093757D01*
X116896662Y-80101564D01*
X116896666Y-80101564D01*
X116901826Y-80101753D01*
X116906946Y-80101097D01*
X116906948Y-80101097D01*
X117118277Y-80074025D01*
X117118278Y-80074025D01*
X117123405Y-80073368D01*
X117146494Y-80066441D01*
X117332418Y-80010661D01*
X117332423Y-80010659D01*
X117337373Y-80009174D01*
X117537983Y-79910896D01*
X117719849Y-79781173D01*
X117742039Y-79759061D01*
X117848344Y-79653126D01*
X117878085Y-79623489D01*
X117914226Y-79573194D01*
X118008442Y-79442077D01*
X118009765Y-79443028D01*
X118056634Y-79399857D01*
X118126569Y-79387625D01*
X118192015Y-79415144D01*
X118219864Y-79446994D01*
X118279976Y-79545088D01*
X118426239Y-79713938D01*
X118598115Y-79856632D01*
X118790989Y-79969338D01*
X118999681Y-80049030D01*
X119004749Y-80050061D01*
X119004752Y-80050062D01*
X119082299Y-80065839D01*
X119218586Y-80093567D01*
X119223761Y-80093757D01*
X119223763Y-80093757D01*
X119436662Y-80101564D01*
X119436666Y-80101564D01*
X119441826Y-80101753D01*
X119446946Y-80101097D01*
X119446948Y-80101097D01*
X119658277Y-80074025D01*
X119658278Y-80074025D01*
X119663405Y-80073368D01*
X119686494Y-80066441D01*
X119872418Y-80010661D01*
X119872423Y-80010659D01*
X119877373Y-80009174D01*
X120077983Y-79910896D01*
X120259849Y-79781173D01*
X120282039Y-79759061D01*
X120388344Y-79653126D01*
X120418085Y-79623489D01*
X120454226Y-79573194D01*
X120548442Y-79442077D01*
X120549765Y-79443028D01*
X120596634Y-79399857D01*
X120666569Y-79387625D01*
X120732015Y-79415144D01*
X120759864Y-79446994D01*
X120819976Y-79545088D01*
X120966239Y-79713938D01*
X121138115Y-79856632D01*
X121330989Y-79969338D01*
X121539681Y-80049030D01*
X121544749Y-80050061D01*
X121544752Y-80050062D01*
X121622299Y-80065839D01*
X121758586Y-80093567D01*
X121763761Y-80093757D01*
X121763763Y-80093757D01*
X121976662Y-80101564D01*
X121976666Y-80101564D01*
X121981826Y-80101753D01*
X121986946Y-80101097D01*
X121986948Y-80101097D01*
X122198277Y-80074025D01*
X122198278Y-80074025D01*
X122203405Y-80073368D01*
X122226494Y-80066441D01*
X122412418Y-80010661D01*
X122412423Y-80010659D01*
X122417373Y-80009174D01*
X122617983Y-79910896D01*
X122799849Y-79781173D01*
X122822039Y-79759061D01*
X122928344Y-79653126D01*
X122958085Y-79623489D01*
X122994226Y-79573194D01*
X123088442Y-79442077D01*
X123089765Y-79443028D01*
X123136634Y-79399857D01*
X123206569Y-79387625D01*
X123272015Y-79415144D01*
X123299864Y-79446994D01*
X123359976Y-79545088D01*
X123506239Y-79713938D01*
X123678115Y-79856632D01*
X123870989Y-79969338D01*
X124079681Y-80049030D01*
X124084749Y-80050061D01*
X124084752Y-80050062D01*
X124162299Y-80065839D01*
X124298586Y-80093567D01*
X124303761Y-80093757D01*
X124303763Y-80093757D01*
X124516662Y-80101564D01*
X124516666Y-80101564D01*
X124521826Y-80101753D01*
X124526946Y-80101097D01*
X124526948Y-80101097D01*
X124738277Y-80074025D01*
X124738278Y-80074025D01*
X124743405Y-80073368D01*
X124766494Y-80066441D01*
X124952418Y-80010661D01*
X124952423Y-80010659D01*
X124957373Y-80009174D01*
X125157983Y-79910896D01*
X125339849Y-79781173D01*
X125362039Y-79759061D01*
X125468344Y-79653126D01*
X125498085Y-79623489D01*
X125534226Y-79573194D01*
X125625424Y-79446277D01*
X125628442Y-79442077D01*
X125633426Y-79431994D01*
X125725125Y-79246453D01*
X125725126Y-79246451D01*
X125727419Y-79241811D01*
X125792359Y-79028069D01*
X125821518Y-78806590D01*
X125821659Y-78800823D01*
X125823063Y-78743365D01*
X125823063Y-78743361D01*
X125823145Y-78740000D01*
X125804841Y-78517361D01*
X125750420Y-78300702D01*
X125661343Y-78095840D01*
X125612827Y-78020845D01*
X125542811Y-77912617D01*
X125542809Y-77912614D01*
X125540003Y-77908277D01*
X125389659Y-77743051D01*
X125385608Y-77739852D01*
X125385604Y-77739848D01*
X125218403Y-77607800D01*
X125218399Y-77607798D01*
X125214348Y-77604598D01*
X125172558Y-77581529D01*
X125122587Y-77531097D01*
X125107815Y-77461654D01*
X125132931Y-77395248D01*
X125160283Y-77368641D01*
X125335317Y-77243792D01*
X125343189Y-77237139D01*
X125494041Y-77086812D01*
X125500719Y-77078965D01*
X125624992Y-76906020D01*
X125630302Y-76897183D01*
X125724659Y-76706267D01*
X125728458Y-76696672D01*
X125790366Y-76492910D01*
X125792544Y-76482837D01*
X125793975Y-76471962D01*
X125791764Y-76457778D01*
X125778606Y-76454000D01*
X124331989Y-76454000D01*
X124263868Y-76433998D01*
X124217375Y-76380342D01*
X124205989Y-76328000D01*
X124205989Y-75927885D01*
X124713989Y-75927885D01*
X124718464Y-75943124D01*
X124719854Y-75944329D01*
X124727537Y-75946000D01*
X125778333Y-75946000D01*
X125791864Y-75942027D01*
X125793169Y-75932947D01*
X125751203Y-75765875D01*
X125747883Y-75756124D01*
X125662961Y-75560814D01*
X125658094Y-75551739D01*
X125542415Y-75372926D01*
X125536125Y-75364757D01*
X125392795Y-75207240D01*
X125385262Y-75200215D01*
X125218128Y-75068222D01*
X125209541Y-75062517D01*
X125023106Y-74959599D01*
X125013694Y-74955369D01*
X124812948Y-74884280D01*
X124802977Y-74881646D01*
X124731826Y-74868972D01*
X124718529Y-74870432D01*
X124713989Y-74884989D01*
X124713989Y-75927885D01*
X124205989Y-75927885D01*
X124205989Y-74883102D01*
X124202071Y-74869758D01*
X124187795Y-74867771D01*
X124149313Y-74873660D01*
X124139277Y-74876051D01*
X123936857Y-74942212D01*
X123927348Y-74946209D01*
X123738452Y-75044542D01*
X123729727Y-75050036D01*
X123559422Y-75177905D01*
X123551715Y-75184748D01*
X123404579Y-75338717D01*
X123398098Y-75346722D01*
X123293487Y-75500074D01*
X123238576Y-75545076D01*
X123168051Y-75553247D01*
X123104304Y-75521993D01*
X123083607Y-75497509D01*
X123002811Y-75372617D01*
X123002809Y-75372614D01*
X123000003Y-75368277D01*
X122849659Y-75203051D01*
X122845608Y-75199852D01*
X122845604Y-75199848D01*
X122678403Y-75067800D01*
X122678399Y-75067798D01*
X122674348Y-75064598D01*
X122638017Y-75044542D01*
X122619818Y-75034496D01*
X122478778Y-74956638D01*
X122473909Y-74954914D01*
X122473905Y-74954912D01*
X122273076Y-74883795D01*
X122273072Y-74883794D01*
X122268201Y-74882069D01*
X122263108Y-74881162D01*
X122263105Y-74881161D01*
X122053362Y-74843800D01*
X122053356Y-74843799D01*
X122048273Y-74842894D01*
X121974441Y-74841992D01*
X121830070Y-74840228D01*
X121830068Y-74840228D01*
X121824900Y-74840165D01*
X121604080Y-74873955D01*
X121391745Y-74943357D01*
X121337036Y-74971837D01*
X121274948Y-75004158D01*
X121193596Y-75046507D01*
X121189463Y-75049610D01*
X121189460Y-75049612D01*
X121045387Y-75157785D01*
X121014954Y-75180635D01*
X120860618Y-75342138D01*
X120753190Y-75499621D01*
X120698282Y-75544621D01*
X120627757Y-75552792D01*
X120564010Y-75521538D01*
X120543313Y-75497054D01*
X120462811Y-75372617D01*
X120462809Y-75372614D01*
X120460003Y-75368277D01*
X120309659Y-75203051D01*
X120305608Y-75199852D01*
X120305604Y-75199848D01*
X120138403Y-75067800D01*
X120138399Y-75067798D01*
X120134348Y-75064598D01*
X120098017Y-75044542D01*
X120079818Y-75034496D01*
X119938778Y-74956638D01*
X119933909Y-74954914D01*
X119933905Y-74954912D01*
X119733076Y-74883795D01*
X119733072Y-74883794D01*
X119728201Y-74882069D01*
X119723108Y-74881162D01*
X119723105Y-74881161D01*
X119513362Y-74843800D01*
X119513356Y-74843799D01*
X119508273Y-74842894D01*
X119434441Y-74841992D01*
X119290070Y-74840228D01*
X119290068Y-74840228D01*
X119284900Y-74840165D01*
X119064080Y-74873955D01*
X118851745Y-74943357D01*
X118797036Y-74971837D01*
X118734948Y-75004158D01*
X118653596Y-75046507D01*
X118649463Y-75049610D01*
X118649460Y-75049612D01*
X118505387Y-75157785D01*
X118474954Y-75180635D01*
X118320618Y-75342138D01*
X118213190Y-75499621D01*
X118158282Y-75544621D01*
X118087757Y-75552792D01*
X118024010Y-75521538D01*
X118003313Y-75497054D01*
X117922811Y-75372617D01*
X117922809Y-75372614D01*
X117920003Y-75368277D01*
X117769659Y-75203051D01*
X117765608Y-75199852D01*
X117765604Y-75199848D01*
X117598403Y-75067800D01*
X117598399Y-75067798D01*
X117594348Y-75064598D01*
X117558017Y-75044542D01*
X117539818Y-75034496D01*
X117398778Y-74956638D01*
X117393909Y-74954914D01*
X117393905Y-74954912D01*
X117193076Y-74883795D01*
X117193072Y-74883794D01*
X117188201Y-74882069D01*
X117183108Y-74881162D01*
X117183105Y-74881161D01*
X116973362Y-74843800D01*
X116973356Y-74843799D01*
X116968273Y-74842894D01*
X116894441Y-74841992D01*
X116750070Y-74840228D01*
X116750068Y-74840228D01*
X116744900Y-74840165D01*
X116524080Y-74873955D01*
X116311745Y-74943357D01*
X116257036Y-74971837D01*
X116194948Y-75004158D01*
X116113596Y-75046507D01*
X116109463Y-75049610D01*
X116109460Y-75049612D01*
X115965387Y-75157785D01*
X115934954Y-75180635D01*
X115780618Y-75342138D01*
X115673190Y-75499621D01*
X115618282Y-75544621D01*
X115547757Y-75552792D01*
X115484010Y-75521538D01*
X115463313Y-75497054D01*
X115382811Y-75372617D01*
X115382809Y-75372614D01*
X115380003Y-75368277D01*
X115229659Y-75203051D01*
X115171430Y-75157064D01*
X115100033Y-75100677D01*
X115058971Y-75042760D01*
X115055739Y-74971837D01*
X115089031Y-74912701D01*
X115796316Y-74205416D01*
X115858628Y-74171390D01*
X115885411Y-74168511D01*
X121332969Y-74168511D01*
X121344203Y-74169041D01*
X121351708Y-74170719D01*
X121420001Y-74168573D01*
X121423958Y-74168511D01*
X121451972Y-74168511D01*
X121455897Y-74168015D01*
X121455898Y-74168015D01*
X121455993Y-74168003D01*
X121467838Y-74167070D01*
X121497659Y-74166133D01*
X121504271Y-74165925D01*
X121504272Y-74165925D01*
X121512194Y-74165676D01*
X121531738Y-74159998D01*
X121551101Y-74155988D01*
X121563429Y-74154431D01*
X121563431Y-74154431D01*
X121571288Y-74153438D01*
X121578652Y-74150522D01*
X121578657Y-74150521D01*
X121612545Y-74137104D01*
X121623774Y-74133259D01*
X121640454Y-74128413D01*
X121666382Y-74120880D01*
X121673209Y-74116842D01*
X121673212Y-74116841D01*
X121683895Y-74110523D01*
X121701653Y-74101823D01*
X121713204Y-74097250D01*
X121713210Y-74097246D01*
X121720577Y-74094330D01*
X121756480Y-74068245D01*
X121766399Y-74061730D01*
X121797757Y-74043185D01*
X121797761Y-74043182D01*
X121804587Y-74039145D01*
X121818971Y-74024761D01*
X121834005Y-74011920D01*
X121844062Y-74004613D01*
X121850476Y-73999953D01*
X121878767Y-73965755D01*
X121886756Y-73956976D01*
X125575327Y-70268405D01*
X125637639Y-70234379D01*
X125664422Y-70231500D01*
X125730862Y-70231500D01*
X125798983Y-70251502D01*
X125845476Y-70305158D01*
X125855580Y-70375432D01*
X125841277Y-70418200D01*
X125817535Y-70461387D01*
X125817533Y-70461392D01*
X125814567Y-70466787D01*
X125812706Y-70472654D01*
X125812705Y-70472656D01*
X125801335Y-70508500D01*
X125754765Y-70655306D01*
X125732719Y-70851851D01*
X125733235Y-70857995D01*
X125748724Y-71042453D01*
X125749268Y-71048934D01*
X125765680Y-71106169D01*
X125799836Y-71225284D01*
X125803783Y-71239050D01*
X125806602Y-71244535D01*
X125870841Y-71369529D01*
X125894187Y-71414956D01*
X125898016Y-71419787D01*
X125899839Y-71422088D01*
X125900414Y-71423509D01*
X125901353Y-71424966D01*
X125901076Y-71425144D01*
X125926474Y-71487898D01*
X125913301Y-71557662D01*
X125909846Y-71563474D01*
X125814567Y-71736787D01*
X125812706Y-71742654D01*
X125812705Y-71742656D01*
X125767358Y-71885609D01*
X125754765Y-71925306D01*
X125732719Y-72121851D01*
X125733235Y-72127995D01*
X125747740Y-72300732D01*
X125749268Y-72318934D01*
X125769880Y-72390818D01*
X125801230Y-72500146D01*
X125803783Y-72509050D01*
X125894187Y-72684956D01*
X126017035Y-72839953D01*
X126021728Y-72843947D01*
X126021729Y-72843948D01*
X126159886Y-72961528D01*
X126167650Y-72968136D01*
X126340294Y-73064624D01*
X126528392Y-73125740D01*
X126724777Y-73149158D01*
X126730912Y-73148686D01*
X126730914Y-73148686D01*
X126915830Y-73134457D01*
X126915834Y-73134456D01*
X126921972Y-73133984D01*
X127112463Y-73080798D01*
X127117967Y-73078018D01*
X127117969Y-73078017D01*
X127283493Y-72994405D01*
X127283495Y-72994404D01*
X127288996Y-72991625D01*
X127302973Y-72980705D01*
X127368967Y-72954525D01*
X127442020Y-72970004D01*
X127605121Y-73061159D01*
X127616356Y-73066067D01*
X127744768Y-73107790D01*
X127758867Y-73108193D01*
X127762000Y-73101821D01*
X127762000Y-72008000D01*
X127782002Y-71939879D01*
X127835658Y-71893386D01*
X127888000Y-71882000D01*
X128144000Y-71882000D01*
X128212121Y-71902002D01*
X128258614Y-71955658D01*
X128270000Y-72008000D01*
X128270000Y-73093564D01*
X128273973Y-73107095D01*
X128282188Y-73108276D01*
X128376337Y-73081989D01*
X128387787Y-73077548D01*
X128553226Y-72993979D01*
X128563585Y-72987404D01*
X128709639Y-72873295D01*
X128718527Y-72864831D01*
X128813857Y-72754390D01*
X128873510Y-72715893D01*
X128944507Y-72715757D01*
X129004306Y-72754027D01*
X129033922Y-72818551D01*
X129035239Y-72836721D01*
X129035239Y-78186367D01*
X129033738Y-78205755D01*
X129031429Y-78220579D01*
X129031429Y-78220588D01*
X129030048Y-78229456D01*
X129032401Y-78247452D01*
X129033267Y-78270848D01*
X129030713Y-78316318D01*
X129019664Y-78513009D01*
X129018083Y-78527039D01*
X128972743Y-78793871D01*
X128969607Y-78807608D01*
X128904664Y-79033023D01*
X128894683Y-79067668D01*
X128890017Y-79081004D01*
X128786446Y-79331043D01*
X128780315Y-79343773D01*
X128649409Y-79580627D01*
X128641892Y-79592591D01*
X128485277Y-79813319D01*
X128476479Y-79824350D01*
X128313091Y-80007181D01*
X128296140Y-80026149D01*
X128286150Y-80036139D01*
X128084350Y-80216479D01*
X128073319Y-80225277D01*
X127957933Y-80307148D01*
X127852591Y-80381892D01*
X127840627Y-80389409D01*
X127603773Y-80520315D01*
X127591043Y-80526446D01*
X127341004Y-80630017D01*
X127327671Y-80634682D01*
X127067608Y-80709607D01*
X127053871Y-80712743D01*
X126787039Y-80758083D01*
X126773008Y-80759664D01*
X126538139Y-80772857D01*
X126511691Y-80771555D01*
X126510885Y-80771430D01*
X126510884Y-80771430D01*
X126502008Y-80770048D01*
X126472355Y-80773926D01*
X126470451Y-80774175D01*
X126454112Y-80775239D01*
X56433633Y-80775239D01*
X56414245Y-80773738D01*
X56399421Y-80771429D01*
X56399412Y-80771429D01*
X56390544Y-80770048D01*
X56372548Y-80772401D01*
X56349152Y-80773267D01*
X56229174Y-80766528D01*
X56106991Y-80759664D01*
X56092961Y-80758083D01*
X55826129Y-80712743D01*
X55812392Y-80709607D01*
X55552329Y-80634682D01*
X55538996Y-80630017D01*
X55288957Y-80526446D01*
X55276227Y-80520315D01*
X55039373Y-80389409D01*
X55027409Y-80381892D01*
X54922067Y-80307148D01*
X54806681Y-80225277D01*
X54795650Y-80216479D01*
X54593850Y-80036139D01*
X54583860Y-80026149D01*
X54566909Y-80007181D01*
X54403521Y-79824350D01*
X54394723Y-79813319D01*
X54238108Y-79592591D01*
X54230591Y-79580627D01*
X54099685Y-79343773D01*
X54093554Y-79331043D01*
X53989983Y-79081004D01*
X53985317Y-79067668D01*
X53975336Y-79033023D01*
X53920619Y-78843103D01*
X62331275Y-78843103D01*
X62333325Y-78860819D01*
X62335285Y-78870716D01*
X62398604Y-79094483D01*
X62402116Y-79103927D01*
X62500399Y-79314694D01*
X62505378Y-79323460D01*
X62636087Y-79515791D01*
X62642419Y-79523666D01*
X62802186Y-79692615D01*
X62809695Y-79699376D01*
X62994426Y-79840614D01*
X63002905Y-79846078D01*
X63207847Y-79955967D01*
X63217099Y-79960009D01*
X63436971Y-80035716D01*
X63446743Y-80038225D01*
X63676971Y-80077993D01*
X63684843Y-80078848D01*
X63708551Y-80079925D01*
X63711384Y-80079989D01*
X64645885Y-80079989D01*
X64661124Y-80075514D01*
X64662329Y-80074124D01*
X64664000Y-80066441D01*
X64664000Y-80061874D01*
X65172000Y-80061874D01*
X65176475Y-80077113D01*
X65177865Y-80078318D01*
X65185548Y-80079989D01*
X66076456Y-80079989D01*
X66081488Y-80079787D01*
X66254843Y-80065839D01*
X66264796Y-80064227D01*
X66490633Y-80008756D01*
X66500203Y-80005573D01*
X66714265Y-79914709D01*
X66723207Y-79910034D01*
X66919987Y-79786115D01*
X66928060Y-79780075D01*
X67102500Y-79626286D01*
X67109504Y-79619033D01*
X67257110Y-79439335D01*
X67262866Y-79431053D01*
X67352334Y-79277332D01*
X72412000Y-79277332D01*
X72412285Y-79283308D01*
X72426471Y-79431994D01*
X72428730Y-79443728D01*
X72484872Y-79635099D01*
X72489302Y-79646175D01*
X72580619Y-79823478D01*
X72587069Y-79833524D01*
X72710262Y-79990357D01*
X72718499Y-79999006D01*
X72869123Y-80129712D01*
X72878847Y-80136647D01*
X73051467Y-80236510D01*
X73062331Y-80241484D01*
X73250727Y-80306907D01*
X73251716Y-80307148D01*
X73262008Y-80305680D01*
X73266000Y-80292115D01*
X73266000Y-80287902D01*
X73774000Y-80287902D01*
X73777973Y-80301433D01*
X73787399Y-80302788D01*
X73876537Y-80281306D01*
X73887832Y-80277417D01*
X74069382Y-80194871D01*
X74079724Y-80188924D01*
X74242397Y-80073532D01*
X74251425Y-80065739D01*
X74389342Y-79921669D01*
X74396738Y-79912304D01*
X74504921Y-79744759D01*
X74510417Y-79734155D01*
X74584961Y-79549188D01*
X74588355Y-79537730D01*
X74626857Y-79340572D01*
X74627934Y-79331709D01*
X74628000Y-79329000D01*
X74628000Y-79277332D01*
X79412000Y-79277332D01*
X79412285Y-79283308D01*
X79426471Y-79431994D01*
X79428730Y-79443728D01*
X79484872Y-79635099D01*
X79489302Y-79646175D01*
X79580619Y-79823478D01*
X79587069Y-79833524D01*
X79710262Y-79990357D01*
X79718499Y-79999006D01*
X79869123Y-80129712D01*
X79878847Y-80136647D01*
X80051467Y-80236510D01*
X80062331Y-80241484D01*
X80250727Y-80306907D01*
X80251716Y-80307148D01*
X80262008Y-80305680D01*
X80266000Y-80292115D01*
X80266000Y-80287902D01*
X80774000Y-80287902D01*
X80777973Y-80301433D01*
X80787399Y-80302788D01*
X80876537Y-80281306D01*
X80887832Y-80277417D01*
X81069382Y-80194871D01*
X81079724Y-80188924D01*
X81242397Y-80073532D01*
X81251425Y-80065739D01*
X81389342Y-79921669D01*
X81396738Y-79912304D01*
X81504921Y-79744759D01*
X81510417Y-79734155D01*
X81584961Y-79549188D01*
X81588355Y-79537730D01*
X81626857Y-79340572D01*
X81627934Y-79331709D01*
X81628000Y-79329000D01*
X81628000Y-79149615D01*
X81623525Y-79134376D01*
X81622135Y-79133171D01*
X81614452Y-79131500D01*
X80792115Y-79131500D01*
X80776876Y-79135975D01*
X80775671Y-79137365D01*
X80774000Y-79145048D01*
X80774000Y-80287902D01*
X80266000Y-80287902D01*
X80266000Y-79149615D01*
X80261525Y-79134376D01*
X80260135Y-79133171D01*
X80252452Y-79131500D01*
X79430115Y-79131500D01*
X79414876Y-79135975D01*
X79413671Y-79137365D01*
X79412000Y-79145048D01*
X79412000Y-79277332D01*
X74628000Y-79277332D01*
X74628000Y-79149615D01*
X74623525Y-79134376D01*
X74622135Y-79133171D01*
X74614452Y-79131500D01*
X73792115Y-79131500D01*
X73776876Y-79135975D01*
X73775671Y-79137365D01*
X73774000Y-79145048D01*
X73774000Y-80287902D01*
X73266000Y-80287902D01*
X73266000Y-79149615D01*
X73261525Y-79134376D01*
X73260135Y-79133171D01*
X73252452Y-79131500D01*
X72430115Y-79131500D01*
X72414876Y-79135975D01*
X72413671Y-79137365D01*
X72412000Y-79145048D01*
X72412000Y-79277332D01*
X67352334Y-79277332D01*
X67379841Y-79230070D01*
X67384203Y-79220965D01*
X67467537Y-79003874D01*
X67470388Y-78994185D01*
X67501821Y-78843725D01*
X67500698Y-78829664D01*
X67490590Y-78825989D01*
X65190115Y-78825989D01*
X65174876Y-78830464D01*
X65173671Y-78831854D01*
X65172000Y-78839537D01*
X65172000Y-80061874D01*
X64664000Y-80061874D01*
X64664000Y-78844104D01*
X64659525Y-78828865D01*
X64658135Y-78827660D01*
X64650452Y-78825989D01*
X62347410Y-78825989D01*
X62333324Y-78830125D01*
X62331275Y-78843103D01*
X53920619Y-78843103D01*
X53910393Y-78807608D01*
X53907257Y-78793871D01*
X53875230Y-78605385D01*
X72412000Y-78605385D01*
X72416475Y-78620624D01*
X72417865Y-78621829D01*
X72425548Y-78623500D01*
X73247885Y-78623500D01*
X73263124Y-78619025D01*
X73264329Y-78617635D01*
X73266000Y-78609952D01*
X73266000Y-78605385D01*
X73774000Y-78605385D01*
X73778475Y-78620624D01*
X73779865Y-78621829D01*
X73787548Y-78623500D01*
X74609885Y-78623500D01*
X74625124Y-78619025D01*
X74626329Y-78617635D01*
X74628000Y-78609952D01*
X74628000Y-78477668D01*
X74627715Y-78471692D01*
X74613529Y-78323006D01*
X74611270Y-78311272D01*
X74555128Y-78119901D01*
X74550698Y-78108825D01*
X74459381Y-77931522D01*
X74452931Y-77921476D01*
X74329738Y-77764643D01*
X74321501Y-77755994D01*
X74170877Y-77625288D01*
X74161153Y-77618353D01*
X74147968Y-77610725D01*
X74099019Y-77559300D01*
X74085644Y-77489574D01*
X74112089Y-77423686D01*
X74169957Y-77382555D01*
X74243674Y-77379954D01*
X74299759Y-77394982D01*
X74310554Y-77396885D01*
X74514525Y-77414731D01*
X74525475Y-77414731D01*
X74729446Y-77396885D01*
X74740241Y-77394982D01*
X74938012Y-77341990D01*
X74948304Y-77338244D01*
X75133868Y-77251714D01*
X75143363Y-77246231D01*
X75179197Y-77221140D01*
X75187573Y-77210661D01*
X75187074Y-77209711D01*
X78852344Y-77209711D01*
X78861640Y-77221726D01*
X78896637Y-77246231D01*
X78906132Y-77251714D01*
X79091696Y-77338244D01*
X79101988Y-77341990D01*
X79299759Y-77394982D01*
X79310554Y-77396885D01*
X79514525Y-77414731D01*
X79525475Y-77414731D01*
X79729446Y-77396885D01*
X79740238Y-77394982D01*
X79803344Y-77378073D01*
X79874321Y-77379763D01*
X79933117Y-77419557D01*
X79961065Y-77484821D01*
X79949292Y-77554835D01*
X79908856Y-77602549D01*
X79797610Y-77681462D01*
X79788575Y-77689261D01*
X79650658Y-77833331D01*
X79643262Y-77842696D01*
X79535079Y-78010241D01*
X79529583Y-78020845D01*
X79455039Y-78205812D01*
X79451645Y-78217270D01*
X79413143Y-78414428D01*
X79412066Y-78423291D01*
X79412000Y-78426000D01*
X79412000Y-78605385D01*
X79416475Y-78620624D01*
X79417865Y-78621829D01*
X79425548Y-78623500D01*
X80247885Y-78623500D01*
X80263124Y-78619025D01*
X80264329Y-78617635D01*
X80266000Y-78609952D01*
X80266000Y-78605385D01*
X80774000Y-78605385D01*
X80778475Y-78620624D01*
X80779865Y-78621829D01*
X80787548Y-78623500D01*
X81609885Y-78623500D01*
X81625124Y-78619025D01*
X81626329Y-78617635D01*
X81628000Y-78609952D01*
X81628000Y-78477668D01*
X81627715Y-78471692D01*
X81613529Y-78323006D01*
X81611270Y-78311272D01*
X81555128Y-78119901D01*
X81550698Y-78108825D01*
X81459381Y-77931522D01*
X81452931Y-77921476D01*
X81329738Y-77764643D01*
X81321501Y-77755994D01*
X81170877Y-77625288D01*
X81161153Y-77618353D01*
X80988533Y-77518490D01*
X80977669Y-77513516D01*
X80789273Y-77448093D01*
X80788284Y-77447852D01*
X80777992Y-77449320D01*
X80774000Y-77462885D01*
X80774000Y-78605385D01*
X80266000Y-78605385D01*
X80266000Y-77467098D01*
X80262027Y-77453568D01*
X80233062Y-77449404D01*
X80168481Y-77419911D01*
X80130097Y-77360185D01*
X80130097Y-77289188D01*
X80168480Y-77229462D01*
X80178720Y-77221475D01*
X80179195Y-77221142D01*
X80187573Y-77210661D01*
X80180505Y-77197215D01*
X79532812Y-76549522D01*
X79518868Y-76541908D01*
X79517035Y-76542039D01*
X79510420Y-76546290D01*
X78858774Y-77197936D01*
X78852344Y-77209711D01*
X75187074Y-77209711D01*
X75180505Y-77197215D01*
X74532812Y-76549522D01*
X74518868Y-76541908D01*
X74517035Y-76542039D01*
X74510420Y-76546290D01*
X73858774Y-77197936D01*
X73852344Y-77209711D01*
X73873349Y-77236861D01*
X73872132Y-77237803D01*
X73900610Y-77273430D01*
X73907920Y-77344049D01*
X73875889Y-77407410D01*
X73814688Y-77443395D01*
X73801799Y-77445925D01*
X73777992Y-77449320D01*
X73774000Y-77462885D01*
X73774000Y-78605385D01*
X73266000Y-78605385D01*
X73266000Y-77467098D01*
X73262027Y-77453567D01*
X73252601Y-77452212D01*
X73163463Y-77473694D01*
X73152168Y-77477583D01*
X72970618Y-77560129D01*
X72960276Y-77566076D01*
X72797603Y-77681468D01*
X72788575Y-77689261D01*
X72650658Y-77833331D01*
X72643262Y-77842696D01*
X72535079Y-78010241D01*
X72529583Y-78020845D01*
X72455039Y-78205812D01*
X72451645Y-78217270D01*
X72413143Y-78414428D01*
X72412066Y-78423291D01*
X72412000Y-78426000D01*
X72412000Y-78605385D01*
X53875230Y-78605385D01*
X53861917Y-78527039D01*
X53860336Y-78513008D01*
X53848385Y-78300253D01*
X62334179Y-78300253D01*
X62335302Y-78314314D01*
X62345410Y-78317989D01*
X64645885Y-78317989D01*
X64661124Y-78313514D01*
X64662329Y-78312124D01*
X64664000Y-78304441D01*
X64664000Y-78299874D01*
X65172000Y-78299874D01*
X65176475Y-78315113D01*
X65177865Y-78316318D01*
X65185548Y-78317989D01*
X67488590Y-78317989D01*
X67502676Y-78313853D01*
X67504725Y-78300875D01*
X67502675Y-78283159D01*
X67500715Y-78273262D01*
X67437396Y-78049495D01*
X67433884Y-78040051D01*
X67335601Y-77829284D01*
X67330622Y-77820518D01*
X67199913Y-77628187D01*
X67193581Y-77620312D01*
X67033814Y-77451363D01*
X67026305Y-77444602D01*
X66841574Y-77303364D01*
X66833095Y-77297900D01*
X66628153Y-77188011D01*
X66618901Y-77183969D01*
X66399029Y-77108262D01*
X66389257Y-77105753D01*
X66159029Y-77065985D01*
X66151157Y-77065130D01*
X66127449Y-77064053D01*
X66124616Y-77063989D01*
X65190115Y-77063989D01*
X65174876Y-77068464D01*
X65173671Y-77069854D01*
X65172000Y-77077537D01*
X65172000Y-78299874D01*
X64664000Y-78299874D01*
X64664000Y-77082104D01*
X64659525Y-77066865D01*
X64658135Y-77065660D01*
X64650452Y-77063989D01*
X63759544Y-77063989D01*
X63754512Y-77064191D01*
X63581157Y-77078139D01*
X63571204Y-77079751D01*
X63345367Y-77135222D01*
X63335797Y-77138405D01*
X63121735Y-77229269D01*
X63112793Y-77233944D01*
X62916013Y-77357863D01*
X62907940Y-77363903D01*
X62733500Y-77517692D01*
X62726496Y-77524945D01*
X62578890Y-77704643D01*
X62573134Y-77712925D01*
X62456159Y-77913908D01*
X62451797Y-77923013D01*
X62368463Y-78140104D01*
X62365612Y-78149793D01*
X62334179Y-78300253D01*
X53848385Y-78300253D01*
X53847143Y-78278139D01*
X53848445Y-78251691D01*
X53848570Y-78250885D01*
X53848570Y-78250884D01*
X53849952Y-78242008D01*
X53845825Y-78210451D01*
X53844761Y-78194112D01*
X53844761Y-74930445D01*
X60010000Y-74930445D01*
X60010202Y-74935477D01*
X60024150Y-75108832D01*
X60025762Y-75118785D01*
X60081233Y-75344622D01*
X60084416Y-75354192D01*
X60175280Y-75568254D01*
X60179955Y-75577196D01*
X60303874Y-75773976D01*
X60309914Y-75782049D01*
X60463703Y-75956489D01*
X60470956Y-75963493D01*
X60650654Y-76111099D01*
X60658936Y-76116855D01*
X60859919Y-76233830D01*
X60869024Y-76238192D01*
X61086115Y-76321526D01*
X61095804Y-76324377D01*
X61246264Y-76355810D01*
X61260325Y-76354687D01*
X61264000Y-76344579D01*
X61264000Y-76342579D01*
X61772000Y-76342579D01*
X61776136Y-76356665D01*
X61789114Y-76358714D01*
X61806830Y-76356664D01*
X61816727Y-76354704D01*
X62040494Y-76291385D01*
X62049938Y-76287873D01*
X62260705Y-76189590D01*
X62269471Y-76184611D01*
X62364361Y-76120123D01*
X66309500Y-76120123D01*
X66316255Y-76182305D01*
X66367385Y-76318694D01*
X66454739Y-76435250D01*
X66571295Y-76522604D01*
X66707684Y-76573734D01*
X66769866Y-76580489D01*
X68866134Y-76580489D01*
X68928316Y-76573734D01*
X69064705Y-76522604D01*
X69181261Y-76435250D01*
X69268615Y-76318694D01*
X69319494Y-76182975D01*
X73282769Y-76182975D01*
X73300615Y-76386946D01*
X73302518Y-76397741D01*
X73355510Y-76595512D01*
X73359256Y-76605804D01*
X73445786Y-76791368D01*
X73451269Y-76800863D01*
X73476360Y-76836697D01*
X73486839Y-76845073D01*
X73500285Y-76838005D01*
X74147978Y-76190312D01*
X74154356Y-76178632D01*
X74884408Y-76178632D01*
X74884539Y-76180465D01*
X74888790Y-76187080D01*
X75540436Y-76838726D01*
X75552211Y-76845156D01*
X75564226Y-76835860D01*
X75588731Y-76800863D01*
X75594214Y-76791368D01*
X75680744Y-76605804D01*
X75684490Y-76595512D01*
X75737482Y-76397741D01*
X75739385Y-76386946D01*
X75757231Y-76182975D01*
X78282769Y-76182975D01*
X78300615Y-76386946D01*
X78302518Y-76397741D01*
X78355510Y-76595512D01*
X78359256Y-76605804D01*
X78445786Y-76791368D01*
X78451269Y-76800863D01*
X78476360Y-76836697D01*
X78486839Y-76845073D01*
X78500285Y-76838005D01*
X79147978Y-76190312D01*
X79155592Y-76176368D01*
X79155461Y-76174535D01*
X79151210Y-76167920D01*
X78499564Y-75516274D01*
X78487789Y-75509844D01*
X78475774Y-75519140D01*
X78451269Y-75554137D01*
X78445786Y-75563632D01*
X78359256Y-75749196D01*
X78355510Y-75759488D01*
X78302518Y-75957259D01*
X78300615Y-75968054D01*
X78282769Y-76172025D01*
X78282769Y-76182975D01*
X75757231Y-76182975D01*
X75757231Y-76172025D01*
X75739385Y-75968054D01*
X75737482Y-75957259D01*
X75684490Y-75759488D01*
X75680744Y-75749196D01*
X75594214Y-75563632D01*
X75588731Y-75554137D01*
X75563640Y-75518303D01*
X75553161Y-75509927D01*
X75539715Y-75516995D01*
X74892022Y-76164688D01*
X74884408Y-76178632D01*
X74154356Y-76178632D01*
X74155592Y-76176368D01*
X74155461Y-76174535D01*
X74151210Y-76167920D01*
X73499564Y-75516274D01*
X73487789Y-75509844D01*
X73475774Y-75519140D01*
X73451269Y-75554137D01*
X73445786Y-75563632D01*
X73359256Y-75749196D01*
X73355510Y-75759488D01*
X73302518Y-75957259D01*
X73300615Y-75968054D01*
X73282769Y-76172025D01*
X73282769Y-76182975D01*
X69319494Y-76182975D01*
X69319745Y-76182305D01*
X69326500Y-76120123D01*
X69326500Y-71423855D01*
X69319745Y-71361673D01*
X69268615Y-71225284D01*
X69181261Y-71108728D01*
X69064705Y-71021374D01*
X68928316Y-70970244D01*
X68866134Y-70963489D01*
X66769866Y-70963489D01*
X66707684Y-70970244D01*
X66571295Y-71021374D01*
X66454739Y-71108728D01*
X66367385Y-71225284D01*
X66316255Y-71361673D01*
X66309500Y-71423855D01*
X66309500Y-76120123D01*
X62364361Y-76120123D01*
X62461802Y-76053902D01*
X62469677Y-76047570D01*
X62638626Y-75887803D01*
X62645387Y-75880294D01*
X62786625Y-75695563D01*
X62792089Y-75687084D01*
X62901978Y-75482142D01*
X62906020Y-75472890D01*
X62981727Y-75253018D01*
X62984236Y-75243246D01*
X63024004Y-75013018D01*
X63024859Y-75005146D01*
X63025936Y-74981438D01*
X63026000Y-74978605D01*
X63026000Y-74044104D01*
X63021525Y-74028865D01*
X63020135Y-74027660D01*
X63012452Y-74025989D01*
X61790115Y-74025989D01*
X61774876Y-74030464D01*
X61773671Y-74031854D01*
X61772000Y-74039537D01*
X61772000Y-76342579D01*
X61264000Y-76342579D01*
X61264000Y-74044104D01*
X61259525Y-74028865D01*
X61258135Y-74027660D01*
X61250452Y-74025989D01*
X60028115Y-74025989D01*
X60012876Y-74030464D01*
X60011671Y-74031854D01*
X60010000Y-74039537D01*
X60010000Y-74930445D01*
X53844761Y-74930445D01*
X53844761Y-73499874D01*
X60010000Y-73499874D01*
X60014475Y-73515113D01*
X60015865Y-73516318D01*
X60023548Y-73517989D01*
X61245885Y-73517989D01*
X61261124Y-73513514D01*
X61262329Y-73512124D01*
X61264000Y-73504441D01*
X61264000Y-73499874D01*
X61772000Y-73499874D01*
X61776475Y-73515113D01*
X61777865Y-73516318D01*
X61785548Y-73517989D01*
X63007885Y-73517989D01*
X63023124Y-73513514D01*
X63024329Y-73512124D01*
X63026000Y-73504441D01*
X63026000Y-72613533D01*
X63025798Y-72608501D01*
X63011850Y-72435146D01*
X63010238Y-72425193D01*
X62954767Y-72199356D01*
X62951584Y-72189786D01*
X62860720Y-71975724D01*
X62856045Y-71966782D01*
X62732126Y-71770002D01*
X62726086Y-71761929D01*
X62572297Y-71587489D01*
X62565044Y-71580485D01*
X62385346Y-71432879D01*
X62377064Y-71427123D01*
X62176081Y-71310148D01*
X62166976Y-71305786D01*
X61949885Y-71222452D01*
X61940196Y-71219601D01*
X61789736Y-71188168D01*
X61775675Y-71189291D01*
X61772000Y-71199399D01*
X61772000Y-73499874D01*
X61264000Y-73499874D01*
X61264000Y-71201399D01*
X61259864Y-71187313D01*
X61246886Y-71185264D01*
X61229170Y-71187314D01*
X61219273Y-71189274D01*
X60995506Y-71252593D01*
X60986062Y-71256105D01*
X60775295Y-71354388D01*
X60766529Y-71359367D01*
X60574198Y-71490076D01*
X60566323Y-71496408D01*
X60397374Y-71656175D01*
X60390613Y-71663684D01*
X60249375Y-71848415D01*
X60243911Y-71856894D01*
X60134022Y-72061836D01*
X60129980Y-72071088D01*
X60054273Y-72290960D01*
X60051764Y-72300732D01*
X60011996Y-72530960D01*
X60011141Y-72538832D01*
X60010064Y-72562540D01*
X60010000Y-72565373D01*
X60010000Y-73499874D01*
X53844761Y-73499874D01*
X53844761Y-66675000D01*
X80264000Y-66675000D01*
X81026000Y-67437000D01*
X83566000Y-67437000D01*
X84328000Y-66675000D01*
X84328000Y-66219190D01*
X84348002Y-66151069D01*
X84364905Y-66130095D01*
X84672095Y-65822905D01*
X84734407Y-65788879D01*
X84761190Y-65786000D01*
X86233000Y-65786000D01*
X86614000Y-65405000D01*
X86614000Y-63246000D01*
X86106000Y-62738000D01*
X84761190Y-62738000D01*
X84693069Y-62717998D01*
X84672095Y-62701095D01*
X84364905Y-62393905D01*
X84330879Y-62331593D01*
X84328000Y-62304810D01*
X84328000Y-61468000D01*
X83566000Y-60706000D01*
X81026000Y-60706000D01*
X80264000Y-61468000D01*
X80264000Y-66675000D01*
X53844761Y-66675000D01*
X53844761Y-59690000D01*
X80264000Y-59690000D01*
X81026000Y-60452000D01*
X87884000Y-60452000D01*
X88646000Y-59690000D01*
X88646000Y-54927000D01*
X88666002Y-54858879D01*
X88719658Y-54812386D01*
X88772000Y-54801000D01*
X93824401Y-54801000D01*
X93832971Y-54801292D01*
X93882277Y-54804654D01*
X93882281Y-54804654D01*
X93889852Y-54805170D01*
X93897328Y-54803865D01*
X93897332Y-54803865D01*
X93951924Y-54794337D01*
X93958449Y-54793374D01*
X94013418Y-54786722D01*
X94013420Y-54786721D01*
X94020960Y-54785809D01*
X94028062Y-54783125D01*
X94031500Y-54782281D01*
X94045623Y-54778417D01*
X94049034Y-54777387D01*
X94056517Y-54776081D01*
X94114197Y-54750761D01*
X94120304Y-54748270D01*
X94172117Y-54728691D01*
X94172118Y-54728690D01*
X94179222Y-54726006D01*
X94185477Y-54721707D01*
X94188618Y-54720065D01*
X94201372Y-54712967D01*
X94204478Y-54711130D01*
X94211433Y-54708077D01*
X94217460Y-54703452D01*
X94217464Y-54703450D01*
X94261402Y-54669735D01*
X94266720Y-54665871D01*
X94318652Y-54630179D01*
X94336178Y-54610509D01*
X94359518Y-54584312D01*
X94364499Y-54579036D01*
X97610140Y-51333396D01*
X97673038Y-51299244D01*
X97722705Y-51288687D01*
X97812385Y-51269625D01*
X97818416Y-51266940D01*
X97977170Y-51196258D01*
X97977172Y-51196257D01*
X97983200Y-51193573D01*
X98134470Y-51083669D01*
X98259585Y-50944715D01*
X98353075Y-50782785D01*
X98410855Y-50604956D01*
X98417867Y-50538247D01*
X98429710Y-50425565D01*
X98430400Y-50419000D01*
X98410855Y-50233044D01*
X98353075Y-50055215D01*
X98332944Y-50020346D01*
X98262888Y-49899006D01*
X98259585Y-49893285D01*
X98246840Y-49879130D01*
X98138885Y-49759234D01*
X98138883Y-49759233D01*
X98134470Y-49754331D01*
X98051416Y-49693989D01*
X98008063Y-49637768D01*
X98001987Y-49567032D01*
X98016359Y-49529054D01*
X98095771Y-49391508D01*
X98095772Y-49391507D01*
X98099075Y-49385785D01*
X98142646Y-49251688D01*
X98154815Y-49214235D01*
X98154815Y-49214234D01*
X98156855Y-49207956D01*
X98161193Y-49166688D01*
X98175710Y-49028565D01*
X98176400Y-49022000D01*
X98167286Y-48935287D01*
X98157545Y-48842608D01*
X98157545Y-48842607D01*
X98156855Y-48836044D01*
X98152756Y-48823427D01*
X98120033Y-48722717D01*
X98099075Y-48658215D01*
X98083684Y-48631556D01*
X98008888Y-48502006D01*
X98005585Y-48496285D01*
X97880470Y-48357331D01*
X97746505Y-48260000D01*
X97734542Y-48251308D01*
X97734541Y-48251307D01*
X97729200Y-48247427D01*
X97723172Y-48244743D01*
X97723170Y-48244742D01*
X97564416Y-48174060D01*
X97564414Y-48174060D01*
X97558385Y-48171375D01*
X97466937Y-48151937D01*
X97381947Y-48133872D01*
X97381943Y-48133872D01*
X97375490Y-48132500D01*
X97188510Y-48132500D01*
X97182057Y-48133872D01*
X97182053Y-48133872D01*
X97097063Y-48151937D01*
X97005615Y-48171375D01*
X96999586Y-48174060D01*
X96999584Y-48174060D01*
X96840830Y-48244742D01*
X96840828Y-48244743D01*
X96834800Y-48247427D01*
X96829459Y-48251307D01*
X96829458Y-48251308D01*
X96817495Y-48260000D01*
X96683530Y-48357331D01*
X96558415Y-48496285D01*
X96555112Y-48502006D01*
X96480317Y-48631556D01*
X96464925Y-48658215D01*
X96443967Y-48722717D01*
X96411245Y-48823427D01*
X96407145Y-48836044D01*
X96406455Y-48842607D01*
X96406455Y-48842608D01*
X96403320Y-48872436D01*
X96376307Y-48938092D01*
X96367105Y-48948360D01*
X93219370Y-52096095D01*
X93157058Y-52130121D01*
X93130275Y-52133000D01*
X88772000Y-52133000D01*
X88703879Y-52112998D01*
X88657386Y-52059342D01*
X88646000Y-52007000D01*
X88646000Y-47244000D01*
X87884000Y-46482000D01*
X81026000Y-46482000D01*
X80264000Y-47244000D01*
X80264000Y-59690000D01*
X53844761Y-59690000D01*
X53844761Y-28493626D01*
X53846261Y-28474241D01*
X53848571Y-28459406D01*
X53848571Y-28459405D01*
X53849952Y-28450535D01*
X53847600Y-28432547D01*
X53846735Y-28409141D01*
X53860332Y-28167189D01*
X53861917Y-28153137D01*
X53907248Y-27886547D01*
X53910397Y-27872761D01*
X53985316Y-27612923D01*
X53989987Y-27599585D01*
X54066973Y-27413885D01*
X54093553Y-27349771D01*
X54099693Y-27337033D01*
X54230591Y-27100410D01*
X54238120Y-27088440D01*
X54394716Y-26867964D01*
X54403538Y-26856913D01*
X54583843Y-26655383D01*
X54593848Y-26645390D01*
X54795606Y-26465327D01*
X54806668Y-26456518D01*
X54927401Y-26370989D01*
X55027338Y-26300192D01*
X55039306Y-26292686D01*
X55146216Y-26233715D01*
X55276098Y-26162074D01*
X55288843Y-26155950D01*
X55472977Y-26079878D01*
X55538776Y-26052694D01*
X55552121Y-26048038D01*
X55812063Y-25973435D01*
X55825842Y-25970305D01*
X56092502Y-25925300D01*
X56106548Y-25923733D01*
X56341241Y-25910833D01*
X56367694Y-25912167D01*
X56368254Y-25912255D01*
X56368484Y-25912291D01*
X56368485Y-25912291D01*
X56377352Y-25913683D01*
X56409311Y-25909544D01*
X56425494Y-25908500D01*
X126446757Y-25908500D01*
X126465993Y-25909977D01*
G37*
%TD.AperFunction*%
%TA.AperFunction,Conductor*%
G36*
X122245182Y-53438549D02*
G01*
X122266047Y-53455382D01*
X125266303Y-56455638D01*
X125272156Y-56461903D01*
X125309642Y-56504874D01*
X125315856Y-56509241D01*
X125361178Y-56541094D01*
X125366474Y-56545027D01*
X125410063Y-56579206D01*
X125410066Y-56579208D01*
X125416040Y-56583892D01*
X125422964Y-56587018D01*
X125425999Y-56588856D01*
X125438698Y-56596100D01*
X125441846Y-56597788D01*
X125448061Y-56602156D01*
X125506750Y-56625038D01*
X125512795Y-56627578D01*
X125570235Y-56653513D01*
X125577708Y-56654898D01*
X125581126Y-56655969D01*
X125595115Y-56659954D01*
X125598607Y-56660851D01*
X125605689Y-56663612D01*
X125613222Y-56664604D01*
X125613223Y-56664604D01*
X125668130Y-56671833D01*
X125674643Y-56672865D01*
X125729118Y-56682961D01*
X125729120Y-56682961D01*
X125736587Y-56684345D01*
X125744167Y-56683908D01*
X125744168Y-56683908D01*
X125797912Y-56680809D01*
X125805165Y-56680600D01*
X126475612Y-56680600D01*
X126543733Y-56700602D01*
X126583044Y-56740765D01*
X126608485Y-56782280D01*
X126608490Y-56782286D01*
X126611187Y-56786688D01*
X126757450Y-56955538D01*
X126929326Y-57098232D01*
X126967103Y-57120307D01*
X127003155Y-57141374D01*
X127051879Y-57193012D01*
X127064950Y-57262795D01*
X127038219Y-57328567D01*
X126997762Y-57361927D01*
X126989657Y-57366146D01*
X126980938Y-57371636D01*
X126810633Y-57499505D01*
X126802926Y-57506348D01*
X126655790Y-57660317D01*
X126649304Y-57668327D01*
X126529298Y-57844249D01*
X126524200Y-57853223D01*
X126434538Y-58046383D01*
X126430975Y-58056070D01*
X126375589Y-58255783D01*
X126377112Y-58264207D01*
X126389492Y-58267600D01*
X127839200Y-58267600D01*
X127907321Y-58287602D01*
X127953814Y-58341258D01*
X127965200Y-58393600D01*
X127965200Y-58649600D01*
X127945198Y-58717721D01*
X127891542Y-58764214D01*
X127839200Y-58775600D01*
X126394425Y-58775600D01*
X126380894Y-58779573D01*
X126379457Y-58789566D01*
X126409765Y-58924046D01*
X126412845Y-58933875D01*
X126492970Y-59131203D01*
X126497613Y-59140394D01*
X126608894Y-59321988D01*
X126614977Y-59330299D01*
X126754413Y-59491267D01*
X126761777Y-59498479D01*
X126766722Y-59502585D01*
X126806356Y-59561489D01*
X126807853Y-59632470D01*
X126770737Y-59692992D01*
X126730464Y-59717510D01*
X126622905Y-59757832D01*
X126622904Y-59757833D01*
X126614495Y-59760985D01*
X126497939Y-59848339D01*
X126492558Y-59855519D01*
X126433423Y-59934423D01*
X126410585Y-59964895D01*
X126407434Y-59973300D01*
X126403980Y-59979609D01*
X126353721Y-60029755D01*
X126293460Y-60045100D01*
X120801900Y-60045100D01*
X120733779Y-60025098D01*
X120687286Y-59971442D01*
X120675900Y-59919100D01*
X120675900Y-58918581D01*
X120676978Y-58902134D01*
X120679183Y-58885388D01*
X120679183Y-58885384D01*
X120679916Y-58879818D01*
X120676040Y-58797632D01*
X120675900Y-58791697D01*
X120675900Y-58768865D01*
X120673555Y-58742587D01*
X120673196Y-58737323D01*
X120669496Y-58658876D01*
X120669232Y-58653277D01*
X120665171Y-58635545D01*
X120662490Y-58618614D01*
X120661373Y-58606099D01*
X120660874Y-58600505D01*
X120638672Y-58519348D01*
X120637386Y-58514229D01*
X120619853Y-58437675D01*
X120618601Y-58432207D01*
X120616401Y-58427050D01*
X120616399Y-58427043D01*
X120611468Y-58415483D01*
X120605831Y-58399296D01*
X120602513Y-58387169D01*
X120602512Y-58387166D01*
X120601030Y-58381749D01*
X120598615Y-58376686D01*
X120598611Y-58376675D01*
X120564797Y-58305784D01*
X120562624Y-58300973D01*
X120543349Y-58255783D01*
X120529621Y-58223598D01*
X120519639Y-58208402D01*
X120511227Y-58193474D01*
X120503393Y-58177049D01*
X120454287Y-58108711D01*
X120451298Y-58104362D01*
X120407640Y-58037898D01*
X120407639Y-58037897D01*
X120405107Y-58034042D01*
X120386370Y-58013014D01*
X120378119Y-58002714D01*
X120374322Y-57997429D01*
X120374321Y-57997428D01*
X120371049Y-57992874D01*
X120293578Y-57917799D01*
X120292168Y-57916410D01*
X119106853Y-56731095D01*
X119072827Y-56668783D01*
X119077892Y-56597968D01*
X119106853Y-56552905D01*
X121737194Y-53922564D01*
X121749576Y-53911704D01*
X121767447Y-53897991D01*
X121822837Y-53837118D01*
X121826936Y-53832822D01*
X121843063Y-53816695D01*
X121859984Y-53796458D01*
X121863455Y-53792479D01*
X121916307Y-53734396D01*
X121916309Y-53734394D01*
X121920081Y-53730248D01*
X121929749Y-53714836D01*
X121939823Y-53700971D01*
X121947884Y-53691330D01*
X121951486Y-53687022D01*
X121954264Y-53682151D01*
X121954272Y-53682140D01*
X121993180Y-53613927D01*
X121995890Y-53609399D01*
X122037616Y-53542883D01*
X122037621Y-53542874D01*
X122040599Y-53538126D01*
X122047382Y-53521251D01*
X122054839Y-53505826D01*
X122063854Y-53490022D01*
X122063854Y-53490021D01*
X122064035Y-53490124D01*
X122108941Y-53438409D01*
X122177082Y-53418477D01*
X122245182Y-53438549D01*
G37*
%TD.AperFunction*%
%TD*%
M02*
