M48
; DRILL file {KiCad (6.0.5)} date Tue Jul 19 14:04:53 2022
; FORMAT={-:-/ absolute / inch / decimal}
; #@! TF.CreationDate,2022-07-19T14:04:53+07:00
; #@! TF.GenerationSoftware,Kicad,Pcbnew,(6.0.5)
; #@! TF.FileFunction,MixedPlating,1,2
FMAT,2
INCH
; #@! TA.AperFunction,Plated,PTH,ViaDrill
T1C0.0100
; #@! TA.AperFunction,Plated,PTH,ViaDrill
T2C0.0157
; #@! TA.AperFunction,Plated,PTH,ViaDrill
T3C0.0160
; #@! TA.AperFunction,Plated,PTH,ViaDrill
T4C0.0180
; #@! TA.AperFunction,Plated,PTH,ComponentDrill
T5C0.0236
; #@! TA.AperFunction,Plated,PTH,ComponentDrill
T6C0.0256
; #@! TA.AperFunction,Plated,PTH,ComponentDrill
T7C0.0394
; #@! TA.AperFunction,NonPlated,NPTH,ComponentDrill
T8C0.0256
%
G90
G05
T1
X2.825Y-2.1
X2.855Y-2.03
X2.855Y-2.07
X3.145Y-1.85
X3.145Y-1.925
X3.145Y-2.07
X3.145Y-2.13
X3.145Y-2.25
X3.145Y-2.325
X3.176Y-2.384
X3.19Y-1.81
X3.2Y-1.65
X3.2Y-1.75
X3.21Y-2.326
X3.245Y-1.81
X3.25Y-1.3
X3.25Y-1.4
X3.25Y-1.6
X3.25Y-1.7
X3.3Y-1.35
X3.3Y-1.45
X3.3Y-1.75
X3.305Y-1.65
X3.35Y-1.3
X3.35Y-1.4
X3.35Y-1.5
X3.35Y-1.7
X3.4Y-1.55
X3.4Y-1.75
X3.466Y-1.938
X3.466Y-1.982
X3.466Y-2.026
X3.466Y-2.202
X3.466Y-2.252
X3.466Y-2.302
X3.5Y-2.174
X3.502Y-2.038
X3.542Y-2.038
X3.542Y-2.174
X4.385Y-1.365
X4.415Y-1.33
X4.45Y-1.365
X4.475Y-1.33
X4.5Y-1.365
X4.511Y-1.727
X4.525Y-1.33
T2
X2.904Y-2.582
X2.926Y-2.845
X3.085Y-2.841
X3.92Y-1.82
X4.19Y-1.96
X4.465Y-1.9
X4.676Y-1.992
T3
X2.175Y-1.915
X2.175Y-2.0
X2.175Y-2.085
X2.175Y-2.18
X2.19Y-1.4
X2.2Y-1.87
X2.2Y-1.96
X2.2Y-2.04
X2.2Y-2.135
X2.2Y-2.225
X2.225Y-1.915
X2.225Y-2.0
X2.225Y-2.085
X2.225Y-2.18
X2.25Y-1.465
X2.25Y-1.87
X2.25Y-1.96
X2.25Y-2.04
X2.25Y-2.135
X2.25Y-2.225
X2.275Y-1.915
X2.275Y-2.0
X2.275Y-2.085
X2.275Y-2.18
X2.3Y-1.87
X2.3Y-1.96
X2.3Y-2.04
X2.3Y-2.135
X2.3Y-2.225
X2.35Y-1.5
X2.35Y-1.76
X2.35Y-1.87
X2.35Y-1.96
X2.35Y-2.04
X2.35Y-2.135
X2.35Y-2.225
X2.375Y-1.915
X2.375Y-2.0
X2.375Y-2.085
X2.375Y-2.18
X2.38Y-1.535
X2.38Y-1.725
X2.4Y-1.87
X2.4Y-1.96
X2.4Y-2.04
X2.4Y-2.135
X2.4Y-2.225
X2.41Y-1.5
X2.41Y-1.76
X2.425Y-1.915
X2.425Y-2.0
X2.425Y-2.085
X2.425Y-2.18
X2.44Y-1.725
X2.45Y-1.87
X2.45Y-1.96
X2.45Y-2.04
X2.45Y-2.135
X2.45Y-2.225
X2.59Y-1.11
X2.62Y-1.87
X2.68Y-1.87
X2.73Y-1.87
X2.8Y-2.05
X2.905Y-1.45
X2.92Y-1.09
X2.965Y-1.15
X3.015Y-1.09
X3.182Y-2.6265
X3.182Y-2.6978
X3.2Y-1.09
X3.2Y-1.45
X3.246Y-2.008
X3.246Y-2.194
X3.353Y-2.622
X3.353Y-2.699
X3.4Y-2.04
X3.4Y-2.17
X3.78Y-2.165
X3.82Y-2.21
X3.83Y-1.93
X3.84Y-1.985
X3.88Y-1.868
X3.89Y-1.67
X3.9Y-2.05
X3.9Y-2.15
X3.905Y-2.25
X3.95Y-2.0
X3.95Y-2.1
X3.95Y-2.2
X3.95Y-2.3
X4.0Y-2.05
X4.005Y-2.15
X4.005Y-2.25
X4.02Y-2.365
X4.03Y-2.42
X4.065Y-2.58
X4.1Y-1.955
X4.1Y-2.05
X4.1Y-2.15
X4.1Y-2.25
X4.105Y-2.34
X4.15Y-2.1
X4.15Y-2.63
X4.155Y-2.2
X4.2Y-2.05
X4.2Y-2.15
X4.25Y-2.1
X4.265Y-2.52
X4.3Y-2.69
X4.305Y-2.65
X4.314Y-2.126
X4.501Y-2.34
X4.55Y-2.745
X4.556Y-2.28
X4.584Y-2.06
X4.585Y-2.11
X4.6Y-2.82
X4.615Y-2.23
X4.634Y-2.07
X4.635Y-2.121
X4.65Y-2.79
T4
X2.172Y-2.559
X2.173Y-2.425
X2.187Y-1.162
X2.187Y-1.261
X2.234Y-1.162
X2.234Y-1.261
X2.234Y-2.424
X2.234Y-2.559
X2.25Y-1.4
X2.282Y-1.162
X2.282Y-1.261
X2.305Y-2.424
X2.305Y-2.558
T6
X4.99Y-2.64
X4.99Y-2.69
X4.99Y-2.74
X4.99Y-2.79
X4.99Y-2.84
X5.04Y-2.64
X5.04Y-2.69
X5.04Y-2.74
X5.04Y-2.79
X5.04Y-2.84
T7
X3.4Y-1.09
X3.4Y-1.19
X3.4Y-2.99
X3.4Y-3.09
X3.5Y-1.09
X3.5Y-1.19
X3.5Y-2.99
X3.5Y-3.09
X3.6Y-1.09
X3.6Y-1.19
X3.6Y-2.99
X3.6Y-3.09
X3.7Y-1.09
X3.7Y-1.19
X3.7Y-2.99
X3.7Y-3.09
X3.8Y-1.09
X3.8Y-1.19
X3.8Y-2.99
X3.8Y-3.09
X3.9Y-1.09
X3.9Y-1.19
X3.9Y-2.99
X3.9Y-3.09
X4.0Y-1.09
X4.0Y-1.19
X4.0Y-2.99
X4.0Y-3.09
X4.1Y-1.09
X4.1Y-1.19
X4.1Y-2.99
X4.1Y-3.09
X4.2Y-1.09
X4.2Y-1.19
X4.2Y-2.99
X4.2Y-3.09
X4.3Y-1.09
X4.3Y-1.19
X4.3Y-2.99
X4.3Y-3.09
X4.4Y-1.09
X4.4Y-1.19
X4.4Y-2.99
X4.4Y-3.09
X4.5Y-1.09
X4.5Y-1.19
X4.5Y-2.99
X4.5Y-3.09
X4.6Y-1.09
X4.6Y-1.19
X4.6Y-2.99
X4.6Y-3.09
X4.7Y-1.09
X4.7Y-1.19
X4.7Y-2.99
X4.7Y-3.09
X4.8Y-1.09
X4.8Y-1.19
X4.8Y-2.99
X4.8Y-3.09
X4.8556Y-1.964
X4.8556Y-2.064
X4.8556Y-2.164
X4.8556Y-2.264
X4.8556Y-2.364
X4.9Y-1.09
X4.9Y-1.19
X4.9Y-2.99
X4.9Y-3.09
X4.9556Y-1.964
X4.9556Y-2.064
X4.9556Y-2.164
X4.9556Y-2.264
X4.9556Y-2.364
T8
X2.9082Y-2.9877
X3.1358Y-2.9877
T5
G00X2.8519Y-2.9452
M15
G01X2.8519Y-2.9885
M16
G05
G00X2.8519Y-3.1196
M15
G01X2.8519Y-3.1432
M16
G05
G00X3.1921Y-2.9452
M15
G01X3.1921Y-2.9885
M16
G05
G00X3.1921Y-3.1196
M15
G01X3.1921Y-3.1432
M16
G05
T7
G00X2.396Y-2.8601
M15
G01X2.396Y-2.9467
M16
G05
G00X2.5731Y-3.0924
M15
G01X2.4865Y-3.0924
M16
G05
G00X2.644Y-2.8522
M15
G01X2.644Y-2.9546
M16
G05
T0
M30
