%TF.GenerationSoftware,KiCad,Pcbnew,(6.0.5)*%
%TF.CreationDate,2022-07-19T14:03:45+07:00*%
%TF.ProjectId,atm128,61746d31-3238-42e6-9b69-6361645f7063,1.0*%
%TF.SameCoordinates,Original*%
%TF.FileFunction,Copper,L2,Bot*%
%TF.FilePolarity,Positive*%
%FSLAX46Y46*%
G04 Gerber Fmt 4.6, Leading zero omitted, Abs format (unit mm)*
G04 Created by KiCad (PCBNEW (6.0.5)) date 2022-07-19 14:03:45*
%MOMM*%
%LPD*%
G01*
G04 APERTURE LIST*
G04 Aperture macros list*
%AMRoundRect*
0 Rectangle with rounded corners*
0 $1 Rounding radius*
0 $2 $3 $4 $5 $6 $7 $8 $9 X,Y pos of 4 corners*
0 Add a 4 corners polygon primitive as box body*
4,1,4,$2,$3,$4,$5,$6,$7,$8,$9,$2,$3,0*
0 Add four circle primitives for the rounded corners*
1,1,$1+$1,$2,$3*
1,1,$1+$1,$4,$5*
1,1,$1+$1,$6,$7*
1,1,$1+$1,$8,$9*
0 Add four rect primitives between the rounded corners*
20,1,$1+$1,$2,$3,$4,$5,0*
20,1,$1+$1,$4,$5,$6,$7,0*
20,1,$1+$1,$6,$7,$8,$9,0*
20,1,$1+$1,$8,$9,$2,$3,0*%
G04 Aperture macros list end*
%TA.AperFunction,Profile*%
%ADD10C,0.127000*%
%TD*%
%TA.AperFunction,ComponentPad*%
%ADD11RoundRect,0.250000X0.600000X0.600000X-0.600000X0.600000X-0.600000X-0.600000X0.600000X-0.600000X0*%
%TD*%
%TA.AperFunction,ComponentPad*%
%ADD12C,1.700000*%
%TD*%
%TA.AperFunction,ComponentPad*%
%ADD13R,2.000000X4.600000*%
%TD*%
%TA.AperFunction,ComponentPad*%
%ADD14O,2.000000X4.200000*%
%TD*%
%TA.AperFunction,ComponentPad*%
%ADD15O,4.200000X2.000000*%
%TD*%
%TA.AperFunction,ComponentPad*%
%ADD16R,1.700000X1.700000*%
%TD*%
%TA.AperFunction,ComponentPad*%
%ADD17O,1.700000X1.700000*%
%TD*%
%TA.AperFunction,ComponentPad*%
%ADD18R,1.000000X1.000000*%
%TD*%
%TA.AperFunction,ComponentPad*%
%ADD19O,1.000000X1.000000*%
%TD*%
%TA.AperFunction,ComponentPad*%
%ADD20O,1.000000X1.600000*%
%TD*%
%TA.AperFunction,ComponentPad*%
%ADD21O,1.000000X2.100000*%
%TD*%
%TA.AperFunction,ViaPad*%
%ADD22C,0.660400*%
%TD*%
%TA.AperFunction,ViaPad*%
%ADD23C,0.914400*%
%TD*%
%TA.AperFunction,ViaPad*%
%ADD24C,0.762000*%
%TD*%
%TA.AperFunction,ViaPad*%
%ADD25C,0.508000*%
%TD*%
%TA.AperFunction,ViaPad*%
%ADD26C,0.800000*%
%TD*%
%TA.AperFunction,ViaPad*%
%ADD27C,1.168400*%
%TD*%
%TA.AperFunction,Conductor*%
%ADD28C,0.381000*%
%TD*%
%TA.AperFunction,Conductor*%
%ADD29C,1.524000*%
%TD*%
%TA.AperFunction,Conductor*%
%ADD30C,1.270000*%
%TD*%
%TA.AperFunction,Conductor*%
%ADD31C,0.250000*%
%TD*%
%TA.AperFunction,Conductor*%
%ADD32C,0.254000*%
%TD*%
%TA.AperFunction,Conductor*%
%ADD33C,0.508000*%
%TD*%
G04 APERTURE END LIST*
D10*
X53336261Y-78235739D02*
G75*
G03*
X56384261Y-81283739I3048039J39D01*
G01*
X126495739Y-81283739D02*
G75*
G03*
X129543739Y-78235739I-39J3048039D01*
G01*
X129543702Y-28444261D02*
G75*
G03*
X126495739Y-25400000I-3044302J-39D01*
G01*
X53336261Y-78235739D02*
X53336261Y-28444261D01*
X129543739Y-28444261D02*
X129543739Y-78235739D01*
X56384261Y-25400003D02*
G75*
G03*
X53336261Y-28444261I-3751J-3044247D01*
G01*
X56384261Y-25400000D02*
X126495739Y-25400000D01*
X126495739Y-81283739D02*
X56384261Y-81283739D01*
D11*
%TO.P,J4,1,MOSI*%
%TO.N,/RXD0*%
X125872900Y-60045600D03*
D12*
%TO.P,J4,2,VCC*%
%TO.N,+5V*%
X123332900Y-60045600D03*
%TO.P,J4,3,NC*%
%TO.N,unconnected-(J4-Pad3)*%
X125872900Y-57505600D03*
%TO.P,J4,4,GND*%
%TO.N,GND*%
X123332900Y-57505600D03*
%TO.P,J4,5,~{RST}*%
%TO.N,/nRST*%
X125872900Y-54965600D03*
%TO.P,J4,6,GND*%
%TO.N,GND*%
X123332900Y-54965600D03*
%TO.P,J4,7,SCK*%
%TO.N,/SPI_SCK*%
X125872900Y-52425600D03*
%TO.P,J4,8,GND*%
%TO.N,GND*%
X123332900Y-52425600D03*
%TO.P,J4,9,MISO*%
%TO.N,/TXD0*%
X125872900Y-49885600D03*
%TO.P,J4,10,GND*%
%TO.N,GND*%
X123332900Y-49885600D03*
%TD*%
D13*
%TO.P,J1,1*%
%TO.N,/p*%
X67157600Y-73746600D03*
D14*
%TO.P,J1,2*%
%TO.N,GND*%
X60857600Y-73746600D03*
D15*
%TO.P,J1,3*%
X64257600Y-78546600D03*
%TD*%
D16*
%TO.P,J3,1,Pin_1*%
%TO.N,+5V*%
X86360000Y-78486000D03*
D17*
%TO.P,J3,2,Pin_2*%
%TO.N,GND*%
X86360000Y-75946000D03*
%TO.P,J3,3,Pin_3*%
%TO.N,/PC0*%
X88900000Y-78486000D03*
%TO.P,J3,4,Pin_4*%
%TO.N,/PC1*%
X88900000Y-75946000D03*
%TO.P,J3,5,Pin_5*%
%TO.N,/PC2*%
X91440000Y-78486000D03*
%TO.P,J3,6,Pin_6*%
%TO.N,/PC3*%
X91440000Y-75946000D03*
%TO.P,J3,7,Pin_7*%
%TO.N,/PC4*%
X93980000Y-78486000D03*
%TO.P,J3,8,Pin_8*%
%TO.N,/PC5*%
X93980000Y-75946000D03*
%TO.P,J3,9,Pin_9*%
%TO.N,/PC6*%
X96520000Y-78486000D03*
%TO.P,J3,10,Pin_10*%
%TO.N,/PC7*%
X96520000Y-75946000D03*
%TO.P,J3,11,Pin_11*%
%TO.N,+5V*%
X99060000Y-78486000D03*
%TO.P,J3,12,Pin_12*%
%TO.N,GND*%
X99060000Y-75946000D03*
%TO.P,J3,13,Pin_13*%
%TO.N,/PA6*%
X101600000Y-78486000D03*
%TO.P,J3,14,Pin_14*%
%TO.N,/PA7*%
X101600000Y-75946000D03*
%TO.P,J3,15,Pin_15*%
%TO.N,/PA4*%
X104140000Y-78486000D03*
%TO.P,J3,16,Pin_16*%
%TO.N,/PA5*%
X104140000Y-75946000D03*
%TO.P,J3,17,Pin_17*%
%TO.N,/PA2*%
X106680000Y-78486000D03*
%TO.P,J3,18,Pin_18*%
%TO.N,/PA3*%
X106680000Y-75946000D03*
%TO.P,J3,19,Pin_19*%
%TO.N,/PA0*%
X109220000Y-78486000D03*
%TO.P,J3,20,Pin_20*%
%TO.N,/PA1*%
X109220000Y-75946000D03*
%TO.P,J3,21,Pin_21*%
%TO.N,+5V*%
X111760000Y-78486000D03*
%TO.P,J3,22,Pin_22*%
%TO.N,GND*%
X111760000Y-75946000D03*
%TO.P,J3,23,Pin_23*%
%TO.N,/jtag_TDO*%
X114300000Y-78486000D03*
%TO.P,J3,24,Pin_24*%
%TO.N,/jtag_TDI*%
X114300000Y-75946000D03*
%TO.P,J3,25,Pin_25*%
%TO.N,/jtag_TCK*%
X116840000Y-78486000D03*
%TO.P,J3,26,Pin_26*%
%TO.N,/jtag_TMS*%
X116840000Y-75946000D03*
%TO.P,J3,27,Pin_27*%
%TO.N,/PF2*%
X119380000Y-78486000D03*
%TO.P,J3,28,Pin_28*%
%TO.N,/PF3*%
X119380000Y-75946000D03*
%TO.P,J3,29,Pin_29*%
%TO.N,/PF0*%
X121920000Y-78486000D03*
%TO.P,J3,30,Pin_30*%
%TO.N,/PF1*%
X121920000Y-75946000D03*
%TO.P,J3,31,Pin_31*%
%TO.N,+5V*%
X124460000Y-78486000D03*
%TO.P,J3,32,Pin_32*%
%TO.N,GND*%
X124460000Y-75946000D03*
%TD*%
D16*
%TO.P,J2,1,Pin_1*%
%TO.N,+5V*%
X86360000Y-30226000D03*
D17*
%TO.P,J2,2,Pin_2*%
%TO.N,GND*%
X86360000Y-27686000D03*
%TO.P,J2,3,Pin_3*%
%TO.N,/PD6*%
X88900000Y-30226000D03*
%TO.P,J2,4,Pin_4*%
%TO.N,/PD7*%
X88900000Y-27686000D03*
%TO.P,J2,5,Pin_5*%
%TO.N,/PD4*%
X91440000Y-30226000D03*
%TO.P,J2,6,Pin_6*%
%TO.N,/PD5*%
X91440000Y-27686000D03*
%TO.P,J2,7,Pin_7*%
%TO.N,/RXD1*%
X93980000Y-30226000D03*
%TO.P,J2,8,Pin_8*%
%TO.N,/TXD1*%
X93980000Y-27686000D03*
%TO.P,J2,9,Pin_9*%
%TO.N,/PD0*%
X96520000Y-30226000D03*
%TO.P,J2,10,Pin_10*%
%TO.N,/PD1*%
X96520000Y-27686000D03*
%TO.P,J2,11,Pin_11*%
%TO.N,+5V*%
X99060000Y-30226000D03*
%TO.P,J2,12,Pin_12*%
%TO.N,GND*%
X99060000Y-27686000D03*
%TO.P,J2,13,Pin_13*%
%TO.N,/PB6*%
X101600000Y-30226000D03*
%TO.P,J2,14,Pin_14*%
%TO.N,/PB7*%
X101600000Y-27686000D03*
%TO.P,J2,15,Pin_15*%
%TO.N,/PB4*%
X104140000Y-30226000D03*
%TO.P,J2,16,Pin_16*%
%TO.N,/PB5*%
X104140000Y-27686000D03*
%TO.P,J2,17,Pin_17*%
%TO.N,/SPI_MOSI*%
X106680000Y-30226000D03*
%TO.P,J2,18,Pin_18*%
%TO.N,/SPI_MISO*%
X106680000Y-27686000D03*
%TO.P,J2,19,Pin_19*%
%TO.N,/{slash}SPI_SS*%
X109220000Y-30226000D03*
%TO.P,J2,20,Pin_20*%
%TO.N,/SPI_SCK*%
X109220000Y-27686000D03*
%TO.P,J2,21,Pin_21*%
%TO.N,+5V*%
X111760000Y-30226000D03*
%TO.P,J2,22,Pin_22*%
%TO.N,GND*%
X111760000Y-27686000D03*
%TO.P,J2,23,Pin_23*%
%TO.N,+5V*%
X114300000Y-30226000D03*
%TO.P,J2,24,Pin_24*%
%TO.N,GND*%
X114300000Y-27686000D03*
%TO.P,J2,25,Pin_25*%
%TO.N,+5V*%
X116840000Y-30226000D03*
%TO.P,J2,26,Pin_26*%
%TO.N,GND*%
X116840000Y-27686000D03*
%TO.P,J2,27,Pin_27*%
%TO.N,+5V*%
X119380000Y-30226000D03*
%TO.P,J2,28,Pin_28*%
%TO.N,GND*%
X119380000Y-27686000D03*
%TO.P,J2,29,Pin_29*%
%TO.N,+5V*%
X121920000Y-30226000D03*
%TO.P,J2,30,Pin_30*%
%TO.N,GND*%
X121920000Y-27686000D03*
%TO.P,J2,31,Pin_31*%
%TO.N,+5V*%
X124460000Y-30226000D03*
%TO.P,J2,32,Pin_32*%
%TO.N,GND*%
X124460000Y-27686000D03*
%TD*%
D18*
%TO.P,J5,1,Pin_1*%
%TO.N,/jtag_TCK*%
X126746000Y-67056000D03*
D19*
%TO.P,J5,2,Pin_2*%
%TO.N,/jtag_TDO*%
X128016000Y-67056000D03*
%TO.P,J5,3,Pin_3*%
%TO.N,/jtag_TMS*%
X126746000Y-68326000D03*
%TO.P,J5,4,Pin_4*%
%TO.N,unconnected-(J5-Pad4)*%
X128016000Y-68326000D03*
%TO.P,J5,5,Pin_5*%
%TO.N,/jtag_TDI*%
X126746000Y-69596000D03*
%TO.P,J5,6,Pin_6*%
%TO.N,GND*%
X128016000Y-69596000D03*
%TO.P,J5,7,Pin_7*%
%TO.N,unconnected-(J5-Pad7)*%
X126746000Y-70866000D03*
%TO.P,J5,8,Pin_8*%
%TO.N,/nRST*%
X128016000Y-70866000D03*
%TO.P,J5,9,Pin_9*%
%TO.N,+5V*%
X126746000Y-72136000D03*
%TO.P,J5,10,Pin_10*%
%TO.N,GND*%
X128016000Y-72136000D03*
%TD*%
D20*
%TO.P,J6,S1,SHIELD*%
%TO.N,GND*%
X72438800Y-79537194D03*
D21*
X81078800Y-75357194D03*
X72438800Y-75357194D03*
D20*
X81078800Y-79537194D03*
%TD*%
D22*
%TO.N,GND*%
X61976000Y-43815000D03*
X60452000Y-43815000D03*
X61214000Y-44704000D03*
X59690000Y-44704000D03*
X60452000Y-38989000D03*
X61214000Y-38100000D03*
X59690000Y-38100000D03*
%TO.N,/tnow*%
X80822800Y-66714100D03*
X80822800Y-68523500D03*
D23*
%TO.N,GND*%
X55194200Y-61595000D03*
D22*
X105537000Y-55880000D03*
X99187000Y-57150000D03*
X99060000Y-54610000D03*
X56515000Y-48641000D03*
D24*
X68072000Y-47498000D03*
D22*
X59690000Y-54229000D03*
X100330000Y-50800000D03*
D23*
X58547000Y-61569600D03*
X105410000Y-66802000D03*
X104267000Y-59436000D03*
D24*
X98552000Y-47447200D03*
X69342000Y-47498000D03*
D25*
X79883000Y-46990000D03*
D22*
X59690000Y-47498000D03*
D23*
X57150000Y-35560000D03*
D25*
X88036400Y-55930800D03*
D23*
X82448400Y-51003200D03*
X57150000Y-37211000D03*
D25*
X88900000Y-55219600D03*
X79883000Y-57150000D03*
D22*
X101727000Y-57150000D03*
X58420000Y-49784000D03*
X57150000Y-54229000D03*
D25*
X85090000Y-33020000D03*
X81026000Y-45974000D03*
D22*
X58420000Y-54229000D03*
D23*
X109575600Y-54000400D03*
D22*
X57150000Y-49784000D03*
X55880000Y-47498000D03*
D23*
X75311000Y-29210000D03*
D25*
X114300000Y-34671000D03*
D23*
X56743600Y-32029400D03*
X56743600Y-29514800D03*
D22*
X107950000Y-53340000D03*
D25*
X88036400Y-50342800D03*
D22*
X55880000Y-56515000D03*
D25*
X86360000Y-44450000D03*
D22*
X55880000Y-51816000D03*
X101727000Y-54610000D03*
D25*
X85090000Y-35560000D03*
X113030000Y-34671000D03*
X85090000Y-38100000D03*
D23*
X56743600Y-61569600D03*
D22*
X60325000Y-48641000D03*
X58420000Y-47498000D03*
X60960000Y-47498000D03*
X57785000Y-55372000D03*
D23*
X58547000Y-64973200D03*
X71120000Y-52070000D03*
D22*
X59690000Y-49784000D03*
X60960000Y-51816000D03*
X62230000Y-47498000D03*
X60960000Y-54229000D03*
D25*
X71755000Y-53340000D03*
D22*
X60960000Y-49784000D03*
X60325000Y-50800000D03*
X117703600Y-52578000D03*
D24*
X66548000Y-47498000D03*
D25*
X83947000Y-41910000D03*
D22*
X60960000Y-56515000D03*
D24*
X115722400Y-57912000D03*
D22*
X61595000Y-55372000D03*
D25*
X85090000Y-43180000D03*
X89966800Y-55219600D03*
X88950800Y-51765200D03*
D22*
X117729000Y-53873400D03*
X62230000Y-51816000D03*
D25*
X82550000Y-40640000D03*
D22*
X57785000Y-52959000D03*
X104140000Y-52070000D03*
X55245000Y-48641000D03*
X104140000Y-54610000D03*
D23*
X74168000Y-27686000D03*
D22*
X57150000Y-47498000D03*
D23*
X55549800Y-32029400D03*
D22*
X104140000Y-57150000D03*
X100330000Y-53340000D03*
D25*
X82423000Y-45974000D03*
D22*
X56515000Y-52959000D03*
X57785000Y-50800000D03*
X61595000Y-50800000D03*
X55245000Y-52959000D03*
X57785000Y-48641000D03*
X55245000Y-50800000D03*
X59690000Y-56515000D03*
D25*
X72517000Y-51562000D03*
D22*
X56515000Y-55372000D03*
D23*
X55168800Y-64998600D03*
D22*
X62230000Y-54229000D03*
X62230000Y-49784000D03*
X59690000Y-51816000D03*
D23*
X76581000Y-27686000D03*
D25*
X81280000Y-41910000D03*
X83820000Y-34290000D03*
D23*
X57962800Y-32029400D03*
D25*
X82550000Y-35560000D03*
D22*
X58420000Y-51816000D03*
D25*
X88036400Y-57200800D03*
X89966800Y-51765200D03*
D22*
X100330000Y-58420000D03*
X61595000Y-52959000D03*
D25*
X86360000Y-39370000D03*
X79883000Y-48895000D03*
X88036400Y-49225200D03*
D22*
X55245000Y-55372000D03*
D25*
X80670400Y-60553600D03*
D22*
X60325000Y-52959000D03*
D23*
X56743600Y-64998600D03*
D22*
X61595000Y-48641000D03*
D25*
X79883000Y-52578000D03*
D23*
X116433600Y-52324000D03*
D25*
X81280000Y-44450000D03*
D22*
X104140000Y-49657000D03*
D23*
X98806000Y-42418000D03*
X65786000Y-28194000D03*
D26*
X73761600Y-65582800D03*
D23*
X55549800Y-29514800D03*
D22*
X100330000Y-55880000D03*
D25*
X113665000Y-33782000D03*
X72517000Y-52578000D03*
X112141000Y-33782000D03*
D23*
X57962800Y-29514800D03*
X108331000Y-64008000D03*
D22*
X57150000Y-56515000D03*
X58420000Y-56515000D03*
X106680000Y-52070000D03*
D23*
X82448400Y-55727600D03*
D25*
X88036400Y-58470800D03*
D22*
X99060000Y-52070000D03*
D25*
X83820000Y-36830000D03*
D23*
X55626000Y-35560000D03*
D22*
X62230000Y-56515000D03*
X101600000Y-52070000D03*
D25*
X82550000Y-43180000D03*
D22*
X57150000Y-51816000D03*
D23*
X73787000Y-36830000D03*
D25*
X79883000Y-59055000D03*
D22*
X55880000Y-49784000D03*
X55880000Y-54229000D03*
X56515000Y-50800000D03*
D25*
X83820000Y-44450000D03*
X88036400Y-51460400D03*
X81534000Y-59080400D03*
X111379000Y-34671000D03*
D24*
X114325400Y-59436000D03*
D22*
X105410000Y-53340000D03*
X60325000Y-55372000D03*
D25*
X114935000Y-33782000D03*
X79883000Y-54102000D03*
X114579400Y-43865800D03*
X82550000Y-33020000D03*
D22*
X106680000Y-54610000D03*
X116459000Y-53594000D03*
D26*
%TO.N,+5V*%
X74320400Y-72263000D03*
D23*
X117221000Y-56642000D03*
D27*
X103251000Y-65532000D03*
D26*
X78359000Y-72161400D03*
D23*
%TO.N,/XTAL1*%
X86360000Y-51816000D03*
D24*
X97282000Y-49022000D03*
%TO.N,/XTAL2*%
X97536000Y-50419000D03*
D23*
X86360000Y-55118000D03*
D26*
%TO.N,/SPI_SCK*%
X118770400Y-50596800D03*
X106426000Y-49784000D03*
D22*
%TO.N,/jtag_TCK*%
X118110000Y-70866000D03*
%TO.N,/jtag_TDO*%
X115570000Y-69723000D03*
%TO.N,/jtag_TMS*%
X116840000Y-71628000D03*
D24*
%TO.N,/PA1*%
X109220000Y-68326000D03*
X102362000Y-61468000D03*
%TO.N,/PA0*%
X109347000Y-67310000D03*
X102108000Y-60071000D03*
%TO.N,/RXD1*%
X97028000Y-56134000D03*
X85166200Y-68554600D03*
%TO.N,/TXD1*%
X85166200Y-66598800D03*
X96012000Y-54991000D03*
D26*
%TO.N,/nRST*%
X99568000Y-46228000D03*
D24*
X81280000Y-27686000D03*
D26*
X113411000Y-48260000D03*
D24*
X81280000Y-36830000D03*
%TD*%
D28*
%TO.N,/tnow*%
X80822800Y-68523500D02*
X80822800Y-66714100D01*
%TO.N,GND*%
X128524000Y-72136000D02*
X128016000Y-72136000D01*
X128906011Y-69851011D02*
X128906011Y-71753989D01*
X128651000Y-69596000D02*
X128906011Y-69851011D01*
X128906011Y-71753989D02*
X128524000Y-72136000D01*
X128016000Y-69596000D02*
X128651000Y-69596000D01*
D29*
%TO.N,+5V*%
X86360000Y-31750000D02*
X88265000Y-33655000D01*
X86360000Y-30226000D02*
X86360000Y-31750000D01*
D30*
X103251000Y-67437000D02*
X105791000Y-69977000D01*
D29*
X111760000Y-31750000D02*
X111760000Y-30226000D01*
X120396000Y-47989620D02*
X120396000Y-53467000D01*
D30*
X82956400Y-73837800D02*
X82956400Y-77317600D01*
D29*
X99060000Y-30226000D02*
X99060000Y-33655000D01*
X119380000Y-46973620D02*
X120396000Y-47989620D01*
X88265000Y-33655000D02*
X99060000Y-33655000D01*
X109855000Y-33655000D02*
X111442500Y-32067500D01*
X117195600Y-63271400D02*
X110490000Y-69977000D01*
X119380000Y-30226000D02*
X119380000Y-46973620D01*
D30*
X105791000Y-69977000D02*
X110490000Y-69977000D01*
X123332900Y-60045600D02*
X120624600Y-60045600D01*
X103251000Y-65532000D02*
X103251000Y-67437000D01*
X84124800Y-78486000D02*
X86360000Y-78486000D01*
X82956400Y-77317600D02*
X84124800Y-78486000D01*
X111760000Y-30226000D02*
X124460000Y-30226000D01*
X78308200Y-72212200D02*
X74371200Y-72212200D01*
X120624600Y-60045600D02*
X117221000Y-56642000D01*
D29*
X117195600Y-56667400D02*
X117195600Y-63271400D01*
D30*
X81330800Y-72212200D02*
X82956400Y-73837800D01*
D29*
X117221000Y-56642000D02*
X117195600Y-56667400D01*
X120396000Y-53467000D02*
X117221000Y-56642000D01*
D30*
X74371200Y-72212200D02*
X74320400Y-72263000D01*
X78409800Y-72212200D02*
X81330800Y-72212200D01*
D29*
X99060000Y-33655000D02*
X109855000Y-33655000D01*
D28*
%TO.N,/XTAL1*%
X87376000Y-52832000D02*
X93472000Y-52832000D01*
X86360000Y-51816000D02*
X87376000Y-52832000D01*
X93472000Y-52832000D02*
X97282000Y-49022000D01*
%TO.N,/XTAL2*%
X97536000Y-50419000D02*
X93853000Y-54102000D01*
X93853000Y-54102000D02*
X87376000Y-54102000D01*
X87376000Y-54102000D02*
X86360000Y-55118000D01*
D31*
%TO.N,/SPI_SCK*%
X118770400Y-50596800D02*
X117957600Y-49784000D01*
X117957600Y-49784000D02*
X106426000Y-49784000D01*
D32*
%TO.N,/jtag_TCK*%
X126746000Y-67056000D02*
X125349000Y-67056000D01*
X125349000Y-67056000D02*
X121539000Y-70866000D01*
X121539000Y-70866000D02*
X118110000Y-70866000D01*
%TO.N,/jtag_TDO*%
X125603000Y-65659000D02*
X121539000Y-69723000D01*
X127326106Y-65659000D02*
X125603000Y-65659000D01*
X128016000Y-66348894D02*
X127326106Y-65659000D01*
X128016000Y-67056000D02*
X128016000Y-66348894D01*
X121539000Y-69723000D02*
X115570000Y-69723000D01*
%TO.N,/jtag_TMS*%
X116840000Y-71628000D02*
X122047000Y-71628000D01*
X125349000Y-68326000D02*
X126746000Y-68326000D01*
X122047000Y-71628000D02*
X125349000Y-68326000D01*
%TO.N,/jtag_TDI*%
X121411989Y-73533011D02*
X116712989Y-73533011D01*
X126746000Y-69596000D02*
X125349000Y-69596000D01*
X116712989Y-73533011D02*
X114299989Y-75946011D01*
X125349000Y-69596000D02*
X121411989Y-73533011D01*
%TO.N,/PA1*%
X109220000Y-68326000D02*
X102362000Y-61468000D01*
%TO.N,/PA0*%
X102108000Y-60071000D02*
X109347000Y-67310000D01*
D33*
%TO.N,/RXD1*%
X85166200Y-68554600D02*
X86029800Y-68554600D01*
X86029800Y-68554600D02*
X97028000Y-57556400D01*
X97028000Y-57556400D02*
X97028000Y-56134000D01*
%TO.N,/TXD1*%
X96012000Y-57048400D02*
X96012000Y-54991000D01*
X86461600Y-66598800D02*
X96012000Y-57048400D01*
X85166200Y-66598800D02*
X86461600Y-66598800D01*
D28*
%TO.N,/nRST*%
X113411000Y-48260000D02*
X101600000Y-48260000D01*
D33*
X90678000Y-46228000D02*
X99568000Y-46228000D01*
X81280000Y-27686000D02*
X81280000Y-36830000D01*
X81280000Y-36830000D02*
X90678000Y-46228000D01*
D28*
X101600000Y-48260000D02*
X99568000Y-46228000D01*
%TD*%
%TA.AperFunction,Conductor*%
%TO.N,GND*%
G36*
X126475670Y-25783028D02*
G01*
X126496204Y-25786255D01*
X126506000Y-25784691D01*
X126508043Y-25784689D01*
X126531817Y-25783459D01*
X126787523Y-25797522D01*
X126801562Y-25799088D01*
X127038302Y-25839050D01*
X127082263Y-25846471D01*
X127096052Y-25849603D01*
X127369680Y-25928140D01*
X127383032Y-25932798D01*
X127646130Y-26041499D01*
X127658875Y-26047623D01*
X127908142Y-26185120D01*
X127920121Y-26192634D01*
X128152375Y-26357170D01*
X128152407Y-26357193D01*
X128163469Y-26366002D01*
X128375859Y-26555557D01*
X128385863Y-26565549D01*
X128500105Y-26693240D01*
X128575674Y-26777706D01*
X128584479Y-26788734D01*
X128749321Y-27020819D01*
X128749337Y-27020841D01*
X128756865Y-27032811D01*
X128894665Y-27281909D01*
X128900805Y-27294647D01*
X129009826Y-27557615D01*
X129014500Y-27570960D01*
X129093373Y-27844503D01*
X129096517Y-27858264D01*
X129144242Y-28138916D01*
X129144244Y-28138926D01*
X129145827Y-28152968D01*
X129153845Y-28295599D01*
X129160209Y-28408815D01*
X129159035Y-28432080D01*
X129159035Y-28434472D01*
X129157484Y-28444266D01*
X129159036Y-28454061D01*
X129160687Y-28464485D01*
X129162239Y-28484199D01*
X129162239Y-69099217D01*
X129142237Y-69167338D01*
X129088581Y-69213831D01*
X129018307Y-69223935D01*
X128953727Y-69194441D01*
X128924987Y-69158370D01*
X128862540Y-69040923D01*
X128855752Y-69030706D01*
X128776755Y-68933847D01*
X128749201Y-68868415D01*
X128761396Y-68798474D01*
X128765279Y-68791211D01*
X128822423Y-68692234D01*
X128825726Y-68686513D01*
X128827767Y-68680232D01*
X128880948Y-68516560D01*
X128880948Y-68516558D01*
X128882987Y-68510284D01*
X128884886Y-68492221D01*
X128901666Y-68332565D01*
X128902356Y-68326000D01*
X128891220Y-68220046D01*
X128883677Y-68148277D01*
X128883676Y-68148273D01*
X128882987Y-68141716D01*
X128857962Y-68064696D01*
X128827767Y-67971768D01*
X128827766Y-67971767D01*
X128825726Y-67965487D01*
X128798945Y-67919100D01*
X128736380Y-67810733D01*
X128736377Y-67810729D01*
X128733077Y-67805013D01*
X128726311Y-67797498D01*
X128715486Y-67785476D01*
X128706333Y-67775311D01*
X128675616Y-67711303D01*
X128684379Y-67640850D01*
X128706333Y-67606689D01*
X128728658Y-67581895D01*
X128728659Y-67581894D01*
X128733077Y-67576987D01*
X128736377Y-67571271D01*
X128736380Y-67571267D01*
X128822423Y-67422234D01*
X128825726Y-67416513D01*
X128837087Y-67381548D01*
X128880948Y-67246560D01*
X128880948Y-67246558D01*
X128882987Y-67240284D01*
X128888269Y-67190034D01*
X128901666Y-67062565D01*
X128902356Y-67056000D01*
X128898147Y-67015952D01*
X128883677Y-66878277D01*
X128883676Y-66878273D01*
X128882987Y-66871716D01*
X128833113Y-66718220D01*
X128827767Y-66701768D01*
X128827766Y-66701767D01*
X128825726Y-66695487D01*
X128733077Y-66535013D01*
X128727424Y-66528734D01*
X128613510Y-66402220D01*
X128613509Y-66402219D01*
X128609088Y-66397309D01*
X128572739Y-66370900D01*
X128529387Y-66314678D01*
X128521044Y-66276769D01*
X128519611Y-66253675D01*
X128519611Y-66253674D01*
X128519055Y-66244716D01*
X128516007Y-66236275D01*
X128515404Y-66233361D01*
X128511185Y-66216442D01*
X128510353Y-66213596D01*
X128509080Y-66204707D01*
X128489474Y-66161585D01*
X128485666Y-66152229D01*
X128474695Y-66121841D01*
X128469595Y-66107713D01*
X128464300Y-66100465D01*
X128462914Y-66097858D01*
X128454099Y-66082771D01*
X128452506Y-66080280D01*
X128448792Y-66072112D01*
X128417882Y-66036239D01*
X128411604Y-66028332D01*
X128406447Y-66021272D01*
X128406446Y-66021270D01*
X128403575Y-66017341D01*
X128392600Y-66006366D01*
X128386242Y-65999518D01*
X128359577Y-65968571D01*
X128359572Y-65968566D01*
X128353713Y-65961767D01*
X128346178Y-65956883D01*
X128339925Y-65951429D01*
X128328071Y-65941838D01*
X127735929Y-65349696D01*
X127728306Y-65340156D01*
X127727938Y-65340470D01*
X127722120Y-65333634D01*
X127717330Y-65326042D01*
X127676981Y-65290407D01*
X127671294Y-65285061D01*
X127659851Y-65273618D01*
X127651476Y-65267341D01*
X127643647Y-65260967D01*
X127608155Y-65229622D01*
X127600032Y-65225808D01*
X127597544Y-65224174D01*
X127582583Y-65215186D01*
X127579998Y-65213771D01*
X127572811Y-65208384D01*
X127528463Y-65191759D01*
X127519146Y-65187832D01*
X127484432Y-65171534D01*
X127476306Y-65167719D01*
X127467437Y-65166338D01*
X127464604Y-65165472D01*
X127447717Y-65161042D01*
X127444832Y-65160408D01*
X127436422Y-65157255D01*
X127407264Y-65155088D01*
X127389200Y-65153746D01*
X127379154Y-65152592D01*
X127370531Y-65151249D01*
X127370528Y-65151249D01*
X127365720Y-65150500D01*
X127350200Y-65150500D01*
X127340863Y-65150154D01*
X127323960Y-65148898D01*
X127291165Y-65146461D01*
X127282386Y-65148335D01*
X127274128Y-65148898D01*
X127258945Y-65150500D01*
X125674072Y-65150500D01*
X125661942Y-65149145D01*
X125661903Y-65149627D01*
X125652956Y-65148907D01*
X125644200Y-65146926D01*
X125600663Y-65149627D01*
X125590492Y-65150258D01*
X125582690Y-65150500D01*
X125566487Y-65150500D01*
X125557571Y-65151777D01*
X125556122Y-65151984D01*
X125546072Y-65153013D01*
X125508215Y-65155362D01*
X125498823Y-65155945D01*
X125490377Y-65158994D01*
X125487486Y-65159593D01*
X125470520Y-65163822D01*
X125467695Y-65164648D01*
X125458813Y-65165920D01*
X125415702Y-65185522D01*
X125406353Y-65189327D01*
X125361819Y-65205404D01*
X125354571Y-65210699D01*
X125351973Y-65212080D01*
X125336855Y-65220915D01*
X125334386Y-65222494D01*
X125326218Y-65226208D01*
X125319422Y-65232064D01*
X125290348Y-65257115D01*
X125282431Y-65263401D01*
X125275385Y-65268548D01*
X125275380Y-65268553D01*
X125271448Y-65271425D01*
X125260473Y-65282400D01*
X125253626Y-65288758D01*
X125215873Y-65321287D01*
X125210989Y-65328822D01*
X125205542Y-65335066D01*
X125195942Y-65346931D01*
X121365278Y-69177595D01*
X121302966Y-69211621D01*
X121276183Y-69214500D01*
X116117167Y-69214500D01*
X116049046Y-69194498D01*
X116033348Y-69182576D01*
X116029133Y-69178820D01*
X116002227Y-69154848D01*
X115984832Y-69139349D01*
X115984829Y-69139347D01*
X115979160Y-69134296D01*
X115971130Y-69130044D01*
X115833638Y-69057246D01*
X115833639Y-69057246D01*
X115826924Y-69053691D01*
X115659855Y-69011726D01*
X115652257Y-69011686D01*
X115652255Y-69011686D01*
X115579347Y-69011304D01*
X115487598Y-69010824D01*
X115480218Y-69012596D01*
X115480216Y-69012596D01*
X115327479Y-69049265D01*
X115327477Y-69049266D01*
X115320099Y-69051037D01*
X115249454Y-69087500D01*
X115178627Y-69124057D01*
X115167027Y-69130044D01*
X115161305Y-69135036D01*
X115161303Y-69135037D01*
X115045130Y-69236381D01*
X115037219Y-69243282D01*
X114938170Y-69384216D01*
X114875597Y-69544708D01*
X114853112Y-69715492D01*
X114872015Y-69886711D01*
X114931213Y-70048478D01*
X114935450Y-70054784D01*
X114935452Y-70054787D01*
X114968858Y-70104500D01*
X115027290Y-70191455D01*
X115032908Y-70196567D01*
X115070750Y-70231000D01*
X115154698Y-70307387D01*
X115306082Y-70389582D01*
X115472702Y-70433294D01*
X115563700Y-70434724D01*
X115637342Y-70435881D01*
X115637345Y-70435881D01*
X115644939Y-70436000D01*
X115704628Y-70422329D01*
X115805447Y-70399239D01*
X115805451Y-70399238D01*
X115812850Y-70397543D01*
X115966741Y-70320144D01*
X116035183Y-70261689D01*
X116099972Y-70232658D01*
X116117013Y-70231500D01*
X117443442Y-70231500D01*
X117511563Y-70251502D01*
X117558056Y-70305158D01*
X117568160Y-70375432D01*
X117546529Y-70429950D01*
X117478170Y-70527216D01*
X117415597Y-70687708D01*
X117414606Y-70695235D01*
X117396370Y-70833749D01*
X117393112Y-70858492D01*
X117397136Y-70894937D01*
X117384731Y-70964839D01*
X117336502Y-71016940D01*
X117267761Y-71034695D01*
X117212940Y-71020119D01*
X117096924Y-70958691D01*
X116929855Y-70916726D01*
X116922257Y-70916686D01*
X116922255Y-70916686D01*
X116849347Y-70916304D01*
X116757598Y-70915824D01*
X116750218Y-70917596D01*
X116750216Y-70917596D01*
X116597479Y-70954265D01*
X116597477Y-70954266D01*
X116590099Y-70956037D01*
X116437027Y-71035044D01*
X116431305Y-71040036D01*
X116431303Y-71040037D01*
X116312946Y-71143286D01*
X116307219Y-71148282D01*
X116208170Y-71289216D01*
X116145597Y-71449708D01*
X116144606Y-71457235D01*
X116124480Y-71610105D01*
X116123112Y-71620492D01*
X116130789Y-71690025D01*
X116140224Y-71775487D01*
X116142015Y-71791711D01*
X116144624Y-71798842D01*
X116144625Y-71798844D01*
X116156577Y-71831505D01*
X116201213Y-71953478D01*
X116297290Y-72096455D01*
X116302908Y-72101567D01*
X116371958Y-72164397D01*
X116424698Y-72212387D01*
X116576082Y-72294582D01*
X116742702Y-72338294D01*
X116833700Y-72339724D01*
X116907342Y-72340881D01*
X116907345Y-72340881D01*
X116914939Y-72341000D01*
X116977987Y-72326560D01*
X117075447Y-72304239D01*
X117075451Y-72304238D01*
X117082850Y-72302543D01*
X117236741Y-72225144D01*
X117305183Y-72166689D01*
X117369972Y-72137658D01*
X117387013Y-72136500D01*
X121785183Y-72136500D01*
X121853304Y-72156502D01*
X121899797Y-72210158D01*
X121909901Y-72280432D01*
X121880407Y-72345012D01*
X121874278Y-72351595D01*
X121238267Y-72987606D01*
X121175955Y-73021632D01*
X121149172Y-73024511D01*
X116784062Y-73024511D01*
X116771933Y-73023156D01*
X116771894Y-73023638D01*
X116762943Y-73022918D01*
X116754189Y-73020937D01*
X116700480Y-73024269D01*
X116692678Y-73024511D01*
X116676476Y-73024511D01*
X116667560Y-73025788D01*
X116666111Y-73025995D01*
X116656061Y-73027024D01*
X116617770Y-73029400D01*
X116617769Y-73029400D01*
X116608811Y-73029956D01*
X116600370Y-73033004D01*
X116597456Y-73033607D01*
X116580537Y-73037826D01*
X116577691Y-73038658D01*
X116568802Y-73039931D01*
X116525680Y-73059537D01*
X116516325Y-73063345D01*
X116471808Y-73079416D01*
X116464560Y-73084711D01*
X116461953Y-73086097D01*
X116446866Y-73094912D01*
X116444375Y-73096505D01*
X116436207Y-73100219D01*
X116400334Y-73131129D01*
X116392434Y-73137401D01*
X116381436Y-73145436D01*
X116370461Y-73156411D01*
X116363613Y-73162769D01*
X116332665Y-73189435D01*
X116332661Y-73189440D01*
X116325862Y-73195298D01*
X116320980Y-73202830D01*
X116315527Y-73209081D01*
X116305935Y-73220937D01*
X115526273Y-74000600D01*
X114789798Y-74737075D01*
X114727486Y-74771100D01*
X114668092Y-74769687D01*
X114519980Y-74730001D01*
X114519978Y-74730001D01*
X114514665Y-74728577D01*
X114300000Y-74709796D01*
X114085335Y-74728577D01*
X114080022Y-74730001D01*
X114080020Y-74730001D01*
X113882503Y-74782925D01*
X113882501Y-74782926D01*
X113877193Y-74784348D01*
X113872213Y-74786670D01*
X113872211Y-74786671D01*
X113686885Y-74873090D01*
X113686880Y-74873093D01*
X113681898Y-74875416D01*
X113677391Y-74878572D01*
X113677389Y-74878573D01*
X113509894Y-74995854D01*
X113509891Y-74995856D01*
X113505383Y-74999013D01*
X113353013Y-75151383D01*
X113349856Y-75155891D01*
X113349854Y-75155894D01*
X113244179Y-75306814D01*
X113229416Y-75327898D01*
X113227093Y-75332879D01*
X113227087Y-75332890D01*
X113214491Y-75359903D01*
X113167574Y-75413188D01*
X113099296Y-75432648D01*
X113031337Y-75412106D01*
X112984747Y-75356894D01*
X112962972Y-75306814D01*
X112958105Y-75297739D01*
X112842426Y-75118926D01*
X112836136Y-75110757D01*
X112692806Y-74953240D01*
X112685273Y-74946215D01*
X112518139Y-74814222D01*
X112509552Y-74808517D01*
X112323117Y-74705599D01*
X112313705Y-74701369D01*
X112112959Y-74630280D01*
X112102988Y-74627646D01*
X112031837Y-74614972D01*
X112018540Y-74616432D01*
X112014000Y-74630989D01*
X112014000Y-76074000D01*
X111993998Y-76142121D01*
X111940342Y-76188614D01*
X111888000Y-76200000D01*
X111632000Y-76200000D01*
X111563879Y-76179998D01*
X111517386Y-76126342D01*
X111506000Y-76074000D01*
X111506000Y-74629102D01*
X111502082Y-74615758D01*
X111487806Y-74613771D01*
X111449324Y-74619660D01*
X111439288Y-74622051D01*
X111236868Y-74688212D01*
X111227359Y-74692209D01*
X111038463Y-74790542D01*
X111029738Y-74796036D01*
X110859433Y-74923905D01*
X110851726Y-74930748D01*
X110704590Y-75084717D01*
X110698104Y-75092727D01*
X110578098Y-75268649D01*
X110572996Y-75277629D01*
X110534445Y-75360680D01*
X110487621Y-75414047D01*
X110419378Y-75433627D01*
X110351382Y-75413203D01*
X110305963Y-75360878D01*
X110292912Y-75332889D01*
X110292909Y-75332883D01*
X110290584Y-75327898D01*
X110275821Y-75306814D01*
X110170146Y-75155894D01*
X110170144Y-75155891D01*
X110166987Y-75151383D01*
X110014617Y-74999013D01*
X110010109Y-74995856D01*
X110010106Y-74995854D01*
X109842611Y-74878573D01*
X109842609Y-74878572D01*
X109838102Y-74875416D01*
X109833120Y-74873093D01*
X109833115Y-74873090D01*
X109647789Y-74786671D01*
X109647787Y-74786670D01*
X109642807Y-74784348D01*
X109637499Y-74782926D01*
X109637497Y-74782925D01*
X109439980Y-74730001D01*
X109439978Y-74730001D01*
X109434665Y-74728577D01*
X109220000Y-74709796D01*
X109005335Y-74728577D01*
X109000022Y-74730001D01*
X109000020Y-74730001D01*
X108802503Y-74782925D01*
X108802501Y-74782926D01*
X108797193Y-74784348D01*
X108792213Y-74786670D01*
X108792211Y-74786671D01*
X108606885Y-74873090D01*
X108606880Y-74873093D01*
X108601898Y-74875416D01*
X108597391Y-74878572D01*
X108597389Y-74878573D01*
X108429894Y-74995854D01*
X108429891Y-74995856D01*
X108425383Y-74999013D01*
X108273013Y-75151383D01*
X108269856Y-75155891D01*
X108269854Y-75155894D01*
X108164179Y-75306814D01*
X108149416Y-75327898D01*
X108147093Y-75332880D01*
X108147090Y-75332885D01*
X108064195Y-75510654D01*
X108017277Y-75563939D01*
X107949000Y-75583400D01*
X107881040Y-75562858D01*
X107835805Y-75510654D01*
X107752910Y-75332885D01*
X107752907Y-75332880D01*
X107750584Y-75327898D01*
X107735821Y-75306814D01*
X107630146Y-75155894D01*
X107630144Y-75155891D01*
X107626987Y-75151383D01*
X107474617Y-74999013D01*
X107470109Y-74995856D01*
X107470106Y-74995854D01*
X107302611Y-74878573D01*
X107302609Y-74878572D01*
X107298102Y-74875416D01*
X107293120Y-74873093D01*
X107293115Y-74873090D01*
X107107789Y-74786671D01*
X107107787Y-74786670D01*
X107102807Y-74784348D01*
X107097499Y-74782926D01*
X107097497Y-74782925D01*
X106899980Y-74730001D01*
X106899978Y-74730001D01*
X106894665Y-74728577D01*
X106680000Y-74709796D01*
X106465335Y-74728577D01*
X106460022Y-74730001D01*
X106460020Y-74730001D01*
X106262503Y-74782925D01*
X106262501Y-74782926D01*
X106257193Y-74784348D01*
X106252213Y-74786670D01*
X106252211Y-74786671D01*
X106066885Y-74873090D01*
X106066880Y-74873093D01*
X106061898Y-74875416D01*
X106057391Y-74878572D01*
X106057389Y-74878573D01*
X105889894Y-74995854D01*
X105889891Y-74995856D01*
X105885383Y-74999013D01*
X105733013Y-75151383D01*
X105729856Y-75155891D01*
X105729854Y-75155894D01*
X105624179Y-75306814D01*
X105609416Y-75327898D01*
X105607093Y-75332880D01*
X105607090Y-75332885D01*
X105524195Y-75510654D01*
X105477277Y-75563939D01*
X105409000Y-75583400D01*
X105341040Y-75562858D01*
X105295805Y-75510654D01*
X105212910Y-75332885D01*
X105212907Y-75332880D01*
X105210584Y-75327898D01*
X105195821Y-75306814D01*
X105090146Y-75155894D01*
X105090144Y-75155891D01*
X105086987Y-75151383D01*
X104934617Y-74999013D01*
X104930109Y-74995856D01*
X104930106Y-74995854D01*
X104762611Y-74878573D01*
X104762609Y-74878572D01*
X104758102Y-74875416D01*
X104753120Y-74873093D01*
X104753115Y-74873090D01*
X104567789Y-74786671D01*
X104567787Y-74786670D01*
X104562807Y-74784348D01*
X104557499Y-74782926D01*
X104557497Y-74782925D01*
X104359980Y-74730001D01*
X104359978Y-74730001D01*
X104354665Y-74728577D01*
X104140000Y-74709796D01*
X103925335Y-74728577D01*
X103920022Y-74730001D01*
X103920020Y-74730001D01*
X103722503Y-74782925D01*
X103722501Y-74782926D01*
X103717193Y-74784348D01*
X103712213Y-74786670D01*
X103712211Y-74786671D01*
X103526885Y-74873090D01*
X103526880Y-74873093D01*
X103521898Y-74875416D01*
X103517391Y-74878572D01*
X103517389Y-74878573D01*
X103349894Y-74995854D01*
X103349891Y-74995856D01*
X103345383Y-74999013D01*
X103193013Y-75151383D01*
X103189856Y-75155891D01*
X103189854Y-75155894D01*
X103084179Y-75306814D01*
X103069416Y-75327898D01*
X103067093Y-75332880D01*
X103067090Y-75332885D01*
X102984195Y-75510654D01*
X102937277Y-75563939D01*
X102869000Y-75583400D01*
X102801040Y-75562858D01*
X102755805Y-75510654D01*
X102672910Y-75332885D01*
X102672907Y-75332880D01*
X102670584Y-75327898D01*
X102655821Y-75306814D01*
X102550146Y-75155894D01*
X102550144Y-75155891D01*
X102546987Y-75151383D01*
X102394617Y-74999013D01*
X102390109Y-74995856D01*
X102390106Y-74995854D01*
X102222611Y-74878573D01*
X102222609Y-74878572D01*
X102218102Y-74875416D01*
X102213120Y-74873093D01*
X102213115Y-74873090D01*
X102027789Y-74786671D01*
X102027787Y-74786670D01*
X102022807Y-74784348D01*
X102017499Y-74782926D01*
X102017497Y-74782925D01*
X101819980Y-74730001D01*
X101819978Y-74730001D01*
X101814665Y-74728577D01*
X101600000Y-74709796D01*
X101385335Y-74728577D01*
X101380022Y-74730001D01*
X101380020Y-74730001D01*
X101182503Y-74782925D01*
X101182501Y-74782926D01*
X101177193Y-74784348D01*
X101172213Y-74786670D01*
X101172211Y-74786671D01*
X100986885Y-74873090D01*
X100986880Y-74873093D01*
X100981898Y-74875416D01*
X100977391Y-74878572D01*
X100977389Y-74878573D01*
X100809894Y-74995854D01*
X100809891Y-74995856D01*
X100805383Y-74999013D01*
X100653013Y-75151383D01*
X100649856Y-75155891D01*
X100649854Y-75155894D01*
X100544179Y-75306814D01*
X100529416Y-75327898D01*
X100527093Y-75332879D01*
X100527087Y-75332890D01*
X100514491Y-75359903D01*
X100467574Y-75413188D01*
X100399296Y-75432648D01*
X100331337Y-75412106D01*
X100284747Y-75356894D01*
X100262972Y-75306814D01*
X100258105Y-75297739D01*
X100142426Y-75118926D01*
X100136136Y-75110757D01*
X99992806Y-74953240D01*
X99985273Y-74946215D01*
X99818139Y-74814222D01*
X99809552Y-74808517D01*
X99623117Y-74705599D01*
X99613705Y-74701369D01*
X99412959Y-74630280D01*
X99402988Y-74627646D01*
X99331837Y-74614972D01*
X99318540Y-74616432D01*
X99314000Y-74630989D01*
X99314000Y-76074000D01*
X99293998Y-76142121D01*
X99240342Y-76188614D01*
X99188000Y-76200000D01*
X98932000Y-76200000D01*
X98863879Y-76179998D01*
X98817386Y-76126342D01*
X98806000Y-76074000D01*
X98806000Y-74629102D01*
X98802082Y-74615758D01*
X98787806Y-74613771D01*
X98749324Y-74619660D01*
X98739288Y-74622051D01*
X98536868Y-74688212D01*
X98527359Y-74692209D01*
X98338463Y-74790542D01*
X98329738Y-74796036D01*
X98159433Y-74923905D01*
X98151726Y-74930748D01*
X98004590Y-75084717D01*
X97998104Y-75092727D01*
X97878098Y-75268649D01*
X97872996Y-75277629D01*
X97834445Y-75360680D01*
X97787621Y-75414047D01*
X97719378Y-75433627D01*
X97651382Y-75413203D01*
X97605963Y-75360878D01*
X97592912Y-75332889D01*
X97592909Y-75332883D01*
X97590584Y-75327898D01*
X97575821Y-75306814D01*
X97470146Y-75155894D01*
X97470144Y-75155891D01*
X97466987Y-75151383D01*
X97314617Y-74999013D01*
X97310109Y-74995856D01*
X97310106Y-74995854D01*
X97142611Y-74878573D01*
X97142609Y-74878572D01*
X97138102Y-74875416D01*
X97133120Y-74873093D01*
X97133115Y-74873090D01*
X96947789Y-74786671D01*
X96947787Y-74786670D01*
X96942807Y-74784348D01*
X96937499Y-74782926D01*
X96937497Y-74782925D01*
X96739980Y-74730001D01*
X96739978Y-74730001D01*
X96734665Y-74728577D01*
X96520000Y-74709796D01*
X96305335Y-74728577D01*
X96300022Y-74730001D01*
X96300020Y-74730001D01*
X96102503Y-74782925D01*
X96102501Y-74782926D01*
X96097193Y-74784348D01*
X96092213Y-74786670D01*
X96092211Y-74786671D01*
X95906885Y-74873090D01*
X95906880Y-74873093D01*
X95901898Y-74875416D01*
X95897391Y-74878572D01*
X95897389Y-74878573D01*
X95729894Y-74995854D01*
X95729891Y-74995856D01*
X95725383Y-74999013D01*
X95573013Y-75151383D01*
X95569856Y-75155891D01*
X95569854Y-75155894D01*
X95464179Y-75306814D01*
X95449416Y-75327898D01*
X95447093Y-75332880D01*
X95447090Y-75332885D01*
X95364195Y-75510654D01*
X95317277Y-75563939D01*
X95249000Y-75583400D01*
X95181040Y-75562858D01*
X95135805Y-75510654D01*
X95052910Y-75332885D01*
X95052907Y-75332880D01*
X95050584Y-75327898D01*
X95035821Y-75306814D01*
X94930146Y-75155894D01*
X94930144Y-75155891D01*
X94926987Y-75151383D01*
X94774617Y-74999013D01*
X94770109Y-74995856D01*
X94770106Y-74995854D01*
X94602611Y-74878573D01*
X94602609Y-74878572D01*
X94598102Y-74875416D01*
X94593120Y-74873093D01*
X94593115Y-74873090D01*
X94407789Y-74786671D01*
X94407787Y-74786670D01*
X94402807Y-74784348D01*
X94397499Y-74782926D01*
X94397497Y-74782925D01*
X94199980Y-74730001D01*
X94199978Y-74730001D01*
X94194665Y-74728577D01*
X93980000Y-74709796D01*
X93765335Y-74728577D01*
X93760022Y-74730001D01*
X93760020Y-74730001D01*
X93562503Y-74782925D01*
X93562501Y-74782926D01*
X93557193Y-74784348D01*
X93552213Y-74786670D01*
X93552211Y-74786671D01*
X93366885Y-74873090D01*
X93366880Y-74873093D01*
X93361898Y-74875416D01*
X93357391Y-74878572D01*
X93357389Y-74878573D01*
X93189894Y-74995854D01*
X93189891Y-74995856D01*
X93185383Y-74999013D01*
X93033013Y-75151383D01*
X93029856Y-75155891D01*
X93029854Y-75155894D01*
X92924179Y-75306814D01*
X92909416Y-75327898D01*
X92907093Y-75332880D01*
X92907090Y-75332885D01*
X92824195Y-75510654D01*
X92777277Y-75563939D01*
X92709000Y-75583400D01*
X92641040Y-75562858D01*
X92595805Y-75510654D01*
X92512910Y-75332885D01*
X92512907Y-75332880D01*
X92510584Y-75327898D01*
X92495821Y-75306814D01*
X92390146Y-75155894D01*
X92390144Y-75155891D01*
X92386987Y-75151383D01*
X92234617Y-74999013D01*
X92230109Y-74995856D01*
X92230106Y-74995854D01*
X92062611Y-74878573D01*
X92062609Y-74878572D01*
X92058102Y-74875416D01*
X92053120Y-74873093D01*
X92053115Y-74873090D01*
X91867789Y-74786671D01*
X91867787Y-74786670D01*
X91862807Y-74784348D01*
X91857499Y-74782926D01*
X91857497Y-74782925D01*
X91659980Y-74730001D01*
X91659978Y-74730001D01*
X91654665Y-74728577D01*
X91440000Y-74709796D01*
X91225335Y-74728577D01*
X91220022Y-74730001D01*
X91220020Y-74730001D01*
X91022503Y-74782925D01*
X91022501Y-74782926D01*
X91017193Y-74784348D01*
X91012213Y-74786670D01*
X91012211Y-74786671D01*
X90826885Y-74873090D01*
X90826880Y-74873093D01*
X90821898Y-74875416D01*
X90817391Y-74878572D01*
X90817389Y-74878573D01*
X90649894Y-74995854D01*
X90649891Y-74995856D01*
X90645383Y-74999013D01*
X90493013Y-75151383D01*
X90489856Y-75155891D01*
X90489854Y-75155894D01*
X90384179Y-75306814D01*
X90369416Y-75327898D01*
X90367093Y-75332880D01*
X90367090Y-75332885D01*
X90284195Y-75510654D01*
X90237277Y-75563939D01*
X90169000Y-75583400D01*
X90101040Y-75562858D01*
X90055805Y-75510654D01*
X89972910Y-75332885D01*
X89972907Y-75332880D01*
X89970584Y-75327898D01*
X89955821Y-75306814D01*
X89850146Y-75155894D01*
X89850144Y-75155891D01*
X89846987Y-75151383D01*
X89694617Y-74999013D01*
X89690109Y-74995856D01*
X89690106Y-74995854D01*
X89522611Y-74878573D01*
X89522609Y-74878572D01*
X89518102Y-74875416D01*
X89513120Y-74873093D01*
X89513115Y-74873090D01*
X89327789Y-74786671D01*
X89327787Y-74786670D01*
X89322807Y-74784348D01*
X89317499Y-74782926D01*
X89317497Y-74782925D01*
X89119980Y-74730001D01*
X89119978Y-74730001D01*
X89114665Y-74728577D01*
X88900000Y-74709796D01*
X88685335Y-74728577D01*
X88680022Y-74730001D01*
X88680020Y-74730001D01*
X88482503Y-74782925D01*
X88482501Y-74782926D01*
X88477193Y-74784348D01*
X88472213Y-74786670D01*
X88472211Y-74786671D01*
X88286885Y-74873090D01*
X88286880Y-74873093D01*
X88281898Y-74875416D01*
X88277391Y-74878572D01*
X88277389Y-74878573D01*
X88109894Y-74995854D01*
X88109891Y-74995856D01*
X88105383Y-74999013D01*
X87953013Y-75151383D01*
X87949856Y-75155891D01*
X87949854Y-75155894D01*
X87844179Y-75306814D01*
X87829416Y-75327898D01*
X87827093Y-75332879D01*
X87827087Y-75332890D01*
X87814491Y-75359903D01*
X87767574Y-75413188D01*
X87699296Y-75432648D01*
X87631337Y-75412106D01*
X87584747Y-75356894D01*
X87562972Y-75306814D01*
X87558105Y-75297739D01*
X87442426Y-75118926D01*
X87436136Y-75110757D01*
X87292806Y-74953240D01*
X87285273Y-74946215D01*
X87118139Y-74814222D01*
X87109552Y-74808517D01*
X86923117Y-74705599D01*
X86913705Y-74701369D01*
X86712959Y-74630280D01*
X86702988Y-74627646D01*
X86631837Y-74614972D01*
X86618540Y-74616432D01*
X86614000Y-74630989D01*
X86614000Y-76074000D01*
X86593998Y-76142121D01*
X86540342Y-76188614D01*
X86488000Y-76200000D01*
X85043225Y-76200000D01*
X85029694Y-76203973D01*
X85028257Y-76213966D01*
X85058565Y-76348446D01*
X85061645Y-76358275D01*
X85141770Y-76555603D01*
X85146413Y-76564794D01*
X85257694Y-76746388D01*
X85263777Y-76754699D01*
X85403213Y-76915667D01*
X85410580Y-76922882D01*
X85542519Y-77032420D01*
X85582154Y-77091322D01*
X85583652Y-77162303D01*
X85546538Y-77222826D01*
X85482594Y-77253675D01*
X85475668Y-77254500D01*
X85473842Y-77254500D01*
X85447189Y-77258423D01*
X85408541Y-77264112D01*
X85408539Y-77264113D01*
X85398856Y-77265538D01*
X85390068Y-77269853D01*
X85390067Y-77269853D01*
X85294197Y-77316923D01*
X85294196Y-77316924D01*
X85284849Y-77321513D01*
X85195120Y-77411399D01*
X85191973Y-77417837D01*
X85137620Y-77460511D01*
X85090883Y-77469500D01*
X84598038Y-77469500D01*
X84529917Y-77449498D01*
X84508943Y-77432595D01*
X84009805Y-76933457D01*
X83975779Y-76871145D01*
X83972900Y-76844362D01*
X83972900Y-75680183D01*
X85024389Y-75680183D01*
X85025912Y-75688607D01*
X85038292Y-75692000D01*
X86087885Y-75692000D01*
X86103124Y-75687525D01*
X86104329Y-75686135D01*
X86106000Y-75678452D01*
X86106000Y-74629102D01*
X86102082Y-74615758D01*
X86087806Y-74613771D01*
X86049324Y-74619660D01*
X86039288Y-74622051D01*
X85836868Y-74688212D01*
X85827359Y-74692209D01*
X85638463Y-74790542D01*
X85629738Y-74796036D01*
X85459433Y-74923905D01*
X85451726Y-74930748D01*
X85304590Y-75084717D01*
X85298104Y-75092727D01*
X85178098Y-75268649D01*
X85173000Y-75277623D01*
X85083338Y-75470783D01*
X85079775Y-75480470D01*
X85024389Y-75680183D01*
X83972900Y-75680183D01*
X83972900Y-73900076D01*
X83973637Y-73886468D01*
X83977097Y-73854621D01*
X83977097Y-73854617D01*
X83977762Y-73848496D01*
X83973354Y-73798110D01*
X83973025Y-73793282D01*
X83972900Y-73790728D01*
X83972900Y-73787643D01*
X83968676Y-73744559D01*
X83968557Y-73743281D01*
X83960925Y-73656045D01*
X83960925Y-73656043D01*
X83960388Y-73649909D01*
X83958889Y-73644749D01*
X83958365Y-73639406D01*
X83931261Y-73549634D01*
X83930919Y-73548478D01*
X83906492Y-73464397D01*
X83906490Y-73464391D01*
X83904772Y-73458479D01*
X83902301Y-73453712D01*
X83900748Y-73448568D01*
X83856728Y-73365778D01*
X83856162Y-73364700D01*
X83813034Y-73281496D01*
X83809682Y-73277297D01*
X83807161Y-73272556D01*
X83765061Y-73220937D01*
X83747962Y-73199971D01*
X83747134Y-73198945D01*
X83717829Y-73162236D01*
X83717828Y-73162235D01*
X83715632Y-73159484D01*
X83713137Y-73156989D01*
X83712427Y-73156195D01*
X83708707Y-73151840D01*
X83685063Y-73122849D01*
X83685060Y-73122846D01*
X83681168Y-73118074D01*
X83669325Y-73108276D01*
X83645527Y-73088589D01*
X83636748Y-73080600D01*
X82093615Y-71537467D01*
X82084513Y-71527324D01*
X82064434Y-71502351D01*
X82060575Y-71497551D01*
X82021798Y-71465013D01*
X82018171Y-71461849D01*
X82016302Y-71460154D01*
X82014108Y-71457960D01*
X81980542Y-71430388D01*
X81979745Y-71429726D01*
X81907867Y-71369414D01*
X81903161Y-71366827D01*
X81899011Y-71363418D01*
X81893587Y-71360510D01*
X81893577Y-71360503D01*
X81816432Y-71319139D01*
X81815272Y-71318510D01*
X81753879Y-71284759D01*
X81733179Y-71273379D01*
X81728059Y-71271755D01*
X81723326Y-71269217D01*
X81633807Y-71241848D01*
X81632548Y-71241456D01*
X81549039Y-71214965D01*
X81549035Y-71214964D01*
X81543165Y-71213102D01*
X81537827Y-71212503D01*
X81532691Y-71210933D01*
X81526560Y-71210310D01*
X81526559Y-71210310D01*
X81505903Y-71208212D01*
X81439369Y-71201454D01*
X81438249Y-71201334D01*
X81388016Y-71195700D01*
X81384511Y-71195700D01*
X81383403Y-71195638D01*
X81377708Y-71195190D01*
X81340495Y-71191410D01*
X81340488Y-71191410D01*
X81334365Y-71190788D01*
X81290198Y-71194963D01*
X81288315Y-71195141D01*
X81276457Y-71195700D01*
X74433476Y-71195700D01*
X74419868Y-71194963D01*
X74388021Y-71191503D01*
X74388017Y-71191503D01*
X74381896Y-71190838D01*
X74345028Y-71194063D01*
X74331510Y-71195246D01*
X74326682Y-71195575D01*
X74324127Y-71195700D01*
X74321043Y-71195700D01*
X74307143Y-71197063D01*
X74277981Y-71199922D01*
X74276668Y-71200044D01*
X74236571Y-71203552D01*
X74183308Y-71208212D01*
X74178148Y-71209711D01*
X74172806Y-71210235D01*
X74083104Y-71237317D01*
X74081964Y-71237655D01*
X73991878Y-71263828D01*
X73987110Y-71266300D01*
X73981968Y-71267852D01*
X73976523Y-71270747D01*
X73976516Y-71270750D01*
X73899250Y-71311833D01*
X73898146Y-71312413D01*
X73814896Y-71355566D01*
X73810697Y-71358918D01*
X73805956Y-71361439D01*
X73801184Y-71365331D01*
X73733371Y-71420638D01*
X73732345Y-71421466D01*
X73705829Y-71442634D01*
X73692884Y-71452968D01*
X73690389Y-71455463D01*
X73689595Y-71456173D01*
X73685240Y-71459893D01*
X73656249Y-71483537D01*
X73656246Y-71483540D01*
X73651474Y-71487432D01*
X73647546Y-71492180D01*
X73647545Y-71492181D01*
X73621989Y-71523073D01*
X73614000Y-71531852D01*
X73566160Y-71579692D01*
X73471618Y-71694789D01*
X73377417Y-71870474D01*
X73319133Y-72061109D01*
X73318510Y-72067243D01*
X73308409Y-72166689D01*
X73298988Y-72259435D01*
X73317748Y-72457896D01*
X73374699Y-72648934D01*
X73377571Y-72654382D01*
X73377573Y-72654386D01*
X73409266Y-72714497D01*
X73467671Y-72825271D01*
X73471547Y-72830057D01*
X73471548Y-72830059D01*
X73528102Y-72899897D01*
X73593124Y-72980192D01*
X73746278Y-73107795D01*
X73751683Y-73110742D01*
X73751686Y-73110744D01*
X73896016Y-73189435D01*
X73921300Y-73203220D01*
X74111524Y-73262833D01*
X74117647Y-73263498D01*
X74117651Y-73263499D01*
X74303579Y-73283697D01*
X74303583Y-73283697D01*
X74309704Y-73284362D01*
X74508292Y-73266988D01*
X74514209Y-73265269D01*
X74514214Y-73265268D01*
X74622859Y-73233703D01*
X74658012Y-73228700D01*
X80857562Y-73228700D01*
X80925683Y-73248702D01*
X80946657Y-73265605D01*
X81334521Y-73653469D01*
X81368547Y-73715781D01*
X81363482Y-73786596D01*
X81352118Y-73801776D01*
X81332800Y-73842493D01*
X81332800Y-76865118D01*
X81336773Y-76878649D01*
X81344568Y-76879769D01*
X81452321Y-76848056D01*
X81463689Y-76843463D01*
X81627954Y-76757587D01*
X81638215Y-76750873D01*
X81734948Y-76673098D01*
X81800571Y-76646002D01*
X81870425Y-76658685D01*
X81922333Y-76707122D01*
X81939900Y-76771295D01*
X81939900Y-77255324D01*
X81939163Y-77268932D01*
X81937605Y-77283277D01*
X81935038Y-77306904D01*
X81938263Y-77343772D01*
X81939446Y-77357290D01*
X81939775Y-77362118D01*
X81939900Y-77364673D01*
X81939900Y-77367757D01*
X81940201Y-77370824D01*
X81944122Y-77410819D01*
X81944244Y-77412132D01*
X81947513Y-77449498D01*
X81952412Y-77505492D01*
X81953911Y-77510652D01*
X81954435Y-77515994D01*
X81981141Y-77604448D01*
X81981498Y-77605631D01*
X81981855Y-77606836D01*
X82008028Y-77696922D01*
X82010500Y-77701690D01*
X82012052Y-77706832D01*
X82014947Y-77712277D01*
X82014950Y-77712284D01*
X82056033Y-77789550D01*
X82056613Y-77790654D01*
X82099766Y-77873904D01*
X82103118Y-77878103D01*
X82105639Y-77882844D01*
X82109531Y-77887616D01*
X82164838Y-77955429D01*
X82165666Y-77956455D01*
X82194971Y-77993164D01*
X82197168Y-77995916D01*
X82199663Y-77998411D01*
X82200373Y-77999205D01*
X82204093Y-78003560D01*
X82227737Y-78032551D01*
X82227740Y-78032554D01*
X82231632Y-78037326D01*
X82236380Y-78041254D01*
X82236381Y-78041255D01*
X82267273Y-78066811D01*
X82276052Y-78074800D01*
X83361985Y-79160733D01*
X83371086Y-79170875D01*
X83395025Y-79200649D01*
X83433802Y-79233187D01*
X83437429Y-79236351D01*
X83439298Y-79238046D01*
X83441492Y-79240240D01*
X83475058Y-79267812D01*
X83475855Y-79268474D01*
X83547733Y-79328786D01*
X83552439Y-79331373D01*
X83556589Y-79334782D01*
X83562013Y-79337690D01*
X83562023Y-79337697D01*
X83639168Y-79379061D01*
X83640328Y-79379690D01*
X83722421Y-79424821D01*
X83727541Y-79426445D01*
X83732274Y-79428983D01*
X83811516Y-79453210D01*
X83821793Y-79456352D01*
X83823052Y-79456744D01*
X83906561Y-79483235D01*
X83906565Y-79483236D01*
X83912435Y-79485098D01*
X83917773Y-79485697D01*
X83922909Y-79487267D01*
X83929039Y-79487890D01*
X83929041Y-79487890D01*
X83953774Y-79490402D01*
X84016168Y-79496739D01*
X84017308Y-79496861D01*
X84067584Y-79502500D01*
X84071090Y-79502500D01*
X84072216Y-79502563D01*
X84077910Y-79503011D01*
X84115105Y-79506789D01*
X84115111Y-79506789D01*
X84121235Y-79507411D01*
X84167277Y-79503059D01*
X84179134Y-79502500D01*
X85090871Y-79502500D01*
X85158992Y-79522502D01*
X85191908Y-79553808D01*
X85195513Y-79561151D01*
X85285399Y-79650880D01*
X85294755Y-79655453D01*
X85294756Y-79655454D01*
X85331635Y-79673480D01*
X85399503Y-79706655D01*
X85432284Y-79711437D01*
X85469316Y-79716840D01*
X85469320Y-79716840D01*
X85473842Y-79717500D01*
X87246158Y-79717500D01*
X87250706Y-79716830D01*
X87250713Y-79716830D01*
X87311459Y-79707888D01*
X87311461Y-79707887D01*
X87321144Y-79706462D01*
X87330234Y-79701999D01*
X87425803Y-79655077D01*
X87425804Y-79655076D01*
X87435151Y-79650487D01*
X87524880Y-79560601D01*
X87530194Y-79549731D01*
X87561594Y-79485491D01*
X87580655Y-79446497D01*
X87591500Y-79372158D01*
X87591500Y-79161299D01*
X87611502Y-79093178D01*
X87665158Y-79046685D01*
X87735432Y-79036581D01*
X87800012Y-79066075D01*
X87826619Y-79098299D01*
X87827092Y-79099118D01*
X87829416Y-79104102D01*
X87833277Y-79109616D01*
X87943952Y-79267676D01*
X87953013Y-79280617D01*
X88105383Y-79432987D01*
X88109891Y-79436144D01*
X88109894Y-79436146D01*
X88277389Y-79553427D01*
X88281898Y-79556584D01*
X88286880Y-79558907D01*
X88286885Y-79558910D01*
X88468336Y-79643522D01*
X88477193Y-79647652D01*
X88482501Y-79649074D01*
X88482503Y-79649075D01*
X88680020Y-79701999D01*
X88680022Y-79701999D01*
X88685335Y-79703423D01*
X88900000Y-79722204D01*
X89114665Y-79703423D01*
X89119978Y-79701999D01*
X89119980Y-79701999D01*
X89317497Y-79649075D01*
X89317499Y-79649074D01*
X89322807Y-79647652D01*
X89331664Y-79643522D01*
X89513115Y-79558910D01*
X89513120Y-79558907D01*
X89518102Y-79556584D01*
X89522611Y-79553427D01*
X89690106Y-79436146D01*
X89690109Y-79436144D01*
X89694617Y-79432987D01*
X89846987Y-79280617D01*
X89856049Y-79267676D01*
X89967427Y-79108611D01*
X89967430Y-79108606D01*
X89970584Y-79104102D01*
X89972907Y-79099120D01*
X89972910Y-79099115D01*
X90055805Y-78921346D01*
X90102723Y-78868061D01*
X90171000Y-78848600D01*
X90238960Y-78869142D01*
X90284195Y-78921346D01*
X90367090Y-79099115D01*
X90367093Y-79099120D01*
X90369416Y-79104102D01*
X90372570Y-79108606D01*
X90372573Y-79108611D01*
X90483952Y-79267676D01*
X90493013Y-79280617D01*
X90645383Y-79432987D01*
X90649891Y-79436144D01*
X90649894Y-79436146D01*
X90817389Y-79553427D01*
X90821898Y-79556584D01*
X90826880Y-79558907D01*
X90826885Y-79558910D01*
X91008336Y-79643522D01*
X91017193Y-79647652D01*
X91022501Y-79649074D01*
X91022503Y-79649075D01*
X91220020Y-79701999D01*
X91220022Y-79701999D01*
X91225335Y-79703423D01*
X91440000Y-79722204D01*
X91654665Y-79703423D01*
X91659978Y-79701999D01*
X91659980Y-79701999D01*
X91857497Y-79649075D01*
X91857499Y-79649074D01*
X91862807Y-79647652D01*
X91871664Y-79643522D01*
X92053115Y-79558910D01*
X92053120Y-79558907D01*
X92058102Y-79556584D01*
X92062611Y-79553427D01*
X92230106Y-79436146D01*
X92230109Y-79436144D01*
X92234617Y-79432987D01*
X92386987Y-79280617D01*
X92396049Y-79267676D01*
X92507427Y-79108611D01*
X92507430Y-79108606D01*
X92510584Y-79104102D01*
X92512907Y-79099120D01*
X92512910Y-79099115D01*
X92595805Y-78921346D01*
X92642723Y-78868061D01*
X92711000Y-78848600D01*
X92778960Y-78869142D01*
X92824195Y-78921346D01*
X92907090Y-79099115D01*
X92907093Y-79099120D01*
X92909416Y-79104102D01*
X92912570Y-79108606D01*
X92912573Y-79108611D01*
X93023952Y-79267676D01*
X93033013Y-79280617D01*
X93185383Y-79432987D01*
X93189891Y-79436144D01*
X93189894Y-79436146D01*
X93357389Y-79553427D01*
X93361898Y-79556584D01*
X93366880Y-79558907D01*
X93366885Y-79558910D01*
X93548336Y-79643522D01*
X93557193Y-79647652D01*
X93562501Y-79649074D01*
X93562503Y-79649075D01*
X93760020Y-79701999D01*
X93760022Y-79701999D01*
X93765335Y-79703423D01*
X93980000Y-79722204D01*
X94194665Y-79703423D01*
X94199978Y-79701999D01*
X94199980Y-79701999D01*
X94397497Y-79649075D01*
X94397499Y-79649074D01*
X94402807Y-79647652D01*
X94411664Y-79643522D01*
X94593115Y-79558910D01*
X94593120Y-79558907D01*
X94598102Y-79556584D01*
X94602611Y-79553427D01*
X94770106Y-79436146D01*
X94770109Y-79436144D01*
X94774617Y-79432987D01*
X94926987Y-79280617D01*
X94936049Y-79267676D01*
X95047427Y-79108611D01*
X95047430Y-79108606D01*
X95050584Y-79104102D01*
X95052907Y-79099120D01*
X95052910Y-79099115D01*
X95135805Y-78921346D01*
X95182723Y-78868061D01*
X95251000Y-78848600D01*
X95318960Y-78869142D01*
X95364195Y-78921346D01*
X95447090Y-79099115D01*
X95447093Y-79099120D01*
X95449416Y-79104102D01*
X95452570Y-79108606D01*
X95452573Y-79108611D01*
X95563952Y-79267676D01*
X95573013Y-79280617D01*
X95725383Y-79432987D01*
X95729891Y-79436144D01*
X95729894Y-79436146D01*
X95897389Y-79553427D01*
X95901898Y-79556584D01*
X95906880Y-79558907D01*
X95906885Y-79558910D01*
X96088336Y-79643522D01*
X96097193Y-79647652D01*
X96102501Y-79649074D01*
X96102503Y-79649075D01*
X96300020Y-79701999D01*
X96300022Y-79701999D01*
X96305335Y-79703423D01*
X96520000Y-79722204D01*
X96734665Y-79703423D01*
X96739978Y-79701999D01*
X96739980Y-79701999D01*
X96937497Y-79649075D01*
X96937499Y-79649074D01*
X96942807Y-79647652D01*
X96951664Y-79643522D01*
X97133115Y-79558910D01*
X97133120Y-79558907D01*
X97138102Y-79556584D01*
X97142611Y-79553427D01*
X97310106Y-79436146D01*
X97310109Y-79436144D01*
X97314617Y-79432987D01*
X97466987Y-79280617D01*
X97476049Y-79267676D01*
X97587427Y-79108611D01*
X97587430Y-79108606D01*
X97590584Y-79104102D01*
X97592907Y-79099120D01*
X97592910Y-79099115D01*
X97675805Y-78921346D01*
X97722723Y-78868061D01*
X97791000Y-78848600D01*
X97858960Y-78869142D01*
X97904195Y-78921346D01*
X97987090Y-79099115D01*
X97987093Y-79099120D01*
X97989416Y-79104102D01*
X97992570Y-79108606D01*
X97992573Y-79108611D01*
X98103952Y-79267676D01*
X98113013Y-79280617D01*
X98265383Y-79432987D01*
X98269891Y-79436144D01*
X98269894Y-79436146D01*
X98437389Y-79553427D01*
X98441898Y-79556584D01*
X98446880Y-79558907D01*
X98446885Y-79558910D01*
X98628336Y-79643522D01*
X98637193Y-79647652D01*
X98642501Y-79649074D01*
X98642503Y-79649075D01*
X98840020Y-79701999D01*
X98840022Y-79701999D01*
X98845335Y-79703423D01*
X99060000Y-79722204D01*
X99274665Y-79703423D01*
X99279978Y-79701999D01*
X99279980Y-79701999D01*
X99477497Y-79649075D01*
X99477499Y-79649074D01*
X99482807Y-79647652D01*
X99491664Y-79643522D01*
X99673115Y-79558910D01*
X99673120Y-79558907D01*
X99678102Y-79556584D01*
X99682611Y-79553427D01*
X99850106Y-79436146D01*
X99850109Y-79436144D01*
X99854617Y-79432987D01*
X100006987Y-79280617D01*
X100016049Y-79267676D01*
X100127427Y-79108611D01*
X100127430Y-79108606D01*
X100130584Y-79104102D01*
X100132907Y-79099120D01*
X100132910Y-79099115D01*
X100215805Y-78921346D01*
X100262723Y-78868061D01*
X100331000Y-78848600D01*
X100398960Y-78869142D01*
X100444195Y-78921346D01*
X100527090Y-79099115D01*
X100527093Y-79099120D01*
X100529416Y-79104102D01*
X100532570Y-79108606D01*
X100532573Y-79108611D01*
X100643952Y-79267676D01*
X100653013Y-79280617D01*
X100805383Y-79432987D01*
X100809891Y-79436144D01*
X100809894Y-79436146D01*
X100977389Y-79553427D01*
X100981898Y-79556584D01*
X100986880Y-79558907D01*
X100986885Y-79558910D01*
X101168336Y-79643522D01*
X101177193Y-79647652D01*
X101182501Y-79649074D01*
X101182503Y-79649075D01*
X101380020Y-79701999D01*
X101380022Y-79701999D01*
X101385335Y-79703423D01*
X101600000Y-79722204D01*
X101814665Y-79703423D01*
X101819978Y-79701999D01*
X101819980Y-79701999D01*
X102017497Y-79649075D01*
X102017499Y-79649074D01*
X102022807Y-79647652D01*
X102031664Y-79643522D01*
X102213115Y-79558910D01*
X102213120Y-79558907D01*
X102218102Y-79556584D01*
X102222611Y-79553427D01*
X102390106Y-79436146D01*
X102390109Y-79436144D01*
X102394617Y-79432987D01*
X102546987Y-79280617D01*
X102556049Y-79267676D01*
X102667427Y-79108611D01*
X102667430Y-79108606D01*
X102670584Y-79104102D01*
X102672907Y-79099120D01*
X102672910Y-79099115D01*
X102755805Y-78921346D01*
X102802723Y-78868061D01*
X102871000Y-78848600D01*
X102938960Y-78869142D01*
X102984195Y-78921346D01*
X103067090Y-79099115D01*
X103067093Y-79099120D01*
X103069416Y-79104102D01*
X103072570Y-79108606D01*
X103072573Y-79108611D01*
X103183952Y-79267676D01*
X103193013Y-79280617D01*
X103345383Y-79432987D01*
X103349891Y-79436144D01*
X103349894Y-79436146D01*
X103517389Y-79553427D01*
X103521898Y-79556584D01*
X103526880Y-79558907D01*
X103526885Y-79558910D01*
X103708336Y-79643522D01*
X103717193Y-79647652D01*
X103722501Y-79649074D01*
X103722503Y-79649075D01*
X103920020Y-79701999D01*
X103920022Y-79701999D01*
X103925335Y-79703423D01*
X104140000Y-79722204D01*
X104354665Y-79703423D01*
X104359978Y-79701999D01*
X104359980Y-79701999D01*
X104557497Y-79649075D01*
X104557499Y-79649074D01*
X104562807Y-79647652D01*
X104571664Y-79643522D01*
X104753115Y-79558910D01*
X104753120Y-79558907D01*
X104758102Y-79556584D01*
X104762611Y-79553427D01*
X104930106Y-79436146D01*
X104930109Y-79436144D01*
X104934617Y-79432987D01*
X105086987Y-79280617D01*
X105096049Y-79267676D01*
X105207427Y-79108611D01*
X105207430Y-79108606D01*
X105210584Y-79104102D01*
X105212907Y-79099120D01*
X105212910Y-79099115D01*
X105295805Y-78921346D01*
X105342723Y-78868061D01*
X105411000Y-78848600D01*
X105478960Y-78869142D01*
X105524195Y-78921346D01*
X105607090Y-79099115D01*
X105607093Y-79099120D01*
X105609416Y-79104102D01*
X105612570Y-79108606D01*
X105612573Y-79108611D01*
X105723952Y-79267676D01*
X105733013Y-79280617D01*
X105885383Y-79432987D01*
X105889891Y-79436144D01*
X105889894Y-79436146D01*
X106057389Y-79553427D01*
X106061898Y-79556584D01*
X106066880Y-79558907D01*
X106066885Y-79558910D01*
X106248336Y-79643522D01*
X106257193Y-79647652D01*
X106262501Y-79649074D01*
X106262503Y-79649075D01*
X106460020Y-79701999D01*
X106460022Y-79701999D01*
X106465335Y-79703423D01*
X106680000Y-79722204D01*
X106894665Y-79703423D01*
X106899978Y-79701999D01*
X106899980Y-79701999D01*
X107097497Y-79649075D01*
X107097499Y-79649074D01*
X107102807Y-79647652D01*
X107111664Y-79643522D01*
X107293115Y-79558910D01*
X107293120Y-79558907D01*
X107298102Y-79556584D01*
X107302611Y-79553427D01*
X107470106Y-79436146D01*
X107470109Y-79436144D01*
X107474617Y-79432987D01*
X107626987Y-79280617D01*
X107636049Y-79267676D01*
X107747427Y-79108611D01*
X107747430Y-79108606D01*
X107750584Y-79104102D01*
X107752907Y-79099120D01*
X107752910Y-79099115D01*
X107835805Y-78921346D01*
X107882723Y-78868061D01*
X107951000Y-78848600D01*
X108018960Y-78869142D01*
X108064195Y-78921346D01*
X108147090Y-79099115D01*
X108147093Y-79099120D01*
X108149416Y-79104102D01*
X108152570Y-79108606D01*
X108152573Y-79108611D01*
X108263952Y-79267676D01*
X108273013Y-79280617D01*
X108425383Y-79432987D01*
X108429891Y-79436144D01*
X108429894Y-79436146D01*
X108597389Y-79553427D01*
X108601898Y-79556584D01*
X108606880Y-79558907D01*
X108606885Y-79558910D01*
X108788336Y-79643522D01*
X108797193Y-79647652D01*
X108802501Y-79649074D01*
X108802503Y-79649075D01*
X109000020Y-79701999D01*
X109000022Y-79701999D01*
X109005335Y-79703423D01*
X109220000Y-79722204D01*
X109434665Y-79703423D01*
X109439978Y-79701999D01*
X109439980Y-79701999D01*
X109637497Y-79649075D01*
X109637499Y-79649074D01*
X109642807Y-79647652D01*
X109651664Y-79643522D01*
X109833115Y-79558910D01*
X109833120Y-79558907D01*
X109838102Y-79556584D01*
X109842611Y-79553427D01*
X110010106Y-79436146D01*
X110010109Y-79436144D01*
X110014617Y-79432987D01*
X110166987Y-79280617D01*
X110176049Y-79267676D01*
X110287427Y-79108611D01*
X110287430Y-79108606D01*
X110290584Y-79104102D01*
X110292907Y-79099120D01*
X110292910Y-79099115D01*
X110375805Y-78921346D01*
X110422723Y-78868061D01*
X110491000Y-78848600D01*
X110558960Y-78869142D01*
X110604195Y-78921346D01*
X110687090Y-79099115D01*
X110687093Y-79099120D01*
X110689416Y-79104102D01*
X110692570Y-79108606D01*
X110692573Y-79108611D01*
X110803952Y-79267676D01*
X110813013Y-79280617D01*
X110965383Y-79432987D01*
X110969891Y-79436144D01*
X110969894Y-79436146D01*
X111137389Y-79553427D01*
X111141898Y-79556584D01*
X111146880Y-79558907D01*
X111146885Y-79558910D01*
X111328336Y-79643522D01*
X111337193Y-79647652D01*
X111342501Y-79649074D01*
X111342503Y-79649075D01*
X111540020Y-79701999D01*
X111540022Y-79701999D01*
X111545335Y-79703423D01*
X111760000Y-79722204D01*
X111974665Y-79703423D01*
X111979978Y-79701999D01*
X111979980Y-79701999D01*
X112177497Y-79649075D01*
X112177499Y-79649074D01*
X112182807Y-79647652D01*
X112191664Y-79643522D01*
X112373115Y-79558910D01*
X112373120Y-79558907D01*
X112378102Y-79556584D01*
X112382611Y-79553427D01*
X112550106Y-79436146D01*
X112550109Y-79436144D01*
X112554617Y-79432987D01*
X112706987Y-79280617D01*
X112716049Y-79267676D01*
X112827427Y-79108611D01*
X112827430Y-79108606D01*
X112830584Y-79104102D01*
X112832907Y-79099120D01*
X112832910Y-79099115D01*
X112915805Y-78921346D01*
X112962723Y-78868061D01*
X113031000Y-78848600D01*
X113098960Y-78869142D01*
X113144195Y-78921346D01*
X113227090Y-79099115D01*
X113227093Y-79099120D01*
X113229416Y-79104102D01*
X113232570Y-79108606D01*
X113232573Y-79108611D01*
X113343952Y-79267676D01*
X113353013Y-79280617D01*
X113505383Y-79432987D01*
X113509891Y-79436144D01*
X113509894Y-79436146D01*
X113677389Y-79553427D01*
X113681898Y-79556584D01*
X113686880Y-79558907D01*
X113686885Y-79558910D01*
X113868336Y-79643522D01*
X113877193Y-79647652D01*
X113882501Y-79649074D01*
X113882503Y-79649075D01*
X114080020Y-79701999D01*
X114080022Y-79701999D01*
X114085335Y-79703423D01*
X114300000Y-79722204D01*
X114514665Y-79703423D01*
X114519978Y-79701999D01*
X114519980Y-79701999D01*
X114717497Y-79649075D01*
X114717499Y-79649074D01*
X114722807Y-79647652D01*
X114731664Y-79643522D01*
X114913115Y-79558910D01*
X114913120Y-79558907D01*
X114918102Y-79556584D01*
X114922611Y-79553427D01*
X115090106Y-79436146D01*
X115090109Y-79436144D01*
X115094617Y-79432987D01*
X115246987Y-79280617D01*
X115256049Y-79267676D01*
X115367427Y-79108611D01*
X115367430Y-79108606D01*
X115370584Y-79104102D01*
X115372907Y-79099120D01*
X115372910Y-79099115D01*
X115455805Y-78921346D01*
X115502723Y-78868061D01*
X115571000Y-78848600D01*
X115638960Y-78869142D01*
X115684195Y-78921346D01*
X115767090Y-79099115D01*
X115767093Y-79099120D01*
X115769416Y-79104102D01*
X115772570Y-79108606D01*
X115772573Y-79108611D01*
X115883952Y-79267676D01*
X115893013Y-79280617D01*
X116045383Y-79432987D01*
X116049891Y-79436144D01*
X116049894Y-79436146D01*
X116217389Y-79553427D01*
X116221898Y-79556584D01*
X116226880Y-79558907D01*
X116226885Y-79558910D01*
X116408336Y-79643522D01*
X116417193Y-79647652D01*
X116422501Y-79649074D01*
X116422503Y-79649075D01*
X116620020Y-79701999D01*
X116620022Y-79701999D01*
X116625335Y-79703423D01*
X116840000Y-79722204D01*
X117054665Y-79703423D01*
X117059978Y-79701999D01*
X117059980Y-79701999D01*
X117257497Y-79649075D01*
X117257499Y-79649074D01*
X117262807Y-79647652D01*
X117271664Y-79643522D01*
X117453115Y-79558910D01*
X117453120Y-79558907D01*
X117458102Y-79556584D01*
X117462611Y-79553427D01*
X117630106Y-79436146D01*
X117630109Y-79436144D01*
X117634617Y-79432987D01*
X117786987Y-79280617D01*
X117796049Y-79267676D01*
X117907427Y-79108611D01*
X117907430Y-79108606D01*
X117910584Y-79104102D01*
X117912907Y-79099120D01*
X117912910Y-79099115D01*
X117995805Y-78921346D01*
X118042723Y-78868061D01*
X118111000Y-78848600D01*
X118178960Y-78869142D01*
X118224195Y-78921346D01*
X118307090Y-79099115D01*
X118307093Y-79099120D01*
X118309416Y-79104102D01*
X118312570Y-79108606D01*
X118312573Y-79108611D01*
X118423952Y-79267676D01*
X118433013Y-79280617D01*
X118585383Y-79432987D01*
X118589891Y-79436144D01*
X118589894Y-79436146D01*
X118757389Y-79553427D01*
X118761898Y-79556584D01*
X118766880Y-79558907D01*
X118766885Y-79558910D01*
X118948336Y-79643522D01*
X118957193Y-79647652D01*
X118962501Y-79649074D01*
X118962503Y-79649075D01*
X119160020Y-79701999D01*
X119160022Y-79701999D01*
X119165335Y-79703423D01*
X119380000Y-79722204D01*
X119594665Y-79703423D01*
X119599978Y-79701999D01*
X119599980Y-79701999D01*
X119797497Y-79649075D01*
X119797499Y-79649074D01*
X119802807Y-79647652D01*
X119811664Y-79643522D01*
X119993115Y-79558910D01*
X119993120Y-79558907D01*
X119998102Y-79556584D01*
X120002611Y-79553427D01*
X120170106Y-79436146D01*
X120170109Y-79436144D01*
X120174617Y-79432987D01*
X120326987Y-79280617D01*
X120336049Y-79267676D01*
X120447427Y-79108611D01*
X120447430Y-79108606D01*
X120450584Y-79104102D01*
X120452907Y-79099120D01*
X120452910Y-79099115D01*
X120535805Y-78921346D01*
X120582723Y-78868061D01*
X120651000Y-78848600D01*
X120718960Y-78869142D01*
X120764195Y-78921346D01*
X120847090Y-79099115D01*
X120847093Y-79099120D01*
X120849416Y-79104102D01*
X120852570Y-79108606D01*
X120852573Y-79108611D01*
X120963952Y-79267676D01*
X120973013Y-79280617D01*
X121125383Y-79432987D01*
X121129891Y-79436144D01*
X121129894Y-79436146D01*
X121297389Y-79553427D01*
X121301898Y-79556584D01*
X121306880Y-79558907D01*
X121306885Y-79558910D01*
X121488336Y-79643522D01*
X121497193Y-79647652D01*
X121502501Y-79649074D01*
X121502503Y-79649075D01*
X121700020Y-79701999D01*
X121700022Y-79701999D01*
X121705335Y-79703423D01*
X121920000Y-79722204D01*
X122134665Y-79703423D01*
X122139978Y-79701999D01*
X122139980Y-79701999D01*
X122337497Y-79649075D01*
X122337499Y-79649074D01*
X122342807Y-79647652D01*
X122351664Y-79643522D01*
X122533115Y-79558910D01*
X122533120Y-79558907D01*
X122538102Y-79556584D01*
X122542611Y-79553427D01*
X122710106Y-79436146D01*
X122710109Y-79436144D01*
X122714617Y-79432987D01*
X122866987Y-79280617D01*
X122876049Y-79267676D01*
X122987427Y-79108611D01*
X122987430Y-79108606D01*
X122990584Y-79104102D01*
X122992907Y-79099120D01*
X122992910Y-79099115D01*
X123075805Y-78921346D01*
X123122723Y-78868061D01*
X123191000Y-78848600D01*
X123258960Y-78869142D01*
X123304195Y-78921346D01*
X123387090Y-79099115D01*
X123387093Y-79099120D01*
X123389416Y-79104102D01*
X123392570Y-79108606D01*
X123392573Y-79108611D01*
X123503952Y-79267676D01*
X123513013Y-79280617D01*
X123665383Y-79432987D01*
X123669891Y-79436144D01*
X123669894Y-79436146D01*
X123837389Y-79553427D01*
X123841898Y-79556584D01*
X123846880Y-79558907D01*
X123846885Y-79558910D01*
X124028336Y-79643522D01*
X124037193Y-79647652D01*
X124042501Y-79649074D01*
X124042503Y-79649075D01*
X124240020Y-79701999D01*
X124240022Y-79701999D01*
X124245335Y-79703423D01*
X124460000Y-79722204D01*
X124674665Y-79703423D01*
X124679978Y-79701999D01*
X124679980Y-79701999D01*
X124877497Y-79649075D01*
X124877499Y-79649074D01*
X124882807Y-79647652D01*
X124891664Y-79643522D01*
X125073115Y-79558910D01*
X125073120Y-79558907D01*
X125078102Y-79556584D01*
X125082611Y-79553427D01*
X125250106Y-79436146D01*
X125250109Y-79436144D01*
X125254617Y-79432987D01*
X125406987Y-79280617D01*
X125416049Y-79267676D01*
X125527427Y-79108611D01*
X125527430Y-79108606D01*
X125530584Y-79104102D01*
X125532907Y-79099120D01*
X125532910Y-79099115D01*
X125619329Y-78913789D01*
X125619330Y-78913787D01*
X125621652Y-78908807D01*
X125638541Y-78845778D01*
X125675999Y-78705980D01*
X125675999Y-78705978D01*
X125677423Y-78700665D01*
X125696204Y-78486000D01*
X125677423Y-78271335D01*
X125675999Y-78266020D01*
X125623075Y-78068503D01*
X125623074Y-78068501D01*
X125621652Y-78063193D01*
X125609590Y-78037326D01*
X125532910Y-77872885D01*
X125532907Y-77872880D01*
X125530584Y-77867898D01*
X125519390Y-77851911D01*
X125410146Y-77695894D01*
X125410144Y-77695891D01*
X125406987Y-77691383D01*
X125254617Y-77539013D01*
X125250109Y-77535856D01*
X125250106Y-77535854D01*
X125082611Y-77418573D01*
X125082609Y-77418572D01*
X125078102Y-77415416D01*
X125062558Y-77408168D01*
X125045134Y-77400042D01*
X124991850Y-77353124D01*
X124972390Y-77284846D01*
X124992933Y-77216887D01*
X125042954Y-77172696D01*
X125153100Y-77118736D01*
X125161945Y-77113464D01*
X125335328Y-76989792D01*
X125343200Y-76983139D01*
X125494052Y-76832812D01*
X125500730Y-76824965D01*
X125625003Y-76652020D01*
X125630313Y-76643183D01*
X125724670Y-76452267D01*
X125728469Y-76442672D01*
X125790377Y-76238910D01*
X125792555Y-76228837D01*
X125793986Y-76217962D01*
X125791775Y-76203778D01*
X125778617Y-76200000D01*
X124332000Y-76200000D01*
X124263879Y-76179998D01*
X124217386Y-76126342D01*
X124206000Y-76074000D01*
X124206000Y-75673885D01*
X124714000Y-75673885D01*
X124718475Y-75689124D01*
X124719865Y-75690329D01*
X124727548Y-75692000D01*
X125778344Y-75692000D01*
X125791875Y-75688027D01*
X125793180Y-75678947D01*
X125751214Y-75511875D01*
X125747894Y-75502124D01*
X125662972Y-75306814D01*
X125658105Y-75297739D01*
X125542426Y-75118926D01*
X125536136Y-75110757D01*
X125392806Y-74953240D01*
X125385273Y-74946215D01*
X125218139Y-74814222D01*
X125209552Y-74808517D01*
X125023117Y-74705599D01*
X125013705Y-74701369D01*
X124812959Y-74630280D01*
X124802988Y-74627646D01*
X124731837Y-74614972D01*
X124718540Y-74616432D01*
X124714000Y-74630989D01*
X124714000Y-75673885D01*
X124206000Y-75673885D01*
X124206000Y-74629102D01*
X124202082Y-74615758D01*
X124187806Y-74613771D01*
X124149324Y-74619660D01*
X124139288Y-74622051D01*
X123936868Y-74688212D01*
X123927359Y-74692209D01*
X123738463Y-74790542D01*
X123729738Y-74796036D01*
X123559433Y-74923905D01*
X123551726Y-74930748D01*
X123404590Y-75084717D01*
X123398104Y-75092727D01*
X123278098Y-75268649D01*
X123272996Y-75277629D01*
X123234445Y-75360680D01*
X123187621Y-75414047D01*
X123119378Y-75433627D01*
X123051382Y-75413203D01*
X123005963Y-75360878D01*
X122992912Y-75332889D01*
X122992909Y-75332883D01*
X122990584Y-75327898D01*
X122975821Y-75306814D01*
X122870146Y-75155894D01*
X122870144Y-75155891D01*
X122866987Y-75151383D01*
X122714617Y-74999013D01*
X122710109Y-74995856D01*
X122710106Y-74995854D01*
X122542611Y-74878573D01*
X122542609Y-74878572D01*
X122538102Y-74875416D01*
X122533120Y-74873093D01*
X122533115Y-74873090D01*
X122347789Y-74786671D01*
X122347787Y-74786670D01*
X122342807Y-74784348D01*
X122337499Y-74782926D01*
X122337497Y-74782925D01*
X122139980Y-74730001D01*
X122139978Y-74730001D01*
X122134665Y-74728577D01*
X121920000Y-74709796D01*
X121705335Y-74728577D01*
X121700022Y-74730001D01*
X121700020Y-74730001D01*
X121502503Y-74782925D01*
X121502501Y-74782926D01*
X121497193Y-74784348D01*
X121492213Y-74786670D01*
X121492211Y-74786671D01*
X121306885Y-74873090D01*
X121306880Y-74873093D01*
X121301898Y-74875416D01*
X121297391Y-74878572D01*
X121297389Y-74878573D01*
X121129894Y-74995854D01*
X121129891Y-74995856D01*
X121125383Y-74999013D01*
X120973013Y-75151383D01*
X120969856Y-75155891D01*
X120969854Y-75155894D01*
X120864179Y-75306814D01*
X120849416Y-75327898D01*
X120847093Y-75332880D01*
X120847090Y-75332885D01*
X120764195Y-75510654D01*
X120717277Y-75563939D01*
X120649000Y-75583400D01*
X120581040Y-75562858D01*
X120535805Y-75510654D01*
X120452910Y-75332885D01*
X120452907Y-75332880D01*
X120450584Y-75327898D01*
X120435821Y-75306814D01*
X120330146Y-75155894D01*
X120330144Y-75155891D01*
X120326987Y-75151383D01*
X120174617Y-74999013D01*
X120170109Y-74995856D01*
X120170106Y-74995854D01*
X120002611Y-74878573D01*
X120002609Y-74878572D01*
X119998102Y-74875416D01*
X119993120Y-74873093D01*
X119993115Y-74873090D01*
X119807789Y-74786671D01*
X119807787Y-74786670D01*
X119802807Y-74784348D01*
X119797499Y-74782926D01*
X119797497Y-74782925D01*
X119599980Y-74730001D01*
X119599978Y-74730001D01*
X119594665Y-74728577D01*
X119380000Y-74709796D01*
X119165335Y-74728577D01*
X119160022Y-74730001D01*
X119160020Y-74730001D01*
X118962503Y-74782925D01*
X118962501Y-74782926D01*
X118957193Y-74784348D01*
X118952213Y-74786670D01*
X118952211Y-74786671D01*
X118766885Y-74873090D01*
X118766880Y-74873093D01*
X118761898Y-74875416D01*
X118757391Y-74878572D01*
X118757389Y-74878573D01*
X118589894Y-74995854D01*
X118589891Y-74995856D01*
X118585383Y-74999013D01*
X118433013Y-75151383D01*
X118429856Y-75155891D01*
X118429854Y-75155894D01*
X118324179Y-75306814D01*
X118309416Y-75327898D01*
X118307093Y-75332880D01*
X118307090Y-75332885D01*
X118224195Y-75510654D01*
X118177277Y-75563939D01*
X118109000Y-75583400D01*
X118041040Y-75562858D01*
X117995805Y-75510654D01*
X117912910Y-75332885D01*
X117912907Y-75332880D01*
X117910584Y-75327898D01*
X117895821Y-75306814D01*
X117790146Y-75155894D01*
X117790144Y-75155891D01*
X117786987Y-75151383D01*
X117634617Y-74999013D01*
X117630109Y-74995856D01*
X117630106Y-74995854D01*
X117462611Y-74878573D01*
X117462609Y-74878572D01*
X117458102Y-74875416D01*
X117453120Y-74873093D01*
X117453115Y-74873090D01*
X117267789Y-74786671D01*
X117267787Y-74786670D01*
X117262807Y-74784348D01*
X117257499Y-74782926D01*
X117257497Y-74782925D01*
X117059980Y-74730001D01*
X117059978Y-74730001D01*
X117054665Y-74728577D01*
X116840000Y-74709796D01*
X116625335Y-74728577D01*
X116620022Y-74730001D01*
X116620020Y-74730001D01*
X116598278Y-74735827D01*
X116548458Y-74749176D01*
X116477483Y-74747486D01*
X116418687Y-74707692D01*
X116390739Y-74642428D01*
X116402512Y-74572414D01*
X116426753Y-74538374D01*
X116886711Y-74078416D01*
X116949023Y-74044390D01*
X116975806Y-74041511D01*
X121340917Y-74041511D01*
X121353047Y-74042866D01*
X121353086Y-74042384D01*
X121362033Y-74043104D01*
X121370789Y-74045085D01*
X121424497Y-74041753D01*
X121432299Y-74041511D01*
X121448502Y-74041511D01*
X121457418Y-74040234D01*
X121458867Y-74040027D01*
X121468917Y-74038998D01*
X121507205Y-74036622D01*
X121516166Y-74036066D01*
X121524612Y-74033017D01*
X121527503Y-74032418D01*
X121544469Y-74028189D01*
X121547294Y-74027363D01*
X121556176Y-74026091D01*
X121599287Y-74006489D01*
X121608638Y-74002683D01*
X121644724Y-73989656D01*
X121653170Y-73986607D01*
X121660418Y-73981312D01*
X121663016Y-73979931D01*
X121678134Y-73971096D01*
X121680603Y-73969517D01*
X121688771Y-73965803D01*
X121724642Y-73934895D01*
X121732558Y-73928610D01*
X121739604Y-73923463D01*
X121739609Y-73923458D01*
X121743541Y-73920586D01*
X121754516Y-73909611D01*
X121761364Y-73903253D01*
X121792312Y-73876587D01*
X121792313Y-73876586D01*
X121799116Y-73870724D01*
X121804000Y-73863189D01*
X121809447Y-73856945D01*
X121819047Y-73845080D01*
X125522722Y-70141405D01*
X125585034Y-70107379D01*
X125611817Y-70104500D01*
X125961581Y-70104500D01*
X126029702Y-70124502D01*
X126055236Y-70146210D01*
X126055686Y-70146710D01*
X126086389Y-70210725D01*
X126077609Y-70281176D01*
X126055667Y-70315310D01*
X126028923Y-70345013D01*
X126025623Y-70350729D01*
X126025620Y-70350733D01*
X125976392Y-70436000D01*
X125936274Y-70505487D01*
X125879013Y-70681716D01*
X125878324Y-70688273D01*
X125878323Y-70688277D01*
X125863871Y-70825782D01*
X125859644Y-70866000D01*
X125860334Y-70872565D01*
X125877375Y-71034695D01*
X125879013Y-71050284D01*
X125881052Y-71056558D01*
X125881052Y-71056560D01*
X125931702Y-71212443D01*
X125936274Y-71226513D01*
X125939577Y-71232234D01*
X126025620Y-71381267D01*
X126025623Y-71381271D01*
X126028923Y-71386987D01*
X126033341Y-71391894D01*
X126033342Y-71391895D01*
X126055667Y-71416689D01*
X126086384Y-71480697D01*
X126077621Y-71551150D01*
X126055667Y-71585310D01*
X126028923Y-71615013D01*
X126025623Y-71620729D01*
X126025620Y-71620733D01*
X125974674Y-71708975D01*
X125936274Y-71775487D01*
X125934234Y-71781767D01*
X125934233Y-71781768D01*
X125933456Y-71784161D01*
X125879013Y-71951716D01*
X125878324Y-71958273D01*
X125878323Y-71958277D01*
X125864463Y-72090149D01*
X125859644Y-72136000D01*
X125860334Y-72142565D01*
X125877327Y-72304239D01*
X125879013Y-72320284D01*
X125881052Y-72326558D01*
X125881052Y-72326560D01*
X125923726Y-72457896D01*
X125936274Y-72496513D01*
X126028923Y-72656987D01*
X126152912Y-72794691D01*
X126158254Y-72798572D01*
X126158256Y-72798574D01*
X126289482Y-72893915D01*
X126302822Y-72903607D01*
X126308850Y-72906291D01*
X126308852Y-72906292D01*
X126437860Y-72963730D01*
X126472101Y-72978975D01*
X126478550Y-72980346D01*
X126478554Y-72980347D01*
X126569817Y-72999745D01*
X126653351Y-73017500D01*
X126838649Y-73017500D01*
X126922183Y-72999745D01*
X127013446Y-72980347D01*
X127013450Y-72980346D01*
X127019899Y-72978975D01*
X127054140Y-72963730D01*
X127183148Y-72906292D01*
X127183150Y-72906291D01*
X127189178Y-72903607D01*
X127202518Y-72893915D01*
X127269386Y-72870056D01*
X127338538Y-72886137D01*
X127358242Y-72899897D01*
X127433245Y-72963730D01*
X127443317Y-72970730D01*
X127605116Y-73061156D01*
X127616356Y-73066067D01*
X127744768Y-73107790D01*
X127758867Y-73108193D01*
X127762000Y-73101821D01*
X127762000Y-72008000D01*
X127782002Y-71939879D01*
X127835658Y-71893386D01*
X127888000Y-71882000D01*
X128144000Y-71882000D01*
X128212121Y-71902002D01*
X128258614Y-71955658D01*
X128270000Y-72008000D01*
X128270000Y-73093564D01*
X128273973Y-73107095D01*
X128282188Y-73108276D01*
X128376337Y-73081989D01*
X128387787Y-73077548D01*
X128553226Y-72993979D01*
X128563585Y-72987404D01*
X128709639Y-72873295D01*
X128718527Y-72864831D01*
X128839643Y-72724517D01*
X128846711Y-72714497D01*
X128926683Y-72573720D01*
X128977722Y-72524370D01*
X129047340Y-72510447D01*
X129113434Y-72536373D01*
X129155018Y-72593916D01*
X129162239Y-72635957D01*
X129162239Y-78195801D01*
X129160687Y-78215512D01*
X129157484Y-78235734D01*
X129159035Y-78245528D01*
X129159035Y-78247553D01*
X129160238Y-78271355D01*
X129145866Y-78527220D01*
X129144284Y-78541261D01*
X129096561Y-78822123D01*
X129093420Y-78835881D01*
X129052335Y-78978485D01*
X129014555Y-79109616D01*
X129009888Y-79122952D01*
X128900867Y-79386147D01*
X128894737Y-79398877D01*
X128756939Y-79648203D01*
X128749421Y-79660167D01*
X128584578Y-79892489D01*
X128575769Y-79903536D01*
X128385943Y-80115952D01*
X128375952Y-80125943D01*
X128163536Y-80315769D01*
X128152489Y-80324578D01*
X127920167Y-80489421D01*
X127908203Y-80496939D01*
X127658877Y-80634737D01*
X127646147Y-80640867D01*
X127382952Y-80749888D01*
X127369616Y-80754555D01*
X127279834Y-80780422D01*
X127095881Y-80833420D01*
X127082123Y-80836561D01*
X126813308Y-80882237D01*
X126801261Y-80884284D01*
X126787221Y-80885866D01*
X126717671Y-80889773D01*
X126531355Y-80900238D01*
X126507553Y-80899035D01*
X126505528Y-80899035D01*
X126495734Y-80897484D01*
X126475512Y-80900687D01*
X126455801Y-80902239D01*
X81720688Y-80902239D01*
X81652567Y-80882237D01*
X81606074Y-80828581D01*
X81595970Y-80758307D01*
X81625464Y-80693727D01*
X81641736Y-80678042D01*
X81782673Y-80564726D01*
X81791432Y-80556148D01*
X81910578Y-80414155D01*
X81917508Y-80404035D01*
X82006802Y-80241609D01*
X82011634Y-80230336D01*
X82067680Y-80053656D01*
X82070230Y-80041662D01*
X82086407Y-79897433D01*
X82086800Y-79890409D01*
X82086800Y-79809309D01*
X82082325Y-79794070D01*
X82080935Y-79792865D01*
X82073252Y-79791194D01*
X80088915Y-79791194D01*
X80073676Y-79795669D01*
X80072471Y-79797059D01*
X80070800Y-79804742D01*
X80070800Y-79883851D01*
X80071101Y-79889999D01*
X80084612Y-80027797D01*
X80086995Y-80039832D01*
X80140567Y-80217270D01*
X80145241Y-80228610D01*
X80232260Y-80392271D01*
X80239049Y-80402488D01*
X80356197Y-80546127D01*
X80364841Y-80554831D01*
X80512406Y-80676907D01*
X80511268Y-80678282D01*
X80551172Y-80726460D01*
X80559710Y-80796942D01*
X80528787Y-80860850D01*
X80468221Y-80897895D01*
X80435422Y-80902239D01*
X73080688Y-80902239D01*
X73012567Y-80882237D01*
X72966074Y-80828581D01*
X72955970Y-80758307D01*
X72985464Y-80693727D01*
X73001736Y-80678042D01*
X73142673Y-80564726D01*
X73151432Y-80556148D01*
X73270578Y-80414155D01*
X73277508Y-80404035D01*
X73366802Y-80241609D01*
X73371634Y-80230336D01*
X73427680Y-80053656D01*
X73430230Y-80041662D01*
X73446407Y-79897433D01*
X73446800Y-79890409D01*
X73446800Y-79809309D01*
X73442325Y-79794070D01*
X73440935Y-79792865D01*
X73433252Y-79791194D01*
X71448915Y-79791194D01*
X71433676Y-79795669D01*
X71432471Y-79797059D01*
X71430800Y-79804742D01*
X71430800Y-79883851D01*
X71431101Y-79889999D01*
X71444612Y-80027797D01*
X71446995Y-80039832D01*
X71500567Y-80217270D01*
X71505241Y-80228610D01*
X71592260Y-80392271D01*
X71599049Y-80402488D01*
X71716197Y-80546127D01*
X71724841Y-80554831D01*
X71872406Y-80676907D01*
X71871268Y-80678282D01*
X71911172Y-80726460D01*
X71919710Y-80796942D01*
X71888787Y-80860850D01*
X71828221Y-80897895D01*
X71795422Y-80902239D01*
X56424199Y-80902239D01*
X56404488Y-80900687D01*
X56384266Y-80897484D01*
X56374472Y-80899035D01*
X56372447Y-80899035D01*
X56348645Y-80900238D01*
X56162329Y-80889773D01*
X56092779Y-80885866D01*
X56078739Y-80884284D01*
X56066692Y-80882237D01*
X55797877Y-80836561D01*
X55784119Y-80833420D01*
X55600166Y-80780422D01*
X55510384Y-80754555D01*
X55497048Y-80749888D01*
X55233853Y-80640867D01*
X55221123Y-80634737D01*
X54971797Y-80496939D01*
X54959833Y-80489421D01*
X54727511Y-80324578D01*
X54716464Y-80315769D01*
X54504048Y-80125943D01*
X54494057Y-80115952D01*
X54304231Y-79903536D01*
X54295422Y-79892489D01*
X54130579Y-79660167D01*
X54123061Y-79648203D01*
X53985263Y-79398877D01*
X53979133Y-79386147D01*
X53870112Y-79122952D01*
X53865445Y-79109616D01*
X53827665Y-78978485D01*
X53786580Y-78835881D01*
X53783439Y-78822123D01*
X53782690Y-78817714D01*
X61670875Y-78817714D01*
X61672925Y-78835430D01*
X61674885Y-78845327D01*
X61738204Y-79069094D01*
X61741716Y-79078538D01*
X61839999Y-79289305D01*
X61844978Y-79298071D01*
X61975687Y-79490402D01*
X61982019Y-79498277D01*
X62141786Y-79667226D01*
X62149295Y-79673987D01*
X62334026Y-79815225D01*
X62342505Y-79820689D01*
X62547447Y-79930578D01*
X62556699Y-79934620D01*
X62776571Y-80010327D01*
X62786343Y-80012836D01*
X63016571Y-80052604D01*
X63024443Y-80053459D01*
X63048151Y-80054536D01*
X63050984Y-80054600D01*
X63985485Y-80054600D01*
X64000724Y-80050125D01*
X64001929Y-80048735D01*
X64003600Y-80041052D01*
X64003600Y-80036485D01*
X64511600Y-80036485D01*
X64516075Y-80051724D01*
X64517465Y-80052929D01*
X64525148Y-80054600D01*
X65416056Y-80054600D01*
X65421088Y-80054398D01*
X65594443Y-80040450D01*
X65604396Y-80038838D01*
X65830233Y-79983367D01*
X65839803Y-79980184D01*
X66053865Y-79889320D01*
X66062807Y-79884645D01*
X66259587Y-79760726D01*
X66267660Y-79754686D01*
X66442100Y-79600897D01*
X66449104Y-79593644D01*
X66596710Y-79413946D01*
X66602466Y-79405664D01*
X66684288Y-79265079D01*
X71430800Y-79265079D01*
X71435275Y-79280318D01*
X71436665Y-79281523D01*
X71444348Y-79283194D01*
X72166685Y-79283194D01*
X72181924Y-79278719D01*
X72183129Y-79277329D01*
X72184800Y-79269646D01*
X72184800Y-79265079D01*
X72692800Y-79265079D01*
X72697275Y-79280318D01*
X72698665Y-79281523D01*
X72706348Y-79283194D01*
X73428685Y-79283194D01*
X73443924Y-79278719D01*
X73445129Y-79277329D01*
X73446800Y-79269646D01*
X73446800Y-79265079D01*
X80070800Y-79265079D01*
X80075275Y-79280318D01*
X80076665Y-79281523D01*
X80084348Y-79283194D01*
X80806685Y-79283194D01*
X80821924Y-79278719D01*
X80823129Y-79277329D01*
X80824800Y-79269646D01*
X80824800Y-79265079D01*
X81332800Y-79265079D01*
X81337275Y-79280318D01*
X81338665Y-79281523D01*
X81346348Y-79283194D01*
X82068685Y-79283194D01*
X82083924Y-79278719D01*
X82085129Y-79277329D01*
X82086800Y-79269646D01*
X82086800Y-79190537D01*
X82086499Y-79184389D01*
X82072988Y-79046591D01*
X82070605Y-79034556D01*
X82017033Y-78857118D01*
X82012359Y-78845778D01*
X81925340Y-78682117D01*
X81918551Y-78671900D01*
X81801403Y-78528261D01*
X81792759Y-78519557D01*
X81649944Y-78401410D01*
X81639773Y-78394550D01*
X81476724Y-78306390D01*
X81465419Y-78301638D01*
X81350108Y-78265944D01*
X81336005Y-78265738D01*
X81332800Y-78272493D01*
X81332800Y-79265079D01*
X80824800Y-79265079D01*
X80824800Y-78279270D01*
X80820827Y-78265739D01*
X80813032Y-78264619D01*
X80705279Y-78296332D01*
X80693911Y-78300925D01*
X80529646Y-78386801D01*
X80519385Y-78393515D01*
X80374927Y-78509662D01*
X80366168Y-78518240D01*
X80247022Y-78660233D01*
X80240092Y-78670353D01*
X80150798Y-78832779D01*
X80145966Y-78844052D01*
X80089920Y-79020732D01*
X80087370Y-79032726D01*
X80071193Y-79176955D01*
X80070800Y-79183979D01*
X80070800Y-79265079D01*
X73446800Y-79265079D01*
X73446800Y-79190537D01*
X73446499Y-79184389D01*
X73432988Y-79046591D01*
X73430605Y-79034556D01*
X73377033Y-78857118D01*
X73372359Y-78845778D01*
X73285340Y-78682117D01*
X73278551Y-78671900D01*
X73161403Y-78528261D01*
X73152759Y-78519557D01*
X73009944Y-78401410D01*
X72999773Y-78394550D01*
X72836724Y-78306390D01*
X72825419Y-78301638D01*
X72710108Y-78265944D01*
X72696005Y-78265738D01*
X72692800Y-78272493D01*
X72692800Y-79265079D01*
X72184800Y-79265079D01*
X72184800Y-78279270D01*
X72180827Y-78265739D01*
X72173032Y-78264619D01*
X72065279Y-78296332D01*
X72053911Y-78300925D01*
X71889646Y-78386801D01*
X71879385Y-78393515D01*
X71734927Y-78509662D01*
X71726168Y-78518240D01*
X71607022Y-78660233D01*
X71600092Y-78670353D01*
X71510798Y-78832779D01*
X71505966Y-78844052D01*
X71449920Y-79020732D01*
X71447370Y-79032726D01*
X71431193Y-79176955D01*
X71430800Y-79183979D01*
X71430800Y-79265079D01*
X66684288Y-79265079D01*
X66719441Y-79204681D01*
X66723803Y-79195576D01*
X66807137Y-78978485D01*
X66809988Y-78968796D01*
X66841421Y-78818336D01*
X66840298Y-78804275D01*
X66830190Y-78800600D01*
X64529715Y-78800600D01*
X64514476Y-78805075D01*
X64513271Y-78806465D01*
X64511600Y-78814148D01*
X64511600Y-80036485D01*
X64003600Y-80036485D01*
X64003600Y-78818715D01*
X63999125Y-78803476D01*
X63997735Y-78802271D01*
X63990052Y-78800600D01*
X61687010Y-78800600D01*
X61672924Y-78804736D01*
X61670875Y-78817714D01*
X53782690Y-78817714D01*
X53735716Y-78541261D01*
X53734134Y-78527220D01*
X53719959Y-78274864D01*
X61673779Y-78274864D01*
X61674902Y-78288925D01*
X61685010Y-78292600D01*
X63985485Y-78292600D01*
X64000724Y-78288125D01*
X64001929Y-78286735D01*
X64003600Y-78279052D01*
X64003600Y-78274485D01*
X64511600Y-78274485D01*
X64516075Y-78289724D01*
X64517465Y-78290929D01*
X64525148Y-78292600D01*
X66828190Y-78292600D01*
X66842276Y-78288464D01*
X66844325Y-78275486D01*
X66842275Y-78257770D01*
X66840315Y-78247873D01*
X66776996Y-78024106D01*
X66773484Y-78014662D01*
X66675201Y-77803895D01*
X66670222Y-77795129D01*
X66539513Y-77602798D01*
X66533181Y-77594923D01*
X66373414Y-77425974D01*
X66365905Y-77419213D01*
X66181174Y-77277975D01*
X66172695Y-77272511D01*
X65967753Y-77162622D01*
X65958501Y-77158580D01*
X65738629Y-77082873D01*
X65728857Y-77080364D01*
X65498629Y-77040596D01*
X65490757Y-77039741D01*
X65467049Y-77038664D01*
X65464216Y-77038600D01*
X64529715Y-77038600D01*
X64514476Y-77043075D01*
X64513271Y-77044465D01*
X64511600Y-77052148D01*
X64511600Y-78274485D01*
X64003600Y-78274485D01*
X64003600Y-77056715D01*
X63999125Y-77041476D01*
X63997735Y-77040271D01*
X63990052Y-77038600D01*
X63099144Y-77038600D01*
X63094112Y-77038802D01*
X62920757Y-77052750D01*
X62910804Y-77054362D01*
X62684967Y-77109833D01*
X62675397Y-77113016D01*
X62461335Y-77203880D01*
X62452393Y-77208555D01*
X62255613Y-77332474D01*
X62247540Y-77338514D01*
X62073100Y-77492303D01*
X62066096Y-77499556D01*
X61918490Y-77679254D01*
X61912734Y-77687536D01*
X61795759Y-77888519D01*
X61791397Y-77897624D01*
X61708063Y-78114715D01*
X61705212Y-78124404D01*
X61673779Y-78274864D01*
X53719959Y-78274864D01*
X53719762Y-78271355D01*
X53720965Y-78247553D01*
X53720965Y-78245528D01*
X53722516Y-78235734D01*
X53719313Y-78215512D01*
X53717761Y-78195801D01*
X53717761Y-74905056D01*
X59349600Y-74905056D01*
X59349802Y-74910088D01*
X59363750Y-75083443D01*
X59365362Y-75093396D01*
X59420833Y-75319233D01*
X59424016Y-75328803D01*
X59514880Y-75542865D01*
X59519555Y-75551807D01*
X59643474Y-75748587D01*
X59649514Y-75756660D01*
X59803303Y-75931100D01*
X59810556Y-75938104D01*
X59990254Y-76085710D01*
X59998536Y-76091466D01*
X60199519Y-76208441D01*
X60208624Y-76212803D01*
X60425715Y-76296137D01*
X60435404Y-76298988D01*
X60585864Y-76330421D01*
X60599925Y-76329298D01*
X60603600Y-76319190D01*
X60603600Y-76317190D01*
X61111600Y-76317190D01*
X61115736Y-76331276D01*
X61128714Y-76333325D01*
X61146430Y-76331275D01*
X61156327Y-76329315D01*
X61380094Y-76265996D01*
X61389538Y-76262484D01*
X61600305Y-76164201D01*
X61609071Y-76159222D01*
X61721584Y-76082758D01*
X65776100Y-76082758D01*
X65776770Y-76087306D01*
X65776770Y-76087313D01*
X65785712Y-76148059D01*
X65787138Y-76157744D01*
X65791453Y-76166532D01*
X65791453Y-76166533D01*
X65826989Y-76238910D01*
X65843113Y-76271751D01*
X65888315Y-76316874D01*
X65899522Y-76328061D01*
X65932999Y-76361480D01*
X65942355Y-76366053D01*
X65942356Y-76366054D01*
X65973641Y-76381346D01*
X66047103Y-76417255D01*
X66068997Y-76420449D01*
X66116916Y-76427440D01*
X66116920Y-76427440D01*
X66121442Y-76428100D01*
X68193758Y-76428100D01*
X68198306Y-76427430D01*
X68198313Y-76427430D01*
X68259059Y-76418488D01*
X68259061Y-76418487D01*
X68268744Y-76417062D01*
X68277533Y-76412747D01*
X68373403Y-76365677D01*
X68373404Y-76365676D01*
X68382751Y-76361087D01*
X68472480Y-76271201D01*
X68528255Y-76157097D01*
X68537830Y-76091466D01*
X68538440Y-76087284D01*
X68538440Y-76087280D01*
X68539100Y-76082758D01*
X68539100Y-75953851D01*
X71430800Y-75953851D01*
X71431101Y-75959999D01*
X71444612Y-76097797D01*
X71446995Y-76109832D01*
X71500567Y-76287270D01*
X71505241Y-76298610D01*
X71592260Y-76462271D01*
X71599049Y-76472488D01*
X71716197Y-76616127D01*
X71724841Y-76624831D01*
X71867656Y-76742978D01*
X71877827Y-76749838D01*
X72040876Y-76837998D01*
X72052181Y-76842750D01*
X72167492Y-76878444D01*
X72181595Y-76878650D01*
X72184800Y-76871895D01*
X72184800Y-76865118D01*
X72692800Y-76865118D01*
X72696773Y-76878649D01*
X72704568Y-76879769D01*
X72812321Y-76848056D01*
X72823689Y-76843463D01*
X72987954Y-76757587D01*
X72998215Y-76750873D01*
X73142673Y-76634726D01*
X73151432Y-76626148D01*
X73274538Y-76479436D01*
X73275806Y-76480500D01*
X73324614Y-76440642D01*
X73395153Y-76432594D01*
X73446037Y-76453647D01*
X73532491Y-76514408D01*
X73612150Y-76545466D01*
X73684730Y-76573764D01*
X73684733Y-76573765D01*
X73691810Y-76576524D01*
X73699343Y-76577516D01*
X73699344Y-76577516D01*
X73818142Y-76593156D01*
X73822229Y-76593694D01*
X73911681Y-76593694D01*
X74038562Y-76578340D01*
X74198523Y-76517895D01*
X74264591Y-76472488D01*
X74333189Y-76425342D01*
X74333191Y-76425341D01*
X74339448Y-76421040D01*
X74346837Y-76412747D01*
X74448150Y-76299037D01*
X74448152Y-76299034D01*
X74453203Y-76293365D01*
X74460752Y-76279108D01*
X74529665Y-76148954D01*
X74529666Y-76148952D01*
X74533219Y-76142241D01*
X74541360Y-76109832D01*
X74573026Y-75983762D01*
X74573026Y-75983760D01*
X74574877Y-75976392D01*
X74574916Y-75968994D01*
X78941828Y-75968994D01*
X78943600Y-75976373D01*
X78943600Y-75976377D01*
X78979975Y-76127890D01*
X78981747Y-76135269D01*
X79004833Y-76179998D01*
X79055988Y-76279108D01*
X79060176Y-76287223D01*
X79065168Y-76292945D01*
X79065169Y-76292947D01*
X79095801Y-76328061D01*
X79172587Y-76416082D01*
X79226038Y-76453648D01*
X79306274Y-76510039D01*
X79306276Y-76510040D01*
X79312491Y-76514408D01*
X79392150Y-76545466D01*
X79464730Y-76573764D01*
X79464733Y-76573765D01*
X79471810Y-76576524D01*
X79479343Y-76577516D01*
X79479344Y-76577516D01*
X79598142Y-76593156D01*
X79602229Y-76593694D01*
X79691681Y-76593694D01*
X79818562Y-76578340D01*
X79978523Y-76517895D01*
X80044591Y-76472488D01*
X80073547Y-76452587D01*
X80141016Y-76430487D01*
X80209723Y-76448373D01*
X80242557Y-76476791D01*
X80356197Y-76616126D01*
X80364841Y-76624831D01*
X80507656Y-76742978D01*
X80517827Y-76749838D01*
X80680876Y-76837998D01*
X80692181Y-76842750D01*
X80807492Y-76878444D01*
X80821595Y-76878650D01*
X80824800Y-76871895D01*
X80824800Y-73849270D01*
X80820827Y-73835739D01*
X80813032Y-73834619D01*
X80705279Y-73866332D01*
X80693911Y-73870925D01*
X80529646Y-73956801D01*
X80519385Y-73963515D01*
X80374927Y-74079662D01*
X80366168Y-74088240D01*
X80247022Y-74230233D01*
X80240092Y-74240353D01*
X80150798Y-74402779D01*
X80145966Y-74414052D01*
X80089920Y-74590732D01*
X80087370Y-74602726D01*
X80071193Y-74746955D01*
X80070800Y-74753979D01*
X80070800Y-75109026D01*
X80050798Y-75177147D01*
X79997142Y-75223640D01*
X79926868Y-75233744D01*
X79899030Y-75226419D01*
X79832870Y-75200624D01*
X79832867Y-75200623D01*
X79825790Y-75197864D01*
X79818257Y-75196872D01*
X79818256Y-75196872D01*
X79699458Y-75181232D01*
X79699457Y-75181232D01*
X79695371Y-75180694D01*
X79605919Y-75180694D01*
X79479038Y-75196048D01*
X79319077Y-75256493D01*
X79312819Y-75260794D01*
X79207919Y-75332890D01*
X79178152Y-75353348D01*
X79173100Y-75359018D01*
X79173099Y-75359019D01*
X79069450Y-75475351D01*
X79069448Y-75475354D01*
X79064397Y-75481023D01*
X79060843Y-75487736D01*
X79060842Y-75487737D01*
X78988302Y-75624742D01*
X78984381Y-75632147D01*
X78982531Y-75639512D01*
X78955134Y-75748587D01*
X78942723Y-75797996D01*
X78942683Y-75805594D01*
X78942683Y-75805596D01*
X78942425Y-75854905D01*
X78941828Y-75968994D01*
X74574916Y-75968994D01*
X74574956Y-75961399D01*
X74575302Y-75895231D01*
X74575772Y-75805394D01*
X74564073Y-75756660D01*
X74537625Y-75646498D01*
X74537624Y-75646494D01*
X74535853Y-75639119D01*
X74457424Y-75487165D01*
X74345013Y-75358306D01*
X74230221Y-75277629D01*
X74211326Y-75264349D01*
X74211324Y-75264348D01*
X74205109Y-75259980D01*
X74111902Y-75223640D01*
X74052870Y-75200624D01*
X74052867Y-75200623D01*
X74045790Y-75197864D01*
X74038257Y-75196872D01*
X74038256Y-75196872D01*
X73919458Y-75181232D01*
X73919457Y-75181232D01*
X73915371Y-75180694D01*
X73825919Y-75180694D01*
X73699038Y-75196048D01*
X73691935Y-75198732D01*
X73617338Y-75226920D01*
X73546545Y-75232288D01*
X73484087Y-75198530D01*
X73449795Y-75136365D01*
X73446800Y-75109054D01*
X73446800Y-74760537D01*
X73446499Y-74754389D01*
X73432988Y-74616591D01*
X73430605Y-74604556D01*
X73377033Y-74427118D01*
X73372359Y-74415778D01*
X73285340Y-74252117D01*
X73278551Y-74241900D01*
X73161403Y-74098261D01*
X73152759Y-74089557D01*
X73009944Y-73971410D01*
X72999773Y-73964550D01*
X72836724Y-73876390D01*
X72825419Y-73871638D01*
X72710108Y-73835944D01*
X72696005Y-73835738D01*
X72692800Y-73842493D01*
X72692800Y-76865118D01*
X72184800Y-76865118D01*
X72184800Y-75629309D01*
X72180325Y-75614070D01*
X72178935Y-75612865D01*
X72171252Y-75611194D01*
X71448915Y-75611194D01*
X71433676Y-75615669D01*
X71432471Y-75617059D01*
X71430800Y-75624742D01*
X71430800Y-75953851D01*
X68539100Y-75953851D01*
X68539100Y-75085079D01*
X71430800Y-75085079D01*
X71435275Y-75100318D01*
X71436665Y-75101523D01*
X71444348Y-75103194D01*
X72166685Y-75103194D01*
X72181924Y-75098719D01*
X72183129Y-75097329D01*
X72184800Y-75089646D01*
X72184800Y-73849270D01*
X72180827Y-73835739D01*
X72173032Y-73834619D01*
X72065279Y-73866332D01*
X72053911Y-73870925D01*
X71889646Y-73956801D01*
X71879385Y-73963515D01*
X71734927Y-74079662D01*
X71726168Y-74088240D01*
X71607022Y-74230233D01*
X71600092Y-74240353D01*
X71510798Y-74402779D01*
X71505966Y-74414052D01*
X71449920Y-74590732D01*
X71447370Y-74602726D01*
X71431193Y-74746955D01*
X71430800Y-74753979D01*
X71430800Y-75085079D01*
X68539100Y-75085079D01*
X68539100Y-71410442D01*
X68537819Y-71401734D01*
X68529488Y-71345141D01*
X68529487Y-71345139D01*
X68528062Y-71335456D01*
X68520051Y-71319139D01*
X68476677Y-71230797D01*
X68476676Y-71230796D01*
X68472087Y-71221449D01*
X68382201Y-71131720D01*
X68367693Y-71124628D01*
X68277319Y-71080453D01*
X68268097Y-71075945D01*
X68235316Y-71071163D01*
X68198284Y-71065760D01*
X68198280Y-71065760D01*
X68193758Y-71065100D01*
X66121442Y-71065100D01*
X66116894Y-71065770D01*
X66116887Y-71065770D01*
X66056141Y-71074712D01*
X66056139Y-71074713D01*
X66046456Y-71076138D01*
X66037668Y-71080453D01*
X66037667Y-71080453D01*
X65941797Y-71127523D01*
X65941796Y-71127524D01*
X65932449Y-71132113D01*
X65900716Y-71163902D01*
X65852686Y-71212016D01*
X65842720Y-71221999D01*
X65838147Y-71231355D01*
X65838146Y-71231356D01*
X65823115Y-71262107D01*
X65786945Y-71336103D01*
X65783385Y-71360503D01*
X65776765Y-71405887D01*
X65776100Y-71410442D01*
X65776100Y-76082758D01*
X61721584Y-76082758D01*
X61801402Y-76028513D01*
X61809277Y-76022181D01*
X61978226Y-75862414D01*
X61984987Y-75854905D01*
X62126225Y-75670174D01*
X62131689Y-75661695D01*
X62241578Y-75456753D01*
X62245620Y-75447501D01*
X62321327Y-75227629D01*
X62323836Y-75217857D01*
X62363604Y-74987629D01*
X62364459Y-74979757D01*
X62365536Y-74956049D01*
X62365600Y-74953216D01*
X62365600Y-74018715D01*
X62361125Y-74003476D01*
X62359735Y-74002271D01*
X62352052Y-74000600D01*
X61129715Y-74000600D01*
X61114476Y-74005075D01*
X61113271Y-74006465D01*
X61111600Y-74014148D01*
X61111600Y-76317190D01*
X60603600Y-76317190D01*
X60603600Y-74018715D01*
X60599125Y-74003476D01*
X60597735Y-74002271D01*
X60590052Y-74000600D01*
X59367715Y-74000600D01*
X59352476Y-74005075D01*
X59351271Y-74006465D01*
X59349600Y-74014148D01*
X59349600Y-74905056D01*
X53717761Y-74905056D01*
X53717761Y-73474485D01*
X59349600Y-73474485D01*
X59354075Y-73489724D01*
X59355465Y-73490929D01*
X59363148Y-73492600D01*
X60585485Y-73492600D01*
X60600724Y-73488125D01*
X60601929Y-73486735D01*
X60603600Y-73479052D01*
X60603600Y-73474485D01*
X61111600Y-73474485D01*
X61116075Y-73489724D01*
X61117465Y-73490929D01*
X61125148Y-73492600D01*
X62347485Y-73492600D01*
X62362724Y-73488125D01*
X62363929Y-73486735D01*
X62365600Y-73479052D01*
X62365600Y-72588144D01*
X62365398Y-72583112D01*
X62351450Y-72409757D01*
X62349838Y-72399804D01*
X62294367Y-72173967D01*
X62291184Y-72164397D01*
X62200320Y-71950335D01*
X62195645Y-71941393D01*
X62071726Y-71744613D01*
X62065686Y-71736540D01*
X61911897Y-71562100D01*
X61904644Y-71555096D01*
X61724946Y-71407490D01*
X61716664Y-71401734D01*
X61515681Y-71284759D01*
X61506576Y-71280397D01*
X61289485Y-71197063D01*
X61279796Y-71194212D01*
X61129336Y-71162779D01*
X61115275Y-71163902D01*
X61111600Y-71174010D01*
X61111600Y-73474485D01*
X60603600Y-73474485D01*
X60603600Y-71176010D01*
X60599464Y-71161924D01*
X60586486Y-71159875D01*
X60568770Y-71161925D01*
X60558873Y-71163885D01*
X60335106Y-71227204D01*
X60325662Y-71230716D01*
X60114895Y-71328999D01*
X60106129Y-71333978D01*
X59913798Y-71464687D01*
X59905923Y-71471019D01*
X59736974Y-71630786D01*
X59730213Y-71638295D01*
X59588975Y-71823026D01*
X59583511Y-71831505D01*
X59473622Y-72036447D01*
X59469580Y-72045699D01*
X59393873Y-72265571D01*
X59391364Y-72275343D01*
X59351596Y-72505571D01*
X59350741Y-72513443D01*
X59349664Y-72537151D01*
X59349600Y-72539984D01*
X59349600Y-73474485D01*
X53717761Y-73474485D01*
X53717761Y-68515992D01*
X80105912Y-68515992D01*
X80124815Y-68687211D01*
X80127424Y-68694342D01*
X80127425Y-68694344D01*
X80137114Y-68720821D01*
X80184013Y-68848978D01*
X80188250Y-68855284D01*
X80188252Y-68855287D01*
X80221942Y-68905422D01*
X80280090Y-68991955D01*
X80285708Y-68997067D01*
X80339870Y-69046350D01*
X80407498Y-69107887D01*
X80558882Y-69190082D01*
X80725502Y-69233794D01*
X80816500Y-69235224D01*
X80890142Y-69236381D01*
X80890145Y-69236381D01*
X80897739Y-69236500D01*
X80957428Y-69222829D01*
X81058247Y-69199739D01*
X81058251Y-69199738D01*
X81065650Y-69198043D01*
X81219541Y-69120644D01*
X81258348Y-69087500D01*
X81344754Y-69013703D01*
X81344756Y-69013700D01*
X81350528Y-69008771D01*
X81451048Y-68868882D01*
X81515298Y-68709054D01*
X81538805Y-68543886D01*
X84398950Y-68543886D01*
X84415643Y-68714136D01*
X84469640Y-68876456D01*
X84473287Y-68882478D01*
X84473288Y-68882480D01*
X84554606Y-69016754D01*
X84554609Y-69016757D01*
X84558256Y-69022780D01*
X84677089Y-69145834D01*
X84696246Y-69158370D01*
X84811688Y-69233913D01*
X84820230Y-69239503D01*
X84826834Y-69241959D01*
X84826836Y-69241960D01*
X84973957Y-69296674D01*
X84973959Y-69296674D01*
X84980567Y-69299132D01*
X85059654Y-69309685D01*
X85143149Y-69320826D01*
X85143153Y-69320826D01*
X85150130Y-69321757D01*
X85157141Y-69321119D01*
X85157145Y-69321119D01*
X85313473Y-69306892D01*
X85313475Y-69306892D01*
X85320492Y-69306253D01*
X85327190Y-69304077D01*
X85327193Y-69304076D01*
X85476489Y-69255566D01*
X85476491Y-69255565D01*
X85483185Y-69253390D01*
X85559544Y-69207871D01*
X85624061Y-69190100D01*
X85950780Y-69190100D01*
X85962014Y-69190630D01*
X85969519Y-69192308D01*
X86037812Y-69190162D01*
X86041769Y-69190100D01*
X86069783Y-69190100D01*
X86073708Y-69189604D01*
X86073709Y-69189604D01*
X86073804Y-69189592D01*
X86085649Y-69188659D01*
X86115470Y-69187722D01*
X86122082Y-69187514D01*
X86122083Y-69187514D01*
X86130005Y-69187265D01*
X86149549Y-69181587D01*
X86168912Y-69177577D01*
X86181240Y-69176020D01*
X86181242Y-69176020D01*
X86189099Y-69175027D01*
X86196463Y-69172111D01*
X86196468Y-69172110D01*
X86230356Y-69158693D01*
X86241585Y-69154848D01*
X86259331Y-69149692D01*
X86284193Y-69142469D01*
X86291020Y-69138431D01*
X86291023Y-69138430D01*
X86301706Y-69132112D01*
X86319464Y-69123412D01*
X86331015Y-69118839D01*
X86331021Y-69118835D01*
X86338388Y-69115919D01*
X86356477Y-69102777D01*
X86374288Y-69089836D01*
X86384210Y-69083319D01*
X86415568Y-69064774D01*
X86415572Y-69064771D01*
X86422398Y-69060734D01*
X86436782Y-69046350D01*
X86451816Y-69033509D01*
X86461873Y-69026202D01*
X86468287Y-69021542D01*
X86496578Y-68987344D01*
X86504567Y-68978565D01*
X97421483Y-58061650D01*
X97429809Y-58054074D01*
X97436303Y-58049953D01*
X97483086Y-58000134D01*
X97485840Y-57997293D01*
X97505639Y-57977494D01*
X97508068Y-57974363D01*
X97508072Y-57974358D01*
X97508139Y-57974272D01*
X97515847Y-57965247D01*
X97540792Y-57938683D01*
X97546217Y-57932906D01*
X97550035Y-57925961D01*
X97550038Y-57925957D01*
X97556026Y-57915066D01*
X97566878Y-57898545D01*
X97568847Y-57896006D01*
X97579350Y-57882466D01*
X97596971Y-57841745D01*
X97602192Y-57831089D01*
X97619748Y-57799155D01*
X97619750Y-57799149D01*
X97623569Y-57792203D01*
X97625540Y-57784528D01*
X97625542Y-57784522D01*
X97628631Y-57772489D01*
X97635034Y-57753787D01*
X97643117Y-57735108D01*
X97644357Y-57727282D01*
X97644358Y-57727277D01*
X97650060Y-57691280D01*
X97652466Y-57679660D01*
X97661528Y-57644363D01*
X97661528Y-57644362D01*
X97663500Y-57636682D01*
X97663500Y-57616334D01*
X97665051Y-57596623D01*
X97666995Y-57584349D01*
X97668235Y-57576520D01*
X97664059Y-57532344D01*
X97663500Y-57520486D01*
X97663500Y-56593481D01*
X97684551Y-56523755D01*
X97710471Y-56484743D01*
X97771218Y-56324826D01*
X97772524Y-56315535D01*
X97794475Y-56159347D01*
X97794475Y-56159344D01*
X97795026Y-56155425D01*
X97795325Y-56134000D01*
X97776256Y-55964000D01*
X97773237Y-55955328D01*
X97722314Y-55809097D01*
X97722313Y-55809095D01*
X97719999Y-55802450D01*
X97683919Y-55744709D01*
X97633081Y-55663352D01*
X97629348Y-55657378D01*
X97508809Y-55535994D01*
X97417615Y-55478121D01*
X97370316Y-55448104D01*
X97370313Y-55448102D01*
X97364373Y-55444333D01*
X97357740Y-55441971D01*
X97209854Y-55389311D01*
X97209849Y-55389310D01*
X97203219Y-55386949D01*
X97196231Y-55386116D01*
X97196228Y-55386115D01*
X97080655Y-55372334D01*
X97033357Y-55366694D01*
X97026354Y-55367430D01*
X97026353Y-55367430D01*
X96874194Y-55383422D01*
X96804356Y-55370650D01*
X96752509Y-55322147D01*
X96735115Y-55253315D01*
X96743235Y-55213371D01*
X96755218Y-55181826D01*
X96772580Y-55058288D01*
X96778475Y-55016347D01*
X96778475Y-55016344D01*
X96779026Y-55012425D01*
X96779325Y-54991000D01*
X96760256Y-54821000D01*
X96744235Y-54774991D01*
X96706314Y-54666097D01*
X96706313Y-54666095D01*
X96703999Y-54659450D01*
X96664734Y-54596612D01*
X96617081Y-54520352D01*
X96613348Y-54514378D01*
X96602451Y-54503404D01*
X96532326Y-54432788D01*
X96492809Y-54392994D01*
X96371414Y-54315955D01*
X96354316Y-54305104D01*
X96354313Y-54305102D01*
X96348373Y-54301333D01*
X96336803Y-54297213D01*
X96193854Y-54246311D01*
X96193849Y-54246310D01*
X96187219Y-54243949D01*
X96180231Y-54243116D01*
X96180228Y-54243115D01*
X96064655Y-54229334D01*
X96017357Y-54223694D01*
X96010354Y-54224430D01*
X96010353Y-54224430D01*
X95965958Y-54229096D01*
X95847228Y-54241575D01*
X95837071Y-54245033D01*
X95691956Y-54294434D01*
X95691953Y-54294435D01*
X95685289Y-54296704D01*
X95539588Y-54386340D01*
X95534557Y-54391267D01*
X95534554Y-54391269D01*
X95475573Y-54449028D01*
X95417366Y-54506028D01*
X95413547Y-54511953D01*
X95413546Y-54511955D01*
X95411594Y-54514984D01*
X95324698Y-54649820D01*
X95322287Y-54656443D01*
X95322286Y-54656446D01*
X95268600Y-54803947D01*
X95268599Y-54803952D01*
X95266190Y-54810570D01*
X95244750Y-54980286D01*
X95261443Y-55150536D01*
X95315440Y-55312856D01*
X95319087Y-55318878D01*
X95319088Y-55318880D01*
X95358276Y-55383587D01*
X95376500Y-55448858D01*
X95376500Y-56732977D01*
X95356498Y-56801098D01*
X95339595Y-56822072D01*
X86235272Y-65926395D01*
X86172960Y-65960421D01*
X86146177Y-65963300D01*
X85624533Y-65963300D01*
X85557021Y-65943687D01*
X85502573Y-65909133D01*
X85475780Y-65899592D01*
X85348054Y-65854111D01*
X85348049Y-65854110D01*
X85341419Y-65851749D01*
X85334431Y-65850916D01*
X85334428Y-65850915D01*
X85218855Y-65837134D01*
X85171557Y-65831494D01*
X85164554Y-65832230D01*
X85164553Y-65832230D01*
X85120158Y-65836896D01*
X85001428Y-65849375D01*
X84991271Y-65852833D01*
X84846156Y-65902234D01*
X84846153Y-65902235D01*
X84839489Y-65904504D01*
X84693788Y-65994140D01*
X84688757Y-65999067D01*
X84688754Y-65999069D01*
X84641220Y-66045618D01*
X84571566Y-66113828D01*
X84478898Y-66257620D01*
X84476487Y-66264243D01*
X84476486Y-66264246D01*
X84422800Y-66411747D01*
X84422799Y-66411752D01*
X84420390Y-66418370D01*
X84398950Y-66588086D01*
X84415643Y-66758336D01*
X84469640Y-66920656D01*
X84473287Y-66926678D01*
X84473288Y-66926680D01*
X84554606Y-67060954D01*
X84554609Y-67060957D01*
X84558256Y-67066980D01*
X84677089Y-67190034D01*
X84682985Y-67193892D01*
X84775301Y-67254302D01*
X84820230Y-67283703D01*
X84826834Y-67286159D01*
X84826836Y-67286160D01*
X84973957Y-67340874D01*
X84973959Y-67340874D01*
X84980567Y-67343332D01*
X85059654Y-67353885D01*
X85143149Y-67365026D01*
X85143153Y-67365026D01*
X85150130Y-67365957D01*
X85157141Y-67365319D01*
X85157145Y-67365319D01*
X85313473Y-67351092D01*
X85313475Y-67351092D01*
X85320492Y-67350453D01*
X85327190Y-67348277D01*
X85327193Y-67348276D01*
X85476489Y-67299766D01*
X85476491Y-67299765D01*
X85483185Y-67297590D01*
X85559544Y-67252071D01*
X85624061Y-67234300D01*
X86147177Y-67234300D01*
X86215298Y-67254302D01*
X86261791Y-67307958D01*
X86271895Y-67378232D01*
X86242401Y-67442812D01*
X86236272Y-67449395D01*
X85803472Y-67882195D01*
X85741160Y-67916221D01*
X85714377Y-67919100D01*
X85624533Y-67919100D01*
X85557021Y-67899487D01*
X85502573Y-67864933D01*
X85475780Y-67855392D01*
X85348054Y-67809911D01*
X85348049Y-67809910D01*
X85341419Y-67807549D01*
X85334431Y-67806716D01*
X85334428Y-67806715D01*
X85218855Y-67792934D01*
X85171557Y-67787294D01*
X85164554Y-67788030D01*
X85164553Y-67788030D01*
X85120158Y-67792696D01*
X85001428Y-67805175D01*
X84992880Y-67808085D01*
X84846156Y-67858034D01*
X84846153Y-67858035D01*
X84839489Y-67860304D01*
X84693788Y-67949940D01*
X84688757Y-67954867D01*
X84688754Y-67954869D01*
X84645865Y-67996869D01*
X84571566Y-68069628D01*
X84567747Y-68075553D01*
X84567746Y-68075555D01*
X84542122Y-68115316D01*
X84478898Y-68213420D01*
X84476487Y-68220043D01*
X84476486Y-68220046D01*
X84422800Y-68367547D01*
X84422799Y-68367552D01*
X84420390Y-68374170D01*
X84398950Y-68543886D01*
X81538805Y-68543886D01*
X81539570Y-68538514D01*
X81539727Y-68523500D01*
X81539232Y-68519408D01*
X81519945Y-68360030D01*
X81519944Y-68360027D01*
X81519032Y-68352489D01*
X81511504Y-68332565D01*
X81460827Y-68198454D01*
X81458143Y-68191351D01*
X81416960Y-68131429D01*
X81394800Y-68060062D01*
X81394800Y-67178336D01*
X81418477Y-67104811D01*
X81446614Y-67065653D01*
X81446615Y-67065651D01*
X81451048Y-67059482D01*
X81515298Y-66899654D01*
X81539570Y-66729114D01*
X81539727Y-66714100D01*
X81539016Y-66708221D01*
X81519945Y-66550630D01*
X81519944Y-66550627D01*
X81519032Y-66543089D01*
X81515981Y-66535013D01*
X81460827Y-66389054D01*
X81458143Y-66381951D01*
X81449311Y-66369100D01*
X81364877Y-66246247D01*
X81364876Y-66246245D01*
X81360575Y-66239988D01*
X81348676Y-66229386D01*
X81237632Y-66130449D01*
X81237629Y-66130447D01*
X81231960Y-66125396D01*
X81223930Y-66121144D01*
X81086438Y-66048346D01*
X81086439Y-66048346D01*
X81079724Y-66044791D01*
X80912655Y-66002826D01*
X80905057Y-66002786D01*
X80905055Y-66002786D01*
X80832147Y-66002404D01*
X80740398Y-66001924D01*
X80733018Y-66003696D01*
X80733016Y-66003696D01*
X80580279Y-66040365D01*
X80580277Y-66040366D01*
X80572899Y-66042137D01*
X80419827Y-66121144D01*
X80414105Y-66126136D01*
X80414103Y-66126137D01*
X80366688Y-66167500D01*
X80290019Y-66234382D01*
X80190970Y-66375316D01*
X80128397Y-66535808D01*
X80127406Y-66543335D01*
X80117269Y-66620333D01*
X80105912Y-66706592D01*
X80108849Y-66733194D01*
X80119358Y-66828379D01*
X80124815Y-66877811D01*
X80127424Y-66884942D01*
X80127425Y-66884944D01*
X80138048Y-66913973D01*
X80184013Y-67039578D01*
X80188250Y-67045884D01*
X80188252Y-67045887D01*
X80229381Y-67107092D01*
X80250800Y-67177368D01*
X80250800Y-68059738D01*
X80227887Y-68132188D01*
X80222392Y-68140006D01*
X80190970Y-68184716D01*
X80128397Y-68345208D01*
X80127406Y-68352735D01*
X80109042Y-68492221D01*
X80105912Y-68515992D01*
X53717761Y-68515992D01*
X53717761Y-55118000D01*
X85516680Y-55118000D01*
X85517370Y-55124565D01*
X85530903Y-55253315D01*
X85535109Y-55293336D01*
X85589589Y-55461009D01*
X85592892Y-55466731D01*
X85592893Y-55466732D01*
X85609807Y-55496028D01*
X85677740Y-55613691D01*
X85682158Y-55618598D01*
X85682159Y-55618599D01*
X85776543Y-55723423D01*
X85795709Y-55744709D01*
X85810845Y-55755706D01*
X85918866Y-55834188D01*
X85938340Y-55848337D01*
X85944369Y-55851021D01*
X85944372Y-55851023D01*
X86093364Y-55917358D01*
X86093367Y-55917359D01*
X86099400Y-55920045D01*
X86135850Y-55927793D01*
X86265392Y-55955328D01*
X86265396Y-55955328D01*
X86271849Y-55956700D01*
X86448151Y-55956700D01*
X86454604Y-55955328D01*
X86454608Y-55955328D01*
X86584150Y-55927793D01*
X86620600Y-55920045D01*
X86626633Y-55917359D01*
X86626636Y-55917358D01*
X86775628Y-55851023D01*
X86775631Y-55851021D01*
X86781660Y-55848337D01*
X86801135Y-55834188D01*
X86909155Y-55755706D01*
X86924291Y-55744709D01*
X86943457Y-55723423D01*
X87037841Y-55618599D01*
X87037842Y-55618598D01*
X87042260Y-55613691D01*
X87110193Y-55496028D01*
X87127107Y-55466732D01*
X87127108Y-55466731D01*
X87130411Y-55461009D01*
X87184891Y-55293336D01*
X87202695Y-55123943D01*
X87229708Y-55058288D01*
X87238910Y-55048020D01*
X87576025Y-54710905D01*
X87638337Y-54676879D01*
X87665120Y-54674000D01*
X93807256Y-54674000D01*
X93823702Y-54675078D01*
X93844811Y-54677857D01*
X93844812Y-54677857D01*
X93853000Y-54678935D01*
X93861188Y-54677857D01*
X93861189Y-54677857D01*
X93890479Y-54674001D01*
X93890491Y-54674000D01*
X93890494Y-54674000D01*
X93890503Y-54673999D01*
X93971625Y-54663318D01*
X94002322Y-54659277D01*
X94141468Y-54601641D01*
X94185169Y-54568108D01*
X94230954Y-54532976D01*
X94230955Y-54532975D01*
X94254402Y-54514984D01*
X94254405Y-54514981D01*
X94260955Y-54509955D01*
X94278953Y-54486500D01*
X94289820Y-54474110D01*
X97551312Y-51212618D01*
X97613624Y-51178592D01*
X97628986Y-51176232D01*
X97651984Y-51174139D01*
X97683272Y-51171292D01*
X97683273Y-51171292D01*
X97690292Y-51170653D01*
X97696990Y-51168477D01*
X97696993Y-51168476D01*
X97846289Y-51119966D01*
X97846291Y-51119965D01*
X97852985Y-51117790D01*
X97900368Y-51089544D01*
X97993872Y-51033805D01*
X97993874Y-51033804D01*
X97999924Y-51030197D01*
X98123805Y-50912227D01*
X98218471Y-50769743D01*
X98279218Y-50609826D01*
X98284908Y-50569342D01*
X98302475Y-50444347D01*
X98302475Y-50444344D01*
X98303026Y-50440425D01*
X98303325Y-50419000D01*
X98284256Y-50249000D01*
X98237202Y-50113876D01*
X98230314Y-50094097D01*
X98230313Y-50094095D01*
X98227999Y-50087450D01*
X98137348Y-49942378D01*
X98016809Y-49820994D01*
X97872373Y-49729333D01*
X97874061Y-49726673D01*
X97831874Y-49688204D01*
X97813603Y-49619599D01*
X97835324Y-49552006D01*
X97852670Y-49531545D01*
X97869805Y-49515227D01*
X97964471Y-49372743D01*
X98014788Y-49240284D01*
X98022718Y-49219408D01*
X98022719Y-49219406D01*
X98025218Y-49212826D01*
X98031083Y-49171094D01*
X98048475Y-49047347D01*
X98048475Y-49047344D01*
X98049026Y-49043425D01*
X98049325Y-49022000D01*
X98030256Y-48852000D01*
X98025011Y-48836936D01*
X97976314Y-48697097D01*
X97976313Y-48697095D01*
X97973999Y-48690450D01*
X97934859Y-48627812D01*
X97887081Y-48551352D01*
X97883348Y-48545378D01*
X97870159Y-48532096D01*
X97824024Y-48485638D01*
X97762809Y-48423994D01*
X97697539Y-48382573D01*
X97624316Y-48336104D01*
X97624313Y-48336102D01*
X97618373Y-48332333D01*
X97611740Y-48329971D01*
X97463854Y-48277311D01*
X97463849Y-48277310D01*
X97457219Y-48274949D01*
X97450231Y-48274116D01*
X97450228Y-48274115D01*
X97331854Y-48260000D01*
X97287357Y-48254694D01*
X97280354Y-48255430D01*
X97280353Y-48255430D01*
X97236873Y-48260000D01*
X97117228Y-48272575D01*
X97107071Y-48276033D01*
X96961956Y-48325434D01*
X96961953Y-48325435D01*
X96955289Y-48327704D01*
X96809588Y-48417340D01*
X96804557Y-48422267D01*
X96804554Y-48422269D01*
X96745573Y-48480028D01*
X96687366Y-48537028D01*
X96683547Y-48542953D01*
X96683546Y-48542955D01*
X96678135Y-48551352D01*
X96594698Y-48680820D01*
X96592287Y-48687443D01*
X96592286Y-48687446D01*
X96579519Y-48722525D01*
X96536190Y-48841570D01*
X96535308Y-48848551D01*
X96535305Y-48848564D01*
X96524633Y-48933045D01*
X96496251Y-48998122D01*
X96488722Y-49006348D01*
X93271975Y-52223095D01*
X93209663Y-52257121D01*
X93182880Y-52260000D01*
X87665120Y-52260000D01*
X87596999Y-52239998D01*
X87576025Y-52223095D01*
X87238910Y-51885980D01*
X87204884Y-51823668D01*
X87202695Y-51810056D01*
X87185581Y-51647228D01*
X87185581Y-51647227D01*
X87184891Y-51640664D01*
X87181746Y-51630983D01*
X87132453Y-51479276D01*
X87130411Y-51472991D01*
X87108676Y-51435344D01*
X87065647Y-51360816D01*
X87042260Y-51320309D01*
X87024104Y-51300144D01*
X86928713Y-51194202D01*
X86928712Y-51194201D01*
X86924291Y-51189291D01*
X86781660Y-51085663D01*
X86775631Y-51082979D01*
X86775628Y-51082977D01*
X86626636Y-51016642D01*
X86626633Y-51016641D01*
X86620600Y-51013955D01*
X86533635Y-50995470D01*
X86454608Y-50978672D01*
X86454604Y-50978672D01*
X86448151Y-50977300D01*
X86271849Y-50977300D01*
X86265396Y-50978672D01*
X86265392Y-50978672D01*
X86186365Y-50995470D01*
X86099400Y-51013955D01*
X86093367Y-51016641D01*
X86093364Y-51016642D01*
X85944372Y-51082977D01*
X85944369Y-51082979D01*
X85938340Y-51085663D01*
X85795709Y-51189291D01*
X85791288Y-51194201D01*
X85791287Y-51194202D01*
X85695897Y-51300144D01*
X85677740Y-51320309D01*
X85654353Y-51360816D01*
X85611325Y-51435344D01*
X85589589Y-51472991D01*
X85587547Y-51479276D01*
X85538255Y-51630983D01*
X85535109Y-51640664D01*
X85534419Y-51647227D01*
X85534419Y-51647228D01*
X85519790Y-51786414D01*
X85516680Y-51816000D01*
X85517370Y-51822565D01*
X85530805Y-51950383D01*
X85535109Y-51991336D01*
X85537149Y-51997614D01*
X85537149Y-51997615D01*
X85556383Y-52056810D01*
X85589589Y-52159009D01*
X85677740Y-52311691D01*
X85795709Y-52442709D01*
X85938340Y-52546337D01*
X85944369Y-52549021D01*
X85944372Y-52549023D01*
X86093364Y-52615358D01*
X86093367Y-52615359D01*
X86099400Y-52618045D01*
X86109995Y-52620297D01*
X86265392Y-52653328D01*
X86265396Y-52653328D01*
X86271849Y-52654700D01*
X86337580Y-52654700D01*
X86405701Y-52674702D01*
X86426675Y-52691605D01*
X86939184Y-53204114D01*
X86950051Y-53216505D01*
X86968045Y-53239955D01*
X86998045Y-53262975D01*
X86998046Y-53262976D01*
X87087532Y-53331641D01*
X87121527Y-53345722D01*
X87133281Y-53350591D01*
X87188562Y-53395140D01*
X87210983Y-53462503D01*
X87193425Y-53531294D01*
X87141462Y-53579673D01*
X87133281Y-53583409D01*
X87124004Y-53587252D01*
X87087532Y-53602359D01*
X86968045Y-53694045D01*
X86963019Y-53700595D01*
X86950051Y-53717495D01*
X86939184Y-53729886D01*
X86426675Y-54242395D01*
X86364363Y-54276421D01*
X86337580Y-54279300D01*
X86271849Y-54279300D01*
X86265396Y-54280672D01*
X86265392Y-54280672D01*
X86173498Y-54300205D01*
X86099400Y-54315955D01*
X86093367Y-54318641D01*
X86093364Y-54318642D01*
X85944372Y-54384977D01*
X85944369Y-54384979D01*
X85938340Y-54387663D01*
X85932999Y-54391543D01*
X85932998Y-54391544D01*
X85924123Y-54397992D01*
X85795709Y-54491291D01*
X85791288Y-54496201D01*
X85791287Y-54496202D01*
X85696350Y-54601641D01*
X85677740Y-54622309D01*
X85589589Y-54774991D01*
X85535109Y-54942664D01*
X85534419Y-54949227D01*
X85534419Y-54949228D01*
X85529612Y-54994962D01*
X85516680Y-55118000D01*
X53717761Y-55118000D01*
X53717761Y-36819286D01*
X80512750Y-36819286D01*
X80529443Y-36989536D01*
X80583440Y-37151856D01*
X80587087Y-37157878D01*
X80587088Y-37157880D01*
X80668406Y-37292154D01*
X80668409Y-37292157D01*
X80672056Y-37298180D01*
X80790889Y-37421234D01*
X80934030Y-37514903D01*
X80940634Y-37517359D01*
X80940636Y-37517360D01*
X81087759Y-37572075D01*
X81087763Y-37572076D01*
X81094367Y-37574532D01*
X81101285Y-37575455D01*
X81159871Y-37608603D01*
X90172750Y-46621483D01*
X90180326Y-46629809D01*
X90184447Y-46636303D01*
X90190222Y-46641726D01*
X90234265Y-46683085D01*
X90237107Y-46685840D01*
X90256906Y-46705639D01*
X90260031Y-46708063D01*
X90260040Y-46708071D01*
X90260126Y-46708137D01*
X90269151Y-46715845D01*
X90301494Y-46746217D01*
X90308438Y-46750035D01*
X90308440Y-46750036D01*
X90319329Y-46756022D01*
X90335847Y-46766873D01*
X90351933Y-46779350D01*
X90392666Y-46796976D01*
X90403314Y-46802193D01*
X90442197Y-46823569D01*
X90449872Y-46825540D01*
X90449878Y-46825542D01*
X90461911Y-46828631D01*
X90480613Y-46835034D01*
X90499292Y-46843117D01*
X90533128Y-46848476D01*
X90543127Y-46850060D01*
X90554740Y-46852465D01*
X90597718Y-46863500D01*
X90618065Y-46863500D01*
X90637777Y-46865051D01*
X90657879Y-46868235D01*
X90665771Y-46867489D01*
X90702056Y-46864059D01*
X90713914Y-46863500D01*
X99074272Y-46863500D01*
X99143265Y-46884068D01*
X99207512Y-46926111D01*
X99207516Y-46926113D01*
X99213410Y-46929970D01*
X99220014Y-46932426D01*
X99371140Y-46988629D01*
X99371142Y-46988629D01*
X99377742Y-46991084D01*
X99384725Y-46992016D01*
X99384726Y-46992016D01*
X99502118Y-47007680D01*
X99566995Y-47036516D01*
X99574548Y-47043478D01*
X101163184Y-48632114D01*
X101174051Y-48644505D01*
X101192045Y-48667955D01*
X101222045Y-48690975D01*
X101222046Y-48690976D01*
X101311532Y-48759641D01*
X101450678Y-48817277D01*
X101600000Y-48836936D01*
X101608188Y-48835858D01*
X101629304Y-48833078D01*
X101645751Y-48832000D01*
X106040184Y-48832000D01*
X106108305Y-48852002D01*
X106154798Y-48905658D01*
X106164902Y-48975932D01*
X106135408Y-49040512D01*
X106095077Y-49071066D01*
X106091148Y-49072403D01*
X106085149Y-49076093D01*
X106085146Y-49076095D01*
X105947823Y-49160577D01*
X105947820Y-49160579D01*
X105941816Y-49164273D01*
X105936781Y-49169204D01*
X105936778Y-49169206D01*
X105831314Y-49272485D01*
X105816549Y-49286944D01*
X105721572Y-49434319D01*
X105719163Y-49440939D01*
X105719161Y-49440942D01*
X105678737Y-49552006D01*
X105661606Y-49599074D01*
X105639632Y-49773020D01*
X105656741Y-49947511D01*
X105712083Y-50113876D01*
X105715730Y-50119898D01*
X105715731Y-50119900D01*
X105799139Y-50257622D01*
X105802908Y-50263846D01*
X105807797Y-50268909D01*
X105807798Y-50268910D01*
X105840812Y-50303097D01*
X105924701Y-50389966D01*
X105930593Y-50393821D01*
X105930597Y-50393825D01*
X106015457Y-50449355D01*
X106071410Y-50485970D01*
X106078014Y-50488426D01*
X106229140Y-50544629D01*
X106229142Y-50544629D01*
X106235742Y-50547084D01*
X106242725Y-50548016D01*
X106242726Y-50548016D01*
X106402549Y-50569342D01*
X106402553Y-50569342D01*
X106409530Y-50570273D01*
X106416541Y-50569635D01*
X106416545Y-50569635D01*
X106554105Y-50557115D01*
X106584137Y-50554382D01*
X106590839Y-50552204D01*
X106590841Y-50552204D01*
X106744185Y-50502380D01*
X106744188Y-50502379D01*
X106750884Y-50500203D01*
X106901484Y-50410427D01*
X106990924Y-50325254D01*
X107054050Y-50292762D01*
X107077817Y-50290500D01*
X117695611Y-50290500D01*
X117763732Y-50310502D01*
X117784706Y-50327405D01*
X117947984Y-50490683D01*
X117982010Y-50552995D01*
X117984742Y-50580197D01*
X117984032Y-50585820D01*
X117984719Y-50592827D01*
X117984719Y-50592830D01*
X117989680Y-50643423D01*
X118001141Y-50760311D01*
X118056483Y-50926676D01*
X118060130Y-50932698D01*
X118060131Y-50932700D01*
X118128204Y-51045101D01*
X118147308Y-51076646D01*
X118152197Y-51081709D01*
X118152198Y-51081710D01*
X118224519Y-51156600D01*
X118269101Y-51202766D01*
X118274993Y-51206621D01*
X118274997Y-51206625D01*
X118314224Y-51232294D01*
X118415810Y-51298770D01*
X118422414Y-51301226D01*
X118573540Y-51357429D01*
X118573542Y-51357429D01*
X118580142Y-51359884D01*
X118587125Y-51360816D01*
X118587126Y-51360816D01*
X118746949Y-51382142D01*
X118746953Y-51382142D01*
X118753930Y-51383073D01*
X118760941Y-51382435D01*
X118760945Y-51382435D01*
X118898505Y-51369915D01*
X118928537Y-51367182D01*
X118935239Y-51365004D01*
X118935241Y-51365004D01*
X118996873Y-51344978D01*
X119087565Y-51315511D01*
X119158532Y-51313483D01*
X119219329Y-51350146D01*
X119250655Y-51413858D01*
X119252500Y-51435344D01*
X119252500Y-52941157D01*
X119232498Y-53009278D01*
X119215595Y-53030252D01*
X116417296Y-55828551D01*
X116411278Y-55834188D01*
X116362581Y-55876894D01*
X116359006Y-55881429D01*
X116359005Y-55881430D01*
X116307802Y-55946382D01*
X116305724Y-55948947D01*
X116252866Y-56012500D01*
X116252862Y-56012505D01*
X116249174Y-56016940D01*
X116246355Y-56021974D01*
X116244286Y-56024984D01*
X116238092Y-56034254D01*
X116236049Y-56037399D01*
X116232472Y-56041937D01*
X116229784Y-56047045D01*
X116229782Y-56047049D01*
X116191288Y-56120216D01*
X116189718Y-56123106D01*
X116146485Y-56200304D01*
X116144628Y-56205776D01*
X116143114Y-56209176D01*
X116138727Y-56219387D01*
X116137305Y-56222821D01*
X116134618Y-56227927D01*
X116132906Y-56233441D01*
X116132905Y-56233443D01*
X116108388Y-56312399D01*
X116107369Y-56315535D01*
X116097146Y-56345653D01*
X116078931Y-56399312D01*
X116078102Y-56405025D01*
X116077259Y-56408538D01*
X116074767Y-56419551D01*
X116074009Y-56423118D01*
X116072296Y-56428634D01*
X116071618Y-56434362D01*
X116071617Y-56434367D01*
X116061897Y-56516498D01*
X116061470Y-56519740D01*
X116048775Y-56607297D01*
X116051937Y-56687771D01*
X116052003Y-56689454D01*
X116052100Y-56694401D01*
X116052100Y-62745556D01*
X116032098Y-62813677D01*
X116015195Y-62834651D01*
X112995736Y-65854111D01*
X110152287Y-68697560D01*
X110089975Y-68731586D01*
X110019160Y-68726521D01*
X109962324Y-68683974D01*
X109937513Y-68617454D01*
X109945404Y-68563721D01*
X109960718Y-68523408D01*
X109960719Y-68523406D01*
X109963218Y-68516826D01*
X109964198Y-68509854D01*
X109986475Y-68351347D01*
X109986475Y-68351344D01*
X109987026Y-68347425D01*
X109987173Y-68336878D01*
X109987270Y-68329962D01*
X109987270Y-68329957D01*
X109987325Y-68326000D01*
X109968256Y-68156000D01*
X109961097Y-68135440D01*
X109914314Y-68001097D01*
X109914313Y-68001095D01*
X109911999Y-67994450D01*
X109908268Y-67988479D01*
X109908266Y-67988475D01*
X109900051Y-67975328D01*
X109880915Y-67906959D01*
X109901781Y-67839098D01*
X109920010Y-67817316D01*
X109923570Y-67813926D01*
X109934805Y-67803227D01*
X110029471Y-67660743D01*
X110090218Y-67500826D01*
X110097446Y-67449395D01*
X110113475Y-67335347D01*
X110113475Y-67335344D01*
X110114026Y-67331425D01*
X110114325Y-67310000D01*
X110095256Y-67140000D01*
X110083797Y-67107092D01*
X110041314Y-66985097D01*
X110041313Y-66985095D01*
X110038999Y-66978450D01*
X109948348Y-66833378D01*
X109827809Y-66711994D01*
X109762539Y-66670573D01*
X109689316Y-66624104D01*
X109689313Y-66624102D01*
X109683373Y-66620333D01*
X109676740Y-66617971D01*
X109528854Y-66565311D01*
X109528849Y-66565310D01*
X109522219Y-66562949D01*
X109515231Y-66562116D01*
X109515228Y-66562115D01*
X109392661Y-66547500D01*
X109352357Y-66542694D01*
X109349377Y-66543007D01*
X109282931Y-66522992D01*
X109262694Y-66506567D01*
X102911922Y-60155795D01*
X102877896Y-60093483D01*
X102875287Y-60073756D01*
X102875325Y-60071000D01*
X102856256Y-59901000D01*
X102799999Y-59739450D01*
X102709348Y-59594378D01*
X102696159Y-59581096D01*
X102593772Y-59477992D01*
X102588809Y-59472994D01*
X102484210Y-59406614D01*
X102450316Y-59385104D01*
X102450313Y-59385102D01*
X102444373Y-59381333D01*
X102437740Y-59378971D01*
X102289854Y-59326311D01*
X102289849Y-59326310D01*
X102283219Y-59323949D01*
X102276231Y-59323116D01*
X102276228Y-59323115D01*
X102160655Y-59309334D01*
X102113357Y-59303694D01*
X102106354Y-59304430D01*
X102106353Y-59304430D01*
X102061958Y-59309096D01*
X101943228Y-59321575D01*
X101933071Y-59325033D01*
X101787956Y-59374434D01*
X101787953Y-59374435D01*
X101781289Y-59376704D01*
X101635588Y-59466340D01*
X101630557Y-59471267D01*
X101630554Y-59471269D01*
X101607327Y-59494015D01*
X101513366Y-59586028D01*
X101509547Y-59591953D01*
X101509546Y-59591955D01*
X101504135Y-59600352D01*
X101420698Y-59729820D01*
X101418287Y-59736443D01*
X101418286Y-59736446D01*
X101364600Y-59883947D01*
X101364599Y-59883952D01*
X101362190Y-59890570D01*
X101340750Y-60060286D01*
X101357443Y-60230536D01*
X101411440Y-60392856D01*
X101415087Y-60398878D01*
X101415088Y-60398880D01*
X101496406Y-60533154D01*
X101496409Y-60533157D01*
X101500056Y-60539180D01*
X101618889Y-60662234D01*
X101762030Y-60755903D01*
X101763609Y-60756490D01*
X101813846Y-60803608D01*
X101831151Y-60872463D01*
X101808484Y-60939744D01*
X101793407Y-60957527D01*
X101767366Y-60983028D01*
X101763547Y-60988953D01*
X101763546Y-60988955D01*
X101726597Y-61046289D01*
X101674698Y-61126820D01*
X101672287Y-61133443D01*
X101672286Y-61133446D01*
X101618600Y-61280947D01*
X101618599Y-61280952D01*
X101616190Y-61287570D01*
X101594750Y-61457286D01*
X101611443Y-61627536D01*
X101665440Y-61789856D01*
X101669087Y-61795878D01*
X101669088Y-61795880D01*
X101750406Y-61930154D01*
X101750409Y-61930157D01*
X101754056Y-61936180D01*
X101872889Y-62059234D01*
X102016030Y-62152903D01*
X102022634Y-62155359D01*
X102022636Y-62155360D01*
X102169757Y-62210074D01*
X102169759Y-62210074D01*
X102176367Y-62212532D01*
X102345930Y-62235157D01*
X102352949Y-62234518D01*
X102359956Y-62234665D01*
X102427643Y-62256087D01*
X102446415Y-62271542D01*
X108416782Y-68241910D01*
X108450808Y-68304222D01*
X108453085Y-68318705D01*
X108469443Y-68485536D01*
X108523440Y-68647856D01*
X108527087Y-68653878D01*
X108527088Y-68653880D01*
X108596945Y-68769229D01*
X108615124Y-68837859D01*
X108593313Y-68905422D01*
X108538437Y-68950468D01*
X108489169Y-68960500D01*
X106264239Y-68960500D01*
X106196118Y-68940498D01*
X106175144Y-68923595D01*
X104304405Y-67052857D01*
X104270380Y-66990545D01*
X104267500Y-66963762D01*
X104267500Y-65481843D01*
X104267154Y-65478309D01*
X104261413Y-65419759D01*
X104252965Y-65333606D01*
X104251184Y-65327707D01*
X104251183Y-65327702D01*
X104197129Y-65148667D01*
X104195348Y-65142768D01*
X104101761Y-64966756D01*
X104097871Y-64961986D01*
X104097868Y-64961982D01*
X103979663Y-64817049D01*
X103979660Y-64817046D01*
X103975768Y-64812274D01*
X103822170Y-64685206D01*
X103646815Y-64590392D01*
X103456385Y-64531444D01*
X103450260Y-64530800D01*
X103450259Y-64530800D01*
X103264260Y-64511251D01*
X103264258Y-64511251D01*
X103258131Y-64510607D01*
X103135252Y-64521790D01*
X103065746Y-64528115D01*
X103065745Y-64528115D01*
X103059605Y-64528674D01*
X103053691Y-64530415D01*
X103053689Y-64530415D01*
X102923539Y-64568721D01*
X102868370Y-64584958D01*
X102691709Y-64677314D01*
X102686909Y-64681174D01*
X102686908Y-64681174D01*
X102681893Y-64685206D01*
X102536351Y-64802225D01*
X102408214Y-64954933D01*
X102312179Y-65129621D01*
X102310318Y-65135488D01*
X102310317Y-65135490D01*
X102261992Y-65287829D01*
X102251902Y-65319635D01*
X102234500Y-65474784D01*
X102234500Y-67374724D01*
X102233763Y-67388332D01*
X102230702Y-67416513D01*
X102229638Y-67426304D01*
X102230175Y-67432439D01*
X102234046Y-67476690D01*
X102234375Y-67481518D01*
X102234500Y-67484073D01*
X102234500Y-67487157D01*
X102234801Y-67490224D01*
X102238722Y-67530219D01*
X102238844Y-67531532D01*
X102247012Y-67624892D01*
X102248511Y-67630052D01*
X102249035Y-67635394D01*
X102265824Y-67691000D01*
X102276098Y-67725031D01*
X102276455Y-67726236D01*
X102302628Y-67816322D01*
X102305100Y-67821090D01*
X102306652Y-67826232D01*
X102309547Y-67831677D01*
X102309550Y-67831684D01*
X102350633Y-67908950D01*
X102351213Y-67910054D01*
X102394366Y-67993304D01*
X102397718Y-67997503D01*
X102400239Y-68002244D01*
X102404131Y-68007016D01*
X102459438Y-68074829D01*
X102460266Y-68075855D01*
X102479211Y-68099586D01*
X102491768Y-68115316D01*
X102494263Y-68117811D01*
X102494973Y-68118605D01*
X102498693Y-68122960D01*
X102522337Y-68151951D01*
X102522340Y-68151954D01*
X102526232Y-68156726D01*
X102530980Y-68160654D01*
X102530981Y-68160655D01*
X102561873Y-68186211D01*
X102570652Y-68194200D01*
X105028185Y-70651733D01*
X105037286Y-70661875D01*
X105061225Y-70691649D01*
X105100002Y-70724187D01*
X105103629Y-70727351D01*
X105105498Y-70729046D01*
X105107692Y-70731240D01*
X105141258Y-70758812D01*
X105142055Y-70759474D01*
X105213933Y-70819786D01*
X105218639Y-70822373D01*
X105222789Y-70825782D01*
X105228218Y-70828693D01*
X105228221Y-70828695D01*
X105305394Y-70870075D01*
X105306552Y-70870704D01*
X105383214Y-70912849D01*
X105383218Y-70912851D01*
X105388621Y-70915821D01*
X105393739Y-70917444D01*
X105398473Y-70919983D01*
X105488023Y-70947361D01*
X105489227Y-70947736D01*
X105578635Y-70976098D01*
X105583978Y-70976697D01*
X105589109Y-70978266D01*
X105595234Y-70978888D01*
X105595238Y-70978889D01*
X105637440Y-70983175D01*
X105682341Y-70987736D01*
X105683461Y-70987856D01*
X105733784Y-70993500D01*
X105737290Y-70993500D01*
X105738416Y-70993563D01*
X105744112Y-70994011D01*
X105781305Y-70997789D01*
X105781311Y-70997789D01*
X105787434Y-70998411D01*
X105833476Y-70994059D01*
X105845333Y-70993500D01*
X109935784Y-70993500D01*
X109988535Y-71005074D01*
X110106657Y-71059529D01*
X110310351Y-71111260D01*
X110520061Y-71125006D01*
X110728765Y-71100303D01*
X110929473Y-71037982D01*
X111115463Y-70940129D01*
X111141210Y-70919832D01*
X111172791Y-70894935D01*
X111250404Y-70833749D01*
X117973904Y-64110249D01*
X117979922Y-64104612D01*
X118024280Y-64065711D01*
X118028619Y-64061906D01*
X118083393Y-63992427D01*
X118085453Y-63989883D01*
X118138328Y-63926308D01*
X118138335Y-63926298D01*
X118142025Y-63921861D01*
X118144850Y-63916817D01*
X118146951Y-63913759D01*
X118153152Y-63904479D01*
X118155155Y-63901395D01*
X118158728Y-63896863D01*
X118161412Y-63891762D01*
X118161415Y-63891757D01*
X118199919Y-63818571D01*
X118201494Y-63815671D01*
X118241890Y-63743540D01*
X118241891Y-63743538D01*
X118244714Y-63738497D01*
X118246572Y-63733022D01*
X118248081Y-63729633D01*
X118252489Y-63719374D01*
X118253894Y-63715982D01*
X118256582Y-63710873D01*
X118282814Y-63626394D01*
X118283830Y-63623264D01*
X118310410Y-63544963D01*
X118310410Y-63544961D01*
X118312268Y-63539489D01*
X118313098Y-63533765D01*
X118313965Y-63530153D01*
X118316430Y-63519262D01*
X118317191Y-63515684D01*
X118318904Y-63510166D01*
X118329303Y-63422299D01*
X118329734Y-63419026D01*
X118341597Y-63337216D01*
X118341597Y-63337212D01*
X118342425Y-63331503D01*
X118339197Y-63249346D01*
X118339100Y-63244399D01*
X118339100Y-59501838D01*
X118359102Y-59433717D01*
X118412758Y-59387224D01*
X118483032Y-59377120D01*
X118547612Y-59406614D01*
X118554195Y-59412743D01*
X119861785Y-60720333D01*
X119870886Y-60730475D01*
X119894825Y-60760249D01*
X119933602Y-60792787D01*
X119937229Y-60795951D01*
X119939098Y-60797646D01*
X119941292Y-60799840D01*
X119974858Y-60827412D01*
X119975655Y-60828074D01*
X120047533Y-60888386D01*
X120052239Y-60890973D01*
X120056389Y-60894382D01*
X120061813Y-60897290D01*
X120061823Y-60897297D01*
X120138968Y-60938661D01*
X120140128Y-60939290D01*
X120222221Y-60984421D01*
X120227341Y-60986045D01*
X120232074Y-60988583D01*
X120311316Y-61012810D01*
X120321593Y-61015952D01*
X120322852Y-61016344D01*
X120406361Y-61042835D01*
X120406365Y-61042836D01*
X120412235Y-61044698D01*
X120417573Y-61045297D01*
X120422709Y-61046867D01*
X120428839Y-61047490D01*
X120428841Y-61047490D01*
X120456337Y-61050283D01*
X120515968Y-61056339D01*
X120517108Y-61056461D01*
X120567384Y-61062100D01*
X120570890Y-61062100D01*
X120572016Y-61062163D01*
X120577710Y-61062611D01*
X120614905Y-61066389D01*
X120614911Y-61066389D01*
X120621035Y-61067011D01*
X120667077Y-61062659D01*
X120678934Y-61062100D01*
X122597830Y-61062100D01*
X122670100Y-61084887D01*
X122710284Y-61113024D01*
X122710290Y-61113027D01*
X122714798Y-61116184D01*
X122719780Y-61118507D01*
X122719785Y-61118510D01*
X122905111Y-61204929D01*
X122910093Y-61207252D01*
X122915401Y-61208674D01*
X122915403Y-61208675D01*
X123112920Y-61261599D01*
X123112922Y-61261599D01*
X123118235Y-61263023D01*
X123332900Y-61281804D01*
X123547565Y-61263023D01*
X123552878Y-61261599D01*
X123552880Y-61261599D01*
X123750397Y-61208675D01*
X123750399Y-61208674D01*
X123755707Y-61207252D01*
X123760689Y-61204929D01*
X123946015Y-61118510D01*
X123946020Y-61118507D01*
X123951002Y-61116184D01*
X123995699Y-61084887D01*
X124123006Y-60995746D01*
X124123009Y-60995744D01*
X124127517Y-60992587D01*
X124279887Y-60840217D01*
X124288949Y-60827276D01*
X124373236Y-60706901D01*
X124403484Y-60663702D01*
X124405808Y-60658719D01*
X124406736Y-60657111D01*
X124458119Y-60608118D01*
X124527832Y-60594682D01*
X124593743Y-60621069D01*
X124634925Y-60678901D01*
X124641466Y-60710224D01*
X124643712Y-60738754D01*
X124643713Y-60738761D01*
X124644218Y-60745174D01*
X124646011Y-60751346D01*
X124646012Y-60751351D01*
X124678548Y-60863340D01*
X124688732Y-60898392D01*
X124692767Y-60905215D01*
X124746307Y-60995746D01*
X124769951Y-61035727D01*
X124882773Y-61148549D01*
X125020108Y-61229768D01*
X125027719Y-61231979D01*
X125027721Y-61231980D01*
X125167149Y-61272488D01*
X125167154Y-61272489D01*
X125173326Y-61274282D01*
X125179731Y-61274786D01*
X125179736Y-61274787D01*
X125206674Y-61276907D01*
X125206682Y-61276907D01*
X125209130Y-61277100D01*
X126536670Y-61277100D01*
X126539118Y-61276907D01*
X126539126Y-61276907D01*
X126566064Y-61274787D01*
X126566069Y-61274786D01*
X126572474Y-61274282D01*
X126578646Y-61272489D01*
X126578651Y-61272488D01*
X126718079Y-61231980D01*
X126718081Y-61231979D01*
X126725692Y-61229768D01*
X126863027Y-61148549D01*
X126975849Y-61035727D01*
X126999494Y-60995746D01*
X127053033Y-60905215D01*
X127057068Y-60898392D01*
X127067252Y-60863340D01*
X127099788Y-60751351D01*
X127099789Y-60751346D01*
X127101582Y-60745174D01*
X127102088Y-60738754D01*
X127104207Y-60711826D01*
X127104207Y-60711818D01*
X127104400Y-60709370D01*
X127104400Y-59381830D01*
X127104175Y-59378971D01*
X127102087Y-59352436D01*
X127102086Y-59352431D01*
X127101582Y-59346026D01*
X127099789Y-59339854D01*
X127099788Y-59339849D01*
X127059280Y-59200421D01*
X127059279Y-59200419D01*
X127057068Y-59192808D01*
X127001362Y-59098613D01*
X126979883Y-59062294D01*
X126979883Y-59062293D01*
X126975849Y-59055473D01*
X126863027Y-58942651D01*
X126820905Y-58917740D01*
X126732515Y-58865467D01*
X126725692Y-58861432D01*
X126718081Y-58859221D01*
X126718079Y-58859220D01*
X126578651Y-58818712D01*
X126578646Y-58818711D01*
X126572474Y-58816918D01*
X126566061Y-58816413D01*
X126566054Y-58816412D01*
X126537524Y-58814166D01*
X126471182Y-58788881D01*
X126429043Y-58731742D01*
X126424485Y-58660892D01*
X126458955Y-58598825D01*
X126484411Y-58579436D01*
X126486019Y-58578508D01*
X126491002Y-58576184D01*
X126566276Y-58523477D01*
X126663006Y-58455746D01*
X126663009Y-58455744D01*
X126667517Y-58452587D01*
X126819887Y-58300217D01*
X126844911Y-58264480D01*
X126940327Y-58128211D01*
X126940328Y-58128209D01*
X126943484Y-58123702D01*
X126945807Y-58118720D01*
X126945810Y-58118715D01*
X127032229Y-57933389D01*
X127032230Y-57933387D01*
X127034552Y-57928407D01*
X127042554Y-57898545D01*
X127088899Y-57725580D01*
X127088899Y-57725578D01*
X127090323Y-57720265D01*
X127109104Y-57505600D01*
X127090323Y-57290935D01*
X127034552Y-57082793D01*
X126982751Y-56971706D01*
X126945810Y-56892485D01*
X126945807Y-56892480D01*
X126943484Y-56887498D01*
X126928721Y-56866414D01*
X126823046Y-56715494D01*
X126823044Y-56715491D01*
X126819887Y-56710983D01*
X126667517Y-56558613D01*
X126663009Y-56555456D01*
X126663006Y-56555454D01*
X126495511Y-56438173D01*
X126495509Y-56438172D01*
X126491002Y-56435016D01*
X126486020Y-56432693D01*
X126486015Y-56432690D01*
X126308246Y-56349795D01*
X126254961Y-56302877D01*
X126235500Y-56234600D01*
X126256042Y-56166640D01*
X126308246Y-56121405D01*
X126486015Y-56038510D01*
X126486020Y-56038507D01*
X126491002Y-56036184D01*
X126499694Y-56030098D01*
X126663006Y-55915746D01*
X126663009Y-55915744D01*
X126667517Y-55912587D01*
X126819887Y-55760217D01*
X126844911Y-55724480D01*
X126940327Y-55588211D01*
X126940328Y-55588209D01*
X126943484Y-55583702D01*
X126945807Y-55578720D01*
X126945810Y-55578715D01*
X127032229Y-55393389D01*
X127032230Y-55393387D01*
X127034552Y-55388407D01*
X127040147Y-55367528D01*
X127088899Y-55185580D01*
X127088899Y-55185578D01*
X127090323Y-55180265D01*
X127109104Y-54965600D01*
X127090323Y-54750935D01*
X127070480Y-54676879D01*
X127035975Y-54548103D01*
X127035974Y-54548101D01*
X127034552Y-54542793D01*
X127024088Y-54520352D01*
X126945810Y-54352485D01*
X126945807Y-54352480D01*
X126943484Y-54347498D01*
X126923279Y-54318642D01*
X126823046Y-54175494D01*
X126823044Y-54175491D01*
X126819887Y-54170983D01*
X126667517Y-54018613D01*
X126663009Y-54015456D01*
X126663006Y-54015454D01*
X126495511Y-53898173D01*
X126495509Y-53898172D01*
X126491002Y-53895016D01*
X126486020Y-53892693D01*
X126486015Y-53892690D01*
X126308246Y-53809795D01*
X126254961Y-53762877D01*
X126235500Y-53694600D01*
X126256042Y-53626640D01*
X126308246Y-53581405D01*
X126486015Y-53498510D01*
X126486020Y-53498507D01*
X126491002Y-53496184D01*
X126571243Y-53439999D01*
X126663006Y-53375746D01*
X126663009Y-53375744D01*
X126667517Y-53372587D01*
X126819887Y-53220217D01*
X126831163Y-53204114D01*
X126940327Y-53048211D01*
X126940328Y-53048209D01*
X126943484Y-53043702D01*
X126945807Y-53038720D01*
X126945810Y-53038715D01*
X127032229Y-52853389D01*
X127032230Y-52853387D01*
X127034552Y-52848407D01*
X127090323Y-52640265D01*
X127109104Y-52425600D01*
X127090323Y-52210935D01*
X127034552Y-52002793D01*
X127032229Y-51997811D01*
X126945810Y-51812485D01*
X126945807Y-51812480D01*
X126943484Y-51807498D01*
X126928721Y-51786414D01*
X126823046Y-51635494D01*
X126823044Y-51635491D01*
X126819887Y-51630983D01*
X126667517Y-51478613D01*
X126663009Y-51475456D01*
X126663006Y-51475454D01*
X126495511Y-51358173D01*
X126495509Y-51358172D01*
X126491002Y-51355016D01*
X126486020Y-51352693D01*
X126486015Y-51352690D01*
X126308246Y-51269795D01*
X126254961Y-51222877D01*
X126235500Y-51154600D01*
X126256042Y-51086640D01*
X126308246Y-51041405D01*
X126486015Y-50958510D01*
X126486020Y-50958507D01*
X126491002Y-50956184D01*
X126533144Y-50926676D01*
X126663006Y-50835746D01*
X126663009Y-50835744D01*
X126667517Y-50832587D01*
X126819887Y-50680217D01*
X126844911Y-50644480D01*
X126940327Y-50508211D01*
X126940328Y-50508209D01*
X126943484Y-50503702D01*
X126945807Y-50498720D01*
X126945810Y-50498715D01*
X127032229Y-50313389D01*
X127032230Y-50313387D01*
X127034552Y-50308407D01*
X127052252Y-50242351D01*
X127088899Y-50105580D01*
X127088899Y-50105578D01*
X127090323Y-50100265D01*
X127109104Y-49885600D01*
X127090323Y-49670935D01*
X127069295Y-49592455D01*
X127035975Y-49468103D01*
X127035974Y-49468101D01*
X127034552Y-49462793D01*
X127029683Y-49452352D01*
X126945810Y-49272485D01*
X126945807Y-49272480D01*
X126943484Y-49267498D01*
X126928721Y-49246414D01*
X126823046Y-49095494D01*
X126823044Y-49095491D01*
X126819887Y-49090983D01*
X126667517Y-48938613D01*
X126663009Y-48935456D01*
X126663006Y-48935454D01*
X126495511Y-48818173D01*
X126495509Y-48818172D01*
X126491002Y-48815016D01*
X126486020Y-48812693D01*
X126486015Y-48812690D01*
X126300689Y-48726271D01*
X126300687Y-48726270D01*
X126295707Y-48723948D01*
X126290399Y-48722526D01*
X126290397Y-48722525D01*
X126092880Y-48669601D01*
X126092878Y-48669601D01*
X126087565Y-48668177D01*
X125872900Y-48649396D01*
X125658235Y-48668177D01*
X125652922Y-48669601D01*
X125652920Y-48669601D01*
X125455403Y-48722525D01*
X125455401Y-48722526D01*
X125450093Y-48723948D01*
X125445113Y-48726270D01*
X125445111Y-48726271D01*
X125259785Y-48812690D01*
X125259780Y-48812693D01*
X125254798Y-48815016D01*
X125250291Y-48818172D01*
X125250289Y-48818173D01*
X125082794Y-48935454D01*
X125082791Y-48935456D01*
X125078283Y-48938613D01*
X124925913Y-49090983D01*
X124922756Y-49095491D01*
X124922754Y-49095494D01*
X124817079Y-49246414D01*
X124802316Y-49267498D01*
X124799993Y-49272479D01*
X124799987Y-49272490D01*
X124787391Y-49299503D01*
X124740474Y-49352788D01*
X124672196Y-49372248D01*
X124604237Y-49351706D01*
X124557647Y-49296494D01*
X124535872Y-49246414D01*
X124531005Y-49237339D01*
X124465963Y-49136797D01*
X124455277Y-49127595D01*
X124445712Y-49131998D01*
X123704922Y-49872788D01*
X123697308Y-49886732D01*
X123697439Y-49888565D01*
X123701690Y-49895180D01*
X124443374Y-50636864D01*
X124455384Y-50643423D01*
X124467123Y-50634455D01*
X124497904Y-50591619D01*
X124503215Y-50582780D01*
X124559827Y-50468235D01*
X124607941Y-50416028D01*
X124676642Y-50398121D01*
X124744119Y-50420200D01*
X124786979Y-50470812D01*
X124799990Y-50498715D01*
X124799993Y-50498720D01*
X124802316Y-50503702D01*
X124805472Y-50508209D01*
X124805473Y-50508211D01*
X124900890Y-50644480D01*
X124925913Y-50680217D01*
X125078283Y-50832587D01*
X125082791Y-50835744D01*
X125082794Y-50835746D01*
X125212656Y-50926676D01*
X125254798Y-50956184D01*
X125259780Y-50958507D01*
X125259785Y-50958510D01*
X125437554Y-51041405D01*
X125490839Y-51088323D01*
X125510300Y-51156600D01*
X125489758Y-51224560D01*
X125437554Y-51269795D01*
X125259785Y-51352690D01*
X125259780Y-51352693D01*
X125254798Y-51355016D01*
X125250291Y-51358172D01*
X125250289Y-51358173D01*
X125082794Y-51475454D01*
X125082791Y-51475456D01*
X125078283Y-51478613D01*
X124925913Y-51630983D01*
X124922756Y-51635491D01*
X124922754Y-51635494D01*
X124817079Y-51786414D01*
X124802316Y-51807498D01*
X124799993Y-51812479D01*
X124799987Y-51812490D01*
X124787391Y-51839503D01*
X124740474Y-51892788D01*
X124672196Y-51912248D01*
X124604237Y-51891706D01*
X124557647Y-51836494D01*
X124535872Y-51786414D01*
X124531005Y-51777339D01*
X124465963Y-51676797D01*
X124455277Y-51667595D01*
X124445712Y-51671998D01*
X123704922Y-52412788D01*
X123697308Y-52426732D01*
X123697439Y-52428565D01*
X123701690Y-52435180D01*
X124443374Y-53176864D01*
X124455384Y-53183423D01*
X124467123Y-53174455D01*
X124497904Y-53131619D01*
X124503215Y-53122780D01*
X124559827Y-53008235D01*
X124607941Y-52956028D01*
X124676642Y-52938121D01*
X124744119Y-52960200D01*
X124786979Y-53010812D01*
X124799990Y-53038715D01*
X124799993Y-53038720D01*
X124802316Y-53043702D01*
X124805472Y-53048209D01*
X124805473Y-53048211D01*
X124914638Y-53204114D01*
X124925913Y-53220217D01*
X125078283Y-53372587D01*
X125082791Y-53375744D01*
X125082794Y-53375746D01*
X125174557Y-53439999D01*
X125254798Y-53496184D01*
X125259780Y-53498507D01*
X125259785Y-53498510D01*
X125437554Y-53581405D01*
X125490839Y-53628323D01*
X125510300Y-53696600D01*
X125489758Y-53764560D01*
X125437554Y-53809795D01*
X125259785Y-53892690D01*
X125259780Y-53892693D01*
X125254798Y-53895016D01*
X125250291Y-53898172D01*
X125250289Y-53898173D01*
X125082794Y-54015454D01*
X125082791Y-54015456D01*
X125078283Y-54018613D01*
X124925913Y-54170983D01*
X124922756Y-54175491D01*
X124922754Y-54175494D01*
X124822521Y-54318642D01*
X124802316Y-54347498D01*
X124799993Y-54352479D01*
X124799987Y-54352490D01*
X124787391Y-54379503D01*
X124740474Y-54432788D01*
X124672196Y-54452248D01*
X124604237Y-54431706D01*
X124557647Y-54376494D01*
X124535872Y-54326414D01*
X124531005Y-54317339D01*
X124465963Y-54216797D01*
X124455277Y-54207595D01*
X124445712Y-54211998D01*
X123704922Y-54952788D01*
X123697308Y-54966732D01*
X123697439Y-54968565D01*
X123701690Y-54975180D01*
X124443374Y-55716864D01*
X124455384Y-55723423D01*
X124467123Y-55714455D01*
X124497904Y-55671619D01*
X124503215Y-55662780D01*
X124559827Y-55548235D01*
X124607941Y-55496028D01*
X124676642Y-55478121D01*
X124744119Y-55500200D01*
X124786979Y-55550812D01*
X124799990Y-55578715D01*
X124799993Y-55578720D01*
X124802316Y-55583702D01*
X124805472Y-55588209D01*
X124805473Y-55588211D01*
X124900890Y-55724480D01*
X124925913Y-55760217D01*
X125078283Y-55912587D01*
X125082791Y-55915744D01*
X125082794Y-55915746D01*
X125246106Y-56030098D01*
X125254798Y-56036184D01*
X125259780Y-56038507D01*
X125259785Y-56038510D01*
X125437554Y-56121405D01*
X125490839Y-56168323D01*
X125510300Y-56236600D01*
X125489758Y-56304560D01*
X125437554Y-56349795D01*
X125259785Y-56432690D01*
X125259780Y-56432693D01*
X125254798Y-56435016D01*
X125250291Y-56438172D01*
X125250289Y-56438173D01*
X125082794Y-56555454D01*
X125082791Y-56555456D01*
X125078283Y-56558613D01*
X124925913Y-56710983D01*
X124922756Y-56715491D01*
X124922754Y-56715494D01*
X124817079Y-56866414D01*
X124802316Y-56887498D01*
X124799993Y-56892479D01*
X124799987Y-56892490D01*
X124787391Y-56919503D01*
X124740474Y-56972788D01*
X124672196Y-56992248D01*
X124604237Y-56971706D01*
X124557647Y-56916494D01*
X124535872Y-56866414D01*
X124531005Y-56857339D01*
X124465963Y-56756797D01*
X124455277Y-56747595D01*
X124445712Y-56751998D01*
X123704922Y-57492788D01*
X123697308Y-57506732D01*
X123697439Y-57508565D01*
X123701690Y-57515180D01*
X124443374Y-58256864D01*
X124455384Y-58263423D01*
X124467123Y-58254455D01*
X124497904Y-58211619D01*
X124503215Y-58202780D01*
X124559827Y-58088235D01*
X124607941Y-58036028D01*
X124676642Y-58018121D01*
X124744119Y-58040200D01*
X124786979Y-58090812D01*
X124799990Y-58118715D01*
X124799993Y-58118720D01*
X124802316Y-58123702D01*
X124805472Y-58128209D01*
X124805473Y-58128211D01*
X124900890Y-58264480D01*
X124925913Y-58300217D01*
X125078283Y-58452587D01*
X125082791Y-58455744D01*
X125082794Y-58455746D01*
X125179524Y-58523477D01*
X125254798Y-58576184D01*
X125259781Y-58578508D01*
X125261389Y-58579436D01*
X125310382Y-58630819D01*
X125323818Y-58700532D01*
X125297431Y-58766443D01*
X125239599Y-58807625D01*
X125208276Y-58814166D01*
X125179746Y-58816412D01*
X125179739Y-58816413D01*
X125173326Y-58816918D01*
X125167154Y-58818711D01*
X125167149Y-58818712D01*
X125027721Y-58859220D01*
X125027719Y-58859221D01*
X125020108Y-58861432D01*
X125013285Y-58865467D01*
X124924896Y-58917740D01*
X124882773Y-58942651D01*
X124769951Y-59055473D01*
X124765917Y-59062293D01*
X124765917Y-59062294D01*
X124744438Y-59098613D01*
X124688732Y-59192808D01*
X124686521Y-59200419D01*
X124686520Y-59200421D01*
X124646012Y-59339849D01*
X124646011Y-59339854D01*
X124644218Y-59346026D01*
X124643713Y-59352439D01*
X124643712Y-59352446D01*
X124641466Y-59380976D01*
X124616181Y-59447318D01*
X124559042Y-59489457D01*
X124488192Y-59494015D01*
X124426125Y-59459545D01*
X124406736Y-59434089D01*
X124405808Y-59432481D01*
X124403484Y-59427498D01*
X124330978Y-59323949D01*
X124283046Y-59255494D01*
X124283044Y-59255491D01*
X124279887Y-59250983D01*
X124127517Y-59098613D01*
X124123009Y-59095456D01*
X124123006Y-59095454D01*
X123955511Y-58978173D01*
X123955509Y-58978172D01*
X123951002Y-58975016D01*
X123935458Y-58967768D01*
X123918034Y-58959642D01*
X123864750Y-58912724D01*
X123845290Y-58844446D01*
X123865833Y-58776487D01*
X123915854Y-58732296D01*
X124026003Y-58678335D01*
X124034844Y-58673065D01*
X124082147Y-58639323D01*
X124090548Y-58628623D01*
X124083560Y-58615470D01*
X123345712Y-57877622D01*
X123331768Y-57870008D01*
X123329935Y-57870139D01*
X123323320Y-57874390D01*
X122579637Y-58618073D01*
X122572877Y-58630453D01*
X122578158Y-58637507D01*
X122739653Y-58731877D01*
X122744183Y-58734048D01*
X122796972Y-58781522D01*
X122815715Y-58850000D01*
X122794460Y-58917740D01*
X122742985Y-58961872D01*
X122719789Y-58972688D01*
X122719786Y-58972690D01*
X122714798Y-58975016D01*
X122710290Y-58978173D01*
X122710284Y-58978176D01*
X122670100Y-59006313D01*
X122597830Y-59029100D01*
X121097838Y-59029100D01*
X121029717Y-59009098D01*
X121008743Y-58992195D01*
X119494011Y-57477463D01*
X121970950Y-57477463D01*
X121983209Y-57690077D01*
X121984645Y-57700297D01*
X122031465Y-57908046D01*
X122034545Y-57917875D01*
X122114670Y-58115203D01*
X122119313Y-58124394D01*
X122199360Y-58255020D01*
X122209816Y-58264480D01*
X122218594Y-58260696D01*
X122960878Y-57518412D01*
X122968492Y-57504468D01*
X122968361Y-57502635D01*
X122964110Y-57496020D01*
X122222749Y-56754659D01*
X122211213Y-56748359D01*
X122198931Y-56757982D01*
X122150989Y-56828262D01*
X122145904Y-56837213D01*
X122056238Y-57030383D01*
X122052675Y-57040070D01*
X121995764Y-57245281D01*
X121993833Y-57255400D01*
X121971202Y-57467174D01*
X121970950Y-57477463D01*
X119494011Y-57477463D01*
X118837446Y-56820898D01*
X118803420Y-56758586D01*
X118808485Y-56687771D01*
X118837446Y-56642708D01*
X119389701Y-56090453D01*
X122572877Y-56090453D01*
X122578158Y-56097507D01*
X122625379Y-56125101D01*
X122674103Y-56176739D01*
X122687174Y-56246522D01*
X122660443Y-56312294D01*
X122619987Y-56345653D01*
X122611366Y-56350141D01*
X122602634Y-56355639D01*
X122582577Y-56370699D01*
X122574123Y-56382027D01*
X122580868Y-56394358D01*
X123320088Y-57133578D01*
X123334032Y-57141192D01*
X123335865Y-57141061D01*
X123342480Y-57136810D01*
X124086289Y-56393001D01*
X124093310Y-56380144D01*
X124086511Y-56370813D01*
X124082459Y-56368121D01*
X124045016Y-56347452D01*
X123995045Y-56297020D01*
X123980273Y-56227577D01*
X124005389Y-56161172D01*
X124032740Y-56134565D01*
X124082147Y-56099323D01*
X124090548Y-56088623D01*
X124083560Y-56075470D01*
X123345712Y-55337622D01*
X123331768Y-55330008D01*
X123329935Y-55330139D01*
X123323320Y-55334390D01*
X122579637Y-56078073D01*
X122572877Y-56090453D01*
X119389701Y-56090453D01*
X120542691Y-54937463D01*
X121970950Y-54937463D01*
X121983209Y-55150077D01*
X121984645Y-55160297D01*
X122031465Y-55368046D01*
X122034545Y-55377875D01*
X122114670Y-55575203D01*
X122119313Y-55584394D01*
X122199360Y-55715020D01*
X122209816Y-55724480D01*
X122218594Y-55720696D01*
X122960878Y-54978412D01*
X122968492Y-54964468D01*
X122968361Y-54962635D01*
X122964110Y-54956020D01*
X122222749Y-54214659D01*
X122211213Y-54208359D01*
X122198931Y-54217982D01*
X122150989Y-54288262D01*
X122145904Y-54297213D01*
X122056238Y-54490383D01*
X122052675Y-54500070D01*
X121995764Y-54705281D01*
X121993833Y-54715400D01*
X121971202Y-54927174D01*
X121970950Y-54937463D01*
X120542691Y-54937463D01*
X121174312Y-54305842D01*
X121180330Y-54300205D01*
X121204168Y-54279300D01*
X121229019Y-54257506D01*
X121232592Y-54252974D01*
X121283782Y-54188041D01*
X121285856Y-54185480D01*
X121338730Y-54121905D01*
X121338734Y-54121899D01*
X121342426Y-54117460D01*
X121345251Y-54112415D01*
X121347354Y-54109355D01*
X121353535Y-54100105D01*
X121355552Y-54096999D01*
X121359128Y-54092463D01*
X121400308Y-54014192D01*
X121401881Y-54011295D01*
X121445114Y-53934096D01*
X121446967Y-53928636D01*
X121448437Y-53925336D01*
X121452900Y-53914947D01*
X121454293Y-53911584D01*
X121456982Y-53906473D01*
X121459560Y-53898173D01*
X121471309Y-53860334D01*
X121483222Y-53821970D01*
X121484215Y-53818911D01*
X121512669Y-53735088D01*
X121513498Y-53729374D01*
X121514341Y-53725862D01*
X121516833Y-53714849D01*
X121517591Y-53711282D01*
X121519304Y-53705766D01*
X121520692Y-53694045D01*
X121529703Y-53617902D01*
X121530134Y-53614631D01*
X121539439Y-53550453D01*
X122572877Y-53550453D01*
X122578158Y-53557507D01*
X122625379Y-53585101D01*
X122674103Y-53636739D01*
X122687174Y-53706522D01*
X122660443Y-53772294D01*
X122619987Y-53805653D01*
X122611366Y-53810141D01*
X122602634Y-53815639D01*
X122582577Y-53830699D01*
X122574123Y-53842027D01*
X122580868Y-53854358D01*
X123320088Y-54593578D01*
X123334032Y-54601192D01*
X123335865Y-54601061D01*
X123342480Y-54596810D01*
X124086289Y-53853001D01*
X124093310Y-53840144D01*
X124086511Y-53830813D01*
X124082459Y-53828121D01*
X124045016Y-53807452D01*
X123995045Y-53757020D01*
X123980273Y-53687577D01*
X124005389Y-53621172D01*
X124032740Y-53594565D01*
X124082147Y-53559323D01*
X124090548Y-53548623D01*
X124083560Y-53535470D01*
X123345712Y-52797622D01*
X123331768Y-52790008D01*
X123329935Y-52790139D01*
X123323320Y-52794390D01*
X122579637Y-53538073D01*
X122572877Y-53550453D01*
X121539439Y-53550453D01*
X121542825Y-53527103D01*
X121539597Y-53444946D01*
X121539500Y-53439999D01*
X121539500Y-52397463D01*
X121970950Y-52397463D01*
X121983209Y-52610077D01*
X121984645Y-52620297D01*
X122031465Y-52828046D01*
X122034545Y-52837875D01*
X122114670Y-53035203D01*
X122119313Y-53044394D01*
X122199360Y-53175020D01*
X122209816Y-53184480D01*
X122218594Y-53180696D01*
X122960878Y-52438412D01*
X122968492Y-52424468D01*
X122968361Y-52422635D01*
X122964110Y-52416020D01*
X122222749Y-51674659D01*
X122211213Y-51668359D01*
X122198931Y-51677982D01*
X122150989Y-51748262D01*
X122145904Y-51757213D01*
X122056238Y-51950383D01*
X122052675Y-51960070D01*
X121995764Y-52165281D01*
X121993833Y-52175400D01*
X121971202Y-52387174D01*
X121970950Y-52397463D01*
X121539500Y-52397463D01*
X121539500Y-51010453D01*
X122572877Y-51010453D01*
X122578158Y-51017507D01*
X122625379Y-51045101D01*
X122674103Y-51096739D01*
X122687174Y-51166522D01*
X122660443Y-51232294D01*
X122619987Y-51265653D01*
X122611366Y-51270141D01*
X122602634Y-51275639D01*
X122582577Y-51290699D01*
X122574123Y-51302027D01*
X122580868Y-51314358D01*
X123320088Y-52053578D01*
X123334032Y-52061192D01*
X123335865Y-52061061D01*
X123342480Y-52056810D01*
X124086289Y-51313001D01*
X124093310Y-51300144D01*
X124086511Y-51290813D01*
X124082459Y-51288121D01*
X124045016Y-51267452D01*
X123995045Y-51217020D01*
X123980273Y-51147577D01*
X124005389Y-51081172D01*
X124032740Y-51054565D01*
X124082147Y-51019323D01*
X124090548Y-51008623D01*
X124083560Y-50995470D01*
X123345712Y-50257622D01*
X123331768Y-50250008D01*
X123329935Y-50250139D01*
X123323320Y-50254390D01*
X122579637Y-50998073D01*
X122572877Y-51010453D01*
X121539500Y-51010453D01*
X121539500Y-49857463D01*
X121970950Y-49857463D01*
X121983209Y-50070077D01*
X121984645Y-50080297D01*
X122031465Y-50288046D01*
X122034545Y-50297875D01*
X122114670Y-50495203D01*
X122119313Y-50504394D01*
X122199360Y-50635020D01*
X122209816Y-50644480D01*
X122218594Y-50640696D01*
X122960878Y-49898412D01*
X122968492Y-49884468D01*
X122968361Y-49882635D01*
X122964110Y-49876020D01*
X122222749Y-49134659D01*
X122211213Y-49128359D01*
X122198931Y-49137982D01*
X122150989Y-49208262D01*
X122145904Y-49217213D01*
X122056238Y-49410383D01*
X122052675Y-49420070D01*
X121995764Y-49625281D01*
X121993833Y-49635400D01*
X121971202Y-49847174D01*
X121970950Y-49857463D01*
X121539500Y-49857463D01*
X121539500Y-48762027D01*
X122574123Y-48762027D01*
X122580868Y-48774358D01*
X123320088Y-49513578D01*
X123334032Y-49521192D01*
X123335865Y-49521061D01*
X123342480Y-49516810D01*
X124086289Y-48773001D01*
X124093310Y-48760144D01*
X124086511Y-48750813D01*
X124082454Y-48748118D01*
X123896017Y-48645199D01*
X123886605Y-48640969D01*
X123685859Y-48569880D01*
X123675889Y-48567246D01*
X123466227Y-48529901D01*
X123455973Y-48528931D01*
X123243016Y-48526328D01*
X123232732Y-48527048D01*
X123022221Y-48559261D01*
X123012193Y-48561650D01*
X122809768Y-48627812D01*
X122800259Y-48631809D01*
X122611366Y-48730140D01*
X122602634Y-48735639D01*
X122582577Y-48750699D01*
X122574123Y-48762027D01*
X121539500Y-48762027D01*
X121539500Y-48032425D01*
X121539770Y-48024184D01*
X121543628Y-47965325D01*
X121544006Y-47959559D01*
X121533601Y-47871647D01*
X121533261Y-47868406D01*
X121525698Y-47786098D01*
X121525169Y-47780341D01*
X121523601Y-47774781D01*
X121522939Y-47771208D01*
X121520750Y-47760205D01*
X121519982Y-47756592D01*
X121519303Y-47750855D01*
X121493062Y-47666344D01*
X121492139Y-47663225D01*
X121488981Y-47652025D01*
X121468123Y-47578071D01*
X121465565Y-47572883D01*
X121464240Y-47569432D01*
X121460099Y-47559054D01*
X121458696Y-47555667D01*
X121456982Y-47550147D01*
X121415801Y-47471874D01*
X121414305Y-47468938D01*
X121382372Y-47404186D01*
X121375171Y-47389583D01*
X121371713Y-47384952D01*
X121369750Y-47381749D01*
X121363827Y-47372362D01*
X121361818Y-47369269D01*
X121359129Y-47364157D01*
X121304344Y-47294664D01*
X121302373Y-47292094D01*
X121252884Y-47225819D01*
X121252877Y-47225812D01*
X121249427Y-47221191D01*
X121189026Y-47165357D01*
X121185461Y-47161928D01*
X120560405Y-46536872D01*
X120526379Y-46474560D01*
X120523500Y-46447777D01*
X120523500Y-31368500D01*
X120543502Y-31300379D01*
X120597158Y-31253886D01*
X120649500Y-31242500D01*
X121184930Y-31242500D01*
X121257200Y-31265287D01*
X121297384Y-31293424D01*
X121297390Y-31293427D01*
X121301898Y-31296584D01*
X121306880Y-31298907D01*
X121306885Y-31298910D01*
X121492211Y-31385329D01*
X121497193Y-31387652D01*
X121502501Y-31389074D01*
X121502503Y-31389075D01*
X121700020Y-31441999D01*
X121700022Y-31441999D01*
X121705335Y-31443423D01*
X121920000Y-31462204D01*
X122134665Y-31443423D01*
X122139978Y-31441999D01*
X122139980Y-31441999D01*
X122337497Y-31389075D01*
X122337499Y-31389074D01*
X122342807Y-31387652D01*
X122347789Y-31385329D01*
X122533115Y-31298910D01*
X122533120Y-31298907D01*
X122538102Y-31296584D01*
X122542610Y-31293427D01*
X122542616Y-31293424D01*
X122582800Y-31265287D01*
X122655070Y-31242500D01*
X123724930Y-31242500D01*
X123797200Y-31265287D01*
X123837384Y-31293424D01*
X123837390Y-31293427D01*
X123841898Y-31296584D01*
X123846880Y-31298907D01*
X123846885Y-31298910D01*
X124032211Y-31385329D01*
X124037193Y-31387652D01*
X124042501Y-31389074D01*
X124042503Y-31389075D01*
X124240020Y-31441999D01*
X124240022Y-31441999D01*
X124245335Y-31443423D01*
X124460000Y-31462204D01*
X124674665Y-31443423D01*
X124679978Y-31441999D01*
X124679980Y-31441999D01*
X124877497Y-31389075D01*
X124877499Y-31389074D01*
X124882807Y-31387652D01*
X124887789Y-31385329D01*
X125073115Y-31298910D01*
X125073120Y-31298907D01*
X125078102Y-31296584D01*
X125084252Y-31292278D01*
X125250106Y-31176146D01*
X125250109Y-31176144D01*
X125254617Y-31172987D01*
X125406987Y-31020617D01*
X125490535Y-30901299D01*
X125527427Y-30848611D01*
X125527430Y-30848606D01*
X125530584Y-30844102D01*
X125532907Y-30839120D01*
X125532910Y-30839115D01*
X125619329Y-30653789D01*
X125619330Y-30653787D01*
X125621652Y-30648807D01*
X125632572Y-30608055D01*
X125675999Y-30445980D01*
X125675999Y-30445978D01*
X125677423Y-30440665D01*
X125696204Y-30226000D01*
X125677423Y-30011335D01*
X125621652Y-29803193D01*
X125615805Y-29790654D01*
X125532910Y-29612885D01*
X125532907Y-29612880D01*
X125530584Y-29607898D01*
X125519390Y-29591911D01*
X125410146Y-29435894D01*
X125410144Y-29435891D01*
X125406987Y-29431383D01*
X125254617Y-29279013D01*
X125250109Y-29275856D01*
X125250106Y-29275854D01*
X125082611Y-29158573D01*
X125082609Y-29158572D01*
X125078102Y-29155416D01*
X125062558Y-29148168D01*
X125045134Y-29140042D01*
X124991850Y-29093124D01*
X124972390Y-29024846D01*
X124992933Y-28956887D01*
X125042954Y-28912696D01*
X125153100Y-28858736D01*
X125161945Y-28853464D01*
X125335328Y-28729792D01*
X125343200Y-28723139D01*
X125494052Y-28572812D01*
X125500730Y-28564965D01*
X125625003Y-28392020D01*
X125630313Y-28383183D01*
X125724670Y-28192267D01*
X125728469Y-28182672D01*
X125790377Y-27978910D01*
X125792555Y-27968837D01*
X125793986Y-27957962D01*
X125791775Y-27943778D01*
X125778617Y-27940000D01*
X111632000Y-27940000D01*
X111563879Y-27919998D01*
X111517386Y-27866342D01*
X111506000Y-27814000D01*
X111506000Y-27413885D01*
X112014000Y-27413885D01*
X112018475Y-27429124D01*
X112019865Y-27430329D01*
X112027548Y-27432000D01*
X114027885Y-27432000D01*
X114043124Y-27427525D01*
X114044329Y-27426135D01*
X114046000Y-27418452D01*
X114046000Y-27413885D01*
X114554000Y-27413885D01*
X114558475Y-27429124D01*
X114559865Y-27430329D01*
X114567548Y-27432000D01*
X116567885Y-27432000D01*
X116583124Y-27427525D01*
X116584329Y-27426135D01*
X116586000Y-27418452D01*
X116586000Y-27413885D01*
X117094000Y-27413885D01*
X117098475Y-27429124D01*
X117099865Y-27430329D01*
X117107548Y-27432000D01*
X119107885Y-27432000D01*
X119123124Y-27427525D01*
X119124329Y-27426135D01*
X119126000Y-27418452D01*
X119126000Y-27413885D01*
X119634000Y-27413885D01*
X119638475Y-27429124D01*
X119639865Y-27430329D01*
X119647548Y-27432000D01*
X121647885Y-27432000D01*
X121663124Y-27427525D01*
X121664329Y-27426135D01*
X121666000Y-27418452D01*
X121666000Y-27413885D01*
X122174000Y-27413885D01*
X122178475Y-27429124D01*
X122179865Y-27430329D01*
X122187548Y-27432000D01*
X124187885Y-27432000D01*
X124203124Y-27427525D01*
X124204329Y-27426135D01*
X124206000Y-27418452D01*
X124206000Y-27413885D01*
X124714000Y-27413885D01*
X124718475Y-27429124D01*
X124719865Y-27430329D01*
X124727548Y-27432000D01*
X125778344Y-27432000D01*
X125791875Y-27428027D01*
X125793180Y-27418947D01*
X125751214Y-27251875D01*
X125747894Y-27242124D01*
X125662972Y-27046814D01*
X125658105Y-27037739D01*
X125542426Y-26858926D01*
X125536136Y-26850757D01*
X125392806Y-26693240D01*
X125385273Y-26686215D01*
X125218139Y-26554222D01*
X125209552Y-26548517D01*
X125023117Y-26445599D01*
X125013705Y-26441369D01*
X124812959Y-26370280D01*
X124802988Y-26367646D01*
X124731837Y-26354972D01*
X124718540Y-26356432D01*
X124714000Y-26370989D01*
X124714000Y-27413885D01*
X124206000Y-27413885D01*
X124206000Y-26369102D01*
X124202082Y-26355758D01*
X124187806Y-26353771D01*
X124149324Y-26359660D01*
X124139288Y-26362051D01*
X123936868Y-26428212D01*
X123927359Y-26432209D01*
X123738463Y-26530542D01*
X123729738Y-26536036D01*
X123559433Y-26663905D01*
X123551726Y-26670748D01*
X123404590Y-26824717D01*
X123398104Y-26832727D01*
X123293193Y-26986521D01*
X123238282Y-27031524D01*
X123167757Y-27039695D01*
X123104010Y-27008441D01*
X123083313Y-26983957D01*
X123002427Y-26858926D01*
X122996136Y-26850757D01*
X122852806Y-26693240D01*
X122845273Y-26686215D01*
X122678139Y-26554222D01*
X122669552Y-26548517D01*
X122483117Y-26445599D01*
X122473705Y-26441369D01*
X122272959Y-26370280D01*
X122262988Y-26367646D01*
X122191837Y-26354972D01*
X122178540Y-26356432D01*
X122174000Y-26370989D01*
X122174000Y-27413885D01*
X121666000Y-27413885D01*
X121666000Y-26369102D01*
X121662082Y-26355758D01*
X121647806Y-26353771D01*
X121609324Y-26359660D01*
X121599288Y-26362051D01*
X121396868Y-26428212D01*
X121387359Y-26432209D01*
X121198463Y-26530542D01*
X121189738Y-26536036D01*
X121019433Y-26663905D01*
X121011726Y-26670748D01*
X120864590Y-26824717D01*
X120858104Y-26832727D01*
X120753193Y-26986521D01*
X120698282Y-27031524D01*
X120627757Y-27039695D01*
X120564010Y-27008441D01*
X120543313Y-26983957D01*
X120462427Y-26858926D01*
X120456136Y-26850757D01*
X120312806Y-26693240D01*
X120305273Y-26686215D01*
X120138139Y-26554222D01*
X120129552Y-26548517D01*
X119943117Y-26445599D01*
X119933705Y-26441369D01*
X119732959Y-26370280D01*
X119722988Y-26367646D01*
X119651837Y-26354972D01*
X119638540Y-26356432D01*
X119634000Y-26370989D01*
X119634000Y-27413885D01*
X119126000Y-27413885D01*
X119126000Y-26369102D01*
X119122082Y-26355758D01*
X119107806Y-26353771D01*
X119069324Y-26359660D01*
X119059288Y-26362051D01*
X118856868Y-26428212D01*
X118847359Y-26432209D01*
X118658463Y-26530542D01*
X118649738Y-26536036D01*
X118479433Y-26663905D01*
X118471726Y-26670748D01*
X118324590Y-26824717D01*
X118318104Y-26832727D01*
X118213193Y-26986521D01*
X118158282Y-27031524D01*
X118087757Y-27039695D01*
X118024010Y-27008441D01*
X118003313Y-26983957D01*
X117922427Y-26858926D01*
X117916136Y-26850757D01*
X117772806Y-26693240D01*
X117765273Y-26686215D01*
X117598139Y-26554222D01*
X117589552Y-26548517D01*
X117403117Y-26445599D01*
X117393705Y-26441369D01*
X117192959Y-26370280D01*
X117182988Y-26367646D01*
X117111837Y-26354972D01*
X117098540Y-26356432D01*
X117094000Y-26370989D01*
X117094000Y-27413885D01*
X116586000Y-27413885D01*
X116586000Y-26369102D01*
X116582082Y-26355758D01*
X116567806Y-26353771D01*
X116529324Y-26359660D01*
X116519288Y-26362051D01*
X116316868Y-26428212D01*
X116307359Y-26432209D01*
X116118463Y-26530542D01*
X116109738Y-26536036D01*
X115939433Y-26663905D01*
X115931726Y-26670748D01*
X115784590Y-26824717D01*
X115778104Y-26832727D01*
X115673193Y-26986521D01*
X115618282Y-27031524D01*
X115547757Y-27039695D01*
X115484010Y-27008441D01*
X115463313Y-26983957D01*
X115382427Y-26858926D01*
X115376136Y-26850757D01*
X115232806Y-26693240D01*
X115225273Y-26686215D01*
X115058139Y-26554222D01*
X115049552Y-26548517D01*
X114863117Y-26445599D01*
X114853705Y-26441369D01*
X114652959Y-26370280D01*
X114642988Y-26367646D01*
X114571837Y-26354972D01*
X114558540Y-26356432D01*
X114554000Y-26370989D01*
X114554000Y-27413885D01*
X114046000Y-27413885D01*
X114046000Y-26369102D01*
X114042082Y-26355758D01*
X114027806Y-26353771D01*
X113989324Y-26359660D01*
X113979288Y-26362051D01*
X113776868Y-26428212D01*
X113767359Y-26432209D01*
X113578463Y-26530542D01*
X113569738Y-26536036D01*
X113399433Y-26663905D01*
X113391726Y-26670748D01*
X113244590Y-26824717D01*
X113238104Y-26832727D01*
X113133193Y-26986521D01*
X113078282Y-27031524D01*
X113007757Y-27039695D01*
X112944010Y-27008441D01*
X112923313Y-26983957D01*
X112842427Y-26858926D01*
X112836136Y-26850757D01*
X112692806Y-26693240D01*
X112685273Y-26686215D01*
X112518139Y-26554222D01*
X112509552Y-26548517D01*
X112323117Y-26445599D01*
X112313705Y-26441369D01*
X112112959Y-26370280D01*
X112102988Y-26367646D01*
X112031837Y-26354972D01*
X112018540Y-26356432D01*
X112014000Y-26370989D01*
X112014000Y-27413885D01*
X111506000Y-27413885D01*
X111506000Y-26369102D01*
X111502082Y-26355758D01*
X111487806Y-26353771D01*
X111449324Y-26359660D01*
X111439288Y-26362051D01*
X111236868Y-26428212D01*
X111227359Y-26432209D01*
X111038463Y-26530542D01*
X111029738Y-26536036D01*
X110859433Y-26663905D01*
X110851726Y-26670748D01*
X110704590Y-26824717D01*
X110698104Y-26832727D01*
X110578098Y-27008649D01*
X110572996Y-27017629D01*
X110534445Y-27100680D01*
X110487621Y-27154047D01*
X110419378Y-27173627D01*
X110351382Y-27153203D01*
X110305963Y-27100878D01*
X110292912Y-27072889D01*
X110292909Y-27072883D01*
X110290584Y-27067898D01*
X110270836Y-27039695D01*
X110170146Y-26895894D01*
X110170144Y-26895891D01*
X110166987Y-26891383D01*
X110014617Y-26739013D01*
X110010109Y-26735856D01*
X110010106Y-26735854D01*
X109842611Y-26618573D01*
X109842609Y-26618572D01*
X109838102Y-26615416D01*
X109833120Y-26613093D01*
X109833115Y-26613090D01*
X109647789Y-26526671D01*
X109647787Y-26526670D01*
X109642807Y-26524348D01*
X109637499Y-26522926D01*
X109637497Y-26522925D01*
X109439980Y-26470001D01*
X109439978Y-26470001D01*
X109434665Y-26468577D01*
X109220000Y-26449796D01*
X109005335Y-26468577D01*
X109000022Y-26470001D01*
X109000020Y-26470001D01*
X108802503Y-26522925D01*
X108802501Y-26522926D01*
X108797193Y-26524348D01*
X108792213Y-26526670D01*
X108792211Y-26526671D01*
X108606885Y-26613090D01*
X108606880Y-26613093D01*
X108601898Y-26615416D01*
X108597391Y-26618572D01*
X108597389Y-26618573D01*
X108429894Y-26735854D01*
X108429891Y-26735856D01*
X108425383Y-26739013D01*
X108273013Y-26891383D01*
X108269856Y-26895891D01*
X108269854Y-26895894D01*
X108169164Y-27039695D01*
X108149416Y-27067898D01*
X108147093Y-27072880D01*
X108147090Y-27072885D01*
X108064195Y-27250654D01*
X108017277Y-27303939D01*
X107949000Y-27323400D01*
X107881040Y-27302858D01*
X107835805Y-27250654D01*
X107752910Y-27072885D01*
X107752907Y-27072880D01*
X107750584Y-27067898D01*
X107730836Y-27039695D01*
X107630146Y-26895894D01*
X107630144Y-26895891D01*
X107626987Y-26891383D01*
X107474617Y-26739013D01*
X107470109Y-26735856D01*
X107470106Y-26735854D01*
X107302611Y-26618573D01*
X107302609Y-26618572D01*
X107298102Y-26615416D01*
X107293120Y-26613093D01*
X107293115Y-26613090D01*
X107107789Y-26526671D01*
X107107787Y-26526670D01*
X107102807Y-26524348D01*
X107097499Y-26522926D01*
X107097497Y-26522925D01*
X106899980Y-26470001D01*
X106899978Y-26470001D01*
X106894665Y-26468577D01*
X106680000Y-26449796D01*
X106465335Y-26468577D01*
X106460022Y-26470001D01*
X106460020Y-26470001D01*
X106262503Y-26522925D01*
X106262501Y-26522926D01*
X106257193Y-26524348D01*
X106252213Y-26526670D01*
X106252211Y-26526671D01*
X106066885Y-26613090D01*
X106066880Y-26613093D01*
X106061898Y-26615416D01*
X106057391Y-26618572D01*
X106057389Y-26618573D01*
X105889894Y-26735854D01*
X105889891Y-26735856D01*
X105885383Y-26739013D01*
X105733013Y-26891383D01*
X105729856Y-26895891D01*
X105729854Y-26895894D01*
X105629164Y-27039695D01*
X105609416Y-27067898D01*
X105607093Y-27072880D01*
X105607090Y-27072885D01*
X105524195Y-27250654D01*
X105477277Y-27303939D01*
X105409000Y-27323400D01*
X105341040Y-27302858D01*
X105295805Y-27250654D01*
X105212910Y-27072885D01*
X105212907Y-27072880D01*
X105210584Y-27067898D01*
X105190836Y-27039695D01*
X105090146Y-26895894D01*
X105090144Y-26895891D01*
X105086987Y-26891383D01*
X104934617Y-26739013D01*
X104930109Y-26735856D01*
X104930106Y-26735854D01*
X104762611Y-26618573D01*
X104762609Y-26618572D01*
X104758102Y-26615416D01*
X104753120Y-26613093D01*
X104753115Y-26613090D01*
X104567789Y-26526671D01*
X104567787Y-26526670D01*
X104562807Y-26524348D01*
X104557499Y-26522926D01*
X104557497Y-26522925D01*
X104359980Y-26470001D01*
X104359978Y-26470001D01*
X104354665Y-26468577D01*
X104140000Y-26449796D01*
X103925335Y-26468577D01*
X103920022Y-26470001D01*
X103920020Y-26470001D01*
X103722503Y-26522925D01*
X103722501Y-26522926D01*
X103717193Y-26524348D01*
X103712213Y-26526670D01*
X103712211Y-26526671D01*
X103526885Y-26613090D01*
X103526880Y-26613093D01*
X103521898Y-26615416D01*
X103517391Y-26618572D01*
X103517389Y-26618573D01*
X103349894Y-26735854D01*
X103349891Y-26735856D01*
X103345383Y-26739013D01*
X103193013Y-26891383D01*
X103189856Y-26895891D01*
X103189854Y-26895894D01*
X103089164Y-27039695D01*
X103069416Y-27067898D01*
X103067093Y-27072880D01*
X103067090Y-27072885D01*
X102984195Y-27250654D01*
X102937277Y-27303939D01*
X102869000Y-27323400D01*
X102801040Y-27302858D01*
X102755805Y-27250654D01*
X102672910Y-27072885D01*
X102672907Y-27072880D01*
X102670584Y-27067898D01*
X102650836Y-27039695D01*
X102550146Y-26895894D01*
X102550144Y-26895891D01*
X102546987Y-26891383D01*
X102394617Y-26739013D01*
X102390109Y-26735856D01*
X102390106Y-26735854D01*
X102222611Y-26618573D01*
X102222609Y-26618572D01*
X102218102Y-26615416D01*
X102213120Y-26613093D01*
X102213115Y-26613090D01*
X102027789Y-26526671D01*
X102027787Y-26526670D01*
X102022807Y-26524348D01*
X102017499Y-26522926D01*
X102017497Y-26522925D01*
X101819980Y-26470001D01*
X101819978Y-26470001D01*
X101814665Y-26468577D01*
X101600000Y-26449796D01*
X101385335Y-26468577D01*
X101380022Y-26470001D01*
X101380020Y-26470001D01*
X101182503Y-26522925D01*
X101182501Y-26522926D01*
X101177193Y-26524348D01*
X101172213Y-26526670D01*
X101172211Y-26526671D01*
X100986885Y-26613090D01*
X100986880Y-26613093D01*
X100981898Y-26615416D01*
X100977391Y-26618572D01*
X100977389Y-26618573D01*
X100809894Y-26735854D01*
X100809891Y-26735856D01*
X100805383Y-26739013D01*
X100653013Y-26891383D01*
X100649856Y-26895891D01*
X100649854Y-26895894D01*
X100549164Y-27039695D01*
X100529416Y-27067898D01*
X100527093Y-27072879D01*
X100527087Y-27072890D01*
X100514491Y-27099903D01*
X100467574Y-27153188D01*
X100399296Y-27172648D01*
X100331337Y-27152106D01*
X100284747Y-27096894D01*
X100262972Y-27046814D01*
X100258105Y-27037739D01*
X100142426Y-26858926D01*
X100136136Y-26850757D01*
X99992806Y-26693240D01*
X99985273Y-26686215D01*
X99818139Y-26554222D01*
X99809552Y-26548517D01*
X99623117Y-26445599D01*
X99613705Y-26441369D01*
X99412959Y-26370280D01*
X99402988Y-26367646D01*
X99331837Y-26354972D01*
X99318540Y-26356432D01*
X99314000Y-26370989D01*
X99314000Y-27814000D01*
X99293998Y-27882121D01*
X99240342Y-27928614D01*
X99188000Y-27940000D01*
X98932000Y-27940000D01*
X98863879Y-27919998D01*
X98817386Y-27866342D01*
X98806000Y-27814000D01*
X98806000Y-26369102D01*
X98802082Y-26355758D01*
X98787806Y-26353771D01*
X98749324Y-26359660D01*
X98739288Y-26362051D01*
X98536868Y-26428212D01*
X98527359Y-26432209D01*
X98338463Y-26530542D01*
X98329738Y-26536036D01*
X98159433Y-26663905D01*
X98151726Y-26670748D01*
X98004590Y-26824717D01*
X97998104Y-26832727D01*
X97878098Y-27008649D01*
X97872996Y-27017629D01*
X97834445Y-27100680D01*
X97787621Y-27154047D01*
X97719378Y-27173627D01*
X97651382Y-27153203D01*
X97605963Y-27100878D01*
X97592912Y-27072889D01*
X97592909Y-27072883D01*
X97590584Y-27067898D01*
X97570836Y-27039695D01*
X97470146Y-26895894D01*
X97470144Y-26895891D01*
X97466987Y-26891383D01*
X97314617Y-26739013D01*
X97310109Y-26735856D01*
X97310106Y-26735854D01*
X97142611Y-26618573D01*
X97142609Y-26618572D01*
X97138102Y-26615416D01*
X97133120Y-26613093D01*
X97133115Y-26613090D01*
X96947789Y-26526671D01*
X96947787Y-26526670D01*
X96942807Y-26524348D01*
X96937499Y-26522926D01*
X96937497Y-26522925D01*
X96739980Y-26470001D01*
X96739978Y-26470001D01*
X96734665Y-26468577D01*
X96520000Y-26449796D01*
X96305335Y-26468577D01*
X96300022Y-26470001D01*
X96300020Y-26470001D01*
X96102503Y-26522925D01*
X96102501Y-26522926D01*
X96097193Y-26524348D01*
X96092213Y-26526670D01*
X96092211Y-26526671D01*
X95906885Y-26613090D01*
X95906880Y-26613093D01*
X95901898Y-26615416D01*
X95897391Y-26618572D01*
X95897389Y-26618573D01*
X95729894Y-26735854D01*
X95729891Y-26735856D01*
X95725383Y-26739013D01*
X95573013Y-26891383D01*
X95569856Y-26895891D01*
X95569854Y-26895894D01*
X95469164Y-27039695D01*
X95449416Y-27067898D01*
X95447093Y-27072880D01*
X95447090Y-27072885D01*
X95364195Y-27250654D01*
X95317277Y-27303939D01*
X95249000Y-27323400D01*
X95181040Y-27302858D01*
X95135805Y-27250654D01*
X95052910Y-27072885D01*
X95052907Y-27072880D01*
X95050584Y-27067898D01*
X95030836Y-27039695D01*
X94930146Y-26895894D01*
X94930144Y-26895891D01*
X94926987Y-26891383D01*
X94774617Y-26739013D01*
X94770109Y-26735856D01*
X94770106Y-26735854D01*
X94602611Y-26618573D01*
X94602609Y-26618572D01*
X94598102Y-26615416D01*
X94593120Y-26613093D01*
X94593115Y-26613090D01*
X94407789Y-26526671D01*
X94407787Y-26526670D01*
X94402807Y-26524348D01*
X94397499Y-26522926D01*
X94397497Y-26522925D01*
X94199980Y-26470001D01*
X94199978Y-26470001D01*
X94194665Y-26468577D01*
X93980000Y-26449796D01*
X93765335Y-26468577D01*
X93760022Y-26470001D01*
X93760020Y-26470001D01*
X93562503Y-26522925D01*
X93562501Y-26522926D01*
X93557193Y-26524348D01*
X93552213Y-26526670D01*
X93552211Y-26526671D01*
X93366885Y-26613090D01*
X93366880Y-26613093D01*
X93361898Y-26615416D01*
X93357391Y-26618572D01*
X93357389Y-26618573D01*
X93189894Y-26735854D01*
X93189891Y-26735856D01*
X93185383Y-26739013D01*
X93033013Y-26891383D01*
X93029856Y-26895891D01*
X93029854Y-26895894D01*
X92929164Y-27039695D01*
X92909416Y-27067898D01*
X92907093Y-27072880D01*
X92907090Y-27072885D01*
X92824195Y-27250654D01*
X92777277Y-27303939D01*
X92709000Y-27323400D01*
X92641040Y-27302858D01*
X92595805Y-27250654D01*
X92512910Y-27072885D01*
X92512907Y-27072880D01*
X92510584Y-27067898D01*
X92490836Y-27039695D01*
X92390146Y-26895894D01*
X92390144Y-26895891D01*
X92386987Y-26891383D01*
X92234617Y-26739013D01*
X92230109Y-26735856D01*
X92230106Y-26735854D01*
X92062611Y-26618573D01*
X92062609Y-26618572D01*
X92058102Y-26615416D01*
X92053120Y-26613093D01*
X92053115Y-26613090D01*
X91867789Y-26526671D01*
X91867787Y-26526670D01*
X91862807Y-26524348D01*
X91857499Y-26522926D01*
X91857497Y-26522925D01*
X91659980Y-26470001D01*
X91659978Y-26470001D01*
X91654665Y-26468577D01*
X91440000Y-26449796D01*
X91225335Y-26468577D01*
X91220022Y-26470001D01*
X91220020Y-26470001D01*
X91022503Y-26522925D01*
X91022501Y-26522926D01*
X91017193Y-26524348D01*
X91012213Y-26526670D01*
X91012211Y-26526671D01*
X90826885Y-26613090D01*
X90826880Y-26613093D01*
X90821898Y-26615416D01*
X90817391Y-26618572D01*
X90817389Y-26618573D01*
X90649894Y-26735854D01*
X90649891Y-26735856D01*
X90645383Y-26739013D01*
X90493013Y-26891383D01*
X90489856Y-26895891D01*
X90489854Y-26895894D01*
X90389164Y-27039695D01*
X90369416Y-27067898D01*
X90367093Y-27072880D01*
X90367090Y-27072885D01*
X90284195Y-27250654D01*
X90237277Y-27303939D01*
X90169000Y-27323400D01*
X90101040Y-27302858D01*
X90055805Y-27250654D01*
X89972910Y-27072885D01*
X89972907Y-27072880D01*
X89970584Y-27067898D01*
X89950836Y-27039695D01*
X89850146Y-26895894D01*
X89850144Y-26895891D01*
X89846987Y-26891383D01*
X89694617Y-26739013D01*
X89690109Y-26735856D01*
X89690106Y-26735854D01*
X89522611Y-26618573D01*
X89522609Y-26618572D01*
X89518102Y-26615416D01*
X89513120Y-26613093D01*
X89513115Y-26613090D01*
X89327789Y-26526671D01*
X89327787Y-26526670D01*
X89322807Y-26524348D01*
X89317499Y-26522926D01*
X89317497Y-26522925D01*
X89119980Y-26470001D01*
X89119978Y-26470001D01*
X89114665Y-26468577D01*
X88900000Y-26449796D01*
X88685335Y-26468577D01*
X88680022Y-26470001D01*
X88680020Y-26470001D01*
X88482503Y-26522925D01*
X88482501Y-26522926D01*
X88477193Y-26524348D01*
X88472213Y-26526670D01*
X88472211Y-26526671D01*
X88286885Y-26613090D01*
X88286880Y-26613093D01*
X88281898Y-26615416D01*
X88277391Y-26618572D01*
X88277389Y-26618573D01*
X88109894Y-26735854D01*
X88109891Y-26735856D01*
X88105383Y-26739013D01*
X87953013Y-26891383D01*
X87949856Y-26895891D01*
X87949854Y-26895894D01*
X87849164Y-27039695D01*
X87829416Y-27067898D01*
X87827093Y-27072879D01*
X87827087Y-27072890D01*
X87814491Y-27099903D01*
X87767574Y-27153188D01*
X87699296Y-27172648D01*
X87631337Y-27152106D01*
X87584747Y-27096894D01*
X87562972Y-27046814D01*
X87558105Y-27037739D01*
X87442426Y-26858926D01*
X87436136Y-26850757D01*
X87292806Y-26693240D01*
X87285273Y-26686215D01*
X87118139Y-26554222D01*
X87109552Y-26548517D01*
X86923117Y-26445599D01*
X86913705Y-26441369D01*
X86712959Y-26370280D01*
X86702988Y-26367646D01*
X86631837Y-26354972D01*
X86618540Y-26356432D01*
X86614000Y-26370989D01*
X86614000Y-27814000D01*
X86593998Y-27882121D01*
X86540342Y-27928614D01*
X86488000Y-27940000D01*
X85043225Y-27940000D01*
X85029694Y-27943973D01*
X85028257Y-27953966D01*
X85058565Y-28088446D01*
X85061645Y-28098275D01*
X85141770Y-28295603D01*
X85146413Y-28304794D01*
X85257694Y-28486388D01*
X85263777Y-28494699D01*
X85403213Y-28655667D01*
X85410580Y-28662882D01*
X85542519Y-28772420D01*
X85582154Y-28831322D01*
X85583652Y-28902303D01*
X85546538Y-28962826D01*
X85482594Y-28993675D01*
X85475668Y-28994500D01*
X85473842Y-28994500D01*
X85447189Y-28998423D01*
X85408541Y-29004112D01*
X85408539Y-29004113D01*
X85398856Y-29005538D01*
X85390068Y-29009853D01*
X85390067Y-29009853D01*
X85294197Y-29056923D01*
X85294196Y-29056924D01*
X85284849Y-29061513D01*
X85195120Y-29151399D01*
X85139345Y-29265503D01*
X85137933Y-29275183D01*
X85129165Y-29335287D01*
X85128500Y-29339842D01*
X85128500Y-31112158D01*
X85129170Y-31116706D01*
X85129170Y-31116713D01*
X85138112Y-31177459D01*
X85139538Y-31187144D01*
X85143853Y-31195932D01*
X85143853Y-31195933D01*
X85166717Y-31242500D01*
X85194155Y-31298385D01*
X85195513Y-31301151D01*
X85195107Y-31301350D01*
X85216500Y-31367982D01*
X85216500Y-31707195D01*
X85216230Y-31715436D01*
X85211994Y-31780061D01*
X85222399Y-31867973D01*
X85222736Y-31871186D01*
X85230831Y-31959279D01*
X85232399Y-31964839D01*
X85233061Y-31968412D01*
X85235250Y-31979415D01*
X85236018Y-31983028D01*
X85236697Y-31988765D01*
X85262938Y-32073276D01*
X85263854Y-32076373D01*
X85287877Y-32161549D01*
X85290435Y-32166737D01*
X85291760Y-32170188D01*
X85295901Y-32180566D01*
X85297304Y-32183953D01*
X85299018Y-32189473D01*
X85301709Y-32194587D01*
X85301709Y-32194588D01*
X85340198Y-32267745D01*
X85341695Y-32270681D01*
X85380829Y-32350037D01*
X85384287Y-32354668D01*
X85386250Y-32357871D01*
X85392173Y-32367258D01*
X85394178Y-32370345D01*
X85396871Y-32375463D01*
X85451656Y-32444956D01*
X85453627Y-32447526D01*
X85503116Y-32513801D01*
X85503123Y-32513808D01*
X85506573Y-32518429D01*
X85510807Y-32522343D01*
X85510809Y-32522345D01*
X85566973Y-32574262D01*
X85570539Y-32577692D01*
X87426151Y-34433304D01*
X87431788Y-34439322D01*
X87474494Y-34488019D01*
X87479029Y-34491594D01*
X87479030Y-34491595D01*
X87543982Y-34542798D01*
X87546547Y-34544876D01*
X87610100Y-34597734D01*
X87610105Y-34597738D01*
X87614540Y-34601426D01*
X87619574Y-34604245D01*
X87622584Y-34606314D01*
X87631854Y-34612508D01*
X87634999Y-34614551D01*
X87639537Y-34618128D01*
X87644645Y-34620816D01*
X87644649Y-34620818D01*
X87717816Y-34659312D01*
X87720706Y-34660882D01*
X87797904Y-34704115D01*
X87803376Y-34705972D01*
X87806776Y-34707486D01*
X87816987Y-34711873D01*
X87820421Y-34713295D01*
X87825527Y-34715982D01*
X87831041Y-34717694D01*
X87831043Y-34717695D01*
X87909999Y-34742212D01*
X87913135Y-34743231D01*
X87966280Y-34761271D01*
X87996912Y-34771669D01*
X88002625Y-34772498D01*
X88006138Y-34773341D01*
X88017151Y-34775833D01*
X88020718Y-34776591D01*
X88026234Y-34778304D01*
X88031962Y-34778982D01*
X88031967Y-34778983D01*
X88080257Y-34784698D01*
X88114118Y-34788706D01*
X88117340Y-34789130D01*
X88204897Y-34801825D01*
X88287054Y-34798597D01*
X88292001Y-34798500D01*
X99045482Y-34798500D01*
X99047132Y-34798511D01*
X99150102Y-34799859D01*
X99155770Y-34798885D01*
X99165582Y-34798500D01*
X109812195Y-34798500D01*
X109820436Y-34798770D01*
X109885061Y-34803006D01*
X109972973Y-34792601D01*
X109976186Y-34792264D01*
X110064279Y-34784169D01*
X110069839Y-34782601D01*
X110073412Y-34781939D01*
X110084415Y-34779750D01*
X110088028Y-34778982D01*
X110093765Y-34778303D01*
X110178276Y-34752062D01*
X110181373Y-34751146D01*
X110266549Y-34727123D01*
X110271737Y-34724565D01*
X110275188Y-34723240D01*
X110285566Y-34719099D01*
X110288953Y-34717696D01*
X110294473Y-34715982D01*
X110372746Y-34674801D01*
X110375682Y-34673305D01*
X110400863Y-34660887D01*
X110455037Y-34634171D01*
X110459668Y-34630713D01*
X110462871Y-34628750D01*
X110472258Y-34622827D01*
X110475351Y-34620818D01*
X110480463Y-34618129D01*
X110549956Y-34563344D01*
X110552526Y-34561373D01*
X110618801Y-34511884D01*
X110618808Y-34511877D01*
X110623429Y-34508427D01*
X110638989Y-34491595D01*
X110679261Y-34448028D01*
X110682691Y-34444462D01*
X112286719Y-32840435D01*
X112288777Y-32838377D01*
X112388926Y-32717960D01*
X112389398Y-32718352D01*
X112424931Y-32685071D01*
X112435012Y-32679074D01*
X112593019Y-32540506D01*
X112673953Y-32437842D01*
X112719550Y-32380002D01*
X112719555Y-32379995D01*
X112723128Y-32375463D01*
X112736506Y-32350037D01*
X112818290Y-32194590D01*
X112818291Y-32194588D01*
X112820982Y-32189473D01*
X112883304Y-31988766D01*
X112903500Y-31818126D01*
X112903500Y-31368500D01*
X112923502Y-31300379D01*
X112977158Y-31253886D01*
X113029500Y-31242500D01*
X113564930Y-31242500D01*
X113637200Y-31265287D01*
X113677384Y-31293424D01*
X113677390Y-31293427D01*
X113681898Y-31296584D01*
X113686880Y-31298907D01*
X113686885Y-31298910D01*
X113872211Y-31385329D01*
X113877193Y-31387652D01*
X113882501Y-31389074D01*
X113882503Y-31389075D01*
X114080020Y-31441999D01*
X114080022Y-31441999D01*
X114085335Y-31443423D01*
X114300000Y-31462204D01*
X114514665Y-31443423D01*
X114519978Y-31441999D01*
X114519980Y-31441999D01*
X114717497Y-31389075D01*
X114717499Y-31389074D01*
X114722807Y-31387652D01*
X114727789Y-31385329D01*
X114913115Y-31298910D01*
X114913120Y-31298907D01*
X114918102Y-31296584D01*
X114922610Y-31293427D01*
X114922616Y-31293424D01*
X114962800Y-31265287D01*
X115035070Y-31242500D01*
X116104930Y-31242500D01*
X116177200Y-31265287D01*
X116217384Y-31293424D01*
X116217390Y-31293427D01*
X116221898Y-31296584D01*
X116226880Y-31298907D01*
X116226885Y-31298910D01*
X116412211Y-31385329D01*
X116417193Y-31387652D01*
X116422501Y-31389074D01*
X116422503Y-31389075D01*
X116620020Y-31441999D01*
X116620022Y-31441999D01*
X116625335Y-31443423D01*
X116840000Y-31462204D01*
X117054665Y-31443423D01*
X117059978Y-31441999D01*
X117059980Y-31441999D01*
X117257497Y-31389075D01*
X117257499Y-31389074D01*
X117262807Y-31387652D01*
X117267789Y-31385329D01*
X117453115Y-31298910D01*
X117453120Y-31298907D01*
X117458102Y-31296584D01*
X117462610Y-31293427D01*
X117462616Y-31293424D01*
X117502800Y-31265287D01*
X117575070Y-31242500D01*
X118110500Y-31242500D01*
X118178621Y-31262502D01*
X118225114Y-31316158D01*
X118236500Y-31368500D01*
X118236500Y-46930815D01*
X118236230Y-46939056D01*
X118231994Y-47003681D01*
X118242399Y-47091593D01*
X118242736Y-47094806D01*
X118250831Y-47182899D01*
X118252399Y-47188459D01*
X118253061Y-47192032D01*
X118255250Y-47203035D01*
X118256018Y-47206648D01*
X118256697Y-47212385D01*
X118282938Y-47296896D01*
X118283854Y-47299993D01*
X118307877Y-47385169D01*
X118310435Y-47390357D01*
X118311760Y-47393808D01*
X118315901Y-47404186D01*
X118317304Y-47407573D01*
X118319018Y-47413093D01*
X118321709Y-47418207D01*
X118321709Y-47418208D01*
X118360198Y-47491365D01*
X118361695Y-47494301D01*
X118400829Y-47573657D01*
X118404287Y-47578288D01*
X118406250Y-47581491D01*
X118412173Y-47590878D01*
X118414182Y-47593971D01*
X118416871Y-47599083D01*
X118471656Y-47668576D01*
X118473627Y-47671146D01*
X118523116Y-47737421D01*
X118523123Y-47737428D01*
X118526573Y-47742049D01*
X118530807Y-47745963D01*
X118530809Y-47745965D01*
X118586973Y-47797882D01*
X118590539Y-47801312D01*
X119215595Y-48426368D01*
X119249621Y-48488680D01*
X119252500Y-48515463D01*
X119252500Y-49760238D01*
X119232498Y-49828359D01*
X119178842Y-49874852D01*
X119108568Y-49884956D01*
X119084234Y-49878937D01*
X118956623Y-49833497D01*
X118956617Y-49833496D01*
X118949985Y-49831134D01*
X118942997Y-49830301D01*
X118942994Y-49830300D01*
X118822707Y-49815957D01*
X118775890Y-49810374D01*
X118768887Y-49811110D01*
X118768881Y-49811110D01*
X118767237Y-49811283D01*
X118766189Y-49811091D01*
X118761840Y-49811061D01*
X118761845Y-49810297D01*
X118697398Y-49798513D01*
X118664968Y-49775069D01*
X118365847Y-49475948D01*
X118358266Y-49466461D01*
X118357892Y-49466779D01*
X118352077Y-49459946D01*
X118347285Y-49452352D01*
X118307115Y-49416876D01*
X118301429Y-49411530D01*
X118290035Y-49400136D01*
X118281700Y-49393889D01*
X118273872Y-49387516D01*
X118263793Y-49378614D01*
X118238539Y-49356311D01*
X118230412Y-49352495D01*
X118227778Y-49350765D01*
X118213281Y-49342054D01*
X118210515Y-49340540D01*
X118203334Y-49335158D01*
X118179374Y-49326176D01*
X118159201Y-49318613D01*
X118149882Y-49314686D01*
X118117543Y-49299503D01*
X118107209Y-49294651D01*
X118098339Y-49293270D01*
X118095314Y-49292345D01*
X118078985Y-49288062D01*
X118075892Y-49287382D01*
X118067482Y-49284229D01*
X118020475Y-49280736D01*
X118010427Y-49279582D01*
X117997056Y-49277500D01*
X117981614Y-49277500D01*
X117972276Y-49277154D01*
X117955778Y-49275928D01*
X117922796Y-49273477D01*
X117914022Y-49275350D01*
X117905541Y-49275928D01*
X117890650Y-49277500D01*
X113601813Y-49277500D01*
X113533692Y-49257498D01*
X113487199Y-49203842D01*
X113477095Y-49133568D01*
X113506589Y-49068988D01*
X113566252Y-49030645D01*
X113569137Y-49030382D01*
X113575465Y-49028326D01*
X113729185Y-48978380D01*
X113729188Y-48978379D01*
X113735884Y-48976203D01*
X113886484Y-48886427D01*
X113891578Y-48881576D01*
X113891582Y-48881573D01*
X114005593Y-48773001D01*
X114013452Y-48765517D01*
X114098204Y-48637955D01*
X114106576Y-48625354D01*
X114106577Y-48625352D01*
X114110477Y-48619482D01*
X114172737Y-48455581D01*
X114181981Y-48389806D01*
X114196587Y-48285883D01*
X114196588Y-48285875D01*
X114197138Y-48281959D01*
X114197445Y-48260000D01*
X114177901Y-48085764D01*
X114157892Y-48028303D01*
X114122557Y-47926835D01*
X114122556Y-47926833D01*
X114120242Y-47920188D01*
X114027332Y-47771501D01*
X114021695Y-47765824D01*
X113908754Y-47652094D01*
X113903789Y-47647094D01*
X113897846Y-47643322D01*
X113897843Y-47643320D01*
X113795027Y-47578071D01*
X113755755Y-47553148D01*
X113728570Y-47543468D01*
X113597220Y-47496696D01*
X113597215Y-47496695D01*
X113590585Y-47494334D01*
X113583597Y-47493501D01*
X113583594Y-47493500D01*
X113463307Y-47479157D01*
X113416490Y-47473574D01*
X113409487Y-47474310D01*
X113409486Y-47474310D01*
X113249122Y-47491165D01*
X113249120Y-47491166D01*
X113242122Y-47491901D01*
X113076148Y-47548403D01*
X113027924Y-47578071D01*
X112932823Y-47636577D01*
X112932820Y-47636579D01*
X112926816Y-47640273D01*
X112921778Y-47645207D01*
X112914815Y-47652025D01*
X112852150Y-47685395D01*
X112826659Y-47688000D01*
X101889120Y-47688000D01*
X101820999Y-47667998D01*
X101800025Y-47651095D01*
X100382806Y-46233876D01*
X100348780Y-46171564D01*
X100346686Y-46158827D01*
X100335686Y-46060761D01*
X100335686Y-46060760D01*
X100334901Y-46053764D01*
X100277242Y-45888188D01*
X100184332Y-45739501D01*
X100060789Y-45615094D01*
X100054846Y-45611322D01*
X100054843Y-45611320D01*
X99967034Y-45555595D01*
X99912755Y-45521148D01*
X99885570Y-45511468D01*
X99754220Y-45464696D01*
X99754215Y-45464695D01*
X99747585Y-45462334D01*
X99740597Y-45461501D01*
X99740594Y-45461500D01*
X99620307Y-45447157D01*
X99573490Y-45441574D01*
X99566487Y-45442310D01*
X99566486Y-45442310D01*
X99406122Y-45459165D01*
X99406120Y-45459166D01*
X99399122Y-45459901D01*
X99233148Y-45516403D01*
X99169443Y-45555595D01*
X99139824Y-45573817D01*
X99073801Y-45592500D01*
X90993422Y-45592500D01*
X90925301Y-45572498D01*
X90904327Y-45555595D01*
X82058671Y-36709938D01*
X82030644Y-36659168D01*
X82028256Y-36660000D01*
X81974314Y-36505097D01*
X81974313Y-36505095D01*
X81971999Y-36498450D01*
X81965982Y-36488820D01*
X81934646Y-36438673D01*
X81915500Y-36371903D01*
X81915500Y-28145481D01*
X81936551Y-28075755D01*
X81962471Y-28036743D01*
X82003546Y-27928614D01*
X82020718Y-27883408D01*
X82020719Y-27883406D01*
X82023218Y-27876826D01*
X82024198Y-27869854D01*
X82046475Y-27711347D01*
X82046475Y-27711344D01*
X82047026Y-27707425D01*
X82047325Y-27686000D01*
X82028256Y-27516000D01*
X82012703Y-27471335D01*
X81994890Y-27420183D01*
X85024389Y-27420183D01*
X85025912Y-27428607D01*
X85038292Y-27432000D01*
X86087885Y-27432000D01*
X86103124Y-27427525D01*
X86104329Y-27426135D01*
X86106000Y-27418452D01*
X86106000Y-26369102D01*
X86102082Y-26355758D01*
X86087806Y-26353771D01*
X86049324Y-26359660D01*
X86039288Y-26362051D01*
X85836868Y-26428212D01*
X85827359Y-26432209D01*
X85638463Y-26530542D01*
X85629738Y-26536036D01*
X85459433Y-26663905D01*
X85451726Y-26670748D01*
X85304590Y-26824717D01*
X85298104Y-26832727D01*
X85178098Y-27008649D01*
X85173000Y-27017623D01*
X85083338Y-27210783D01*
X85079775Y-27220470D01*
X85024389Y-27420183D01*
X81994890Y-27420183D01*
X81974314Y-27361097D01*
X81974313Y-27361095D01*
X81971999Y-27354450D01*
X81930532Y-27288088D01*
X81885081Y-27215352D01*
X81881348Y-27209378D01*
X81868159Y-27196096D01*
X81803255Y-27130738D01*
X81760809Y-27087994D01*
X81671826Y-27031524D01*
X81622316Y-27000104D01*
X81622313Y-27000102D01*
X81616373Y-26996333D01*
X81609740Y-26993971D01*
X81461854Y-26941311D01*
X81461849Y-26941310D01*
X81455219Y-26938949D01*
X81448231Y-26938116D01*
X81448228Y-26938115D01*
X81332655Y-26924334D01*
X81285357Y-26918694D01*
X81278354Y-26919430D01*
X81278353Y-26919430D01*
X81233958Y-26924096D01*
X81115228Y-26936575D01*
X81105071Y-26940033D01*
X80959956Y-26989434D01*
X80959953Y-26989435D01*
X80953289Y-26991704D01*
X80807588Y-27081340D01*
X80802557Y-27086267D01*
X80802554Y-27086269D01*
X80787636Y-27100878D01*
X80685366Y-27201028D01*
X80681547Y-27206953D01*
X80681546Y-27206955D01*
X80679079Y-27210783D01*
X80592698Y-27344820D01*
X80590287Y-27351443D01*
X80590286Y-27351446D01*
X80536600Y-27498947D01*
X80536599Y-27498952D01*
X80534190Y-27505570D01*
X80512750Y-27675286D01*
X80529443Y-27845536D01*
X80583440Y-28007856D01*
X80624560Y-28075753D01*
X80626276Y-28078587D01*
X80644500Y-28143858D01*
X80644500Y-36371356D01*
X80624411Y-36439611D01*
X80592698Y-36488820D01*
X80590287Y-36495443D01*
X80590286Y-36495446D01*
X80536600Y-36642947D01*
X80536599Y-36642952D01*
X80534190Y-36649570D01*
X80512750Y-36819286D01*
X53717761Y-36819286D01*
X53717761Y-28484200D01*
X53719312Y-28464489D01*
X53720965Y-28454054D01*
X53720965Y-28454052D01*
X53722516Y-28444260D01*
X53720964Y-28434463D01*
X53720964Y-28432431D01*
X53719762Y-28408643D01*
X53734133Y-28152944D01*
X53735715Y-28138916D01*
X53740857Y-28108679D01*
X53783438Y-27858262D01*
X53786586Y-27844479D01*
X53824972Y-27711347D01*
X53865454Y-27570944D01*
X53870126Y-27557603D01*
X53884473Y-27522998D01*
X53929708Y-27413885D01*
X53979149Y-27294628D01*
X53985289Y-27281890D01*
X54123090Y-27032789D01*
X54130619Y-27020819D01*
X54295461Y-26788734D01*
X54304283Y-26777683D01*
X54494096Y-26565525D01*
X54504101Y-26555532D01*
X54716492Y-26365979D01*
X54727554Y-26357170D01*
X54959846Y-26192611D01*
X54971825Y-26185097D01*
X55221098Y-26047600D01*
X55233844Y-26041476D01*
X55296612Y-26015544D01*
X55496951Y-25932778D01*
X55510285Y-25928126D01*
X55783932Y-25849590D01*
X55797712Y-25846460D01*
X56078427Y-25799083D01*
X56092472Y-25797516D01*
X56348182Y-25783460D01*
X56371910Y-25784689D01*
X56373993Y-25784692D01*
X56383785Y-25786255D01*
X56393580Y-25784716D01*
X56393582Y-25784716D01*
X56404329Y-25783027D01*
X56423887Y-25781500D01*
X126456109Y-25781500D01*
X126475670Y-25783028D01*
G37*
%TD.AperFunction*%
%TA.AperFunction,Conductor*%
G36*
X129113434Y-69996373D02*
G01*
X129155018Y-70053916D01*
X129162239Y-70095957D01*
X129162239Y-71639217D01*
X129142237Y-71707338D01*
X129088581Y-71753831D01*
X129018307Y-71763935D01*
X128953727Y-71734441D01*
X128924987Y-71698370D01*
X128862540Y-71580923D01*
X128855752Y-71570706D01*
X128776755Y-71473847D01*
X128749201Y-71408415D01*
X128761396Y-71338474D01*
X128765279Y-71331211D01*
X128767903Y-71326667D01*
X128825726Y-71226513D01*
X128830298Y-71212443D01*
X128880948Y-71056560D01*
X128880948Y-71056558D01*
X128882987Y-71050284D01*
X128884626Y-71034695D01*
X128901666Y-70872565D01*
X128902356Y-70866000D01*
X128898129Y-70825782D01*
X128883677Y-70688277D01*
X128883676Y-70688273D01*
X128882987Y-70681716D01*
X128825726Y-70505487D01*
X128765035Y-70400366D01*
X128748298Y-70331371D01*
X128771519Y-70264279D01*
X128778773Y-70255036D01*
X128839643Y-70184517D01*
X128846711Y-70174497D01*
X128926683Y-70033720D01*
X128977722Y-69984370D01*
X129047340Y-69970447D01*
X129113434Y-69996373D01*
G37*
%TD.AperFunction*%
%TD*%
M02*
