%TF.GenerationSoftware,KiCad,Pcbnew,(6.0.5)*%
%TF.CreationDate,2022-07-19T14:03:45+07:00*%
%TF.ProjectId,atm128,61746d31-3238-42e6-9b69-6361645f7063,1.0*%
%TF.SameCoordinates,Original*%
%TF.FileFunction,Legend,Bot*%
%TF.FilePolarity,Positive*%
%FSLAX46Y46*%
G04 Gerber Fmt 4.6, Leading zero omitted, Abs format (unit mm)*
G04 Created by KiCad (PCBNEW (6.0.5)) date 2022-07-19 14:03:45*
%MOMM*%
%LPD*%
G01*
G04 APERTURE LIST*
%ADD10C,0.152400*%
%ADD11C,0.150000*%
%ADD12C,0.254000*%
%ADD13C,0.471761*%
%TA.AperFunction,Profile*%
%ADD14C,0.127000*%
%TD*%
G04 APERTURE END LIST*
D10*
X126724228Y-28143200D02*
X126651657Y-28191580D01*
X126542800Y-28191580D01*
X126433942Y-28143200D01*
X126361371Y-28046438D01*
X126325085Y-27949676D01*
X126288800Y-27756152D01*
X126288800Y-27611009D01*
X126325085Y-27417485D01*
X126361371Y-27320723D01*
X126433942Y-27223961D01*
X126542800Y-27175580D01*
X126615371Y-27175580D01*
X126724228Y-27223961D01*
X126760514Y-27272342D01*
X126760514Y-27611009D01*
X126615371Y-27611009D01*
X127087085Y-27175580D02*
X127087085Y-28191580D01*
X127522514Y-27175580D01*
X127522514Y-28191580D01*
X127885371Y-27175580D02*
X127885371Y-28191580D01*
X128066800Y-28191580D01*
X128175657Y-28143200D01*
X128248228Y-28046438D01*
X128284514Y-27949676D01*
X128320800Y-27756152D01*
X128320800Y-27611009D01*
X128284514Y-27417485D01*
X128248228Y-27320723D01*
X128175657Y-27223961D01*
X128066800Y-27175580D01*
X127885371Y-27175580D01*
X127136676Y-33830380D02*
X126652866Y-33830380D01*
X126604485Y-33346571D01*
X126652866Y-33394952D01*
X126749628Y-33443333D01*
X126991533Y-33443333D01*
X127088295Y-33394952D01*
X127136676Y-33346571D01*
X127185057Y-33249809D01*
X127185057Y-33007904D01*
X127136676Y-32911142D01*
X127088295Y-32862761D01*
X126991533Y-32814380D01*
X126749628Y-32814380D01*
X126652866Y-32862761D01*
X126604485Y-32911142D01*
X127475342Y-33830380D02*
X127814009Y-32814380D01*
X128152676Y-33830380D01*
D11*
X110794800Y-31673800D02*
X110794800Y-32435800D01*
X110794800Y-32435800D02*
X128651000Y-32435800D01*
X128397000Y-60071000D02*
X127254000Y-60071000D01*
X128397000Y-49911000D02*
X128397000Y-40767000D01*
D12*
X64262000Y-48260000D02*
X70866000Y-48260000D01*
X70866000Y-48260000D02*
X70866000Y-66802000D01*
X70866000Y-66802000D02*
X64262000Y-66802000D01*
X64262000Y-66802000D02*
X64262000Y-48260000D01*
D11*
X128397000Y-49911000D02*
X128397000Y-60071000D01*
X113284000Y-68834000D02*
X122936000Y-68834000D01*
X122936000Y-68834000D02*
X122936000Y-73914000D01*
X122936000Y-73914000D02*
X113284000Y-73914000D01*
X113284000Y-73914000D02*
X113284000Y-68834000D01*
X128397000Y-54991000D02*
X127254000Y-54991000D01*
X100584000Y-71374000D02*
X110236000Y-71374000D01*
X105130600Y-63398400D02*
X113766600Y-63398400D01*
X113766600Y-63398400D02*
X113766600Y-56515000D01*
X113766600Y-56515000D02*
X105130600Y-56515000D01*
X105130600Y-56515000D02*
X105130600Y-63398400D01*
X87884000Y-71374000D02*
X97536000Y-71374000D01*
X110109000Y-56515000D02*
X110109000Y-63373000D01*
X87884000Y-35052000D02*
X97536000Y-35052000D01*
X100584000Y-68834000D02*
X110236000Y-68834000D01*
X110236000Y-68834000D02*
X110236000Y-73914000D01*
X110236000Y-73914000D02*
X100584000Y-73914000D01*
X100584000Y-73914000D02*
X100584000Y-68834000D01*
X87884000Y-32512000D02*
X97536000Y-32512000D01*
X97536000Y-32512000D02*
X97536000Y-37592000D01*
X97536000Y-37592000D02*
X87884000Y-37592000D01*
X87884000Y-37592000D02*
X87884000Y-32512000D01*
X100584000Y-35052000D02*
X110236000Y-35052000D01*
X127254000Y-49911000D02*
X128397000Y-49911000D01*
X100584000Y-32512000D02*
X110236000Y-32512000D01*
X110236000Y-32512000D02*
X110236000Y-37592000D01*
X110236000Y-37592000D02*
X100584000Y-37592000D01*
X100584000Y-37592000D02*
X100584000Y-32512000D01*
X128397000Y-52451000D02*
X127254000Y-52451000D01*
X113284000Y-71374000D02*
X122936000Y-71374000D01*
X87884000Y-68834000D02*
X97536000Y-68834000D01*
X97536000Y-68834000D02*
X97536000Y-73914000D01*
X97536000Y-73914000D02*
X87884000Y-73914000D01*
X87884000Y-73914000D02*
X87884000Y-68834000D01*
D13*
X65513880Y-73710800D02*
G75*
G03*
X65513880Y-73710800I-235880J0D01*
G01*
D14*
X53336261Y-78235739D02*
G75*
G03*
X56384261Y-81283739I3048039J39D01*
G01*
X126495739Y-81283739D02*
G75*
G03*
X129543739Y-78235739I-39J3048039D01*
G01*
X129543702Y-28444261D02*
G75*
G03*
X126495739Y-25400000I-3044302J-39D01*
G01*
X53336261Y-78235739D02*
X53336261Y-28444261D01*
X129543739Y-28444261D02*
X129543739Y-78235739D01*
X56384261Y-25400003D02*
G75*
G03*
X53336261Y-28444261I-3751J-3044247D01*
G01*
X56384261Y-25400000D02*
X126495739Y-25400000D01*
X126495739Y-81283739D02*
X56384261Y-81283739D01*
D10*
X94439619Y-32796238D02*
X93423619Y-32796238D01*
X93423619Y-33038142D01*
X93472000Y-33183285D01*
X93568761Y-33280047D01*
X93665523Y-33328428D01*
X93859047Y-33376809D01*
X94004190Y-33376809D01*
X94197714Y-33328428D01*
X94294476Y-33280047D01*
X94391238Y-33183285D01*
X94439619Y-33038142D01*
X94439619Y-32796238D01*
X93423619Y-33715476D02*
X93423619Y-34344428D01*
X93810666Y-34005761D01*
X93810666Y-34150904D01*
X93859047Y-34247666D01*
X93907428Y-34296047D01*
X94004190Y-34344428D01*
X94246095Y-34344428D01*
X94342857Y-34296047D01*
X94391238Y-34247666D01*
X94439619Y-34150904D01*
X94439619Y-33860619D01*
X94391238Y-33763857D01*
X94342857Y-33715476D01*
X94439619Y-35553952D02*
X93423619Y-35553952D01*
X93423619Y-35795857D01*
X93472000Y-35941000D01*
X93568761Y-36037761D01*
X93665523Y-36086142D01*
X93859047Y-36134523D01*
X94004190Y-36134523D01*
X94197714Y-36086142D01*
X94294476Y-36037761D01*
X94391238Y-35941000D01*
X94439619Y-35795857D01*
X94439619Y-35553952D01*
X93520380Y-36521571D02*
X93472000Y-36569952D01*
X93423619Y-36666714D01*
X93423619Y-36908619D01*
X93472000Y-37005380D01*
X93520380Y-37053761D01*
X93617142Y-37102142D01*
X93713904Y-37102142D01*
X93859047Y-37053761D01*
X94439619Y-36473190D01*
X94439619Y-37102142D01*
X89359619Y-32796238D02*
X88343619Y-32796238D01*
X88343619Y-33038142D01*
X88392000Y-33183285D01*
X88488761Y-33280047D01*
X88585523Y-33328428D01*
X88779047Y-33376809D01*
X88924190Y-33376809D01*
X89117714Y-33328428D01*
X89214476Y-33280047D01*
X89311238Y-33183285D01*
X89359619Y-33038142D01*
X89359619Y-32796238D01*
X88343619Y-33715476D02*
X88343619Y-34392809D01*
X89359619Y-33957380D01*
X89359619Y-35553952D02*
X88343619Y-35553952D01*
X88343619Y-35795857D01*
X88392000Y-35941000D01*
X88488761Y-36037761D01*
X88585523Y-36086142D01*
X88779047Y-36134523D01*
X88924190Y-36134523D01*
X89117714Y-36086142D01*
X89214476Y-36037761D01*
X89311238Y-35941000D01*
X89359619Y-35795857D01*
X89359619Y-35553952D01*
X88343619Y-37005380D02*
X88343619Y-36811857D01*
X88392000Y-36715095D01*
X88440380Y-36666714D01*
X88585523Y-36569952D01*
X88779047Y-36521571D01*
X89166095Y-36521571D01*
X89262857Y-36569952D01*
X89311238Y-36618333D01*
X89359619Y-36715095D01*
X89359619Y-36908619D01*
X89311238Y-37005380D01*
X89262857Y-37053761D01*
X89166095Y-37102142D01*
X88924190Y-37102142D01*
X88827428Y-37053761D01*
X88779047Y-37005380D01*
X88730666Y-36908619D01*
X88730666Y-36715095D01*
X88779047Y-36618333D01*
X88827428Y-36569952D01*
X88924190Y-36521571D01*
X111252000Y-69547619D02*
X111203619Y-69450857D01*
X111203619Y-69305714D01*
X111252000Y-69160571D01*
X111348761Y-69063809D01*
X111445523Y-69015428D01*
X111639047Y-68967047D01*
X111784190Y-68967047D01*
X111977714Y-69015428D01*
X112074476Y-69063809D01*
X112171238Y-69160571D01*
X112219619Y-69305714D01*
X112219619Y-69402476D01*
X112171238Y-69547619D01*
X112122857Y-69596000D01*
X111784190Y-69596000D01*
X111784190Y-69402476D01*
X112219619Y-70031428D02*
X111203619Y-70031428D01*
X112219619Y-70612000D01*
X111203619Y-70612000D01*
X112219619Y-71095809D02*
X111203619Y-71095809D01*
X111203619Y-71337714D01*
X111252000Y-71482857D01*
X111348761Y-71579619D01*
X111445523Y-71628000D01*
X111639047Y-71676380D01*
X111784190Y-71676380D01*
X111977714Y-71628000D01*
X112074476Y-71579619D01*
X112171238Y-71482857D01*
X112219619Y-71337714D01*
X112219619Y-71095809D01*
X111203619Y-73369714D02*
X111203619Y-72885904D01*
X111687428Y-72837523D01*
X111639047Y-72885904D01*
X111590666Y-72982666D01*
X111590666Y-73224571D01*
X111639047Y-73321333D01*
X111687428Y-73369714D01*
X111784190Y-73418095D01*
X112026095Y-73418095D01*
X112122857Y-73369714D01*
X112171238Y-73321333D01*
X112219619Y-73224571D01*
X112219619Y-72982666D01*
X112171238Y-72885904D01*
X112122857Y-72837523D01*
X111203619Y-73708380D02*
X112219619Y-74047047D01*
X111203619Y-74385714D01*
X104067428Y-33134904D02*
X104115809Y-33280047D01*
X104164190Y-33328428D01*
X104260952Y-33376809D01*
X104406095Y-33376809D01*
X104502857Y-33328428D01*
X104551238Y-33280047D01*
X104599619Y-33183285D01*
X104599619Y-32796238D01*
X103583619Y-32796238D01*
X103583619Y-33134904D01*
X103632000Y-33231666D01*
X103680380Y-33280047D01*
X103777142Y-33328428D01*
X103873904Y-33328428D01*
X103970666Y-33280047D01*
X104019047Y-33231666D01*
X104067428Y-33134904D01*
X104067428Y-32796238D01*
X103583619Y-34296047D02*
X103583619Y-33812238D01*
X104067428Y-33763857D01*
X104019047Y-33812238D01*
X103970666Y-33909000D01*
X103970666Y-34150904D01*
X104019047Y-34247666D01*
X104067428Y-34296047D01*
X104164190Y-34344428D01*
X104406095Y-34344428D01*
X104502857Y-34296047D01*
X104551238Y-34247666D01*
X104599619Y-34150904D01*
X104599619Y-33909000D01*
X104551238Y-33812238D01*
X104502857Y-33763857D01*
X104067428Y-35892619D02*
X104115809Y-36037761D01*
X104164190Y-36086142D01*
X104260952Y-36134523D01*
X104406095Y-36134523D01*
X104502857Y-36086142D01*
X104551238Y-36037761D01*
X104599619Y-35941000D01*
X104599619Y-35553952D01*
X103583619Y-35553952D01*
X103583619Y-35892619D01*
X103632000Y-35989380D01*
X103680380Y-36037761D01*
X103777142Y-36086142D01*
X103873904Y-36086142D01*
X103970666Y-36037761D01*
X104019047Y-35989380D01*
X104067428Y-35892619D01*
X104067428Y-35553952D01*
X103922285Y-37005380D02*
X104599619Y-37005380D01*
X103535238Y-36763476D02*
X104260952Y-36521571D01*
X104260952Y-37150523D01*
D12*
X66632666Y-49149000D02*
X66632666Y-49874714D01*
X67213238Y-49003857D02*
X65181238Y-49511857D01*
X67213238Y-50019857D01*
X65181238Y-50310142D02*
X65181238Y-51181000D01*
X67213238Y-50745571D02*
X65181238Y-50745571D01*
X67213238Y-51689000D02*
X65181238Y-51689000D01*
X66632666Y-52197000D01*
X65181238Y-52705000D01*
X67213238Y-52705000D01*
X66148857Y-53430714D02*
X66148857Y-53938714D01*
X67213238Y-54156428D02*
X67213238Y-53430714D01*
X65181238Y-53430714D01*
X65181238Y-54156428D01*
X65278000Y-55607857D02*
X65181238Y-55462714D01*
X65181238Y-55245000D01*
X65278000Y-55027285D01*
X65471523Y-54882142D01*
X65665047Y-54809571D01*
X66052095Y-54737000D01*
X66342380Y-54737000D01*
X66729428Y-54809571D01*
X66922952Y-54882142D01*
X67116476Y-55027285D01*
X67213238Y-55245000D01*
X67213238Y-55390142D01*
X67116476Y-55607857D01*
X67019714Y-55680428D01*
X66342380Y-55680428D01*
X66342380Y-55390142D01*
X66632666Y-56261000D02*
X66632666Y-56986714D01*
X67213238Y-56115857D02*
X65181238Y-56623857D01*
X67213238Y-57131857D01*
X67213238Y-58438142D02*
X67213238Y-57567285D01*
X67213238Y-58002714D02*
X65181238Y-58002714D01*
X65471523Y-57857571D01*
X65665047Y-57712428D01*
X65761809Y-57567285D01*
X65374761Y-59018714D02*
X65278000Y-59091285D01*
X65181238Y-59236428D01*
X65181238Y-59599285D01*
X65278000Y-59744428D01*
X65374761Y-59817000D01*
X65568285Y-59889571D01*
X65761809Y-59889571D01*
X66052095Y-59817000D01*
X67213238Y-58946142D01*
X67213238Y-59889571D01*
X66052095Y-60760428D02*
X65955333Y-60615285D01*
X65858571Y-60542714D01*
X65665047Y-60470142D01*
X65568285Y-60470142D01*
X65374761Y-60542714D01*
X65278000Y-60615285D01*
X65181238Y-60760428D01*
X65181238Y-61050714D01*
X65278000Y-61195857D01*
X65374761Y-61268428D01*
X65568285Y-61341000D01*
X65665047Y-61341000D01*
X65858571Y-61268428D01*
X65955333Y-61195857D01*
X66052095Y-61050714D01*
X66052095Y-60760428D01*
X66148857Y-60615285D01*
X66245619Y-60542714D01*
X66439142Y-60470142D01*
X66826190Y-60470142D01*
X67019714Y-60542714D01*
X67116476Y-60615285D01*
X67213238Y-60760428D01*
X67213238Y-61050714D01*
X67116476Y-61195857D01*
X67019714Y-61268428D01*
X66826190Y-61341000D01*
X66439142Y-61341000D01*
X66245619Y-61268428D01*
X66148857Y-61195857D01*
X66052095Y-61050714D01*
X67213238Y-63155285D02*
X65181238Y-63155285D01*
X67213238Y-64026142D02*
X66052095Y-63373000D01*
X65181238Y-64026142D02*
X66342380Y-63155285D01*
X67213238Y-64679285D02*
X65181238Y-64679285D01*
X65181238Y-65187285D02*
X65181238Y-66058142D01*
X67213238Y-65622714D02*
X65181238Y-65622714D01*
D10*
X96979619Y-32796238D02*
X95963619Y-32796238D01*
X95963619Y-33038142D01*
X96012000Y-33183285D01*
X96108761Y-33280047D01*
X96205523Y-33328428D01*
X96399047Y-33376809D01*
X96544190Y-33376809D01*
X96737714Y-33328428D01*
X96834476Y-33280047D01*
X96931238Y-33183285D01*
X96979619Y-33038142D01*
X96979619Y-32796238D01*
X96979619Y-34344428D02*
X96979619Y-33763857D01*
X96979619Y-34054142D02*
X95963619Y-34054142D01*
X96108761Y-33957380D01*
X96205523Y-33860619D01*
X96253904Y-33763857D01*
X96979619Y-35553952D02*
X95963619Y-35553952D01*
X95963619Y-35795857D01*
X96012000Y-35941000D01*
X96108761Y-36037761D01*
X96205523Y-36086142D01*
X96399047Y-36134523D01*
X96544190Y-36134523D01*
X96737714Y-36086142D01*
X96834476Y-36037761D01*
X96931238Y-35941000D01*
X96979619Y-35795857D01*
X96979619Y-35553952D01*
X95963619Y-36763476D02*
X95963619Y-36860238D01*
X96012000Y-36957000D01*
X96060380Y-37005380D01*
X96157142Y-37053761D01*
X96350666Y-37102142D01*
X96592571Y-37102142D01*
X96786095Y-37053761D01*
X96882857Y-37005380D01*
X96931238Y-36957000D01*
X96979619Y-36860238D01*
X96979619Y-36763476D01*
X96931238Y-36666714D01*
X96882857Y-36618333D01*
X96786095Y-36569952D01*
X96592571Y-36521571D01*
X96350666Y-36521571D01*
X96157142Y-36569952D01*
X96060380Y-36618333D01*
X96012000Y-36666714D01*
X95963619Y-36763476D01*
X98552000Y-32844619D02*
X98503619Y-32747857D01*
X98503619Y-32602714D01*
X98552000Y-32457571D01*
X98648761Y-32360809D01*
X98745523Y-32312428D01*
X98939047Y-32264047D01*
X99084190Y-32264047D01*
X99277714Y-32312428D01*
X99374476Y-32360809D01*
X99471238Y-32457571D01*
X99519619Y-32602714D01*
X99519619Y-32699476D01*
X99471238Y-32844619D01*
X99422857Y-32893000D01*
X99084190Y-32893000D01*
X99084190Y-32699476D01*
X99519619Y-33328428D02*
X98503619Y-33328428D01*
X99519619Y-33909000D01*
X98503619Y-33909000D01*
X99519619Y-34392809D02*
X98503619Y-34392809D01*
X98503619Y-34634714D01*
X98552000Y-34779857D01*
X98648761Y-34876619D01*
X98745523Y-34925000D01*
X98939047Y-34973380D01*
X99084190Y-34973380D01*
X99277714Y-34925000D01*
X99374476Y-34876619D01*
X99471238Y-34779857D01*
X99519619Y-34634714D01*
X99519619Y-34392809D01*
X98503619Y-36666714D02*
X98503619Y-36182904D01*
X98987428Y-36134523D01*
X98939047Y-36182904D01*
X98890666Y-36279666D01*
X98890666Y-36521571D01*
X98939047Y-36618333D01*
X98987428Y-36666714D01*
X99084190Y-36715095D01*
X99326095Y-36715095D01*
X99422857Y-36666714D01*
X99471238Y-36618333D01*
X99519619Y-36521571D01*
X99519619Y-36279666D01*
X99471238Y-36182904D01*
X99422857Y-36134523D01*
X98503619Y-37005380D02*
X99519619Y-37344047D01*
X98503619Y-37682714D01*
D11*
X83399380Y-28622666D02*
X84113666Y-28622666D01*
X84256523Y-28575047D01*
X84351761Y-28479809D01*
X84399380Y-28336952D01*
X84399380Y-28241714D01*
X83494619Y-29051238D02*
X83447000Y-29098857D01*
X83399380Y-29194095D01*
X83399380Y-29432190D01*
X83447000Y-29527428D01*
X83494619Y-29575047D01*
X83589857Y-29622666D01*
X83685095Y-29622666D01*
X83827952Y-29575047D01*
X84399380Y-29003619D01*
X84399380Y-29622666D01*
D10*
X106032904Y-61938020D02*
X105549095Y-61938020D01*
X105549095Y-62954020D01*
X106371571Y-62470211D02*
X106710238Y-62470211D01*
X106855380Y-61938020D02*
X106371571Y-61938020D01*
X106371571Y-62954020D01*
X106855380Y-62954020D01*
X107290809Y-61938020D02*
X107290809Y-62954020D01*
X107532714Y-62954020D01*
X107677857Y-62905640D01*
X107774619Y-62808878D01*
X107823000Y-62712116D01*
X107871380Y-62518592D01*
X107871380Y-62373449D01*
X107823000Y-62179925D01*
X107774619Y-62083163D01*
X107677857Y-61986401D01*
X107532714Y-61938020D01*
X107290809Y-61938020D01*
X108064904Y-61841259D02*
X108839000Y-61841259D01*
X109032523Y-62228306D02*
X109516333Y-62228306D01*
X108935761Y-61938020D02*
X109274428Y-62954020D01*
X109613095Y-61938020D01*
X110725857Y-61938020D02*
X110725857Y-62954020D01*
X111112904Y-62954020D01*
X111209666Y-62905640D01*
X111258047Y-62857259D01*
X111306428Y-62760497D01*
X111306428Y-62615354D01*
X111258047Y-62518592D01*
X111209666Y-62470211D01*
X111112904Y-62421830D01*
X110725857Y-62421830D01*
X111741857Y-62470211D02*
X112080523Y-62470211D01*
X112225666Y-61938020D02*
X111741857Y-61938020D01*
X111741857Y-62954020D01*
X112225666Y-62954020D01*
X113096523Y-62615354D02*
X113096523Y-61938020D01*
X112854619Y-63002401D02*
X112612714Y-62276687D01*
X113241666Y-62276687D01*
X105960333Y-60302260D02*
X105476523Y-60302260D01*
X105476523Y-61318260D01*
X106299000Y-60834451D02*
X106637666Y-60834451D01*
X106782809Y-60302260D02*
X106299000Y-60302260D01*
X106299000Y-61318260D01*
X106782809Y-61318260D01*
X107218238Y-60302260D02*
X107218238Y-61318260D01*
X107460142Y-61318260D01*
X107605285Y-61269880D01*
X107702047Y-61173118D01*
X107750428Y-61076356D01*
X107798809Y-60882832D01*
X107798809Y-60737689D01*
X107750428Y-60544165D01*
X107702047Y-60447403D01*
X107605285Y-60350641D01*
X107460142Y-60302260D01*
X107218238Y-60302260D01*
X107992333Y-60205499D02*
X108766428Y-60205499D01*
X109347000Y-60834451D02*
X109492142Y-60786070D01*
X109540523Y-60737689D01*
X109588904Y-60640927D01*
X109588904Y-60495784D01*
X109540523Y-60399022D01*
X109492142Y-60350641D01*
X109395380Y-60302260D01*
X109008333Y-60302260D01*
X109008333Y-61318260D01*
X109347000Y-61318260D01*
X109443761Y-61269880D01*
X109492142Y-61221499D01*
X109540523Y-61124737D01*
X109540523Y-61027975D01*
X109492142Y-60931213D01*
X109443761Y-60882832D01*
X109347000Y-60834451D01*
X109008333Y-60834451D01*
X110798428Y-60302260D02*
X110798428Y-61318260D01*
X111185476Y-61318260D01*
X111282238Y-61269880D01*
X111330619Y-61221499D01*
X111379000Y-61124737D01*
X111379000Y-60979594D01*
X111330619Y-60882832D01*
X111282238Y-60834451D01*
X111185476Y-60786070D01*
X110798428Y-60786070D01*
X111814428Y-60834451D02*
X112153095Y-60834451D01*
X112298238Y-60302260D02*
X111814428Y-60302260D01*
X111814428Y-61318260D01*
X112298238Y-61318260D01*
X113217476Y-61318260D02*
X112733666Y-61318260D01*
X112685285Y-60834451D01*
X112733666Y-60882832D01*
X112830428Y-60931213D01*
X113072333Y-60931213D01*
X113169095Y-60882832D01*
X113217476Y-60834451D01*
X113265857Y-60737689D01*
X113265857Y-60495784D01*
X113217476Y-60399022D01*
X113169095Y-60350641D01*
X113072333Y-60302260D01*
X112830428Y-60302260D01*
X112733666Y-60350641D01*
X112685285Y-60399022D01*
X105428142Y-58714881D02*
X105573285Y-58666500D01*
X105815190Y-58666500D01*
X105911952Y-58714881D01*
X105960333Y-58763262D01*
X106008714Y-58860024D01*
X106008714Y-58956786D01*
X105960333Y-59053548D01*
X105911952Y-59101929D01*
X105815190Y-59150310D01*
X105621666Y-59198691D01*
X105524904Y-59247072D01*
X105476523Y-59295453D01*
X105428142Y-59392215D01*
X105428142Y-59488977D01*
X105476523Y-59585739D01*
X105524904Y-59634120D01*
X105621666Y-59682500D01*
X105863571Y-59682500D01*
X106008714Y-59634120D01*
X106347380Y-59682500D02*
X106589285Y-58666500D01*
X106782809Y-59392215D01*
X106976333Y-58666500D01*
X107218238Y-59682500D01*
X107363380Y-58569739D02*
X108137476Y-58569739D01*
X108331000Y-58956786D02*
X108814809Y-58956786D01*
X108234238Y-58666500D02*
X108572904Y-59682500D01*
X108911571Y-58666500D01*
X110798428Y-58666500D02*
X110798428Y-59682500D01*
X111185476Y-59682500D01*
X111282238Y-59634120D01*
X111330619Y-59585739D01*
X111379000Y-59488977D01*
X111379000Y-59343834D01*
X111330619Y-59247072D01*
X111282238Y-59198691D01*
X111185476Y-59150310D01*
X110798428Y-59150310D01*
X111814428Y-59198691D02*
X112153095Y-59198691D01*
X112298238Y-58666500D02*
X111814428Y-58666500D01*
X111814428Y-59682500D01*
X112298238Y-59682500D01*
X113169095Y-59682500D02*
X112975571Y-59682500D01*
X112878809Y-59634120D01*
X112830428Y-59585739D01*
X112733666Y-59440596D01*
X112685285Y-59247072D01*
X112685285Y-58860024D01*
X112733666Y-58763262D01*
X112782047Y-58714881D01*
X112878809Y-58666500D01*
X113072333Y-58666500D01*
X113169095Y-58714881D01*
X113217476Y-58763262D01*
X113265857Y-58860024D01*
X113265857Y-59101929D01*
X113217476Y-59198691D01*
X113169095Y-59247072D01*
X113072333Y-59295453D01*
X112878809Y-59295453D01*
X112782047Y-59247072D01*
X112733666Y-59198691D01*
X112685285Y-59101929D01*
X105355571Y-57079121D02*
X105500714Y-57030740D01*
X105742619Y-57030740D01*
X105839380Y-57079121D01*
X105887761Y-57127502D01*
X105936142Y-57224264D01*
X105936142Y-57321026D01*
X105887761Y-57417788D01*
X105839380Y-57466169D01*
X105742619Y-57514550D01*
X105549095Y-57562931D01*
X105452333Y-57611312D01*
X105403952Y-57659693D01*
X105355571Y-57756455D01*
X105355571Y-57853217D01*
X105403952Y-57949979D01*
X105452333Y-57998360D01*
X105549095Y-58046740D01*
X105791000Y-58046740D01*
X105936142Y-57998360D01*
X106274809Y-58046740D02*
X106516714Y-57030740D01*
X106710238Y-57756455D01*
X106903761Y-57030740D01*
X107145666Y-58046740D01*
X107290809Y-56933979D02*
X108064904Y-56933979D01*
X108645476Y-57562931D02*
X108790619Y-57514550D01*
X108839000Y-57466169D01*
X108887380Y-57369407D01*
X108887380Y-57224264D01*
X108839000Y-57127502D01*
X108790619Y-57079121D01*
X108693857Y-57030740D01*
X108306809Y-57030740D01*
X108306809Y-58046740D01*
X108645476Y-58046740D01*
X108742238Y-57998360D01*
X108790619Y-57949979D01*
X108839000Y-57853217D01*
X108839000Y-57756455D01*
X108790619Y-57659693D01*
X108742238Y-57611312D01*
X108645476Y-57562931D01*
X108306809Y-57562931D01*
X110871000Y-57030740D02*
X110871000Y-58046740D01*
X111258047Y-58046740D01*
X111354809Y-57998360D01*
X111403190Y-57949979D01*
X111451571Y-57853217D01*
X111451571Y-57708074D01*
X111403190Y-57611312D01*
X111354809Y-57562931D01*
X111258047Y-57514550D01*
X110871000Y-57514550D01*
X111887000Y-57562931D02*
X112225666Y-57562931D01*
X112370809Y-57030740D02*
X111887000Y-57030740D01*
X111887000Y-58046740D01*
X112370809Y-58046740D01*
X112709476Y-58046740D02*
X113386809Y-58046740D01*
X112951380Y-57030740D01*
X126062619Y-44371380D02*
X125723952Y-44855190D01*
X125482047Y-44371380D02*
X125482047Y-45387380D01*
X125869095Y-45387380D01*
X125965857Y-45339000D01*
X126014238Y-45290619D01*
X126062619Y-45193857D01*
X126062619Y-45048714D01*
X126014238Y-44951952D01*
X125965857Y-44903571D01*
X125869095Y-44855190D01*
X125482047Y-44855190D01*
X126449666Y-44419761D02*
X126594809Y-44371380D01*
X126836714Y-44371380D01*
X126933476Y-44419761D01*
X126981857Y-44468142D01*
X127030238Y-44564904D01*
X127030238Y-44661666D01*
X126981857Y-44758428D01*
X126933476Y-44806809D01*
X126836714Y-44855190D01*
X126643190Y-44903571D01*
X126546428Y-44951952D01*
X126498047Y-45000333D01*
X126449666Y-45097095D01*
X126449666Y-45193857D01*
X126498047Y-45290619D01*
X126546428Y-45339000D01*
X126643190Y-45387380D01*
X126885095Y-45387380D01*
X127030238Y-45339000D01*
X127320523Y-45387380D02*
X127901095Y-45387380D01*
X127610809Y-44371380D02*
X127610809Y-45387380D01*
X101527428Y-33134904D02*
X101575809Y-33280047D01*
X101624190Y-33328428D01*
X101720952Y-33376809D01*
X101866095Y-33376809D01*
X101962857Y-33328428D01*
X102011238Y-33280047D01*
X102059619Y-33183285D01*
X102059619Y-32796238D01*
X101043619Y-32796238D01*
X101043619Y-33134904D01*
X101092000Y-33231666D01*
X101140380Y-33280047D01*
X101237142Y-33328428D01*
X101333904Y-33328428D01*
X101430666Y-33280047D01*
X101479047Y-33231666D01*
X101527428Y-33134904D01*
X101527428Y-32796238D01*
X101043619Y-33715476D02*
X101043619Y-34392809D01*
X102059619Y-33957380D01*
X101527428Y-35892619D02*
X101575809Y-36037761D01*
X101624190Y-36086142D01*
X101720952Y-36134523D01*
X101866095Y-36134523D01*
X101962857Y-36086142D01*
X102011238Y-36037761D01*
X102059619Y-35941000D01*
X102059619Y-35553952D01*
X101043619Y-35553952D01*
X101043619Y-35892619D01*
X101092000Y-35989380D01*
X101140380Y-36037761D01*
X101237142Y-36086142D01*
X101333904Y-36086142D01*
X101430666Y-36037761D01*
X101479047Y-35989380D01*
X101527428Y-35892619D01*
X101527428Y-35553952D01*
X101043619Y-37005380D02*
X101043619Y-36811857D01*
X101092000Y-36715095D01*
X101140380Y-36666714D01*
X101285523Y-36569952D01*
X101479047Y-36521571D01*
X101866095Y-36521571D01*
X101962857Y-36569952D01*
X102011238Y-36618333D01*
X102059619Y-36715095D01*
X102059619Y-36908619D01*
X102011238Y-37005380D01*
X101962857Y-37053761D01*
X101866095Y-37102142D01*
X101624190Y-37102142D01*
X101527428Y-37053761D01*
X101479047Y-37005380D01*
X101430666Y-36908619D01*
X101430666Y-36715095D01*
X101479047Y-36618333D01*
X101527428Y-36569952D01*
X101624190Y-36521571D01*
X85826600Y-69293619D02*
X85778219Y-69196857D01*
X85778219Y-69051714D01*
X85826600Y-68906571D01*
X85923361Y-68809809D01*
X86020123Y-68761428D01*
X86213647Y-68713047D01*
X86358790Y-68713047D01*
X86552314Y-68761428D01*
X86649076Y-68809809D01*
X86745838Y-68906571D01*
X86794219Y-69051714D01*
X86794219Y-69148476D01*
X86745838Y-69293619D01*
X86697457Y-69342000D01*
X86358790Y-69342000D01*
X86358790Y-69148476D01*
X86794219Y-69777428D02*
X85778219Y-69777428D01*
X86794219Y-70358000D01*
X85778219Y-70358000D01*
X86794219Y-70841809D02*
X85778219Y-70841809D01*
X85778219Y-71083714D01*
X85826600Y-71228857D01*
X85923361Y-71325619D01*
X86020123Y-71374000D01*
X86213647Y-71422380D01*
X86358790Y-71422380D01*
X86552314Y-71374000D01*
X86649076Y-71325619D01*
X86745838Y-71228857D01*
X86794219Y-71083714D01*
X86794219Y-70841809D01*
X85778219Y-73115714D02*
X85778219Y-72631904D01*
X86262028Y-72583523D01*
X86213647Y-72631904D01*
X86165266Y-72728666D01*
X86165266Y-72970571D01*
X86213647Y-73067333D01*
X86262028Y-73115714D01*
X86358790Y-73164095D01*
X86600695Y-73164095D01*
X86697457Y-73115714D01*
X86745838Y-73067333D01*
X86794219Y-72970571D01*
X86794219Y-72728666D01*
X86745838Y-72631904D01*
X86697457Y-72583523D01*
X85778219Y-73454380D02*
X86794219Y-73793047D01*
X85778219Y-74131714D01*
X69916523Y-48961523D02*
X68646523Y-48961523D01*
X68646523Y-49203428D01*
X68707000Y-49348571D01*
X68827952Y-49445333D01*
X68948904Y-49493714D01*
X69190809Y-49542095D01*
X69372238Y-49542095D01*
X69614142Y-49493714D01*
X69735095Y-49445333D01*
X69856047Y-49348571D01*
X69916523Y-49203428D01*
X69916523Y-48961523D01*
X69856047Y-50364571D02*
X69916523Y-50267809D01*
X69916523Y-50074285D01*
X69856047Y-49977523D01*
X69735095Y-49929142D01*
X69251285Y-49929142D01*
X69130333Y-49977523D01*
X69069857Y-50074285D01*
X69069857Y-50267809D01*
X69130333Y-50364571D01*
X69251285Y-50412952D01*
X69372238Y-50412952D01*
X69493190Y-49929142D01*
X69856047Y-50800000D02*
X69916523Y-50896761D01*
X69916523Y-51090285D01*
X69856047Y-51187047D01*
X69735095Y-51235428D01*
X69674619Y-51235428D01*
X69553666Y-51187047D01*
X69493190Y-51090285D01*
X69493190Y-50945142D01*
X69432714Y-50848380D01*
X69311761Y-50800000D01*
X69251285Y-50800000D01*
X69130333Y-50848380D01*
X69069857Y-50945142D01*
X69069857Y-51090285D01*
X69130333Y-51187047D01*
X69916523Y-51670857D02*
X69069857Y-51670857D01*
X68646523Y-51670857D02*
X68707000Y-51622476D01*
X68767476Y-51670857D01*
X68707000Y-51719238D01*
X68646523Y-51670857D01*
X68767476Y-51670857D01*
X69069857Y-52590095D02*
X70097952Y-52590095D01*
X70218904Y-52541714D01*
X70279380Y-52493333D01*
X70339857Y-52396571D01*
X70339857Y-52251428D01*
X70279380Y-52154666D01*
X69856047Y-52590095D02*
X69916523Y-52493333D01*
X69916523Y-52299809D01*
X69856047Y-52203047D01*
X69795571Y-52154666D01*
X69674619Y-52106285D01*
X69311761Y-52106285D01*
X69190809Y-52154666D01*
X69130333Y-52203047D01*
X69069857Y-52299809D01*
X69069857Y-52493333D01*
X69130333Y-52590095D01*
X69069857Y-53073904D02*
X69916523Y-53073904D01*
X69190809Y-53073904D02*
X69130333Y-53122285D01*
X69069857Y-53219047D01*
X69069857Y-53364190D01*
X69130333Y-53460952D01*
X69251285Y-53509333D01*
X69916523Y-53509333D01*
X69856047Y-54380190D02*
X69916523Y-54283428D01*
X69916523Y-54089904D01*
X69856047Y-53993142D01*
X69735095Y-53944761D01*
X69251285Y-53944761D01*
X69130333Y-53993142D01*
X69069857Y-54089904D01*
X69069857Y-54283428D01*
X69130333Y-54380190D01*
X69251285Y-54428571D01*
X69372238Y-54428571D01*
X69493190Y-53944761D01*
X69916523Y-55299428D02*
X68646523Y-55299428D01*
X69856047Y-55299428D02*
X69916523Y-55202666D01*
X69916523Y-55009142D01*
X69856047Y-54912380D01*
X69795571Y-54864000D01*
X69674619Y-54815619D01*
X69311761Y-54815619D01*
X69190809Y-54864000D01*
X69130333Y-54912380D01*
X69069857Y-55009142D01*
X69069857Y-55202666D01*
X69130333Y-55299428D01*
X69916523Y-56557333D02*
X68646523Y-56557333D01*
X69130333Y-56557333D02*
X69069857Y-56654095D01*
X69069857Y-56847619D01*
X69130333Y-56944380D01*
X69190809Y-56992761D01*
X69311761Y-57041142D01*
X69674619Y-57041142D01*
X69795571Y-56992761D01*
X69856047Y-56944380D01*
X69916523Y-56847619D01*
X69916523Y-56654095D01*
X69856047Y-56557333D01*
X69069857Y-57379809D02*
X69916523Y-57621714D01*
X69069857Y-57863619D02*
X69916523Y-57621714D01*
X70218904Y-57524952D01*
X70279380Y-57476571D01*
X70339857Y-57379809D01*
X69916523Y-59024761D02*
X68646523Y-59024761D01*
X68646523Y-59266666D01*
X68707000Y-59411809D01*
X68827952Y-59508571D01*
X68948904Y-59556952D01*
X69190809Y-59605333D01*
X69372238Y-59605333D01*
X69614142Y-59556952D01*
X69735095Y-59508571D01*
X69856047Y-59411809D01*
X69916523Y-59266666D01*
X69916523Y-59024761D01*
X69916523Y-60040761D02*
X68646523Y-60040761D01*
X68646523Y-60427809D01*
X68707000Y-60524571D01*
X68767476Y-60572952D01*
X68888428Y-60621333D01*
X69069857Y-60621333D01*
X69190809Y-60572952D01*
X69251285Y-60524571D01*
X69311761Y-60427809D01*
X69311761Y-60040761D01*
X69251285Y-61056761D02*
X69251285Y-61395428D01*
X69916523Y-61540571D02*
X69916523Y-61056761D01*
X68646523Y-61056761D01*
X68646523Y-61540571D01*
X69251285Y-61976000D02*
X69251285Y-62314666D01*
X69916523Y-62459809D02*
X69916523Y-61976000D01*
X68646523Y-61976000D01*
X68646523Y-62459809D01*
X69916523Y-64153142D02*
X69916523Y-63669333D01*
X68646523Y-63669333D01*
X69916523Y-64927238D02*
X69251285Y-64927238D01*
X69130333Y-64878857D01*
X69069857Y-64782095D01*
X69069857Y-64588571D01*
X69130333Y-64491809D01*
X69856047Y-64927238D02*
X69916523Y-64830476D01*
X69916523Y-64588571D01*
X69856047Y-64491809D01*
X69735095Y-64443428D01*
X69614142Y-64443428D01*
X69493190Y-64491809D01*
X69432714Y-64588571D01*
X69432714Y-64830476D01*
X69372238Y-64927238D01*
X69916523Y-65411047D02*
X68646523Y-65411047D01*
X69130333Y-65411047D02*
X69069857Y-65507809D01*
X69069857Y-65701333D01*
X69130333Y-65798095D01*
X69190809Y-65846476D01*
X69311761Y-65894857D01*
X69674619Y-65894857D01*
X69795571Y-65846476D01*
X69856047Y-65798095D01*
X69916523Y-65701333D01*
X69916523Y-65507809D01*
X69856047Y-65411047D01*
X116767428Y-69856047D02*
X116767428Y-69517380D01*
X117299619Y-69517380D02*
X116283619Y-69517380D01*
X116283619Y-70001190D01*
X116283619Y-70872047D02*
X116283619Y-70388238D01*
X116767428Y-70339857D01*
X116719047Y-70388238D01*
X116670666Y-70485000D01*
X116670666Y-70726904D01*
X116719047Y-70823666D01*
X116767428Y-70872047D01*
X116864190Y-70920428D01*
X117106095Y-70920428D01*
X117202857Y-70872047D01*
X117251238Y-70823666D01*
X117299619Y-70726904D01*
X117299619Y-70485000D01*
X117251238Y-70388238D01*
X117202857Y-70339857D01*
X116767428Y-72468619D02*
X116767428Y-72129952D01*
X117299619Y-72129952D02*
X116283619Y-72129952D01*
X116283619Y-72613761D01*
X116622285Y-73436238D02*
X117299619Y-73436238D01*
X116235238Y-73194333D02*
X116960952Y-72952428D01*
X116960952Y-73581380D01*
X96882857Y-69825809D02*
X96931238Y-69777428D01*
X96979619Y-69632285D01*
X96979619Y-69535523D01*
X96931238Y-69390380D01*
X96834476Y-69293619D01*
X96737714Y-69245238D01*
X96544190Y-69196857D01*
X96399047Y-69196857D01*
X96205523Y-69245238D01*
X96108761Y-69293619D01*
X96012000Y-69390380D01*
X95963619Y-69535523D01*
X95963619Y-69632285D01*
X96012000Y-69777428D01*
X96060380Y-69825809D01*
X95963619Y-70164476D02*
X95963619Y-70841809D01*
X96979619Y-70406380D01*
X96882857Y-72583523D02*
X96931238Y-72535142D01*
X96979619Y-72390000D01*
X96979619Y-72293238D01*
X96931238Y-72148095D01*
X96834476Y-72051333D01*
X96737714Y-72002952D01*
X96544190Y-71954571D01*
X96399047Y-71954571D01*
X96205523Y-72002952D01*
X96108761Y-72051333D01*
X96012000Y-72148095D01*
X95963619Y-72293238D01*
X95963619Y-72390000D01*
X96012000Y-72535142D01*
X96060380Y-72583523D01*
X95963619Y-73454380D02*
X95963619Y-73260857D01*
X96012000Y-73164095D01*
X96060380Y-73115714D01*
X96205523Y-73018952D01*
X96399047Y-72970571D01*
X96786095Y-72970571D01*
X96882857Y-73018952D01*
X96931238Y-73067333D01*
X96979619Y-73164095D01*
X96979619Y-73357619D01*
X96931238Y-73454380D01*
X96882857Y-73502761D01*
X96786095Y-73551142D01*
X96544190Y-73551142D01*
X96447428Y-73502761D01*
X96399047Y-73454380D01*
X96350666Y-73357619D01*
X96350666Y-73164095D01*
X96399047Y-73067333D01*
X96447428Y-73018952D01*
X96544190Y-72970571D01*
X121847428Y-69856047D02*
X121847428Y-69517380D01*
X122379619Y-69517380D02*
X121363619Y-69517380D01*
X121363619Y-70001190D01*
X122379619Y-70920428D02*
X122379619Y-70339857D01*
X122379619Y-70630142D02*
X121363619Y-70630142D01*
X121508761Y-70533380D01*
X121605523Y-70436619D01*
X121653904Y-70339857D01*
X121847428Y-72468619D02*
X121847428Y-72129952D01*
X122379619Y-72129952D02*
X121363619Y-72129952D01*
X121363619Y-72613761D01*
X121363619Y-73194333D02*
X121363619Y-73291095D01*
X121412000Y-73387857D01*
X121460380Y-73436238D01*
X121557142Y-73484619D01*
X121750666Y-73533000D01*
X121992571Y-73533000D01*
X122186095Y-73484619D01*
X122282857Y-73436238D01*
X122331238Y-73387857D01*
X122379619Y-73291095D01*
X122379619Y-73194333D01*
X122331238Y-73097571D01*
X122282857Y-73049190D01*
X122186095Y-73000809D01*
X121992571Y-72952428D01*
X121750666Y-72952428D01*
X121557142Y-73000809D01*
X121460380Y-73049190D01*
X121412000Y-73097571D01*
X121363619Y-73194333D01*
X106607428Y-33134904D02*
X106655809Y-33280047D01*
X106704190Y-33328428D01*
X106800952Y-33376809D01*
X106946095Y-33376809D01*
X107042857Y-33328428D01*
X107091238Y-33280047D01*
X107139619Y-33183285D01*
X107139619Y-32796238D01*
X106123619Y-32796238D01*
X106123619Y-33134904D01*
X106172000Y-33231666D01*
X106220380Y-33280047D01*
X106317142Y-33328428D01*
X106413904Y-33328428D01*
X106510666Y-33280047D01*
X106559047Y-33231666D01*
X106607428Y-33134904D01*
X106607428Y-32796238D01*
X106123619Y-33715476D02*
X106123619Y-34344428D01*
X106510666Y-34005761D01*
X106510666Y-34150904D01*
X106559047Y-34247666D01*
X106607428Y-34296047D01*
X106704190Y-34344428D01*
X106946095Y-34344428D01*
X107042857Y-34296047D01*
X107091238Y-34247666D01*
X107139619Y-34150904D01*
X107139619Y-33860619D01*
X107091238Y-33763857D01*
X107042857Y-33715476D01*
X106607428Y-35892619D02*
X106655809Y-36037761D01*
X106704190Y-36086142D01*
X106800952Y-36134523D01*
X106946095Y-36134523D01*
X107042857Y-36086142D01*
X107091238Y-36037761D01*
X107139619Y-35941000D01*
X107139619Y-35553952D01*
X106123619Y-35553952D01*
X106123619Y-35892619D01*
X106172000Y-35989380D01*
X106220380Y-36037761D01*
X106317142Y-36086142D01*
X106413904Y-36086142D01*
X106510666Y-36037761D01*
X106559047Y-35989380D01*
X106607428Y-35892619D01*
X106607428Y-35553952D01*
X106220380Y-36521571D02*
X106172000Y-36569952D01*
X106123619Y-36666714D01*
X106123619Y-36908619D01*
X106172000Y-37005380D01*
X106220380Y-37053761D01*
X106317142Y-37102142D01*
X106413904Y-37102142D01*
X106559047Y-37053761D01*
X107139619Y-36473190D01*
X107139619Y-37102142D01*
D11*
X56459380Y-74509523D02*
X55983190Y-74176190D01*
X56459380Y-73938095D02*
X55459380Y-73938095D01*
X55459380Y-74319047D01*
X55507000Y-74414285D01*
X55554619Y-74461904D01*
X55649857Y-74509523D01*
X55792714Y-74509523D01*
X55887952Y-74461904D01*
X55935571Y-74414285D01*
X55983190Y-74319047D01*
X55983190Y-73938095D01*
X56411761Y-75319047D02*
X56459380Y-75223809D01*
X56459380Y-75033333D01*
X56411761Y-74938095D01*
X56316523Y-74890476D01*
X55935571Y-74890476D01*
X55840333Y-74938095D01*
X55792714Y-75033333D01*
X55792714Y-75223809D01*
X55840333Y-75319047D01*
X55935571Y-75366666D01*
X56030809Y-75366666D01*
X56126047Y-74890476D01*
X55792714Y-75700000D02*
X56459380Y-75938095D01*
X55792714Y-76176190D01*
X56459380Y-77080952D02*
X56459380Y-76509523D01*
X56459380Y-76795238D02*
X55459380Y-76795238D01*
X55602238Y-76700000D01*
X55697476Y-76604761D01*
X55745095Y-76509523D01*
X56364142Y-77509523D02*
X56411761Y-77557142D01*
X56459380Y-77509523D01*
X56411761Y-77461904D01*
X56364142Y-77509523D01*
X56459380Y-77509523D01*
X55459380Y-78176190D02*
X55459380Y-78271428D01*
X55507000Y-78366666D01*
X55554619Y-78414285D01*
X55649857Y-78461904D01*
X55840333Y-78509523D01*
X56078428Y-78509523D01*
X56268904Y-78461904D01*
X56364142Y-78414285D01*
X56411761Y-78366666D01*
X56459380Y-78271428D01*
X56459380Y-78176190D01*
X56411761Y-78080952D01*
X56364142Y-78033333D01*
X56268904Y-77985714D01*
X56078428Y-77938095D01*
X55840333Y-77938095D01*
X55649857Y-77985714D01*
X55554619Y-78033333D01*
X55507000Y-78080952D01*
X55459380Y-78176190D01*
D10*
X106849333Y-69469000D02*
X106849333Y-69952809D01*
X107139619Y-69372238D02*
X106123619Y-69710904D01*
X107139619Y-70049571D01*
X106123619Y-70291476D02*
X106123619Y-70920428D01*
X106510666Y-70581761D01*
X106510666Y-70726904D01*
X106559047Y-70823666D01*
X106607428Y-70872047D01*
X106704190Y-70920428D01*
X106946095Y-70920428D01*
X107042857Y-70872047D01*
X107091238Y-70823666D01*
X107139619Y-70726904D01*
X107139619Y-70436619D01*
X107091238Y-70339857D01*
X107042857Y-70291476D01*
X106849333Y-72081571D02*
X106849333Y-72565380D01*
X107139619Y-71984809D02*
X106123619Y-72323476D01*
X107139619Y-72662142D01*
X106462285Y-73436238D02*
X107139619Y-73436238D01*
X106075238Y-73194333D02*
X106800952Y-72952428D01*
X106800952Y-73581380D01*
X101769333Y-69469000D02*
X101769333Y-69952809D01*
X102059619Y-69372238D02*
X101043619Y-69710904D01*
X102059619Y-70049571D01*
X101043619Y-70291476D02*
X101043619Y-70968809D01*
X102059619Y-70533380D01*
X101769333Y-72081571D02*
X101769333Y-72565380D01*
X102059619Y-71984809D02*
X101043619Y-72323476D01*
X102059619Y-72662142D01*
X101043619Y-73436238D02*
X101043619Y-73242714D01*
X101092000Y-73145952D01*
X101140380Y-73097571D01*
X101285523Y-73000809D01*
X101479047Y-72952428D01*
X101866095Y-72952428D01*
X101962857Y-73000809D01*
X102011238Y-73049190D01*
X102059619Y-73145952D01*
X102059619Y-73339476D01*
X102011238Y-73436238D01*
X101962857Y-73484619D01*
X101866095Y-73533000D01*
X101624190Y-73533000D01*
X101527428Y-73484619D01*
X101479047Y-73436238D01*
X101430666Y-73339476D01*
X101430666Y-73145952D01*
X101479047Y-73049190D01*
X101527428Y-73000809D01*
X101624190Y-72952428D01*
X91899619Y-32796238D02*
X90883619Y-32796238D01*
X90883619Y-33038142D01*
X90932000Y-33183285D01*
X91028761Y-33280047D01*
X91125523Y-33328428D01*
X91319047Y-33376809D01*
X91464190Y-33376809D01*
X91657714Y-33328428D01*
X91754476Y-33280047D01*
X91851238Y-33183285D01*
X91899619Y-33038142D01*
X91899619Y-32796238D01*
X90883619Y-34296047D02*
X90883619Y-33812238D01*
X91367428Y-33763857D01*
X91319047Y-33812238D01*
X91270666Y-33909000D01*
X91270666Y-34150904D01*
X91319047Y-34247666D01*
X91367428Y-34296047D01*
X91464190Y-34344428D01*
X91706095Y-34344428D01*
X91802857Y-34296047D01*
X91851238Y-34247666D01*
X91899619Y-34150904D01*
X91899619Y-33909000D01*
X91851238Y-33812238D01*
X91802857Y-33763857D01*
X91899619Y-35553952D02*
X90883619Y-35553952D01*
X90883619Y-35795857D01*
X90932000Y-35941000D01*
X91028761Y-36037761D01*
X91125523Y-36086142D01*
X91319047Y-36134523D01*
X91464190Y-36134523D01*
X91657714Y-36086142D01*
X91754476Y-36037761D01*
X91851238Y-35941000D01*
X91899619Y-35795857D01*
X91899619Y-35553952D01*
X91222285Y-37005380D02*
X91899619Y-37005380D01*
X90835238Y-36763476D02*
X91560952Y-36521571D01*
X91560952Y-37150523D01*
X109389333Y-69469000D02*
X109389333Y-69952809D01*
X109679619Y-69372238D02*
X108663619Y-69710904D01*
X109679619Y-70049571D01*
X109679619Y-70920428D02*
X109679619Y-70339857D01*
X109679619Y-70630142D02*
X108663619Y-70630142D01*
X108808761Y-70533380D01*
X108905523Y-70436619D01*
X108953904Y-70339857D01*
X109389333Y-72081571D02*
X109389333Y-72565380D01*
X109679619Y-71984809D02*
X108663619Y-72323476D01*
X109679619Y-72662142D01*
X108663619Y-73194333D02*
X108663619Y-73291095D01*
X108712000Y-73387857D01*
X108760380Y-73436238D01*
X108857142Y-73484619D01*
X109050666Y-73533000D01*
X109292571Y-73533000D01*
X109486095Y-73484619D01*
X109582857Y-73436238D01*
X109631238Y-73387857D01*
X109679619Y-73291095D01*
X109679619Y-73194333D01*
X109631238Y-73097571D01*
X109582857Y-73049190D01*
X109486095Y-73000809D01*
X109292571Y-72952428D01*
X109050666Y-72952428D01*
X108857142Y-73000809D01*
X108760380Y-73049190D01*
X108712000Y-73097571D01*
X108663619Y-73194333D01*
X124768428Y-40942380D02*
X124768428Y-41958380D01*
X125107095Y-41232666D01*
X125445761Y-41958380D01*
X125445761Y-40942380D01*
X125929571Y-40942380D02*
X125929571Y-41958380D01*
X126365000Y-40990761D02*
X126510142Y-40942380D01*
X126752047Y-40942380D01*
X126848809Y-40990761D01*
X126897190Y-41039142D01*
X126945571Y-41135904D01*
X126945571Y-41232666D01*
X126897190Y-41329428D01*
X126848809Y-41377809D01*
X126752047Y-41426190D01*
X126558523Y-41474571D01*
X126461761Y-41522952D01*
X126413380Y-41571333D01*
X126365000Y-41668095D01*
X126365000Y-41764857D01*
X126413380Y-41861619D01*
X126461761Y-41910000D01*
X126558523Y-41958380D01*
X126800428Y-41958380D01*
X126945571Y-41910000D01*
X127574523Y-41958380D02*
X127768047Y-41958380D01*
X127864809Y-41910000D01*
X127961571Y-41813238D01*
X128009952Y-41619714D01*
X128009952Y-41281047D01*
X127961571Y-41087523D01*
X127864809Y-40990761D01*
X127768047Y-40942380D01*
X127574523Y-40942380D01*
X127477761Y-40990761D01*
X127381000Y-41087523D01*
X127332619Y-41281047D01*
X127332619Y-41619714D01*
X127381000Y-41813238D01*
X127477761Y-41910000D01*
X127574523Y-41958380D01*
D11*
X83348580Y-77136666D02*
X84062866Y-77136666D01*
X84205723Y-77089047D01*
X84300961Y-76993809D01*
X84348580Y-76850952D01*
X84348580Y-76755714D01*
X83348580Y-77517619D02*
X83348580Y-78136666D01*
X83729533Y-77803333D01*
X83729533Y-77946190D01*
X83777152Y-78041428D01*
X83824771Y-78089047D01*
X83920009Y-78136666D01*
X84158104Y-78136666D01*
X84253342Y-78089047D01*
X84300961Y-78041428D01*
X84348580Y-77946190D01*
X84348580Y-77660476D01*
X84300961Y-77565238D01*
X84253342Y-77517619D01*
D10*
X91802857Y-69825809D02*
X91851238Y-69777428D01*
X91899619Y-69632285D01*
X91899619Y-69535523D01*
X91851238Y-69390380D01*
X91754476Y-69293619D01*
X91657714Y-69245238D01*
X91464190Y-69196857D01*
X91319047Y-69196857D01*
X91125523Y-69245238D01*
X91028761Y-69293619D01*
X90932000Y-69390380D01*
X90883619Y-69535523D01*
X90883619Y-69632285D01*
X90932000Y-69777428D01*
X90980380Y-69825809D01*
X90883619Y-70164476D02*
X90883619Y-70793428D01*
X91270666Y-70454761D01*
X91270666Y-70599904D01*
X91319047Y-70696666D01*
X91367428Y-70745047D01*
X91464190Y-70793428D01*
X91706095Y-70793428D01*
X91802857Y-70745047D01*
X91851238Y-70696666D01*
X91899619Y-70599904D01*
X91899619Y-70309619D01*
X91851238Y-70212857D01*
X91802857Y-70164476D01*
X91802857Y-72583523D02*
X91851238Y-72535142D01*
X91899619Y-72390000D01*
X91899619Y-72293238D01*
X91851238Y-72148095D01*
X91754476Y-72051333D01*
X91657714Y-72002952D01*
X91464190Y-71954571D01*
X91319047Y-71954571D01*
X91125523Y-72002952D01*
X91028761Y-72051333D01*
X90932000Y-72148095D01*
X90883619Y-72293238D01*
X90883619Y-72390000D01*
X90932000Y-72535142D01*
X90980380Y-72583523D01*
X90980380Y-72970571D02*
X90932000Y-73018952D01*
X90883619Y-73115714D01*
X90883619Y-73357619D01*
X90932000Y-73454380D01*
X90980380Y-73502761D01*
X91077142Y-73551142D01*
X91173904Y-73551142D01*
X91319047Y-73502761D01*
X91899619Y-72922190D01*
X91899619Y-73551142D01*
X120964476Y-60627380D02*
X120480666Y-60627380D01*
X120432285Y-60143571D01*
X120480666Y-60191952D01*
X120577428Y-60240333D01*
X120819333Y-60240333D01*
X120916095Y-60191952D01*
X120964476Y-60143571D01*
X121012857Y-60046809D01*
X121012857Y-59804904D01*
X120964476Y-59708142D01*
X120916095Y-59659761D01*
X120819333Y-59611380D01*
X120577428Y-59611380D01*
X120480666Y-59659761D01*
X120432285Y-59708142D01*
X121303142Y-60627380D02*
X121641809Y-59611380D01*
X121980476Y-60627380D01*
X125312714Y-42641761D02*
X125457857Y-42593380D01*
X125699761Y-42593380D01*
X125796523Y-42641761D01*
X125844904Y-42690142D01*
X125893285Y-42786904D01*
X125893285Y-42883666D01*
X125844904Y-42980428D01*
X125796523Y-43028809D01*
X125699761Y-43077190D01*
X125506238Y-43125571D01*
X125409476Y-43173952D01*
X125361095Y-43222333D01*
X125312714Y-43319095D01*
X125312714Y-43415857D01*
X125361095Y-43512619D01*
X125409476Y-43561000D01*
X125506238Y-43609380D01*
X125748142Y-43609380D01*
X125893285Y-43561000D01*
X126909285Y-42690142D02*
X126860904Y-42641761D01*
X126715761Y-42593380D01*
X126619000Y-42593380D01*
X126473857Y-42641761D01*
X126377095Y-42738523D01*
X126328714Y-42835285D01*
X126280333Y-43028809D01*
X126280333Y-43173952D01*
X126328714Y-43367476D01*
X126377095Y-43464238D01*
X126473857Y-43561000D01*
X126619000Y-43609380D01*
X126715761Y-43609380D01*
X126860904Y-43561000D01*
X126909285Y-43512619D01*
X127344714Y-42593380D02*
X127344714Y-43609380D01*
X127925285Y-42593380D02*
X127489857Y-43173952D01*
X127925285Y-43609380D02*
X127344714Y-43028809D01*
X119748904Y-50419000D02*
X119652142Y-50467380D01*
X119507000Y-50467380D01*
X119361857Y-50419000D01*
X119265095Y-50322238D01*
X119216714Y-50225476D01*
X119168333Y-50031952D01*
X119168333Y-49886809D01*
X119216714Y-49693285D01*
X119265095Y-49596523D01*
X119361857Y-49499761D01*
X119507000Y-49451380D01*
X119603761Y-49451380D01*
X119748904Y-49499761D01*
X119797285Y-49548142D01*
X119797285Y-49886809D01*
X119603761Y-49886809D01*
X120232714Y-49451380D02*
X120232714Y-50467380D01*
X120813285Y-49451380D01*
X120813285Y-50467380D01*
X121297095Y-49451380D02*
X121297095Y-50467380D01*
X121539000Y-50467380D01*
X121684142Y-50419000D01*
X121780904Y-50322238D01*
X121829285Y-50225476D01*
X121877666Y-50031952D01*
X121877666Y-49886809D01*
X121829285Y-49693285D01*
X121780904Y-49596523D01*
X121684142Y-49499761D01*
X121539000Y-49451380D01*
X121297095Y-49451380D01*
X124641428Y-46022380D02*
X124641428Y-47038380D01*
X124980095Y-46312666D01*
X125318761Y-47038380D01*
X125318761Y-46022380D01*
X125996095Y-47038380D02*
X126189619Y-47038380D01*
X126286380Y-46990000D01*
X126383142Y-46893238D01*
X126431523Y-46699714D01*
X126431523Y-46361047D01*
X126383142Y-46167523D01*
X126286380Y-46070761D01*
X126189619Y-46022380D01*
X125996095Y-46022380D01*
X125899333Y-46070761D01*
X125802571Y-46167523D01*
X125754190Y-46361047D01*
X125754190Y-46699714D01*
X125802571Y-46893238D01*
X125899333Y-46990000D01*
X125996095Y-47038380D01*
X126818571Y-46070761D02*
X126963714Y-46022380D01*
X127205619Y-46022380D01*
X127302380Y-46070761D01*
X127350761Y-46119142D01*
X127399142Y-46215904D01*
X127399142Y-46312666D01*
X127350761Y-46409428D01*
X127302380Y-46457809D01*
X127205619Y-46506190D01*
X127012095Y-46554571D01*
X126915333Y-46602952D01*
X126866952Y-46651333D01*
X126818571Y-46748095D01*
X126818571Y-46844857D01*
X126866952Y-46941619D01*
X126915333Y-46990000D01*
X127012095Y-47038380D01*
X127254000Y-47038380D01*
X127399142Y-46990000D01*
X127834571Y-46022380D02*
X127834571Y-47038380D01*
X109147428Y-33134904D02*
X109195809Y-33280047D01*
X109244190Y-33328428D01*
X109340952Y-33376809D01*
X109486095Y-33376809D01*
X109582857Y-33328428D01*
X109631238Y-33280047D01*
X109679619Y-33183285D01*
X109679619Y-32796238D01*
X108663619Y-32796238D01*
X108663619Y-33134904D01*
X108712000Y-33231666D01*
X108760380Y-33280047D01*
X108857142Y-33328428D01*
X108953904Y-33328428D01*
X109050666Y-33280047D01*
X109099047Y-33231666D01*
X109147428Y-33134904D01*
X109147428Y-32796238D01*
X109679619Y-34344428D02*
X109679619Y-33763857D01*
X109679619Y-34054142D02*
X108663619Y-34054142D01*
X108808761Y-33957380D01*
X108905523Y-33860619D01*
X108953904Y-33763857D01*
X109147428Y-35892619D02*
X109195809Y-36037761D01*
X109244190Y-36086142D01*
X109340952Y-36134523D01*
X109486095Y-36134523D01*
X109582857Y-36086142D01*
X109631238Y-36037761D01*
X109679619Y-35941000D01*
X109679619Y-35553952D01*
X108663619Y-35553952D01*
X108663619Y-35892619D01*
X108712000Y-35989380D01*
X108760380Y-36037761D01*
X108857142Y-36086142D01*
X108953904Y-36086142D01*
X109050666Y-36037761D01*
X109099047Y-35989380D01*
X109147428Y-35892619D01*
X109147428Y-35553952D01*
X108663619Y-36763476D02*
X108663619Y-36860238D01*
X108712000Y-36957000D01*
X108760380Y-37005380D01*
X108857142Y-37053761D01*
X109050666Y-37102142D01*
X109292571Y-37102142D01*
X109486095Y-37053761D01*
X109582857Y-37005380D01*
X109631238Y-36957000D01*
X109679619Y-36860238D01*
X109679619Y-36763476D01*
X109631238Y-36666714D01*
X109582857Y-36618333D01*
X109486095Y-36569952D01*
X109292571Y-36521571D01*
X109050666Y-36521571D01*
X108857142Y-36569952D01*
X108760380Y-36618333D01*
X108712000Y-36666714D01*
X108663619Y-36763476D01*
X119307428Y-69856047D02*
X119307428Y-69517380D01*
X119839619Y-69517380D02*
X118823619Y-69517380D01*
X118823619Y-70001190D01*
X118823619Y-70291476D02*
X118823619Y-70920428D01*
X119210666Y-70581761D01*
X119210666Y-70726904D01*
X119259047Y-70823666D01*
X119307428Y-70872047D01*
X119404190Y-70920428D01*
X119646095Y-70920428D01*
X119742857Y-70872047D01*
X119791238Y-70823666D01*
X119839619Y-70726904D01*
X119839619Y-70436619D01*
X119791238Y-70339857D01*
X119742857Y-70291476D01*
X119307428Y-72468619D02*
X119307428Y-72129952D01*
X119839619Y-72129952D02*
X118823619Y-72129952D01*
X118823619Y-72613761D01*
X118920380Y-72952428D02*
X118872000Y-73000809D01*
X118823619Y-73097571D01*
X118823619Y-73339476D01*
X118872000Y-73436238D01*
X118920380Y-73484619D01*
X119017142Y-73533000D01*
X119113904Y-73533000D01*
X119259047Y-73484619D01*
X119839619Y-72904047D01*
X119839619Y-73533000D01*
X94342857Y-69825809D02*
X94391238Y-69777428D01*
X94439619Y-69632285D01*
X94439619Y-69535523D01*
X94391238Y-69390380D01*
X94294476Y-69293619D01*
X94197714Y-69245238D01*
X94004190Y-69196857D01*
X93859047Y-69196857D01*
X93665523Y-69245238D01*
X93568761Y-69293619D01*
X93472000Y-69390380D01*
X93423619Y-69535523D01*
X93423619Y-69632285D01*
X93472000Y-69777428D01*
X93520380Y-69825809D01*
X93423619Y-70745047D02*
X93423619Y-70261238D01*
X93907428Y-70212857D01*
X93859047Y-70261238D01*
X93810666Y-70358000D01*
X93810666Y-70599904D01*
X93859047Y-70696666D01*
X93907428Y-70745047D01*
X94004190Y-70793428D01*
X94246095Y-70793428D01*
X94342857Y-70745047D01*
X94391238Y-70696666D01*
X94439619Y-70599904D01*
X94439619Y-70358000D01*
X94391238Y-70261238D01*
X94342857Y-70212857D01*
X94342857Y-72583523D02*
X94391238Y-72535142D01*
X94439619Y-72390000D01*
X94439619Y-72293238D01*
X94391238Y-72148095D01*
X94294476Y-72051333D01*
X94197714Y-72002952D01*
X94004190Y-71954571D01*
X93859047Y-71954571D01*
X93665523Y-72002952D01*
X93568761Y-72051333D01*
X93472000Y-72148095D01*
X93423619Y-72293238D01*
X93423619Y-72390000D01*
X93472000Y-72535142D01*
X93520380Y-72583523D01*
X93762285Y-73454380D02*
X94439619Y-73454380D01*
X93375238Y-73212476D02*
X94100952Y-72970571D01*
X94100952Y-73599523D01*
X89262857Y-69825809D02*
X89311238Y-69777428D01*
X89359619Y-69632285D01*
X89359619Y-69535523D01*
X89311238Y-69390380D01*
X89214476Y-69293619D01*
X89117714Y-69245238D01*
X88924190Y-69196857D01*
X88779047Y-69196857D01*
X88585523Y-69245238D01*
X88488761Y-69293619D01*
X88392000Y-69390380D01*
X88343619Y-69535523D01*
X88343619Y-69632285D01*
X88392000Y-69777428D01*
X88440380Y-69825809D01*
X89359619Y-70793428D02*
X89359619Y-70212857D01*
X89359619Y-70503142D02*
X88343619Y-70503142D01*
X88488761Y-70406380D01*
X88585523Y-70309619D01*
X88633904Y-70212857D01*
X89262857Y-72583523D02*
X89311238Y-72535142D01*
X89359619Y-72390000D01*
X89359619Y-72293238D01*
X89311238Y-72148095D01*
X89214476Y-72051333D01*
X89117714Y-72002952D01*
X88924190Y-71954571D01*
X88779047Y-71954571D01*
X88585523Y-72002952D01*
X88488761Y-72051333D01*
X88392000Y-72148095D01*
X88343619Y-72293238D01*
X88343619Y-72390000D01*
X88392000Y-72535142D01*
X88440380Y-72583523D01*
X88343619Y-73212476D02*
X88343619Y-73309238D01*
X88392000Y-73406000D01*
X88440380Y-73454380D01*
X88537142Y-73502761D01*
X88730666Y-73551142D01*
X88972571Y-73551142D01*
X89166095Y-73502761D01*
X89262857Y-73454380D01*
X89311238Y-73406000D01*
X89359619Y-73309238D01*
X89359619Y-73212476D01*
X89311238Y-73115714D01*
X89262857Y-73067333D01*
X89166095Y-73018952D01*
X88972571Y-72970571D01*
X88730666Y-72970571D01*
X88537142Y-73018952D01*
X88440380Y-73067333D01*
X88392000Y-73115714D01*
X88343619Y-73212476D01*
X98552000Y-69420619D02*
X98503619Y-69323857D01*
X98503619Y-69178714D01*
X98552000Y-69033571D01*
X98648761Y-68936809D01*
X98745523Y-68888428D01*
X98939047Y-68840047D01*
X99084190Y-68840047D01*
X99277714Y-68888428D01*
X99374476Y-68936809D01*
X99471238Y-69033571D01*
X99519619Y-69178714D01*
X99519619Y-69275476D01*
X99471238Y-69420619D01*
X99422857Y-69469000D01*
X99084190Y-69469000D01*
X99084190Y-69275476D01*
X99519619Y-69904428D02*
X98503619Y-69904428D01*
X99519619Y-70485000D01*
X98503619Y-70485000D01*
X99519619Y-70968809D02*
X98503619Y-70968809D01*
X98503619Y-71210714D01*
X98552000Y-71355857D01*
X98648761Y-71452619D01*
X98745523Y-71501000D01*
X98939047Y-71549380D01*
X99084190Y-71549380D01*
X99277714Y-71501000D01*
X99374476Y-71452619D01*
X99471238Y-71355857D01*
X99519619Y-71210714D01*
X99519619Y-70968809D01*
X98503619Y-73242714D02*
X98503619Y-72758904D01*
X98987428Y-72710523D01*
X98939047Y-72758904D01*
X98890666Y-72855666D01*
X98890666Y-73097571D01*
X98939047Y-73194333D01*
X98987428Y-73242714D01*
X99084190Y-73291095D01*
X99326095Y-73291095D01*
X99422857Y-73242714D01*
X99471238Y-73194333D01*
X99519619Y-73097571D01*
X99519619Y-72855666D01*
X99471238Y-72758904D01*
X99422857Y-72710523D01*
X98503619Y-73581380D02*
X99519619Y-73920047D01*
X98503619Y-74258714D01*
X114227428Y-69856047D02*
X114227428Y-69517380D01*
X114759619Y-69517380D02*
X113743619Y-69517380D01*
X113743619Y-70001190D01*
X113743619Y-70291476D02*
X113743619Y-70968809D01*
X114759619Y-70533380D01*
X114227428Y-72468619D02*
X114227428Y-72129952D01*
X114759619Y-72129952D02*
X113743619Y-72129952D01*
X113743619Y-72613761D01*
X113743619Y-73436238D02*
X113743619Y-73242714D01*
X113792000Y-73145952D01*
X113840380Y-73097571D01*
X113985523Y-73000809D01*
X114179047Y-72952428D01*
X114566095Y-72952428D01*
X114662857Y-73000809D01*
X114711238Y-73049190D01*
X114759619Y-73145952D01*
X114759619Y-73339476D01*
X114711238Y-73436238D01*
X114662857Y-73484619D01*
X114566095Y-73533000D01*
X114324190Y-73533000D01*
X114227428Y-73484619D01*
X114179047Y-73436238D01*
X114130666Y-73339476D01*
X114130666Y-73145952D01*
X114179047Y-73049190D01*
X114227428Y-73000809D01*
X114324190Y-72952428D01*
X104309333Y-69469000D02*
X104309333Y-69952809D01*
X104599619Y-69372238D02*
X103583619Y-69710904D01*
X104599619Y-70049571D01*
X103583619Y-70872047D02*
X103583619Y-70388238D01*
X104067428Y-70339857D01*
X104019047Y-70388238D01*
X103970666Y-70485000D01*
X103970666Y-70726904D01*
X104019047Y-70823666D01*
X104067428Y-70872047D01*
X104164190Y-70920428D01*
X104406095Y-70920428D01*
X104502857Y-70872047D01*
X104551238Y-70823666D01*
X104599619Y-70726904D01*
X104599619Y-70485000D01*
X104551238Y-70388238D01*
X104502857Y-70339857D01*
X104309333Y-72081571D02*
X104309333Y-72565380D01*
X104599619Y-71984809D02*
X103583619Y-72323476D01*
X104599619Y-72662142D01*
X103922285Y-73436238D02*
X104599619Y-73436238D01*
X103535238Y-73194333D02*
X104260952Y-72952428D01*
X104260952Y-73581380D01*
X85852000Y-32844619D02*
X85803619Y-32747857D01*
X85803619Y-32602714D01*
X85852000Y-32457571D01*
X85948761Y-32360809D01*
X86045523Y-32312428D01*
X86239047Y-32264047D01*
X86384190Y-32264047D01*
X86577714Y-32312428D01*
X86674476Y-32360809D01*
X86771238Y-32457571D01*
X86819619Y-32602714D01*
X86819619Y-32699476D01*
X86771238Y-32844619D01*
X86722857Y-32893000D01*
X86384190Y-32893000D01*
X86384190Y-32699476D01*
X86819619Y-33328428D02*
X85803619Y-33328428D01*
X86819619Y-33909000D01*
X85803619Y-33909000D01*
X86819619Y-34392809D02*
X85803619Y-34392809D01*
X85803619Y-34634714D01*
X85852000Y-34779857D01*
X85948761Y-34876619D01*
X86045523Y-34925000D01*
X86239047Y-34973380D01*
X86384190Y-34973380D01*
X86577714Y-34925000D01*
X86674476Y-34876619D01*
X86771238Y-34779857D01*
X86819619Y-34634714D01*
X86819619Y-34392809D01*
X85803619Y-36666714D02*
X85803619Y-36182904D01*
X86287428Y-36134523D01*
X86239047Y-36182904D01*
X86190666Y-36279666D01*
X86190666Y-36521571D01*
X86239047Y-36618333D01*
X86287428Y-36666714D01*
X86384190Y-36715095D01*
X86626095Y-36715095D01*
X86722857Y-36666714D01*
X86771238Y-36618333D01*
X86819619Y-36521571D01*
X86819619Y-36279666D01*
X86771238Y-36182904D01*
X86722857Y-36134523D01*
X85803619Y-37005380D02*
X86819619Y-37344047D01*
X85803619Y-37682714D01*
%TO.C,G\u002A\u002A\u002A*%
G36*
X62905440Y-37936405D02*
G01*
X62909870Y-37940779D01*
X62983861Y-38017353D01*
X63036414Y-38078166D01*
X63056403Y-38110397D01*
X63052721Y-38116382D01*
X63015496Y-38158697D01*
X62941811Y-38236793D01*
X62836156Y-38346076D01*
X62703023Y-38481952D01*
X62546901Y-38639827D01*
X62372281Y-38815107D01*
X62183654Y-39003200D01*
X62103192Y-39083274D01*
X61919921Y-39266397D01*
X61752533Y-39434667D01*
X61605515Y-39583506D01*
X61483355Y-39708340D01*
X61390542Y-39804592D01*
X61331562Y-39867687D01*
X61310905Y-39893048D01*
X61314611Y-39898791D01*
X61351876Y-39940524D01*
X61425583Y-40018073D01*
X61531243Y-40126862D01*
X61664368Y-40262314D01*
X61820470Y-40419855D01*
X61995061Y-40594907D01*
X62183654Y-40782896D01*
X62264066Y-40862932D01*
X62447292Y-41046142D01*
X62614582Y-41214575D01*
X62761455Y-41363644D01*
X62883428Y-41488763D01*
X62976020Y-41585347D01*
X63034749Y-41648811D01*
X63055134Y-41674568D01*
X63055119Y-41674759D01*
X63034252Y-41707348D01*
X62981740Y-41768714D01*
X62908802Y-41845731D01*
X62763740Y-41992728D01*
X61708855Y-40940153D01*
X60653970Y-39887577D01*
X61704224Y-38837645D01*
X62754478Y-37787712D01*
X62905440Y-37936405D01*
G37*
G36*
X70978027Y-37251301D02*
G01*
X71050053Y-37324354D01*
X71101987Y-37381109D01*
X71121806Y-37408501D01*
X71121773Y-37408784D01*
X71100259Y-37436362D01*
X71044552Y-37497202D01*
X70962884Y-37582539D01*
X70863486Y-37683607D01*
X70605166Y-37943129D01*
X70452718Y-37794639D01*
X70300269Y-37646149D01*
X70567258Y-37377917D01*
X70834248Y-37109684D01*
X70978027Y-37251301D01*
G37*
G36*
X70236463Y-36522932D02*
G01*
X70294541Y-36569141D01*
X70370908Y-36635287D01*
X70439540Y-36697843D01*
X70494594Y-36750427D01*
X70516848Y-36775069D01*
X70513351Y-36781272D01*
X70478074Y-36820252D01*
X70413184Y-36885811D01*
X70328951Y-36968164D01*
X70235645Y-37057525D01*
X70143535Y-37144111D01*
X70062889Y-37218136D01*
X70003979Y-37269816D01*
X69977073Y-37289365D01*
X69977041Y-37289366D01*
X69949246Y-37269649D01*
X69892148Y-37217741D01*
X69818068Y-37144843D01*
X69675243Y-36999837D01*
X69934573Y-36753610D01*
X70035878Y-36658683D01*
X70122352Y-36580056D01*
X70183761Y-36526909D01*
X70210966Y-36507384D01*
X70236463Y-36522932D01*
G37*
G36*
X65470644Y-36709627D02*
G01*
X65479567Y-36718513D01*
X65579030Y-36818056D01*
X65660160Y-36900140D01*
X65714812Y-36956469D01*
X65734839Y-36978744D01*
X65734770Y-36979004D01*
X65713367Y-37003985D01*
X65661120Y-37059761D01*
X65588763Y-37134859D01*
X65442688Y-37284830D01*
X65175841Y-37016741D01*
X64908994Y-36748651D01*
X65057721Y-36597654D01*
X65206448Y-36446656D01*
X65470644Y-36709627D01*
G37*
G36*
X68805339Y-38975157D02*
G01*
X68919504Y-39091523D01*
X69102324Y-39278089D01*
X69268903Y-39448356D01*
X69414917Y-39597886D01*
X69536040Y-39722242D01*
X69627946Y-39816987D01*
X69686310Y-39877684D01*
X69706805Y-39899894D01*
X69701318Y-39906143D01*
X69660491Y-39948060D01*
X69583543Y-40025580D01*
X69474903Y-40134284D01*
X69339003Y-40269754D01*
X69180270Y-40427570D01*
X69003136Y-40603311D01*
X68812031Y-40792559D01*
X67916711Y-41678379D01*
X67900391Y-40509991D01*
X67511678Y-40509991D01*
X67503531Y-41112842D01*
X67495384Y-41715694D01*
X66585297Y-40804371D01*
X65675209Y-39893048D01*
X66788436Y-39885158D01*
X67901664Y-39877268D01*
X67903042Y-38967267D01*
X67904421Y-38057266D01*
X68805339Y-38975157D01*
G37*
G36*
X66162861Y-43240164D02*
G01*
X66234889Y-43313214D01*
X66286821Y-43369956D01*
X66306640Y-43397331D01*
X66305665Y-43400183D01*
X66277492Y-43435624D01*
X66218092Y-43499795D01*
X66137870Y-43582384D01*
X66047231Y-43673081D01*
X65956580Y-43761573D01*
X65876323Y-43837548D01*
X65816864Y-43890695D01*
X65788610Y-43910702D01*
X65760055Y-43892738D01*
X65702146Y-43841862D01*
X65628688Y-43769612D01*
X65491562Y-43628523D01*
X66019082Y-43098547D01*
X66162861Y-43240164D01*
G37*
G36*
X68744264Y-33904131D02*
G01*
X68781016Y-33940873D01*
X68986202Y-34146027D01*
X69177174Y-34337014D01*
X69349879Y-34509779D01*
X69500269Y-34660268D01*
X69624290Y-34784426D01*
X69717892Y-34878198D01*
X69777024Y-34937531D01*
X69797635Y-34958370D01*
X69796911Y-34959197D01*
X69770436Y-34985890D01*
X69713505Y-35042499D01*
X69636583Y-35118611D01*
X69475530Y-35277663D01*
X68595938Y-34402832D01*
X68509561Y-34317044D01*
X68324803Y-34134386D01*
X68154986Y-33967630D01*
X68004709Y-33821221D01*
X67878573Y-33699607D01*
X67781176Y-33607235D01*
X67717118Y-33548550D01*
X67691000Y-33528000D01*
X67684288Y-33532205D01*
X67640609Y-33570384D01*
X67561050Y-33644707D01*
X67450212Y-33750726D01*
X67312695Y-33883995D01*
X67153098Y-34040067D01*
X66976020Y-34214494D01*
X66786063Y-34402832D01*
X65906471Y-35277663D01*
X65744927Y-35118127D01*
X65583384Y-34958590D01*
X67690892Y-32851082D01*
X68744264Y-33904131D01*
G37*
G36*
X66099482Y-36080002D02*
G01*
X66107052Y-36087504D01*
X66207221Y-36187963D01*
X66289185Y-36272309D01*
X66344667Y-36331887D01*
X66365389Y-36358042D01*
X66365388Y-36358408D01*
X66344834Y-36387348D01*
X66292242Y-36445333D01*
X66218603Y-36520218D01*
X66070376Y-36666216D01*
X65812323Y-36403473D01*
X65807276Y-36398330D01*
X65708840Y-36296523D01*
X65628414Y-36210583D01*
X65574168Y-36149421D01*
X65554270Y-36121951D01*
X65572855Y-36093774D01*
X65623379Y-36035626D01*
X65694642Y-35960657D01*
X65835015Y-35818142D01*
X66099482Y-36080002D01*
G37*
G36*
X63971729Y-37729063D02*
G01*
X64034876Y-37781921D01*
X64121479Y-37861328D01*
X64221947Y-37958793D01*
X64315448Y-38053049D01*
X64396149Y-38136930D01*
X64450771Y-38196661D01*
X64470858Y-38223254D01*
X64451423Y-38250827D01*
X64399730Y-38307832D01*
X64327079Y-38381714D01*
X64183300Y-38523331D01*
X63914221Y-38252999D01*
X63645141Y-37982666D01*
X63778365Y-37846921D01*
X63844258Y-37783439D01*
X63906621Y-37731221D01*
X63942313Y-37711176D01*
X63971729Y-37729063D01*
G37*
G36*
X72091497Y-40892803D02*
G01*
X72099469Y-40900745D01*
X72199266Y-41001543D01*
X72280703Y-41086237D01*
X72335578Y-41146144D01*
X72355692Y-41172580D01*
X72336256Y-41200136D01*
X72284563Y-41257127D01*
X72211913Y-41331003D01*
X72068134Y-41472620D01*
X71798991Y-41202223D01*
X71529847Y-40931827D01*
X71827301Y-40629831D01*
X72091497Y-40892803D01*
G37*
G36*
X67510431Y-39486768D02*
G01*
X66780633Y-39485989D01*
X66050834Y-39485209D01*
X66502256Y-39046680D01*
X66649974Y-38902979D01*
X66815644Y-38741420D01*
X66976393Y-38584300D01*
X67119453Y-38444101D01*
X67232055Y-38333303D01*
X67510431Y-38058455D01*
X67510431Y-39486768D01*
G37*
G36*
X63574672Y-38575504D02*
G01*
X63582644Y-38583447D01*
X63682441Y-38684245D01*
X63763878Y-38768939D01*
X63818753Y-38828846D01*
X63838867Y-38855282D01*
X63819432Y-38882837D01*
X63767738Y-38939828D01*
X63695089Y-39013705D01*
X63551310Y-39155321D01*
X63282166Y-38884925D01*
X63013022Y-38614528D01*
X63161750Y-38463530D01*
X63310477Y-38312533D01*
X63574672Y-38575504D01*
G37*
G36*
X71466876Y-41519350D02*
G01*
X71474102Y-41526956D01*
X71571164Y-41630562D01*
X71650416Y-41717739D01*
X71703862Y-41779525D01*
X71723507Y-41806962D01*
X71707149Y-41831291D01*
X71657660Y-41882710D01*
X71589775Y-41946391D01*
X71518574Y-42008724D01*
X71459138Y-42056103D01*
X71426547Y-42074920D01*
X71426537Y-42074920D01*
X71398118Y-42054363D01*
X71337405Y-41998480D01*
X71253307Y-41915796D01*
X71154737Y-41814839D01*
X70905362Y-41554758D01*
X71210439Y-41249681D01*
X71466876Y-41519350D01*
G37*
G36*
X64598922Y-37117570D02*
G01*
X64655767Y-37154440D01*
X64733262Y-37228231D01*
X64842930Y-37341180D01*
X65100287Y-37605844D01*
X64951271Y-37755782D01*
X64802255Y-37905721D01*
X64547217Y-37650451D01*
X64546840Y-37650074D01*
X64447869Y-37549378D01*
X64366694Y-37463696D01*
X64311689Y-37402088D01*
X64291234Y-37373613D01*
X64295740Y-37362262D01*
X64330988Y-37316115D01*
X64389952Y-37253233D01*
X64437074Y-37206118D01*
X64501098Y-37145646D01*
X64551206Y-37115385D01*
X64598922Y-37117570D01*
G37*
G36*
X68939947Y-44000999D02*
G01*
X68941468Y-44002513D01*
X69039767Y-44102590D01*
X69119062Y-44187585D01*
X69171289Y-44248555D01*
X69188382Y-44276554D01*
X69168791Y-44303358D01*
X69118132Y-44361996D01*
X69048588Y-44437765D01*
X68916484Y-44578216D01*
X68649697Y-44312665D01*
X68382910Y-44047115D01*
X68683821Y-43746204D01*
X68939947Y-44000999D01*
G37*
G36*
X72235526Y-38508897D02*
G01*
X72386722Y-38657820D01*
X71844236Y-39200306D01*
X71693549Y-39049620D01*
X71542863Y-38898933D01*
X71813597Y-38629454D01*
X72084330Y-38359975D01*
X72235526Y-38508897D01*
G37*
G36*
X73677657Y-38837525D02*
G01*
X74727791Y-39887337D01*
X72618077Y-41992539D01*
X72473106Y-41845637D01*
X72472042Y-41844558D01*
X72399334Y-41767721D01*
X72347202Y-41706753D01*
X72326867Y-41674767D01*
X72330484Y-41668832D01*
X72367534Y-41626670D01*
X72441025Y-41548706D01*
X72546478Y-41439529D01*
X72679415Y-41303722D01*
X72835357Y-41145871D01*
X73009827Y-40970564D01*
X73198346Y-40782383D01*
X73279275Y-40701766D01*
X73462451Y-40518605D01*
X73629745Y-40350374D01*
X73776676Y-40201640D01*
X73898759Y-40076972D01*
X73991513Y-39980938D01*
X74050452Y-39918107D01*
X74071095Y-39893048D01*
X74067346Y-39887378D01*
X74030005Y-39845832D01*
X73956259Y-39768441D01*
X73850589Y-39659774D01*
X73717479Y-39524399D01*
X73561414Y-39366885D01*
X73386875Y-39191800D01*
X73198346Y-39003712D01*
X73117770Y-38923429D01*
X72934523Y-38740019D01*
X72767157Y-38571365D01*
X72620160Y-38422059D01*
X72498019Y-38296696D01*
X72405221Y-38199869D01*
X72346251Y-38136172D01*
X72325597Y-38110197D01*
X72325662Y-38109394D01*
X72347719Y-38075369D01*
X72401725Y-38013438D01*
X72476560Y-37936405D01*
X72627523Y-37787712D01*
X73677657Y-38837525D01*
G37*
G36*
X66731891Y-35473020D02*
G01*
X66999090Y-35738981D01*
X66698179Y-36039892D01*
X66442220Y-35785262D01*
X66342859Y-35684177D01*
X66261460Y-35597102D01*
X66206461Y-35533359D01*
X66186261Y-35502238D01*
X66203097Y-35472612D01*
X66253403Y-35413640D01*
X66325477Y-35340452D01*
X66464693Y-35207060D01*
X66731891Y-35473020D01*
G37*
G36*
X68994758Y-35256574D02*
G01*
X69053485Y-35302517D01*
X69126887Y-35370048D01*
X69184590Y-35428773D01*
X69236089Y-35486466D01*
X69255929Y-35516410D01*
X69255866Y-35516903D01*
X69233521Y-35546394D01*
X69176662Y-35608469D01*
X69093588Y-35694341D01*
X68992600Y-35795221D01*
X68729270Y-36054315D01*
X68579308Y-35904818D01*
X68429346Y-35755322D01*
X68683975Y-35499362D01*
X68785080Y-35400074D01*
X68872455Y-35318640D01*
X68936615Y-35263614D01*
X68968225Y-35243403D01*
X68994758Y-35256574D01*
G37*
G36*
X63840630Y-40885649D02*
G01*
X63572214Y-41150768D01*
X63303797Y-41415887D01*
X63165053Y-41279106D01*
X63098492Y-41209876D01*
X63046301Y-41147858D01*
X63026308Y-41113062D01*
X63031193Y-41099354D01*
X63067562Y-41049377D01*
X63127785Y-40984987D01*
X63192234Y-40922337D01*
X63287550Y-40829862D01*
X63383591Y-40736833D01*
X63537920Y-40587491D01*
X63840630Y-40885649D01*
G37*
G36*
X69859017Y-43654828D02*
G01*
X69715471Y-43796543D01*
X69641150Y-43867342D01*
X69581578Y-43919243D01*
X69551178Y-43939527D01*
X69550763Y-43939508D01*
X69521340Y-43917922D01*
X69459526Y-43861507D01*
X69374123Y-43778582D01*
X69273934Y-43677467D01*
X69017437Y-43414138D01*
X69315849Y-43114176D01*
X69859017Y-43654828D01*
G37*
G36*
X66785755Y-45382958D02*
G01*
X66872396Y-45469008D01*
X67057171Y-45651682D01*
X67227001Y-45818450D01*
X67377285Y-45964866D01*
X67503427Y-46086485D01*
X67600826Y-46178860D01*
X67664883Y-46237545D01*
X67691000Y-46258095D01*
X67697708Y-46253895D01*
X67741380Y-46215723D01*
X67820931Y-46141407D01*
X67931763Y-46035394D01*
X68069275Y-45902131D01*
X68228867Y-45746065D01*
X68405939Y-45571642D01*
X68595891Y-45383310D01*
X69475437Y-44508525D01*
X69621489Y-44652380D01*
X69622584Y-44653459D01*
X69695645Y-44727700D01*
X69747699Y-44784836D01*
X69767540Y-44812578D01*
X69767291Y-44813186D01*
X69742278Y-44841412D01*
X69679157Y-44907513D01*
X69582018Y-45007336D01*
X69454951Y-45136728D01*
X69302047Y-45291536D01*
X69127397Y-45467606D01*
X68935089Y-45660784D01*
X68729216Y-45866918D01*
X67690891Y-46904915D01*
X66645358Y-45859382D01*
X65599825Y-44813850D01*
X65905855Y-44507820D01*
X66785755Y-45382958D01*
G37*
G36*
X64297804Y-41345000D02*
G01*
X64369186Y-41420552D01*
X64418362Y-41482877D01*
X64434060Y-41517843D01*
X64411467Y-41548103D01*
X64353658Y-41610972D01*
X64269638Y-41696745D01*
X64168326Y-41796084D01*
X63910937Y-42043906D01*
X63762927Y-41893637D01*
X63614918Y-41743368D01*
X63884062Y-41472972D01*
X64153206Y-41202575D01*
X64297804Y-41345000D01*
G37*
G36*
X70836739Y-42135939D02*
G01*
X70836940Y-42136139D01*
X70935871Y-42235888D01*
X71016879Y-42320095D01*
X71071611Y-42379896D01*
X71091711Y-42406429D01*
X71072276Y-42434002D01*
X71020583Y-42491007D01*
X70947932Y-42564889D01*
X70804153Y-42706506D01*
X70536149Y-42437255D01*
X70268145Y-42168003D01*
X70341711Y-42098890D01*
X70417939Y-42028583D01*
X70498523Y-41956035D01*
X70581768Y-41882292D01*
X70836739Y-42135939D01*
G37*
G36*
X71609423Y-37882706D02*
G01*
X71609467Y-37882750D01*
X71682168Y-37956071D01*
X71734019Y-38011631D01*
X71753796Y-38037404D01*
X71742618Y-38054826D01*
X71696985Y-38106729D01*
X71625954Y-38181515D01*
X71540140Y-38268603D01*
X71450156Y-38357412D01*
X71366616Y-38437360D01*
X71300134Y-38497868D01*
X71261323Y-38528355D01*
X71243801Y-38536165D01*
X71203599Y-38534889D01*
X71151224Y-38501869D01*
X71073230Y-38430081D01*
X71013112Y-38368119D01*
X70961206Y-38307463D01*
X70941237Y-38273732D01*
X70941246Y-38273509D01*
X70962490Y-38242636D01*
X71018867Y-38179677D01*
X71101908Y-38093685D01*
X71203144Y-37993715D01*
X71465050Y-37740504D01*
X71609423Y-37882706D01*
G37*
G36*
X69937714Y-42504507D02*
G01*
X69961566Y-42527612D01*
X70019440Y-42584488D01*
X70102724Y-42666655D01*
X70202807Y-42765630D01*
X70204040Y-42766851D01*
X70303365Y-42866596D01*
X70384658Y-42950869D01*
X70439562Y-43010824D01*
X70459721Y-43037614D01*
X70439888Y-43066036D01*
X70387853Y-43123630D01*
X70314889Y-43197917D01*
X70170057Y-43340571D01*
X69639267Y-42792229D01*
X69784350Y-42644932D01*
X69787804Y-42641429D01*
X69860475Y-42569841D01*
X69914233Y-42520700D01*
X69937663Y-42504464D01*
X69937714Y-42504507D01*
G37*
G36*
X67892181Y-35906725D02*
G01*
X67920029Y-35924006D01*
X67989853Y-35980978D01*
X68089605Y-36070504D01*
X68212455Y-36186243D01*
X68351571Y-36321855D01*
X68500125Y-36471002D01*
X68572200Y-36544316D01*
X68716337Y-36690583D01*
X68893227Y-36869779D01*
X69096966Y-37075934D01*
X69321651Y-37303082D01*
X69561378Y-37545255D01*
X69810242Y-37796485D01*
X70062341Y-38050805D01*
X70311770Y-38302246D01*
X70542494Y-38535363D01*
X70763126Y-38759502D01*
X70968489Y-38969331D01*
X71154687Y-39160812D01*
X71317824Y-39329907D01*
X71454003Y-39472577D01*
X71559328Y-39584784D01*
X71629904Y-39662489D01*
X71661834Y-39701653D01*
X71708235Y-39813191D01*
X71719257Y-39960081D01*
X71679046Y-40098332D01*
X71664519Y-40118743D01*
X71628141Y-40160932D01*
X71569158Y-40224752D01*
X71485998Y-40311775D01*
X71377087Y-40423572D01*
X71240854Y-40561717D01*
X71075725Y-40727780D01*
X70880128Y-40923334D01*
X70652490Y-41149950D01*
X70391238Y-41409200D01*
X70094801Y-41702656D01*
X69761604Y-42031891D01*
X69390075Y-42398475D01*
X68978642Y-42803981D01*
X68525732Y-43249980D01*
X68517645Y-43257936D01*
X68358691Y-43412673D01*
X68210153Y-43554297D01*
X68078453Y-43676910D01*
X67970013Y-43774617D01*
X67891254Y-43841521D01*
X67848599Y-43871726D01*
X67729365Y-43903224D01*
X67594828Y-43903745D01*
X67480337Y-43871006D01*
X67480036Y-43870844D01*
X67444234Y-43841420D01*
X67368919Y-43771579D01*
X67256636Y-43663864D01*
X67109928Y-43520813D01*
X66931340Y-43344966D01*
X66723416Y-43138863D01*
X66488702Y-42905044D01*
X66229740Y-42646048D01*
X65949076Y-42364417D01*
X65649255Y-42062688D01*
X65332819Y-41743404D01*
X65002315Y-41409102D01*
X64660285Y-41062323D01*
X64309275Y-40705607D01*
X64260044Y-40655564D01*
X64060336Y-40451998D01*
X63901182Y-40283448D01*
X63782264Y-40142451D01*
X63703262Y-40021542D01*
X63663858Y-39913255D01*
X63663809Y-39872853D01*
X65027612Y-39872853D01*
X65271937Y-40123709D01*
X65276510Y-40128402D01*
X65350128Y-40203613D01*
X65460351Y-40315816D01*
X65601923Y-40459678D01*
X65769590Y-40629869D01*
X65958097Y-40821055D01*
X66162189Y-41027906D01*
X66376610Y-41245089D01*
X66596107Y-41467273D01*
X67675953Y-42559981D01*
X69007647Y-41246428D01*
X69044186Y-41210379D01*
X69277096Y-40980230D01*
X69496253Y-40763056D01*
X69698010Y-40562512D01*
X69878722Y-40382247D01*
X70034742Y-40225916D01*
X70162423Y-40097169D01*
X70258119Y-39999660D01*
X70318184Y-39937040D01*
X70338972Y-39912962D01*
X70338429Y-39911854D01*
X70311378Y-39881050D01*
X70246135Y-39811774D01*
X70146298Y-39707725D01*
X70015465Y-39572599D01*
X69857235Y-39410094D01*
X69675207Y-39223907D01*
X69472981Y-39017737D01*
X69254154Y-38795279D01*
X69022325Y-38560232D01*
X67706048Y-37227416D01*
X66366830Y-38550135D01*
X65027612Y-39872853D01*
X63663809Y-39872853D01*
X63663734Y-39810126D01*
X63702569Y-39704691D01*
X63780045Y-39589483D01*
X63895844Y-39457039D01*
X64049646Y-39299894D01*
X64241132Y-39110583D01*
X64663706Y-38692823D01*
X65083208Y-38278371D01*
X65463039Y-37903439D01*
X65804763Y-37566500D01*
X66109941Y-37266026D01*
X66380135Y-37000494D01*
X66616908Y-36768375D01*
X66821821Y-36568143D01*
X66996438Y-36398273D01*
X67142320Y-36257238D01*
X67261029Y-36143512D01*
X67354128Y-36055569D01*
X67423179Y-35991882D01*
X67469743Y-35950925D01*
X67495384Y-35931172D01*
X67605336Y-35888652D01*
X67706048Y-35881098D01*
X67749535Y-35877836D01*
X67892181Y-35906725D01*
G37*
G36*
X66795084Y-43872383D02*
G01*
X66866830Y-43945310D01*
X66918795Y-44002525D01*
X66938631Y-44030543D01*
X66937293Y-44034181D01*
X66907338Y-44070960D01*
X66845898Y-44135573D01*
X66763489Y-44217928D01*
X66670625Y-44307936D01*
X66577821Y-44395507D01*
X66495592Y-44470550D01*
X66434453Y-44522975D01*
X66404920Y-44542692D01*
X66383064Y-44530731D01*
X66330055Y-44486499D01*
X66263036Y-44423364D01*
X66196822Y-44355973D01*
X66146228Y-44298974D01*
X66126071Y-44267014D01*
X66126134Y-44266568D01*
X66148425Y-44237878D01*
X66205156Y-44176437D01*
X66288043Y-44090972D01*
X66388804Y-43990207D01*
X66651538Y-43730995D01*
X66795084Y-43872383D01*
G37*
G36*
X64928975Y-41976183D02*
G01*
X65000940Y-42049338D01*
X65052917Y-42106575D01*
X65072754Y-42134606D01*
X65072634Y-42135232D01*
X65049637Y-42164471D01*
X64992492Y-42226531D01*
X64909399Y-42312730D01*
X64808558Y-42414383D01*
X64544363Y-42677354D01*
X64395636Y-42526357D01*
X64246909Y-42375359D01*
X64516052Y-42104962D01*
X64785196Y-41834566D01*
X64928975Y-41976183D01*
G37*
G36*
X69744969Y-35988239D02*
G01*
X69816183Y-36060416D01*
X69868098Y-36117118D01*
X69887920Y-36144520D01*
X69887808Y-36145088D01*
X69865019Y-36173875D01*
X69808241Y-36235725D01*
X69725639Y-36321951D01*
X69625376Y-36423869D01*
X69362832Y-36687635D01*
X69056200Y-36384813D01*
X69329110Y-36116177D01*
X69602019Y-35847540D01*
X69744969Y-35988239D01*
G37*
G36*
X65432394Y-42511795D02*
G01*
X65493002Y-42561377D01*
X65566126Y-42633185D01*
X65695482Y-42770124D01*
X65557163Y-42914705D01*
X65491101Y-42982026D01*
X65384255Y-43086192D01*
X65289410Y-43173883D01*
X65159977Y-43288481D01*
X65013162Y-43143874D01*
X64866347Y-42999266D01*
X65116164Y-42747757D01*
X65212830Y-42653072D01*
X65301292Y-42571631D01*
X65367363Y-42516514D01*
X65401375Y-42496247D01*
X65432394Y-42511795D01*
G37*
%TD*%
M02*
